  0
SECTION
  2
HEADER
  9
$ACADVER
  1
AC1009
  9
$EXTMIN
 10
0.0
 20
0.0
 30
0.0
  9
$EXTMAX
 10
100.0
 20
100.0
 30
0.0
  9
$INSBASE
 10
0.0
 20
0.0
 30
0.0
  0
ENDSEC
  0
SECTION
  2
TABLES
  0
TABLE
  2
LTYPE
 70
19
  0
LTYPE
  2
PHANTOM
 70
0
  3
Phantom ______  __  __  ______  __  __  ______
 72
65
 73
6
 40
2.5
 49
1.25
 49
-0.25
 49
0.25
 49
-0.25
 49
0.25
 49
-0.25
  0
LTYPE
  2
DOT2
 70
0
  3
Dot (.5) . . . . . . . . . . . . . . . . . . . 
 72
65
 73
2
 40
0.1
 49
0.0
 49
-0.1
  0
LTYPE
  2
DIVIDE
 70
0
  3
Divide __ . . __ . . __ . . __ . . __ . . __
 72
65
 73
6
 40
1.6
 49
1.0
 49
-0.2
 49
0.0
 49
-0.2
 49
0.0
 49
-0.2
  0
LTYPE
  2
DIVIDEX2
 70
0
  3
Divide (2x) ____  . .  ____  . .  ____  . .  ____
 72
65
 73
6
 40
2.6
 49
2.0
 49
-0.2
 49
0.0
 49
-0.2
 49
0.0
 49
-0.2
  0
LTYPE
  2
CENTER
 70
0
  3
Center ____ _ ____ _ ____ _ ____ _ ____ _ ____
 72
65
 73
4
 40
2.0
 49
1.25
 49
-0.25
 49
0.25
 49
-0.25
  0
LTYPE
  2
DASHDOT
 70
0
  3
Dash dot __ . __ . __ . __ . __ . __ . __ . __
 72
65
 73
4
 40
1.4
 49
1.0
 49
-0.2
 49
0.0
 49
-0.2
  0
LTYPE
  2
CENTERX2
 70
0
  3
Center (2x) ________  __  ________  __  ________
 72
65
 73
4
 40
3.5
 49
2.5
 49
-0.25
 49
0.5
 49
-0.25
  0
LTYPE
  2
PHANTOMX2
 70
0
  3
Phantom (2x)____________    ____    ____    ____________
 72
65
 73
6
 40
4.25
 49
2.5
 49
-0.25
 49
0.5
 49
-0.25
 49
0.5
 49
-0.25
  0
LTYPE
  2
CONTINUOUS
 70
0
  3
Solid
 72
65
 73
0
 40
0.0
  0
LTYPE
  2
PHANTOM2
 70
0
  3
Phantom (.5x) ___ _ _ ___ _ _ ___ _ _ ___ _ _ ___
 72
65
 73
6
 40
1.25
 49
0.625
 49
-0.125
 49
0.125
 49
-0.125
 49
0.125
 49
-0.125
  0
LTYPE
  2
DASHED
 70
0
  3
Dashed __ __ __ __ __ __ __ __ __ __ __ __ __ _
 72
65
 73
2
 40
0.6
 49
0.5
 49
-0.1
  0
LTYPE
  2
DASHED2
 70
0
  3
Dashed (.5x) _ _ _ _ _ _ _ _ _ _ _ _ _ _
 72
65
 73
2
 40
0.3
 49
0.25
 49
-0.05
  0
LTYPE
  2
DASHDOT2
 70
0
  3
Dash dot (.5x) _ . _ . _ . _ . _ . _ . _ . _
 72
65
 73
4
 40
0.7
 49
0.5
 49
-0.1
 49
0.0
 49
-0.1
  0
LTYPE
  2
DOTX2
 70
0
  3
Dot (2x) .    .    .    .    .    .    .    . 
 72
65
 73
2
 40
0.4
 49
0.0
 49
-0.4
  0
LTYPE
  2
DIVIDE2
 70
0
  3
Divide(.5x) _ . _ . _ . _ . _ . _ . _ . _
 72
65
 73
6
 40
0.8
 49
0.5
 49
-0.1
 49
0.0
 49
-0.1
 49
0.0
 49
-0.1
  0
LTYPE
  2
CENTER2
 70
0
  3
Center (.5x) ____ _ ____ _ ____ _ ____ _ ____
 72
65
 73
4
 40
1.0
 49
0.625
 49
-0.125
 49
0.125
 49
-0.125
  0
LTYPE
  2
DASHDOTX2
 70
0
  3
Dash dot (2x) ____  .  ____  .  ____  .  ____
 72
65
 73
4
 40
2.4
 49
2.0
 49
-0.2
 49
0.0
 49
-0.2
  0
LTYPE
  2
DOT
 70
0
  3
Dot .  .  .  .  .  .  .  .  .  .  .  .  .  .  .  .
 72
65
 73
2
 40
0.2
 49
0.0
 49
-0.2
  0
LTYPE
  2
DASHEDX2
 70
0
  3
Dashed (2x) ____  ____  ____  ____  ____  ____
 72
65
 73
2
 40
1.2
 49
1.0
 49
-0.2
  0
ENDTAB
  0
TABLE
  2
LAYER
 70
5
  0
LAYER
  2
VIEWPORTS
 70
0
 62
7
  6
CONTINUOUS
  0
LAYER
  2
TABLEGRID
 70
0
 62
1
  6
CONTINUOUS
  0
LAYER
  2
TABLECONTENT
 70
0
 62
1
  6
CONTINUOUS
  0
LAYER
  2
DIMENSIONS
 70
0
 62
1
  6
CONTINUOUS
  0
LAYER
  2
TABLEBACKGROUND
 70
0
 62
1
  6
CONTINUOUS
  0
ENDTAB
  0
TABLE
  2
STYLE
 70
12
  0
STYLE
  2
TIMES
 70
0
 40
0.0
 41
1.0
 42
1.0
 50
0.0
 71
0
  3
times.ttf
  4

  0
STYLE
  2
ARIAL
 70
0
 40
0.0
 41
1.0
 42
1.0
 50
0.0
 71
0
  3
arial.ttf
  4

  0
STYLE
  2
TIMES_BOLD
 70
0
 40
0.0
 41
1.0
 42
1.0
 50
0.0
 71
0
  3
timesbd.ttf
  4

  0
STYLE
  2
ARIAL_BLACK
 70
0
 40
0.0
 41
1.0
 42
1.0
 50
0.0
 71
0
  3
ariblk.ttf
  4

  0
STYLE
  2
TIMES_ITALIC
 70
0
 40
0.0
 41
1.0
 42
1.0
 50
0.0
 71
0
  3
timesi.ttf
  4

  0
STYLE
  2
ISOCPEUR
 70
0
 40
0.0
 41
1.0
 42
1.0
 50
0.0
 71
0
  3
isocpeur.ttf
  4

  0
STYLE
  2
ARIAL_BOLD
 70
0
 40
0.0
 41
1.0
 42
1.0
 50
0.0
 71
0
  3
arialbd.ttf
  4

  0
STYLE
  2
ARIAL_ITALIC
 70
0
 40
0.0
 41
1.0
 42
1.0
 50
0.0
 71
0
  3
ariali.ttf
  4

  0
STYLE
  2
ARIAL_BOLD_ITALIC
 70
0
 40
0.0
 41
1.0
 42
1.0
 50
0.0
 71
0
  3
arialbi.ttf
  4

  0
STYLE
  2
TIMES_BOLD_ITALIC
 70
0
 40
0.0
 41
1.0
 42
1.0
 50
0.0
 71
0
  3
timesbi.ttf
  4

  0
STYLE
  2
ISOCPEUR_ITALIC
 70
0
 40
0.0
 41
1.0
 42
1.0
 50
0.0
 71
0
  3
isocpeui.ttf
  4

  0
STYLE
  2
STANDARD
 70
0
 40
0.0
 41
1.0
 42
1.0
 50
0.0
 71
0
  3
arial.ttf
  4

  0
ENDTAB
  0
TABLE
  2
VIEW
 70
0
  0
ENDTAB
  0
TABLE
  2
APPID
 70
1
  0
APPID
  2
DXFWRITE
 70
0
  0
ENDTAB
  0
TABLE
  2
VPORT
 70
0
  0
ENDTAB
  0
TABLE
  2
UCS
 70
0
  0
ENDTAB
  0
ENDSEC
  0
SECTION
  2
BLOCKS
  0
ENDSEC
  0
SECTION
  2
ENTITIES
  0
VIEWPORT
  8
VIEWPORTS
 67
1
 10
0.0
 20
0.0
 30
0.0
 40
1.0
 41
1.0
 68
1
 69
1
1001
ACAD
1000
MVIEW
1002
{
1070
16
1010
0.0
1020
0.0
1030
0.0
1010
0.0
1020
0.0
1030
0.0
1040
0.0
1040
1.0
1040
0.0
1040
0.0
1040
50.0
1040
0.0
1040
0.0
1070
0
1070
100
1070
1
1070
3
1070
0
1070
0
1070
0
1070
0
1040
0.0
1040
0.0
1040
0.0
1040
0.1
1040
0.1
1040
0.1
1040
0.1
1070
0
1002
{
1002
}
1002
}
  0
LINE
 62
1
  8
0
 10
24.9342164717
 20
23.7183610447
 30
0.0
 11
23.8998490777
 21
25.632967329
 31
0.0
  0
LINE
 62
1
  8
0
 10
23.8998490777
 20
25.632967329
 30
0.0
 11
22.4272510601
 21
23.2006332231
 31
0.0
  0
LINE
 62
1
  8
0
 10
22.4272510601
 20
23.2006332231
 30
0.0
 11
24.9342164717
 21
23.7183610447
 31
0.0
  0
LINE
 62
0
  8
0
 10
15.2384631255
 20
26.9071096458
 30
0.0
 11
12.2993224866
 21
24.5653565817
 31
0.0
  0
LINE
 62
0
  8
0
 10
12.2993224866
 20
24.5653565817
 30
0.0
 11
16.3564483776
 21
22.360279035
 31
0.0
  0
LINE
 62
1
  8
0
 10
16.3564483776
 20
22.360279035
 30
0.0
 11
15.2384631255
 21
26.9071096458
 31
0.0
  0
LINE
 62
1
  8
0
 10
22.4272510267
 20
23.2006332477
 30
0.0
 11
22.4079335253
 21
27.4382254762
 31
0.0
  0
LINE
 62
0
  8
0
 10
22.4079335253
 20
27.4382254762
 30
0.0
 11
17.9959637473
 21
24.4939627757
 31
0.0
  0
LINE
 62
1
  8
0
 10
17.9959637473
 20
24.4939627757
 30
0.0
 11
22.4272510267
 21
23.2006332477
 31
0.0
  0
LINE
 62
1
  8
0
 10
15.2384631259
 20
26.9071096459
 30
0.0
 11
16.3564483772
 21
22.3602790349
 31
0.0
  0
LINE
 62
1
  8
0
 10
16.3564483772
 20
22.3602790349
 30
0.0
 11
17.9959637534
 21
24.4939628013
 31
0.0
  0
LINE
 62
0
  8
0
 10
17.9959637534
 20
24.4939628013
 30
0.0
 11
15.2384631259
 21
26.9071096459
 31
0.0
  0
LINE
 62
0
  8
0
 10
36.6188910184
 20
22.2413021536
 30
0.0
 11
32.246100964
 21
27.2128558023
 31
0.0
  0
LINE
 62
1
  8
0
 10
32.246100964
 20
27.2128558023
 30
0.0
 11
29.9821641456
 21
24.4811073641
 31
0.0
  0
LINE
 62
0
  8
0
 10
29.9821641456
 20
24.4811073641
 30
0.0
 11
36.6188910184
 21
22.2413021536
 31
0.0
  0
LINE
 62
1
  8
0
 10
29.9821641537
 20
24.4811073574
 30
0.0
 11
32.2461009559
 21
27.212855809
 31
0.0
  0
LINE
 62
0
  8
0
 10
32.2461009559
 20
27.212855809
 30
0.0
 11
27.7238814676
 21
26.4310576394
 31
0.0
  0
LINE
 62
1
  8
0
 10
27.7238814676
 20
26.4310576394
 30
0.0
 11
29.9821641537
 21
24.4811073574
 31
0.0
  0
LINE
 62
1
  8
0
 10
21.3465451993
 20
16.5499286839
 30
0.0
 11
24.5840865646
 21
11.6709360935
 31
0.0
  0
LINE
 62
0
  8
0
 10
24.5840865646
 20
11.6709360935
 30
0.0
 11
25.3672199145
 21
18.6315088517
 31
0.0
  0
LINE
 62
1
  8
0
 10
25.3672199145
 20
18.6315088517
 30
0.0
 11
21.3465451993
 21
16.5499286839
 31
0.0
  0
LINE
 62
0
  8
0
 10
25.3672199324
 20
18.6315088532
 30
0.0
 11
24.9342164588
 21
23.7183610674
 31
0.0
  0
LINE
 62
1
  8
0
 10
24.9342164588
 20
23.7183610674
 30
0.0
 11
23.3362460901
 21
20.720122915
 31
0.0
  0
LINE
 62
1
  8
0
 10
23.3362460901
 20
20.720122915
 30
0.0
 11
25.3672199324
 21
18.6315088532
 31
0.0
  0
LINE
 62
0
  8
0
 10
24.9342165022
 20
23.7183610423
 30
0.0
 11
29.9821641557
 21
24.4811073597
 31
0.0
  0
LINE
 62
1
  8
0
 10
29.9821641557
 20
24.4811073597
 30
0.0
 11
27.7238814656
 21
26.4310576371
 31
0.0
  0
LINE
 62
1
  8
0
 10
27.7238814656
 20
26.4310576371
 30
0.0
 11
24.9342165022
 21
23.7183610423
 31
0.0
  0
LINE
 62
0
  8
0
 10
23.3362461025
 20
20.7201229271
 30
0.0
 11
21.3465451938
 21
16.5499286944
 31
0.0
  0
LINE
 62
1
  8
0
 10
21.3465451938
 20
16.5499286944
 30
0.0
 11
25.36721992
 21
18.6315088412
 31
0.0
  0
LINE
 62
1
  8
0
 10
25.36721992
 20
18.6315088412
 30
0.0
 11
23.3362461025
 21
20.7201229271
 31
0.0
  0
LINE
 62
0
  8
0
 10
19.7874759702
 20
9.25817926005
 30
0.0
 11
21.0795807495
 21
7.59397317498
 31
0.0
  0
LINE
 62
0
  8
0
 10
21.0795807495
 20
7.59397317498
 30
0.0
 11
24.5840865309
 21
11.6709360621
 31
0.0
  0
LINE
 62
1
  8
0
 10
24.5840865309
 20
11.6709360621
 30
0.0
 11
19.7874759702
 21
9.25817926005
 31
0.0
  0
LINE
 62
1
  8
0
 10
25.5677651926
 20
27.2769943729
 30
0.0
 11
24.9342164904
 21
23.7183610546
 31
0.0
  0
LINE
 62
1
  8
0
 10
24.9342164904
 20
23.7183610546
 30
0.0
 11
27.7238814775
 21
26.4310576249
 31
0.0
  0
LINE
 62
0
  8
0
 10
27.7238814775
 20
26.4310576249
 30
0.0
 11
25.5677651926
 21
27.2769943729
 31
0.0
  0
LINE
 62
0
  8
0
 10
19.9212221848
 20
17.6077216928
 30
0.0
 11
23.3362460847
 21
20.7201229214
 31
0.0
  0
LINE
 62
1
  8
0
 10
23.3362460847
 20
20.7201229214
 30
0.0
 11
22.4272510599
 21
23.200633204
 31
0.0
  0
LINE
 62
0
  8
0
 10
22.4272510599
 20
23.200633204
 30
0.0
 11
19.9212221848
 21
17.6077216928
 31
0.0
  0
LINE
 62
1
  8
0
 10
23.3362460808
 20
20.72012292
 30
0.0
 11
24.934216468
 21
23.7183610624
 31
0.0
  0
LINE
 62
1
  8
0
 10
24.934216468
 20
23.7183610624
 30
0.0
 11
22.4272510637
 21
23.2006332054
 31
0.0
  0
LINE
 62
1
  8
0
 10
22.4272510637
 20
23.2006332054
 30
0.0
 11
23.3362460808
 21
20.72012292
 31
0.0
  0
LINE
 62
1
  8
0
 10
24.93421649
 20
23.7183610546
 30
0.0
 11
25.567765193
 21
27.2769943728
 31
0.0
  0
LINE
 62
0
  8
0
 10
25.567765193
 20
27.2769943728
 30
0.0
 11
23.8998490594
 21
25.6329673191
 31
0.0
  0
LINE
 62
1
  8
0
 10
23.8998490594
 20
25.6329673191
 30
0.0
 11
24.93421649
 21
23.7183610546
 31
0.0
  0
LINE
 62
1
  8
0
 10
19.7874759703
 20
9.25817925994
 30
0.0
 11
24.5840865308
 21
11.6709360622
 31
0.0
  0
LINE
 62
1
  8
0
 10
24.5840865308
 20
11.6709360622
 30
0.0
 11
18.5804443051
 21
12.8524534768
 31
0.0
  0
LINE
 62
0
  8
0
 10
18.5804443051
 20
12.8524534768
 30
0.0
 11
19.7874759703
 21
9.25817925994
 31
0.0
  0
LINE
 62
0
  8
0
 10
21.346545231
 20
16.549928705
 30
0.0
 11
18.5804443031
 21
12.8524534665
 31
0.0
  0
LINE
 62
1
  8
0
 10
18.5804443031
 20
12.8524534665
 30
0.0
 11
24.5840865329
 21
11.6709360725
 31
0.0
  0
LINE
 62
1
  8
0
 10
24.5840865329
 20
11.6709360725
 30
0.0
 11
21.346545231
 21
16.549928705
 31
0.0
  0
LINE
 62
1
  8
0
 10
17.9959637545
 20
24.4939628004
 30
0.0
 11
16.356448376
 21
22.3602790358
 31
0.0
  0
LINE
 62
0
  8
0
 10
16.356448376
 20
22.3602790358
 30
0.0
 11
22.4272510194
 21
23.2006332229
 31
0.0
  0
LINE
 62
1
  8
0
 10
22.4272510194
 20
23.2006332229
 30
0.0
 11
17.9959637545
 21
24.4939628004
 31
0.0
  0
LINE
 62
0
  8
0
 10
23.8998491182
 20
25.6329673044
 30
0.0
 11
22.4079335325
 21
27.4382254763
 31
0.0
  0
LINE
 62
1
  8
0
 10
22.4079335325
 20
27.4382254763
 30
0.0
 11
22.4272510195
 21
23.2006332476
 31
0.0
  0
LINE
 62
1
  8
0
 10
22.4272510195
 20
23.2006332476
 30
0.0
 11
23.8998491182
 21
25.6329673044
 31
0.0
  0
TEXT
 62
1
  8
0
 10
14.0181498985
 20
25.4233898592
 30
0.0
 40
0.2
  1
42
  0
TEXT
 62
1
  8
0
 10
14.5188986394
 20
23.81426333
 30
0.0
 40
0.2
  1
54
  0
TEXT
 62
1
  8
0
 10
20.4239826812
 20
25.6333767039
 30
0.0
 40
0.2
  1
41
  0
TEXT
 62
1
  8
0
 10
16.3537909599
 20
25.399523604
 30
0.0
 40
0.2
  1
45
  0
TEXT
 62
1
  8
0
 10
34.1321453621
 20
24.4629019547
 30
0.0
 40
0.2
  1
22
  0
TEXT
 62
1
  8
0
 10
33.4284344201
 20
23.7402032295
 30
0.0
 40
0.2
  1
55
  0
TEXT
 62
1
  8
0
 10
30.0531321582
 20
26.4278034401
 30
0.0
 40
0.2
  1
25
  0
TEXT
 62
1
  8
0
 10
24.5781611503
 20
15.1959442681
 30
0.0
 40
0.2
  1
55
  0
TEXT
 62
1
  8
0
 10
24.7521595216
 20
21.1410088144
 30
0.0
 40
0.2
  1
58
  0
TEXT
 62
1
  8
0
 10
27.3984285848
 20
24.4952446736
 30
0.0
 40
0.2
  1
58
  0
TEXT
 62
1
  8
0
 10
22.7024088934
 20
18.4627776271
 30
0.0
 40
0.2
  1
53
  0
TEXT
 62
1
  8
0
 10
20.7494786933
 20
8.67138293735
 30
0.0
 40
0.2
  1
31
  0
TEXT
 62
1
  8
0
 10
22.5284976917
 20
9.89319836695
 30
0.0
 40
0.2
  1
26
  0
TEXT
 62
1
  8
0
 10
26.4997283101
 20
26.4816602597
 30
0.0
 40
0.2
  1
32
  0
TEXT
 62
1
  8
0
 10
21.3592939108
 20
19.4595605416
 30
0.0
 40
0.2
  1
53
  0
TEXT
 62
1
  8
0
 10
21.5392680794
 20
20.240616954
 30
0.0
 40
0.2
  1
56
  0
TEXT
 62
1
  8
0
 10
25.0146023869
 20
26.1701053967
 30
0.0
 40
0.2
  1
57
  0
TEXT
 62
1
  8
0
 10
19.5631495531
 20
11.1826560213
 30
0.0
 40
0.2
  1
33
  0
TEXT
 62
1
  8
0
 10
20.2837858176
 20
14.4615796441
 30
0.0
 40
0.2
  1
54
  0
TEXT
 62
1
  8
0
 10
19.3370024661
 20
23.1766780131
 30
0.0
 40
0.2
  1
56
  0
TEXT
 62
1
  8
0
 10
22.8455582369
 20
26.2807813465
 30
0.0
 40
0.2
  1
57
  0
ENDSEC
  0
EOF
