  0
SECTION
  2
HEADER
  9
$ACADVER
  1
AC1009
  9
$EXTMIN
 10
0.0
 20
0.0
 30
0.0
  9
$EXTMAX
 10
100.0
 20
100.0
 30
0.0
  9
$INSBASE
 10
0.0
 20
0.0
 30
0.0
  0
ENDSEC
  0
SECTION
  2
TABLES
  0
TABLE
  2
LTYPE
 70
19
  0
LTYPE
  2
PHANTOM
 70
0
  3
Phantom ______  __  __  ______  __  __  ______
 72
65
 73
6
 40
2.5
 49
1.25
 49
-0.25
 49
0.25
 49
-0.25
 49
0.25
 49
-0.25
  0
LTYPE
  2
DOT2
 70
0
  3
Dot (.5) . . . . . . . . . . . . . . . . . . . 
 72
65
 73
2
 40
0.1
 49
0.0
 49
-0.1
  0
LTYPE
  2
DIVIDE
 70
0
  3
Divide __ . . __ . . __ . . __ . . __ . . __
 72
65
 73
6
 40
1.6
 49
1.0
 49
-0.2
 49
0.0
 49
-0.2
 49
0.0
 49
-0.2
  0
LTYPE
  2
DIVIDEX2
 70
0
  3
Divide (2x) ____  . .  ____  . .  ____  . .  ____
 72
65
 73
6
 40
2.6
 49
2.0
 49
-0.2
 49
0.0
 49
-0.2
 49
0.0
 49
-0.2
  0
LTYPE
  2
CENTER
 70
0
  3
Center ____ _ ____ _ ____ _ ____ _ ____ _ ____
 72
65
 73
4
 40
2.0
 49
1.25
 49
-0.25
 49
0.25
 49
-0.25
  0
LTYPE
  2
DASHDOT
 70
0
  3
Dash dot __ . __ . __ . __ . __ . __ . __ . __
 72
65
 73
4
 40
1.4
 49
1.0
 49
-0.2
 49
0.0
 49
-0.2
  0
LTYPE
  2
CENTERX2
 70
0
  3
Center (2x) ________  __  ________  __  ________
 72
65
 73
4
 40
3.5
 49
2.5
 49
-0.25
 49
0.5
 49
-0.25
  0
LTYPE
  2
PHANTOMX2
 70
0
  3
Phantom (2x)____________    ____    ____    ____________
 72
65
 73
6
 40
4.25
 49
2.5
 49
-0.25
 49
0.5
 49
-0.25
 49
0.5
 49
-0.25
  0
LTYPE
  2
CONTINUOUS
 70
0
  3
Solid
 72
65
 73
0
 40
0.0
  0
LTYPE
  2
PHANTOM2
 70
0
  3
Phantom (.5x) ___ _ _ ___ _ _ ___ _ _ ___ _ _ ___
 72
65
 73
6
 40
1.25
 49
0.625
 49
-0.125
 49
0.125
 49
-0.125
 49
0.125
 49
-0.125
  0
LTYPE
  2
DASHED
 70
0
  3
Dashed __ __ __ __ __ __ __ __ __ __ __ __ __ _
 72
65
 73
2
 40
0.6
 49
0.5
 49
-0.1
  0
LTYPE
  2
DASHED2
 70
0
  3
Dashed (.5x) _ _ _ _ _ _ _ _ _ _ _ _ _ _
 72
65
 73
2
 40
0.3
 49
0.25
 49
-0.05
  0
LTYPE
  2
DASHDOT2
 70
0
  3
Dash dot (.5x) _ . _ . _ . _ . _ . _ . _ . _
 72
65
 73
4
 40
0.7
 49
0.5
 49
-0.1
 49
0.0
 49
-0.1
  0
LTYPE
  2
DOTX2
 70
0
  3
Dot (2x) .    .    .    .    .    .    .    . 
 72
65
 73
2
 40
0.4
 49
0.0
 49
-0.4
  0
LTYPE
  2
DIVIDE2
 70
0
  3
Divide(.5x) _ . _ . _ . _ . _ . _ . _ . _
 72
65
 73
6
 40
0.8
 49
0.5
 49
-0.1
 49
0.0
 49
-0.1
 49
0.0
 49
-0.1
  0
LTYPE
  2
CENTER2
 70
0
  3
Center (.5x) ____ _ ____ _ ____ _ ____ _ ____
 72
65
 73
4
 40
1.0
 49
0.625
 49
-0.125
 49
0.125
 49
-0.125
  0
LTYPE
  2
DASHDOTX2
 70
0
  3
Dash dot (2x) ____  .  ____  .  ____  .  ____
 72
65
 73
4
 40
2.4
 49
2.0
 49
-0.2
 49
0.0
 49
-0.2
  0
LTYPE
  2
DOT
 70
0
  3
Dot .  .  .  .  .  .  .  .  .  .  .  .  .  .  .  .
 72
65
 73
2
 40
0.2
 49
0.0
 49
-0.2
  0
LTYPE
  2
DASHEDX2
 70
0
  3
Dashed (2x) ____  ____  ____  ____  ____  ____
 72
65
 73
2
 40
1.2
 49
1.0
 49
-0.2
  0
ENDTAB
  0
TABLE
  2
LAYER
 70
5
  0
LAYER
  2
VIEWPORTS
 70
0
 62
7
  6
CONTINUOUS
  0
LAYER
  2
TABLEGRID
 70
0
 62
1
  6
CONTINUOUS
  0
LAYER
  2
TABLECONTENT
 70
0
 62
1
  6
CONTINUOUS
  0
LAYER
  2
DIMENSIONS
 70
0
 62
1
  6
CONTINUOUS
  0
LAYER
  2
TABLEBACKGROUND
 70
0
 62
1
  6
CONTINUOUS
  0
ENDTAB
  0
TABLE
  2
STYLE
 70
12
  0
STYLE
  2
TIMES
 70
0
 40
0.0
 41
1.0
 42
1.0
 50
0.0
 71
0
  3
times.ttf
  4

  0
STYLE
  2
ARIAL
 70
0
 40
0.0
 41
1.0
 42
1.0
 50
0.0
 71
0
  3
arial.ttf
  4

  0
STYLE
  2
TIMES_BOLD
 70
0
 40
0.0
 41
1.0
 42
1.0
 50
0.0
 71
0
  3
timesbd.ttf
  4

  0
STYLE
  2
ARIAL_BLACK
 70
0
 40
0.0
 41
1.0
 42
1.0
 50
0.0
 71
0
  3
ariblk.ttf
  4

  0
STYLE
  2
TIMES_ITALIC
 70
0
 40
0.0
 41
1.0
 42
1.0
 50
0.0
 71
0
  3
timesi.ttf
  4

  0
STYLE
  2
ISOCPEUR
 70
0
 40
0.0
 41
1.0
 42
1.0
 50
0.0
 71
0
  3
isocpeur.ttf
  4

  0
STYLE
  2
ARIAL_BOLD
 70
0
 40
0.0
 41
1.0
 42
1.0
 50
0.0
 71
0
  3
arialbd.ttf
  4

  0
STYLE
  2
ARIAL_ITALIC
 70
0
 40
0.0
 41
1.0
 42
1.0
 50
0.0
 71
0
  3
ariali.ttf
  4

  0
STYLE
  2
ARIAL_BOLD_ITALIC
 70
0
 40
0.0
 41
1.0
 42
1.0
 50
0.0
 71
0
  3
arialbi.ttf
  4

  0
STYLE
  2
TIMES_BOLD_ITALIC
 70
0
 40
0.0
 41
1.0
 42
1.0
 50
0.0
 71
0
  3
timesbi.ttf
  4

  0
STYLE
  2
ISOCPEUR_ITALIC
 70
0
 40
0.0
 41
1.0
 42
1.0
 50
0.0
 71
0
  3
isocpeui.ttf
  4

  0
STYLE
  2
STANDARD
 70
0
 40
0.0
 41
1.0
 42
1.0
 50
0.0
 71
0
  3
arial.ttf
  4

  0
ENDTAB
  0
TABLE
  2
VIEW
 70
0
  0
ENDTAB
  0
TABLE
  2
APPID
 70
1
  0
APPID
  2
DXFWRITE
 70
0
  0
ENDTAB
  0
TABLE
  2
VPORT
 70
0
  0
ENDTAB
  0
TABLE
  2
UCS
 70
0
  0
ENDTAB
  0
ENDSEC
  0
SECTION
  2
BLOCKS
  0
ENDSEC
  0
SECTION
  2
ENTITIES
  0
VIEWPORT
  8
VIEWPORTS
 67
1
 10
0.0
 20
0.0
 30
0.0
 40
1.0
 41
1.0
 68
1
 69
1
1001
ACAD
1000
MVIEW
1002
{
1070
16
1010
0.0
1020
0.0
1030
0.0
1010
0.0
1020
0.0
1030
0.0
1040
0.0
1040
1.0
1040
0.0
1040
0.0
1040
50.0
1040
0.0
1040
0.0
1070
0
1070
100
1070
1
1070
3
1070
0
1070
0
1070
0
1070
0
1040
0.0
1040
0.0
1040
0.0
1040
0.1
1040
0.1
1040
0.1
1040
0.1
1070
0
1002
{
1002
}
1002
}
  0
LINE
 62
0
  8
0
 10
41.6243168099
 20
40.607383478
 30
0.0
 11
37.6174628196
 21
40.7504530495
 31
0.0
  0
LINE
 62
1
  8
0
 10
37.6174628196
 20
40.7504530495
 30
0.0
 11
35.5704887639
 21
37.6693982195
 31
0.0
  0
LINE
 62
0
  8
0
 10
35.5704887639
 20
37.6693982195
 30
0.0
 11
41.6243168099
 21
40.607383478
 31
0.0
  0
LINE
 62
1
  8
0
 10
36.4462365628
 20
27.2332567816
 30
0.0
 11
37.4089789605
 21
32.5986190341
 31
0.0
  0
LINE
 62
1
  8
0
 10
37.4089789605
 20
32.5986190341
 30
0.0
 11
33.1702277425
 21
32.1648655615
 31
0.0
  0
LINE
 62
0
  8
0
 10
33.1702277425
 20
32.1648655615
 30
0.0
 11
36.4462365628
 21
27.2332567816
 31
0.0
  0
LINE
 62
1
  8
0
 10
37.4089789783
 20
32.5986190309
 30
0.0
 11
36.446236545
 21
27.2332567848
 31
0.0
  0
LINE
 62
1
  8
0
 10
36.446236545
 20
27.2332567848
 30
0.0
 11
38.253228938
 21
30.5020661221
 31
0.0
  0
LINE
 62
1
  8
0
 10
38.253228938
 20
30.5020661221
 30
0.0
 11
37.4089789783
 21
32.5986190309
 31
0.0
  0
LINE
 62
1
  8
0
 10
37.4089789901
 20
32.5986190357
 30
0.0
 11
38.2532289262
 21
30.5020661174
 31
0.0
  0
LINE
 62
1
  8
0
 10
38.2532289262
 20
30.5020661174
 30
0.0
 11
38.9149909675
 21
31.9859694354
 31
0.0
  0
LINE
 62
0
  8
0
 10
38.9149909675
 20
31.9859694354
 30
0.0
 11
37.4089789901
 21
32.5986190357
 31
0.0
  0
LINE
 62
0
  8
0
 10
37.4089789611
 20
32.5986190277
 30
0.0
 11
34.5914201588
 21
34.6054957746
 31
0.0
  0
LINE
 62
1
  8
0
 10
34.5914201588
 20
34.6054957746
 30
0.0
 11
33.1702277419
 21
32.164865568
 31
0.0
  0
LINE
 62
1
  8
0
 10
33.1702277419
 20
32.164865568
 30
0.0
 11
37.4089789611
 21
32.5986190277
 31
0.0
  0
LINE
 62
1
  8
0
 10
34.5914201727
 20
34.6054957665
 30
0.0
 11
31.5068621035
 21
37.0144553903
 31
0.0
  0
LINE
 62
1
  8
0
 10
31.5068621035
 20
37.0144553903
 30
0.0
 11
33.170227728
 21
32.1648655761
 31
0.0
  0
LINE
 62
1
  8
0
 10
33.170227728
 20
32.1648655761
 30
0.0
 11
34.5914201727
 21
34.6054957665
 31
0.0
  0
LINE
 62
1
  8
0
 10
35.5704886731
 20
37.6693982935
 30
0.0
 11
34.5914201799
 21
34.6054957905
 31
0.0
  0
LINE
 62
0
  8
0
 10
34.5914201799
 20
34.6054957905
 30
0.0
 11
37.9902860136
 21
33.9621429116
 31
0.0
  0
LINE
 62
1
  8
0
 10
37.9902860136
 20
33.9621429116
 30
0.0
 11
35.5704886731
 21
37.6693982935
 31
0.0
  0
LINE
 62
0
  8
0
 10
37.9902860119
 20
33.9621429105
 30
0.0
 11
39.5748946764
 21
34.3260481028
 31
0.0
  0
LINE
 62
1
  8
0
 10
39.5748946764
 20
34.3260481028
 30
0.0
 11
35.5704886748
 21
37.6693982946
 31
0.0
  0
LINE
 62
1
  8
0
 10
35.5704886748
 20
37.6693982946
 30
0.0
 11
37.9902860119
 21
33.9621429105
 31
0.0
  0
LINE
 62
1
  8
0
 10
42.8379330572
 20
32.4442261626
 30
0.0
 11
40.1809488362
 21
29.4951080139
 31
0.0
  0
LINE
 62
0
  8
0
 10
40.1809488362
 20
29.4951080139
 30
0.0
 11
45.5097582792
 21
29.6714651165
 31
0.0
  0
LINE
 62
0
  8
0
 10
45.5097582792
 20
29.6714651165
 30
0.0
 11
42.8379330572
 21
32.4442261626
 31
0.0
  0
LINE
 62
0
  8
0
 10
30.145011054
 20
28.7572917442
 30
0.0
 11
33.1702276779
 21
32.1648655626
 31
0.0
  0
LINE
 62
1
  8
0
 10
33.1702276779
 20
32.1648655626
 30
0.0
 11
29.5476640145
 21
33.7395804461
 31
0.0
  0
LINE
 62
1
  8
0
 10
29.5476640145
 20
33.7395804461
 30
0.0
 11
30.145011054
 21
28.7572917442
 31
0.0
  0
LINE
 62
0
  8
0
 10
42.837933057
 20
32.4442261628
 30
0.0
 11
38.9149909723
 21
31.9859694376
 31
0.0
  0
LINE
 62
1
  8
0
 10
38.9149909723
 20
31.9859694376
 30
0.0
 11
40.1809488364
 21
29.4951080137
 31
0.0
  0
LINE
 62
1
  8
0
 10
40.1809488364
 20
29.4951080137
 30
0.0
 11
42.837933057
 21
32.4442261628
 31
0.0
  0
LINE
 62
0
  8
0
 10
29.5476640199
 20
33.7395804468
 30
0.0
 11
26.0520936911
 21
30.252997218
 31
0.0
  0
LINE
 62
0
  8
0
 10
26.0520936911
 20
30.252997218
 30
0.0
 11
30.1450110485
 21
28.7572917436
 31
0.0
  0
LINE
 62
1
  8
0
 10
30.1450110485
 20
28.7572917436
 30
0.0
 11
29.5476640199
 21
33.7395804468
 31
0.0
  0
LINE
 62
1
  8
0
 10
35.570488664
 20
37.6693982964
 30
0.0
 11
31.5068620871
 21
37.0144553693
 31
0.0
  0
LINE
 62
1
  8
0
 10
31.5068620871
 20
37.0144553693
 30
0.0
 11
34.5914201891
 21
34.6054957875
 31
0.0
  0
LINE
 62
1
  8
0
 10
34.5914201891
 20
34.6054957875
 30
0.0
 11
35.570488664
 21
37.6693982964
 31
0.0
  0
LINE
 62
0
  8
0
 10
42.2832399796
 20
37.200824525
 30
0.0
 11
35.5704886803
 21
37.6693983011
 31
0.0
  0
LINE
 62
1
  8
0
 10
35.5704886803
 20
37.6693983011
 30
0.0
 11
39.5748946709
 21
34.3260480963
 31
0.0
  0
LINE
 62
0
  8
0
 10
39.5748946709
 20
34.3260480963
 30
0.0
 11
42.2832399796
 21
37.200824525
 31
0.0
  0
LINE
 62
1
  8
0
 10
31.5068621554
 20
37.0144554081
 30
0.0
 11
29.5476640164
 21
33.7395804505
 31
0.0
  0
LINE
 62
1
  8
0
 10
29.5476640164
 20
33.7395804505
 30
0.0
 11
33.170227676
 21
32.1648655582
 31
0.0
  0
LINE
 62
1
  8
0
 10
33.170227676
 20
32.1648655582
 30
0.0
 11
31.5068621554
 21
37.0144554081
 31
0.0
  0
LINE
 62
1
  8
0
 10
40.1809488409
 20
29.495108016
 30
0.0
 11
38.9149909677
 21
31.9859694353
 31
0.0
  0
LINE
 62
1
  8
0
 10
38.9149909677
 20
31.9859694353
 30
0.0
 11
38.2532289259
 21
30.5020661175
 31
0.0
  0
LINE
 62
0
  8
0
 10
38.2532289259
 20
30.5020661175
 30
0.0
 11
40.1809488409
 21
29.495108016
 31
0.0
  0
LINE
 62
0
  8
0
 10
40.1278826486
 20
29.3994591062
 30
0.0
 11
38.2532289536
 21
30.5020661135
 31
0.0
  0
LINE
 62
1
  8
0
 10
38.2532289536
 20
30.5020661135
 30
0.0
 11
36.4462365295
 21
27.2332567934
 31
0.0
  0
LINE
 62
0
  8
0
 10
36.4462365295
 20
27.2332567934
 30
0.0
 11
40.1278826486
 21
29.3994591062
 31
0.0
  0
LINE
 62
1
  8
0
 10
31.5068620857
 20
37.0144553782
 30
0.0
 11
35.5704886654
 21
37.6693982875
 31
0.0
  0
LINE
 62
1
  8
0
 10
35.5704886654
 20
37.6693982875
 30
0.0
 11
34.2245091448
 21
40.1493123944
 31
0.0
  0
LINE
 62
0
  8
0
 10
34.2245091448
 20
40.1493123944
 30
0.0
 11
31.5068620857
 21
37.0144553782
 31
0.0
  0
LINE
 62
0
  8
0
 10
31.5068621417
 20
37.0144554164
 30
0.0
 11
27.600548468
 21
35.6167259961
 31
0.0
  0
LINE
 62
0
  8
0
 10
27.600548468
 20
35.6167259961
 30
0.0
 11
29.5476640301
 21
33.7395804422
 31
0.0
  0
LINE
 62
1
  8
0
 10
29.5476640301
 20
33.7395804422
 30
0.0
 11
31.5068621417
 21
37.0144554164
 31
0.0
  0
LINE
 62
1
  8
0
 10
35.5704886633
 20
37.6693982863
 30
0.0
 11
37.6174629202
 21
40.7504529827
 31
0.0
  0
LINE
 62
0
  8
0
 10
37.6174629202
 20
40.7504529827
 30
0.0
 11
34.2245091469
 21
40.1493123955
 31
0.0
  0
LINE
 62
1
  8
0
 10
34.2245091469
 20
40.1493123955
 30
0.0
 11
35.5704886633
 21
37.6693982863
 31
0.0
  0
TEXT
 62
1
  8
0
 10
39.6066164265
 20
40.2791730069
 30
0.0
 40
0.2
  1
34
  0
TEXT
 62
1
  8
0
 10
38.4227588316
 20
39.4982512229
 30
0.0
 40
0.2
  1
60
  0
TEXT
 62
1
  8
0
 10
35.1414175956
 20
29.9203922824
 30
0.0
 40
0.2
  1
23
  0
TEXT
 62
1
  8
0
 10
38.011258432
 20
31.9217790427
 30
0.0
 40
0.2
  1
59
  0
TEXT
 62
1
  8
0
 10
35.7681382652
 20
33.2762544615
 30
0.0
 40
0.2
  1
62
  0
TEXT
 62
1
  8
0
 10
36.3652459573
 20
34.6768406002
 30
0.0
 40
0.2
  1
62
  0
TEXT
 62
1
  8
0
 10
38.6930609084
 20
34.5339473761
 30
0.0
 40
0.2
  1
59
  0
TEXT
 62
1
  8
0
 10
42.8321227899
 20
29.9830676888
 30
0.0
 40
0.2
  1
28
  0
TEXT
 62
1
  8
0
 10
43.8858088981
 20
30.7802941685
 30
0.0
 40
0.2
  1
40
  0
TEXT
 62
1
  8
0
 10
31.3584927652
 20
30.7266408433
 30
0.0
 40
0.2
  1
24
  0
TEXT
 62
1
  8
0
 10
40.9228722599
 20
31.8177993115
 30
0.0
 40
0.2
  1
61
  0
TEXT
 62
1
  8
0
 10
28.0823572722
 20
31.7130822926
 30
0.0
 40
0.2
  1
35
  0
TEXT
 62
1
  8
0
 10
28.2358470784
 20
29.8808440456
 30
0.0
 40
0.2
  1
30
  0
TEXT
 62
1
  8
0
 10
38.8990106921
 20
37.0360823729
 30
0.0
 40
0.2
  1
60
  0
TEXT
 62
1
  8
0
 10
40.6379224891
 20
36.0377257278
 30
0.0
 40
0.2
  1
61
  0
TEXT
 62
1
  8
0
 10
39.40228747
 20
30.3531311169
 30
0.0
 40
0.2
  1
63
  0
TEXT
 62
1
  8
0
 10
38.9877655767
 20
29.6059784384
 30
0.0
 40
0.2
  1
63
  0
TEXT
 62
1
  8
0
 10
38.0842147987
 20
28.6611100216
 30
0.0
 40
0.2
  1
52
  0
TEXT
 62
1
  8
0
 10
33.1679244568
 20
38.3198692251
 30
0.0
 40
0.2
  1
64
  0
TEXT
 62
1
  8
0
 10
29.6884636426
 20
35.9389739376
 30
0.0
 40
0.2
  1
64
  0
TEXT
 62
1
  8
0
 10
28.8517275093
 20
34.9661227243
 30
0.0
 40
0.2
  1
38
  0
TEXT
 62
1
  8
0
 10
35.9907685404
 20
40.0560167199
 30
0.0
 40
0.2
  1
37
  0
ENDSEC
  0
EOF
