  0
SECTION
  2
HEADER
  9
$ACADVER
  1
AC1009
  9
$EXTMIN
 10
0.0
 20
0.0
 30
0.0
  9
$EXTMAX
 10
100.0
 20
100.0
 30
0.0
  9
$INSBASE
 10
0.0
 20
0.0
 30
0.0
  0
ENDSEC
  0
SECTION
  2
TABLES
  0
TABLE
  2
LTYPE
 70
19
  0
LTYPE
  2
PHANTOM
 70
0
  3
Phantom ______  __  __  ______  __  __  ______
 72
65
 73
6
 40
2.5
 49
1.25
 49
-0.25
 49
0.25
 49
-0.25
 49
0.25
 49
-0.25
  0
LTYPE
  2
DOT2
 70
0
  3
Dot (.5) . . . . . . . . . . . . . . . . . . . 
 72
65
 73
2
 40
0.1
 49
0.0
 49
-0.1
  0
LTYPE
  2
DIVIDE
 70
0
  3
Divide __ . . __ . . __ . . __ . . __ . . __
 72
65
 73
6
 40
1.6
 49
1.0
 49
-0.2
 49
0.0
 49
-0.2
 49
0.0
 49
-0.2
  0
LTYPE
  2
DIVIDEX2
 70
0
  3
Divide (2x) ____  . .  ____  . .  ____  . .  ____
 72
65
 73
6
 40
2.6
 49
2.0
 49
-0.2
 49
0.0
 49
-0.2
 49
0.0
 49
-0.2
  0
LTYPE
  2
CENTER
 70
0
  3
Center ____ _ ____ _ ____ _ ____ _ ____ _ ____
 72
65
 73
4
 40
2.0
 49
1.25
 49
-0.25
 49
0.25
 49
-0.25
  0
LTYPE
  2
DASHDOT
 70
0
  3
Dash dot __ . __ . __ . __ . __ . __ . __ . __
 72
65
 73
4
 40
1.4
 49
1.0
 49
-0.2
 49
0.0
 49
-0.2
  0
LTYPE
  2
CENTERX2
 70
0
  3
Center (2x) ________  __  ________  __  ________
 72
65
 73
4
 40
3.5
 49
2.5
 49
-0.25
 49
0.5
 49
-0.25
  0
LTYPE
  2
PHANTOMX2
 70
0
  3
Phantom (2x)____________    ____    ____    ____________
 72
65
 73
6
 40
4.25
 49
2.5
 49
-0.25
 49
0.5
 49
-0.25
 49
0.5
 49
-0.25
  0
LTYPE
  2
CONTINUOUS
 70
0
  3
Solid
 72
65
 73
0
 40
0.0
  0
LTYPE
  2
PHANTOM2
 70
0
  3
Phantom (.5x) ___ _ _ ___ _ _ ___ _ _ ___ _ _ ___
 72
65
 73
6
 40
1.25
 49
0.625
 49
-0.125
 49
0.125
 49
-0.125
 49
0.125
 49
-0.125
  0
LTYPE
  2
DASHED
 70
0
  3
Dashed __ __ __ __ __ __ __ __ __ __ __ __ __ _
 72
65
 73
2
 40
0.6
 49
0.5
 49
-0.1
  0
LTYPE
  2
DASHED2
 70
0
  3
Dashed (.5x) _ _ _ _ _ _ _ _ _ _ _ _ _ _
 72
65
 73
2
 40
0.3
 49
0.25
 49
-0.05
  0
LTYPE
  2
DASHDOT2
 70
0
  3
Dash dot (.5x) _ . _ . _ . _ . _ . _ . _ . _
 72
65
 73
4
 40
0.7
 49
0.5
 49
-0.1
 49
0.0
 49
-0.1
  0
LTYPE
  2
DOTX2
 70
0
  3
Dot (2x) .    .    .    .    .    .    .    . 
 72
65
 73
2
 40
0.4
 49
0.0
 49
-0.4
  0
LTYPE
  2
DIVIDE2
 70
0
  3
Divide(.5x) _ . _ . _ . _ . _ . _ . _ . _
 72
65
 73
6
 40
0.8
 49
0.5
 49
-0.1
 49
0.0
 49
-0.1
 49
0.0
 49
-0.1
  0
LTYPE
  2
CENTER2
 70
0
  3
Center (.5x) ____ _ ____ _ ____ _ ____ _ ____
 72
65
 73
4
 40
1.0
 49
0.625
 49
-0.125
 49
0.125
 49
-0.125
  0
LTYPE
  2
DASHDOTX2
 70
0
  3
Dash dot (2x) ____  .  ____  .  ____  .  ____
 72
65
 73
4
 40
2.4
 49
2.0
 49
-0.2
 49
0.0
 49
-0.2
  0
LTYPE
  2
DOT
 70
0
  3
Dot .  .  .  .  .  .  .  .  .  .  .  .  .  .  .  .
 72
65
 73
2
 40
0.2
 49
0.0
 49
-0.2
  0
LTYPE
  2
DASHEDX2
 70
0
  3
Dashed (2x) ____  ____  ____  ____  ____  ____
 72
65
 73
2
 40
1.2
 49
1.0
 49
-0.2
  0
ENDTAB
  0
TABLE
  2
LAYER
 70
5
  0
LAYER
  2
VIEWPORTS
 70
0
 62
7
  6
CONTINUOUS
  0
LAYER
  2
TABLEGRID
 70
0
 62
1
  6
CONTINUOUS
  0
LAYER
  2
TABLECONTENT
 70
0
 62
1
  6
CONTINUOUS
  0
LAYER
  2
DIMENSIONS
 70
0
 62
1
  6
CONTINUOUS
  0
LAYER
  2
TABLEBACKGROUND
 70
0
 62
1
  6
CONTINUOUS
  0
ENDTAB
  0
TABLE
  2
STYLE
 70
12
  0
STYLE
  2
TIMES
 70
0
 40
0.0
 41
1.0
 42
1.0
 50
0.0
 71
0
  3
times.ttf
  4

  0
STYLE
  2
ARIAL
 70
0
 40
0.0
 41
1.0
 42
1.0
 50
0.0
 71
0
  3
arial.ttf
  4

  0
STYLE
  2
TIMES_BOLD
 70
0
 40
0.0
 41
1.0
 42
1.0
 50
0.0
 71
0
  3
timesbd.ttf
  4

  0
STYLE
  2
ARIAL_BLACK
 70
0
 40
0.0
 41
1.0
 42
1.0
 50
0.0
 71
0
  3
ariblk.ttf
  4

  0
STYLE
  2
TIMES_ITALIC
 70
0
 40
0.0
 41
1.0
 42
1.0
 50
0.0
 71
0
  3
timesi.ttf
  4

  0
STYLE
  2
ISOCPEUR
 70
0
 40
0.0
 41
1.0
 42
1.0
 50
0.0
 71
0
  3
isocpeur.ttf
  4

  0
STYLE
  2
ARIAL_BOLD
 70
0
 40
0.0
 41
1.0
 42
1.0
 50
0.0
 71
0
  3
arialbd.ttf
  4

  0
STYLE
  2
ARIAL_ITALIC
 70
0
 40
0.0
 41
1.0
 42
1.0
 50
0.0
 71
0
  3
ariali.ttf
  4

  0
STYLE
  2
ARIAL_BOLD_ITALIC
 70
0
 40
0.0
 41
1.0
 42
1.0
 50
0.0
 71
0
  3
arialbi.ttf
  4

  0
STYLE
  2
TIMES_BOLD_ITALIC
 70
0
 40
0.0
 41
1.0
 42
1.0
 50
0.0
 71
0
  3
timesbi.ttf
  4

  0
STYLE
  2
ISOCPEUR_ITALIC
 70
0
 40
0.0
 41
1.0
 42
1.0
 50
0.0
 71
0
  3
isocpeui.ttf
  4

  0
STYLE
  2
STANDARD
 70
0
 40
0.0
 41
1.0
 42
1.0
 50
0.0
 71
0
  3
arial.ttf
  4

  0
ENDTAB
  0
TABLE
  2
VIEW
 70
0
  0
ENDTAB
  0
TABLE
  2
APPID
 70
1
  0
APPID
  2
DXFWRITE
 70
0
  0
ENDTAB
  0
TABLE
  2
VPORT
 70
0
  0
ENDTAB
  0
TABLE
  2
UCS
 70
0
  0
ENDTAB
  0
ENDSEC
  0
SECTION
  2
BLOCKS
  0
ENDSEC
  0
SECTION
  2
ENTITIES
  0
VIEWPORT
  8
VIEWPORTS
 67
1
 10
0.0
 20
0.0
 30
0.0
 40
1.0
 41
1.0
 68
1
 69
1
1001
ACAD
1000
MVIEW
1002
{
1070
16
1010
0.0
1020
0.0
1030
0.0
1010
0.0
1020
0.0
1030
0.0
1040
0.0
1040
1.0
1040
0.0
1040
0.0
1040
50.0
1040
0.0
1040
0.0
1070
0
1070
100
1070
1
1070
3
1070
0
1070
0
1070
0
1070
0
1040
0.0
1040
0.0
1040
0.0
1040
0.1
1040
0.1
1040
0.1
1040
0.1
1070
0
1002
{
1002
}
1002
}
  0
LINE
 62
0
  8
0
 10
-0.583227660493
 20
6.92521410507
 30
0.0
 11
-1.27515035671
 21
9.76063062118
 31
0.0
  0
LINE
 62
1
  8
0
 10
-1.27515035671
 20
9.76063062118
 30
0.0
 11
-5.58453487834
 21
7.02551334743
 31
0.0
  0
LINE
 62
1
  8
0
 10
-5.58453487834
 20
7.02551334743
 30
0.0
 11
-0.583227660493
 21
6.92521410507
 31
0.0
  0
LINE
 62
1
  8
0
 10
0.763834642681
 20
7.67235766883
 30
0.0
 11
3.65673185036
 21
15.069636541
 31
0.0
  0
LINE
 62
1
  8
0
 10
3.65673185036
 20
15.069636541
 30
0.0
 11
-1.27515034588
 21
9.76063065237
 31
0.0
  0
LINE
 62
0
  8
0
 10
-1.27515034588
 20
9.76063065237
 30
0.0
 11
0.763834642681
 21
7.67235766883
 31
0.0
  0
LINE
 62
1
  8
0
 10
-3.65738132263
 20
14.2220837752
 30
0.0
 11
-5.58453486747
 21
7.02551333031
 31
0.0
  0
LINE
 62
1
  8
0
 10
-5.58453486747
 20
7.02551333031
 30
0.0
 11
-1.27515036758
 21
9.76063063831
 31
0.0
  0
LINE
 62
1
  8
0
 10
-1.27515036758
 20
9.76063063831
 30
0.0
 11
-3.65738132263
 21
14.2220837752
 31
0.0
  0
LINE
 62
1
  8
0
 10
-0.58322766036
 20
6.92521411172
 30
0.0
 11
-5.58453487848
 21
7.02551334078
 31
0.0
  0
LINE
 62
0
  8
0
 10
-5.58453487848
 20
7.02551334078
 30
0.0
 11
-1.89474235724
 21
5.02395283112
 31
0.0
  0
LINE
 62
1
  8
0
 10
-1.89474235724
 20
5.02395283112
 30
0.0
 11
-0.58322766036
 21
6.92521411172
 31
0.0
  0
LINE
 62
1
  8
0
 10
-5.58453487303
 20
7.0255133318
 30
0.0
 11
-3.65738131707
 21
14.2220837737
 31
0.0
  0
LINE
 62
1
  8
0
 10
-3.65738131707
 20
14.2220837737
 30
0.0
 11
-7.09999172822
 21
9.83853757902
 31
0.0
  0
LINE
 62
1
  8
0
 10
-7.09999172822
 20
9.83853757902
 30
0.0
 11
-5.58453487303
 21
7.0255133318
 31
0.0
  0
LINE
 62
1
  8
0
 10
11.3235479908
 20
24.8196901538
 30
0.0
 11
6.69595825905
 21
24.851262037
 31
0.0
  0
LINE
 62
1
  8
0
 10
6.69595825905
 20
24.851262037
 30
0.0
 11
8.0270463276
 21
22.2910189993
 31
0.0
  0
LINE
 62
0
  8
0
 10
8.0270463276
 20
22.2910189993
 30
0.0
 11
11.3235479908
 21
24.8196901538
 31
0.0
  0
LINE
 62
0
  8
0
 10
-9.00389587619
 20
26.1310181786
 30
0.0
 11
-8.4879616122
 21
20.5475846721
 31
0.0
  0
LINE
 62
1
  8
0
 10
-8.4879616122
 20
20.5475846721
 30
0.0
 11
-4.99500959812
 21
23.5839446563
 31
0.0
  0
LINE
 62
1
  8
0
 10
-4.99500959812
 20
23.5839446563
 30
0.0
 11
-9.00389587619
 21
26.1310181786
 31
0.0
  0
LINE
 62
1
  8
0
 10
-3.65738134602
 20
14.2220837627
 30
0.0
 11
-1.27515034419
 21
9.7606306508
 31
0.0
  0
LINE
 62
1
  8
0
 10
-1.27515034419
 20
9.7606306508
 30
0.0
 11
3.65673184867
 21
15.0696365426
 31
0.0
  0
LINE
 62
1
  8
0
 10
3.65673184867
 20
15.0696365426
 30
0.0
 11
-3.65738134602
 21
14.2220837627
 31
0.0
  0
LINE
 62
1
  8
0
 10
-5.58453489494
 20
7.02551340863
 30
0.0
 11
-7.08686992383
 21
4.57998237814
 31
0.0
  0
LINE
 62
1
  8
0
 10
-7.08686992383
 20
4.57998237814
 30
0.0
 11
-3.67739183508
 21
3.2860457095
 31
0.0
  0
LINE
 62
0
  8
0
 10
-3.67739183508
 20
3.2860457095
 30
0.0
 11
-5.58453489494
 21
7.02551340863
 31
0.0
  0
LINE
 62
0
  8
0
 10
-2.27556218871
 20
20.853308672
 30
0.0
 11
-4.99500959993
 21
23.5839446584
 31
0.0
  0
LINE
 62
1
  8
0
 10
-4.99500959993
 20
23.5839446584
 30
0.0
 11
-8.48796161039
 21
20.54758467
 31
0.0
  0
LINE
 62
1
  8
0
 10
-8.48796161039
 20
20.54758467
 30
0.0
 11
-2.27556218871
 21
20.853308672
 31
0.0
  0
LINE
 62
1
  8
0
 10
-9.36988213826
 20
6.23359811699
 30
0.0
 11
-11.4161377079
 21
12.4477769487
 31
0.0
  0
LINE
 62
1
  8
0
 10
-11.4161377079
 20
12.4477769487
 30
0.0
 11
-11.2706907398
 21
6.6760840547
 31
0.0
  0
LINE
 62
0
  8
0
 10
-11.2706907398
 20
6.6760840547
 30
0.0
 11
-9.36988213826
 21
6.23359811699
 31
0.0
  0
LINE
 62
0
  8
0
 10
-4.99500958686
 20
23.583944674
 30
0.0
 11
-8.28238945325
 21
28.1010835871
 31
0.0
  0
LINE
 62
0
  8
0
 10
-8.28238945325
 20
28.1010835871
 30
0.0
 11
-9.00389588745
 21
26.1310181609
 31
0.0
  0
LINE
 62
1
  8
0
 10
-9.00389588745
 20
26.1310181609
 30
0.0
 11
-4.99500958686
 21
23.583944674
 31
0.0
  0
LINE
 62
1
  8
0
 10
-1.89474237037
 20
5.02395284017
 30
0.0
 11
1.28156239884
 21
4.09207888454
 31
0.0
  0
LINE
 62
0
  8
0
 10
1.28156239884
 20
4.09207888454
 30
0.0
 11
-0.583227647235
 21
6.92521410267
 31
0.0
  0
LINE
 62
1
  8
0
 10
-0.583227647235
 20
6.92521410267
 30
0.0
 11
-1.89474237037
 21
5.02395284017
 31
0.0
  0
LINE
 62
1
  8
0
 10
-11.4161378173
 20
12.4477769126
 30
0.0
 11
-9.36988202887
 21
6.23359815302
 31
0.0
  0
LINE
 62
0
  8
0
 10
-9.36988202887
 20
6.23359815302
 30
0.0
 11
-7.09999169877
 21
9.83853755524
 31
0.0
  0
LINE
 62
1
  8
0
 10
-7.09999169877
 20
9.83853755524
 30
0.0
 11
-11.4161378173
 21
12.4477769126
 31
0.0
  0
LINE
 62
1
  8
0
 10
8.02704629888
 20
22.2910190134
 30
0.0
 11
1.79964049502
 21
20.6725330493
 31
0.0
  0
LINE
 62
1
  8
0
 10
1.79964049502
 20
20.6725330493
 30
0.0
 11
5.70860832717
 21
17.8123176321
 31
0.0
  0
LINE
 62
0
  8
0
 10
5.70860832717
 20
17.8123176321
 30
0.0
 11
8.02704629888
 21
22.2910190134
 31
0.0
  0
LINE
 62
1
  8
0
 10
-0.896641454067
 20
24.4519674401
 30
0.0
 11
2.68367528451
 21
30.134504714
 31
0.0
  0
LINE
 62
0
  8
0
 10
2.68367528451
 20
30.134504714
 30
0.0
 11
-0.148588001875
 21
29.9883765994
 31
0.0
  0
LINE
 62
0
  8
0
 10
-0.148588001875
 20
29.9883765994
 30
0.0
 11
-0.896641454067
 21
24.4519674401
 31
0.0
  0
LINE
 62
0
  8
0
 10
-0.896641477921
 20
24.4519674622
 30
0.0
 11
-2.27556219408
 21
20.8533087161
 31
0.0
  0
LINE
 62
1
  8
0
 10
-2.27556219408
 20
20.8533087161
 30
0.0
 11
1.79964044699
 21
20.6725330581
 31
0.0
  0
LINE
 62
1
  8
0
 10
1.79964044699
 20
20.6725330581
 30
0.0
 11
-0.896641477921
 21
24.4519674622
 31
0.0
  0
LINE
 62
1
  8
0
 10
-0.89664147842
 20
24.4519674618
 30
0.0
 11
1.79964044749
 21
20.6725330585
 31
0.0
  0
LINE
 62
0
  8
0
 10
1.79964044749
 20
20.6725330585
 30
0.0
 11
3.85675550307
 21
26.7720397116
 31
0.0
  0
LINE
 62
1
  8
0
 10
3.85675550307
 20
26.7720397116
 30
0.0
 11
-0.89664147842
 21
24.4519674618
 31
0.0
  0
LINE
 62
1
  8
0
 10
2.68367530437
 20
30.1345047015
 30
0.0
 11
-0.896641473927
 21
24.4519674526
 31
0.0
  0
LINE
 62
1
  8
0
 10
-0.896641473927
 20
24.4519674526
 30
0.0
 11
3.85675549857
 21
26.7720397208
 31
0.0
  0
LINE
 62
0
  8
0
 10
3.85675549857
 20
26.7720397208
 30
0.0
 11
2.68367530437
 21
30.1345047015
 31
0.0
  0
LINE
 62
0
  8
0
 10
-1.89474236522
 20
5.02395285773
 30
0.0
 11
-0.627718172498
 21
0.867759560349
 31
0.0
  0
LINE
 62
1
  8
0
 10
-0.627718172498
 20
0.867759560349
 30
0.0
 11
1.28156239369
 21
4.09207886699
 31
0.0
  0
LINE
 62
1
  8
0
 10
1.28156239369
 20
4.09207886699
 30
0.0
 11
-1.89474236522
 21
5.02395285773
 31
0.0
  0
LINE
 62
1
  8
0
 10
1.79964048838
 20
20.6725330748
 30
0.0
 11
8.02704630552
 21
22.2910189879
 31
0.0
  0
LINE
 62
1
  8
0
 10
8.02704630552
 20
22.2910189879
 30
0.0
 11
6.69595828113
 21
24.8512620485
 31
0.0
  0
LINE
 62
0
  8
0
 10
6.69595828113
 20
24.8512620485
 30
0.0
 11
1.79964048838
 21
20.6725330748
 31
0.0
  0
LINE
 62
0
  8
0
 10
9.57308073261
 20
26.9499411826
 30
0.0
 11
6.69595825905
 21
24.8512620359
 31
0.0
  0
LINE
 62
1
  8
0
 10
6.69595825905
 20
24.8512620359
 30
0.0
 11
11.3235479908
 21
24.8196901549
 31
0.0
  0
LINE
 62
0
  8
0
 10
11.3235479908
 20
24.8196901549
 30
0.0
 11
9.57308073261
 21
26.9499411826
 31
0.0
  0
LINE
 62
1
  8
0
 10
-2.27556219308
 20
20.8533087398
 30
0.0
 11
-3.65738134285
 21
14.2220837354
 31
0.0
  0
LINE
 62
1
  8
0
 10
-3.65738134285
 20
14.2220837354
 30
0.0
 11
3.6567318455
 21
15.0696365699
 31
0.0
  0
LINE
 62
1
  8
0
 10
3.6567318455
 20
15.0696365699
 30
0.0
 11
-2.27556219308
 21
20.8533087398
 31
0.0
  0
LINE
 62
1
  8
0
 10
-11.2706907242
 20
6.6760840551
 30
0.0
 11
-11.4161377235
 21
12.4477769483
 31
0.0
  0
LINE
 62
0
  8
0
 10
-11.4161377235
 20
12.4477769483
 30
0.0
 11
-15.8481951953
 21
9.01298664121
 31
0.0
  0
LINE
 62
0
  8
0
 10
-15.8481951953
 20
9.01298664121
 30
0.0
 11
-11.2706907242
 21
6.6760840551
 31
0.0
  0
LINE
 62
0
  8
0
 10
0.763834670585
 20
7.67235765792
 30
0.0
 11
4.14323016689
 21
7.96181086606
 31
0.0
  0
LINE
 62
0
  8
0
 10
4.14323016689
 20
7.96181086606
 30
0.0
 11
3.65673182246
 21
15.0696365519
 31
0.0
  0
LINE
 62
1
  8
0
 10
3.65673182246
 20
15.0696365519
 30
0.0
 11
0.763834670585
 21
7.67235765792
 31
0.0
  0
LINE
 62
1
  8
0
 10
-11.4161378176
 20
12.4477769122
 30
0.0
 11
-7.09999169851
 21
9.83853755568
 31
0.0
  0
LINE
 62
1
  8
0
 10
-7.09999169851
 20
9.83853755568
 30
0.0
 11
-3.65738134678
 21
14.2220837971
 31
0.0
  0
LINE
 62
0
  8
0
 10
-3.65738134678
 20
14.2220837971
 30
0.0
 11
-11.4161378176
 21
12.4477769122
 31
0.0
  0
LINE
 62
1
  8
0
 10
3.65673184544
 20
15.0696365699
 30
0.0
 11
1.79964044594
 21
20.6725330344
 31
0.0
  0
LINE
 62
1
  8
0
 10
1.79964044594
 20
20.6725330344
 30
0.0
 11
-2.27556219303
 21
20.8533087399
 31
0.0
  0
LINE
 62
1
  8
0
 10
-2.27556219303
 20
20.8533087399
 30
0.0
 11
3.65673184544
 21
15.0696365699
 31
0.0
  0
LINE
 62
1
  8
0
 10
-3.6573813439
 20
14.2220837356
 30
0.0
 11
-2.27556219203
 21
20.8533087396
 31
0.0
  0
LINE
 62
1
  8
0
 10
-2.27556219203
 20
20.8533087396
 30
0.0
 11
-8.48796160707
 21
20.5475846024
 31
0.0
  0
LINE
 62
0
  8
0
 10
-8.48796160707
 20
20.5475846024
 30
0.0
 11
-3.6573813439
 21
14.2220837356
 31
0.0
  0
LINE
 62
1
  8
0
 10
-3.67739183869
 20
3.28604569999
 30
0.0
 11
-7.08686992021
 21
4.57998238765
 31
0.0
  0
LINE
 62
0
  8
0
 10
-7.08686992021
 20
4.57998238765
 30
0.0
 11
-5.93218029261
 21
-0.42814627919
 31
0.0
  0
LINE
 62
0
  8
0
 10
-5.93218029261
 20
-0.42814627919
 30
0.0
 11
-3.67739183869
 21
3.28604569999
 31
0.0
  0
LINE
 62
1
  8
0
 10
1.28156236041
 20
4.09207888669
 30
0.0
 11
-0.627718139219
 21
0.867759540643
 31
0.0
  0
LINE
 62
0
  8
0
 10
-0.627718139219
 20
0.867759540643
 30
0.0
 11
1.24458360096
 21
-0.0789270557592
 31
0.0
  0
LINE
 62
0
  8
0
 10
1.24458360096
 20
-0.0789270557592
 30
0.0
 11
1.28156236041
 21
4.09207888669
 31
0.0
  0
LINE
 62
0
  8
0
 10
-8.57542384755
 20
5.84215285884
 30
0.0
 11
-7.08686991534
 21
4.57998237293
 31
0.0
  0
LINE
 62
1
  8
0
 10
-7.08686991534
 20
4.57998237293
 30
0.0
 11
-5.58453490343
 21
7.02551341384
 31
0.0
  0
LINE
 62
1
  8
0
 10
-5.58453490343
 20
7.02551341384
 30
0.0
 11
-8.57542384755
 21
5.84215285884
 31
0.0
  0
LINE
 62
1
  8
0
 10
-5.58453487133
 20
7.02551333271
 30
0.0
 11
-7.09999172992
 21
9.8385375781
 31
0.0
  0
LINE
 62
0
  8
0
 10
-7.09999172992
 20
9.8385375781
 30
0.0
 11
-8.57542387965
 21
5.84215293997
 31
0.0
  0
LINE
 62
1
  8
0
 10
-8.57542387965
 20
5.84215293997
 30
0.0
 11
-5.58453487133
 21
7.02551333271
 31
0.0
  0
LINE
 62
1
  8
0
 10
1.79964049636
 20
20.6725330511
 30
0.0
 11
3.65673179502
 21
15.0696365531
 31
0.0
  0
LINE
 62
1
  8
0
 10
3.65673179502
 20
15.0696365531
 30
0.0
 11
5.70860832584
 21
17.8123176302
 31
0.0
  0
LINE
 62
1
  8
0
 10
5.70860832584
 20
17.8123176302
 30
0.0
 11
1.79964049636
 21
20.6725330511
 31
0.0
  0
LINE
 62
0
  8
0
 10
10.725319632
 20
15.9601036115
 30
0.0
 11
5.70860840616
 21
17.8123175702
 31
0.0
  0
LINE
 62
1
  8
0
 10
5.70860840616
 20
17.8123175702
 30
0.0
 11
3.6567317147
 21
15.0696366132
 31
0.0
  0
LINE
 62
0
  8
0
 10
3.6567317147
 20
15.0696366132
 30
0.0
 11
10.725319632
 21
15.9601036115
 31
0.0
  0
TEXT
 62
1
  8
0
 10
-1.31778585609
 20
8.24809362212
 30
0.0
 40
0.2
  1
0
  0
TEXT
 62
1
  8
0
 10
0.0305421805595
 20
8.99593922066
 30
0.0
 40
0.2
  1
0
  0
TEXT
 62
1
  8
0
 10
-3.54891005337
 20
6.37633316372
 30
0.0
 40
0.2
  1
1
  0
TEXT
 62
1
  8
0
 10
9.43184249542
 20
23.8727342021
 30
0.0
 40
0.2
  1
19
  0
TEXT
 62
1
  8
0
 10
-8.34762560286
 20
23.3761064196
 30
0.0
 40
0.2
  1
8
  0
TEXT
 62
1
  8
0
 10
-4.98729698709
 20
4.97404802692
 30
0.0
 40
0.2
  1
1
  0
TEXT
 62
1
  8
0
 10
-3.91870866249
 20
21.9363652005
 30
0.0
 40
0.2
  1
11
  0
TEXT
 62
1
  8
0
 10
-10.2295959899
 20
6.84442450753
 30
0.0
 40
0.2
  1
2
  0
TEXT
 62
1
  8
0
 10
-6.96211942189
 20
25.6071430042
 30
0.0
 40
0.2
  1
12
  0
TEXT
 62
1
  8
0
 10
-8.26753973767
 20
26.9784920249
 30
0.0
 40
0.2
  1
13
  0
TEXT
 62
1
  8
0
 10
0.0150484895193
 20
5.28872703146
 30
0.0
 40
0.2
  1
3
  0
TEXT
 62
1
  8
0
 10
-8.57342518745
 20
8.24920080504
 30
0.0
 40
0.2
  1
5
  0
TEXT
 62
1
  8
0
 10
6.51260074362
 20
20.2355543863
 30
0.0
 40
0.2
  1
14
  0
TEXT
 62
1
  8
0
 10
1.28815387339
 20
29.6619719867
 30
0.0
 40
0.2
  1
15
  0
TEXT
 62
1
  8
0
 10
-0.126216711166
 20
27.1666125923
 30
0.0
 40
0.2
  1
12
  0
TEXT
 62
1
  8
0
 10
-1.21258378796
 20
22.5095148283
 30
0.0
 40
0.2
  1
11
  0
TEXT
 62
1
  8
0
 10
2.44917342516
 20
23.8501159216
 30
0.0
 40
0.2
  1
16
  0
TEXT
 62
1
  8
0
 10
2.89253977563
 20
28.321510602
 30
0.0
 40
0.2
  1
17
  0
TEXT
 62
1
  8
0
 10
-0.878614499518
 20
3.06249742411
 30
0.0
 40
0.2
  1
7
  0
TEXT
 62
1
  8
0
 10
4.50746642988
 20
22.4576394053
 30
0.0
 40
0.2
  1
16
  0
TEXT
 62
1
  8
0
 10
8.37024535906
 20
25.5774401675
 30
0.0
 40
0.2
  1
17
  0
TEXT
 62
1
  8
0
 10
10.1392678534
 20
25.6308663515
 30
0.0
 40
0.2
  1
18
  0
TEXT
 62
1
  8
0
 10
-13.3871402103
 20
10.4142139006
 30
0.0
 40
0.2
  1
8
  0
TEXT
 62
1
  8
0
 10
-13.3775658346
 20
8.20079467977
 30
0.0
 40
0.2
  1
9
  0
TEXT
 62
1
  8
0
 10
2.41939646119
 20
8.21562502076
 30
0.0
 40
0.2
  1
3
  0
TEXT
 62
1
  8
0
 10
3.50091467139
 20
11.488409434
 30
0.0
 40
0.2
  1
4
  0
TEXT
 62
1
  8
0
 10
-7.44758778278
 20
12.9449965267
 30
0.0
 40
0.2
  1
10
  0
TEXT
 62
1
  8
0
 10
-5.75476914461
 20
17.627605889
 30
0.0
 40
0.2
  1
10
  0
TEXT
 62
1
  8
0
 10
-6.11975103131
 20
2.16578556994
 30
0.0
 40
0.2
  1
9
  0
TEXT
 62
1
  8
0
 10
-5.14671155368
 20
1.63652369873
 30
0.0
 40
0.2
  1
7
  0
TEXT
 62
1
  8
0
 10
0.488923316215
 20
0.751380034166
 30
0.0
 40
0.2
  1
13
  0
TEXT
 62
1
  8
0
 10
0.863088699777
 20
2.01012204384
 30
0.0
 40
0.2
  1
20
  0
TEXT
 62
1
  8
0
 10
-7.57245660813
 20
5.51615668893
 30
0.0
 40
0.2
  1
2
  0
TEXT
 62
1
  8
0
 10
-7.46246445509
 20
7.70180851839
 30
0.0
 40
0.2
  1
5
  0
TEXT
 62
1
  8
0
 10
8.07842163893
 20
16.5109693232
 30
0.0
 40
0.2
  1
6
  0
TEXT
 62
1
  8
0
 10
7.14103072317
 20
15.9117334452
 30
0.0
 40
0.2
  1
4
  0
ENDSEC
  0
EOF
