  0
SECTION
  2
HEADER
  9
$ACADVER
  1
AC1009
  9
$EXTMIN
 10
0.0
 20
0.0
 30
0.0
  9
$EXTMAX
 10
100.0
 20
100.0
 30
0.0
  9
$INSBASE
 10
0.0
 20
0.0
 30
0.0
  0
ENDSEC
  0
SECTION
  2
TABLES
  0
TABLE
  2
LTYPE
 70
19
  0
LTYPE
  2
PHANTOM
 70
0
  3
Phantom ______  __  __  ______  __  __  ______
 72
65
 73
6
 40
2.5
 49
1.25
 49
-0.25
 49
0.25
 49
-0.25
 49
0.25
 49
-0.25
  0
LTYPE
  2
DOT2
 70
0
  3
Dot (.5) . . . . . . . . . . . . . . . . . . . 
 72
65
 73
2
 40
0.1
 49
0.0
 49
-0.1
  0
LTYPE
  2
DIVIDE
 70
0
  3
Divide __ . . __ . . __ . . __ . . __ . . __
 72
65
 73
6
 40
1.6
 49
1.0
 49
-0.2
 49
0.0
 49
-0.2
 49
0.0
 49
-0.2
  0
LTYPE
  2
DIVIDEX2
 70
0
  3
Divide (2x) ____  . .  ____  . .  ____  . .  ____
 72
65
 73
6
 40
2.6
 49
2.0
 49
-0.2
 49
0.0
 49
-0.2
 49
0.0
 49
-0.2
  0
LTYPE
  2
CENTER
 70
0
  3
Center ____ _ ____ _ ____ _ ____ _ ____ _ ____
 72
65
 73
4
 40
2.0
 49
1.25
 49
-0.25
 49
0.25
 49
-0.25
  0
LTYPE
  2
DASHDOT
 70
0
  3
Dash dot __ . __ . __ . __ . __ . __ . __ . __
 72
65
 73
4
 40
1.4
 49
1.0
 49
-0.2
 49
0.0
 49
-0.2
  0
LTYPE
  2
CENTERX2
 70
0
  3
Center (2x) ________  __  ________  __  ________
 72
65
 73
4
 40
3.5
 49
2.5
 49
-0.25
 49
0.5
 49
-0.25
  0
LTYPE
  2
PHANTOMX2
 70
0
  3
Phantom (2x)____________    ____    ____    ____________
 72
65
 73
6
 40
4.25
 49
2.5
 49
-0.25
 49
0.5
 49
-0.25
 49
0.5
 49
-0.25
  0
LTYPE
  2
CONTINUOUS
 70
0
  3
Solid
 72
65
 73
0
 40
0.0
  0
LTYPE
  2
PHANTOM2
 70
0
  3
Phantom (.5x) ___ _ _ ___ _ _ ___ _ _ ___ _ _ ___
 72
65
 73
6
 40
1.25
 49
0.625
 49
-0.125
 49
0.125
 49
-0.125
 49
0.125
 49
-0.125
  0
LTYPE
  2
DASHED
 70
0
  3
Dashed __ __ __ __ __ __ __ __ __ __ __ __ __ _
 72
65
 73
2
 40
0.6
 49
0.5
 49
-0.1
  0
LTYPE
  2
DASHED2
 70
0
  3
Dashed (.5x) _ _ _ _ _ _ _ _ _ _ _ _ _ _
 72
65
 73
2
 40
0.3
 49
0.25
 49
-0.05
  0
LTYPE
  2
DASHDOT2
 70
0
  3
Dash dot (.5x) _ . _ . _ . _ . _ . _ . _ . _
 72
65
 73
4
 40
0.7
 49
0.5
 49
-0.1
 49
0.0
 49
-0.1
  0
LTYPE
  2
DOTX2
 70
0
  3
Dot (2x) .    .    .    .    .    .    .    . 
 72
65
 73
2
 40
0.4
 49
0.0
 49
-0.4
  0
LTYPE
  2
DIVIDE2
 70
0
  3
Divide(.5x) _ . _ . _ . _ . _ . _ . _ . _
 72
65
 73
6
 40
0.8
 49
0.5
 49
-0.1
 49
0.0
 49
-0.1
 49
0.0
 49
-0.1
  0
LTYPE
  2
CENTER2
 70
0
  3
Center (.5x) ____ _ ____ _ ____ _ ____ _ ____
 72
65
 73
4
 40
1.0
 49
0.625
 49
-0.125
 49
0.125
 49
-0.125
  0
LTYPE
  2
DASHDOTX2
 70
0
  3
Dash dot (2x) ____  .  ____  .  ____  .  ____
 72
65
 73
4
 40
2.4
 49
2.0
 49
-0.2
 49
0.0
 49
-0.2
  0
LTYPE
  2
DOT
 70
0
  3
Dot .  .  .  .  .  .  .  .  .  .  .  .  .  .  .  .
 72
65
 73
2
 40
0.2
 49
0.0
 49
-0.2
  0
LTYPE
  2
DASHEDX2
 70
0
  3
Dashed (2x) ____  ____  ____  ____  ____  ____
 72
65
 73
2
 40
1.2
 49
1.0
 49
-0.2
  0
ENDTAB
  0
TABLE
  2
LAYER
 70
5
  0
LAYER
  2
VIEWPORTS
 70
0
 62
7
  6
CONTINUOUS
  0
LAYER
  2
TABLEGRID
 70
0
 62
1
  6
CONTINUOUS
  0
LAYER
  2
TABLECONTENT
 70
0
 62
1
  6
CONTINUOUS
  0
LAYER
  2
DIMENSIONS
 70
0
 62
1
  6
CONTINUOUS
  0
LAYER
  2
TABLEBACKGROUND
 70
0
 62
1
  6
CONTINUOUS
  0
ENDTAB
  0
TABLE
  2
STYLE
 70
12
  0
STYLE
  2
TIMES
 70
0
 40
0.0
 41
1.0
 42
1.0
 50
0.0
 71
0
  3
times.ttf
  4

  0
STYLE
  2
ARIAL
 70
0
 40
0.0
 41
1.0
 42
1.0
 50
0.0
 71
0
  3
arial.ttf
  4

  0
STYLE
  2
TIMES_BOLD
 70
0
 40
0.0
 41
1.0
 42
1.0
 50
0.0
 71
0
  3
timesbd.ttf
  4

  0
STYLE
  2
ARIAL_BLACK
 70
0
 40
0.0
 41
1.0
 42
1.0
 50
0.0
 71
0
  3
ariblk.ttf
  4

  0
STYLE
  2
TIMES_ITALIC
 70
0
 40
0.0
 41
1.0
 42
1.0
 50
0.0
 71
0
  3
timesi.ttf
  4

  0
STYLE
  2
ISOCPEUR
 70
0
 40
0.0
 41
1.0
 42
1.0
 50
0.0
 71
0
  3
isocpeur.ttf
  4

  0
STYLE
  2
ARIAL_BOLD
 70
0
 40
0.0
 41
1.0
 42
1.0
 50
0.0
 71
0
  3
arialbd.ttf
  4

  0
STYLE
  2
ARIAL_ITALIC
 70
0
 40
0.0
 41
1.0
 42
1.0
 50
0.0
 71
0
  3
ariali.ttf
  4

  0
STYLE
  2
ARIAL_BOLD_ITALIC
 70
0
 40
0.0
 41
1.0
 42
1.0
 50
0.0
 71
0
  3
arialbi.ttf
  4

  0
STYLE
  2
TIMES_BOLD_ITALIC
 70
0
 40
0.0
 41
1.0
 42
1.0
 50
0.0
 71
0
  3
timesbi.ttf
  4

  0
STYLE
  2
ISOCPEUR_ITALIC
 70
0
 40
0.0
 41
1.0
 42
1.0
 50
0.0
 71
0
  3
isocpeui.ttf
  4

  0
STYLE
  2
STANDARD
 70
0
 40
0.0
 41
1.0
 42
1.0
 50
0.0
 71
0
  3
arial.ttf
  4

  0
ENDTAB
  0
TABLE
  2
VIEW
 70
0
  0
ENDTAB
  0
TABLE
  2
APPID
 70
1
  0
APPID
  2
DXFWRITE
 70
0
  0
ENDTAB
  0
TABLE
  2
VPORT
 70
0
  0
ENDTAB
  0
TABLE
  2
UCS
 70
0
  0
ENDTAB
  0
ENDSEC
  0
SECTION
  2
BLOCKS
  0
ENDSEC
  0
SECTION
  2
ENTITIES
  0
VIEWPORT
  8
VIEWPORTS
 67
1
 10
0.0
 20
0.0
 30
0.0
 40
1.0
 41
1.0
 68
1
 69
1
1001
ACAD
1000
MVIEW
1002
{
1070
16
1010
0.0
1020
0.0
1030
0.0
1010
0.0
1020
0.0
1030
0.0
1040
0.0
1040
1.0
1040
0.0
1040
0.0
1040
50.0
1040
0.0
1040
0.0
1070
0
1070
100
1070
1
1070
3
1070
0
1070
0
1070
0
1070
0
1040
0.0
1040
0.0
1040
0.0
1040
0.1
1040
0.1
1040
0.1
1040
0.1
1070
0
1002
{
1002
}
1002
}
  0
LINE
 62
0
  8
0
 10
36.993811523
 20
25.3885880163
 30
0.0
 11
32.9771732125
 21
27.8747011379
 31
0.0
  0
LINE
 62
1
  8
0
 10
32.9771732125
 20
27.8747011379
 30
0.0
 11
32.0962237416
 21
25.036675838
 31
0.0
  0
LINE
 62
1
  8
0
 10
32.0962237416
 20
25.036675838
 30
0.0
 11
36.993811523
 21
25.3885880163
 31
0.0
  0
LINE
 62
0
  8
0
 10
32.0962237413
 20
25.0366758419
 30
0.0
 11
36.1103054037
 21
19.7712426261
 31
0.0
  0
LINE
 62
1
  8
0
 10
36.1103054037
 20
19.7712426261
 30
0.0
 11
36.9938115233
 21
25.3885880124
 31
0.0
  0
LINE
 62
1
  8
0
 10
36.9938115233
 20
25.3885880124
 30
0.0
 11
32.0962237413
 21
25.0366758419
 31
0.0
  0
LINE
 62
1
  8
0
 10
33.9628555953
 20
31.244771997
 30
0.0
 11
32.9771731995
 21
27.8747011631
 31
0.0
  0
LINE
 62
0
  8
0
 10
32.9771731995
 20
27.8747011631
 30
0.0
 11
37.4942805222
 21
26.4927159225
 31
0.0
  0
LINE
 62
0
  8
0
 10
37.4942805222
 20
26.4927159225
 30
0.0
 11
33.9628555953
 21
31.244771997
 31
0.0
  0
LINE
 62
1
  8
0
 10
30.1450110503
 20
28.7572917669
 30
0.0
 11
32.0962237514
 21
25.036675835
 31
0.0
  0
LINE
 62
1
  8
0
 10
32.0962237514
 20
25.036675835
 30
0.0
 11
32.9771732027
 21
27.874701141
 31
0.0
  0
LINE
 62
1
  8
0
 10
32.9771732027
 20
27.874701141
 30
0.0
 11
30.1450110503
 21
28.7572917669
 31
0.0
  0
LINE
 62
1
  8
0
 10
30.1450110443
 20
28.7572917474
 30
0.0
 11
32.9771732088
 21
27.8747011604
 31
0.0
  0
LINE
 62
1
  8
0
 10
32.9771732088
 20
27.8747011604
 30
0.0
 11
33.962855586
 21
31.2447719997
 31
0.0
  0
LINE
 62
0
  8
0
 10
33.962855586
 20
31.2447719997
 30
0.0
 11
30.1450110443
 21
28.7572917474
 31
0.0
  0
LINE
 62
0
  8
0
 10
5.70860831125
 20
17.8123176697
 30
0.0
 11
9.18391423695
 21
13.7477959518
 31
0.0
  0
LINE
 62
1
  8
0
 10
9.18391423695
 20
13.7477959518
 30
0.0
 11
9.05862170044
 21
18.4332434741
 31
0.0
  0
LINE
 62
1
  8
0
 10
9.05862170044
 20
18.4332434741
 30
0.0
 11
5.70860831125
 21
17.8123176697
 31
0.0
  0
LINE
 62
1
  8
0
 10
32.096223754
 20
25.0366758363
 30
0.0
 11
30.1450110478
 21
28.7572917655
 31
0.0
  0
LINE
 62
1
  8
0
 10
30.1450110478
 20
28.7572917655
 30
0.0
 11
27.7238814874
 21
26.4310576282
 31
0.0
  0
LINE
 62
0
  8
0
 10
27.7238814874
 20
26.4310576282
 30
0.0
 11
32.096223754
 21
25.0366758363
 31
0.0
  0
LINE
 62
1
  8
0
 10
41.1749769021
 20
24.5140558328
 30
0.0
 11
36.1103054212
 21
19.7712426249
 31
0.0
  0
LINE
 62
0
  8
0
 10
36.1103054212
 20
19.7712426249
 30
0.0
 11
41.4708945047
 21
19.3622538324
 31
0.0
  0
LINE
 62
1
  8
0
 10
41.4708945047
 20
19.3622538324
 30
0.0
 11
41.1749769021
 21
24.5140558328
 31
0.0
  0
LINE
 62
0
  8
0
 10
11.8700856961
 20
15.1035192193
 30
0.0
 11
9.05862171245
 21
18.4332434745
 31
0.0
  0
LINE
 62
1
  8
0
 10
9.05862171245
 20
18.4332434745
 30
0.0
 11
9.18391422495
 21
13.7477959515
 31
0.0
  0
LINE
 62
1
  8
0
 10
9.18391422495
 20
13.7477959515
 30
0.0
 11
11.8700856961
 21
15.1035192193
 31
0.0
  0
LINE
 62
0
  8
0
 10
44.0167811132
 20
20.00279652
 30
0.0
 11
41.1749768738
 21
24.5140558311
 31
0.0
  0
LINE
 62
1
  8
0
 10
41.1749768738
 20
24.5140558311
 30
0.0
 11
41.4708945331
 21
19.362253834
 31
0.0
  0
LINE
 62
0
  8
0
 10
41.4708945331
 20
19.362253834
 30
0.0
 11
44.0167811132
 21
20.00279652
 31
0.0
  0
LINE
 62
1
  8
0
 10
27.7238814811
 20
26.4310576348
 30
0.0
 11
30.1450110541
 21
28.7572917589
 31
0.0
  0
LINE
 62
0
  8
0
 10
30.1450110541
 20
28.7572917589
 30
0.0
 11
26.0520936855
 21
30.2529972026
 31
0.0
  0
LINE
 62
1
  8
0
 10
26.0520936855
 20
30.2529972026
 30
0.0
 11
27.7238814811
 21
26.4310576348
 31
0.0
  0
LINE
 62
0
  8
0
 10
9.0586216832
 20
18.4332435123
 30
0.0
 11
13.3185810521
 21
17.5144728546
 31
0.0
  0
LINE
 62
0
  8
0
 10
13.3185810521
 20
17.5144728546
 30
0.0
 11
12.5521639598
 21
19.4770531701
 31
0.0
  0
LINE
 62
1
  8
0
 10
12.5521639598
 20
19.4770531701
 30
0.0
 11
9.0586216832
 21
18.4332435123
 31
0.0
  0
LINE
 62
1
  8
0
 10
27.7238814815
 20
26.431057635
 30
0.0
 11
26.0520936851
 21
30.2529972024
 31
0.0
  0
LINE
 62
1
  8
0
 10
26.0520936851
 20
30.2529972024
 30
0.0
 11
25.5677651886
 21
27.2769943627
 31
0.0
  0
LINE
 62
0
  8
0
 10
25.5677651886
 20
27.2769943627
 30
0.0
 11
27.7238814815
 21
26.431057635
 31
0.0
  0
LINE
 62
1
  8
0
 10
12.1758003544
 20
22.06979279
 30
0.0
 11
12.5521639501
 21
19.4770531741
 31
0.0
  0
LINE
 62
0
  8
0
 10
12.5521639501
 20
19.4770531741
 30
0.0
 11
15.8224963805
 21
21.3955573783
 31
0.0
  0
LINE
 62
1
  8
0
 10
15.8224963805
 20
21.3955573783
 30
0.0
 11
12.1758003544
 21
22.06979279
 31
0.0
  0
LINE
 62
1
  8
0
 10
19.7414920452
 20
41.8682424186
 30
0.0
 11
24.3531706926
 21
40.7952569219
 31
0.0
  0
LINE
 62
0
  8
0
 10
24.3531706926
 20
40.7952569219
 30
0.0
 11
22.3676815595
 21
44.2785284739
 31
0.0
  0
LINE
 62
1
  8
0
 10
22.3676815595
 20
44.2785284739
 30
0.0
 11
19.7414920452
 21
41.8682424186
 31
0.0
  0
LINE
 62
1
  8
0
 10
12.1758003462
 20
22.0697927888
 30
0.0
 11
9.05862168476
 21
18.433243507
 31
0.0
  0
LINE
 62
1
  8
0
 10
9.05862168476
 20
18.433243507
 30
0.0
 11
12.5521639583
 21
19.4770531753
 31
0.0
  0
LINE
 62
1
  8
0
 10
12.5521639583
 20
19.4770531753
 30
0.0
 11
12.1758003462
 21
22.0697927888
 31
0.0
  0
LINE
 62
1
  8
0
 10
24.1593112161
 20
33.3671758693
 30
0.0
 11
26.0520936769
 21
30.2529972159
 31
0.0
  0
LINE
 62
0
  8
0
 10
26.0520936769
 20
30.2529972159
 30
0.0
 11
28.2273461517
 21
34.6851018183
 31
0.0
  0
LINE
 62
1
  8
0
 10
28.2273461517
 20
34.6851018183
 30
0.0
 11
24.1593112161
 21
33.3671758693
 31
0.0
  0
LINE
 62
1
  8
0
 10
8.02704631575
 20
22.2910190101
 30
0.0
 11
9.05862168747
 21
18.4332435047
 31
0.0
  0
LINE
 62
1
  8
0
 10
9.05862168747
 20
18.4332435047
 30
0.0
 11
12.1758003435
 21
22.0697927911
 31
0.0
  0
LINE
 62
0
  8
0
 10
12.1758003435
 20
22.0697927911
 30
0.0
 11
8.02704631575
 21
22.2910190101
 31
0.0
  0
LINE
 62
1
  8
0
 10
24.1593112207
 20
33.367175855
 30
0.0
 11
28.227346147
 21
34.6851018326
 31
0.0
  0
LINE
 62
1
  8
0
 10
28.227346147
 20
34.6851018326
 30
0.0
 11
23.8247077291
 21
36.2928969416
 31
0.0
  0
LINE
 62
1
  8
0
 10
23.8247077291
 20
36.2928969416
 30
0.0
 11
24.1593112207
 21
33.367175855
 31
0.0
  0
LINE
 62
0
  8
0
 10
26.4835018203
 20
39.9645903308
 30
0.0
 11
23.8247077245
 21
36.2928969288
 31
0.0
  0
LINE
 62
1
  8
0
 10
23.8247077245
 20
36.2928969288
 30
0.0
 11
28.7212005527
 21
37.3442449917
 31
0.0
  0
LINE
 62
0
  8
0
 10
28.7212005527
 20
37.3442449917
 30
0.0
 11
26.4835018203
 21
39.9645903308
 31
0.0
  0
LINE
 62
0
  8
0
 10
8.02704630879
 20
22.2910190083
 30
0.0
 11
5.70860831726
 21
17.8123176372
 31
0.0
  0
LINE
 62
1
  8
0
 10
5.70860831726
 20
17.8123176372
 30
0.0
 11
9.05862169443
 21
18.4332435066
 31
0.0
  0
LINE
 62
1
  8
0
 10
9.05862169443
 20
18.4332435066
 30
0.0
 11
8.02704630879
 21
22.2910190083
 31
0.0
  0
LINE
 62
1
  8
0
 10
28.7212005527
 20
37.3442449916
 30
0.0
 11
23.8247077245
 21
36.292896929
 31
0.0
  0
LINE
 62
1
  8
0
 10
23.8247077245
 20
36.292896929
 30
0.0
 11
28.2273461516
 21
34.6851018452
 31
0.0
  0
LINE
 62
0
  8
0
 10
28.2273461516
 20
34.6851018452
 30
0.0
 11
28.7212005527
 21
37.3442449916
 31
0.0
  0
LINE
 62
1
  8
0
 10
7.63063722341
 20
32.3290431141
 30
0.0
 11
9.88484721075
 21
35.126281517
 31
0.0
  0
LINE
 62
0
  8
0
 10
9.88484721075
 20
35.126281517
 30
0.0
 11
5.47004107957
 21
34.1661313135
 31
0.0
  0
LINE
 62
0
  8
0
 10
5.47004107957
 20
34.1661313135
 30
0.0
 11
7.63063722341
 21
32.3290431141
 31
0.0
  0
LINE
 62
1
  8
0
 10
19.7414920486
 20
41.8682424148
 30
0.0
 11
22.367681556
 21
44.2785284776
 31
0.0
  0
LINE
 62
0
  8
0
 10
22.367681556
 20
44.2785284776
 30
0.0
 11
19.1172764011
 21
46.342921891
 31
0.0
  0
LINE
 62
0
  8
0
 10
19.1172764011
 20
46.342921891
 30
0.0
 11
19.7414920486
 21
41.8682424148
 31
0.0
  0
LINE
 62
0
  8
0
 10
21.3538045111
 20
24.0557064641
 30
0.0
 11
25.5677651895
 21
27.2769943389
 31
0.0
  0
LINE
 62
1
  8
0
 10
25.5677651895
 20
27.2769943389
 30
0.0
 11
21.8422824665
 21
29.0856974727
 31
0.0
  0
LINE
 62
1
  8
0
 10
21.8422824665
 20
29.0856974727
 30
0.0
 11
21.3538045111
 21
24.0557064641
 31
0.0
  0
LINE
 62
1
  8
0
 10
14.3592315931
 20
24.9108401356
 30
0.0
 11
15.8224963805
 21
21.3955573837
 31
0.0
  0
LINE
 62
0
  8
0
 10
15.8224963805
 20
21.3955573837
 30
0.0
 11
17.7348757539
 21
24.6305473745
 31
0.0
  0
LINE
 62
1
  8
0
 10
17.7348757539
 20
24.6305473745
 30
0.0
 11
14.3592315931
 21
24.9108401356
 31
0.0
  0
LINE
 62
1
  8
0
 10
15.8224963816
 20
21.3955573842
 30
0.0
 11
14.3592315921
 21
24.9108401351
 31
0.0
  0
LINE
 62
0
  8
0
 10
14.3592315921
 20
24.9108401351
 30
0.0
 11
12.1758003533
 21
22.0697927841
 31
0.0
  0
LINE
 62
1
  8
0
 10
12.1758003533
 20
22.0697927841
 30
0.0
 11
15.8224963816
 21
21.3955573842
 31
0.0
  0
LINE
 62
1
  8
0
 10
21.8422824559
 20
29.0856974507
 30
0.0
 11
25.5677652002
 21
27.2769943609
 31
0.0
  0
LINE
 62
1
  8
0
 10
25.5677652002
 20
27.2769943609
 30
0.0
 11
26.0520936735
 21
30.2529972043
 31
0.0
  0
LINE
 62
1
  8
0
 10
26.0520936735
 20
30.2529972043
 30
0.0
 11
21.8422824559
 21
29.0856974507
 31
0.0
  0
LINE
 62
1
  8
0
 10
19.6678539113
 20
26.8514572334
 30
0.0
 11
21.3538045153
 21
24.0557064637
 31
0.0
  0
LINE
 62
1
  8
0
 10
21.3538045153
 20
24.0557064637
 30
0.0
 11
21.8422824623
 21
29.0856974731
 31
0.0
  0
LINE
 62
1
  8
0
 10
21.8422824623
 20
29.0856974731
 30
0.0
 11
19.6678539113
 21
26.8514572334
 31
0.0
  0
LINE
 62
1
  8
0
 10
20.1038113067
 20
35.58862648
 30
0.0
 11
24.353170691
 21
40.7952569153
 31
0.0
  0
LINE
 62
1
  8
0
 10
24.353170691
 20
40.7952569153
 30
0.0
 11
19.7414920467
 21
41.8682424252
 31
0.0
  0
LINE
 62
0
  8
0
 10
19.7414920467
 20
41.8682424252
 30
0.0
 11
20.1038113067
 21
35.58862648
 31
0.0
  0
LINE
 62
0
  8
0
 10
17.734875761
 20
24.6305473658
 30
0.0
 11
21.3538045172
 21
24.0557064649
 31
0.0
  0
LINE
 62
1
  8
0
 10
21.3538045172
 20
24.0557064649
 30
0.0
 11
19.6678539094
 21
26.8514572323
 31
0.0
  0
LINE
 62
1
  8
0
 10
19.6678539094
 20
26.8514572323
 30
0.0
 11
17.734875761
 21
24.6305473658
 31
0.0
  0
LINE
 62
1
  8
0
 10
24.3531707109
 20
40.7952568991
 30
0.0
 11
20.1038112869
 21
35.5886264962
 31
0.0
  0
LINE
 62
1
  8
0
 10
20.1038112869
 20
35.5886264962
 30
0.0
 11
23.8247077256
 21
36.2928969229
 31
0.0
  0
LINE
 62
0
  8
0
 10
23.8247077256
 20
36.2928969229
 30
0.0
 11
24.3531707109
 21
40.7952568991
 31
0.0
  0
LINE
 62
1
  8
0
 10
9.88484720505
 20
35.1262815216
 30
0.0
 11
7.63063722911
 21
32.3290431095
 31
0.0
  0
LINE
 62
0
  8
0
 10
7.63063722911
 20
32.3290431095
 30
0.0
 11
9.66721807807
 21
30.6803536034
 31
0.0
  0
LINE
 62
1
  8
0
 10
9.66721807807
 20
30.6803536034
 30
0.0
 11
9.88484720505
 21
35.1262815216
 31
0.0
  0
LINE
 62
0
  8
0
 10
16.1735972397
 20
31.6710706905
 30
0.0
 11
11.584774392
 21
35.9731116641
 31
0.0
  0
LINE
 62
0
  8
0
 10
11.584774392
 20
35.9731116641
 30
0.0
 11
12.2541631763
 21
32.4997480059
 31
0.0
  0
LINE
 62
1
  8
0
 10
12.2541631763
 20
32.4997480059
 30
0.0
 11
16.1735972397
 21
31.6710706905
 31
0.0
  0
LINE
 62
1
  8
0
 10
16.1735972517
 20
31.671070661
 30
0.0
 11
17.7348757619
 21
24.630547365
 31
0.0
  0
LINE
 62
1
  8
0
 10
17.7348757619
 20
24.630547365
 30
0.0
 11
19.6678539085
 21
26.8514572331
 31
0.0
  0
LINE
 62
0
  8
0
 10
19.6678539085
 20
26.8514572331
 30
0.0
 11
16.1735972517
 21
31.671070661
 31
0.0
  0
LINE
 62
1
  8
0
 10
24.1593112217
 20
33.3671758727
 30
0.0
 11
21.8422824581
 21
29.0856974426
 31
0.0
  0
LINE
 62
1
  8
0
 10
21.8422824581
 20
29.0856974426
 30
0.0
 11
26.0520936713
 21
30.2529972125
 31
0.0
  0
LINE
 62
1
  8
0
 10
26.0520936713
 20
30.2529972125
 30
0.0
 11
24.1593112217
 21
33.3671758727
 31
0.0
  0
LINE
 62
0
  8
0
 10
9.26590804327
 20
25.1411328507
 30
0.0
 11
11.2155380554
 21
23.1915052251
 31
0.0
  0
LINE
 62
1
  8
0
 10
11.2155380554
 20
23.1915052251
 30
0.0
 11
11.2892799928
 21
26.8060065985
 31
0.0
  0
LINE
 62
0
  8
0
 10
11.2892799928
 20
26.8060065985
 30
0.0
 11
9.26590804327
 21
25.1411328507
 31
0.0
  0
LINE
 62
1
  8
0
 10
11.2892800013
 20
26.8060065983
 30
0.0
 11
11.2155380469
 21
23.1915052253
 31
0.0
  0
LINE
 62
0
  8
0
 10
11.2155380469
 20
23.1915052253
 30
0.0
 11
14.3592316371
 21
24.9108401654
 31
0.0
  0
LINE
 62
1
  8
0
 10
14.3592316371
 20
24.9108401654
 30
0.0
 11
11.2892800013
 21
26.8060065983
 31
0.0
  0
LINE
 62
1
  8
0
 10
9.88484720961
 20
35.1262815214
 30
0.0
 11
9.66721807352
 21
30.6803536036
 31
0.0
  0
LINE
 62
1
  8
0
 10
9.66721807352
 20
30.6803536036
 30
0.0
 11
12.2541631668
 21
32.4997479996
 31
0.0
  0
LINE
 62
0
  8
0
 10
12.2541631668
 20
32.4997479996
 30
0.0
 11
9.88484720961
 21
35.1262815214
 31
0.0
  0
LINE
 62
1
  8
0
 10
14.187346783
 20
30.2960576694
 30
0.0
 11
14.3592315942
 21
24.9108401478
 31
0.0
  0
LINE
 62
1
  8
0
 10
14.3592315942
 20
24.9108401478
 30
0.0
 11
17.7348757529
 21
24.6305473623
 31
0.0
  0
LINE
 62
1
  8
0
 10
17.7348757529
 20
24.6305473623
 30
0.0
 11
14.187346783
 21
30.2960576694
 31
0.0
  0
LINE
 62
1
  8
0
 10
17.7348757546
 20
24.6305473634
 30
0.0
 11
16.1735972591
 21
31.6710706626
 31
0.0
  0
LINE
 62
1
  8
0
 10
16.1735972591
 20
31.6710706626
 30
0.0
 11
14.1873467813
 21
30.2960576683
 31
0.0
  0
LINE
 62
1
  8
0
 10
14.1873467813
 20
30.2960576683
 30
0.0
 11
17.7348757546
 21
24.6305473634
 31
0.0
  0
LINE
 62
1
  8
0
 10
19.6678539134
 20
26.8514572314
 30
0.0
 11
21.8422824603
 21
29.0856974751
 31
0.0
  0
LINE
 62
0
  8
0
 10
21.8422824603
 20
29.0856974751
 30
0.0
 11
17.3562393118
 21
32.3373428583
 31
0.0
  0
LINE
 62
0
  8
0
 10
17.3562393118
 20
32.3373428583
 30
0.0
 11
19.6678539134
 21
26.8514572314
 31
0.0
  0
LINE
 62
1
  8
0
 10
21.8422824592
 20
29.085697442
 30
0.0
 11
24.1593112207
 21
33.3671758733
 31
0.0
  0
LINE
 62
0
  8
0
 10
24.1593112207
 20
33.3671758733
 30
0.0
 11
19.6025812318
 21
34.1533911226
 31
0.0
  0
LINE
 62
0
  8
0
 10
19.6025812318
 20
34.1533911226
 30
0.0
 11
21.8422824592
 21
29.085697442
 31
0.0
  0
LINE
 62
1
  8
0
 10
24.1593112276
 20
33.3671758557
 30
0.0
 11
23.8247077222
 21
36.2928969408
 31
0.0
  0
LINE
 62
1
  8
0
 10
23.8247077222
 20
36.2928969408
 30
0.0
 11
20.1038112902
 21
35.5886264783
 31
0.0
  0
LINE
 62
0
  8
0
 10
20.1038112902
 20
35.5886264783
 30
0.0
 11
24.1593112276
 21
33.3671758557
 31
0.0
  0
LINE
 62
1
  8
0
 10
16.1735972397
 20
31.6710706906
 30
0.0
 11
12.2541631763
 21
32.4997480059
 31
0.0
  0
LINE
 62
1
  8
0
 10
12.2541631763
 20
32.4997480059
 30
0.0
 11
14.1873468007
 21
30.2960576403
 31
0.0
  0
LINE
 62
1
  8
0
 10
14.1873468007
 20
30.2960576403
 30
0.0
 11
16.1735972397
 21
31.6710706906
 31
0.0
  0
LINE
 62
1
  8
0
 10
11.2892800115
 20
26.8060066149
 30
0.0
 11
14.3592316269
 21
24.9108401488
 31
0.0
  0
LINE
 62
1
  8
0
 10
14.3592316269
 20
24.9108401488
 30
0.0
 11
14.1873467503
 21
30.2960576683
 31
0.0
  0
LINE
 62
0
  8
0
 10
14.1873467503
 20
30.2960576683
 30
0.0
 11
11.2892800115
 21
26.8060066149
 31
0.0
  0
LINE
 62
0
  8
0
 10
9.66721807267
 20
30.6803536048
 30
0.0
 11
14.1873468093
 21
30.2960576478
 31
0.0
  0
LINE
 62
1
  8
0
 10
14.1873468093
 20
30.2960576478
 30
0.0
 11
12.2541631677
 21
32.4997479983
 31
0.0
  0
LINE
 62
1
  8
0
 10
12.2541631677
 20
32.4997479983
 30
0.0
 11
9.66721807267
 21
30.6803536048
 31
0.0
  0
LINE
 62
0
  8
0
 10
9.18391422861
 20
13.7477959442
 30
0.0
 11
13.2635212499
 21
12.8786213056
 31
0.0
  0
LINE
 62
0
  8
0
 10
13.2635212499
 20
12.8786213056
 30
0.0
 11
11.8700856924
 21
15.1035192266
 31
0.0
  0
LINE
 62
1
  8
0
 10
11.8700856924
 20
15.1035192266
 30
0.0
 11
9.18391422861
 21
13.7477959442
 31
0.0
  0
LINE
 62
1
  8
0
 10
36.110305423
 20
19.771242623
 30
0.0
 11
41.1749769004
 21
24.5140558347
 31
0.0
  0
LINE
 62
0
  8
0
 10
41.1749769004
 20
24.5140558347
 30
0.0
 11
36.993811504
 21
25.3885880154
 31
0.0
  0
LINE
 62
1
  8
0
 10
36.993811504
 20
25.3885880154
 30
0.0
 11
36.110305423
 21
19.771242623
 31
0.0
  0
TEXT
 62
1
  8
0
 10
34.7749736175
 20
26.2915242222
 30
0.0
 40
0.2
  1
21
  0
TEXT
 62
1
  8
0
 10
34.4213695937
 20
22.6464653071
 30
0.0
 40
0.2
  1
22
  0
TEXT
 62
1
  8
0
 10
35.3527504199
 20
27.5662075449
 30
0.0
 40
0.2
  1
21
  0
TEXT
 62
1
  8
0
 10
35.4075134134
 20
28.6301566283
 30
0.0
 40
0.2
  1
23
  0
TEXT
 62
1
  8
0
 10
32.2722914644
 20
29.6658905322
 30
0.0
 40
0.2
  1
24
  0
TEXT
 62
1
  8
0
 10
7.75028042388
 20
16.0400036448
 30
0.0
 40
0.2
  1
6
  0
TEXT
 62
1
  8
0
 10
30.0315858997
 20
26.1149568294
 30
0.0
 40
0.2
  1
25
  0
TEXT
 62
1
  8
0
 10
38.8210297232
 20
19.9655890862
 30
0.0
 40
0.2
  1
26
  0
TEXT
 62
1
  8
0
 10
10.1587280216
 20
16.5103252637
 30
0.0
 40
0.2
  1
27
  0
TEXT
 62
1
  8
0
 10
42.257432604
 20
22.0452266413
 30
0.0
 40
0.2
  1
28
  0
TEXT
 62
1
  8
0
 10
42.6462398761
 20
20.0704357862
 30
0.0
 40
0.2
  1
29
  0
TEXT
 62
1
  8
0
 10
27.9612576641
 20
29.1294449149
 30
0.0
 40
0.2
  1
30
  0
TEXT
 62
1
  8
0
 10
11.272932648
 20
18.3648674354
 30
0.0
 40
0.2
  1
27
  0
TEXT
 62
1
  8
0
 10
12.56277568
 20
18.3502583551
 30
0.0
 40
0.2
  1
31
  0
TEXT
 62
1
  8
0
 10
26.7919183565
 20
27.2263917394
 30
0.0
 40
0.2
  1
32
  0
TEXT
 62
1
  8
0
 10
13.984931449
 20
20.7813194203
 30
0.0
 40
0.2
  1
33
  0
TEXT
 62
1
  8
0
 10
23.012916263
 20
42.3388096469
 30
0.0
 40
0.2
  1
34
  0
TEXT
 62
1
  8
0
 10
26.7806365917
 20
32.6452856298
 30
0.0
 40
0.2
  1
35
  0
TEXT
 62
1
  8
0
 10
10.0801241763
 20
21.7809733706
 30
0.0
 40
0.2
  1
19
  0
TEXT
 62
1
  8
0
 10
25.4780823909
 20
37.8941407682
 30
0.0
 40
0.2
  1
36
  0
TEXT
 62
1
  8
0
 10
27.2981723129
 20
38.3946577474
 30
0.0
 40
0.2
  1
37
  0
TEXT
 62
1
  8
0
 10
7.22305388162
 20
19.8677822576
 30
0.0
 40
0.2
  1
14
  0
TEXT
 62
1
  8
0
 10
28.080998217
 20
36.0877122304
 30
0.0
 40
0.2
  1
38
  0
TEXT
 62
1
  8
0
 10
7.76245064173
 20
34.2553434015
 30
0.0
 40
0.2
  1
39
  0
TEXT
 62
1
  8
0
 10
6.80944612904
 20
33.5523224664
 30
0.0
 40
0.2
  1
15
  0
TEXT
 62
1
  8
0
 10
20.5280280392
 20
44.9730703389
 30
0.0
 40
0.2
  1
40
  0
TEXT
 62
1
  8
0
 10
19.8255481002
 20
44.1608468241
 30
0.0
 40
0.2
  1
39
  0
TEXT
 62
1
  8
0
 10
23.2178596601
 20
25.9841354735
 30
0.0
 40
0.2
  1
41
  0
TEXT
 62
1
  8
0
 10
16.4343524944
 20
23.2166067715
 30
0.0
 40
0.2
  1
42
  0
TEXT
 62
1
  8
0
 10
13.5846728862
 20
23.2465717321
 30
0.0
 40
0.2
  1
43
  0
TEXT
 62
1
  8
0
 10
20.32198753
 20
38.7514752042
 30
0.0
 40
0.2
  1
44
  0
TEXT
 62
1
  8
0
 10
19.6070905746
 20
24.7381742326
 30
0.0
 40
0.2
  1
45
  0
TEXT
 62
1
  8
0
 10
23.6916664334
 20
38.5907066703
 30
0.0
 40
0.2
  1
36
  0
TEXT
 62
1
  8
0
 10
8.90060960275
 20
31.8155941532
 30
0.0
 40
0.2
  1
46
  0
TEXT
 62
1
  8
0
 10
13.6056087025
 20
33.5302769161
 30
0.0
 40
0.2
  1
44
  0
TEXT
 62
1
  8
0
 10
12.3122412547
 20
34.3121251875
 30
0.0
 40
0.2
  1
47
  0
TEXT
 62
1
  8
0
 10
17.5968825817
 20
29.0264752923
 30
0.0
 40
0.2
  1
48
  0
TEXT
 62
1
  8
0
 10
10.5235655887
 20
24.4491619235
 30
0.0
 40
0.2
  1
18
  0
TEXT
 62
1
  8
0
 10
10.5317465849
 20
25.6646903424
 30
0.0
 40
0.2
  1
46
  0
TEXT
 62
1
  8
0
 10
12.5954489481
 20
24.4021151588
 30
0.0
 40
0.2
  1
43
  0
TEXT
 62
1
  8
0
 10
10.7724933686
 20
33.5450894369
 30
0.0
 40
0.2
  1
47
  0
TEXT
 62
1
  8
0
 10
19.3645086827
 20
30.3876507439
 30
0.0
 40
0.2
  1
49
  0
TEXT
 62
1
  8
0
 10
18.880658261
 20
29.7497237477
 30
0.0
 40
0.2
  1
48
  0
TEXT
 62
1
  8
0
 10
21.8129353958
 20
33.3661077415
 30
0.0
 40
0.2
  1
50
  0
TEXT
 62
1
  8
0
 10
21.0882934685
 20
31.7812392816
 30
0.0
 40
0.2
  1
49
  0
TEXT
 62
1
  8
0
 10
22.3237258115
 20
34.8287184767
 30
0.0
 40
0.2
  1
50
  0
TEXT
 62
1
  8
0
 10
13.0460484775
 20
28.2954952356
 30
0.0
 40
0.2
  1
51
  0
TEXT
 62
1
  8
0
 10
11.9611677199
 20
30.8867677769
 30
0.0
 40
0.2
  1
51
  0
TEXT
 62
1
  8
0
 10
11.3070684219
 20
13.7044280821
 30
0.0
 40
0.2
  1
20
  0
TEXT
 62
1
  8
0
 10
12.2278011312
 20
13.7787558448
 30
0.0
 40
0.2
  1
29
  0
TEXT
 62
1
  8
0
 10
39.0025023605
 20
24.5597944978
 30
0.0
 40
0.2
  1
52
  0
ENDSEC
  0
EOF
