  0
SECTION
  2
HEADER
  9
$ACADVER
  1
AC1009
  9
$EXTMIN
 10
0.0
 20
0.0
 30
0.0
  9
$EXTMAX
 10
100.0
 20
100.0
 30
0.0
  9
$INSBASE
 10
0.0
 20
0.0
 30
0.0
  0
ENDSEC
  0
SECTION
  2
TABLES
  0
TABLE
  2
LTYPE
 70
19
  0
LTYPE
  2
PHANTOM
 70
0
  3
Phantom ______  __  __  ______  __  __  ______
 72
65
 73
6
 40
2.5
 49
1.25
 49
-0.25
 49
0.25
 49
-0.25
 49
0.25
 49
-0.25
  0
LTYPE
  2
DOT2
 70
0
  3
Dot (.5) . . . . . . . . . . . . . . . . . . . 
 72
65
 73
2
 40
0.1
 49
0.0
 49
-0.1
  0
LTYPE
  2
DIVIDE
 70
0
  3
Divide __ . . __ . . __ . . __ . . __ . . __
 72
65
 73
6
 40
1.6
 49
1.0
 49
-0.2
 49
0.0
 49
-0.2
 49
0.0
 49
-0.2
  0
LTYPE
  2
DIVIDEX2
 70
0
  3
Divide (2x) ____  . .  ____  . .  ____  . .  ____
 72
65
 73
6
 40
2.6
 49
2.0
 49
-0.2
 49
0.0
 49
-0.2
 49
0.0
 49
-0.2
  0
LTYPE
  2
CENTER
 70
0
  3
Center ____ _ ____ _ ____ _ ____ _ ____ _ ____
 72
65
 73
4
 40
2.0
 49
1.25
 49
-0.25
 49
0.25
 49
-0.25
  0
LTYPE
  2
DASHDOT
 70
0
  3
Dash dot __ . __ . __ . __ . __ . __ . __ . __
 72
65
 73
4
 40
1.4
 49
1.0
 49
-0.2
 49
0.0
 49
-0.2
  0
LTYPE
  2
CENTERX2
 70
0
  3
Center (2x) ________  __  ________  __  ________
 72
65
 73
4
 40
3.5
 49
2.5
 49
-0.25
 49
0.5
 49
-0.25
  0
LTYPE
  2
PHANTOMX2
 70
0
  3
Phantom (2x)____________    ____    ____    ____________
 72
65
 73
6
 40
4.25
 49
2.5
 49
-0.25
 49
0.5
 49
-0.25
 49
0.5
 49
-0.25
  0
LTYPE
  2
CONTINUOUS
 70
0
  3
Solid
 72
65
 73
0
 40
0.0
  0
LTYPE
  2
PHANTOM2
 70
0
  3
Phantom (.5x) ___ _ _ ___ _ _ ___ _ _ ___ _ _ ___
 72
65
 73
6
 40
1.25
 49
0.625
 49
-0.125
 49
0.125
 49
-0.125
 49
0.125
 49
-0.125
  0
LTYPE
  2
DASHED
 70
0
  3
Dashed __ __ __ __ __ __ __ __ __ __ __ __ __ _
 72
65
 73
2
 40
0.6
 49
0.5
 49
-0.1
  0
LTYPE
  2
DASHED2
 70
0
  3
Dashed (.5x) _ _ _ _ _ _ _ _ _ _ _ _ _ _
 72
65
 73
2
 40
0.3
 49
0.25
 49
-0.05
  0
LTYPE
  2
DASHDOT2
 70
0
  3
Dash dot (.5x) _ . _ . _ . _ . _ . _ . _ . _
 72
65
 73
4
 40
0.7
 49
0.5
 49
-0.1
 49
0.0
 49
-0.1
  0
LTYPE
  2
DOTX2
 70
0
  3
Dot (2x) .    .    .    .    .    .    .    . 
 72
65
 73
2
 40
0.4
 49
0.0
 49
-0.4
  0
LTYPE
  2
DIVIDE2
 70
0
  3
Divide(.5x) _ . _ . _ . _ . _ . _ . _ . _
 72
65
 73
6
 40
0.8
 49
0.5
 49
-0.1
 49
0.0
 49
-0.1
 49
0.0
 49
-0.1
  0
LTYPE
  2
CENTER2
 70
0
  3
Center (.5x) ____ _ ____ _ ____ _ ____ _ ____
 72
65
 73
4
 40
1.0
 49
0.625
 49
-0.125
 49
0.125
 49
-0.125
  0
LTYPE
  2
DASHDOTX2
 70
0
  3
Dash dot (2x) ____  .  ____  .  ____  .  ____
 72
65
 73
4
 40
2.4
 49
2.0
 49
-0.2
 49
0.0
 49
-0.2
  0
LTYPE
  2
DOT
 70
0
  3
Dot .  .  .  .  .  .  .  .  .  .  .  .  .  .  .  .
 72
65
 73
2
 40
0.2
 49
0.0
 49
-0.2
  0
LTYPE
  2
DASHEDX2
 70
0
  3
Dashed (2x) ____  ____  ____  ____  ____  ____
 72
65
 73
2
 40
1.2
 49
1.0
 49
-0.2
  0
ENDTAB
  0
TABLE
  2
LAYER
 70
5
  0
LAYER
  2
VIEWPORTS
 70
0
 62
7
  6
CONTINUOUS
  0
LAYER
  2
TABLEGRID
 70
0
 62
1
  6
CONTINUOUS
  0
LAYER
  2
TABLECONTENT
 70
0
 62
1
  6
CONTINUOUS
  0
LAYER
  2
DIMENSIONS
 70
0
 62
1
  6
CONTINUOUS
  0
LAYER
  2
TABLEBACKGROUND
 70
0
 62
1
  6
CONTINUOUS
  0
ENDTAB
  0
TABLE
  2
STYLE
 70
12
  0
STYLE
  2
TIMES
 70
0
 40
0.0
 41
1.0
 42
1.0
 50
0.0
 71
0
  3
times.ttf
  4

  0
STYLE
  2
ARIAL
 70
0
 40
0.0
 41
1.0
 42
1.0
 50
0.0
 71
0
  3
arial.ttf
  4

  0
STYLE
  2
TIMES_BOLD
 70
0
 40
0.0
 41
1.0
 42
1.0
 50
0.0
 71
0
  3
timesbd.ttf
  4

  0
STYLE
  2
ARIAL_BLACK
 70
0
 40
0.0
 41
1.0
 42
1.0
 50
0.0
 71
0
  3
ariblk.ttf
  4

  0
STYLE
  2
TIMES_ITALIC
 70
0
 40
0.0
 41
1.0
 42
1.0
 50
0.0
 71
0
  3
timesi.ttf
  4

  0
STYLE
  2
ISOCPEUR
 70
0
 40
0.0
 41
1.0
 42
1.0
 50
0.0
 71
0
  3
isocpeur.ttf
  4

  0
STYLE
  2
ARIAL_BOLD
 70
0
 40
0.0
 41
1.0
 42
1.0
 50
0.0
 71
0
  3
arialbd.ttf
  4

  0
STYLE
  2
ARIAL_ITALIC
 70
0
 40
0.0
 41
1.0
 42
1.0
 50
0.0
 71
0
  3
ariali.ttf
  4

  0
STYLE
  2
ARIAL_BOLD_ITALIC
 70
0
 40
0.0
 41
1.0
 42
1.0
 50
0.0
 71
0
  3
arialbi.ttf
  4

  0
STYLE
  2
TIMES_BOLD_ITALIC
 70
0
 40
0.0
 41
1.0
 42
1.0
 50
0.0
 71
0
  3
timesbi.ttf
  4

  0
STYLE
  2
ISOCPEUR_ITALIC
 70
0
 40
0.0
 41
1.0
 42
1.0
 50
0.0
 71
0
  3
isocpeui.ttf
  4

  0
STYLE
  2
STANDARD
 70
0
 40
0.0
 41
1.0
 42
1.0
 50
0.0
 71
0
  3
arial.ttf
  4

  0
ENDTAB
  0
TABLE
  2
VIEW
 70
0
  0
ENDTAB
  0
TABLE
  2
APPID
 70
1
  0
APPID
  2
DXFWRITE
 70
0
  0
ENDTAB
  0
TABLE
  2
VPORT
 70
0
  0
ENDTAB
  0
TABLE
  2
UCS
 70
0
  0
ENDTAB
  0
ENDSEC
  0
SECTION
  2
BLOCKS
  0
ENDSEC
  0
SECTION
  2
ENTITIES
  0
VIEWPORT
  8
VIEWPORTS
 67
1
 10
0.0
 20
0.0
 30
0.0
 40
1.0
 41
1.0
 68
1
 69
1
1001
ACAD
1000
MVIEW
1002
{
1070
16
1010
0.0
1020
0.0
1030
0.0
1010
0.0
1020
0.0
1030
0.0
1040
0.0
1040
1.0
1040
0.0
1040
0.0
1040
50.0
1040
0.0
1040
0.0
1070
0
1070
100
1070
1
1070
3
1070
0
1070
0
1070
0
1070
0
1040
0.0
1040
0.0
1040
0.0
1040
0.1
1040
0.1
1040
0.1
1040
0.1
1070
0
1002
{
1002
}
1002
}
  0
LINE
 62
1
  8
0
 10
-14.608836406
 20
11.9224002258
 30
0.0
 11
-74.219411888
 21
-20.8499445172
 31
0.0
  0
LINE
 62
0
  8
0
 10
-74.219411888
 20
-20.8499445172
 30
0.0
 11
-43.9609988186
 21
-58.6307821971
 31
0.0
  0
TEXT
  8
0
 10
-57.9194123916
 20
-38.802683326
 30
0.0
 40
1.0
  1
0
  0
LINE
 62
1
  8
0
 10
-43.9609988186
 20
-58.6307821971
 30
0.0
 11
-14.608836406
 21
11.9224002258
 31
0.0
  0
LINE
 62
0
  8
0
 10
-43.960998843
 20
-58.6307821952
 30
0.0
 11
-0.526201038435
 21
-67.3900668776
 31
0.0
  0
TEXT
  8
0
 10
-21.9470718625
 20
-61.5400262575
 30
0.0
 40
1.0
  1
1
  0
LINE
 62
1
  8
0
 10
-0.526201038435
 20
-67.3900668776
 30
0.0
 11
38.9255295308
 21
-28.8750927356
 31
0.0
  0
LINE
 62
1
  8
0
 10
38.9255295308
 20
-28.8750927356
 30
0.0
 11
-43.960998843
 21
-58.6307821952
 31
0.0
  0
LINE
 62
0
  8
0
 10
167.439264934
 20
53.9957802761
 30
0.0
 11
161.447917244
 21
-11.6587688545
 31
0.0
  0
TEXT
  8
0
 10
165.937384135
 20
21.0321886751
 30
0.0
 40
1.0
  1
2
  0
LINE
 62
1
  8
0
 10
161.447917244
 20
-11.6587688545
 30
0.0
 11
205.503505241
 21
29.0772952604
 31
0.0
  0
LINE
 62
0
  8
0
 10
205.503505241
 20
29.0772952604
 30
0.0
 11
167.439264934
 21
53.9957802761
 31
0.0
  0
TEXT
  8
0
 10
185.649810705
 20
40.2815415395
 30
0.0
 40
1.0
  1
3
  0
LINE
 62
0
  8
0
 10
38.9255295343
 20
-28.8750927454
 30
0.0
 11
-14.608836378
 21
11.9224002142
 31
0.0
  0
TEXT
  8
0
 10
11.2491491519
 20
-9.66939280286
 30
0.0
 40
1.0
  1
4
  0
LINE
 62
1
  8
0
 10
-14.608836378
 20
11.9224002142
 30
0.0
 11
-43.9609988465
 21
-58.6307821855
 31
0.0
  0
LINE
 62
1
  8
0
 10
-43.9609988465
 20
-58.6307821855
 30
0.0
 11
38.9255295343
 21
-28.8750927454
 31
0.0
  0
LINE
 62
1
  8
0
 10
264.091732559
 20
-283.152170238
 30
0.0
 11
242.200186351
 21
-228.115875444
 31
0.0
  0
LINE
 62
0
  8
0
 10
242.200186351
 20
-228.115875444
 30
0.0
 11
214.903299691
 21
-258.785400237
 31
0.0
  0
TEXT
  8
0
 10
229.672220261
 20
-244.447899468
 30
0.0
 40
1.0
  1
5
  0
LINE
 62
1
  8
0
 10
214.903299691
 20
-258.785400237
 30
0.0
 11
264.091732559
 21
-283.152170238
 31
0.0
  0
LINE
 62
1
  8
0
 10
264.091732655
 20
-283.152170045
 30
0.0
 11
214.903299595
 21
-258.785400429
 31
0.0
  0
LINE
 62
0
  8
0
 10
214.903299595
 20
-258.785400429
 30
0.0
 11
212.319739545
 21
-287.127064616
 31
0.0
  0
TEXT
  8
0
 10
215.105325854
 20
-273.092404422
 30
0.0
 40
1.0
  1
6
  0
LINE
 62
0
  8
0
 10
212.319739545
 20
-287.127064616
 30
0.0
 11
264.091732655
 21
-283.152170045
 31
0.0
  0
TEXT
  8
0
 10
238.090908648
 20
-283.644018903
 30
0.0
 40
1.0
  1
7
  0
LINE
 62
0
  8
0
 10
-32.521277096
 20
-98.0433181543
 30
0.0
 11
-70.3328098911
 21
-128.263365225
 31
0.0
  0
TEXT
  8
0
 10
-50.4905523889
 20
-114.325085864
 30
0.0
 40
1.0
  1
0
  0
LINE
 62
1
  8
0
 10
-70.3328098911
 20
-128.263365225
 30
0.0
 11
-8.45691141068
 21
-166.80656415
 31
0.0
  0
LINE
 62
1
  8
0
 10
-8.45691141068
 20
-166.80656415
 30
0.0
 11
-32.521277096
 21
-98.0433181543
 31
0.0
  0
LINE
 62
1
  8
0
 10
205.50350535
 20
29.0772951321
 30
0.0
 11
188.76881712
 21
-34.7341727419
 31
0.0
  0
LINE
 62
1
  8
0
 10
188.76881712
 20
-34.7341727419
 30
0.0
 11
252.843902231
 21
-1.58610328572
 31
0.0
  0
LINE
 62
1
  8
0
 10
252.843902231
 20
-1.58610328572
 30
0.0
 11
205.50350535
 21
29.0772951321
 31
0.0
  0
LINE
 62
1
  8
0
 10
165.82317749
 20
-98.4260686002
 30
0.0
 11
165.997741834
 21
-61.010716966
 31
0.0
  0
LINE
 62
0
  8
0
 10
165.997741834
 20
-61.010716966
 30
0.0
 11
70.5368866906
 21
-78.915901155
 31
0.0
  0
TEXT
  8
0
 10
118.543840666
 20
-71.4375997875
 30
0.0
 40
1.0
  1
8
  0
LINE
 62
1
  8
0
 10
70.5368866906
 20
-78.915901155
 30
0.0
 11
165.82317749
 21
-98.4260686002
 31
0.0
  0
LINE
 62
1
  8
0
 10
304.63011339
 20
-252.200882419
 30
0.0
 11
242.200186512
 21
-228.11587538
 31
0.0
  0
LINE
 62
1
  8
0
 10
242.200186512
 20
-228.11587538
 30
0.0
 11
264.091732398
 21
-283.152170302
 31
0.0
  0
LINE
 62
0
  8
0
 10
264.091732398
 20
-283.152170302
 30
0.0
 11
304.63011339
 21
-252.200882419
 31
0.0
  0
TEXT
  8
0
 10
283.450650837
 20
-266.484299544
 30
0.0
 40
1.0
  1
9
  0
LINE
 62
1
  8
0
 10
165.823177488
 20
-98.4260686002
 30
0.0
 11
228.079687127
 21
-105.22826157
 31
0.0
  0
LINE
 62
0
  8
0
 10
228.079687127
 20
-105.22826157
 30
0.0
 11
165.997741835
 21
-61.010716966
 31
0.0
  0
TEXT
  8
0
 10
196.168509095
 20
-84.3412677199
 30
0.0
 40
1.0
  1
10
  0
LINE
 62
1
  8
0
 10
165.997741835
 20
-61.010716966
 30
0.0
 11
165.823177488
 21
-98.4260686002
 31
0.0
  0
LINE
 62
0
  8
0
 10
252.843902142
 20
-1.58610342308
 30
0.0
 11
217.354582009
 21
69.1353151251
 31
0.0
  0
TEXT
  8
0
 10
233.758577936
 20
33.1018357084
 30
0.0
 40
1.0
  1
11
  0
LINE
 62
0
  8
0
 10
217.354582009
 20
69.1353151251
 30
0.0
 11
205.503505439
 21
29.0772952695
 31
0.0
  0
TEXT
  8
0
 10
212.867416492
 20
48.6807657956
 30
0.0
 40
1.0
  1
12
  0
LINE
 62
1
  8
0
 10
205.503505439
 20
29.0772952695
 30
0.0
 11
252.843902142
 21
-1.58610342308
 31
0.0
  0
LINE
 62
1
  8
0
 10
58.4975517449
 20
-109.624114597
 30
0.0
 11
38.9255301105
 21
-28.8750933294
 31
0.0
  0
LINE
 62
1
  8
0
 10
38.9255301105
 20
-28.8750933294
 30
0.0
 11
-0.526201618136
 21
-67.3900662838
 31
0.0
  0
LINE
 62
1
  8
0
 10
-0.526201618136
 20
-67.3900662838
 30
0.0
 11
58.4975517449
 21
-109.624114597
 31
0.0
  0
LINE
 62
0
  8
0
 10
136.461994446
 20
-261.808157092
 30
0.0
 11
185.92359806
 21
-234.268107821
 31
0.0
  0
TEXT
  8
0
 10
160.463089404
 20
-246.727587564
 30
0.0
 40
1.0
  1
13
  0
LINE
 62
1
  8
0
 10
185.92359806
 20
-234.268107821
 30
0.0
 11
171.125955051
 21
-220.960140301
 31
0.0
  0
LINE
 62
1
  8
0
 10
171.125955051
 20
-220.960140301
 30
0.0
 11
136.461994446
 21
-261.808157092
 31
0.0
  0
LINE
 62
0
  8
0
 10
269.034994398
 20
-177.455149773
 30
0.0
 11
241.525519072
 21
-155.552879363
 31
0.0
  0
TEXT
  8
0
 10
254.34595592
 20
-167.677505934
 30
0.0
 40
1.0
  1
14
  0
LINE
 62
1
  8
0
 10
241.525519072
 20
-155.552879363
 30
0.0
 11
185.923596537
 21
-234.268108557
 31
0.0
  0
LINE
 62
1
  8
0
 10
185.923596537
 20
-234.268108557
 30
0.0
 11
269.034994398
 21
-177.455149773
 31
0.0
  0
LINE
 62
1
  8
0
 10
163.487585566
 20
-50.7460917109
 30
0.0
 11
108.614241403
 21
6.71481048417
 31
0.0
  0
LINE
 62
1
  8
0
 10
108.614241403
 20
6.71481048417
 30
0.0
 11
70.5368871337
 21
-78.9159008425
 31
0.0
  0
LINE
 62
0
  8
0
 10
70.5368871337
 20
-78.9159008425
 30
0.0
 11
163.487585566
 21
-50.7460917109
 31
0.0
  0
TEXT
  8
0
 10
116.5771838
 20
-63.3954722332
 30
0.0
 40
1.0
  1
8
  0
LINE
 62
0
  8
0
 10
389.60748355
 20
33.0674021403
 30
0.0
 11
382.431724761
 21
84.4300639479
 31
0.0
  0
TEXT
  8
0
 10
384.53403197
 20
58.5411871871
 30
0.0
 40
1.0
  1
15
  0
LINE
 62
1
  8
0
 10
382.431724761
 20
84.4300639479
 30
0.0
 11
343.29183144
 21
42.2532658083
 31
0.0
  0
LINE
 62
1
  8
0
 10
343.29183144
 20
42.2532658083
 30
0.0
 11
389.60748355
 21
33.0674021403
 31
0.0
  0
LINE
 62
1
  8
0
 10
343.291831511
 20
42.2532657423
 30
0.0
 11
382.43172469
 21
84.4300640139
 31
0.0
  0
LINE
 62
0
  8
0
 10
382.43172469
 20
84.4300640139
 30
0.0
 11
343.625625277
 21
106.941097935
 31
0.0
  0
TEXT
  8
0
 10
362.276010377
 20
94.3880849276
 30
0.0
 40
1.0
  1
16
  0
LINE
 62
1
  8
0
 10
343.625625277
 20
106.941097935
 30
0.0
 11
343.291831511
 21
42.2532657423
 31
0.0
  0
LINE
 62
1
  8
0
 10
343.29183214
 20
42.2532657445
 30
0.0
 11
323.092387504
 21
113.730067144
 31
0.0
  0
LINE
 62
1
  8
0
 10
323.092387504
 20
113.730067144
 30
0.0
 11
297.619489
 21
19.5512916649
 31
0.0
  0
LINE
 62
0
  8
0
 10
297.619489
 20
19.5512916649
 30
0.0
 11
343.29183214
 21
42.2532657445
 31
0.0
  0
TEXT
  8
0
 10
319.787999414
 20
32.245494466
 30
0.0
 40
1.0
  1
9
  0
LINE
 62
0
  8
0
 10
-100.648591029
 20
-256.045456848
 30
0.0
 11
-86.6123663022
 21
-216.69984253
 31
0.0
  0
TEXT
  8
0
 10
-95.0432709191
 20
-235.868647657
 30
0.0
 40
1.0
  1
12
  0
LINE
 62
1
  8
0
 10
-86.6123663022
 20
-216.69984253
 30
0.0
 11
-120.177354732
 21
-197.881642324
 31
0.0
  0
LINE
 62
1
  8
0
 10
-120.177354732
 20
-197.881642324
 30
0.0
 11
-100.648591029
 21
-256.045456848
 31
0.0
  0
LINE
 62
1
  8
0
 10
108.614241369
 20
6.71481045125
 30
0.0
 11
163.4875856
 21
-50.746091678
 31
0.0
  0
LINE
 62
1
  8
0
 10
163.4875856
 20
-50.746091678
 30
0.0
 11
161.447917255
 21
-11.6587686833
 31
0.0
  0
LINE
 62
1
  8
0
 10
161.447917255
 20
-11.6587686833
 30
0.0
 11
108.614241369
 21
6.71481045125
 31
0.0
  0
LINE
 62
1
  8
0
 10
142.471347465
 20
-221.192552106
 30
0.0
 11
171.125955099
 21
-220.96013932
 31
0.0
  0
LINE
 62
0
  8
0
 10
171.125955099
 20
-220.96013932
 30
0.0
 11
135.499621004
 21
-155.612611785
 31
0.0
  0
TEXT
  8
0
 10
151.995794154
 20
-189.004377692
 30
0.0
 40
1.0
  1
17
  0
LINE
 62
0
  8
0
 10
135.499621004
 20
-155.612611785
 30
0.0
 11
142.471347465
 21
-221.192552106
 31
0.0
  0
TEXT
  8
0
 10
140.477079235
 20
-188.244012232
 30
0.0
 40
1.0
  1
18
  0
LINE
 62
0
  8
0
 10
-14.6088364249
 20
11.9224002602
 30
0.0
 11
-63.2480040173
 21
64.0665518239
 31
0.0
  0
TEXT
  8
0
 10
-40.0253042955
 20
36.9713214461
 30
0.0
 40
1.0
  1
19
  0
LINE
 62
0
  8
0
 10
-63.2480040173
 20
64.0665518239
 30
0.0
 11
-74.2194118691
 21
-20.8499445516
 31
0.0
  0
TEXT
  8
0
 10
-67.2460732722
 20
21.4160977938
 30
0.0
 40
1.0
  1
20
  0
LINE
 62
1
  8
0
 10
-74.2194118691
 20
-20.8499445516
 30
0.0
 11
-14.6088364249
 21
11.9224002602
 31
0.0
  0
LINE
 62
0
  8
0
 10
-194.828014831
 20
-299.175999735
 30
0.0
 11
-146.125137887
 21
-254.741262805
 31
0.0
  0
TEXT
  8
0
 10
-171.487569534
 20
-275.850528025
 30
0.0
 40
1.0
  1
2
  0
LINE
 62
1
  8
0
 10
-146.125137887
 20
-254.741262805
 30
0.0
 11
-194.318057832
 21
-258.193551751
 31
0.0
  0
LINE
 62
0
  8
0
 10
-194.318057832
 20
-258.193551751
 30
0.0
 11
-194.828014831
 21
-299.175999735
 31
0.0
  0
TEXT
  8
0
 10
-193.073152445
 20
-278.703439252
 30
0.0
 40
1.0
  1
21
  0
LINE
 62
1
  8
0
 10
185.923597241
 20
-234.268108732
 30
0.0
 11
204.321513508
 21
-154.344900975
 31
0.0
  0
LINE
 62
0
  8
0
 10
204.321513508
 20
-154.344900975
 30
0.0
 11
171.12595587
 21
-220.96013939
 31
0.0
  0
TEXT
  8
0
 10
189.066277641
 20
-188.321533204
 30
0.0
 40
1.0
  1
17
  0
LINE
 62
1
  8
0
 10
171.12595587
 20
-220.96013939
 30
0.0
 11
185.923597241
 21
-234.268108732
 31
0.0
  0
LINE
 62
1
  8
0
 10
108.614241402
 20
6.71481048456
 30
0.0
 11
38.9255301255
 21
-28.8750933186
 31
0.0
  0
LINE
 62
1
  8
0
 10
38.9255301255
 20
-28.8750933186
 30
0.0
 11
70.5368871346
 21
-78.9159008429
 31
0.0
  0
LINE
 62
1
  8
0
 10
70.5368871346
 20
-78.9159008429
 30
0.0
 11
108.614241402
 21
6.71481048456
 31
0.0
  0
LINE
 62
1
  8
0
 10
323.092387523
 20
113.73006715
 30
0.0
 11
343.291832121
 21
42.2532657391
 31
0.0
  0
LINE
 62
1
  8
0
 10
343.291832121
 20
42.2532657391
 30
0.0
 11
343.625624667
 21
106.941097938
 31
0.0
  0
LINE
 62
0
  8
0
 10
343.625624667
 20
106.941097938
 30
0.0
 11
323.092387523
 21
113.73006715
 31
0.0
  0
TEXT
  8
0
 10
332.888126807
 20
108.911408153
 30
0.0
 40
1.0
  1
22
  0
LINE
 62
0
  8
0
 10
323.09238752
 20
113.73006714
 30
0.0
 11
254.398949934
 21
77.5251646362
 31
0.0
  0
TEXT
  8
0
 10
289.445051596
 20
94.3006405294
 30
0.0
 40
1.0
  1
23
  0
LINE
 62
1
  8
0
 10
254.398949934
 20
77.5251646362
 30
0.0
 11
297.619488984
 21
19.5512916693
 31
0.0
  0
LINE
 62
1
  8
0
 10
297.619488984
 20
19.5512916693
 30
0.0
 11
323.09238752
 21
113.73006714
 31
0.0
  0
LINE
 62
1
  8
0
 10
306.904746935
 20
-62.7148683312
 30
0.0
 11
252.843902084
 21
-1.5861032562
 31
0.0
  0
LINE
 62
1
  8
0
 10
252.843902084
 20
-1.5861032562
 30
0.0
 11
241.461234001
 21
-75.3771582141
 31
0.0
  0
LINE
 62
1
  8
0
 10
241.461234001
 20
-75.3771582141
 30
0.0
 11
306.904746935
 21
-62.7148683312
 31
0.0
  0
LINE
 62
1
  8
0
 10
-120.177354703
 20
-197.881642272
 30
0.0
 11
-86.6123663318
 21
-216.699842583
 31
0.0
  0
LINE
 62
0
  8
0
 10
-86.6123663318
 20
-216.699842583
 30
0.0
 11
-29.8594849404
 21
-163.702731469
 31
0.0
  0
TEXT
  8
0
 10
-59.2596895209
 20
-189.104971602
 30
0.0
 40
1.0
  1
23
  0
LINE
 62
1
  8
0
 10
-29.8594849404
 20
-163.702731469
 30
0.0
 11
-120.177354703
 21
-197.881642272
 31
0.0
  0
LINE
 62
1
  8
0
 10
32.0263045712
 20
-147.47345129
 30
0.0
 11
58.4975517645
 21
-109.62411457
 31
0.0
  0
LINE
 62
1
  8
0
 10
58.4975517645
 20
-109.62411457
 30
0.0
 11
-0.526201637729
 21
-67.3900663112
 31
0.0
  0
LINE
 62
1
  8
0
 10
-0.526201637729
 20
-67.3900663112
 30
0.0
 11
32.0263045712
 21
-147.47345129
 31
0.0
  0
LINE
 62
0
  8
0
 10
306.904746951
 20
-62.7148683175
 30
0.0
 11
297.619488972
 21
19.5512916608
 31
0.0
  0
TEXT
  8
0
 10
300.771582105
 20
-21.7500228729
 30
0.0
 40
1.0
  1
24
  0
LINE
 62
1
  8
0
 10
297.619488972
 20
19.5512916608
 30
0.0
 11
252.843902068
 21
-1.58610326985
 31
0.0
  0
LINE
 62
1
  8
0
 10
252.843902068
 20
-1.58610326985
 30
0.0
 11
306.904746951
 21
-62.7148683175
 31
0.0
  0
LINE
 62
1
  8
0
 10
297.619488972
 20
19.5512916605
 30
0.0
 11
254.398949946
 21
77.5251646451
 31
0.0
  0
LINE
 62
0
  8
0
 10
254.398949946
 20
77.5251646451
 30
0.0
 11
252.843902068
 21
-1.58610326956
 31
0.0
  0
TEXT
  8
0
 10
255.121136309
 20
37.9400516845
 30
0.0
 40
1.0
  1
11
  0
LINE
 62
1
  8
0
 10
252.843902068
 20
-1.58610326956
 30
0.0
 11
297.619488972
 21
19.5512916605
 31
0.0
  0
LINE
 62
1
  8
0
 10
242.200186547
 20
-228.115875289
 30
0.0
 11
304.630113355
 21
-252.200882511
 31
0.0
  0
LINE
 62
0
  8
0
 10
304.630113355
 20
-252.200882511
 30
0.0
 11
269.034994276
 21
-177.455149582
 31
0.0
  0
TEXT
  8
0
 10
285.478276491
 20
-215.472944669
 30
0.0
 40
1.0
  1
24
  0
LINE
 62
1
  8
0
 10
269.034994276
 20
-177.455149582
 30
0.0
 11
242.200186547
 21
-228.115875289
 31
0.0
  0
LINE
 62
0
  8
0
 10
-146.125138364
 20
-254.741262321
 30
0.0
 11
-100.648590975
 21
-256.04545683
 31
0.0
  0
TEXT
  8
0
 10
-123.343864752
 20
-253.893976033
 30
0.0
 40
1.0
  1
3
  0
LINE
 62
1
  8
0
 10
-100.648590975
 20
-256.04545683
 30
0.0
 11
-120.177354786
 21
-197.881642342
 31
0.0
  0
LINE
 62
1
  8
0
 10
-120.177354786
 20
-197.881642342
 30
0.0
 11
-146.125138364
 21
-254.741262321
 31
0.0
  0
LINE
 62
1
  8
0
 10
-146.125137889
 20
-254.741262538
 30
0.0
 11
-120.177355261
 21
-197.881642126
 31
0.0
  0
LINE
 62
0
  8
0
 10
-120.177355261
 20
-197.881642126
 30
0.0
 11
-185.510131783
 21
-169.308762007
 31
0.0
  0
TEXT
  8
0
 10
-153.444791506
 20
-184.969516922
 30
0.0
 40
1.0
  1
19
  0
LINE
 62
1
  8
0
 10
-185.510131783
 20
-169.308762007
 30
0.0
 11
-146.125137889
 21
-254.741262538
 31
0.0
  0
LINE
 62
0
  8
0
 10
185.923596673
 20
-234.268108755
 30
0.0
 11
242.20018656
 21
-228.115875295
 31
0.0
  0
TEXT
  8
0
 10
213.898880765
 20
-229.700875845
 30
0.0
 40
1.0
  1
13
  0
LINE
 62
1
  8
0
 10
242.20018656
 20
-228.115875295
 30
0.0
 11
269.034994263
 21
-177.455149575
 31
0.0
  0
LINE
 62
1
  8
0
 10
269.034994263
 20
-177.455149575
 30
0.0
 11
185.923596673
 21
-234.268108755
 31
0.0
  0
LINE
 62
1
  8
0
 10
171.125955107
 20
-220.960140349
 30
0.0
 11
142.471347456
 21
-221.192551077
 31
0.0
  0
LINE
 62
0
  8
0
 10
142.471347456
 20
-221.192551077
 30
0.0
 11
136.46199439
 21
-261.808157044
 31
0.0
  0
TEXT
  8
0
 10
140.950517262
 20
-241.719899143
 30
0.0
 40
1.0
  1
5
  0
LINE
 62
1
  8
0
 10
136.46199439
 20
-261.808157044
 30
0.0
 11
171.125955107
 21
-220.960140349
 31
0.0
  0
LINE
 62
0
  8
0
 10
-0.526201680846
 20
-67.3900663287
 30
0.0
 11
-32.5212774518
 21
-98.043318275
 31
0.0
  0
TEXT
  8
0
 10
-15.4860349796
 20
-83.7998216527
 30
0.0
 40
1.0
  1
1
  0
LINE
 62
1
  8
0
 10
-32.5212774518
 20
-98.043318275
 30
0.0
 11
32.0263046143
 21
-147.473451272
 31
0.0
  0
LINE
 62
1
  8
0
 10
32.0263046143
 20
-147.473451272
 30
0.0
 11
-0.526201680846
 21
-67.3900663287
 31
0.0
  0
LINE
 62
1
  8
0
 10
188.768817126
 20
-34.7341728472
 30
0.0
 11
163.487585656
 21
-50.7460915983
 31
0.0
  0
LINE
 62
0
  8
0
 10
163.487585656
 20
-50.7460915983
 30
0.0
 11
230.962426932
 21
-86.1933055493
 31
0.0
  0
TEXT
  8
0
 10
197.922610758
 20
-67.1417874279
 30
0.0
 40
1.0
  1
10
  0
LINE
 62
0
  8
0
 10
230.962426932
 20
-86.1933055493
 30
0.0
 11
188.768817126
 21
-34.7341728472
 31
0.0
  0
TEXT
  8
0
 10
208.705688524
 20
-61.4148197763
 30
0.0
 40
1.0
  1
25
  0
LINE
 62
1
  8
0
 10
32.0263046183
 20
-147.473451267
 30
0.0
 11
-32.5212774558
 21
-98.0433182802
 31
0.0
  0
LINE
 62
1
  8
0
 10
-32.5212774558
 20
-98.0433182802
 30
0.0
 11
-8.45691105084
 21
-166.806564024
 31
0.0
  0
LINE
 62
0
  8
0
 10
-8.45691105084
 20
-166.806564024
 30
0.0
 11
32.0263046183
 21
-147.473451267
 31
0.0
  0
TEXT
  8
0
 10
11.1382871277
 20
-155.786436607
 30
0.0
 40
1.0
  1
16
  0
LINE
 62
0
  8
0
 10
-185.510131742
 20
-169.308762001
 30
0.0
 11
-230.94856087
 21
-227.600187774
 31
0.0
  0
TEXT
  8
0
 10
-207.04630863
 20
-199.376658089
 30
0.0
 40
1.0
  1
26
  0
LINE
 62
0
  8
0
 10
-230.94856087
 20
-227.600187774
 30
0.0
 11
-194.318057837
 21
-258.193552008
 31
0.0
  0
TEXT
  8
0
 10
-211.671773043
 20
-241.745588898
 30
0.0
 40
1.0
  1
27
  0
LINE
 62
1
  8
0
 10
-194.318057837
 20
-258.193552008
 30
0.0
 11
-185.510131742
 21
-169.308762001
 31
0.0
  0
LINE
 62
1
  8
0
 10
-70.332809891
 20
-128.263365225
 30
0.0
 11
-29.8594849308
 21
-163.702731472
 31
0.0
  0
LINE
 62
0
  8
0
 10
-29.8594849308
 20
-163.702731472
 30
0.0
 11
-8.45691141076
 21
-166.80656415
 31
0.0
  0
TEXT
  8
0
 10
-18.9429179896
 20
-163.770176712
 30
0.0
 40
1.0
  1
22
  0
LINE
 62
1
  8
0
 10
-8.45691141076
 20
-166.80656415
 30
0.0
 11
-70.332809891
 21
-128.263365225
 31
0.0
  0
LINE
 62
1
  8
0
 10
389.607483651
 20
33.0674032277
 30
0.0
 11
433.527944483
 21
15.3157970688
 31
0.0
  0
LINE
 62
0
  8
0
 10
433.527944483
 20
15.3157970688
 30
0.0
 11
383.444837569
 21
86.6366254092
 31
0.0
  0
TEXT
  8
0
 10
407.258826378
 20
50.114187438
 30
0.0
 40
1.0
  1
28
  0
LINE
 62
0
  8
0
 10
383.444837569
 20
86.6366254092
 30
0.0
 11
389.607483651
 21
33.0674032277
 31
0.0
  0
TEXT
  8
0
 10
388.016332269
 20
60.0234448556
 30
0.0
 40
1.0
  1
29
  0
LINE
 62
1
  8
0
 10
228.079687075
 20
-105.228261398
 30
0.0
 11
204.321514192
 21
-154.344900916
 31
0.0
  0
LINE
 62
1
  8
0
 10
204.321514192
 20
-154.344900916
 30
0.0
 11
241.525519039
 21
-155.552879559
 31
0.0
  0
LINE
 62
0
  8
0
 10
241.525519039
 20
-155.552879559
 30
0.0
 11
228.079687075
 21
-105.228261398
 31
0.0
  0
TEXT
  8
0
 10
233.35343674
 20
-130.777761629
 30
0.0
 40
1.0
  1
30
  0
LINE
 62
1
  8
0
 10
163.487585703
 20
-50.7460916726
 30
0.0
 11
188.768817078
 21
-34.734172773
 31
0.0
  0
LINE
 62
1
  8
0
 10
188.768817078
 20
-34.734172773
 30
0.0
 11
161.447917152
 21
-11.6587686886
 31
0.0
  0
LINE
 62
1
  8
0
 10
161.447917152
 20
-11.6587686886
 30
0.0
 11
163.487585703
 21
-50.7460916726
 31
0.0
  0
LINE
 62
1
  8
0
 10
38.9255301296
 20
-28.8750933266
 30
0.0
 11
108.614241398
 21
6.7148104925
 31
0.0
  0
LINE
 62
0
  8
0
 10
108.614241398
 20
6.7148104925
 30
0.0
 11
41.8274809682
 21
38.3702964541
 31
0.0
  0
TEXT
  8
0
 10
74.5784059325
 20
21.1871010577
 30
0.0
 40
1.0
  1
26
  0
LINE
 62
0
  8
0
 10
41.8274809682
 20
38.3702964541
 30
0.0
 11
38.9255301296
 21
-28.8750933266
 31
0.0
  0
TEXT
  8
0
 10
41.8751107543
 20
4.68292979001
 30
0.0
 40
1.0
  1
4
  0
LINE
 62
1
  8
0
 10
389.607483547
 20
33.0674029694
 30
0.0
 11
390.784759487
 21
-12.8911155446
 31
0.0
  0
LINE
 62
1
  8
0
 10
390.784759487
 20
-12.8911155446
 30
0.0
 11
433.527944588
 21
15.3157973271
 31
0.0
  0
LINE
 62
1
  8
0
 10
433.527944588
 20
15.3157973271
 30
0.0
 11
389.607483547
 21
33.0674029694
 31
0.0
  0
LINE
 62
1
  8
0
 10
204.321514185
 20
-154.344901131
 30
0.0
 11
185.923596564
 21
-234.268108576
 31
0.0
  0
LINE
 62
1
  8
0
 10
185.923596564
 20
-234.268108576
 30
0.0
 11
241.525519046
 21
-155.552879345
 31
0.0
  0
LINE
 62
1
  8
0
 10
241.525519046
 20
-155.552879345
 30
0.0
 11
204.321514185
 21
-154.344901131
 31
0.0
  0
LINE
 62
1
  8
0
 10
204.321514088
 20
-154.344900908
 30
0.0
 11
165.82317751
 21
-98.4260687135
 31
0.0
  0
LINE
 62
0
  8
0
 10
165.82317751
 20
-98.4260687135
 30
0.0
 11
149.071385711
 21
-133.617538462
 31
0.0
  0
TEXT
  8
0
 10
158.801662771
 20
-116.666514121
 30
0.0
 40
1.0
  1
31
  0
LINE
 62
0
  8
0
 10
149.071385711
 20
-133.617538462
 30
0.0
 11
204.321514088
 21
-154.344900908
 31
0.0
  0
TEXT
  8
0
 10
177.223325917
 20
-142.576797504
 30
0.0
 40
1.0
  1
32
  0
LINE
 62
0
  8
0
 10
390.784759534
 20
-12.8911156167
 30
0.0
 11
450.323842061
 21
-41.2536118787
 31
0.0
  0
TEXT
  8
0
 10
421.199396804
 20
-25.7181661469
 30
0.0
 40
1.0
  1
18
  0
LINE
 62
0
  8
0
 10
450.323842061
 20
-41.2536118787
 30
0.0
 11
433.52794454
 21
15.3157973992
 31
0.0
  0
TEXT
  8
0
 10
440.487935861
 20
-13.3958479858
 30
0.0
 40
1.0
  1
32
  0
LINE
 62
1
  8
0
 10
433.52794454
 20
15.3157973992
 30
0.0
 11
390.784759534
 21
-12.8911156167
 31
0.0
  0
LINE
 62
1
  8
0
 10
70.536887153
 20
-78.9159008313
 30
0.0
 11
38.9255301071
 21
-28.8750933302
 31
0.0
  0
LINE
 62
1
  8
0
 10
38.9255301071
 20
-28.8750933302
 30
0.0
 11
58.4975517484
 21
-109.624114596
 31
0.0
  0
LINE
 62
1
  8
0
 10
58.4975517484
 20
-109.624114596
 30
0.0
 11
70.536887153
 21
-78.9159008313
 31
0.0
  0
LINE
 62
0
  8
0
 10
188.768817124
 20
-34.7341727493
 30
0.0
 11
241.461233857
 21
-75.3771581919
 31
0.0
  0
TEXT
  8
0
 10
216.03115365
 20
-53.8679326742
 30
0.0
 40
1.0
  1
25
  0
LINE
 62
1
  8
0
 10
241.461233857
 20
-75.3771581919
 30
0.0
 11
252.843902227
 21
-1.58610327838
 31
0.0
  0
LINE
 62
1
  8
0
 10
252.843902227
 20
-1.58610327838
 30
0.0
 11
188.768817124
 21
-34.7341727493
 31
0.0
  0
LINE
 62
0
  8
0
 10
-70.3328098852
 20
-128.263365218
 30
0.0
 11
-120.177354707
 21
-197.881642262
 31
0.0
  0
TEXT
  8
0
 10
-94.0354539895
 20
-163.94572009
 30
0.0
 40
1.0
  1
20
  0
LINE
 62
1
  8
0
 10
-120.177354707
 20
-197.881642262
 30
0.0
 11
-29.8594849366
 21
-163.702731479
 31
0.0
  0
LINE
 62
1
  8
0
 10
-29.8594849366
 20
-163.702731479
 30
0.0
 11
-70.3328098852
 21
-128.263365218
 31
0.0
  0
LINE
 62
1
  8
0
 10
363.254208258
 20
-5.68046574453
 30
0.0
 11
389.607483666
 21
33.0674027249
 31
0.0
  0
LINE
 62
1
  8
0
 10
389.607483666
 20
33.0674027249
 30
0.0
 11
343.291831324
 21
42.2532652237
 31
0.0
  0
LINE
 62
0
  8
0
 10
343.291831324
 20
42.2532652237
 30
0.0
 11
363.254208258
 21
-5.68046574453
 31
0.0
  0
TEXT
  8
0
 10
354.657737828
 20
18.8630763896
 30
0.0
 40
1.0
  1
7
  0
LINE
 62
0
  8
0
 10
161.4479172
 20
-11.6587688413
 30
0.0
 11
151.304716358
 21
28.0518918886
 31
0.0
  0
TEXT
  8
0
 10
154.922978019
 20
7.82533861603
 30
0.0
 40
1.0
  1
21
  0
LINE
 62
0
  8
0
 10
151.304716358
 20
28.0518918886
 30
0.0
 11
108.614241424
 21
6.71481060931
 31
0.0
  0
TEXT
  8
0
 10
130.6300942
 20
16.0416079399
 30
0.0
 40
1.0
  1
27
  0
LINE
 62
1
  8
0
 10
108.614241424
 20
6.71481060931
 30
0.0
 11
161.4479172
 21
-11.6587688413
 31
0.0
  0
LINE
 62
0
  8
0
 10
32.0263045884
 20
-147.473451302
 30
0.0
 11
82.8640214293
 21
-157.727284174
 31
0.0
  0
TEXT
  8
0
 10
57.7417365969
 20
-151.129978637
 30
0.0
 40
1.0
  1
15
  0
LINE
 62
0
  8
0
 10
82.8640214293
 20
-157.727284174
 30
0.0
 11
58.4975517473
 21
-109.624114558
 31
0.0
  0
TEXT
  8
0
 10
69.3426678494
 20
-134.353518103
 30
0.0
 40
1.0
  1
29
  0
LINE
 62
1
  8
0
 10
58.4975517473
 20
-109.624114558
 30
0.0
 11
32.0263045884
 21
-147.473451302
 31
0.0
  0
LINE
 62
1
  8
0
 10
-185.510131766
 20
-169.308761999
 30
0.0
 11
-194.318057813
 21
-258.19355201
 31
0.0
  0
LINE
 62
1
  8
0
 10
-194.318057813
 20
-258.19355201
 30
0.0
 11
-146.125137906
 21
-254.741262546
 31
0.0
  0
LINE
 62
1
  8
0
 10
-146.125137906
 20
-254.741262546
 30
0.0
 11
-185.510131766
 21
-169.308761999
 31
0.0
  0
LINE
 62
1
  8
0
 10
161.447917123
 20
-11.658768723
 30
0.0
 11
188.768817108
 21
-34.7341727386
 31
0.0
  0
LINE
 62
1
  8
0
 10
188.768817108
 20
-34.7341727386
 30
0.0
 11
205.503505363
 21
29.0772951288
 31
0.0
  0
LINE
 62
1
  8
0
 10
205.503505363
 20
29.0772951288
 30
0.0
 11
161.447917123
 21
-11.658768723
 31
0.0
  0
LINE
 62
1
  8
0
 10
165.823177394
 20
-98.4260690677
 30
0.0
 11
70.5368867863
 21
-78.9159006875
 31
0.0
  0
LINE
 62
1
  8
0
 10
70.5368867863
 20
-78.9159006875
 30
0.0
 11
58.497552115
 21
-109.62411474
 31
0.0
  0
LINE
 62
1
  8
0
 10
58.497552115
 20
-109.62411474
 30
0.0
 11
165.823177394
 21
-98.4260690677
 31
0.0
  0
LINE
 62
0
  8
0
 10
58.4975521134
 20
-109.624114725
 30
0.0
 11
143.193024019
 21
-130.158359098
 31
0.0
  0
TEXT
  8
0
 10
101.19872076
 20
-118.43346967
 30
0.0
 40
1.0
  1
28
  0
LINE
 62
0
  8
0
 10
143.193024019
 20
-130.158359098
 30
0.0
 11
165.823177396
 21
-98.4260690825
 31
0.0
  0
TEXT
  8
0
 10
153.28684976
 20
-113.421268557
 30
0.0
 40
1.0
  1
31
  0
LINE
 62
1
  8
0
 10
165.823177396
 20
-98.4260690825
 30
0.0
 11
58.4975521134
 21
-109.624114725
 31
0.0
  0
LINE
 62
1
  8
0
 10
228.079687143
 20
-105.228261431
 30
0.0
 11
165.823177473
 21
-98.4260687389
 31
0.0
  0
LINE
 62
1
  8
0
 10
165.823177473
 20
-98.4260687389
 30
0.0
 11
204.321514125
 21
-154.344900883
 31
0.0
  0
LINE
 62
1
  8
0
 10
204.321514125
 20
-154.344900883
 30
0.0
 11
228.079687143
 21
-105.228261431
 31
0.0
  0
LINE
 62
1
  8
0
 10
390.784759719
 20
-12.8911155387
 30
0.0
 11
389.607483315
 21
33.0674029634
 31
0.0
  0
LINE
 62
1
  8
0
 10
389.607483315
 20
33.0674029634
 30
0.0
 11
363.254208609
 21
-5.68046598311
 31
0.0
  0
LINE
 62
0
  8
0
 10
363.254208609
 20
-5.68046598311
 30
0.0
 11
390.784759719
 21
-12.8911155387
 31
0.0
  0
TEXT
  8
0
 10
377.399536427
 20
-7.83473587659
 30
0.0
 40
1.0
  1
6
  0
LINE
 62
0
  8
0
 10
290.231799023
 20
-93.674414306
 30
0.0
 11
306.904746926
 21
-62.7148682819
 31
0.0
  0
TEXT
  8
0
 10
297.247609474
 20
-77.4834114292
 30
0.0
 40
1.0
  1
14
  0
LINE
 62
1
  8
0
 10
306.904746926
 20
-62.7148682819
 30
0.0
 11
241.461234011
 21
-75.3771582634
 31
0.0
  0
LINE
 62
0
  8
0
 10
241.461234011
 20
-75.3771582634
 30
0.0
 11
290.231799023
 21
-93.674414306
 31
0.0
  0
TEXT
  8
0
 10
266.373411069
 20
-83.1213710573
 30
0.0
 40
1.0
  1
30
  0
ENDSEC
  0
EOF
