  0
SECTION
  2
HEADER
  9
$ACADVER
  1
AC1009
  9
$EXTMIN
 10
0.0
 20
0.0
 30
0.0
  9
$EXTMAX
 10
100.0
 20
100.0
 30
0.0
  9
$INSBASE
 10
0.0
 20
0.0
 30
0.0
  0
ENDSEC
  0
SECTION
  2
TABLES
  0
TABLE
  2
LTYPE
 70
19
  0
LTYPE
  2
PHANTOM
 70
0
  3
Phantom ______  __  __  ______  __  __  ______
 72
65
 73
6
 40
2.5
 49
1.25
 49
-0.25
 49
0.25
 49
-0.25
 49
0.25
 49
-0.25
  0
LTYPE
  2
DOT2
 70
0
  3
Dot (.5) . . . . . . . . . . . . . . . . . . . 
 72
65
 73
2
 40
0.1
 49
0.0
 49
-0.1
  0
LTYPE
  2
DIVIDE
 70
0
  3
Divide __ . . __ . . __ . . __ . . __ . . __
 72
65
 73
6
 40
1.6
 49
1.0
 49
-0.2
 49
0.0
 49
-0.2
 49
0.0
 49
-0.2
  0
LTYPE
  2
DIVIDEX2
 70
0
  3
Divide (2x) ____  . .  ____  . .  ____  . .  ____
 72
65
 73
6
 40
2.6
 49
2.0
 49
-0.2
 49
0.0
 49
-0.2
 49
0.0
 49
-0.2
  0
LTYPE
  2
CENTER
 70
0
  3
Center ____ _ ____ _ ____ _ ____ _ ____ _ ____
 72
65
 73
4
 40
2.0
 49
1.25
 49
-0.25
 49
0.25
 49
-0.25
  0
LTYPE
  2
DASHDOT
 70
0
  3
Dash dot __ . __ . __ . __ . __ . __ . __ . __
 72
65
 73
4
 40
1.4
 49
1.0
 49
-0.2
 49
0.0
 49
-0.2
  0
LTYPE
  2
CENTERX2
 70
0
  3
Center (2x) ________  __  ________  __  ________
 72
65
 73
4
 40
3.5
 49
2.5
 49
-0.25
 49
0.5
 49
-0.25
  0
LTYPE
  2
PHANTOMX2
 70
0
  3
Phantom (2x)____________    ____    ____    ____________
 72
65
 73
6
 40
4.25
 49
2.5
 49
-0.25
 49
0.5
 49
-0.25
 49
0.5
 49
-0.25
  0
LTYPE
  2
CONTINUOUS
 70
0
  3
Solid
 72
65
 73
0
 40
0.0
  0
LTYPE
  2
PHANTOM2
 70
0
  3
Phantom (.5x) ___ _ _ ___ _ _ ___ _ _ ___ _ _ ___
 72
65
 73
6
 40
1.25
 49
0.625
 49
-0.125
 49
0.125
 49
-0.125
 49
0.125
 49
-0.125
  0
LTYPE
  2
DASHED
 70
0
  3
Dashed __ __ __ __ __ __ __ __ __ __ __ __ __ _
 72
65
 73
2
 40
0.6
 49
0.5
 49
-0.1
  0
LTYPE
  2
DASHED2
 70
0
  3
Dashed (.5x) _ _ _ _ _ _ _ _ _ _ _ _ _ _
 72
65
 73
2
 40
0.3
 49
0.25
 49
-0.05
  0
LTYPE
  2
DASHDOT2
 70
0
  3
Dash dot (.5x) _ . _ . _ . _ . _ . _ . _ . _
 72
65
 73
4
 40
0.7
 49
0.5
 49
-0.1
 49
0.0
 49
-0.1
  0
LTYPE
  2
DOTX2
 70
0
  3
Dot (2x) .    .    .    .    .    .    .    . 
 72
65
 73
2
 40
0.4
 49
0.0
 49
-0.4
  0
LTYPE
  2
DIVIDE2
 70
0
  3
Divide(.5x) _ . _ . _ . _ . _ . _ . _ . _
 72
65
 73
6
 40
0.8
 49
0.5
 49
-0.1
 49
0.0
 49
-0.1
 49
0.0
 49
-0.1
  0
LTYPE
  2
CENTER2
 70
0
  3
Center (.5x) ____ _ ____ _ ____ _ ____ _ ____
 72
65
 73
4
 40
1.0
 49
0.625
 49
-0.125
 49
0.125
 49
-0.125
  0
LTYPE
  2
DASHDOTX2
 70
0
  3
Dash dot (2x) ____  .  ____  .  ____  .  ____
 72
65
 73
4
 40
2.4
 49
2.0
 49
-0.2
 49
0.0
 49
-0.2
  0
LTYPE
  2
DOT
 70
0
  3
Dot .  .  .  .  .  .  .  .  .  .  .  .  .  .  .  .
 72
65
 73
2
 40
0.2
 49
0.0
 49
-0.2
  0
LTYPE
  2
DASHEDX2
 70
0
  3
Dashed (2x) ____  ____  ____  ____  ____  ____
 72
65
 73
2
 40
1.2
 49
1.0
 49
-0.2
  0
ENDTAB
  0
TABLE
  2
LAYER
 70
5
  0
LAYER
  2
VIEWPORTS
 70
0
 62
7
  6
CONTINUOUS
  0
LAYER
  2
TABLEGRID
 70
0
 62
1
  6
CONTINUOUS
  0
LAYER
  2
TABLECONTENT
 70
0
 62
1
  6
CONTINUOUS
  0
LAYER
  2
DIMENSIONS
 70
0
 62
1
  6
CONTINUOUS
  0
LAYER
  2
TABLEBACKGROUND
 70
0
 62
1
  6
CONTINUOUS
  0
ENDTAB
  0
TABLE
  2
STYLE
 70
12
  0
STYLE
  2
TIMES
 70
0
 40
0.0
 41
1.0
 42
1.0
 50
0.0
 71
0
  3
times.ttf
  4

  0
STYLE
  2
ARIAL
 70
0
 40
0.0
 41
1.0
 42
1.0
 50
0.0
 71
0
  3
arial.ttf
  4

  0
STYLE
  2
TIMES_BOLD
 70
0
 40
0.0
 41
1.0
 42
1.0
 50
0.0
 71
0
  3
timesbd.ttf
  4

  0
STYLE
  2
ARIAL_BLACK
 70
0
 40
0.0
 41
1.0
 42
1.0
 50
0.0
 71
0
  3
ariblk.ttf
  4

  0
STYLE
  2
TIMES_ITALIC
 70
0
 40
0.0
 41
1.0
 42
1.0
 50
0.0
 71
0
  3
timesi.ttf
  4

  0
STYLE
  2
ISOCPEUR
 70
0
 40
0.0
 41
1.0
 42
1.0
 50
0.0
 71
0
  3
isocpeur.ttf
  4

  0
STYLE
  2
ARIAL_BOLD
 70
0
 40
0.0
 41
1.0
 42
1.0
 50
0.0
 71
0
  3
arialbd.ttf
  4

  0
STYLE
  2
ARIAL_ITALIC
 70
0
 40
0.0
 41
1.0
 42
1.0
 50
0.0
 71
0
  3
ariali.ttf
  4

  0
STYLE
  2
ARIAL_BOLD_ITALIC
 70
0
 40
0.0
 41
1.0
 42
1.0
 50
0.0
 71
0
  3
arialbi.ttf
  4

  0
STYLE
  2
TIMES_BOLD_ITALIC
 70
0
 40
0.0
 41
1.0
 42
1.0
 50
0.0
 71
0
  3
timesbi.ttf
  4

  0
STYLE
  2
ISOCPEUR_ITALIC
 70
0
 40
0.0
 41
1.0
 42
1.0
 50
0.0
 71
0
  3
isocpeui.ttf
  4

  0
STYLE
  2
STANDARD
 70
0
 40
0.0
 41
1.0
 42
1.0
 50
0.0
 71
0
  3
arial.ttf
  4

  0
ENDTAB
  0
TABLE
  2
VIEW
 70
0
  0
ENDTAB
  0
TABLE
  2
APPID
 70
1
  0
APPID
  2
DXFWRITE
 70
0
  0
ENDTAB
  0
TABLE
  2
VPORT
 70
0
  0
ENDTAB
  0
TABLE
  2
UCS
 70
0
  0
ENDTAB
  0
ENDSEC
  0
SECTION
  2
BLOCKS
  0
ENDSEC
  0
SECTION
  2
ENTITIES
  0
VIEWPORT
  8
VIEWPORTS
 67
1
 10
0.0
 20
0.0
 30
0.0
 40
1.0
 41
1.0
 68
1
 69
1
1001
ACAD
1000
MVIEW
1002
{
1070
16
1010
0.0
1020
0.0
1030
0.0
1010
0.0
1020
0.0
1030
0.0
1040
0.0
1040
1.0
1040
0.0
1040
0.0
1040
50.0
1040
0.0
1040
0.0
1070
0
1070
100
1070
1
1070
3
1070
0
1070
0
1070
0
1070
0
1040
0.0
1040
0.0
1040
0.0
1040
0.1
1040
0.1
1040
0.1
1040
0.1
1070
0
1002
{
1002
}
1002
}
  0
LINE
 62
0
  8
0
 10
-28.2925223915
 20
2.12656607994
 30
0.0
 11
-58.6583428147
 21
-48.7276421045
 31
0.0
  0
LINE
 62
0
  8
0
 10
-27.8692253721
 20
132.936971578
 30
0.0
 11
-76.2365457553
 21
131.048698234
 31
0.0
  0
LINE
 62
0
  8
0
 10
-15.3740920042
 20
-80.2970005173
 30
0.0
 11
47.1795326839
 21
-39.9661305237
 31
0.0
  0
LINE
 62
0
  8
0
 10
-15.3740920638
 20
-80.2970004248
 30
0.0
 11
-9.44478959988
 21
-99.2947795161
 31
0.0
  0
LINE
 62
0
  8
0
 10
-9.4447901023
 20
-99.2947790366
 30
0.0
 11
78.5525524824
 21
-59.9993747926
 31
0.0
  0
LINE
 62
0
  8
0
 10
-133.062256634
 20
134.867728762
 30
0.0
 11
-168.069063982
 21
167.306457575
 31
0.0
  0
LINE
 62
0
  8
0
 10
-43.8698919355
 20
118.566599092
 30
0.0
 11
-5.01505740426
 21
57.2655376692
 31
0.0
  0
LINE
 62
0
  8
0
 10
47.1795326839
 20
-39.9661305237
 30
0.0
 11
-17.7110100735
 21
-51.7368995315
 31
0.0
  0
LINE
 62
0
  8
0
 10
131.1441497
 20
165.555236882
 30
0.0
 11
47.962766466
 21
198.096640353
 31
0.0
  0
LINE
 62
0
  8
0
 10
-71.3465750983
 20
87.5221155981
 30
0.0
 11
-125.03479951
 21
29.396515003
 31
0.0
  0
LINE
 62
0
  8
0
 10
-76.2365457553
 20
131.048698234
 30
0.0
 11
-49.3018880963
 21
63.3085387062
 31
0.0
  0
LINE
 62
0
  8
0
 10
34.7241432446
 20
-34.2792140847
 30
0.0
 11
65.7796077979
 21
6.44139406074
 31
0.0
  0
LINE
 62
0
  8
0
 10
-71.346575113
 20
87.5221155993
 30
0.0
 11
-77.5183462405
 21
15.474255231
 31
0.0
  0
LINE
 62
0
  8
0
 10
153.817032931
 20
-2.31458690753
 30
0.0
 11
112.87215311
 21
61.9728613117
 31
0.0
  0
LINE
 62
0
  8
0
 10
-115.981387865
 20
-47.9002863646
 30
0.0
 11
-27.5589786752
 21
-96.032336947
 31
0.0
  0
LINE
 62
0
  8
0
 10
-5.24414049198
 20
54.8483430921
 30
0.0
 11
-27.8692257364
 21
132.93697169
 31
0.0
  0
LINE
 62
0
  8
0
 10
131.144149709
 20
165.555236904
 30
0.0
 11
140.867273091
 21
212.883206473
 31
0.0
  0
LINE
 62
0
  8
0
 10
-103.097898553
 20
128.905661407
 30
0.0
 11
-166.655057017
 21
111.386994887
 31
0.0
  0
LINE
 62
0
  8
0
 10
47.962766485
 20
198.096640399
 30
0.0
 11
94.2127124421
 21
252.371161727
 31
0.0
  0
LINE
 62
0
  8
0
 10
-115.1916913
 20
-58.2458651706
 30
0.0
 11
-58.6583430575
 21
-48.7276420433
 31
0.0
  0
LINE
 62
0
  8
0
 10
-116.545969659
 20
91.4588229251
 30
0.0
 11
-70.925366283
 21
62.9491883972
 31
0.0
  0
LINE
 62
0
  8
0
 10
101.580001375
 20
-40.4684350399
 30
0.0
 11
147.799607526
 21
-11.4745897725
 31
0.0
  0
LINE
 62
0
  8
0
 10
-163.203561123
 20
-42.7314717991
 30
0.0
 11
-125.034799298
 21
29.3965150466
 31
0.0
  0
LINE
 62
0
  8
0
 10
-77.5183462254
 20
15.4742552382
 30
0.0
 11
-58.6583429635
 21
-48.7276420157
 31
0.0
  0
LINE
 62
0
  8
0
 10
-5.24414037028
 20
54.8483432241
 30
0.0
 11
-28.2925219441
 21
2.12656729318
 31
0.0
  0
LINE
 62
0
  8
0
 10
-58.6583428597
 20
-48.7276427174
 30
0.0
 11
-15.3740930293
 21
-80.2970006012
 31
0.0
  0
LINE
 62
0
  8
0
 10
-115.981387751
 20
-47.9002861544
 30
0.0
 11
-122.957430551
 21
-82.3649856114
 31
0.0
  0
LINE
 62
0
  8
0
 10
-166.655056853
 20
111.386994938
 30
0.0
 11
-168.069064149
 21
167.306457571
 31
0.0
  0
LINE
 62
0
  8
0
 10
-58.658342903
 20
-48.7276427767
 30
0.0
 11
-27.5589783882
 21
-96.0323367583
 31
0.0
  0
LINE
 62
0
  8
0
 10
98.6660834064
 20
27.3588960058
 30
0.0
 11
153.817032931
 21
-2.31458690753
 31
0.0
  0
LINE
 62
0
  8
0
 10
101.580001415
 20
-40.4684351036
 30
0.0
 11
132.459413991
 21
-61.2544657007
 31
0.0
  0
LINE
 62
0
  8
0
 10
4.05920984856
 20
68.9869887758
 30
0.0
 11
11.5982462358
 21
122.252377573
 31
0.0
  0
LINE
 62
0
  8
0
 10
140.867273091
 20
212.883206473
 30
0.0
 11
47.9627664574
 21
198.096640331
 31
0.0
  0
LINE
 62
0
  8
0
 10
91.7767539875
 20
138.574580093
 30
0.0
 11
47.9627664517
 21
198.096640343
 31
0.0
  0
LINE
 62
0
  8
0
 10
-49.3018883418
 20
63.3085382251
 30
0.0
 11
-70.9253662844
 21
62.9491884796
 31
0.0
  0
LINE
 62
0
  8
0
 10
101.58000133
 20
-40.4684350418
 30
0.0
 11
98.6660830803
 21
27.3588956864
 31
0.0
  0
LINE
 62
0
  8
0
 10
-58.658342616
 20
-48.7276425881
 30
0.0
 11
-115.981387865
 21
-47.9002863646
 31
0.0
  0
LINE
 62
0
  8
0
 10
65.7796077844
 20
6.44139378246
 30
0.0
 11
-5.01505653203
 21
57.2655382184
 31
0.0
  0
LINE
 62
0
  8
0
 10
-102.158360786
 20
97.7271171044
 30
0.0
 11
-133.062256746
 21
134.867728922
 31
0.0
  0
LINE
 62
0
  8
0
 10
-49.3018877647
 20
63.3085384232
 30
0.0
 11
-28.2925218552
 21
2.12656725432
 31
0.0
  0
LINE
 62
0
  8
0
 10
-122.957430551
 20
-82.3649856114
 30
0.0
 11
-27.5589787896
 21
-96.0323371571
 31
0.0
  0
LINE
 62
0
  8
0
 10
-67.6582798498
 20
125.825243279
 30
0.0
 11
-130.153320016
 21
126.646103396
 31
0.0
  0
LINE
 62
0
  8
0
 10
-70.9253662844
 20
62.9491884796
 30
0.0
 11
-28.2925212781
 21
2.12656745248
 31
0.0
  0
LINE
 62
0
  8
0
 10
-202.518841513
 20
95.7100049288
 30
0.0
 11
-178.628107479
 21
77.6890439646
 31
0.0
  0
LINE
 62
0
  8
0
 10
4.05920984241
 20
68.9869887857
 30
0.0
 11
-77.5183462312
 21
15.4742552168
 31
0.0
  0
LINE
 62
0
  8
0
 10
91.7767539879
 20
138.574580083
 30
0.0
 11
17.6706154888
 21
81.209225842
 31
0.0
  0
LINE
 62
0
  8
0
 10
8.59885758121
 20
253.575735246
 30
0.0
 11
-25.4802651482
 21
219.201665786
 31
0.0
  0
LINE
 62
0
  8
0
 10
-67.6582798117
 20
125.825243237
 30
0.0
 11
-113.011694313
 21
84.5037025494
 31
0.0
  0
LINE
 62
0
  8
0
 10
78.5525524824
 20
-59.9993747926
 30
0.0
 11
47.1795332459
 21
-39.9661310956
 31
0.0
  0
LINE
 62
0
  8
0
 10
-166.655056908
 20
111.386994773
 30
0.0
 11
-102.158360786
 21
97.7271171044
 31
0.0
  0
LINE
 62
0
  8
0
 10
16.0733460863
 20
138.625302786
 30
0.0
 11
-27.8692257301
 21
132.936971692
 31
0.0
  0
LINE
 62
0
  8
0
 10
-58.6583428147
 20
-48.7276421045
 30
0.0
 11
-17.7110090933
 21
-51.7369000604
 31
0.0
  0
LINE
 62
0
  8
0
 10
-125.03479951
 20
29.396515003
 30
0.0
 11
-77.5183462552
 21
15.4742552322
 31
0.0
  0
LINE
 62
0
  8
0
 10
47.9627664529
 20
198.096640376
 30
0.0
 11
8.59885758121
 21
253.575735246
 31
0.0
  0
LINE
 62
0
  8
0
 10
4.0592098517
 20
68.9869887715
 30
0.0
 11
-71.346575113
 21
87.5221155993
 31
0.0
  0
LINE
 62
0
  8
0
 10
-166.655056936
 20
111.386995047
 30
0.0
 11
-178.628107437
 21
77.6890439495
 31
0.0
  0
LINE
 62
0
  8
0
 10
-25.4802651398
 20
219.201665815
 30
0.0
 11
13.5441781031
 21
140.254401957
 31
0.0
  0
LINE
 62
0
  8
0
 10
-198.106026791
 20
14.057654454
 30
0.0
 11
-198.051770229
 21
-38.0322164086
 31
0.0
  0
LINE
 62
0
  8
0
 10
37.0281915907
 20
130.254338893
 30
0.0
 11
-5.24414025364
 21
54.8483433056
 31
0.0
  0
LINE
 62
0
  8
0
 10
-28.2925226027
 20
2.12656603845
 30
0.0
 11
-17.7110088821
 21
-51.7369000189
 31
0.0
  0
LINE
 62
0
  8
0
 10
-17.7110088821
 20
-51.7369000189
 30
0.0
 11
6.3554772484
 21
-36.5471351514
 31
0.0
  0
LINE
 62
0
  8
0
 10
-73.9457295061
 20
125.914530251
 30
0.0
 11
-71.3465751162
 21
87.5221155864
 31
0.0
  0
LINE
 62
0
  8
0
 10
91.7767539874
 20
138.574580084
 30
0.0
 11
13.5441780962
 21
140.25440197
 31
0.0
  0
LINE
 62
0
  8
0
 10
147.799607526
 20
-11.4745897725
 30
0.0
 11
98.6660830356
 21
27.3588956845
 31
0.0
  0
LINE
 62
0
  8
0
 10
-113.01169447
 20
84.5037025441
 30
0.0
 11
-178.628107436
 21
77.6890439366
 31
0.0
  0
LINE
 62
0
  8
0
 10
-5.24414049827
 20
54.8483430903
 30
0.0
 11
16.0733460863
 21
138.625302786
 31
0.0
  0
LINE
 62
0
  8
0
 10
98.6660834078
 20
27.3588960052
 30
0.0
 11
112.872153108
 21
61.9728613122
 31
0.0
  0
LINE
 62
0
  8
0
 10
-130.153320016
 20
126.646103396
 30
0.0
 11
-113.011694275
 21
84.5037025076
 31
0.0
  0
LINE
 62
0
  8
0
 10
-178.628107441
 20
77.6890439304
 30
0.0
 11
-198.106026778
 21
14.0576546227
 31
0.0
  0
LINE
 62
0
  8
0
 10
-28.2925218609
 20
2.12656670304
 30
0.0
 11
6.3554765066
 21
-36.547135816
 31
0.0
  0
LINE
 62
0
  8
0
 10
-28.2925222368
 20
2.12656601247
 30
0.0
 11
4.05920984241
 21
68.9869887857
 31
0.0
  0
LINE
 62
0
  8
0
 10
-71.3465751742
 20
87.5221156681
 30
0.0
 11
-113.01169431
 21
84.5037025092
 31
0.0
  0
LINE
 62
0
  8
0
 10
-71.3465751712
 20
87.5221156279
 30
0.0
 11
-67.6582798117
 21
125.825243237
 31
0.0
  0
LINE
 62
0
  8
0
 10
4.05920985488
 20
68.9869887845
 30
0.0
 11
-73.9457295061
 21
125.914530251
 31
0.0
  0
LINE
 62
0
  8
0
 10
40.8505437729
 20
57.777391373
 30
0.0
 11
37.0281915907
 21
130.254338893
 31
0.0
  0
LINE
 62
0
  8
0
 10
-29.2232319846
 20
175.050822922
 30
0.0
 11
13.5441781124
 21
140.254401961
 31
0.0
  0
LINE
 62
0
  8
0
 10
-5.24414045918
 20
54.8483432629
 30
0.0
 11
-49.3018877647
 21
63.3085384232
 31
0.0
  0
LINE
 62
0
  8
0
 10
17.6706157559
 20
81.2092262537
 30
0.0
 11
-5.01505711492
 21
57.2655373979
 31
0.0
  0
LINE
 62
0
  8
0
 10
-113.01169431
 20
84.5037025092
 30
0.0
 11
-125.034799434
 21
29.3965149329
 31
0.0
  0
LINE
 62
0
  8
0
 10
132.459413991
 20
-61.2544657007
 30
0.0
 11
147.799607486
 21
-11.4745897087
 31
0.0
  0
LINE
 62
0
  8
0
 10
112.872153111
 20
61.9728613266
 30
0.0
 11
91.7767539879
 21
138.574580083
 31
0.0
  0
LINE
 62
0
  8
0
 10
18.4623369899
 20
8.7222391902
 30
0.0
 11
-5.24414037028
 21
54.8483432241
 31
0.0
  0
LINE
 62
0
  8
0
 10
-27.5589783882
 20
-96.0323367583
 30
0.0
 11
-15.374092986
 21
-80.2970005418
 31
0.0
  0
LINE
 62
0
  8
0
 10
-125.03479951
 20
29.3965150027
 30
0.0
 11
-125.195042891
 21
-52.2078671574
 31
0.0
  0
LINE
 62
0
  8
0
 10
-168.069064149
 20
167.306457571
 30
0.0
 11
-202.518841554
 21
95.7100050233
 31
0.0
  0
LINE
 62
0
  8
0
 10
94.2127124421
 20
252.371161727
 30
0.0
 11
8.59885754915
 21
253.575735223
 31
0.0
  0
LINE
 62
0
  8
0
 10
65.7796084223
 20
6.44139449562
 30
0.0
 11
101.58000133
 21
-40.4684350418
 31
0.0
  0
LINE
 62
0
  8
0
 10
-9.44478959988
 20
-99.2947795161
 30
0.0
 11
47.1795327435
 21
-39.9661306161
 31
0.0
  0
LINE
 62
0
  8
0
 10
18.4623368719
 20
8.72223912957
 30
0.0
 11
40.8505437716
 21
57.777391394
 31
0.0
  0
LINE
 62
0
  8
0
 10
34.7241433133
 20
-34.2792141371
 30
0.0
 11
100.284897782
 21
-41.4291103545
 31
0.0
  0
LINE
 62
0
  8
0
 10
-113.011694469
 20
84.5037025311
 30
0.0
 11
-166.655056936
 21
111.386995047
 31
0.0
  0
LINE
 62
0
  8
0
 10
112.872153108
 20
61.9728613122
 30
0.0
 11
17.6706154917
 21
81.2092258564
 31
0.0
  0
LINE
 62
0
  8
0
 10
-198.106026778
 20
14.0576546227
 30
0.0
 11
-125.034799268
 21
29.3965149042
 31
0.0
  0
LINE
 62
0
  8
0
 10
47.9627664446
 20
198.096640347
 30
0.0
 11
-25.4802651398
 21
219.201665815
 31
0.0
  0
LINE
 62
0
  8
0
 10
13.5441780962
 20
140.25440197
 30
0.0
 11
17.6706154894
 21
81.2092258412
 31
0.0
  0
LINE
 62
0
  8
0
 10
98.6660831395
 20
27.3588955934
 30
0.0
 11
-5.01505711077
 21
57.2655374122
 31
0.0
  0
LINE
 62
0
  8
0
 10
65.7796083632
 20
6.4413945886
 30
0.0
 11
98.6660831395
 21
27.3588955934
 31
0.0
  0
LINE
 62
0
  8
0
 10
-15.3740930293
 20
-80.2970006012
 30
0.0
 11
-17.7110090483
 21
-51.7368994476
 31
0.0
  0
LINE
 62
0
  8
0
 10
6.3554765066
 20
-36.547135816
 30
0.0
 11
18.4623369066
 21
8.72223978035
 31
0.0
  0
LINE
 62
0
  8
0
 10
-25.4802651491
 20
219.20166581
 30
0.0
 11
-29.2232319846
 21
175.050822922
 31
0.0
  0
LINE
 62
0
  8
0
 10
-28.2925219441
 20
2.12656729318
 30
0.0
 11
18.4623369899
 21
8.7222391902
 31
0.0
  0
LINE
 62
0
  8
0
 10
-198.051770229
 20
-38.0322164086
 30
0.0
 11
-163.20356108
 21
-42.7314717728
 31
0.0
  0
LINE
 62
0
  8
0
 10
-202.51884146
 20
95.710004999
 30
0.0
 11
-211.927051412
 21
20.07373878
 31
0.0
  0
LINE
 62
0
  8
0
 10
-178.628107436
 20
77.6890439366
 30
0.0
 11
-125.034799274
 21
29.3965148981
 31
0.0
  0
LINE
 62
0
  8
0
 10
7.15410011417
 20
139.456656848
 30
0.0
 11
-5.01505740076
 21
57.2655376687
 31
0.0
  0
LINE
 62
0
  8
0
 10
100.284897782
 20
-41.4291103545
 30
0.0
 11
65.7796077292
 21
6.44139411312
 31
0.0
  0
LINE
 62
0
  8
0
 10
-5.01505653203
 20
57.2655382184
 30
0.0
 11
18.4623367272
 21
8.72224025031
 31
0.0
  0
LINE
 62
0
  8
0
 10
40.8505437716
 20
57.777391394
 30
0.0
 11
-5.24414025231
 21
54.8483432847
 31
0.0
  0
LINE
 62
0
  8
0
 10
-211.927051412
 20
20.07373878
 30
0.0
 11
-178.628107532
 21
77.6890438944
 31
0.0
  0
LINE
 62
0
  8
0
 10
-125.195042891
 20
-52.2078671574
 30
0.0
 11
-77.5183462551
 21
15.4742552325
 31
0.0
  0
LINE
 62
0
  8
0
 10
91.7767539732
 20
138.574580082
 30
0.0
 11
131.1441497
 21
165.555236882
 31
0.0
  0
LINE
 62
0
  8
0
 10
17.6706160417
 20
81.2092259829
 30
0.0
 11
7.15410011417
 21
139.456656848
 31
0.0
  0
LINE
 62
0
  8
0
 10
-77.5183461315
 20
15.4742552658
 30
0.0
 11
-115.1916913
 21
-58.2458651706
 31
0.0
  0
LINE
 62
0
  8
0
 10
-49.3018883432
 20
63.3085383075
 30
0.0
 11
-116.545969659
 21
91.4588229251
 31
0.0
  0
LINE
 62
0
  8
0
 10
-166.655056894
 20
111.386995032
 30
0.0
 11
-202.518841513
 21
95.7100049288
 31
0.0
  0
LINE
 62
0
  8
0
 10
65.7796077979
 20
6.44139406074
 30
0.0
 11
18.4623367138
 21
8.72223997203
 31
0.0
  0
LINE
 62
0
  8
0
 10
-198.106026748
 20
14.0576544803
 30
0.0
 11
-163.203561123
 21
-42.7314717991
 31
0.0
  0
LINE
 62
0
  8
0
 10
11.5982462358
 20
122.252377573
 30
0.0
 11
-73.9457294998
 21
125.914530259
 31
0.0
  0
LINE
 62
0
  8
0
 10
-28.2925222426
 20
2.12656599106
 30
0.0
 11
-77.5183462254
 21
15.4742552382
 31
0.0
  0
LINE
 62
0
  8
0
 10
47.9627664705
 20
198.096640411
 30
0.0
 11
141.135670822
 21
211.085088578
 31
0.0
  0
LINE
 62
0
  8
0
 10
7.15410011767
 20
139.456656847
 30
0.0
 11
-43.8698919355
 21
118.566599092
 31
0.0
  0
LINE
 62
0
  8
0
 10
-166.65505702
 20
111.386994933
 30
0.0
 11
-133.062256634
 21
134.867728762
 31
0.0
  0
LINE
 62
0
  8
0
 10
34.7241434617
 20
-34.2792140026
 30
0.0
 11
18.4623364968
 21
8.72223988995
 31
0.0
  0
LINE
 62
0
  8
0
 10
141.135670822
 20
211.085088578
 30
0.0
 11
94.2127124566
 21
252.371161714
 31
0.0
  0
LINE
 62
0
  8
0
 10
98.6660831436
 20
27.3588956078
 30
0.0
 11
17.6706157559
 21
81.2092262537
 31
0.0
  0
LINE
 62
0
  8
0
 10
6.35547691644
 20
-36.5471359256
 30
0.0
 11
34.7241434617
 21
-34.2792140026
 31
0.0
  0
LINE
 62
0
  8
0
 10
47.9627664517
 20
198.096640343
 30
0.0
 11
13.544178096
 21
140.254401961
 31
0.0
  0
LINE
 62
0
  8
0
 10
-113.011694389
 20
84.5037026913
 30
0.0
 11
-103.097898553
 21
128.905661407
 31
0.0
  0
LINE
 62
0
  8
0
 10
-27.8692257364
 20
132.93697169
 30
0.0
 11
-49.3018877319
 21
63.308538594
 31
0.0
  0
LINE
 62
1
  8
0
 10
-125.034799268
 20
29.3965149042
 30
0.0
 11
-178.628107441
 21
77.6890439304
 31
0.0
  0
LINE
 62
1
  8
0
 10
-113.011694275
 20
84.5037025076
 30
0.0
 11
-67.6582798498
 21
125.825243279
 31
0.0
  0
LINE
 62
1
  8
0
 10
-77.5183462551
 20
15.4742552325
 30
0.0
 11
-125.03479951
 21
29.3965150027
 31
0.0
  0
LINE
 62
1
  8
0
 10
18.4623367272
 20
8.72224025031
 30
0.0
 11
65.7796077844
 21
6.44139378246
 31
0.0
  0
LINE
 62
1
  8
0
 10
-73.9457294998
 20
125.914530259
 30
0.0
 11
4.05920984856
 21
68.9869887758
 31
0.0
  0
LINE
 62
1
  8
0
 10
-77.5183462405
 20
15.474255231
 30
0.0
 11
4.0592098517
 21
68.9869887715
 31
0.0
  0
LINE
 62
1
  8
0
 10
94.2127124566
 20
252.371161714
 30
0.0
 11
47.9627664705
 21
198.096640411
 31
0.0
  0
LINE
 62
1
  8
0
 10
13.544178096
 20
140.254401961
 30
0.0
 11
91.7767539875
 21
138.574580093
 31
0.0
  0
LINE
 62
1
  8
0
 10
-5.01505711492
 20
57.2655373979
 30
0.0
 11
98.6660831436
 21
27.3588956078
 31
0.0
  0
LINE
 62
1
  8
0
 10
-178.628107479
 20
77.6890439646
 30
0.0
 11
-166.655056894
 21
111.386995032
 31
0.0
  0
LINE
 62
1
  8
0
 10
17.6706154894
 20
81.2092258412
 30
0.0
 11
91.7767539874
 21
138.574580084
 31
0.0
  0
LINE
 62
1
  8
0
 10
-166.655057017
 20
111.386994887
 30
0.0
 11
-113.011694389
 21
84.5037026913
 31
0.0
  0
LINE
 62
1
  8
0
 10
-28.2925212781
 20
2.12656745248
 30
0.0
 11
-49.3018883418
 21
63.3085382251
 31
0.0
  0
LINE
 62
1
  8
0
 10
-49.3018880963
 20
63.3085387062
 30
0.0
 11
-27.8692253721
 21
132.936971578
 31
0.0
  0
LINE
 62
1
  8
0
 10
-5.01505711077
 20
57.2655374122
 30
0.0
 11
65.7796083632
 21
6.4413945886
 31
0.0
  0
LINE
 62
1
  8
0
 10
-125.034799434
 20
29.3965149329
 30
0.0
 11
-71.3465751742
 21
87.5221156681
 31
0.0
  0
LINE
 62
1
  8
0
 10
-17.7110100735
 20
-51.7368995315
 30
0.0
 11
-15.3740920042
 21
-80.2970005173
 31
0.0
  0
LINE
 62
1
  8
0
 10
-178.628107532
 20
77.6890438944
 30
0.0
 11
-202.51884146
 21
95.710004999
 31
0.0
  0
LINE
 62
1
  8
0
 10
8.59885754915
 20
253.575735223
 30
0.0
 11
47.962766485
 21
198.096640399
 31
0.0
  0
LINE
 62
1
  8
0
 10
-77.5183462312
 20
15.4742552168
 30
0.0
 11
-28.2925222368
 21
2.12656601247
 31
0.0
  0
LINE
 62
1
  8
0
 10
-178.628107437
 20
77.6890439495
 30
0.0
 11
-113.011694469
 21
84.5037025311
 31
0.0
  0
LINE
 62
1
  8
0
 10
65.7796077292
 20
6.44139411312
 30
0.0
 11
34.7241433133
 21
-34.2792141371
 31
0.0
  0
LINE
 62
1
  8
0
 10
-5.24414025231
 20
54.8483432847
 30
0.0
 11
18.4623368719
 21
8.72223912957
 31
0.0
  0
LINE
 62
1
  8
0
 10
18.4623367138
 20
8.72223997203
 30
0.0
 11
34.7241432446
 21
-34.2792140847
 31
0.0
  0
LINE
 62
1
  8
0
 10
-58.6583429635
 20
-48.7276420157
 30
0.0
 11
-28.2925222426
 21
2.12656599106
 31
0.0
  0
LINE
 62
1
  8
0
 10
-49.3018877319
 20
63.308538594
 30
0.0
 11
-5.24414049198
 21
54.8483430921
 31
0.0
  0
LINE
 62
1
  8
0
 10
98.6660830803
 20
27.3588956864
 30
0.0
 11
65.7796084223
 21
6.44139449562
 31
0.0
  0
LINE
 62
1
  8
0
 10
-163.20356108
 20
-42.7314717728
 30
0.0
 11
-198.106026791
 21
14.057654454
 31
0.0
  0
LINE
 62
1
  8
0
 10
18.4623369066
 20
8.72223978035
 30
0.0
 11
-28.2925218609
 21
2.12656670304
 31
0.0
  0
LINE
 62
1
  8
0
 10
-58.6583430575
 20
-48.7276420433
 30
0.0
 11
-77.5183461315
 21
15.4742552658
 31
0.0
  0
LINE
 62
1
  8
0
 10
-27.8692257301
 20
132.936971692
 30
0.0
 11
-5.24414049827
 21
54.8483430903
 31
0.0
  0
LINE
 62
1
  8
0
 10
-77.5183462552
 20
15.4742552322
 30
0.0
 11
-71.3465750983
 21
87.5221155981
 31
0.0
  0
LINE
 62
1
  8
0
 10
6.3554772484
 20
-36.5471351514
 30
0.0
 11
-28.2925226027
 21
2.12656603845
 31
0.0
  0
LINE
 62
1
  8
0
 10
-125.034799274
 20
29.3965148981
 30
0.0
 11
-113.01169447
 21
84.5037025441
 31
0.0
  0
LINE
 62
1
  8
0
 10
-133.062256746
 20
134.867728922
 30
0.0
 11
-166.655056908
 21
111.386994773
 31
0.0
  0
LINE
 62
1
  8
0
 10
-125.034799298
 20
29.3965150466
 30
0.0
 11
-198.106026748
 21
14.0576544803
 31
0.0
  0
LINE
 62
1
  8
0
 10
47.962766466
 20
198.096640353
 30
0.0
 11
91.7767539732
 21
138.574580082
 31
0.0
  0
LINE
 62
1
  8
0
 10
47.1795327435
 20
-39.9661306161
 30
0.0
 11
-15.3740920638
 21
-80.2970004248
 31
0.0
  0
LINE
 62
1
  8
0
 10
17.6706154917
 20
81.2092258564
 30
0.0
 11
98.6660834078
 21
27.3588960052
 31
0.0
  0
LINE
 62
1
  8
0
 10
98.6660830356
 20
27.3588956845
 30
0.0
 11
101.580001375
 21
-40.4684350399
 31
0.0
  0
LINE
 62
1
  8
0
 10
-17.7110090933
 20
-51.7369000604
 30
0.0
 11
-28.2925223915
 21
2.12656607994
 31
0.0
  0
LINE
 62
1
  8
0
 10
47.9627664574
 20
198.096640331
 30
0.0
 11
131.144149709
 21
165.555236904
 31
0.0
  0
LINE
 62
1
  8
0
 10
-113.011694313
 20
84.5037025494
 30
0.0
 11
-71.3465751712
 21
87.5221156279
 31
0.0
  0
LINE
 62
1
  8
0
 10
-17.7110090483
 20
-51.7368994476
 30
0.0
 11
-58.6583428597
 21
-48.7276427174
 31
0.0
  0
LINE
 62
1
  8
0
 10
-27.5589786752
 20
-96.032336947
 30
0.0
 11
-58.658342616
 21
-48.7276425881
 31
0.0
  0
LINE
 62
1
  8
0
 10
-27.5589787896
 20
-96.0323371571
 30
0.0
 11
-115.981387751
 21
-47.9002861544
 31
0.0
  0
LINE
 62
1
  8
0
 10
112.87215311
 20
61.9728613117
 30
0.0
 11
98.6660834064
 21
27.3588960058
 31
0.0
  0
LINE
 62
1
  8
0
 10
-25.4802651482
 20
219.201665786
 30
0.0
 11
47.9627664529
 21
198.096640376
 31
0.0
  0
LINE
 62
1
  8
0
 10
47.1795332459
 20
-39.9661310956
 30
0.0
 11
-9.4447901023
 21
-99.2947790366
 31
0.0
  0
LINE
 62
1
  8
0
 10
17.6706154888
 20
81.209225842
 30
0.0
 11
112.872153111
 21
61.9728613266
 31
0.0
  0
LINE
 62
1
  8
0
 10
-28.2925218552
 20
2.12656725432
 30
0.0
 11
-5.24414045918
 21
54.8483432629
 31
0.0
  0
LINE
 62
1
  8
0
 10
18.4623364968
 20
8.72223988995
 30
0.0
 11
6.35547691644
 21
-36.5471359256
 31
0.0
  0
LINE
 62
1
  8
0
 10
-5.24414025364
 20
54.8483433056
 30
0.0
 11
40.8505437729
 21
57.777391373
 31
0.0
  0
LINE
 62
1
  8
0
 10
-5.01505740076
 20
57.2655376687
 30
0.0
 11
17.6706160417
 21
81.2092259829
 31
0.0
  0
LINE
 62
1
  8
0
 10
-202.518841554
 20
95.7100050233
 30
0.0
 11
-166.655056853
 21
111.386994938
 31
0.0
  0
LINE
 62
1
  8
0
 10
-70.925366283
 20
62.9491883972
 30
0.0
 11
-49.3018883432
 21
63.3085383075
 31
0.0
  0
LINE
 62
1
  8
0
 10
-15.374092986
 20
-80.2970005418
 30
0.0
 11
-58.658342903
 21
-48.7276427767
 31
0.0
  0
LINE
 62
1
  8
0
 10
-168.069063982
 20
167.306457575
 30
0.0
 11
-166.65505702
 21
111.386994933
 31
0.0
  0
LINE
 62
1
  8
0
 10
13.5441781124
 20
140.254401961
 30
0.0
 11
-25.4802651491
 21
219.20166581
 31
0.0
  0
LINE
 62
1
  8
0
 10
13.5441781031
 20
140.254401957
 30
0.0
 11
47.9627664446
 21
198.096640347
 31
0.0
  0
LINE
 62
1
  8
0
 10
-5.01505740426
 20
57.2655376692
 30
0.0
 11
7.15410011767
 21
139.456656847
 31
0.0
  0
LINE
 62
1
  8
0
 10
147.799607486
 20
-11.4745897087
 30
0.0
 11
101.580001415
 21
-40.4684351036
 31
0.0
  0
LINE
 62
1
  8
0
 10
-71.3465751162
 20
87.5221155864
 30
0.0
 11
4.05920985488
 21
68.9869887845
 31
0.0
  0
ENDSEC
  0
EOF
