  0
SECTION
  2
HEADER
  9
$ACADVER
  1
AC1009
  9
$EXTMIN
 10
0.0
 20
0.0
 30
0.0
  9
$EXTMAX
 10
100.0
 20
100.0
 30
0.0
  9
$INSBASE
 10
0.0
 20
0.0
 30
0.0
  0
ENDSEC
  0
SECTION
  2
TABLES
  0
TABLE
  2
LTYPE
 70
19
  0
LTYPE
  2
PHANTOM
 70
0
  3
Phantom ______  __  __  ______  __  __  ______
 72
65
 73
6
 40
2.5
 49
1.25
 49
-0.25
 49
0.25
 49
-0.25
 49
0.25
 49
-0.25
  0
LTYPE
  2
DOT2
 70
0
  3
Dot (.5) . . . . . . . . . . . . . . . . . . . 
 72
65
 73
2
 40
0.1
 49
0.0
 49
-0.1
  0
LTYPE
  2
DIVIDE
 70
0
  3
Divide __ . . __ . . __ . . __ . . __ . . __
 72
65
 73
6
 40
1.6
 49
1.0
 49
-0.2
 49
0.0
 49
-0.2
 49
0.0
 49
-0.2
  0
LTYPE
  2
DIVIDEX2
 70
0
  3
Divide (2x) ____  . .  ____  . .  ____  . .  ____
 72
65
 73
6
 40
2.6
 49
2.0
 49
-0.2
 49
0.0
 49
-0.2
 49
0.0
 49
-0.2
  0
LTYPE
  2
CENTER
 70
0
  3
Center ____ _ ____ _ ____ _ ____ _ ____ _ ____
 72
65
 73
4
 40
2.0
 49
1.25
 49
-0.25
 49
0.25
 49
-0.25
  0
LTYPE
  2
DASHDOT
 70
0
  3
Dash dot __ . __ . __ . __ . __ . __ . __ . __
 72
65
 73
4
 40
1.4
 49
1.0
 49
-0.2
 49
0.0
 49
-0.2
  0
LTYPE
  2
CENTERX2
 70
0
  3
Center (2x) ________  __  ________  __  ________
 72
65
 73
4
 40
3.5
 49
2.5
 49
-0.25
 49
0.5
 49
-0.25
  0
LTYPE
  2
PHANTOMX2
 70
0
  3
Phantom (2x)____________    ____    ____    ____________
 72
65
 73
6
 40
4.25
 49
2.5
 49
-0.25
 49
0.5
 49
-0.25
 49
0.5
 49
-0.25
  0
LTYPE
  2
CONTINUOUS
 70
0
  3
Solid
 72
65
 73
0
 40
0.0
  0
LTYPE
  2
PHANTOM2
 70
0
  3
Phantom (.5x) ___ _ _ ___ _ _ ___ _ _ ___ _ _ ___
 72
65
 73
6
 40
1.25
 49
0.625
 49
-0.125
 49
0.125
 49
-0.125
 49
0.125
 49
-0.125
  0
LTYPE
  2
DASHED
 70
0
  3
Dashed __ __ __ __ __ __ __ __ __ __ __ __ __ _
 72
65
 73
2
 40
0.6
 49
0.5
 49
-0.1
  0
LTYPE
  2
DASHED2
 70
0
  3
Dashed (.5x) _ _ _ _ _ _ _ _ _ _ _ _ _ _
 72
65
 73
2
 40
0.3
 49
0.25
 49
-0.05
  0
LTYPE
  2
DASHDOT2
 70
0
  3
Dash dot (.5x) _ . _ . _ . _ . _ . _ . _ . _
 72
65
 73
4
 40
0.7
 49
0.5
 49
-0.1
 49
0.0
 49
-0.1
  0
LTYPE
  2
DOTX2
 70
0
  3
Dot (2x) .    .    .    .    .    .    .    . 
 72
65
 73
2
 40
0.4
 49
0.0
 49
-0.4
  0
LTYPE
  2
DIVIDE2
 70
0
  3
Divide(.5x) _ . _ . _ . _ . _ . _ . _ . _
 72
65
 73
6
 40
0.8
 49
0.5
 49
-0.1
 49
0.0
 49
-0.1
 49
0.0
 49
-0.1
  0
LTYPE
  2
CENTER2
 70
0
  3
Center (.5x) ____ _ ____ _ ____ _ ____ _ ____
 72
65
 73
4
 40
1.0
 49
0.625
 49
-0.125
 49
0.125
 49
-0.125
  0
LTYPE
  2
DASHDOTX2
 70
0
  3
Dash dot (2x) ____  .  ____  .  ____  .  ____
 72
65
 73
4
 40
2.4
 49
2.0
 49
-0.2
 49
0.0
 49
-0.2
  0
LTYPE
  2
DOT
 70
0
  3
Dot .  .  .  .  .  .  .  .  .  .  .  .  .  .  .  .
 72
65
 73
2
 40
0.2
 49
0.0
 49
-0.2
  0
LTYPE
  2
DASHEDX2
 70
0
  3
Dashed (2x) ____  ____  ____  ____  ____  ____
 72
65
 73
2
 40
1.2
 49
1.0
 49
-0.2
  0
ENDTAB
  0
TABLE
  2
LAYER
 70
5
  0
LAYER
  2
VIEWPORTS
 70
0
 62
7
  6
CONTINUOUS
  0
LAYER
  2
TABLEGRID
 70
0
 62
1
  6
CONTINUOUS
  0
LAYER
  2
TABLECONTENT
 70
0
 62
1
  6
CONTINUOUS
  0
LAYER
  2
DIMENSIONS
 70
0
 62
1
  6
CONTINUOUS
  0
LAYER
  2
TABLEBACKGROUND
 70
0
 62
1
  6
CONTINUOUS
  0
ENDTAB
  0
TABLE
  2
STYLE
 70
12
  0
STYLE
  2
TIMES
 70
0
 40
0.0
 41
1.0
 42
1.0
 50
0.0
 71
0
  3
times.ttf
  4

  0
STYLE
  2
ARIAL
 70
0
 40
0.0
 41
1.0
 42
1.0
 50
0.0
 71
0
  3
arial.ttf
  4

  0
STYLE
  2
TIMES_BOLD
 70
0
 40
0.0
 41
1.0
 42
1.0
 50
0.0
 71
0
  3
timesbd.ttf
  4

  0
STYLE
  2
ARIAL_BLACK
 70
0
 40
0.0
 41
1.0
 42
1.0
 50
0.0
 71
0
  3
ariblk.ttf
  4

  0
STYLE
  2
TIMES_ITALIC
 70
0
 40
0.0
 41
1.0
 42
1.0
 50
0.0
 71
0
  3
timesi.ttf
  4

  0
STYLE
  2
ISOCPEUR
 70
0
 40
0.0
 41
1.0
 42
1.0
 50
0.0
 71
0
  3
isocpeur.ttf
  4

  0
STYLE
  2
ARIAL_BOLD
 70
0
 40
0.0
 41
1.0
 42
1.0
 50
0.0
 71
0
  3
arialbd.ttf
  4

  0
STYLE
  2
ARIAL_ITALIC
 70
0
 40
0.0
 41
1.0
 42
1.0
 50
0.0
 71
0
  3
ariali.ttf
  4

  0
STYLE
  2
ARIAL_BOLD_ITALIC
 70
0
 40
0.0
 41
1.0
 42
1.0
 50
0.0
 71
0
  3
arialbi.ttf
  4

  0
STYLE
  2
TIMES_BOLD_ITALIC
 70
0
 40
0.0
 41
1.0
 42
1.0
 50
0.0
 71
0
  3
timesbi.ttf
  4

  0
STYLE
  2
ISOCPEUR_ITALIC
 70
0
 40
0.0
 41
1.0
 42
1.0
 50
0.0
 71
0
  3
isocpeui.ttf
  4

  0
STYLE
  2
STANDARD
 70
0
 40
0.0
 41
1.0
 42
1.0
 50
0.0
 71
0
  3
arial.ttf
  4

  0
ENDTAB
  0
TABLE
  2
VIEW
 70
0
  0
ENDTAB
  0
TABLE
  2
APPID
 70
1
  0
APPID
  2
DXFWRITE
 70
0
  0
ENDTAB
  0
TABLE
  2
VPORT
 70
0
  0
ENDTAB
  0
TABLE
  2
UCS
 70
0
  0
ENDTAB
  0
ENDSEC
  0
SECTION
  2
BLOCKS
  0
ENDSEC
  0
SECTION
  2
ENTITIES
  0
VIEWPORT
  8
VIEWPORTS
 67
1
 10
0.0
 20
0.0
 30
0.0
 40
1.0
 41
1.0
 68
1
 69
1
1001
ACAD
1000
MVIEW
1002
{
1070
16
1010
0.0
1020
0.0
1030
0.0
1010
0.0
1020
0.0
1030
0.0
1040
0.0
1040
1.0
1040
0.0
1040
0.0
1040
50.0
1040
0.0
1040
0.0
1070
0
1070
100
1070
1
1070
3
1070
0
1070
0
1070
0
1070
0
1040
0.0
1040
0.0
1040
0.0
1040
0.1
1040
0.1
1040
0.1
1040
0.1
1070
0
1002
{
1002
}
1002
}
  0
LINE
 62
0
  8
0
 10
45.4585851488
 20
127.439616287
 30
0.0
 11
55.294432245
 21
161.822198482
 31
0.0
  0
LINE
 62
0
  8
0
 10
98.0557325424
 20
-31.5169481834
 30
0.0
 11
128.035666936
 21
60.8658100523
 31
0.0
  0
LINE
 62
0
  8
0
 10
107.487881445
 20
102.486997739
 30
0.0
 11
68.408126926
 21
100.30712329
 31
0.0
  0
LINE
 62
0
  8
0
 10
-44.6427436641
 20
-313.418108141
 30
0.0
 11
-100.769685442
 21
-264.537626937
 31
0.0
  0
LINE
 62
0
  8
0
 10
-43.960998843
 20
-58.6307821952
 30
0.0
 11
-0.526201038435
 21
-67.3900668776
 31
0.0
  0
LINE
 62
0
  8
0
 10
-16.8746096108
 20
105.968964049
 30
0.0
 11
-63.2480040033
 21
64.0665518369
 31
0.0
  0
LINE
 62
0
  8
0
 10
-43.9609988186
 20
-58.6307821971
 30
0.0
 11
-14.608836406
 21
11.9224002258
 31
0.0
  0
LINE
 62
0
  8
0
 10
128.035666936
 20
60.8658100523
 30
0.0
 11
49.5263422019
 21
48.6541307893
 31
0.0
  0
LINE
 62
0
  8
0
 10
70.7428632544
 20
226.550005843
 30
0.0
 11
32.3471504785
 21
281.038134923
 31
0.0
  0
LINE
 62
0
  8
0
 10
67.4214933395
 20
278.53390811
 30
0.0
 11
32.3471504374
 21
281.038134894
 31
0.0
  0
LINE
 62
0
  8
0
 10
55.294432248
 20
161.822198501
 30
0.0
 11
70.7428632931
 21
226.550005703
 31
0.0
  0
LINE
 62
0
  8
0
 10
55.2944322765
 20
161.822198494
 30
0.0
 11
83.3382726879
 21
151.3787689
 31
0.0
  0
LINE
 62
0
  8
0
 10
-43.9609988465
 20
-58.6307821855
 30
0.0
 11
38.9255295343
 21
-28.8750927454
 31
0.0
  0
LINE
 62
0
  8
0
 10
-3.09222571563
 20
-151.910536738
 30
0.0
 11
-47.6763938098
 21
-139.846077635
 31
0.0
  0
LINE
 62
0
  8
0
 10
-117.371152458
 20
-275.513213793
 30
0.0
 11
-55.1675477719
 21
-349.122810048
 31
0.0
  0
LINE
 62
0
  8
0
 10
-117.371152103
 20
-275.513215431
 30
0.0
 11
-100.769686117
 21
-264.537625915
 31
0.0
  0
LINE
 62
0
  8
0
 10
-188.176425623
 20
-211.529443647
 30
0.0
 11
-200.108674027
 21
-244.60665831
 31
0.0
  0
LINE
 62
0
  8
0
 10
-63.2480040173
 20
64.0665518239
 30
0.0
 11
-74.2194118691
 21
-20.8499445516
 31
0.0
  0
LINE
 62
0
  8
0
 10
-51.1591042007
 20
145.279494885
 30
0.0
 11
-9.7653473125
 21
150.90531583
 31
0.0
  0
LINE
 62
0
  8
0
 10
-66.1138319258
 20
-230.110941147
 30
0.0
 11
-40.0794027101
 21
-191.148126425
 31
0.0
  0
LINE
 62
0
  8
0
 10
-40.0794028212
 20
-191.14812701
 30
0.0
 11
-47.676393941
 21
-139.846077655
 31
0.0
  0
LINE
 62
0
  8
0
 10
49.5263421922
 20
48.65413079
 30
0.0
 11
-14.608836373
 21
11.9224002208
 31
0.0
  0
LINE
 62
0
  8
0
 10
-86.4688732344
 20
-182.342631641
 30
0.0
 11
-47.6763940127
 21
-139.846077589
 31
0.0
  0
LINE
 62
0
  8
0
 10
228.517850278
 20
37.9515628594
 30
0.0
 11
160.801355075
 21
42.8006855336
 31
0.0
  0
LINE
 62
0
  8
0
 10
-93.788891038
 20
-236.745378473
 30
0.0
 11
-66.1138310095
 21
-230.110940756
 31
0.0
  0
LINE
 62
0
  8
0
 10
-14.608836406
 20
11.9224002258
 30
0.0
 11
-74.219411888
 21
-20.8499445172
 31
0.0
  0
LINE
 62
0
  8
0
 10
214.736029019
 20
-27.7604878573
 30
0.0
 11
229.324379071
 21
36.5552457165
 31
0.0
  0
LINE
 62
0
  8
0
 10
32.3471504597
 20
281.038134932
 30
0.0
 11
-38.8682185102
 21
238.82074141
 31
0.0
  0
LINE
 62
0
  8
0
 10
-14.6088364576
 20
11.9224002468
 30
0.0
 11
28.7341095768
 21
90.0215326724
 31
0.0
  0
LINE
 62
0
  8
0
 10
177.827359512
 20
7.74106139961
 30
0.0
 11
160.801355174
 21
42.8006855817
 31
0.0
  0
LINE
 62
0
  8
0
 10
-1.22239061495
 20
206.65811908
 30
0.0
 11
-9.76534715074
 21
150.905315805
 31
0.0
  0
LINE
 62
0
  8
0
 10
-86.4688741202
 20
-182.342632581
 30
0.0
 11
-131.588167239
 21
-220.715577848
 31
0.0
  0
LINE
 62
0
  8
0
 10
-86.6659088874
 20
-117.654238332
 30
0.0
 11
-86.4688732344
 21
-182.342631641
 31
0.0
  0
LINE
 62
0
  8
0
 10
-43.9609988353
 20
-58.6307821569
 30
0.0
 11
-47.6763941053
 21
-139.84607774
 31
0.0
  0
LINE
 62
0
  8
0
 10
98.0557325432
 20
-31.5169481829
 30
0.0
 11
49.526342201
 21
48.6541307888
 31
0.0
  0
LINE
 62
0
  8
0
 10
70.7428632954
 20
226.550005872
 30
0.0
 11
67.4214933395
 21
278.53390811
 31
0.0
  0
LINE
 62
0
  8
0
 10
-16.8746092608
 20
105.968963662
 30
0.0
 11
-58.103062558
 21
125.205177541
 31
0.0
  0
LINE
 62
0
  8
0
 10
-188.176425764
 20
-211.529443825
 30
0.0
 11
-131.588167449
 21
-220.715577712
 31
0.0
  0
LINE
 62
0
  8
0
 10
-200.108674027
 20
-244.60665831
 30
0.0
 11
-107.727151115
 21
-272.053248645
 31
0.0
  0
LINE
 62
0
  8
0
 10
45.4585852189
 20
127.439616452
 30
0.0
 11
-9.76534722296
 21
150.905315653
 31
0.0
  0
LINE
 62
0
  8
0
 10
53.916432386
 20
-88.3898729533
 30
0.0
 11
119.252782451
 21
-56.787979684
 31
0.0
  0
LINE
 62
0
  8
0
 10
229.324379071
 20
36.5552457165
 30
0.0
 11
177.827359912
 21
7.74106071547
 31
0.0
  0
LINE
 62
0
  8
0
 10
50.2241979838
 20
47.4078752227
 30
0.0
 11
107.487881445
 21
102.486997739
 31
0.0
  0
LINE
 62
0
  8
0
 10
28.734109491
 20
90.0215324269
 30
0.0
 11
45.4585852275
 21
127.439616427
 31
0.0
  0
LINE
 62
0
  8
0
 10
-86.4688733061
 20
-182.342631576
 30
0.0
 11
-40.0794028212
 21
-191.14812701
 31
0.0
  0
LINE
 62
0
  8
0
 10
32.3471504785
 20
281.038134923
 30
0.0
 11
-1.22239058132
 21
206.658118933
 31
0.0
  0
LINE
 62
0
  8
0
 10
204.990584192
 20
87.1792259259
 30
0.0
 11
160.801355071
 21
42.8006854889
 31
0.0
  0
LINE
 62
0
  8
0
 10
80.2684495402
 20
145.335213632
 30
0.0
 11
55.2944322883
 21
161.822198469
 31
0.0
  0
LINE
 62
0
  8
0
 10
55.2944322429
 20
161.822198495
 30
0.0
 11
-1.22239061495
 21
206.65811908
 31
0.0
  0
LINE
 62
0
  8
0
 10
-117.371152779
 20
-275.513214409
 30
0.0
 11
-44.6427436641
 21
-313.418108141
 31
0.0
  0
LINE
 62
0
  8
0
 10
-101.721989545
 20
64.7633877809
 30
0.0
 11
-126.643933856
 21
-8.77898112618
 31
0.0
  0
LINE
 62
0
  8
0
 10
109.931186234
 20
177.699026625
 30
0.0
 11
70.7428631521
 21
226.550005691
 31
0.0
  0
LINE
 62
0
  8
0
 10
119.252782753
 20
-56.7879794275
 30
0.0
 11
160.80135516
 21
42.8006855874
 31
0.0
  0
LINE
 62
0
  8
0
 10
213.750211465
 20
-56.2025845825
 30
0.0
 11
214.736028902
 21
-27.7604876945
 31
0.0
  0
LINE
 62
0
  8
0
 10
-43.960998533
 20
-58.6307823801
 30
0.0
 11
-90.3618240596
 21
-44.8493946513
 31
0.0
  0
LINE
 62
0
  8
0
 10
-43.9609988418
 20
-58.6307821566
 30
0.0
 11
-86.6659088013
 21
-117.654238181
 31
0.0
  0
LINE
 62
0
  8
0
 10
38.9255295293
 20
-28.875092752
 30
0.0
 11
49.5263421922
 21
48.65413079
 31
0.0
  0
LINE
 62
0
  8
0
 10
-86.4688734172
 20
-182.342632162
 30
0.0
 11
-66.1138319258
 21
-230.110941147
 31
0.0
  0
LINE
 62
0
  8
0
 10
50.2241978255
 20
47.4078752771
 30
0.0
 11
68.4081270842
 21
100.307123235
 31
0.0
  0
LINE
 62
0
  8
0
 10
-128.77814205
 20
-153.859859249
 30
0.0
 11
-188.176425764
 21
-211.529443825
 31
0.0
  0
LINE
 62
0
  8
0
 10
119.252782005
 20
-56.7879787548
 30
0.0
 11
170.159117452
 21
-39.0063932446
 31
0.0
  0
LINE
 62
0
  8
0
 10
16.6187719218
 20
-82.0607345398
 30
0.0
 11
-47.6763938044
 21
-139.846077615
 31
0.0
  0
LINE
 62
0
  8
0
 10
-100.769686177
 20
-264.537625957
 30
0.0
 11
-93.7888910114
 21
-236.745377879
 31
0.0
  0
LINE
 62
0
  8
0
 10
-49.5185257244
 20
217.572602813
 30
0.0
 11
-51.1591042808
 21
145.27949495
 31
0.0
  0
LINE
 62
0
  8
0
 10
70.7428632931
 20
226.550005703
 30
0.0
 11
-1.22239062009
 21
206.658119073
 31
0.0
  0
LINE
 62
0
  8
0
 10
-131.588167539
 20
-220.715578456
 30
0.0
 11
-117.371152103
 21
-275.513215431
 31
0.0
  0
LINE
 62
0
  8
0
 10
-40.0794029524
 20
-191.14812703
 30
0.0
 11
-3.09222571563
 21
-151.910536738
 31
0.0
  0
LINE
 62
0
  8
0
 10
160.801354795
 20
42.8006858953
 30
0.0
 11
128.03566695
 21
60.8658100477
 31
0.0
  0
LINE
 62
0
  8
0
 10
50.2241971356
 20
47.4078749292
 30
0.0
 11
28.7341095974
 21
90.0215326609
 31
0.0
  0
LINE
 62
0
  8
0
 10
98.0557324655
 20
-31.516947618
 30
0.0
 11
38.9884897454
 21
-35.3144661602
 31
0.0
  0
LINE
 62
0
  8
0
 10
-58.1030625016
 20
125.205177537
 30
0.0
 11
-86.5948734853
 21
94.6550600655
 31
0.0
  0
LINE
 62
0
  8
0
 10
55.294432245
 20
161.822198482
 30
0.0
 11
-9.76534715289
 21
150.905315818
 31
0.0
  0
LINE
 62
0
  8
0
 10
228.517850349
 20
37.9515629365
 30
0.0
 11
252.693527349
 21
66.25587057
 31
0.0
  0
LINE
 62
0
  8
0
 10
-172.977081608
 20
77.0799131729
 30
0.0
 11
-190.48958399
 21
29.1773577576
 31
0.0
  0
LINE
 62
0
  8
0
 10
-9.76534722296
 20
150.905315653
 30
0.0
 11
-16.8746094976
 21
105.96896427
 31
0.0
  0
LINE
 62
0
  8
0
 10
-86.4688740078
 20
-182.342632713
 30
0.0
 11
-128.778142148
 21
-153.859859244
 31
0.0
  0
LINE
 62
0
  8
0
 10
83.3382728004
 20
151.378768919
 30
0.0
 11
109.931186234
 21
177.699026625
 31
0.0
  0
LINE
 62
0
  8
0
 10
-0.526201038435
 20
-67.3900668776
 30
0.0
 11
38.9255295308
 21
-28.8750927356
 31
0.0
  0
LINE
 62
0
  8
0
 10
-90.3618240596
 20
-44.8493946513
 30
0.0
 11
-86.6659091102
 21
-117.654237957
 31
0.0
  0
LINE
 62
0
  8
0
 10
-101.721989533
 20
64.7633877766
 30
0.0
 11
-172.977081593
 21
77.079913181
 31
0.0
  0
LINE
 62
0
  8
0
 10
-141.269555655
 20
-69.3567557152
 30
0.0
 11
-107.254164558
 21
-111.033990291
 31
0.0
  0
LINE
 62
0
  8
0
 10
228.517850281
 20
37.951562904
 30
0.0
 11
204.990584192
 21
87.1792259259
 31
0.0
  0
LINE
 62
0
  8
0
 10
-86.4688743334
 20
-182.342632552
 30
0.0
 11
-93.788891038
 21
-236.745378473
 31
0.0
  0
LINE
 62
0
  8
0
 10
28.7341095768
 20
90.0215326724
 30
0.0
 11
-16.874609592
 21
105.96896405
 31
0.0
  0
LINE
 62
0
  8
0
 10
-38.8682185102
 20
238.82074141
 30
0.0
 11
-1.22239056254
 21
206.658118925
 31
0.0
  0
LINE
 62
0
  8
0
 10
-131.588167479
 20
-220.715578414
 30
0.0
 11
-100.769686177
 21
-264.537625957
 31
0.0
  0
LINE
 62
0
  8
0
 10
-14.6088364249
 20
11.9224002602
 30
0.0
 11
-63.2480040173
 21
64.0665518239
 31
0.0
  0
LINE
 62
0
  8
0
 10
68.4081270842
 20
100.307123235
 30
0.0
 11
28.7341089075
 21
90.021532313
 31
0.0
  0
LINE
 62
0
  8
0
 10
170.159117727
 20
-39.0063932897
 30
0.0
 11
214.736028959
 21
-27.7604879195
 31
0.0
  0
LINE
 62
0
  8
0
 10
83.3382726879
 20
151.3787689
 30
0.0
 11
70.7428632646
 21
226.55000571
 31
0.0
  0
LINE
 62
0
  8
0
 10
252.693527349
 20
66.25587057
 30
0.0
 11
204.990584124
 21
87.1792258935
 31
0.0
  0
LINE
 62
0
  8
0
 10
38.9255295205
 20
-28.8750927507
 30
0.0
 11
98.0557325432
 21
-31.5169481829
 31
0.0
  0
LINE
 62
0
  8
0
 10
-107.254164532
 20
-111.033990212
 30
0.0
 11
-86.4688726243
 21
-182.34263164
 31
0.0
  0
LINE
 62
0
  8
0
 10
-1.2223903731
 20
206.65811899
 30
0.0
 11
-49.5185257244
 21
217.572602813
 31
0.0
  0
LINE
 62
0
  8
0
 10
38.9255295343
 20
-28.8750927454
 30
0.0
 11
-14.608836378
 21
11.9224002142
 31
0.0
  0
LINE
 62
0
  8
0
 10
-47.6763941053
 20
-139.84607774
 30
0.0
 11
-0.52620104616
 21
-67.3900669159
 31
0.0
  0
LINE
 62
0
  8
0
 10
-44.6427435919
 20
-313.418108058
 30
0.0
 11
-73.9842153505
 21
-254.355331477
 31
0.0
  0
LINE
 62
0
  8
0
 10
-55.1675477719
 20
-349.122810048
 30
0.0
 11
-44.6427439851
 21
-313.418108757
 31
0.0
  0
LINE
 62
0
  8
0
 10
-126.643933864
 20
-8.77898111914
 30
0.0
 11
-74.2194114174
 21
-20.84994461
 31
0.0
  0
LINE
 62
0
  8
0
 10
-128.778142148
 20
-153.859859244
 30
0.0
 11
-131.588167351
 21
-220.715577716
 31
0.0
  0
LINE
 62
0
  8
0
 10
-107.727150971
 20
-272.053248454
 30
0.0
 11
-131.588167447
 21
-220.715577698
 31
0.0
  0
LINE
 62
0
  8
0
 10
170.159117783
 20
-39.0063935147
 30
0.0
 11
213.750211465
 21
-56.2025845825
 31
0.0
  0
LINE
 62
0
  8
0
 10
-86.6659094975
 20
-117.654238334
 30
0.0
 11
-107.254164532
 21
-111.033990212
 31
0.0
  0
LINE
 62
0
  8
0
 10
-131.588167239
 20
-220.715577848
 30
0.0
 11
-93.7888912513
 21
-236.745378445
 31
0.0
  0
LINE
 62
0
  8
0
 10
-86.6659088013
 20
-117.654238181
 30
0.0
 11
-47.6763940987
 21
-139.84607774
 31
0.0
  0
LINE
 62
0
  8
0
 10
-74.219411888
 20
-20.8499445172
 30
0.0
 11
-43.9609988186
 21
-58.6307821971
 31
0.0
  0
LINE
 62
0
  8
0
 10
45.4585852275
 20
127.439616427
 30
0.0
 11
-16.8746095061
 21
105.968964295
 31
0.0
  0
LINE
 62
0
  8
0
 10
214.736028959
 20
-27.7604879195
 30
0.0
 11
177.827359971
 21
7.74106077772
 31
0.0
  0
LINE
 62
0
  8
0
 10
-14.6088364782
 20
11.9224002582
 30
0.0
 11
50.2241971356
 21
47.4078749292
 31
0.0
  0
LINE
 62
0
  8
0
 10
-188.176425767
 20
-211.529443839
 30
0.0
 11
-107.727150971
 21
-272.053248454
 31
0.0
  0
LINE
 62
0
  8
0
 10
-3.0922257211
 20
-151.910536758
 30
0.0
 11
16.6187719218
 21
-82.0607345398
 31
0.0
  0
LINE
 62
0
  8
0
 10
-73.9842153505
 20
-254.355331477
 30
0.0
 11
-100.769685514
 21
-264.53762702
 31
0.0
  0
LINE
 62
0
  8
0
 10
98.0557321638
 20
-31.516947871
 30
0.0
 11
119.252782753
 21
-56.7879794275
 31
0.0
  0
LINE
 62
0
  8
0
 10
-58.103062558
 20
125.205177541
 30
0.0
 11
-63.2480043533
 21
64.0665522242
 31
0.0
  0
LINE
 62
0
  8
0
 10
38.9884897454
 20
-35.3144661602
 30
0.0
 11
119.252782452
 21
-56.7879796806
 31
0.0
  0
LINE
 62
0
  8
0
 10
-1.22239045319
 20
206.658119055
 30
0.0
 11
-51.1591042007
 21
145.279494885
 31
0.0
  0
LINE
 62
0
  8
0
 10
170.159117452
 20
-39.0063932446
 30
0.0
 11
177.827360246
 21
7.74106073263
 31
0.0
  0
LINE
 62
0
  8
0
 10
-63.248004477
 20
64.0665518893
 30
0.0
 11
-101.721989545
 21
64.7633877809
 31
0.0
  0
LINE
 62
0
  8
0
 10
119.25278274
 20
-56.7879794217
 30
0.0
 11
177.827359512
 21
7.74106139961
 31
0.0
  0
LINE
 62
0
  8
0
 10
-63.2480044689
 20
64.0665518822
 30
0.0
 11
-126.643933864
 21
-8.77898111914
 31
0.0
  0
LINE
 62
0
  8
0
 10
45.4585851056
 20
127.4396163
 30
0.0
 11
80.2684495402
 21
145.335213632
 31
0.0
  0
LINE
 62
0
  8
0
 10
98.0557325284
 20
-31.5169481789
 30
0.0
 11
160.801354795
 21
42.8006858953
 31
0.0
  0
LINE
 62
0
  8
0
 10
-86.6659094722
 20
-117.654238255
 30
0.0
 11
-141.269555655
 21
-69.3567557152
 31
0.0
  0
LINE
 62
0
  8
0
 10
-190.48958399
 20
29.1773577576
 30
0.0
 11
-126.643933853
 21
-8.77898111386
 31
0.0
  0
LINE
 62
0
  8
0
 10
-86.5948734853
 20
94.6550600655
 30
0.0
 11
-63.2480044097
 21
64.0665522289
 31
0.0
  0
LINE
 62
0
  8
0
 10
-14.6088364388
 20
11.9224002472
 30
0.0
 11
-16.8746096108
 21
105.968964049
 31
0.0
  0
LINE
 62
0
  8
0
 10
177.827359611
 20
7.74106144775
 30
0.0
 11
228.517850278
 21
37.9515628594
 31
0.0
  0
LINE
 62
0
  8
0
 10
-172.977081593
 20
77.079913181
 30
0.0
 11
-126.643933868
 21
-8.7789811219
 31
0.0
  0
LINE
 62
0
  8
0
 10
38.9884897463
 20
-35.3144661568
 30
0.0
 11
53.916432386
 21
-88.3898729533
 31
0.0
  0
LINE
 62
1
  8
0
 10
-86.6659091102
 20
-117.654237957
 30
0.0
 11
-43.960998533
 21
-58.6307823801
 31
0.0
  0
LINE
 62
1
  8
0
 10
204.990584124
 20
87.1792258935
 30
0.0
 11
228.517850349
 21
37.9515629365
 31
0.0
  0
LINE
 62
1
  8
0
 10
-63.2480043533
 20
64.0665522242
 30
0.0
 11
-16.8746092608
 21
105.968963662
 31
0.0
  0
LINE
 62
1
  8
0
 10
177.827360246
 20
7.74106073263
 30
0.0
 11
119.252782005
 21
-56.7879787548
 31
0.0
  0
LINE
 62
1
  8
0
 10
-63.2480044097
 20
64.0665522289
 30
0.0
 11
-58.1030625016
 21
125.205177537
 31
0.0
  0
LINE
 62
1
  8
0
 10
-63.2480040033
 20
64.0665518369
 30
0.0
 11
-14.6088364388
 21
11.9224002472
 31
0.0
  0
LINE
 62
1
  8
0
 10
214.736028902
 20
-27.7604876945
 30
0.0
 11
170.159117783
 21
-39.0063935147
 31
0.0
  0
LINE
 62
1
  8
0
 10
55.2944322883
 20
161.822198469
 30
0.0
 11
45.4585851056
 21
127.4396163
 31
0.0
  0
LINE
 62
1
  8
0
 10
-9.76534715074
 20
150.905315805
 30
0.0
 11
55.2944322429
 21
161.822198495
 31
0.0
  0
LINE
 62
1
  8
0
 10
119.252782451
 20
-56.787979684
 30
0.0
 11
38.9884897463
 21
-35.3144661568
 31
0.0
  0
LINE
 62
1
  8
0
 10
-107.254164558
 20
-111.033990291
 30
0.0
 11
-86.6659094722
 21
-117.654238255
 31
0.0
  0
LINE
 62
1
  8
0
 10
-131.588167447
 20
-220.715577698
 30
0.0
 11
-188.176425767
 21
-211.529443839
 31
0.0
  0
LINE
 62
1
  8
0
 10
-40.0794027101
 20
-191.148126425
 30
0.0
 11
-86.4688734172
 21
-182.342632162
 31
0.0
  0
LINE
 62
1
  8
0
 10
-74.2194114174
 20
-20.84994461
 30
0.0
 11
-63.2480044689
 21
64.0665518822
 31
0.0
  0
LINE
 62
1
  8
0
 10
-1.22239058132
 20
206.658118933
 30
0.0
 11
70.7428632544
 21
226.550005843
 31
0.0
  0
LINE
 62
1
  8
0
 10
160.801355071
 20
42.8006854889
 30
0.0
 11
228.517850281
 21
37.951562904
 31
0.0
  0
LINE
 62
1
  8
0
 10
-100.769685442
 20
-264.537626937
 30
0.0
 11
-117.371152779
 21
-275.513214409
 31
0.0
  0
LINE
 62
1
  8
0
 10
-131.588167449
 20
-220.715577712
 30
0.0
 11
-128.77814205
 21
-153.859859249
 31
0.0
  0
LINE
 62
1
  8
0
 10
49.5263422019
 20
48.6541307893
 30
0.0
 11
98.0557325424
 21
-31.5169481834
 31
0.0
  0
LINE
 62
1
  8
0
 10
-16.874609592
 20
105.96896405
 30
0.0
 11
-14.6088364576
 21
11.9224002468
 31
0.0
  0
LINE
 62
1
  8
0
 10
-16.8746095061
 20
105.968964295
 30
0.0
 11
28.734109491
 21
90.0215324269
 31
0.0
  0
LINE
 62
1
  8
0
 10
-47.6763940127
 20
-139.846077589
 30
0.0
 11
-86.6659088874
 21
-117.654238332
 31
0.0
  0
LINE
 62
1
  8
0
 10
-9.76534715289
 20
150.905315818
 30
0.0
 11
45.4585851488
 21
127.439616287
 31
0.0
  0
LINE
 62
1
  8
0
 10
-1.22239056254
 20
206.658118925
 30
0.0
 11
32.3471504597
 21
281.038134932
 31
0.0
  0
LINE
 62
1
  8
0
 10
-66.1138310095
 20
-230.110940756
 30
0.0
 11
-86.4688743334
 21
-182.342632552
 31
0.0
  0
LINE
 62
1
  8
0
 10
-100.769686117
 20
-264.537625915
 30
0.0
 11
-131.588167539
 21
-220.715578456
 31
0.0
  0
LINE
 62
1
  8
0
 10
-47.676393941
 20
-139.846077655
 30
0.0
 11
-86.4688733061
 21
-182.342631576
 31
0.0
  0
LINE
 62
1
  8
0
 10
28.7341095974
 20
90.0215326609
 30
0.0
 11
-14.6088364782
 21
11.9224002582
 31
0.0
  0
LINE
 62
1
  8
0
 10
-1.22239062009
 20
206.658119073
 30
0.0
 11
55.294432248
 21
161.822198501
 31
0.0
  0
LINE
 62
1
  8
0
 10
160.801355075
 20
42.8006855336
 30
0.0
 11
177.827359611
 21
7.74106144775
 31
0.0
  0
LINE
 62
1
  8
0
 10
-44.6427439851
 20
-313.418108757
 30
0.0
 11
-117.371152458
 21
-275.513213793
 31
0.0
  0
LINE
 62
1
  8
0
 10
68.408126926
 20
100.30712329
 30
0.0
 11
50.2241979838
 21
47.4078752227
 31
0.0
  0
LINE
 62
1
  8
0
 10
49.526342201
 20
48.6541307888
 30
0.0
 11
38.9255295205
 21
-28.8750927507
 31
0.0
  0
LINE
 62
1
  8
0
 10
-107.727151115
 20
-272.053248645
 30
0.0
 11
-188.176425623
 21
-211.529443647
 31
0.0
  0
LINE
 62
1
  8
0
 10
-9.7653473125
 20
150.90531583
 30
0.0
 11
-1.22239045319
 21
206.658119055
 31
0.0
  0
LINE
 62
1
  8
0
 10
32.3471504374
 20
281.038134894
 30
0.0
 11
70.7428632954
 21
226.550005872
 31
0.0
  0
LINE
 62
1
  8
0
 10
38.9255295308
 20
-28.8750927356
 30
0.0
 11
-43.960998843
 21
-58.6307821952
 31
0.0
  0
LINE
 62
1
  8
0
 10
-16.8746094976
 20
105.96896427
 30
0.0
 11
45.4585852189
 21
127.439616452
 31
0.0
  0
LINE
 62
1
  8
0
 10
-100.769685514
 20
-264.53762702
 30
0.0
 11
-44.6427435919
 21
-313.418108058
 31
0.0
  0
LINE
 62
1
  8
0
 10
-126.643933853
 20
-8.77898111386
 30
0.0
 11
-172.977081608
 21
77.0799131729
 31
0.0
  0
LINE
 62
1
  8
0
 10
-74.2194118691
 20
-20.8499445516
 30
0.0
 11
-14.6088364249
 21
11.9224002602
 31
0.0
  0
LINE
 62
1
  8
0
 10
70.7428632646
 20
226.55000571
 30
0.0
 11
55.2944322765
 21
161.822198494
 31
0.0
  0
LINE
 62
1
  8
0
 10
-14.608836373
 20
11.9224002208
 30
0.0
 11
38.9255295293
 21
-28.875092752
 31
0.0
  0
LINE
 62
1
  8
0
 10
-126.643933856
 20
-8.77898112618
 30
0.0
 11
-63.248004477
 21
64.0665518893
 31
0.0
  0
LINE
 62
1
  8
0
 10
-51.1591042808
 20
145.27949495
 30
0.0
 11
-1.2223903731
 21
206.65811899
 31
0.0
  0
LINE
 62
1
  8
0
 10
70.7428631521
 20
226.550005691
 30
0.0
 11
83.3382728004
 21
151.378768919
 31
0.0
  0
LINE
 62
1
  8
0
 10
160.801355174
 20
42.8006855817
 30
0.0
 11
119.25278274
 21
-56.7879794217
 31
0.0
  0
LINE
 62
1
  8
0
 10
-47.6763940987
 20
-139.84607774
 30
0.0
 11
-43.9609988418
 21
-58.6307821566
 31
0.0
  0
LINE
 62
1
  8
0
 10
160.80135516
 20
42.8006855874
 30
0.0
 11
98.0557321638
 21
-31.516947871
 31
0.0
  0
LINE
 62
1
  8
0
 10
-47.6763938044
 20
-139.846077615
 30
0.0
 11
-3.0922257211
 21
-151.910536758
 31
0.0
  0
LINE
 62
1
  8
0
 10
119.252782452
 20
-56.7879796806
 30
0.0
 11
98.0557324655
 21
-31.516947618
 31
0.0
  0
LINE
 62
1
  8
0
 10
-86.4688726243
 20
-182.34263164
 30
0.0
 11
-86.6659094975
 21
-117.654238334
 31
0.0
  0
LINE
 62
1
  8
0
 10
-131.588167351
 20
-220.715577716
 30
0.0
 11
-86.4688740078
 21
-182.342632713
 31
0.0
  0
LINE
 62
1
  8
0
 10
-14.608836378
 20
11.9224002142
 30
0.0
 11
-43.9609988465
 21
-58.6307821855
 31
0.0
  0
LINE
 62
1
  8
0
 10
-93.7888912513
 20
-236.745378445
 30
0.0
 11
-86.4688741202
 21
-182.342632581
 31
0.0
  0
LINE
 62
1
  8
0
 10
-0.52620104616
 20
-67.3900669159
 30
0.0
 11
-43.9609988353
 21
-58.6307821569
 31
0.0
  0
LINE
 62
1
  8
0
 10
28.7341089075
 20
90.021532313
 30
0.0
 11
50.2241978255
 21
47.4078752771
 31
0.0
  0
LINE
 62
1
  8
0
 10
-93.7888910114
 20
-236.745377879
 30
0.0
 11
-131.588167479
 21
-220.715578414
 31
0.0
  0
LINE
 62
1
  8
0
 10
177.827359971
 20
7.74106077772
 30
0.0
 11
170.159117727
 21
-39.0063932897
 31
0.0
  0
LINE
 62
1
  8
0
 10
-47.6763938098
 20
-139.846077635
 30
0.0
 11
-40.0794029524
 21
-191.14812703
 31
0.0
  0
LINE
 62
1
  8
0
 10
128.03566695
 20
60.8658100477
 30
0.0
 11
98.0557325284
 21
-31.5169481789
 31
0.0
  0
LINE
 62
1
  8
0
 10
-126.643933868
 20
-8.7789811219
 30
0.0
 11
-101.721989533
 21
64.7633877766
 31
0.0
  0
LINE
 62
1
  8
0
 10
177.827359912
 20
7.74106071547
 30
0.0
 11
214.736029019
 21
-27.7604878573
 31
0.0
  0
ENDSEC
  0
EOF
