  0
SECTION
  2
HEADER
  9
$ACADVER
  1
AC1009
  9
$EXTMIN
 10
0.0
 20
0.0
 30
0.0
  9
$EXTMAX
 10
100.0
 20
100.0
 30
0.0
  9
$INSBASE
 10
0.0
 20
0.0
 30
0.0
  0
ENDSEC
  0
SECTION
  2
TABLES
  0
TABLE
  2
LTYPE
 70
19
  0
LTYPE
  2
PHANTOM
 70
0
  3
Phantom ______  __  __  ______  __  __  ______
 72
65
 73
6
 40
2.5
 49
1.25
 49
-0.25
 49
0.25
 49
-0.25
 49
0.25
 49
-0.25
  0
LTYPE
  2
DOT2
 70
0
  3
Dot (.5) . . . . . . . . . . . . . . . . . . . 
 72
65
 73
2
 40
0.1
 49
0.0
 49
-0.1
  0
LTYPE
  2
DIVIDE
 70
0
  3
Divide __ . . __ . . __ . . __ . . __ . . __
 72
65
 73
6
 40
1.6
 49
1.0
 49
-0.2
 49
0.0
 49
-0.2
 49
0.0
 49
-0.2
  0
LTYPE
  2
DIVIDEX2
 70
0
  3
Divide (2x) ____  . .  ____  . .  ____  . .  ____
 72
65
 73
6
 40
2.6
 49
2.0
 49
-0.2
 49
0.0
 49
-0.2
 49
0.0
 49
-0.2
  0
LTYPE
  2
CENTER
 70
0
  3
Center ____ _ ____ _ ____ _ ____ _ ____ _ ____
 72
65
 73
4
 40
2.0
 49
1.25
 49
-0.25
 49
0.25
 49
-0.25
  0
LTYPE
  2
DASHDOT
 70
0
  3
Dash dot __ . __ . __ . __ . __ . __ . __ . __
 72
65
 73
4
 40
1.4
 49
1.0
 49
-0.2
 49
0.0
 49
-0.2
  0
LTYPE
  2
CENTERX2
 70
0
  3
Center (2x) ________  __  ________  __  ________
 72
65
 73
4
 40
3.5
 49
2.5
 49
-0.25
 49
0.5
 49
-0.25
  0
LTYPE
  2
PHANTOMX2
 70
0
  3
Phantom (2x)____________    ____    ____    ____________
 72
65
 73
6
 40
4.25
 49
2.5
 49
-0.25
 49
0.5
 49
-0.25
 49
0.5
 49
-0.25
  0
LTYPE
  2
CONTINUOUS
 70
0
  3
Solid
 72
65
 73
0
 40
0.0
  0
LTYPE
  2
PHANTOM2
 70
0
  3
Phantom (.5x) ___ _ _ ___ _ _ ___ _ _ ___ _ _ ___
 72
65
 73
6
 40
1.25
 49
0.625
 49
-0.125
 49
0.125
 49
-0.125
 49
0.125
 49
-0.125
  0
LTYPE
  2
DASHED
 70
0
  3
Dashed __ __ __ __ __ __ __ __ __ __ __ __ __ _
 72
65
 73
2
 40
0.6
 49
0.5
 49
-0.1
  0
LTYPE
  2
DASHED2
 70
0
  3
Dashed (.5x) _ _ _ _ _ _ _ _ _ _ _ _ _ _
 72
65
 73
2
 40
0.3
 49
0.25
 49
-0.05
  0
LTYPE
  2
DASHDOT2
 70
0
  3
Dash dot (.5x) _ . _ . _ . _ . _ . _ . _ . _
 72
65
 73
4
 40
0.7
 49
0.5
 49
-0.1
 49
0.0
 49
-0.1
  0
LTYPE
  2
DOTX2
 70
0
  3
Dot (2x) .    .    .    .    .    .    .    . 
 72
65
 73
2
 40
0.4
 49
0.0
 49
-0.4
  0
LTYPE
  2
DIVIDE2
 70
0
  3
Divide(.5x) _ . _ . _ . _ . _ . _ . _ . _
 72
65
 73
6
 40
0.8
 49
0.5
 49
-0.1
 49
0.0
 49
-0.1
 49
0.0
 49
-0.1
  0
LTYPE
  2
CENTER2
 70
0
  3
Center (.5x) ____ _ ____ _ ____ _ ____ _ ____
 72
65
 73
4
 40
1.0
 49
0.625
 49
-0.125
 49
0.125
 49
-0.125
  0
LTYPE
  2
DASHDOTX2
 70
0
  3
Dash dot (2x) ____  .  ____  .  ____  .  ____
 72
65
 73
4
 40
2.4
 49
2.0
 49
-0.2
 49
0.0
 49
-0.2
  0
LTYPE
  2
DOT
 70
0
  3
Dot .  .  .  .  .  .  .  .  .  .  .  .  .  .  .  .
 72
65
 73
2
 40
0.2
 49
0.0
 49
-0.2
  0
LTYPE
  2
DASHEDX2
 70
0
  3
Dashed (2x) ____  ____  ____  ____  ____  ____
 72
65
 73
2
 40
1.2
 49
1.0
 49
-0.2
  0
ENDTAB
  0
TABLE
  2
LAYER
 70
5
  0
LAYER
  2
VIEWPORTS
 70
0
 62
7
  6
CONTINUOUS
  0
LAYER
  2
TABLEGRID
 70
0
 62
1
  6
CONTINUOUS
  0
LAYER
  2
TABLECONTENT
 70
0
 62
1
  6
CONTINUOUS
  0
LAYER
  2
DIMENSIONS
 70
0
 62
1
  6
CONTINUOUS
  0
LAYER
  2
TABLEBACKGROUND
 70
0
 62
1
  6
CONTINUOUS
  0
ENDTAB
  0
TABLE
  2
STYLE
 70
12
  0
STYLE
  2
TIMES
 70
0
 40
0.0
 41
1.0
 42
1.0
 50
0.0
 71
0
  3
times.ttf
  4

  0
STYLE
  2
ARIAL
 70
0
 40
0.0
 41
1.0
 42
1.0
 50
0.0
 71
0
  3
arial.ttf
  4

  0
STYLE
  2
TIMES_BOLD
 70
0
 40
0.0
 41
1.0
 42
1.0
 50
0.0
 71
0
  3
timesbd.ttf
  4

  0
STYLE
  2
ARIAL_BLACK
 70
0
 40
0.0
 41
1.0
 42
1.0
 50
0.0
 71
0
  3
ariblk.ttf
  4

  0
STYLE
  2
TIMES_ITALIC
 70
0
 40
0.0
 41
1.0
 42
1.0
 50
0.0
 71
0
  3
timesi.ttf
  4

  0
STYLE
  2
ISOCPEUR
 70
0
 40
0.0
 41
1.0
 42
1.0
 50
0.0
 71
0
  3
isocpeur.ttf
  4

  0
STYLE
  2
ARIAL_BOLD
 70
0
 40
0.0
 41
1.0
 42
1.0
 50
0.0
 71
0
  3
arialbd.ttf
  4

  0
STYLE
  2
ARIAL_ITALIC
 70
0
 40
0.0
 41
1.0
 42
1.0
 50
0.0
 71
0
  3
ariali.ttf
  4

  0
STYLE
  2
ARIAL_BOLD_ITALIC
 70
0
 40
0.0
 41
1.0
 42
1.0
 50
0.0
 71
0
  3
arialbi.ttf
  4

  0
STYLE
  2
TIMES_BOLD_ITALIC
 70
0
 40
0.0
 41
1.0
 42
1.0
 50
0.0
 71
0
  3
timesbi.ttf
  4

  0
STYLE
  2
ISOCPEUR_ITALIC
 70
0
 40
0.0
 41
1.0
 42
1.0
 50
0.0
 71
0
  3
isocpeui.ttf
  4

  0
STYLE
  2
STANDARD
 70
0
 40
0.0
 41
1.0
 42
1.0
 50
0.0
 71
0
  3
arial.ttf
  4

  0
ENDTAB
  0
TABLE
  2
VIEW
 70
0
  0
ENDTAB
  0
TABLE
  2
APPID
 70
1
  0
APPID
  2
DXFWRITE
 70
0
  0
ENDTAB
  0
TABLE
  2
VPORT
 70
0
  0
ENDTAB
  0
TABLE
  2
UCS
 70
0
  0
ENDTAB
  0
ENDSEC
  0
SECTION
  2
BLOCKS
  0
ENDSEC
  0
SECTION
  2
ENTITIES
  0
VIEWPORT
  8
VIEWPORTS
 67
1
 10
0.0
 20
0.0
 30
0.0
 40
1.0
 41
1.0
 68
1
 69
1
1001
ACAD
1000
MVIEW
1002
{
1070
16
1010
0.0
1020
0.0
1030
0.0
1010
0.0
1020
0.0
1030
0.0
1040
0.0
1040
1.0
1040
0.0
1040
0.0
1040
50.0
1040
0.0
1040
0.0
1070
0
1070
100
1070
1
1070
3
1070
0
1070
0
1070
0
1070
0
1040
0.0
1040
0.0
1040
0.0
1040
0.1
1040
0.1
1040
0.1
1040
0.1
1070
0
1002
{
1002
}
1002
}
  0
LINE
 62
0
  8
0
 10
98.0557325424
 20
-31.5169481834
 30
0.0
 11
128.035666936
 21
60.8658100523
 31
0.0
  0
LINE
 62
0
  8
0
 10
70.536887153
 20
-78.9159008313
 30
0.0
 11
38.9255301071
 21
-28.8750933302
 31
0.0
  0
LINE
 62
0
  8
0
 10
58.4975517449
 20
-109.624114597
 30
0.0
 11
38.9255301105
 21
-28.8750933294
 31
0.0
  0
LINE
 62
0
  8
0
 10
-43.960998843
 20
-58.6307821952
 30
0.0
 11
-0.526201038435
 21
-67.3900668776
 31
0.0
  0
LINE
 62
0
  8
0
 10
-16.8746096108
 20
105.968964049
 30
0.0
 11
-63.2480040033
 21
64.0665518369
 31
0.0
  0
LINE
 62
0
  8
0
 10
-449.832524731
 20
-152.100081428
 30
0.0
 11
-497.653374984
 21
-106.717459757
 31
0.0
  0
LINE
 62
0
  8
0
 10
-43.9609988186
 20
-58.6307821971
 30
0.0
 11
-14.608836406
 21
11.9224002258
 31
0.0
  0
LINE
 62
0
  8
0
 10
128.035666936
 20
60.8658100523
 30
0.0
 11
49.5263422019
 21
48.6541307893
 31
0.0
  0
LINE
 62
0
  8
0
 10
-116.339486631
 20
-169.70403587
 30
0.0
 11
-93.3255824075
 21
-123.228507314
 31
0.0
  0
LINE
 62
0
  8
0
 10
-231.987253694
 20
-2.03293604407
 30
0.0
 11
-190.489583933
 21
29.1773581199
 31
0.0
  0
LINE
 62
0
  8
0
 10
-442.410307177
 20
-60.4507752532
 30
0.0
 11
-481.485932109
 21
-101.125739489
 31
0.0
  0
LINE
 62
0
  8
0
 10
32.0263045884
 20
-147.473451302
 30
0.0
 11
82.8640214293
 21
-157.727284174
 31
0.0
  0
LINE
 62
0
  8
0
 10
-490.745602292
 20
-154.537523308
 30
0.0
 11
-532.420352002
 21
-130.089802181
 31
0.0
  0
LINE
 62
0
  8
0
 10
-497.653374984
 20
-106.717459757
 30
0.0
 11
-490.745603006
 21
-154.537523727
 31
0.0
  0
LINE
 62
0
  8
0
 10
170.159117452
 20
-39.0063932446
 30
0.0
 11
177.827360246
 21
7.74106073263
 31
0.0
  0
LINE
 62
0
  8
0
 10
-43.9609988465
 20
-58.6307821855
 30
0.0
 11
38.9255295343
 21
-28.8750927454
 31
0.0
  0
LINE
 62
0
  8
0
 10
-548.342911181
 20
-222.806370268
 30
0.0
 11
-477.881386682
 21
-200.496849307
 31
0.0
  0
LINE
 62
0
  8
0
 10
-307.720527093
 20
-42.8442459841
 30
0.0
 11
-257.411317141
 21
-0.202518341345
 31
0.0
  0
LINE
 62
0
  8
0
 10
-63.2480040173
 20
64.0665518239
 30
0.0
 11
-74.2194118691
 21
-20.8499445516
 31
0.0
  0
LINE
 62
0
  8
0
 10
-442.410307185
 20
-60.4507752555
 30
0.0
 11
-421.999675521
 21
-129.644829594
 31
0.0
  0
LINE
 62
0
  8
0
 10
-372.147865926
 20
-18.9478815256
 30
0.0
 11
-344.907069628
 21
-41.1834318642
 31
0.0
  0
LINE
 62
0
  8
0
 10
-112.699780587
 20
-82.7649374376
 30
0.0
 11
-43.9609980949
 21
-58.6307816175
 31
0.0
  0
LINE
 62
0
  8
0
 10
49.5263421922
 20
48.65413079
 30
0.0
 11
-14.608836373
 21
11.9224002208
 31
0.0
  0
LINE
 62
0
  8
0
 10
-238.557768812
 20
63.7849179758
 30
0.0
 11
-288.350982224
 21
36.8490600156
 31
0.0
  0
LINE
 62
0
  8
0
 10
-442.410307031
 20
-60.4507754659
 30
0.0
 11
-475.622580034
 21
-23.7276551059
 31
0.0
  0
LINE
 62
0
  8
0
 10
228.517850278
 20
37.9515628594
 30
0.0
 11
160.801355075
 21
42.8006855336
 31
0.0
  0
LINE
 62
0
  8
0
 10
-481.485932103
 20
-101.125739477
 30
0.0
 11
-449.83252485
 21
-152.100081676
 31
0.0
  0
LINE
 62
0
  8
0
 10
-14.608836406
 20
11.9224002258
 30
0.0
 11
-74.219411888
 21
-20.8499445172
 31
0.0
  0
LINE
 62
0
  8
0
 10
214.736029019
 20
-27.7604878573
 30
0.0
 11
229.324379071
 21
36.5552457165
 31
0.0
  0
LINE
 62
0
  8
0
 10
-454.683484521
 20
-12.4819129471
 30
0.0
 11
-442.410307223
 21
-60.4507754102
 31
0.0
  0
LINE
 62
0
  8
0
 10
-481.485932109
 20
-101.125739489
 30
0.0
 11
-421.999675529
 21
-129.644829596
 31
0.0
  0
LINE
 62
0
  8
0
 10
-411.066496405
 20
-157.501387245
 30
0.0
 11
-421.999675506
 21
-129.644829643
 31
0.0
  0
LINE
 62
0
  8
0
 10
-245.061135452
 20
23.2454804135
 30
0.0
 11
-190.48958391
 21
29.177357906
 31
0.0
  0
LINE
 62
0
  8
0
 10
177.827359512
 20
7.74106139961
 30
0.0
 11
160.801355174
 21
42.8006855817
 31
0.0
  0
LINE
 62
0
  8
0
 10
-238.557768049
 20
63.7849179709
 30
0.0
 11
-190.489584011
 21
29.1773577653
 31
0.0
  0
LINE
 62
0
  8
0
 10
98.0557325432
 20
-31.5169481829
 30
0.0
 11
49.526342201
 21
48.6541307888
 31
0.0
  0
LINE
 62
0
  8
0
 10
-257.411317141
 20
-0.202518341345
 30
0.0
 11
-273.716449251
 21
23.3619299072
 31
0.0
  0
LINE
 62
0
  8
0
 10
-16.8746092608
 20
105.968963662
 30
0.0
 11
-58.103062558
 21
125.205177541
 31
0.0
  0
LINE
 62
0
  8
0
 10
-490.745602274
 20
-154.537523324
 30
0.0
 11
-548.342911181
 21
-222.806370268
 31
0.0
  0
LINE
 62
0
  8
0
 10
-532.420352002
 20
-130.089802181
 30
0.0
 11
-548.342911163
 21
-222.806370284
 31
0.0
  0
LINE
 62
0
  8
0
 10
-187.920408079
 20
-17.9704852588
 30
0.0
 11
-190.489583335
 21
29.1773573239
 31
0.0
  0
LINE
 62
0
  8
0
 10
-449.832524719
 20
-152.100081623
 30
0.0
 11
-490.745603018
 21
-154.537523532
 31
0.0
  0
LINE
 62
0
  8
0
 10
229.324379071
 20
36.5552457165
 30
0.0
 11
177.827359912
 21
7.74106071547
 31
0.0
  0
LINE
 62
0
  8
0
 10
-513.163532818
 20
-133.780707161
 30
0.0
 11
-449.832524698
 21
-152.100081581
 31
0.0
  0
LINE
 62
0
  8
0
 10
-421.999675521
 20
-129.644829594
 30
0.0
 11
-372.111341763
 21
-85.6051065953
 31
0.0
  0
LINE
 62
0
  8
0
 10
204.990584192
 20
87.1792259259
 30
0.0
 11
160.801355071
 21
42.8006854889
 31
0.0
  0
LINE
 62
0
  8
0
 10
-231.987254293
 20
-2.03293524811
 30
0.0
 11
-187.920408079
 21
-17.9704852588
 31
0.0
  0
LINE
 62
0
  8
0
 10
-243.201712219
 20
120.925532499
 30
0.0
 11
-238.557768068
 21
63.7849180669
 31
0.0
  0
LINE
 62
0
  8
0
 10
-481.485932255
 20
-101.125739572
 30
0.0
 11
-513.163532818
 21
-133.780707161
 31
0.0
  0
LINE
 62
0
  8
0
 10
-245.061135429
 20
23.2454801996
 30
0.0
 11
-231.987253694
 21
-2.03293604407
 31
0.0
  0
LINE
 62
0
  8
0
 10
-149.426042416
 20
-136.017249915
 30
0.0
 11
-116.339486631
 21
-169.70403587
 31
0.0
  0
LINE
 62
0
  8
0
 10
119.252782753
 20
-56.7879794275
 30
0.0
 11
160.80135516
 21
42.8006855874
 31
0.0
  0
LINE
 62
0
  8
0
 10
58.4975517484
 20
-109.624114596
 30
0.0
 11
70.536887153
 21
-78.9159008313
 31
0.0
  0
LINE
 62
0
  8
0
 10
-288.350980719
 20
36.8490607524
 30
0.0
 11
-344.907069602
 21
-41.1834318831
 31
0.0
  0
LINE
 62
0
  8
0
 10
-86.5948734853
 20
94.6550600655
 30
0.0
 11
-63.2480044097
 21
64.0665522289
 31
0.0
  0
LINE
 62
0
  8
0
 10
-288.350981394
 20
36.8490609164
 30
0.0
 11
-307.720527191
 21
-42.8442459339
 31
0.0
  0
LINE
 62
0
  8
0
 10
-74.2194126117
 20
-20.8499450968
 30
0.0
 11
-112.699780587
 21
-82.7649374376
 31
0.0
  0
LINE
 62
0
  8
0
 10
38.9255295293
 20
-28.875092752
 30
0.0
 11
49.5263421922
 21
48.65413079
 31
0.0
  0
LINE
 62
0
  8
0
 10
-93.3255825911
 20
-123.228507291
 30
0.0
 11
-13.2752834139
 21
-90.5947240029
 31
0.0
  0
LINE
 62
0
  8
0
 10
119.252782005
 20
-56.7879787548
 30
0.0
 11
170.159117452
 21
-39.0063932446
 31
0.0
  0
LINE
 62
0
  8
0
 10
-288.350982224
 20
36.8490600156
 30
0.0
 11
-273.716448323
 21
23.3619307578
 31
0.0
  0
LINE
 62
0
  8
0
 10
-372.147865883
 20
-18.9478815041
 30
0.0
 11
-454.683484521
 21
-12.4819129471
 31
0.0
  0
LINE
 62
0
  8
0
 10
-146.967718145
 20
-16.1713909625
 30
0.0
 11
-74.2194114155
 21
-20.8499446014
 31
0.0
  0
LINE
 62
0
  8
0
 10
-126.643933838
 20
-8.77898120524
 30
0.0
 11
-186.783284634
 21
34.8124077124
 31
0.0
  0
LINE
 62
0
  8
0
 10
-288.350980825
 20
36.8490609327
 30
0.0
 11
-344.698298111
 21
31.3824001046
 31
0.0
  0
LINE
 62
0
  8
0
 10
-442.410307234
 20
-60.4507753925
 30
0.0
 11
-372.111341714
 21
-85.6051064583
 31
0.0
  0
LINE
 62
0
  8
0
 10
-238.55776815
 20
63.7849178302
 30
0.0
 11
-245.061135452
 21
23.2454804135
 31
0.0
  0
LINE
 62
0
  8
0
 10
160.801354795
 20
42.8006858953
 30
0.0
 11
128.03566695
 21
60.8658100477
 31
0.0
  0
LINE
 62
0
  8
0
 10
-273.716448379
 20
23.361930806
 30
0.0
 11
-245.061134846
 21
23.2454803162
 31
0.0
  0
LINE
 62
0
  8
0
 10
-58.1030625016
 20
125.205177537
 30
0.0
 11
-86.5948734853
 21
94.6550600655
 31
0.0
  0
LINE
 62
0
  8
0
 10
228.517850349
 20
37.9515629365
 30
0.0
 11
252.693527349
 21
66.25587057
 31
0.0
  0
LINE
 62
0
  8
0
 10
32.0263045712
 20
-147.47345129
 30
0.0
 11
58.4975517645
 21
-109.62411457
 31
0.0
  0
LINE
 62
0
  8
0
 10
-518.573853789
 20
-81.9013006374
 30
0.0
 11
-481.485932227
 21
-101.125739375
 31
0.0
  0
LINE
 62
0
  8
0
 10
-449.832524864
 20
-152.100081539
 30
0.0
 11
-477.881385794
 21
-200.496849183
 31
0.0
  0
LINE
 62
0
  8
0
 10
-344.907069602
 20
-41.1834318831
 30
0.0
 11
-307.720527866
 21
-42.8442457698
 31
0.0
  0
LINE
 62
0
  8
0
 10
-172.977081608
 20
77.0799131729
 30
0.0
 11
-190.48958399
 21
29.1773577576
 31
0.0
  0
LINE
 62
0
  8
0
 10
-232.156058679
 20
-30.4916112405
 30
0.0
 11
-187.920407934
 21
-17.9704848599
 31
0.0
  0
LINE
 62
0
  8
0
 10
196.577500596
 20
94.2031198166
 30
0.0
 11
128.035666951
 21
60.8658100491
 31
0.0
  0
LINE
 62
0
  8
0
 10
-449.83252485
 20
-152.100081676
 30
0.0
 11
-421.999675535
 21
-129.644829608
 31
0.0
  0
LINE
 62
0
  8
0
 10
-307.720527191
 20
-42.8442459339
 30
0.0
 11
-273.716449153
 21
23.361929857
 31
0.0
  0
LINE
 62
0
  8
0
 10
-238.557768757
 20
63.7849179276
 30
0.0
 11
-273.716448379
 21
23.361930806
 31
0.0
  0
LINE
 62
0
  8
0
 10
-0.526201038435
 20
-67.3900668776
 30
0.0
 11
38.9255295308
 21
-28.8750927356
 31
0.0
  0
LINE
 62
0
  8
0
 10
-101.721989533
 20
64.7633877766
 30
0.0
 11
-172.977081593
 21
77.079913181
 31
0.0
  0
LINE
 62
0
  8
0
 10
-13.2752834139
 20
-90.5947240029
 30
0.0
 11
-43.960998216
 21
-58.6307812618
 31
0.0
  0
LINE
 62
0
  8
0
 10
228.517850281
 20
37.951562904
 30
0.0
 11
204.990584192
 21
87.1792259259
 31
0.0
  0
LINE
 62
0
  8
0
 10
-372.147865873
 20
-18.9478815218
 30
0.0
 11
-442.410307234
 21
-60.4507753925
 31
0.0
  0
LINE
 62
0
  8
0
 10
-14.6088364249
 20
11.9224002602
 30
0.0
 11
-63.2480040173
 21
64.0665518239
 31
0.0
  0
LINE
 62
0
  8
0
 10
170.159117727
 20
-39.0063932897
 30
0.0
 11
214.736028959
 21
-27.7604879195
 31
0.0
  0
LINE
 62
0
  8
0
 10
252.693527349
 20
66.25587057
 30
0.0
 11
204.990584124
 21
87.1792258935
 31
0.0
  0
LINE
 62
0
  8
0
 10
38.9255295205
 20
-28.8750927507
 30
0.0
 11
98.0557325432
 21
-31.5169481829
 31
0.0
  0
LINE
 62
0
  8
0
 10
-442.410307059
 20
-60.4507753665
 30
0.0
 11
-518.573853789
 21
-81.9013006374
 31
0.0
  0
LINE
 62
0
  8
0
 10
-449.832524878
 20
-152.100081641
 30
0.0
 11
-411.066496405
 21
-157.501387245
 31
0.0
  0
LINE
 62
0
  8
0
 10
38.9255295343
 20
-28.8750927454
 30
0.0
 11
-14.608836378
 21
11.9224002142
 31
0.0
  0
LINE
 62
0
  8
0
 10
-101.721989545
 20
64.7633877809
 30
0.0
 11
-126.643933856
 21
-8.77898112618
 31
0.0
  0
LINE
 62
0
  8
0
 10
-490.745603018
 20
-154.537523532
 30
0.0
 11
-477.881385938
 21
-200.496849099
 31
0.0
  0
LINE
 62
0
  8
0
 10
-372.111341664
 20
-85.6051064583
 30
0.0
 11
-344.907069631
 21
-41.183431868
 31
0.0
  0
LINE
 62
0
  8
0
 10
-126.643933864
 20
-8.77898111914
 30
0.0
 11
-74.2194114174
 21
-20.84994461
 31
0.0
  0
LINE
 62
0
  8
0
 10
-372.147865923
 20
-18.9478815219
 30
0.0
 11
-372.111341664
 21
-85.6051064583
 31
0.0
  0
LINE
 62
0
  8
0
 10
-112.699780618
 20
-82.7649378725
 30
0.0
 11
-149.426042395
 21
-136.017250009
 31
0.0
  0
LINE
 62
0
  8
0
 10
-74.219411888
 20
-20.8499445172
 30
0.0
 11
-43.9609988186
 21
-58.6307821971
 31
0.0
  0
LINE
 62
0
  8
0
 10
214.736028959
 20
-27.7604879195
 30
0.0
 11
177.827359971
 21
7.74106077772
 31
0.0
  0
LINE
 62
0
  8
0
 10
-186.783284634
 20
34.8124077124
 30
0.0
 11
-146.967718173
 21
-16.171390885
 31
0.0
  0
LINE
 62
0
  8
0
 10
-93.3255825859
 20
-123.228507295
 30
0.0
 11
-43.9609982212
 21
-58.6307812578
 31
0.0
  0
LINE
 62
0
  8
0
 10
-231.987254437
 20
-2.03293564706
 30
0.0
 11
-232.156058679
 21
-30.4916112405
 31
0.0
  0
LINE
 62
0
  8
0
 10
160.801354795
 20
42.8006858939
 30
0.0
 11
196.577500596
 21
94.2031198166
 31
0.0
  0
LINE
 62
0
  8
0
 10
-149.426042395
 20
-136.017250009
 30
0.0
 11
-93.325582429
 21
-123.22850722
 31
0.0
  0
LINE
 62
0
  8
0
 10
98.0557321638
 20
-31.516947871
 30
0.0
 11
119.252782753
 21
-56.7879794275
 31
0.0
  0
LINE
 62
0
  8
0
 10
-58.103062558
 20
125.205177541
 30
0.0
 11
-63.2480043533
 21
64.0665522242
 31
0.0
  0
LINE
 62
0
  8
0
 10
-0.526201637729
 20
-67.3900663112
 30
0.0
 11
32.0263045712
 21
-147.47345129
 31
0.0
  0
LINE
 62
0
  8
0
 10
-172.977081587
 20
77.0799131653
 30
0.0
 11
-238.557768049
 21
63.7849179709
 31
0.0
  0
LINE
 62
0
  8
0
 10
-63.248004477
 20
64.0665518893
 30
0.0
 11
-101.721989545
 21
64.7633877809
 31
0.0
  0
LINE
 62
0
  8
0
 10
119.25278274
 20
-56.7879794217
 30
0.0
 11
177.827359512
 21
7.74106139961
 31
0.0
  0
LINE
 62
0
  8
0
 10
-477.881385794
 20
-200.496849183
 30
0.0
 11
-411.066496419
 21
-157.501387347
 31
0.0
  0
LINE
 62
0
  8
0
 10
-63.2480044689
 20
64.0665518822
 30
0.0
 11
-126.643933864
 21
-8.77898111914
 31
0.0
  0
LINE
 62
0
  8
0
 10
-126.643933866
 20
-8.77898112773
 30
0.0
 11
-146.967718145
 21
-16.1713909625
 31
0.0
  0
LINE
 62
0
  8
0
 10
-475.622580034
 20
-23.7276551059
 30
0.0
 11
-518.573853817
 21
-81.9013005381
 31
0.0
  0
LINE
 62
0
  8
0
 10
-288.350980693
 20
36.8490607335
 30
0.0
 11
-372.147865926
 21
-18.9478815256
 31
0.0
  0
LINE
 62
0
  8
0
 10
98.0557325284
 20
-31.5169481789
 30
0.0
 11
160.801354795
 21
42.8006858953
 31
0.0
  0
LINE
 62
0
  8
0
 10
-172.977081567
 20
77.0799130694
 30
0.0
 11
-243.201712219
 21
120.925532499
 31
0.0
  0
LINE
 62
0
  8
0
 10
-190.48958399
 20
29.1773577576
 30
0.0
 11
-126.643933853
 21
-8.77898111386
 31
0.0
  0
LINE
 62
0
  8
0
 10
-0.526201618136
 20
-67.3900662838
 30
0.0
 11
58.4975517449
 21
-109.624114597
 31
0.0
  0
LINE
 62
0
  8
0
 10
196.577500646
 20
94.203119714
 30
0.0
 11
130.123017118
 21
90.7181999352
 31
0.0
  0
LINE
 62
0
  8
0
 10
-344.698298111
 20
31.3824001046
 30
0.0
 11
-372.147865793
 21
-18.9478817248
 31
0.0
  0
LINE
 62
0
  8
0
 10
-14.6088364388
 20
11.9224002472
 30
0.0
 11
-16.8746096108
 21
105.968964049
 31
0.0
  0
LINE
 62
0
  8
0
 10
177.827359611
 20
7.74106144775
 30
0.0
 11
228.517850278
 21
37.9515628594
 31
0.0
  0
LINE
 62
0
  8
0
 10
-172.977081593
 20
77.079913181
 30
0.0
 11
-126.643933868
 21
-8.7789811219
 31
0.0
  0
LINE
 62
0
  8
0
 10
130.123017118
 20
90.7181999352
 30
0.0
 11
128.035666901
 21
60.8658101517
 31
0.0
  0
LINE
 62
0
  8
0
 10
82.8640214293
 20
-157.727284174
 30
0.0
 11
58.4975517473
 21
-109.624114558
 31
0.0
  0
LINE
 62
0
  8
0
 10
-112.699780461
 20
-82.7649377973
 30
0.0
 11
-93.3255825859
 21
-123.228507295
 31
0.0
  0
LINE
 62
1
  8
0
 10
204.990584124
 20
87.1792258935
 30
0.0
 11
228.517850349
 21
37.9515629365
 31
0.0
  0
LINE
 62
1
  8
0
 10
-63.2480043533
 20
64.0665522242
 30
0.0
 11
-16.8746092608
 21
105.968963662
 31
0.0
  0
LINE
 62
1
  8
0
 10
177.827360246
 20
7.74106073263
 30
0.0
 11
119.252782005
 21
-56.7879787548
 31
0.0
  0
LINE
 62
1
  8
0
 10
-43.960998216
 20
-58.6307812618
 30
0.0
 11
-93.3255825911
 21
-123.228507291
 31
0.0
  0
LINE
 62
1
  8
0
 10
-63.2480040033
 20
64.0665518369
 30
0.0
 11
-14.6088364388
 21
11.9224002472
 31
0.0
  0
LINE
 62
1
  8
0
 10
-93.3255824075
 20
-123.228507314
 30
0.0
 11
-149.426042416
 21
-136.017249915
 31
0.0
  0
LINE
 62
1
  8
0
 10
-421.999675535
 20
-129.644829608
 30
0.0
 11
-481.485932103
 21
-101.125739477
 31
0.0
  0
LINE
 62
1
  8
0
 10
-481.485932227
 20
-101.125739375
 30
0.0
 11
-442.410307059
 21
-60.4507753665
 31
0.0
  0
LINE
 62
1
  8
0
 10
-63.2480044097
 20
64.0665522289
 30
0.0
 11
-58.1030625016
 21
125.205177537
 31
0.0
  0
LINE
 62
1
  8
0
 10
58.4975517645
 20
-109.62411457
 30
0.0
 11
-0.526201637729
 21
-67.3900663112
 31
0.0
  0
LINE
 62
1
  8
0
 10
-190.489583933
 20
29.1773581199
 30
0.0
 11
-245.061135429
 21
23.2454801996
 31
0.0
  0
LINE
 62
1
  8
0
 10
160.801355071
 20
42.8006854889
 30
0.0
 11
228.517850281
 21
37.951562904
 31
0.0
  0
LINE
 62
1
  8
0
 10
-43.9609980949
 20
-58.6307816175
 30
0.0
 11
-74.2194126117
 21
-20.8499450968
 31
0.0
  0
LINE
 62
1
  8
0
 10
-74.2194114174
 20
-20.84994461
 30
0.0
 11
-63.2480044689
 21
64.0665518822
 31
0.0
  0
LINE
 62
1
  8
0
 10
-344.907069628
 20
-41.1834318642
 30
0.0
 11
-288.350980693
 21
36.8490607335
 31
0.0
  0
LINE
 62
1
  8
0
 10
-307.720527866
 20
-42.8442457698
 30
0.0
 11
-288.350980719
 21
36.8490607524
 31
0.0
  0
LINE
 62
1
  8
0
 10
-372.147865793
 20
-18.9478817248
 30
0.0
 11
-288.350980825
 21
36.8490609327
 31
0.0
  0
LINE
 62
1
  8
0
 10
-245.061134846
 20
23.2454803162
 30
0.0
 11
-238.557768757
 21
63.7849179276
 31
0.0
  0
LINE
 62
1
  8
0
 10
128.03566695
 20
60.8658100477
 30
0.0
 11
98.0557325284
 21
-31.5169481789
 31
0.0
  0
LINE
 62
1
  8
0
 10
128.035666951
 20
60.8658100491
 30
0.0
 11
160.801354795
 21
42.8006858939
 31
0.0
  0
LINE
 62
1
  8
0
 10
-187.920407934
 20
-17.9704848599
 30
0.0
 11
-231.987254437
 21
-2.03293564706
 31
0.0
  0
LINE
 62
1
  8
0
 10
-43.9609982212
 20
-58.6307812578
 30
0.0
 11
-112.699780461
 21
-82.7649377973
 31
0.0
  0
LINE
 62
1
  8
0
 10
-14.608836373
 20
11.9224002208
 30
0.0
 11
38.9255295293
 21
-28.875092752
 31
0.0
  0
LINE
 62
1
  8
0
 10
58.4975517473
 20
-109.624114558
 30
0.0
 11
32.0263045884
 21
-147.473451302
 31
0.0
  0
LINE
 62
1
  8
0
 10
177.827359971
 20
7.74106077772
 30
0.0
 11
170.159117727
 21
-39.0063932897
 31
0.0
  0
LINE
 62
1
  8
0
 10
-442.410307223
 20
-60.4507754102
 30
0.0
 11
-372.147865883
 21
-18.9478815041
 31
0.0
  0
LINE
 62
1
  8
0
 10
-238.557768068
 20
63.7849180669
 30
0.0
 11
-172.977081567
 21
77.0799130694
 31
0.0
  0
LINE
 62
1
  8
0
 10
-190.489584011
 20
29.1773577653
 30
0.0
 11
-172.977081587
 21
77.0799131653
 31
0.0
  0
LINE
 62
1
  8
0
 10
-372.111341763
 20
-85.6051065953
 30
0.0
 11
-442.410307185
 21
-60.4507752555
 31
0.0
  0
LINE
 62
1
  8
0
 10
49.526342201
 20
48.6541307888
 30
0.0
 11
38.9255295205
 21
-28.8750927507
 31
0.0
  0
LINE
 62
1
  8
0
 10
-411.066496419
 20
-157.501387347
 30
0.0
 11
-449.832524864
 21
-152.100081539
 31
0.0
  0
LINE
 62
1
  8
0
 10
-126.643933853
 20
-8.77898111386
 30
0.0
 11
-172.977081608
 21
77.0799131729
 31
0.0
  0
LINE
 62
1
  8
0
 10
-190.489583335
 20
29.1773573239
 30
0.0
 11
-231.987254293
 21
-2.03293524811
 31
0.0
  0
LINE
 62
1
  8
0
 10
-477.881386682
 20
-200.496849307
 30
0.0
 11
-490.745602274
 21
-154.537523324
 31
0.0
  0
LINE
 62
1
  8
0
 10
38.9255295308
 20
-28.8750927356
 30
0.0
 11
-43.960998843
 21
-58.6307821952
 31
0.0
  0
LINE
 62
1
  8
0
 10
-74.2194118691
 20
-20.8499445516
 30
0.0
 11
-14.6088364249
 21
11.9224002602
 31
0.0
  0
LINE
 62
1
  8
0
 10
-344.907069631
 20
-41.183431868
 30
0.0
 11
-372.147865923
 21
-18.9478815219
 31
0.0
  0
LINE
 62
1
  8
0
 10
-273.716449153
 20
23.361929857
 30
0.0
 11
-288.350981394
 21
36.8490609164
 31
0.0
  0
LINE
 62
1
  8
0
 10
-273.716448323
 20
23.3619307578
 30
0.0
 11
-238.557768812
 21
63.7849179758
 31
0.0
  0
LINE
 62
1
  8
0
 10
-518.573853817
 20
-81.9013005381
 30
0.0
 11
-442.410307031
 21
-60.4507754659
 31
0.0
  0
LINE
 62
1
  8
0
 10
-126.643933856
 20
-8.77898112618
 30
0.0
 11
-63.248004477
 21
64.0665518893
 31
0.0
  0
LINE
 62
1
  8
0
 10
38.9255301105
 20
-28.8750933294
 30
0.0
 11
-0.526201618136
 21
-67.3900662838
 31
0.0
  0
LINE
 62
1
  8
0
 10
38.9255301071
 20
-28.8750933302
 30
0.0
 11
58.4975517484
 21
-109.624114596
 31
0.0
  0
LINE
 62
1
  8
0
 10
160.80135516
 20
42.8006855874
 30
0.0
 11
98.0557321638
 21
-31.516947871
 31
0.0
  0
LINE
 62
1
  8
0
 10
-477.881385938
 20
-200.496849099
 30
0.0
 11
-449.832524719
 21
-152.100081623
 31
0.0
  0
LINE
 62
1
  8
0
 10
-146.967718173
 20
-16.171390885
 30
0.0
 11
-126.643933838
 21
-8.77898120524
 31
0.0
  0
LINE
 62
1
  8
0
 10
49.5263422019
 20
48.6541307893
 30
0.0
 11
98.0557325424
 21
-31.5169481834
 31
0.0
  0
LINE
 62
1
  8
0
 10
-273.716449251
 20
23.3619299072
 30
0.0
 11
-307.720527093
 21
-42.8442459841
 31
0.0
  0
LINE
 62
1
  8
0
 10
160.801355174
 20
42.8006855817
 30
0.0
 11
119.25278274
 21
-56.7879794217
 31
0.0
  0
LINE
 62
1
  8
0
 10
-490.745603006
 20
-154.537523727
 30
0.0
 11
-449.832524731
 21
-152.100081428
 31
0.0
  0
LINE
 62
1
  8
0
 10
160.801355075
 20
42.8006855336
 30
0.0
 11
177.827359611
 21
7.74106144775
 31
0.0
  0
LINE
 62
1
  8
0
 10
-190.48958391
 20
29.177357906
 30
0.0
 11
-238.55776815
 21
63.7849178302
 31
0.0
  0
LINE
 62
1
  8
0
 10
-14.608836378
 20
11.9224002142
 30
0.0
 11
-43.9609988465
 21
-58.6307821855
 31
0.0
  0
LINE
 62
1
  8
0
 10
-449.832524698
 20
-152.100081581
 30
0.0
 11
-481.485932255
 21
-101.125739572
 31
0.0
  0
LINE
 62
1
  8
0
 10
-548.342911163
 20
-222.806370284
 30
0.0
 11
-490.745602292
 21
-154.537523308
 31
0.0
  0
LINE
 62
1
  8
0
 10
-372.111341714
 20
-85.6051064583
 30
0.0
 11
-372.147865873
 21
-18.9478815218
 31
0.0
  0
LINE
 62
1
  8
0
 10
-421.999675506
 20
-129.644829643
 30
0.0
 11
-449.832524878
 21
-152.100081641
 31
0.0
  0
LINE
 62
1
  8
0
 10
128.035666901
 20
60.8658101517
 30
0.0
 11
196.577500646
 21
94.203119714
 31
0.0
  0
LINE
 62
1
  8
0
 10
-74.2194114155
 20
-20.8499446014
 30
0.0
 11
-126.643933866
 21
-8.77898112773
 31
0.0
  0
LINE
 62
1
  8
0
 10
-93.325582429
 20
-123.22850722
 30
0.0
 11
-112.699780618
 21
-82.7649378725
 31
0.0
  0
LINE
 62
1
  8
0
 10
-421.999675529
 20
-129.644829596
 30
0.0
 11
-442.410307177
 21
-60.4507752532
 31
0.0
  0
LINE
 62
1
  8
0
 10
-126.643933868
 20
-8.7789811219
 30
0.0
 11
-101.721989533
 21
64.7633877766
 31
0.0
  0
LINE
 62
1
  8
0
 10
177.827359912
 20
7.74106071547
 30
0.0
 11
214.736029019
 21
-27.7604878573
 31
0.0
  0
ENDSEC
  0
EOF
