  0
SECTION
  2
HEADER
  9
$ANGBASE
 50
0.0
  9
$EXTMAX
 10
100.0
 20
100.0
 30
0.0
  9
$INSBASE
 10
0.0
 20
0.0
 30
0.0
  9
$AUNITS
 70
0
  9
$ACADVER
  1
AC1009
  9
$UNITMODE
 70
0
  9
$EXTMIN
 10
0.0
 20
0.0
 30
0.0
  9
$ANGDIR
 70
0
  0
ENDSEC
  0
SECTION
  2
TABLES
  0
TABLE
  2
LTYPE
 70
19
  0
LTYPE
  2
PHANTOM
 70
0
  3
Phantom ______  __  __  ______  __  __  ______
 72
65
 73
6
 40
2.5
 49
1.25
 49
-0.25
 49
0.25
 49
-0.25
 49
0.25
 49
-0.25
  0
LTYPE
  2
DOT2
 70
0
  3
Dot (.5) . . . . . . . . . . . . . . . . . . . 
 72
65
 73
2
 40
0.1
 49
0.0
 49
-0.1
  0
LTYPE
  2
DIVIDE
 70
0
  3
Divide __ . . __ . . __ . . __ . . __ . . __
 72
65
 73
6
 40
1.6
 49
1.0
 49
-0.2
 49
0.0
 49
-0.2
 49
0.0
 49
-0.2
  0
LTYPE
  2
DIVIDEX2
 70
0
  3
Divide (2x) ____  . .  ____  . .  ____  . .  ____
 72
65
 73
6
 40
2.6
 49
2.0
 49
-0.2
 49
0.0
 49
-0.2
 49
0.0
 49
-0.2
  0
LTYPE
  2
CENTER
 70
0
  3
Center ____ _ ____ _ ____ _ ____ _ ____ _ ____
 72
65
 73
4
 40
2.0
 49
1.25
 49
-0.25
 49
0.25
 49
-0.25
  0
LTYPE
  2
DASHDOT
 70
0
  3
Dash dot __ . __ . __ . __ . __ . __ . __ . __
 72
65
 73
4
 40
1.4
 49
1.0
 49
-0.2
 49
0.0
 49
-0.2
  0
LTYPE
  2
CENTERX2
 70
0
  3
Center (2x) ________  __  ________  __  ________
 72
65
 73
4
 40
3.5
 49
2.5
 49
-0.25
 49
0.5
 49
-0.25
  0
LTYPE
  2
PHANTOMX2
 70
0
  3
Phantom (2x)____________    ____    ____    ____________
 72
65
 73
6
 40
4.25
 49
2.5
 49
-0.25
 49
0.5
 49
-0.25
 49
0.5
 49
-0.25
  0
LTYPE
  2
CONTINUOUS
 70
0
  3
Solid
 72
65
 73
0
 40
0.0
  0
LTYPE
  2
PHANTOM2
 70
0
  3
Phantom (.5x) ___ _ _ ___ _ _ ___ _ _ ___ _ _ ___
 72
65
 73
6
 40
1.25
 49
0.625
 49
-0.125
 49
0.125
 49
-0.125
 49
0.125
 49
-0.125
  0
LTYPE
  2
DASHED
 70
0
  3
Dashed __ __ __ __ __ __ __ __ __ __ __ __ __ _
 72
65
 73
2
 40
0.6
 49
0.5
 49
-0.1
  0
LTYPE
  2
DASHED2
 70
0
  3
Dashed (.5x) _ _ _ _ _ _ _ _ _ _ _ _ _ _
 72
65
 73
2
 40
0.3
 49
0.25
 49
-0.05
  0
LTYPE
  2
DASHDOT2
 70
0
  3
Dash dot (.5x) _ . _ . _ . _ . _ . _ . _ . _
 72
65
 73
4
 40
0.7
 49
0.5
 49
-0.1
 49
0.0
 49
-0.1
  0
LTYPE
  2
DOTX2
 70
0
  3
Dot (2x) .    .    .    .    .    .    .    . 
 72
65
 73
2
 40
0.4
 49
0.0
 49
-0.4
  0
LTYPE
  2
DIVIDE2
 70
0
  3
Divide(.5x) _ . _ . _ . _ . _ . _ . _ . _
 72
65
 73
6
 40
0.8
 49
0.5
 49
-0.1
 49
0.0
 49
-0.1
 49
0.0
 49
-0.1
  0
LTYPE
  2
CENTER2
 70
0
  3
Center (.5x) ____ _ ____ _ ____ _ ____ _ ____
 72
65
 73
4
 40
1.0
 49
0.625
 49
-0.125
 49
0.125
 49
-0.125
  0
LTYPE
  2
DASHDOTX2
 70
0
  3
Dash dot (2x) ____  .  ____  .  ____  .  ____
 72
65
 73
4
 40
2.4
 49
2.0
 49
-0.2
 49
0.0
 49
-0.2
  0
LTYPE
  2
DOT
 70
0
  3
Dot .  .  .  .  .  .  .  .  .  .  .  .  .  .  .  .
 72
65
 73
2
 40
0.2
 49
0.0
 49
-0.2
  0
LTYPE
  2
DASHEDX2
 70
0
  3
Dashed (2x) ____  ____  ____  ____  ____  ____
 72
65
 73
2
 40
1.2
 49
1.0
 49
-0.2
  0
ENDTAB
  0
TABLE
  2
LAYER
 70
5
  0
LAYER
  2
VIEWPORTS
 70
0
 62
7
  6
CONTINUOUS
  0
LAYER
  2
TABLEGRID
 70
0
 62
1
  6
CONTINUOUS
  0
LAYER
  2
TABLECONTENT
 70
0
 62
1
  6
CONTINUOUS
  0
LAYER
  2
DIMENSIONS
 70
0
 62
1
  6
CONTINUOUS
  0
LAYER
  2
TABLEBACKGROUND
 70
0
 62
1
  6
CONTINUOUS
  0
ENDTAB
  0
TABLE
  2
STYLE
 70
12
  0
STYLE
  2
TIMES
 70
0
 40
0.0
 41
1.0
 42
1.0
 50
0.0
 71
0
  3
times.ttf
  4

  0
STYLE
  2
ARIAL
 70
0
 40
0.0
 41
1.0
 42
1.0
 50
0.0
 71
0
  3
arial.ttf
  4

  0
STYLE
  2
TIMES_BOLD
 70
0
 40
0.0
 41
1.0
 42
1.0
 50
0.0
 71
0
  3
timesbd.ttf
  4

  0
STYLE
  2
ARIAL_BLACK
 70
0
 40
0.0
 41
1.0
 42
1.0
 50
0.0
 71
0
  3
ariblk.ttf
  4

  0
STYLE
  2
TIMES_ITALIC
 70
0
 40
0.0
 41
1.0
 42
1.0
 50
0.0
 71
0
  3
timesi.ttf
  4

  0
STYLE
  2
ISOCPEUR
 70
0
 40
0.0
 41
1.0
 42
1.0
 50
0.0
 71
0
  3
isocpeur.ttf
  4

  0
STYLE
  2
ARIAL_BOLD
 70
0
 40
0.0
 41
1.0
 42
1.0
 50
0.0
 71
0
  3
arialbd.ttf
  4

  0
STYLE
  2
ARIAL_ITALIC
 70
0
 40
0.0
 41
1.0
 42
1.0
 50
0.0
 71
0
  3
ariali.ttf
  4

  0
STYLE
  2
ARIAL_BOLD_ITALIC
 70
0
 40
0.0
 41
1.0
 42
1.0
 50
0.0
 71
0
  3
arialbi.ttf
  4

  0
STYLE
  2
TIMES_BOLD_ITALIC
 70
0
 40
0.0
 41
1.0
 42
1.0
 50
0.0
 71
0
  3
timesbi.ttf
  4

  0
STYLE
  2
ISOCPEUR_ITALIC
 70
0
 40
0.0
 41
1.0
 42
1.0
 50
0.0
 71
0
  3
isocpeui.ttf
  4

  0
STYLE
  2
STANDARD
 70
0
 40
0.0
 41
1.0
 42
1.0
 50
0.0
 71
0
  3
arial.ttf
  4

  0
ENDTAB
  0
TABLE
  2
VIEW
 70
0
  0
ENDTAB
  0
TABLE
  2
APPID
 70
1
  0
APPID
  2
DXFWRITE
 70
0
  0
ENDTAB
  0
TABLE
  2
VPORT
 70
0
  0
ENDTAB
  0
TABLE
  2
UCS
 70
0
  0
ENDTAB
  0
ENDSEC
  0
SECTION
  2
BLOCKS
  0
ENDSEC
  0
SECTION
  2
ENTITIES
  0
VIEWPORT
  8
VIEWPORTS
 67
1
 10
0.0
 20
0.0
 30
0.0
 40
1.0
 41
1.0
 68
1
 69
1
1001
ACAD
1000
MVIEW
1002
{
1070
16
1010
0.0
1020
0.0
1030
0.0
1010
0.0
1020
0.0
1030
0.0
1040
0.0
1040
1.0
1040
0.0
1040
0.0
1040
50.0
1040
0.0
1040
0.0
1070
0
1070
100
1070
1
1070
3
1070
0
1070
0
1070
0
1070
0
1040
0.0
1040
0.0
1040
0.0
1040
0.1
1040
0.1
1040
0.1
1040
0.1
1070
0
1002
{
1002
}
1002
}
  0
LINE
 62
0
  8
0
 10
-0.019797614448
 20
0.520060345162
 30
0.0
 11
-0.514885858523
 21
-0.368050601827
 31
0.0
  0
LINE
 62
1
  8
0
 10
-0.514885858523
 20
-0.368050601827
 30
0.0
 11
0.515722693197
 21
-0.376656020815
 31
0.0
  0
LINE
 62
1
  8
0
 10
0.515722693197
 20
-0.376656020815
 30
0.0
 11
-0.019797614448
 21
0.520060345162
 31
0.0
  0
LINE
 62
1
  8
0
 10
-0.514885852785
 20
-0.368050600691
 30
0.0
 11
-0.663705447243
 21
-1.22579462023
 31
0.0
  0
LINE
 62
1
  8
0
 10
-0.663705447243
 20
-1.22579462023
 30
0.0
 11
-0.0465755082934
 21
-1.29559577687
 31
0.0
  0
LINE
 62
1
  8
0
 10
-0.0465755082934
 20
-1.29559577687
 30
0.0
 11
-0.514885852785
 21
-0.368050600691
 31
0.0
  0
LINE
 62
1
  8
0
 10
-1.39454778946
 20
-0.0792904782005
 30
0.0
 11
-0.514885847877
 21
-0.368050600906
 31
0.0
  0
LINE
 62
0
  8
0
 10
-0.514885847877
 20
-0.368050600906
 30
0.0
 11
-0.864117732541
 21
0.586878985146
 31
0.0
  0
LINE
 62
0
  8
0
 10
-0.864117732541
 20
0.586878985146
 30
0.0
 11
-1.39454778946
 21
-0.0792904782005
 31
0.0
  0
LINE
 62
0
  8
0
 10
-0.663705447131
 20
-1.22579461924
 30
0.0
 11
-0.382924252137
 21
-1.61475119379
 31
0.0
  0
LINE
 62
1
  8
0
 10
-0.382924252137
 20
-1.61475119379
 30
0.0
 11
-0.0465755084054
 21
-1.29559577786
 31
0.0
  0
LINE
 62
1
  8
0
 10
-0.0465755084054
 20
-1.29559577786
 30
0.0
 11
-0.663705447131
 21
-1.22579461924
 31
0.0
  0
LINE
 62
1
  8
0
 10
-2.17621778088
 20
0.532469865847
 30
0.0
 11
-1.39454778602
 21
-0.0792904791343
 31
0.0
  0
LINE
 62
0
  8
0
 10
-1.39454778602
 20
-0.0792904791343
 30
0.0
 11
-1.54889021804
 21
0.758155765622
 31
0.0
  0
LINE
 62
0
  8
0
 10
-1.54889021804
 20
0.758155765622
 30
0.0
 11
-2.17621778088
 21
0.532469865847
 31
0.0
  0
LINE
 62
1
  8
0
 10
-1.39454778938
 20
-0.0792904779658
 30
0.0
 11
-1.4359618087
 21
-1.10983974693
 31
0.0
  0
LINE
 62
1
  8
0
 10
-1.4359618087
 20
-1.10983974693
 30
0.0
 11
-0.514885847954
 21
-0.368050601141
 31
0.0
  0
LINE
 62
1
  8
0
 10
-0.514885847954
 20
-0.368050601141
 30
0.0
 11
-1.39454778938
 21
-0.0792904779658
 31
0.0
  0
LINE
 62
0
  8
0
 10
-1.43596180906
 20
-1.10983974648
 30
0.0
 11
-0.663705452438
 21
-1.22579461933
 31
0.0
  0
LINE
 62
1
  8
0
 10
-0.663705452438
 20
-1.22579461933
 30
0.0
 11
-0.51488584759
 21
-0.368050601592
 31
0.0
  0
LINE
 62
1
  8
0
 10
-0.51488584759
 20
-0.368050601592
 30
0.0
 11
-1.43596180906
 21
-1.10983974648
 31
0.0
  0
LINE
 62
1
  8
0
 10
-2.37181655033
 20
-0.365088607208
 30
0.0
 11
-1.39454778722
 21
-0.0792904806637
 31
0.0
  0
LINE
 62
1
  8
0
 10
-1.39454778722
 20
-0.0792904806637
 30
0.0
 11
-2.17621777969
 21
0.532469867377
 31
0.0
  0
LINE
 62
1
  8
0
 10
-2.17621777969
 20
0.532469867377
 30
0.0
 11
-2.37181655033
 21
-0.365088607208
 31
0.0
  0
LINE
 62
1
  8
0
 10
-2.37181654956
 20
-0.365088609849
 30
0.0
 11
-1.43596181009
 21
-1.10983974687
 31
0.0
  0
LINE
 62
1
  8
0
 10
-1.43596181009
 20
-1.10983974687
 30
0.0
 11
-1.39454778799
 21
-0.0792904780219
 31
0.0
  0
LINE
 62
1
  8
0
 10
-1.39454778799
 20
-0.0792904780219
 30
0.0
 11
-2.37181654956
 21
-0.365088609849
 31
0.0
  0
LINE
 62
0
  8
0
 10
-1.80601935838
 20
-1.80640616352
 30
0.0
 11
-1.1111340891
 21
-2.08681214104
 31
0.0
  0
LINE
 62
0
  8
0
 10
-1.1111340891
 20
-2.08681214104
 30
0.0
 11
-0.885319394554
 21
-1.66357105126
 31
0.0
  0
LINE
 62
1
  8
0
 10
-0.885319394554
 20
-1.66357105126
 30
0.0
 11
-1.80601935838
 21
-1.80640616352
 31
0.0
  0
LINE
 62
1
  8
0
 10
-2.3718165492
 20
-0.3650886094
 30
0.0
 11
-2.35207265083
 21
-1.32212251366
 31
0.0
  0
LINE
 62
1
  8
0
 10
-2.35207265083
 20
-1.32212251366
 30
0.0
 11
-1.43596181045
 21
-1.10983974732
 31
0.0
  0
LINE
 62
1
  8
0
 10
-1.43596181045
 20
-1.10983974732
 30
0.0
 11
-2.3718165492
 21
-0.3650886094
 31
0.0
  0
LINE
 62
1
  8
0
 10
-1.43596180611
 20
-1.10983975601
 30
0.0
 11
-1.80601935839
 21
-1.80640616341
 31
0.0
  0
LINE
 62
1
  8
0
 10
-1.80601935839
 20
-1.80640616341
 30
0.0
 11
-0.885319394538
 21
-1.66357105137
 31
0.0
  0
LINE
 62
0
  8
0
 10
-0.885319394538
 20
-1.66357105137
 30
0.0
 11
-1.43596180611
 21
-1.10983975601
 31
0.0
  0
LINE
 62
0
  8
0
 10
-2.60793254982
 20
0.416047248589
 30
0.0
 11
-2.37181655023
 21
-0.365088607229
 31
0.0
  0
LINE
 62
1
  8
0
 10
-2.37181655023
 20
-0.365088607229
 30
0.0
 11
-2.17621777978
 21
0.532469867397
 31
0.0
  0
LINE
 62
1
  8
0
 10
-2.17621777978
 20
0.532469867397
 30
0.0
 11
-2.60793254982
 21
0.416047248589
 31
0.0
  0
LINE
 62
1
  8
0
 10
-1.80601935574
 20
-1.80640616482
 30
0.0
 11
-1.43596180876
 21
-1.1098397546
 31
0.0
  0
LINE
 62
1
  8
0
 10
-1.43596180876
 20
-1.1098397546
 30
0.0
 11
-2.35207265252
 21
-1.32212250639
 31
0.0
  0
LINE
 62
1
  8
0
 10
-2.35207265252
 20
-1.32212250639
 30
0.0
 11
-1.80601935574
 21
-1.80640616482
 31
0.0
  0
LINE
 62
1
  8
0
 10
-1.95123987568
 20
-2.34686218355
 30
0.0
 11
-1.60757022792
 21
-2.68970840507
 31
0.0
  0
LINE
 62
1
  8
0
 10
-1.60757022792
 20
-2.68970840507
 30
0.0
 11
-1.39213345618
 21
-2.57286247397
 31
0.0
  0
LINE
 62
0
  8
0
 10
-1.39213345618
 20
-2.57286247397
 30
0.0
 11
-1.95123987568
 21
-2.34686218355
 31
0.0
  0
LINE
 62
0
  8
0
 10
-1.95123987175
 20
-2.34686218979
 30
0.0
 11
-1.35066513789
 21
-2.40150748831
 31
0.0
  0
LINE
 62
0
  8
0
 10
-1.35066513789
 20
-2.40150748831
 30
0.0
 11
-1.80601936056
 21
-1.80640616787
 31
0.0
  0
LINE
 62
1
  8
0
 10
-1.80601936056
 20
-1.80640616787
 30
0.0
 11
-1.95123987175
 21
-2.34686218979
 31
0.0
  0
LINE
 62
0
  8
0
 10
-3.24275273339
 20
-0.754859875625
 30
0.0
 11
-2.3520726539
 21
-1.32212251373
 31
0.0
  0
LINE
 62
1
  8
0
 10
-2.3520726539
 20
-1.32212251373
 30
0.0
 11
-2.37181654614
 21
-0.365088609337
 31
0.0
  0
LINE
 62
1
  8
0
 10
-2.37181654614
 20
-0.365088609337
 30
0.0
 11
-3.24275273339
 21
-0.754859875625
 31
0.0
  0
LINE
 62
0
  8
0
 10
-3.10644071818
 20
-0.00976999823538
 30
0.0
 11
-3.24275273371
 21
-0.754859874929
 31
0.0
  0
LINE
 62
1
  8
0
 10
-3.24275273371
 20
-0.754859874929
 30
0.0
 11
-2.37181654582
 21
-0.365088610034
 31
0.0
  0
LINE
 62
0
  8
0
 10
-2.37181654582
 20
-0.365088610034
 30
0.0
 11
-3.10644071818
 21
-0.00976999823538
 31
0.0
  0
LINE
 62
1
  8
0
 10
-3.35436641098
 20
-1.65454561523
 30
0.0
 11
-3.15612292703
 21
-2.30571837816
 31
0.0
  0
LINE
 62
1
  8
0
 10
-3.15612292703
 20
-2.30571837816
 30
0.0
 11
-2.35207265286
 21
-1.32212250075
 31
0.0
  0
LINE
 62
0
  8
0
 10
-2.35207265286
 20
-1.32212250075
 30
0.0
 11
-3.35436641098
 21
-1.65454561523
 31
0.0
  0
LINE
 62
1
  8
0
 10
-2.59942425839
 20
-2.55392191775
 30
0.0
 11
-1.80601935885
 21
-1.80640616833
 31
0.0
  0
LINE
 62
1
  8
0
 10
-1.80601935885
 20
-1.80640616833
 30
0.0
 11
-2.35207264941
 21
-1.32212250288
 31
0.0
  0
LINE
 62
1
  8
0
 10
-2.35207264941
 20
-1.32212250288
 30
0.0
 11
-2.59942425839
 21
-2.55392191775
 31
0.0
  0
LINE
 62
1
  8
0
 10
-2.5994242584
 20
-2.55392191774
 30
0.0
 11
-1.95123987347
 21
-2.34686218933
 31
0.0
  0
LINE
 62
1
  8
0
 10
-1.95123987347
 20
-2.34686218933
 30
0.0
 11
-1.80601935884
 21
-1.80640616834
 31
0.0
  0
LINE
 62
1
  8
0
 10
-1.80601935884
 20
-1.80640616834
 30
0.0
 11
-2.5994242584
 21
-2.55392191774
 31
0.0
  0
LINE
 62
1
  8
0
 10
-2.59942425727
 20
-2.55392191797
 30
0.0
 11
-2.35207265053
 21
-1.32212250265
 31
0.0
  0
LINE
 62
1
  8
0
 10
-2.35207265053
 20
-1.32212250265
 30
0.0
 11
-3.15612292936
 21
-2.30571837625
 31
0.0
  0
LINE
 62
1
  8
0
 10
-3.15612292936
 20
-2.30571837625
 30
0.0
 11
-2.59942425727
 21
-2.55392191797
 31
0.0
  0
LINE
 62
1
  8
0
 10
-4.06461590015
 20
-1.39132413355
 30
0.0
 11
-4.1258932585
 21
-2.0569097048
 31
0.0
  0
LINE
 62
1
  8
0
 10
-4.1258932585
 20
-2.0569097048
 30
0.0
 11
-3.35436640705
 21
-1.65454561347
 31
0.0
  0
LINE
 62
0
  8
0
 10
-3.35436640705
 20
-1.65454561347
 30
0.0
 11
-4.06461590015
 21
-1.39132413355
 31
0.0
  0
LINE
 62
0
  8
0
 10
-1.97606158438
 20
-2.96933066319
 30
0.0
 11
-1.60757022701
 21
-2.68970840415
 31
0.0
  0
LINE
 62
1
  8
0
 10
-1.60757022701
 20
-2.68970840415
 30
0.0
 11
-1.95123987659
 21
-2.34686218446
 31
0.0
  0
LINE
 62
1
  8
0
 10
-1.95123987659
 20
-2.34686218446
 30
0.0
 11
-1.97606158438
 21
-2.96933066319
 31
0.0
  0
LINE
 62
1
  8
0
 10
-4.12589325875
 20
-2.05690970431
 30
0.0
 11
-3.15612293121
 21
-2.30571837943
 31
0.0
  0
LINE
 62
1
  8
0
 10
-3.15612293121
 20
-2.30571837943
 30
0.0
 11
-3.3543664068
 21
-1.65454561395
 31
0.0
  0
LINE
 62
1
  8
0
 10
-3.3543664068
 20
-1.65454561395
 30
0.0
 11
-4.12589325875
 21
-2.05690970431
 31
0.0
  0
LINE
 62
0
  8
0
 10
-2.59942425686
 20
-2.55392192255
 30
0.0
 11
-1.97606158597
 21
-2.96933066312
 31
0.0
  0
LINE
 62
1
  8
0
 10
-1.97606158597
 20
-2.96933066312
 30
0.0
 11
-1.95123987501
 21
-2.34686218453
 31
0.0
  0
LINE
 62
1
  8
0
 10
-1.95123987501
 20
-2.34686218453
 30
0.0
 11
-2.59942425686
 21
-2.55392192255
 31
0.0
  0
LINE
 62
0
  8
0
 10
-3.15612292835
 20
-2.30571837397
 30
0.0
 11
-3.26805802015
 21
-3.24860243882
 31
0.0
  0
LINE
 62
1
  8
0
 10
-3.26805802015
 20
-3.24860243882
 30
0.0
 11
-2.59942425828
 21
-2.55392192025
 31
0.0
  0
LINE
 62
1
  8
0
 10
-2.59942425828
 20
-2.55392192025
 30
0.0
 11
-3.15612292835
 21
-2.30571837397
 31
0.0
  0
LINE
 62
0
  8
0
 10
-2.75160060991
 20
-3.46840161558
 30
0.0
 11
-2.2668719981
 21
-3.22515543772
 31
0.0
  0
LINE
 62
0
  8
0
 10
-2.2668719981
 20
-3.22515543772
 30
0.0
 11
-2.59942425933
 21
-2.55392192041
 31
0.0
  0
LINE
 62
1
  8
0
 10
-2.59942425933
 20
-2.55392192041
 30
0.0
 11
-2.75160060991
 21
-3.46840161558
 31
0.0
  0
LINE
 62
0
  8
0
 10
-3.26805802057
 20
-3.24860243842
 30
0.0
 11
-2.75160061138
 21
-3.46840161534
 31
0.0
  0
LINE
 62
1
  8
0
 10
-2.75160061138
 20
-3.46840161534
 30
0.0
 11
-2.59942425786
 21
-2.55392192065
 31
0.0
  0
LINE
 62
1
  8
0
 10
-2.59942425786
 20
-2.55392192065
 30
0.0
 11
-3.26805802057
 21
-3.24860243842
 31
0.0
  0
LINE
 62
1
  8
0
 10
-4.12589325811
 20
-2.0569097018
 30
0.0
 11
-3.869889166
 21
-2.93189534375
 31
0.0
  0
LINE
 62
0
  8
0
 10
-3.869889166
 20
-2.93189534375
 30
0.0
 11
-3.15612293186
 21
-2.30571838194
 31
0.0
  0
LINE
 62
1
  8
0
 10
-3.15612293186
 20
-2.30571838194
 30
0.0
 11
-4.12589325811
 21
-2.0569097018
 31
0.0
  0
LINE
 62
0
  8
0
 10
-4.31277719641
 20
-1.43397203233
 30
0.0
 11
-4.12589325634
 21
-2.056909705
 31
0.0
  0
LINE
 62
1
  8
0
 10
-4.12589325634
 20
-2.056909705
 30
0.0
 11
-4.06461590231
 21
-1.39132413336
 31
0.0
  0
LINE
 62
1
  8
0
 10
-4.06461590231
 20
-1.39132413336
 30
0.0
 11
-4.31277719641
 21
-1.43397203233
 31
0.0
  0
LINE
 62
0
  8
0
 10
-4.6543249885
 20
-2.2681329226
 30
0.0
 11
-4.42929204574
 21
-2.75326054601
 31
0.0
  0
LINE
 62
1
  8
0
 10
-4.42929204574
 20
-2.75326054601
 30
0.0
 11
-4.12589326195
 21
-2.0569097017
 31
0.0
  0
LINE
 62
1
  8
0
 10
-4.12589326195
 20
-2.0569097017
 30
0.0
 11
-4.6543249885
 21
-2.2681329226
 31
0.0
  0
LINE
 62
0
  8
0
 10
-4.42929204742
 20
-2.75326054527
 30
0.0
 11
-3.86988916385
 21
-2.93189534312
 31
0.0
  0
LINE
 62
1
  8
0
 10
-3.86988916385
 20
-2.93189534312
 30
0.0
 11
-4.12589326026
 21
-2.05690970243
 31
0.0
  0
LINE
 62
1
  8
0
 10
-4.12589326026
 20
-2.05690970243
 30
0.0
 11
-4.42929204742
 21
-2.75326054527
 31
0.0
  0
LINE
 62
1
  8
0
 10
-0.0465754979586
 20
-1.29559577589
 30
0.0
 11
0.0565295578553
 21
-1.75474339608
 31
0.0
  0
LINE
 62
0
  8
0
 10
0.0565295578553
 20
-1.75474339608
 30
0.0
 11
0.509486425344
 21
-1.66091075572
 31
0.0
  0
LINE
 62
1
  8
0
 10
0.509486425344
 20
-1.66091075572
 30
0.0
 11
-0.0465754979586
 21
-1.29559577589
 31
0.0
  0
LINE
 62
1
  8
0
 10
1.37070844303
 20
-1.00544362814
 30
0.0
 11
0.515722683569
 21
-0.376656019186
 31
0.0
  0
LINE
 62
1
  8
0
 10
0.515722683569
 20
-0.376656019186
 30
0.0
 11
0.867022547557
 21
-1.25311367556
 31
0.0
  0
LINE
 62
0
  8
0
 10
0.867022547557
 20
-1.25311367556
 30
0.0
 11
1.37070844303
 21
-1.00544362814
 31
0.0
  0
LINE
 62
0
  8
0
 10
1.27699869154
 20
-0.425736409143
 30
0.0
 11
0.515722683472
 21
-0.376656019319
 31
0.0
  0
LINE
 62
1
  8
0
 10
0.515722683472
 20
-0.376656019319
 30
0.0
 11
1.37070844313
 21
-1.00544362801
 31
0.0
  0
LINE
 62
0
  8
0
 10
1.37070844313
 20
-1.00544362801
 30
0.0
 11
1.27699869154
 21
-0.425736409143
 31
0.0
  0
LINE
 62
1
  8
0
 10
0.515722689533
 20
-0.376656016796
 30
0.0
 11
-0.0465754988627
 21
-1.29559577621
 31
0.0
  0
LINE
 62
1
  8
0
 10
-0.0465754988627
 20
-1.29559577621
 30
0.0
 11
0.867022541593
 21
-1.25311367795
 31
0.0
  0
LINE
 62
1
  8
0
 10
0.867022541593
 20
-1.25311367795
 30
0.0
 11
0.515722689533
 21
-0.376656016796
 31
0.0
  0
LINE
 62
1
  8
0
 10
-0.0465754988169
 20
-1.2955957772
 30
0.0
 11
0.509486426203
 21
-1.66091075441
 31
0.0
  0
LINE
 62
0
  8
0
 10
0.509486426203
 20
-1.66091075441
 30
0.0
 11
0.867022541547
 21
-1.25311367696
 31
0.0
  0
LINE
 62
1
  8
0
 10
0.867022541547
 20
-1.25311367696
 30
0.0
 11
-0.0465754988169
 21
-1.2955957772
 31
0.0
  0
LINE
 62
1
  8
0
 10
-4.12589326291
 20
-2.05690969929
 30
0.0
 11
-4.86922385132
 21
-1.55174748853
 31
0.0
  0
LINE
 62
1
  8
0
 10
-4.86922385132
 20
-1.55174748853
 30
0.0
 11
-4.65432498754
 21
-2.26813292501
 31
0.0
  0
LINE
 62
1
  8
0
 10
-4.65432498754
 20
-2.26813292501
 30
0.0
 11
-4.12589326291
 21
-2.05690969929
 31
0.0
  0
LINE
 62
1
  8
0
 10
-4.61104926314
 20
-1.62378084291
 30
0.0
 11
-4.86922385035
 21
-1.5517474871
 31
0.0
  0
LINE
 62
1
  8
0
 10
-4.86922385035
 20
-1.5517474871
 30
0.0
 11
-4.12589326388
 21
-2.05690970072
 31
0.0
  0
LINE
 62
0
  8
0
 10
-4.12589326388
 20
-2.05690970072
 30
0.0
 11
-4.61104926314
 21
-1.62378084291
 31
0.0
  0
LINE
 62
1
  8
0
 10
0.740797994441
 20
0.64480839403
 30
0.0
 11
0.515722700231
 21
-0.37665601857
 31
0.0
  0
LINE
 62
0
  8
0
 10
0.515722700231
 20
-0.37665601857
 30
0.0
 11
1.02467991902
 21
0.19159796915
 31
0.0
  0
LINE
 62
0
  8
0
 10
1.02467991902
 20
0.19159796915
 30
0.0
 11
0.740797994441
 21
0.64480839403
 31
0.0
  0
LINE
 62
1
  8
0
 10
-0.0197976190891
 20
0.52006034239
 30
0.0
 11
0.515722697838
 21
-0.376656018043
 31
0.0
  0
LINE
 62
1
  8
0
 10
0.515722697838
 20
-0.376656018043
 30
0.0
 11
0.740797996835
 21
0.644808393503
 31
0.0
  0
LINE
 62
0
  8
0
 10
0.740797996835
 20
0.644808393503
 30
0.0
 11
-0.0197976190891
 21
0.52006034239
 31
0.0
  0
LINE
 62
0
  8
0
 10
-2.4610450143
 20
0.503846595093
 30
0.0
 11
-2.60793254967
 21
0.416047248045
 31
0.0
  0
LINE
 62
1
  8
0
 10
-2.60793254967
 20
0.416047248045
 30
0.0
 11
-2.17621777993
 21
0.532469867941
 31
0.0
  0
LINE
 62
0
  8
0
 10
-2.17621777993
 20
0.532469867941
 30
0.0
 11
-2.4610450143
 21
0.503846595093
 31
0.0
  0
LINE
 62
0
  8
0
 10
-4.58391664155
 20
-1.52838851452
 30
0.0
 11
-4.86922385062
 21
-1.55174748806
 31
0.0
  0
LINE
 62
1
  8
0
 10
-4.86922385062
 20
-1.55174748806
 30
0.0
 11
-4.61104926287
 21
-1.62378084195
 31
0.0
  0
LINE
 62
0
  8
0
 10
-4.61104926287
 20
-1.62378084195
 30
0.0
 11
-4.58391664155
 21
-1.52838851452
 31
0.0
  0
LINE
 62
0
  8
0
 10
-4.23473507933
 20
-1.37277314969
 30
0.0
 11
-4.31277719641
 21
-1.43397203231
 31
0.0
  0
LINE
 62
1
  8
0
 10
-4.31277719641
 20
-1.43397203231
 30
0.0
 11
-4.06461590231
 21
-1.39132413338
 31
0.0
  0
LINE
 62
0
  8
0
 10
-4.06461590231
 20
-1.39132413338
 30
0.0
 11
-4.23473507933
 21
-1.37277314969
 31
0.0
  0
LINE
 62
1
  8
0
 10
-0.514885858538
 20
-0.368050603595
 30
0.0
 11
-0.0465755025409
 21
-1.29559577396
 31
0.0
  0
LINE
 62
1
  8
0
 10
-0.0465755025409
 20
-1.29559577396
 30
0.0
 11
0.515722693211
 21
-0.376656019046
 31
0.0
  0
LINE
 62
1
  8
0
 10
0.515722693211
 20
-0.376656019046
 30
0.0
 11
-0.514885858538
 21
-0.368050603595
 31
0.0
  0
LINE
 62
0
  8
0
 10
-5.37268058224
 20
-1.98878903851
 30
0.0
 11
-4.65432498765
 21
-2.26813292504
 31
0.0
  0
LINE
 62
1
  8
0
 10
-4.65432498765
 20
-2.26813292504
 30
0.0
 11
-4.8692238512
 21
-1.5517474885
 31
0.0
  0
LINE
 62
0
  8
0
 10
-4.8692238512
 20
-1.5517474885
 30
0.0
 11
-5.37268058224
 21
-1.98878903851
 31
0.0
  0
LINE
 62
0
  8
0
 10
-0.382924252295
 20
-1.61475119362
 30
0.0
 11
-0.261906897626
 21
-1.63688922944
 31
0.0
  0
LINE
 62
0
  8
0
 10
-0.261906897626
 20
-1.63688922944
 30
0.0
 11
-0.046575508248
 21
-1.29559577802
 31
0.0
  0
LINE
 62
1
  8
0
 10
-0.046575508248
 20
-1.29559577802
 30
0.0
 11
-0.382924252295
 21
-1.61475119362
 31
0.0
  0
LINE
 62
0
  8
0
 10
-1.60757022763
 20
-2.68970840561
 30
0.0
 11
-1.46950955628
 21
-2.66850886353
 31
0.0
  0
LINE
 62
0
  8
0
 10
-1.46950955628
 20
-2.66850886353
 30
0.0
 11
-1.39213345648
 21
-2.57286247342
 31
0.0
  0
LINE
 62
1
  8
0
 10
-1.39213345648
 20
-2.57286247342
 30
0.0
 11
-1.60757022763
 21
-2.68970840561
 31
0.0
  0
LINE
 62
0
  8
0
 10
-0.0465754977426
 20
-1.29559577584
 30
0.0
 11
-0.0712743913005
 21
-1.69838454417
 31
0.0
  0
LINE
 62
0
  8
0
 10
-0.0712743913005
 20
-1.69838454417
 30
0.0
 11
0.0565295576393
 21
-1.75474339612
 31
0.0
  0
LINE
 62
1
  8
0
 10
0.0565295576393
 20
-1.75474339612
 30
0.0
 11
-0.0465754977426
 21
-1.29559577584
 31
0.0
  0
TEXT
 62
1
  8
0
 10
0.0820380133114
 20
-0.118761117232
 30
0.0
 40
0.2
  1
0
  0
TEXT
 62
1
  8
0
 10
-1.06516775962
 20
-0.0279724135726
 30
0.0
 40
0.2
  1
0
  0
TEXT
 62
1
  8
0
 10
-0.816411954878
 20
0.00463452740247
 30
0.0
 40
0.2
  1
1
  0
TEXT
 62
1
  8
0
 10
-0.198990969093
 20
-1.18614896389
 30
0.0
 40
0.2
  1
2
  0
TEXT
 62
1
  8
0
 10
-1.86509391399
 20
0.266933135378
 30
0.0
 40
0.2
  1
1
  0
TEXT
 62
1
  8
0
 10
-1.72714696127
 20
0.268928791091
 30
0.0
 40
0.2
  1
3
  0
TEXT
 62
1
  8
0
 10
-0.990439130007
 20
-0.772251394088
 30
0.0
 40
0.2
  1
4
  0
TEXT
 62
1
  8
0
 10
-1.30889283194
 20
-1.57567151259
 30
0.0
 40
0.2
  1
5
  0
TEXT
 62
1
  8
0
 10
-1.35113809909
 20
-1.68690040168
 30
0.0
 40
0.2
  1
2
  0
TEXT
 62
1
  8
0
 10
-1.44427330177
 20
-1.66875591453
 30
0.0
 40
0.2
  1
4
  0
TEXT
 62
1
  8
0
 10
-2.10698436472
 20
0.141216548921
 30
0.0
 40
0.2
  1
6
  0
TEXT
 62
1
  8
0
 10
-1.82159010493
 20
-2.83071129933
 30
0.0
 40
0.2
  1
7
  0
TEXT
 62
1
  8
0
 10
-1.61470689577
 20
-1.97583040413
 30
0.0
 40
0.2
  1
7
  0
TEXT
 62
1
  8
0
 10
-1.89601408505
 20
-2.3470300778
 30
0.0
 40
0.2
  1
5
  0
TEXT
 62
1
  8
0
 10
-2.5825368119
 20
-0.701106613751
 30
0.0
 40
0.2
  1
8
  0
TEXT
 62
1
  8
0
 10
-2.78112717355
 20
-0.454299041335
 30
0.0
 40
0.2
  1
9
  0
TEXT
 62
1
  8
0
 10
-2.91329553024
 20
-0.547520808557
 30
0.0
 40
0.2
  1
6
  0
TEXT
 62
1
  8
0
 10
-2.72729953466
 20
-1.86799726965
 30
0.0
 40
0.2
  1
8
  0
TEXT
 62
1
  8
0
 10
-3.84849403248
 20
-1.89800579969
 30
0.0
 40
0.2
  1
9
  0
TEXT
 62
1
  8
0
 10
-2.03361280825
 20
-2.51087512698
 30
0.0
 40
0.2
  1
10
  0
TEXT
 62
1
  8
0
 10
-2.06592435097
 20
-2.42876517794
 30
0.0
 40
0.2
  1
11
  0
TEXT
 62
1
  8
0
 10
-2.81487970726
 20
-2.8243155396
 30
0.0
 40
0.2
  1
12
  0
TEXT
 62
1
  8
0
 10
-2.68864189091
 20
-2.98926819759
 30
0.0
 40
0.2
  1
13
  0
TEXT
 62
1
  8
0
 10
-2.79157115813
 20
-3.06711382368
 30
0.0
 40
0.2
  1
11
  0
TEXT
 62
1
  8
0
 10
-2.85318910859
 20
-2.99044789304
 30
0.0
 40
0.2
  1
14
  0
TEXT
 62
1
  8
0
 10
-3.77679694385
 20
-2.31811704966
 30
0.0
 40
0.2
  1
12
  0
TEXT
 62
1
  8
0
 10
-3.83620515888
 20
-1.63050022578
 30
0.0
 40
0.2
  1
15
  0
TEXT
 62
1
  8
0
 10
-4.1789464192
 20
-2.34237829237
 30
0.0
 40
0.2
  1
16
  0
TEXT
 62
1
  8
0
 10
-4.02791150503
 20
-2.46153438176
 30
0.0
 40
0.2
  1
17
  0
TEXT
 62
1
  8
0
 10
0.201868378912
 20
-1.31614306645
 30
0.0
 40
0.2
  1
10
  0
TEXT
 62
1
  8
0
 10
0.942363070977
 20
-0.770326156094
 30
0.0
 40
0.2
  1
14
  0
TEXT
 62
1
  8
0
 10
0.870625630076
 20
-0.800367489274
 30
0.0
 40
0.2
  1
18
  0
TEXT
 62
1
  8
0
 10
0.928979478662
 20
-0.779421469272
 30
0.0
 40
0.2
  1
17
  0
TEXT
 62
1
  8
0
 10
0.38748480823
 20
-1.19331238214
 30
0.0
 40
0.2
  1
13
  0
TEXT
 62
1
  8
0
 10
-4.63486178026
 20
-2.1387344348
 30
0.0
 40
0.2
  1
15
  0
TEXT
 62
1
  8
0
 10
0.472240167512
 20
0.174340152585
 30
0.0
 40
0.2
  1
18
  0
TEXT
 62
1
  8
0
 10
0.543750044052
 20
0.205867322441
 30
0.0
 40
0.2
  1
16
  0
TEXT
 62
1
  8
0
 10
0.425240646699
 20
0.187708294422
 30
0.0
 40
0.2
  1
19
  0
TEXT
 62
1
  8
0
 10
-2.32926339413
 20
0.116606652767
 30
0.0
 40
0.2
  1
20
  0
TEXT
 62
1
  8
0
 10
-2.27863546595
 20
0.120162847763
 30
0.0
 40
0.2
  1
21
  0
TEXT
 62
1
  8
0
 10
-4.69393023657
 20
-1.93873406428
 30
0.0
 40
0.2
  1
21
  0
TEXT
 62
1
  8
0
 10
-4.98222258837
 20
-1.46665245095
 30
0.0
 40
0.2
  1
22
  0
TEXT
 62
1
  8
0
 10
-4.02692668661
 20
-1.71813475834
 30
0.0
 40
0.2
  1
22
  0
TEXT
 62
1
  8
0
 10
-4.19303723497
 20
-1.7796913947
 30
0.0
 40
0.2
  1
20
  0
TEXT
 62
1
  8
0
 10
-4.86853177382
 20
-1.75565619917
 30
0.0
 40
0.2
  1
19
  0
TEXT
 62
1
  8
0
 10
-4.85873600421
 20
-2.07233225987
 30
0.0
 40
0.2
  1
3
  0
TEXT
 62
1
  8
0
 10
-0.250436930389
 20
-1.23234966025
 30
0.0
 40
0.2
  1
23
  0
TEXT
 62
1
  8
0
 10
-0.492536241906
 20
-1.25280289492
 30
0.0
 40
0.2
  1
24
  0
TEXT
 62
1
  8
0
 10
-1.59924929319
 20
-2.28374251488
 30
0.0
 40
0.2
  1
25
  0
TEXT
 62
1
  8
0
 10
-1.74180200952
 20
-2.36910839076
 30
0.0
 40
0.2
  1
23
  0
TEXT
 62
1
  8
0
 10
0.340325148061
 20
-1.52147206297
 30
0.0
 40
0.2
  1
24
  0
TEXT
 62
1
  8
0
 10
0.154023152152
 20
-1.3605701583
 30
0.0
 40
0.2
  1
25
  0
ENDSEC
  0
EOF
