  0
SECTION
  2
HEADER
  9
$ANGBASE
 50
0.0
  9
$EXTMAX
 10
100.0
 20
100.0
 30
0.0
  9
$INSBASE
 10
0.0
 20
0.0
 30
0.0
  9
$AUNITS
 70
0
  9
$ACADVER
  1
AC1009
  9
$UNITMODE
 70
0
  9
$EXTMIN
 10
0.0
 20
0.0
 30
0.0
  9
$ANGDIR
 70
0
  0
ENDSEC
  0
SECTION
  2
TABLES
  0
TABLE
  2
LTYPE
 70
19
  0
LTYPE
  2
PHANTOM
 70
0
  3
Phantom ______  __  __  ______  __  __  ______
 72
65
 73
6
 40
2.5
 49
1.25
 49
-0.25
 49
0.25
 49
-0.25
 49
0.25
 49
-0.25
  0
LTYPE
  2
DOT2
 70
0
  3
Dot (.5) . . . . . . . . . . . . . . . . . . . 
 72
65
 73
2
 40
0.1
 49
0.0
 49
-0.1
  0
LTYPE
  2
DIVIDE
 70
0
  3
Divide __ . . __ . . __ . . __ . . __ . . __
 72
65
 73
6
 40
1.6
 49
1.0
 49
-0.2
 49
0.0
 49
-0.2
 49
0.0
 49
-0.2
  0
LTYPE
  2
DIVIDEX2
 70
0
  3
Divide (2x) ____  . .  ____  . .  ____  . .  ____
 72
65
 73
6
 40
2.6
 49
2.0
 49
-0.2
 49
0.0
 49
-0.2
 49
0.0
 49
-0.2
  0
LTYPE
  2
CENTER
 70
0
  3
Center ____ _ ____ _ ____ _ ____ _ ____ _ ____
 72
65
 73
4
 40
2.0
 49
1.25
 49
-0.25
 49
0.25
 49
-0.25
  0
LTYPE
  2
DASHDOT
 70
0
  3
Dash dot __ . __ . __ . __ . __ . __ . __ . __
 72
65
 73
4
 40
1.4
 49
1.0
 49
-0.2
 49
0.0
 49
-0.2
  0
LTYPE
  2
CENTERX2
 70
0
  3
Center (2x) ________  __  ________  __  ________
 72
65
 73
4
 40
3.5
 49
2.5
 49
-0.25
 49
0.5
 49
-0.25
  0
LTYPE
  2
PHANTOMX2
 70
0
  3
Phantom (2x)____________    ____    ____    ____________
 72
65
 73
6
 40
4.25
 49
2.5
 49
-0.25
 49
0.5
 49
-0.25
 49
0.5
 49
-0.25
  0
LTYPE
  2
CONTINUOUS
 70
0
  3
Solid
 72
65
 73
0
 40
0.0
  0
LTYPE
  2
PHANTOM2
 70
0
  3
Phantom (.5x) ___ _ _ ___ _ _ ___ _ _ ___ _ _ ___
 72
65
 73
6
 40
1.25
 49
0.625
 49
-0.125
 49
0.125
 49
-0.125
 49
0.125
 49
-0.125
  0
LTYPE
  2
DASHED
 70
0
  3
Dashed __ __ __ __ __ __ __ __ __ __ __ __ __ _
 72
65
 73
2
 40
0.6
 49
0.5
 49
-0.1
  0
LTYPE
  2
DASHED2
 70
0
  3
Dashed (.5x) _ _ _ _ _ _ _ _ _ _ _ _ _ _
 72
65
 73
2
 40
0.3
 49
0.25
 49
-0.05
  0
LTYPE
  2
DASHDOT2
 70
0
  3
Dash dot (.5x) _ . _ . _ . _ . _ . _ . _ . _
 72
65
 73
4
 40
0.7
 49
0.5
 49
-0.1
 49
0.0
 49
-0.1
  0
LTYPE
  2
DOTX2
 70
0
  3
Dot (2x) .    .    .    .    .    .    .    . 
 72
65
 73
2
 40
0.4
 49
0.0
 49
-0.4
  0
LTYPE
  2
DIVIDE2
 70
0
  3
Divide(.5x) _ . _ . _ . _ . _ . _ . _ . _
 72
65
 73
6
 40
0.8
 49
0.5
 49
-0.1
 49
0.0
 49
-0.1
 49
0.0
 49
-0.1
  0
LTYPE
  2
CENTER2
 70
0
  3
Center (.5x) ____ _ ____ _ ____ _ ____ _ ____
 72
65
 73
4
 40
1.0
 49
0.625
 49
-0.125
 49
0.125
 49
-0.125
  0
LTYPE
  2
DASHDOTX2
 70
0
  3
Dash dot (2x) ____  .  ____  .  ____  .  ____
 72
65
 73
4
 40
2.4
 49
2.0
 49
-0.2
 49
0.0
 49
-0.2
  0
LTYPE
  2
DOT
 70
0
  3
Dot .  .  .  .  .  .  .  .  .  .  .  .  .  .  .  .
 72
65
 73
2
 40
0.2
 49
0.0
 49
-0.2
  0
LTYPE
  2
DASHEDX2
 70
0
  3
Dashed (2x) ____  ____  ____  ____  ____  ____
 72
65
 73
2
 40
1.2
 49
1.0
 49
-0.2
  0
ENDTAB
  0
TABLE
  2
LAYER
 70
5
  0
LAYER
  2
VIEWPORTS
 70
0
 62
7
  6
CONTINUOUS
  0
LAYER
  2
TABLEGRID
 70
0
 62
1
  6
CONTINUOUS
  0
LAYER
  2
TABLECONTENT
 70
0
 62
1
  6
CONTINUOUS
  0
LAYER
  2
DIMENSIONS
 70
0
 62
1
  6
CONTINUOUS
  0
LAYER
  2
TABLEBACKGROUND
 70
0
 62
1
  6
CONTINUOUS
  0
ENDTAB
  0
TABLE
  2
STYLE
 70
12
  0
STYLE
  2
TIMES
 70
0
 40
0.0
 41
1.0
 42
1.0
 50
0.0
 71
0
  3
times.ttf
  4

  0
STYLE
  2
ARIAL
 70
0
 40
0.0
 41
1.0
 42
1.0
 50
0.0
 71
0
  3
arial.ttf
  4

  0
STYLE
  2
TIMES_BOLD
 70
0
 40
0.0
 41
1.0
 42
1.0
 50
0.0
 71
0
  3
timesbd.ttf
  4

  0
STYLE
  2
ARIAL_BLACK
 70
0
 40
0.0
 41
1.0
 42
1.0
 50
0.0
 71
0
  3
ariblk.ttf
  4

  0
STYLE
  2
TIMES_ITALIC
 70
0
 40
0.0
 41
1.0
 42
1.0
 50
0.0
 71
0
  3
timesi.ttf
  4

  0
STYLE
  2
ISOCPEUR
 70
0
 40
0.0
 41
1.0
 42
1.0
 50
0.0
 71
0
  3
isocpeur.ttf
  4

  0
STYLE
  2
ARIAL_BOLD
 70
0
 40
0.0
 41
1.0
 42
1.0
 50
0.0
 71
0
  3
arialbd.ttf
  4

  0
STYLE
  2
ARIAL_ITALIC
 70
0
 40
0.0
 41
1.0
 42
1.0
 50
0.0
 71
0
  3
ariali.ttf
  4

  0
STYLE
  2
ARIAL_BOLD_ITALIC
 70
0
 40
0.0
 41
1.0
 42
1.0
 50
0.0
 71
0
  3
arialbi.ttf
  4

  0
STYLE
  2
TIMES_BOLD_ITALIC
 70
0
 40
0.0
 41
1.0
 42
1.0
 50
0.0
 71
0
  3
timesbi.ttf
  4

  0
STYLE
  2
ISOCPEUR_ITALIC
 70
0
 40
0.0
 41
1.0
 42
1.0
 50
0.0
 71
0
  3
isocpeui.ttf
  4

  0
STYLE
  2
STANDARD
 70
0
 40
0.0
 41
1.0
 42
1.0
 50
0.0
 71
0
  3
arial.ttf
  4

  0
ENDTAB
  0
TABLE
  2
VIEW
 70
0
  0
ENDTAB
  0
TABLE
  2
APPID
 70
1
  0
APPID
  2
DXFWRITE
 70
0
  0
ENDTAB
  0
TABLE
  2
VPORT
 70
0
  0
ENDTAB
  0
TABLE
  2
UCS
 70
0
  0
ENDTAB
  0
ENDSEC
  0
SECTION
  2
BLOCKS
  0
ENDSEC
  0
SECTION
  2
ENTITIES
  0
VIEWPORT
  8
VIEWPORTS
 67
1
 10
0.0
 20
0.0
 30
0.0
 40
1.0
 41
1.0
 68
1
 69
1
1001
ACAD
1000
MVIEW
1002
{
1070
16
1010
0.0
1020
0.0
1030
0.0
1010
0.0
1020
0.0
1030
0.0
1040
0.0
1040
1.0
1040
0.0
1040
0.0
1040
50.0
1040
0.0
1040
0.0
1070
0
1070
100
1070
1
1070
3
1070
0
1070
0
1070
0
1070
0
1040
0.0
1040
0.0
1040
0.0
1040
0.1
1040
0.1
1040
0.1
1040
0.1
1070
0
1002
{
1002
}
1002
}
  0
LINE
 62
0
  8
0
 10
-0.0197970438259
 20
0.52005971644
 30
0.0
 11
-0.514885401988
 21
-0.368051134638
 31
0.0
  0
LINE
 62
1
  8
0
 10
-0.514885401988
 20
-0.368051134638
 30
0.0
 11
0.515722803327
 21
-0.376656249408
 31
0.0
  0
LINE
 62
1
  8
0
 10
0.515722803327
 20
-0.376656249408
 30
0.0
 11
-0.0197970438259
 21
0.52005971644
 31
0.0
  0
LINE
 62
1
  8
0
 10
-0.514885406686
 20
-0.368051138127
 30
0.0
 11
-0.663705120973
 21
-1.22579428057
 31
0.0
  0
LINE
 62
1
  8
0
 10
-0.663705120973
 20
-1.22579428057
 30
0.0
 11
-0.0465754405329
 21
-1.29559609574
 31
0.0
  0
LINE
 62
1
  8
0
 10
-0.0465754405329
 20
-1.29559609574
 30
0.0
 11
-0.514885406686
 21
-0.368051138127
 31
0.0
  0
LINE
 62
1
  8
0
 10
-1.39454760966
 20
-0.0792896682553
 30
0.0
 11
-0.51488540973
 21
-0.36805114363
 31
0.0
  0
LINE
 62
0
  8
0
 10
-0.51488540973
 20
-0.36805114363
 30
0.0
 11
-0.864116528865
 21
0.586878692335
 31
0.0
  0
LINE
 62
0
  8
0
 10
-0.864116528865
 20
0.586878692335
 30
0.0
 11
-1.39454760966
 21
-0.0792896682553
 31
0.0
  0
LINE
 62
0
  8
0
 10
-0.663705121599
 20
-1.22579428611
 30
0.0
 11
-0.382924505013
 21
-1.61475153437
 31
0.0
  0
LINE
 62
1
  8
0
 10
-0.382924505013
 20
-1.61475153437
 30
0.0
 11
-0.0465754399068
 21
-1.2955960902
 31
0.0
  0
LINE
 62
1
  8
0
 10
-0.0465754399068
 20
-1.2955960902
 30
0.0
 11
-0.663705121599
 21
-1.22579428611
 31
0.0
  0
LINE
 62
1
  8
0
 10
-2.17621751015
 20
0.532470338351
 30
0.0
 11
-1.39454760548
 21
-0.0792896780724
 31
0.0
  0
LINE
 62
0
  8
0
 10
-1.39454760548
 20
-0.0792896780724
 30
0.0
 11
-1.54888990615
 21
0.758156362191
 31
0.0
  0
LINE
 62
0
  8
0
 10
-1.54888990615
 20
0.758156362191
 30
0.0
 11
-2.17621751015
 21
0.532470338351
 31
0.0
  0
LINE
 62
1
  8
0
 10
-1.39454761133
 20
-0.0792896733143
 30
0.0
 11
-1.43596151842
 21
-1.10983926541
 31
0.0
  0
LINE
 62
1
  8
0
 10
-1.43596151842
 20
-1.10983926541
 30
0.0
 11
-0.514885408069
 21
-0.368051138571
 31
0.0
  0
LINE
 62
1
  8
0
 10
-0.514885408069
 20
-0.368051138571
 30
0.0
 11
-1.39454761133
 21
-0.0792896733143
 31
0.0
  0
LINE
 62
0
  8
0
 10
-1.43596151778
 20
-1.10983926621
 30
0.0
 11
-0.663705118949
 21
-1.22579428092
 31
0.0
  0
LINE
 62
1
  8
0
 10
-0.663705118949
 20
-1.22579428092
 30
0.0
 11
-0.51488540871
 21
-0.368051137776
 31
0.0
  0
LINE
 62
1
  8
0
 10
-0.51488540871
 20
-0.368051137776
 30
0.0
 11
-1.43596151778
 21
-1.10983926621
 31
0.0
  0
LINE
 62
1
  8
0
 10
-2.37181616916
 20
-0.365087828249
 30
0.0
 11
-1.39454760484
 21
-0.0792896772556
 31
0.0
  0
LINE
 62
1
  8
0
 10
-1.39454760484
 20
-0.0792896772556
 30
0.0
 11
-2.17621751079
 21
0.532470337535
 31
0.0
  0
LINE
 62
1
  8
0
 10
-2.17621751079
 20
0.532470337535
 30
0.0
 11
-2.37181616916
 21
-0.365087828249
 31
0.0
  0
LINE
 62
1
  8
0
 10
-2.37181616807
 20
-0.365087831974
 30
0.0
 11
-1.43596152382
 21
-1.1098392652
 31
0.0
  0
LINE
 62
1
  8
0
 10
-1.43596152382
 20
-1.1098392652
 30
0.0
 11
-1.39454760593
 21
-0.0792896735311
 31
0.0
  0
LINE
 62
1
  8
0
 10
-1.39454760593
 20
-0.0792896735311
 30
0.0
 11
-2.37181616807
 21
-0.365087831974
 31
0.0
  0
LINE
 62
0
  8
0
 10
-1.80601954049
 20
-1.8064059547
 30
0.0
 11
-1.11113443098
 21
-2.08681163044
 31
0.0
  0
LINE
 62
0
  8
0
 10
-1.11113443098
 20
-2.08681163044
 30
0.0
 11
-0.885319099226
 21
-1.66357064522
 31
0.0
  0
LINE
 62
1
  8
0
 10
-0.885319099226
 20
-1.66357064522
 30
0.0
 11
-1.80601954049
 21
-1.8064059547
 31
0.0
  0
LINE
 62
1
  8
0
 10
-2.37181616668
 20
-0.36508783023
 30
0.0
 11
-2.35207272873
 21
-1.32212134975
 31
0.0
  0
LINE
 62
1
  8
0
 10
-2.35207272873
 20
-1.32212134975
 30
0.0
 11
-1.43596152521
 21
-1.10983926694
 31
0.0
  0
LINE
 62
1
  8
0
 10
-1.43596152521
 20
-1.10983926694
 30
0.0
 11
-2.37181616668
 21
-0.36508783023
 31
0.0
  0
LINE
 62
1
  8
0
 10
-1.43596152361
 20
-1.10983927447
 30
0.0
 11
-1.80601954055
 21
-1.80640595431
 31
0.0
  0
LINE
 62
1
  8
0
 10
-1.80601954055
 20
-1.80640595431
 30
0.0
 11
-0.885319099166
 21
-1.66357064561
 31
0.0
  0
LINE
 62
0
  8
0
 10
-0.885319099166
 20
-1.66357064561
 30
0.0
 11
-1.43596152361
 21
-1.10983927447
 31
0.0
  0
LINE
 62
0
  8
0
 10
-2.60793214655
 20
0.416047770618
 30
0.0
 11
-2.37181616726
 21
-0.365087828663
 31
0.0
  0
LINE
 62
1
  8
0
 10
-2.37181616726
 20
-0.365087828663
 30
0.0
 11
-2.17621751268
 21
0.532470337948
 31
0.0
  0
LINE
 62
1
  8
0
 10
-2.17621751268
 20
0.532470337948
 30
0.0
 11
-2.60793214655
 21
0.416047770618
 31
0.0
  0
LINE
 62
1
  8
0
 10
-1.80601954073
 20
-1.80640595422
 30
0.0
 11
-1.43596152344
 21
-1.10983927457
 31
0.0
  0
LINE
 62
1
  8
0
 10
-1.43596152344
 20
-1.10983927457
 30
0.0
 11
-2.3520727305
 21
-1.32212134212
 31
0.0
  0
LINE
 62
1
  8
0
 10
-2.3520727305
 20
-1.32212134212
 30
0.0
 11
-1.80601954073
 21
-1.80640595422
 31
0.0
  0
LINE
 62
1
  8
0
 10
-1.95124053412
 20
-2.34686090683
 30
0.0
 11
-1.60757100447
 21
-2.68970715317
 31
0.0
  0
LINE
 62
1
  8
0
 10
-1.60757100447
 20
-2.68970715317
 30
0.0
 11
-1.39213471626
 21
-2.57286158048
 31
0.0
  0
LINE
 62
0
  8
0
 10
-1.39213471626
 20
-2.57286158048
 30
0.0
 11
-1.95124053412
 21
-2.34686090683
 31
0.0
  0
LINE
 62
0
  8
0
 10
-1.95124053897
 20
-2.34686090714
 30
0.0
 11
-1.35066636119
 21
-2.40150774635
 31
0.0
  0
LINE
 62
0
  8
0
 10
-1.35066636119
 20
-2.40150774635
 30
0.0
 11
-1.80601953325
 21
-1.80640595078
 31
0.0
  0
LINE
 62
1
  8
0
 10
-1.80601953325
 20
-1.80640595078
 30
0.0
 11
-1.95124053897
 21
-2.34686090714
 31
0.0
  0
LINE
 62
0
  8
0
 10
-3.2427522262
 20
-0.75485814308
 30
0.0
 11
-2.35207272923
 21
-1.32212134976
 31
0.0
  0
LINE
 62
1
  8
0
 10
-2.35207272923
 20
-1.32212134976
 30
0.0
 11
-2.37181616618
 21
-0.36508783022
 31
0.0
  0
LINE
 62
1
  8
0
 10
-2.37181616618
 20
-0.36508783022
 30
0.0
 11
-3.2427522262
 21
-0.75485814308
 31
0.0
  0
LINE
 62
0
  8
0
 10
-3.10643961079
 20
-0.00976829718093
 30
0.0
 11
-3.24275222757
 21
-0.754858140004
 31
0.0
  0
LINE
 62
1
  8
0
 10
-3.24275222757
 20
-0.754858140004
 30
0.0
 11
-2.37181616481
 21
-0.365087833295
 31
0.0
  0
LINE
 62
0
  8
0
 10
-2.37181616481
 20
-0.365087833295
 30
0.0
 11
-3.10643961079
 21
-0.00976829718093
 31
0.0
  0
LINE
 62
1
  8
0
 10
-3.35436642473
 20
-1.65454407617
 30
0.0
 11
-3.15612383723
 21
-2.30571683986
 31
0.0
  0
LINE
 62
1
  8
0
 10
-3.15612383723
 20
-2.30571683986
 30
0.0
 11
-2.35207273472
 21
-1.3221213469
 31
0.0
  0
LINE
 62
0
  8
0
 10
-2.35207273472
 20
-1.3221213469
 30
0.0
 11
-3.35436642473
 21
-1.65454407617
 31
0.0
  0
LINE
 62
1
  8
0
 10
-2.59942462348
 20
-2.55392061351
 30
0.0
 11
-1.80601953671
 21
-1.80640594969
 31
0.0
  0
LINE
 62
1
  8
0
 10
-1.80601953671
 20
-1.80640594969
 30
0.0
 11
-2.35207273452
 21
-1.32212134665
 31
0.0
  0
LINE
 62
1
  8
0
 10
-2.35207273452
 20
-1.32212134665
 30
0.0
 11
-2.59942462348
 21
-2.55392061351
 31
0.0
  0
LINE
 62
1
  8
0
 10
-2.59942462368
 20
-2.55392061329
 30
0.0
 11
-1.95124053571
 21
-2.34686090802
 31
0.0
  0
LINE
 62
1
  8
0
 10
-1.95124053571
 20
-2.34686090802
 30
0.0
 11
-1.80601953651
 21
-1.80640594991
 31
0.0
  0
LINE
 62
1
  8
0
 10
-1.80601953651
 20
-1.80640594991
 30
0.0
 11
-2.59942462368
 21
-2.55392061329
 31
0.0
  0
LINE
 62
1
  8
0
 10
-2.59942462281
 20
-2.55392061364
 30
0.0
 11
-2.35207273518
 21
-1.32212134652
 31
0.0
  0
LINE
 62
1
  8
0
 10
-2.35207273518
 20
-1.32212134652
 30
0.0
 11
-3.15612383676
 21
-2.30571684023
 31
0.0
  0
LINE
 62
1
  8
0
 10
-3.15612383676
 20
-2.30571684023
 30
0.0
 11
-2.59942462281
 21
-2.55392061364
 31
0.0
  0
LINE
 62
1
  8
0
 10
-4.06461554467
 20
-1.39132137698
 30
0.0
 11
-4.12589401799
 21
-2.0569066237
 31
0.0
  0
LINE
 62
1
  8
0
 10
-4.12589401799
 20
-2.0569066237
 30
0.0
 11
-3.35436642542
 21
-1.65454408112
 31
0.0
  0
LINE
 62
0
  8
0
 10
-3.35436642542
 20
-1.65454408112
 30
0.0
 11
-4.06461554467
 21
-1.39132137698
 31
0.0
  0
LINE
 62
0
  8
0
 10
-1.9760626551
 20
-2.96932959868
 30
0.0
 11
-1.60757100382
 21
-2.68970715251
 31
0.0
  0
LINE
 62
1
  8
0
 10
-1.60757100382
 20
-2.68970715251
 30
0.0
 11
-1.95124053477
 21
-2.34686090748
 31
0.0
  0
LINE
 62
1
  8
0
 10
-1.95124053477
 20
-2.34686090748
 30
0.0
 11
-1.9760626551
 21
-2.96932959868
 31
0.0
  0
LINE
 62
1
  8
0
 10
-4.12589401586
 20
-2.05690662779
 30
0.0
 11
-3.1561238344
 21
-2.305716839
 31
0.0
  0
LINE
 62
1
  8
0
 10
-3.1561238344
 20
-2.305716839
 30
0.0
 11
-3.35436642755
 21
-1.65454407703
 31
0.0
  0
LINE
 62
1
  8
0
 10
-3.35436642755
 20
-1.65454407703
 30
0.0
 11
-4.12589401586
 21
-2.05690662779
 31
0.0
  0
LINE
 62
0
  8
0
 10
-2.5994246235
 20
-2.55392061387
 30
0.0
 11
-1.97606265397
 21
-2.96932959873
 31
0.0
  0
LINE
 62
1
  8
0
 10
-1.97606265397
 20
-2.96932959873
 30
0.0
 11
-1.95124053589
 21
-2.34686090744
 31
0.0
  0
LINE
 62
1
  8
0
 10
-1.95124053589
 20
-2.34686090744
 30
0.0
 11
-2.5994246235
 21
-2.55392061387
 31
0.0
  0
LINE
 62
0
  8
0
 10
-3.15612383683
 20
-2.3057168404
 30
0.0
 11
-3.26805762811
 21
-3.24860142268
 31
0.0
  0
LINE
 62
1
  8
0
 10
-3.26805762811
 20
-3.24860142268
 30
0.0
 11
-2.59942462274
 21
-2.55392061348
 31
0.0
  0
LINE
 62
1
  8
0
 10
-2.59942462274
 20
-2.55392061348
 30
0.0
 11
-3.15612383683
 21
-2.3057168404
 31
0.0
  0
LINE
 62
0
  8
0
 10
-2.75160027657
 20
-3.46840061056
 30
0.0
 11
-2.26687156531
 21
-3.22515323484
 31
0.0
  0
LINE
 62
0
  8
0
 10
-2.26687156531
 20
-3.22515323484
 30
0.0
 11
-2.5994246242
 21
-2.55392061289
 31
0.0
  0
LINE
 62
1
  8
0
 10
-2.5994246242
 20
-2.55392061289
 30
0.0
 11
-2.75160027657
 21
-3.46840061056
 31
0.0
  0
LINE
 62
0
  8
0
 10
-3.26805762767
 20
-3.2486014231
 30
0.0
 11
-2.75160027759
 21
-3.46840061039
 31
0.0
  0
LINE
 62
1
  8
0
 10
-2.75160027759
 20
-3.46840061039
 30
0.0
 11
-2.59942462318
 21
-2.55392061306
 31
0.0
  0
LINE
 62
1
  8
0
 10
-2.59942462318
 20
-2.55392061306
 30
0.0
 11
-3.26805762767
 21
-3.2486014231
 31
0.0
  0
LINE
 62
1
  8
0
 10
-4.12589401782
 20
-2.05690663544
 30
0.0
 11
-3.86989132805
 21
-2.93189290192
 31
0.0
  0
LINE
 62
0
  8
0
 10
-3.86989132805
 20
-2.93189290192
 30
0.0
 11
-3.15612383244
 21
-2.30571683135
 31
0.0
  0
LINE
 62
1
  8
0
 10
-3.15612383244
 20
-2.30571683135
 30
0.0
 11
-4.12589401782
 21
-2.05690663544
 31
0.0
  0
LINE
 62
0
  8
0
 10
-4.31277682016
 20
-1.4339686821
 30
0.0
 11
-4.12589401721
 21
-2.05690662377
 31
0.0
  0
LINE
 62
1
  8
0
 10
-4.12589401721
 20
-2.05690662377
 30
0.0
 11
-4.06461554545
 21
-1.3913213769
 31
0.0
  0
LINE
 62
1
  8
0
 10
-4.06461554545
 20
-1.3913213769
 30
0.0
 11
-4.31277682016
 21
-1.4339686821
 31
0.0
  0
LINE
 62
0
  8
0
 10
-4.6543258779
 20
-2.26812892876
 30
0.0
 11
-4.42929435432
 21
-2.7532568581
 31
0.0
  0
LINE
 62
1
  8
0
 10
-4.42929435432
 20
-2.7532568581
 30
0.0
 11
-4.1258940164
 21
-2.05690663528
 31
0.0
  0
LINE
 62
1
  8
0
 10
-4.1258940164
 20
-2.05690663528
 30
0.0
 11
-4.6543258779
 21
-2.26812892876
 31
0.0
  0
LINE
 62
0
  8
0
 10
-4.42929435396
 20
-2.75325685826
 30
0.0
 11
-3.86989132911
 21
-2.93189290223
 31
0.0
  0
LINE
 62
1
  8
0
 10
-3.86989132911
 20
-2.93189290223
 30
0.0
 11
-4.12589401676
 21
-2.05690663513
 31
0.0
  0
LINE
 62
1
  8
0
 10
-4.12589401676
 20
-2.05690663513
 30
0.0
 11
-4.42929435396
 21
-2.75325685826
 31
0.0
  0
LINE
 62
1
  8
0
 10
-0.0465754383675
 20
-1.29559610881
 30
0.0
 11
0.0565288869128
 21
-1.75474405916
 31
0.0
  0
LINE
 62
0
  8
0
 10
0.0565288869128
 20
-1.75474405916
 30
0.0
 11
0.509486143158
 21
-1.66091158353
 31
0.0
  0
LINE
 62
1
  8
0
 10
0.509486143158
 20
-1.66091158353
 30
0.0
 11
-0.0465754383675
 21
-1.29559610881
 31
0.0
  0
LINE
 62
1
  8
0
 10
1.37070856635
 20
-1.0054440608
 30
0.0
 11
0.515722793667
 21
-0.376656245664
 31
0.0
  0
LINE
 62
1
  8
0
 10
0.515722793667
 20
-0.376656245664
 30
0.0
 11
0.867022708025
 21
-1.25311406972
 31
0.0
  0
LINE
 62
0
  8
0
 10
0.867022708025
 20
-1.25311406972
 30
0.0
 11
1.37070856635
 21
-1.0054440608
 31
0.0
  0
LINE
 62
0
  8
0
 10
1.276998288
 20
-0.425736406656
 30
0.0
 11
0.515722793574
 21
-0.376656245791
 31
0.0
  0
LINE
 62
1
  8
0
 10
0.515722793574
 20
-0.376656245791
 30
0.0
 11
1.37070856644
 21
-1.00544406068
 31
0.0
  0
LINE
 62
0
  8
0
 10
1.37070856644
 20
-1.00544406068
 30
0.0
 11
1.276998288
 21
-0.425736406656
 31
0.0
  0
LINE
 62
1
  8
0
 10
0.515722796922
 20
-0.37665624436
 30
0.0
 11
-0.0465754388065
 21
-1.29559610203
 31
0.0
  0
LINE
 62
1
  8
0
 10
-0.0465754388065
 20
-1.29559610203
 30
0.0
 11
0.867022704771
 21
-1.25311407103
 31
0.0
  0
LINE
 62
1
  8
0
 10
0.867022704771
 20
-1.25311407103
 30
0.0
 11
0.515722796922
 21
-0.37665624436
 31
0.0
  0
LINE
 62
1
  8
0
 10
-0.0465754384831
 20
-1.29559610898
 30
0.0
 11
0.509486143274
 21
-1.66091158336
 31
0.0
  0
LINE
 62
0
  8
0
 10
0.509486143274
 20
-1.66091158336
 30
0.0
 11
0.867022704447
 21
-1.25311406407
 31
0.0
  0
LINE
 62
1
  8
0
 10
0.867022704447
 20
-1.25311406407
 30
0.0
 11
-0.0465754384831
 21
-1.29559610898
 31
0.0
  0
LINE
 62
1
  8
0
 10
-4.12589401615
 20
-2.0569066359
 30
0.0
 11
-4.86922320153
 21
-1.55174254942
 31
0.0
  0
LINE
 62
1
  8
0
 10
-4.86922320153
 20
-1.55174254942
 30
0.0
 11
-4.65432587814
 21
-2.26812892814
 31
0.0
  0
LINE
 62
1
  8
0
 10
-4.65432587814
 20
-2.26812892814
 30
0.0
 11
-4.12589401615
 21
-2.0569066359
 31
0.0
  0
LINE
 62
1
  8
0
 10
-4.6110490456
 20
-1.62377679519
 30
0.0
 11
-4.86922320254
 21
-1.55174255091
 31
0.0
  0
LINE
 62
1
  8
0
 10
-4.86922320254
 20
-1.55174255091
 30
0.0
 11
-4.12589401513
 21
-2.05690663441
 31
0.0
  0
LINE
 62
0
  8
0
 10
-4.12589401513
 20
-2.05690663441
 30
0.0
 11
-4.6110490456
 21
-1.62377679519
 31
0.0
  0
LINE
 62
1
  8
0
 10
0.740798138441
 20
0.644807533106
 30
0.0
 11
0.515722803698
 21
-0.376656250727
 31
0.0
  0
LINE
 62
0
  8
0
 10
0.515722803698
 20
-0.376656250727
 30
0.0
 11
1.02467973936
 21
0.191597282687
 31
0.0
  0
LINE
 62
0
  8
0
 10
1.02467973936
 20
0.191597282687
 30
0.0
 11
0.740798138441
 21
0.644807533106
 31
0.0
  0
LINE
 62
1
  8
0
 10
-0.0197970423121
 20
0.520059717344
 30
0.0
 11
0.515722801813
 21
-0.376656250312
 31
0.0
  0
LINE
 62
1
  8
0
 10
0.515722801813
 20
-0.376656250312
 30
0.0
 11
0.740798140326
 21
0.644807532691
 31
0.0
  0
LINE
 62
0
  8
0
 10
0.740798140326
 20
0.644807532691
 30
0.0
 11
-0.0197970423121
 21
0.520059717344
 31
0.0
  0
LINE
 62
0
  8
0
 10
-2.46104486432
 20
0.503847291939
 30
0.0
 11
-2.60793214646
 21
0.4160477703
 31
0.0
  0
LINE
 62
1
  8
0
 10
-2.60793214646
 20
0.4160477703
 30
0.0
 11
-2.17621751277
 21
0.532470338266
 31
0.0
  0
LINE
 62
0
  8
0
 10
-2.17621751277
 20
0.532470338266
 30
0.0
 11
-2.46104486432
 21
0.503847291939
 31
0.0
  0
LINE
 62
0
  8
0
 10
-4.58391578832
 20
-1.52838493199
 30
0.0
 11
-4.86922320254
 21
-1.55174255092
 31
0.0
  0
LINE
 62
1
  8
0
 10
-4.86922320254
 20
-1.55174255092
 30
0.0
 11
-4.6110490456
 21
-1.62377679519
 31
0.0
  0
LINE
 62
0
  8
0
 10
-4.6110490456
 20
-1.62377679519
 30
0.0
 11
-4.58391578832
 21
-1.52838493199
 31
0.0
  0
LINE
 62
0
  8
0
 10
-4.2347345927
 20
-1.37277038188
 30
0.0
 11
-4.31277682016
 21
-1.43396868208
 31
0.0
  0
LINE
 62
1
  8
0
 10
-4.31277682016
 20
-1.43396868208
 30
0.0
 11
-4.06461554544
 21
-1.39132137693
 31
0.0
  0
LINE
 62
0
  8
0
 10
-4.06461554544
 20
-1.39132137693
 30
0.0
 11
-4.2347345927
 21
-1.37277038188
 31
0.0
  0
LINE
 62
1
  8
0
 10
-0.514885401997
 20
-0.36805113576
 30
0.0
 11
-0.0465754452212
 21
-1.2955960981
 31
0.0
  0
LINE
 62
1
  8
0
 10
-0.0465754452212
 20
-1.2955960981
 30
0.0
 11
0.515722803336
 21
-0.376656248285
 31
0.0
  0
LINE
 62
1
  8
0
 10
0.515722803336
 20
-0.376656248285
 30
0.0
 11
-0.514885401997
 21
-0.36805113576
 31
0.0
  0
LINE
 62
0
  8
0
 10
-5.37268043112
 20
-1.98878364862
 30
0.0
 11
-4.65432587789
 21
-2.26812892806
 31
0.0
  0
LINE
 62
1
  8
0
 10
-4.65432587789
 20
-2.26812892806
 30
0.0
 11
-4.86922320178
 21
-1.5517425495
 31
0.0
  0
LINE
 62
0
  8
0
 10
-4.86922320178
 20
-1.5517425495
 30
0.0
 11
-5.37268043112
 21
-1.98878364862
 31
0.0
  0
LINE
 62
0
  8
0
 10
-0.382924504969
 20
-1.61475153441
 30
0.0
 11
-0.261907286289
 21
-1.63688940218
 31
0.0
  0
LINE
 62
0
  8
0
 10
-0.261907286289
 20
-1.63688940218
 30
0.0
 11
-0.0465754399513
 21
-1.29559609015
 31
0.0
  0
LINE
 62
1
  8
0
 10
-0.0465754399513
 20
-1.29559609015
 30
0.0
 11
-0.382924504969
 21
-1.61475153441
 31
0.0
  0
LINE
 62
0
  8
0
 10
-1.60757100446
 20
-2.68970715317
 30
0.0
 11
-1.46951054842
 21
-2.66850797613
 31
0.0
  0
LINE
 62
0
  8
0
 10
-1.46951054842
 20
-2.66850797613
 30
0.0
 11
-1.39213471626
 21
-2.57286158047
 31
0.0
  0
LINE
 62
1
  8
0
 10
-1.39213471626
 20
-2.57286158047
 30
0.0
 11
-1.60757100446
 21
-2.68970715317
 31
0.0
  0
LINE
 62
0
  8
0
 10
-0.0465754382528
 20
-1.29559610878
 30
0.0
 11
-0.0712746699252
 21
-1.69838498255
 31
0.0
  0
LINE
 62
0
  8
0
 10
-0.0712746699252
 20
-1.69838498255
 30
0.0
 11
0.0565288867981
 21
-1.75474405918
 31
0.0
  0
LINE
 62
1
  8
0
 10
0.0565288867981
 20
-1.75474405918
 30
0.0
 11
-0.0465754382528
 21
-1.29559610878
 31
0.0
  0
TEXT
 62
1
  8
0
 10
0.0820384988565
 20
-0.118761748285
 30
0.0
 40
0.2
  1
0
  0
TEXT
 62
1
  8
0
 10
-1.06516704745
 20
-0.0279725339972
 30
0.0
 40
0.2
  1
0
  0
TEXT
 62
1
  8
0
 10
-0.816411698492
 20
0.00463423921293
 30
0.0
 40
0.2
  1
1
  0
TEXT
 62
1
  8
0
 10
-0.198990511428
 20
-1.18614955127
 30
0.0
 40
0.2
  1
2
  0
TEXT
 62
1
  8
0
 10
-1.86509367562
 20
0.266933876746
 30
0.0
 40
0.2
  1
1
  0
TEXT
 62
1
  8
0
 10
-1.72714661191
 20
0.268929346508
 30
0.0
 40
0.2
  1
3
  0
TEXT
 62
1
  8
0
 10
-0.990438749736
 20
-0.772250994942
 30
0.0
 40
0.2
  1
4
  0
TEXT
 62
1
  8
0
 10
-1.30889320289
 20
-1.57567110892
 30
0.0
 40
0.2
  1
5
  0
TEXT
 62
1
  8
0
 10
-1.35113788238
 20
-1.68689949356
 30
0.0
 40
0.2
  1
2
  0
TEXT
 62
1
  8
0
 10
-1.44427302884
 20
-1.6687554548
 30
0.0
 40
0.2
  1
4
  0
TEXT
 62
1
  8
0
 10
-2.10698397938
 20
0.141217224931
 30
0.0
 40
0.2
  1
6
  0
TEXT
 62
1
  8
0
 10
-1.82159142133
 20
-2.83071006986
 30
0.0
 40
0.2
  1
7
  0
TEXT
 62
1
  8
0
 10
-1.6147067942
 20
-1.97582998707
 30
0.0
 40
0.2
  1
7
  0
TEXT
 62
1
  8
0
 10
-1.89601514736
 20
-2.34702962215
 30
0.0
 40
0.2
  1
5
  0
TEXT
 62
1
  8
0
 10
-2.58253634277
 20
-0.701105326755
 30
0.0
 40
0.2
  1
8
  0
TEXT
 62
1
  8
0
 10
-2.78112642357
 20
-0.454297633743
 30
0.0
 40
0.2
  1
9
  0
TEXT
 62
1
  8
0
 10
-2.91329529278
 20
-0.547519324565
 30
0.0
 40
0.2
  1
6
  0
TEXT
 62
1
  8
0
 10
-2.72729970621
 20
-1.86799596424
 30
0.0
 40
0.2
  1
8
  0
TEXT
 62
1
  8
0
 10
-3.84849449667
 20
-1.89800342072
 30
0.0
 40
0.2
  1
9
  0
TEXT
 62
1
  8
0
 10
-2.03361371231
 20
-2.51087395396
 30
0.0
 40
0.2
  1
10
  0
TEXT
 62
1
  8
0
 10
-2.06592480514
 20
-2.42876416677
 30
0.0
 40
0.2
  1
11
  0
TEXT
 62
1
  8
0
 10
-2.81487989831
 20
-2.82431369895
 30
0.0
 40
0.2
  1
12
  0
TEXT
 62
1
  8
0
 10
-2.68864218419
 20
-2.98926693304
 30
0.0
 40
0.2
  1
13
  0
TEXT
 62
1
  8
0
 10
-2.79157086051
 20
-3.06711260066
 30
0.0
 40
0.2
  1
11
  0
TEXT
 62
1
  8
0
 10
-2.85318872381
 20
-2.99044689203
 30
0.0
 40
0.2
  1
14
  0
TEXT
 62
1
  8
0
 10
-3.77679799955
 20
-2.31811463619
 30
0.0
 40
0.2
  1
12
  0
TEXT
 62
1
  8
0
 10
-3.83620514504
 20
-1.63049769721
 30
0.0
 40
0.2
  1
15
  0
TEXT
 62
1
  8
0
 10
-4.17894757247
 20
-2.3423754124
 30
0.0
 40
0.2
  1
16
  0
TEXT
 62
1
  8
0
 10
-4.02791299855
 20
-2.46153155487
 30
0.0
 40
0.2
  1
17
  0
TEXT
 62
1
  8
0
 10
0.201868105711
 20
-1.31614376978
 30
0.0
 40
0.2
  1
10
  0
TEXT
 62
1
  8
0
 10
0.94236322448
 20
-0.770326563796
 30
0.0
 40
0.2
  1
14
  0
TEXT
 62
1
  8
0
 10
0.870625585622
 20
-0.800367607859
 30
0.0
 40
0.2
  1
18
  0
TEXT
 62
1
  8
0
 10
0.928979387534
 20
-0.7794219874
 30
0.0
 40
0.2
  1
17
  0
TEXT
 62
1
  8
0
 10
0.387484769584
 20
-1.1933129658
 30
0.0
 40
0.2
  1
13
  0
TEXT
 62
1
  8
0
 10
-4.63486267902
 20
-2.13873031364
 30
0.0
 40
0.2
  1
15
  0
TEXT
 62
1
  8
0
 10
0.472240161671
 20
0.174339729287
 30
0.0
 40
0.2
  1
18
  0
TEXT
 62
1
  8
0
 10
0.543749954085
 20
0.205866663912
 30
0.0
 40
0.2
  1
16
  0
TEXT
 62
1
  8
0
 10
0.425240923597
 20
0.187707537841
 30
0.0
 40
0.2
  1
19
  0
TEXT
 62
1
  8
0
 10
-2.32926255621
 20
0.116607597844
 30
0.0
 40
0.2
  1
20
  0
TEXT
 62
1
  8
0
 10
-2.27863558702
 20
0.12016339822
 30
0.0
 40
0.2
  1
21
  0
TEXT
 62
1
  8
0
 10
-4.69393138946
 20
-1.93872996029
 30
0.0
 40
0.2
  1
21
  0
TEXT
 62
1
  8
0
 10
-4.98222123802
 20
-1.46664577063
 30
0.0
 40
0.2
  1
22
  0
TEXT
 62
1
  8
0
 10
-4.02692792595
 20
-1.7181330095
 30
0.0
 40
0.2
  1
22
  0
TEXT
 62
1
  8
0
 10
-4.19303687214
 20
-1.77968862614
 30
0.0
 40
0.2
  1
20
  0
TEXT
 62
1
  8
0
 10
-4.86853133291
 20
-1.7556518209
 30
0.0
 40
0.2
  1
19
  0
TEXT
 62
1
  8
0
 10
-4.85873590622
 20
-2.07232735782
 30
0.0
 40
0.2
  1
3
  0
TEXT
 62
1
  8
0
 10
-0.250437701501
 20
-1.23234983461
 30
0.0
 40
0.2
  1
23
  0
TEXT
 62
1
  8
0
 10
-0.492536158341
 20
-1.25280275102
 30
0.0
 40
0.2
  1
24
  0
TEXT
 62
1
  8
0
 10
-1.59924924888
 20
-2.28374130234
 30
0.0
 40
0.2
  1
25
  0
TEXT
 62
1
  8
0
 10
-1.74180356813
 20
-2.36910803538
 30
0.0
 40
0.2
  1
23
  0
TEXT
 62
1
  8
0
 10
0.340325018411
 20
-1.52147277613
 30
0.0
 40
0.2
  1
24
  0
TEXT
 62
1
  8
0
 10
0.154023630748
 20
-1.36057112942
 30
0.0
 40
0.2
  1
25
  0
ENDSEC
  0
EOF
