  0
SECTION
  2
HEADER
  9
$ACADVER
  1
AC1009
  9
$EXTMIN
 10
0.0
 20
0.0
 30
0.0
  9
$EXTMAX
 10
100.0
 20
100.0
 30
0.0
  9
$INSBASE
 10
0.0
 20
0.0
 30
0.0
  0
ENDSEC
  0
SECTION
  2
TABLES
  0
TABLE
  2
LTYPE
 70
19
  0
LTYPE
  2
PHANTOM
 70
0
  3
Phantom ______  __  __  ______  __  __  ______
 72
65
 73
6
 40
2.5
 49
1.25
 49
-0.25
 49
0.25
 49
-0.25
 49
0.25
 49
-0.25
  0
LTYPE
  2
DOT2
 70
0
  3
Dot (.5) . . . . . . . . . . . . . . . . . . . 
 72
65
 73
2
 40
0.1
 49
0.0
 49
-0.1
  0
LTYPE
  2
DIVIDE
 70
0
  3
Divide __ . . __ . . __ . . __ . . __ . . __
 72
65
 73
6
 40
1.6
 49
1.0
 49
-0.2
 49
0.0
 49
-0.2
 49
0.0
 49
-0.2
  0
LTYPE
  2
DIVIDEX2
 70
0
  3
Divide (2x) ____  . .  ____  . .  ____  . .  ____
 72
65
 73
6
 40
2.6
 49
2.0
 49
-0.2
 49
0.0
 49
-0.2
 49
0.0
 49
-0.2
  0
LTYPE
  2
CENTER
 70
0
  3
Center ____ _ ____ _ ____ _ ____ _ ____ _ ____
 72
65
 73
4
 40
2.0
 49
1.25
 49
-0.25
 49
0.25
 49
-0.25
  0
LTYPE
  2
DASHDOT
 70
0
  3
Dash dot __ . __ . __ . __ . __ . __ . __ . __
 72
65
 73
4
 40
1.4
 49
1.0
 49
-0.2
 49
0.0
 49
-0.2
  0
LTYPE
  2
CENTERX2
 70
0
  3
Center (2x) ________  __  ________  __  ________
 72
65
 73
4
 40
3.5
 49
2.5
 49
-0.25
 49
0.5
 49
-0.25
  0
LTYPE
  2
PHANTOMX2
 70
0
  3
Phantom (2x)____________    ____    ____    ____________
 72
65
 73
6
 40
4.25
 49
2.5
 49
-0.25
 49
0.5
 49
-0.25
 49
0.5
 49
-0.25
  0
LTYPE
  2
CONTINUOUS
 70
0
  3
Solid
 72
65
 73
0
 40
0.0
  0
LTYPE
  2
PHANTOM2
 70
0
  3
Phantom (.5x) ___ _ _ ___ _ _ ___ _ _ ___ _ _ ___
 72
65
 73
6
 40
1.25
 49
0.625
 49
-0.125
 49
0.125
 49
-0.125
 49
0.125
 49
-0.125
  0
LTYPE
  2
DASHED
 70
0
  3
Dashed __ __ __ __ __ __ __ __ __ __ __ __ __ _
 72
65
 73
2
 40
0.6
 49
0.5
 49
-0.1
  0
LTYPE
  2
DASHED2
 70
0
  3
Dashed (.5x) _ _ _ _ _ _ _ _ _ _ _ _ _ _
 72
65
 73
2
 40
0.3
 49
0.25
 49
-0.05
  0
LTYPE
  2
DASHDOT2
 70
0
  3
Dash dot (.5x) _ . _ . _ . _ . _ . _ . _ . _
 72
65
 73
4
 40
0.7
 49
0.5
 49
-0.1
 49
0.0
 49
-0.1
  0
LTYPE
  2
DOTX2
 70
0
  3
Dot (2x) .    .    .    .    .    .    .    . 
 72
65
 73
2
 40
0.4
 49
0.0
 49
-0.4
  0
LTYPE
  2
DIVIDE2
 70
0
  3
Divide(.5x) _ . _ . _ . _ . _ . _ . _ . _
 72
65
 73
6
 40
0.8
 49
0.5
 49
-0.1
 49
0.0
 49
-0.1
 49
0.0
 49
-0.1
  0
LTYPE
  2
CENTER2
 70
0
  3
Center (.5x) ____ _ ____ _ ____ _ ____ _ ____
 72
65
 73
4
 40
1.0
 49
0.625
 49
-0.125
 49
0.125
 49
-0.125
  0
LTYPE
  2
DASHDOTX2
 70
0
  3
Dash dot (2x) ____  .  ____  .  ____  .  ____
 72
65
 73
4
 40
2.4
 49
2.0
 49
-0.2
 49
0.0
 49
-0.2
  0
LTYPE
  2
DOT
 70
0
  3
Dot .  .  .  .  .  .  .  .  .  .  .  .  .  .  .  .
 72
65
 73
2
 40
0.2
 49
0.0
 49
-0.2
  0
LTYPE
  2
DASHEDX2
 70
0
  3
Dashed (2x) ____  ____  ____  ____  ____  ____
 72
65
 73
2
 40
1.2
 49
1.0
 49
-0.2
  0
ENDTAB
  0
TABLE
  2
LAYER
 70
5
  0
LAYER
  2
VIEWPORTS
 70
0
 62
7
  6
CONTINUOUS
  0
LAYER
  2
TABLEGRID
 70
0
 62
1
  6
CONTINUOUS
  0
LAYER
  2
TABLECONTENT
 70
0
 62
1
  6
CONTINUOUS
  0
LAYER
  2
DIMENSIONS
 70
0
 62
1
  6
CONTINUOUS
  0
LAYER
  2
TABLEBACKGROUND
 70
0
 62
1
  6
CONTINUOUS
  0
ENDTAB
  0
TABLE
  2
STYLE
 70
12
  0
STYLE
  2
TIMES
 70
0
 40
0.0
 41
1.0
 42
1.0
 50
0.0
 71
0
  3
times.ttf
  4

  0
STYLE
  2
ARIAL
 70
0
 40
0.0
 41
1.0
 42
1.0
 50
0.0
 71
0
  3
arial.ttf
  4

  0
STYLE
  2
TIMES_BOLD
 70
0
 40
0.0
 41
1.0
 42
1.0
 50
0.0
 71
0
  3
timesbd.ttf
  4

  0
STYLE
  2
ARIAL_BLACK
 70
0
 40
0.0
 41
1.0
 42
1.0
 50
0.0
 71
0
  3
ariblk.ttf
  4

  0
STYLE
  2
TIMES_ITALIC
 70
0
 40
0.0
 41
1.0
 42
1.0
 50
0.0
 71
0
  3
timesi.ttf
  4

  0
STYLE
  2
ISOCPEUR
 70
0
 40
0.0
 41
1.0
 42
1.0
 50
0.0
 71
0
  3
isocpeur.ttf
  4

  0
STYLE
  2
ARIAL_BOLD
 70
0
 40
0.0
 41
1.0
 42
1.0
 50
0.0
 71
0
  3
arialbd.ttf
  4

  0
STYLE
  2
ARIAL_ITALIC
 70
0
 40
0.0
 41
1.0
 42
1.0
 50
0.0
 71
0
  3
ariali.ttf
  4

  0
STYLE
  2
ARIAL_BOLD_ITALIC
 70
0
 40
0.0
 41
1.0
 42
1.0
 50
0.0
 71
0
  3
arialbi.ttf
  4

  0
STYLE
  2
TIMES_BOLD_ITALIC
 70
0
 40
0.0
 41
1.0
 42
1.0
 50
0.0
 71
0
  3
timesbi.ttf
  4

  0
STYLE
  2
ISOCPEUR_ITALIC
 70
0
 40
0.0
 41
1.0
 42
1.0
 50
0.0
 71
0
  3
isocpeui.ttf
  4

  0
STYLE
  2
STANDARD
 70
0
 40
0.0
 41
1.0
 42
1.0
 50
0.0
 71
0
  3
arial.ttf
  4

  0
ENDTAB
  0
TABLE
  2
VIEW
 70
0
  0
ENDTAB
  0
TABLE
  2
APPID
 70
1
  0
APPID
  2
DXFWRITE
 70
0
  0
ENDTAB
  0
TABLE
  2
VPORT
 70
0
  0
ENDTAB
  0
TABLE
  2
UCS
 70
0
  0
ENDTAB
  0
ENDSEC
  0
SECTION
  2
BLOCKS
  0
ENDSEC
  0
SECTION
  2
ENTITIES
  0
VIEWPORT
  8
VIEWPORTS
 67
1
 10
0.0
 20
0.0
 30
0.0
 40
1.0
 41
1.0
 68
1
 69
1
1001
ACAD
1000
MVIEW
1002
{
1070
16
1010
0.0
1020
0.0
1030
0.0
1010
0.0
1020
0.0
1030
0.0
1040
0.0
1040
1.0
1040
0.0
1040
0.0
1040
50.0
1040
0.0
1040
0.0
1070
0
1070
100
1070
1
1070
3
1070
0
1070
0
1070
0
1070
0
1040
0.0
1040
0.0
1040
0.0
1040
0.1
1040
0.1
1040
0.1
1040
0.1
1070
0
1002
{
1002
}
1002
}
  0
LINE
 62
1
  8
0
 10
-8.9307287219
 20
-44.4783701951
 30
0.0
 11
16.627162966
 21
-55.5467495401
 31
0.0
  0
LINE
 62
1
  8
0
 10
16.627162966
 20
-55.5467495401
 30
0.0
 11
-5.49596915026
 21
-34.6641136181
 31
0.0
  0
LINE
 62
0
  8
0
 10
-5.49596915026
 20
-34.6641136181
 30
0.0
 11
-8.9307287219
 21
-44.4783701951
 31
0.0
  0
LINE
 62
1
  8
0
 10
54.5498207079
 20
-115.426513261
 30
0.0
 11
33.7399945203
 21
-129.62227212
 31
0.0
  0
LINE
 62
0
  8
0
 10
33.7399945203
 20
-129.62227212
 30
0.0
 11
33.3547833469
 21
-151.227486091
 31
0.0
  0
LINE
 62
1
  8
0
 10
33.3547833469
 20
-151.227486091
 30
0.0
 11
54.5498207079
 21
-115.426513261
 31
0.0
  0
LINE
 62
1
  8
0
 10
-5.66722246955
 20
-221.61101696
 30
0.0
 11
-22.236668115
 21
-231.264222605
 31
0.0
  0
LINE
 62
0
  8
0
 10
-22.236668115
 20
-231.264222605
 30
0.0
 11
1.5433641458
 21
-237.982490977
 31
0.0
  0
LINE
 62
1
  8
0
 10
1.5433641458
 20
-237.982490977
 30
0.0
 11
-5.66722246955
 21
-221.61101696
 31
0.0
  0
LINE
 62
1
  8
0
 10
66.718456487
 20
-229.984877453
 30
0.0
 11
61.1849524686
 21
-208.840509299
 31
0.0
  0
LINE
 62
1
  8
0
 10
61.1849524686
 20
-208.840509299
 30
0.0
 11
56.5183523302
 21
-235.533587361
 31
0.0
  0
LINE
 62
1
  8
0
 10
56.5183523302
 20
-235.533587361
 30
0.0
 11
66.718456487
 21
-229.984877453
 31
0.0
  0
LINE
 62
1
  8
0
 10
5.29263712237
 20
-201.553573623
 30
0.0
 11
9.94243884321
 21
-164.713240848
 31
0.0
  0
LINE
 62
1
  8
0
 10
9.94243884321
 20
-164.713240848
 30
0.0
 11
-10.7580148595
 21
-193.346740219
 31
0.0
  0
LINE
 62
0
  8
0
 10
-10.7580148595
 20
-193.346740219
 30
0.0
 11
5.29263712237
 21
-201.553573623
 31
0.0
  0
LINE
 62
1
  8
0
 10
-30.3714387866
 20
-36.8758964848
 30
0.0
 11
-40.4577879334
 21
-27.1229966985
 31
0.0
  0
LINE
 62
1
  8
0
 10
-40.4577879334
 20
-27.1229966985
 30
0.0
 11
-43.9574932119
 21
-41.5694473933
 31
0.0
  0
LINE
 62
0
  8
0
 10
-43.9574932119
 20
-41.5694473933
 30
0.0
 11
-30.3714387866
 21
-36.8758964848
 31
0.0
  0
LINE
 62
1
  8
0
 10
14.9204692205
 20
-66.5272199276
 30
0.0
 11
16.6271629374
 21
-55.5467496061
 31
0.0
  0
LINE
 62
1
  8
0
 10
16.6271629374
 20
-55.5467496061
 30
0.0
 11
-8.93072869329
 21
-44.478370129
 31
0.0
  0
LINE
 62
0
  8
0
 10
-8.93072869329
 20
-44.478370129
 30
0.0
 11
14.9204692205
 21
-66.5272199276
 31
0.0
  0
LINE
 62
0
  8
0
 10
-24.0573071607
 20
-207.250719623
 30
0.0
 11
-45.008026547
 21
-197.431133401
 31
0.0
  0
LINE
 62
0
  8
0
 10
-45.008026547
 20
-197.431133401
 30
0.0
 11
-41.7054579284
 21
-215.798339021
 31
0.0
  0
LINE
 62
1
  8
0
 10
-41.7054579284
 20
-215.798339021
 30
0.0
 11
-24.0573071607
 21
-207.250719623
 31
0.0
  0
LINE
 62
1
  8
0
 10
5.29263722845
 20
-201.553573478
 30
0.0
 11
9.63526000706
 21
-219.832084165
 31
0.0
  0
LINE
 62
1
  8
0
 10
9.63526000706
 20
-219.832084165
 30
0.0
 11
29.3838164954
 21
-212.214324072
 31
0.0
  0
LINE
 62
1
  8
0
 10
29.3838164954
 20
-212.214324072
 30
0.0
 11
5.29263722845
 21
-201.553573478
 31
0.0
  0
LINE
 62
1
  8
0
 10
14.9204675536
 20
-66.5272196685
 30
0.0
 11
48.9325776122
 21
-53.3783766284
 31
0.0
  0
LINE
 62
0
  8
0
 10
48.9325776122
 20
-53.3783766284
 30
0.0
 11
16.6271646042
 21
-55.5467498652
 31
0.0
  0
LINE
 62
1
  8
0
 10
16.6271646042
 20
-55.5467498652
 30
0.0
 11
14.9204675536
 21
-66.5272196685
 31
0.0
  0
LINE
 62
0
  8
0
 10
31.4783821745
 20
-84.177958116
 30
0.0
 11
19.2508332927
 21
-96.6734558441
 31
0.0
  0
LINE
 62
1
  8
0
 10
19.2508332927
 20
-96.6734558441
 30
0.0
 11
41.4205327114
 21
-94.7976091063
 31
0.0
  0
LINE
 62
0
  8
0
 10
41.4205327114
 20
-94.7976091063
 30
0.0
 11
31.4783821745
 21
-84.177958116
 31
0.0
  0
LINE
 62
1
  8
0
 10
63.8896308664
 20
-88.7631105646
 30
0.0
 11
88.6219522771
 21
-92.3282304817
 31
0.0
  0
LINE
 62
0
  8
0
 10
88.6219522771
 20
-92.3282304817
 30
0.0
 11
77.0003911165
 21
-77.7268429461
 31
0.0
  0
LINE
 62
1
  8
0
 10
77.0003911165
 20
-77.7268429461
 30
0.0
 11
63.8896308664
 21
-88.7631105646
 31
0.0
  0
LINE
 62
0
  8
0
 10
64.3073913161
 20
-156.291061059
 30
0.0
 11
87.3124540105
 21
-135.543225538
 31
0.0
  0
LINE
 62
1
  8
0
 10
87.3124540105
 20
-135.543225538
 30
0.0
 11
62.5306947652
 21
-122.384624926
 31
0.0
  0
LINE
 62
1
  8
0
 10
62.5306947652
 20
-122.384624926
 30
0.0
 11
64.3073913161
 21
-156.291061059
 31
0.0
  0
LINE
 62
1
  8
0
 10
9.63525987809
 20
-219.832084196
 30
0.0
 11
5.29263735743
 21
-201.553573447
 31
0.0
  0
LINE
 62
0
  8
0
 10
5.29263735743
 20
-201.553573447
 30
0.0
 11
-11.7960300601
 21
-207.294042892
 31
0.0
  0
LINE
 62
0
  8
0
 10
-11.7960300601
 20
-207.294042892
 30
0.0
 11
9.63525987809
 21
-219.832084196
 31
0.0
  0
LINE
 62
0
  8
0
 10
29.3838165431
 20
-212.214323942
 30
0.0
 11
47.269527218
 21
-189.461824735
 31
0.0
  0
LINE
 62
0
  8
0
 10
47.269527218
 20
-189.461824735
 30
0.0
 11
18.2339426493
 21
-181.184397457
 31
0.0
  0
LINE
 62
1
  8
0
 10
18.2339426493
 20
-181.184397457
 30
0.0
 11
29.3838165431
 21
-212.214323942
 31
0.0
  0
LINE
 62
0
  8
0
 10
-27.1641472318
 20
-176.151408603
 30
0.0
 11
-22.8405271693
 21
-159.211611535
 31
0.0
  0
LINE
 62
1
  8
0
 10
-22.8405271693
 20
-159.211611535
 30
0.0
 11
-32.8356375415
 21
-159.351568925
 31
0.0
  0
LINE
 62
1
  8
0
 10
-32.8356375415
 20
-159.351568925
 30
0.0
 11
-27.1641472318
 21
-176.151408603
 31
0.0
  0
LINE
 62
1
  8
0
 10
60.8475049277
 20
-60.7519682451
 30
0.0
 11
85.0825936126
 21
-54.7030291101
 31
0.0
  0
LINE
 62
1
  8
0
 10
85.0825936126
 20
-54.7030291101
 30
0.0
 11
83.3018402093
 21
-43.4403447575
 31
0.0
  0
LINE
 62
1
  8
0
 10
83.3018402093
 20
-43.4403447575
 30
0.0
 11
60.8475049277
 21
-60.7519682451
 31
0.0
  0
LINE
 62
1
  8
0
 10
-32.8356370868
 20
-159.351568937
 30
0.0
 11
-32.9219026037
 21
-136.363266122
 31
0.0
  0
LINE
 62
0
  8
0
 10
-32.9219026037
 20
-136.363266122
 30
0.0
 11
-47.2933811582
 21
-136.629535036
 31
0.0
  0
LINE
 62
0
  8
0
 10
-47.2933811582
 20
-136.629535036
 30
0.0
 11
-32.8356370868
 21
-159.351568937
 31
0.0
  0
LINE
 62
1
  8
0
 10
18.3028891642
 20
-128.515034829
 30
0.0
 11
41.4205327271
 21
-94.7976092922
 31
0.0
  0
LINE
 62
1
  8
0
 10
41.4205327271
 20
-94.7976092922
 30
0.0
 11
19.250833277
 21
-96.6734556582
 31
0.0
  0
LINE
 62
1
  8
0
 10
19.250833277
 20
-96.6734556582
 30
0.0
 11
18.3028891642
 21
-128.515034829
 31
0.0
  0
LINE
 62
1
  8
0
 10
54.5498208041
 20
-115.426513318
 30
0.0
 11
33.3547832507
 21
-151.227486034
 31
0.0
  0
LINE
 62
1
  8
0
 10
33.3547832507
 20
-151.227486034
 30
0.0
 11
62.530694556
 21
-122.38462488
 31
0.0
  0
LINE
 62
0
  8
0
 10
62.530694556
 20
-122.38462488
 30
0.0
 11
54.5498208041
 21
-115.426513318
 31
0.0
  0
LINE
 62
1
  8
0
 10
33.7399945498
 20
-129.622272163
 30
0.0
 11
54.5498206784
 21
-115.426513218
 31
0.0
  0
LINE
 62
0
  8
0
 10
54.5498206784
 20
-115.426513218
 30
0.0
 11
41.42053272
 21
-94.7976093009
 31
0.0
  0
LINE
 62
1
  8
0
 10
41.42053272
 20
-94.7976093009
 30
0.0
 11
33.7399945498
 21
-129.622272163
 31
0.0
  0
LINE
 62
1
  8
0
 10
48.9325778555
 20
-53.3783769946
 30
0.0
 11
46.9600363138
 21
-61.1889201881
 31
0.0
  0
LINE
 62
0
  8
0
 10
46.9600363138
 20
-61.1889201881
 30
0.0
 11
60.8475048119
 21
-60.7519681702
 31
0.0
  0
LINE
 62
1
  8
0
 10
60.8475048119
 20
-60.7519681702
 30
0.0
 11
48.9325778555
 21
-53.3783769946
 31
0.0
  0
LINE
 62
1
  8
0
 10
60.8475048099
 20
-60.7519681734
 30
0.0
 11
60.5119975034
 21
-41.8438163051
 31
0.0
  0
LINE
 62
1
  8
0
 10
60.5119975034
 20
-41.8438163051
 30
0.0
 11
48.9325778574
 21
-53.3783769914
 31
0.0
  0
LINE
 62
1
  8
0
 10
48.9325778574
 20
-53.3783769914
 30
0.0
 11
60.8475048099
 21
-60.7519681734
 31
0.0
  0
LINE
 62
1
  8
0
 10
33.3547832052
 20
-151.227485931
 30
0.0
 11
48.4202635999
 21
-180.578597983
 31
0.0
  0
LINE
 62
0
  8
0
 10
48.4202635999
 20
-180.578597983
 30
0.0
 11
64.3073914637
 21
-156.291061099
 31
0.0
  0
LINE
 62
1
  8
0
 10
64.3073914637
 20
-156.291061099
 30
0.0
 11
33.3547832052
 21
-151.227485931
 31
0.0
  0
LINE
 62
1
  8
0
 10
48.9325778565
 20
-53.3783769938
 30
0.0
 11
46.94337794
 21
-45.2179619616
 31
0.0
  0
LINE
 62
0
  8
0
 10
46.94337794
 20
-45.2179619616
 30
0.0
 11
21.4115339038
 21
-36.6481236711
 31
0.0
  0
LINE
 62
0
  8
0
 10
21.4115339038
 20
-36.6481236711
 30
0.0
 11
48.9325778565
 21
-53.3783769938
 31
0.0
  0
LINE
 62
1
  8
0
 10
-33.5548509676
 20
-198.273170864
 30
0.0
 11
-27.164147365
 21
-176.151408605
 31
0.0
  0
LINE
 62
1
  8
0
 10
-27.164147365
 20
-176.151408605
 30
0.0
 11
-49.2848562689
 21
-190.309380117
 31
0.0
  0
LINE
 62
0
  8
0
 10
-49.2848562689
 20
-190.309380117
 30
0.0
 11
-33.5548509676
 21
-198.273170864
 31
0.0
  0
LINE
 62
1
  8
0
 10
-22.2366683578
 20
-231.264222814
 30
0.0
 11
-24.0573071849
 21
-207.250719574
 31
0.0
  0
LINE
 62
1
  8
0
 10
-24.0573071849
 20
-207.250719574
 30
0.0
 11
-41.7054579042
 21
-215.798339071
 31
0.0
  0
LINE
 62
1
  8
0
 10
-41.7054579042
 20
-215.798339071
 30
0.0
 11
-22.2366683578
 21
-231.264222814
 31
0.0
  0
LINE
 62
0
  8
0
 10
14.9204674231
 20
-66.5272193307
 30
0.0
 11
46.9600364265
 21
-61.1889202165
 31
0.0
  0
LINE
 62
1
  8
0
 10
46.9600364265
 20
-61.1889202165
 30
0.0
 11
48.9325777428
 21
-53.3783769661
 31
0.0
  0
LINE
 62
1
  8
0
 10
48.9325777428
 20
-53.3783769661
 30
0.0
 11
14.9204674231
 21
-66.5272193307
 31
0.0
  0
LINE
 62
0
  8
0
 10
120.620256494
 20
-68.4515147685
 30
0.0
 11
135.878313972
 21
-66.324953838
 31
0.0
  0
LINE
 62
0
  8
0
 10
135.878313972
 20
-66.324953838
 30
0.0
 11
116.524872698
 21
-50.7703089036
 31
0.0
  0
LINE
 62
1
  8
0
 10
116.524872698
 20
-50.7703089036
 30
0.0
 11
120.620256494
 21
-68.4515147685
 31
0.0
  0
LINE
 62
1
  8
0
 10
1.54336440974
 20
-237.982490861
 30
0.0
 11
9.63525996483
 21
-219.832084064
 31
0.0
  0
LINE
 62
0
  8
0
 10
9.63525996483
 20
-219.832084064
 30
0.0
 11
-5.66722273349
 21
-221.611017076
 31
0.0
  0
LINE
 62
1
  8
0
 10
-5.66722273349
 20
-221.611017076
 30
0.0
 11
1.54336440974
 21
-237.982490861
 31
0.0
  0
LINE
 62
0
  8
0
 10
8.80086720008
 20
-147.948321251
 30
0.0
 11
9.94243877616
 21
-164.713240737
 31
0.0
  0
LINE
 62
1
  8
0
 10
9.94243877616
 20
-164.713240737
 30
0.0
 11
33.3547831567
 21
-151.227485982
 31
0.0
  0
LINE
 62
1
  8
0
 10
33.3547831567
 20
-151.227485982
 30
0.0
 11
8.80086720008
 21
-147.948321251
 31
0.0
  0
LINE
 62
0
  8
0
 10
99.4150480615
 20
-50.5971286926
 30
0.0
 11
83.3018400003
 21
-43.4403447906
 31
0.0
  0
LINE
 62
1
  8
0
 10
83.3018400003
 20
-43.4403447906
 30
0.0
 11
85.0825938216
 21
-54.7030290771
 31
0.0
  0
LINE
 62
0
  8
0
 10
85.0825938216
 20
-54.7030290771
 30
0.0
 11
99.4150480615
 21
-50.5971286926
 31
0.0
  0
LINE
 62
0
  8
0
 10
83.3018402654
 20
-43.4403448303
 30
0.0
 11
60.5119974417
 21
-41.8438163062
 31
0.0
  0
LINE
 62
1
  8
0
 10
60.5119974417
 20
-41.8438163062
 30
0.0
 11
60.8475048716
 21
-60.7519681723
 31
0.0
  0
LINE
 62
1
  8
0
 10
60.8475048716
 20
-60.7519681723
 30
0.0
 11
83.3018402654
 21
-43.4403448303
 31
0.0
  0
LINE
 62
0
  8
0
 10
-30.3714390435
 20
-36.8758967505
 30
0.0
 11
-5.49596878101
 21
-34.6641127974
 31
0.0
  0
LINE
 62
1
  8
0
 10
-5.49596878101
 20
-34.6641127974
 30
0.0
 11
-40.4577876765
 21
-27.1229964328
 31
0.0
  0
LINE
 62
1
  8
0
 10
-40.4577876765
 20
-27.1229964328
 30
0.0
 11
-30.3714390435
 21
-36.8758967505
 31
0.0
  0
LINE
 62
0
  8
0
 10
66.7184563993
 20
-229.984877476
 30
0.0
 11
68.3386924856
 21
-201.007988157
 31
0.0
  0
LINE
 62
1
  8
0
 10
68.3386924856
 20
-201.007988157
 30
0.0
 11
61.1849525563
 21
-208.840509276
 31
0.0
  0
LINE
 62
1
  8
0
 10
61.1849525563
 20
-208.840509276
 30
0.0
 11
66.7184563993
 21
-229.984877476
 31
0.0
  0
LINE
 62
0
  8
0
 10
-41.7054577166
 20
-215.798338835
 30
0.0
 11
-31.5368953064
 21
-239.702265514
 31
0.0
  0
LINE
 62
1
  8
0
 10
-31.5368953064
 20
-239.702265514
 30
0.0
 11
-22.2366685455
 21
-231.26422305
 31
0.0
  0
LINE
 62
1
  8
0
 10
-22.2366685455
 20
-231.26422305
 30
0.0
 11
-41.7054577166
 21
-215.798338835
 31
0.0
  0
LINE
 62
1
  8
0
 10
-32.8356375413
 20
-159.351568939
 30
0.0
 11
-22.8405271695
 21
-159.211611521
 31
0.0
  0
LINE
 62
0
  8
0
 10
-22.8405271695
 20
-159.211611521
 30
0.0
 11
-32.9219021492
 21
-136.363266121
 31
0.0
  0
LINE
 62
1
  8
0
 10
-32.9219021492
 20
-136.363266121
 30
0.0
 11
-32.8356375413
 21
-159.351568939
 31
0.0
  0
LINE
 62
1
  8
0
 10
97.0468142869
 20
-63.5988195722
 30
0.0
 11
77.0003910486
 21
-77.7268429187
 31
0.0
  0
LINE
 62
0
  8
0
 10
77.0003910486
 20
-77.7268429187
 30
0.0
 11
100.070017966
 21
-79.5014499979
 31
0.0
  0
LINE
 62
1
  8
0
 10
100.070017966
 20
-79.5014499979
 30
0.0
 11
97.0468142869
 21
-63.5988195722
 31
0.0
  0
LINE
 62
1
  8
0
 10
120.62025648
 20
-68.4515148394
 30
0.0
 11
97.0468140615
 21
-63.598819615
 31
0.0
  0
LINE
 62
1
  8
0
 10
97.0468140615
 20
-63.598819615
 30
0.0
 11
100.070018191
 21
-79.5014499551
 31
0.0
  0
LINE
 62
0
  8
0
 10
100.070018191
 20
-79.5014499551
 30
0.0
 11
120.62025648
 21
-68.4515148394
 31
0.0
  0
LINE
 62
1
  8
0
 10
87.8817229575
 20
-118.294543426
 30
0.0
 11
87.3124537932
 21
-135.543225826
 31
0.0
  0
LINE
 62
1
  8
0
 10
87.3124537932
 20
-135.543225826
 30
0.0
 11
107.67061113
 21
-118.461455118
 31
0.0
  0
LINE
 62
0
  8
0
 10
107.67061113
 20
-118.461455118
 30
0.0
 11
87.8817229575
 21
-118.294543426
 31
0.0
  0
LINE
 62
1
  8
0
 10
77.0003910876
 20
-77.726842974
 30
0.0
 11
97.0468142479
 21
-63.5988195169
 31
0.0
  0
LINE
 62
0
  8
0
 10
97.0468142479
 20
-63.5988195169
 30
0.0
 11
85.0825936214
 21
-54.7030290907
 31
0.0
  0
LINE
 62
1
  8
0
 10
85.0825936214
 20
-54.7030290907
 30
0.0
 11
77.0003910876
 21
-77.726842974
 31
0.0
  0
LINE
 62
0
  8
0
 10
7.80710392755
 20
-261.135554088
 30
0.0
 11
53.3974253968
 21
-257.953712192
 31
0.0
  0
LINE
 62
1
  8
0
 10
53.3974253968
 20
-257.953712192
 30
0.0
 11
56.5183523271
 21
-235.533587403
 31
0.0
  0
LINE
 62
0
  8
0
 10
56.5183523271
 20
-235.533587403
 30
0.0
 11
7.80710392755
 21
-261.135554088
 31
0.0
  0
LINE
 62
1
  8
0
 10
63.8896308792
 20
-88.7631105798
 30
0.0
 11
77.0003911037
 21
-77.7268429309
 31
0.0
  0
LINE
 62
1
  8
0
 10
77.0003911037
 20
-77.7268429309
 30
0.0
 11
55.4450351089
 21
-73.5529850025
 31
0.0
  0
LINE
 62
1
  8
0
 10
55.4450351089
 20
-73.5529850025
 30
0.0
 11
63.8896308792
 21
-88.7631105798
 31
0.0
  0
LINE
 62
1
  8
0
 10
63.8896309406
 20
-88.7631105457
 30
0.0
 11
55.4450350475
 21
-73.5529850366
 31
0.0
  0
LINE
 62
0
  8
0
 10
55.4450350475
 20
-73.5529850366
 30
0.0
 11
50.6338236064
 21
-82.7708725355
 31
0.0
  0
LINE
 62
0
  8
0
 10
50.6338236064
 20
-82.7708725355
 30
0.0
 11
63.8896309406
 21
-88.7631105457
 31
0.0
  0
LINE
 62
0
  8
0
 10
-40.457787798
 20
-27.1229967313
 30
0.0
 11
-76.0202995598
 21
-44.616691078
 31
0.0
  0
LINE
 62
0
  8
0
 10
-76.0202995598
 20
-44.616691078
 30
0.0
 11
-43.9574933474
 21
-41.5694473604
 31
0.0
  0
LINE
 62
1
  8
0
 10
-43.9574933474
 20
-41.5694473604
 30
0.0
 11
-40.457787798
 21
-27.1229967313
 31
0.0
  0
LINE
 62
1
  8
0
 10
-5.49596900348
 20
-34.6641138288
 30
0.0
 11
-0.842523479626
 21
-28.2859420645
 31
0.0
  0
LINE
 62
0
  8
0
 10
-0.842523479626
 20
-28.2859420645
 30
0.0
 11
-40.457787454
 21
-27.1229954014
 31
0.0
  0
LINE
 62
1
  8
0
 10
-40.457787454
 20
-27.1229954014
 30
0.0
 11
-5.49596900348
 21
-34.6641138288
 31
0.0
  0
LINE
 62
1
  8
0
 10
67.3695742729
 20
-112.966826667
 30
0.0
 11
88.6219522776
 21
-92.3282304782
 31
0.0
  0
LINE
 62
1
  8
0
 10
88.6219522776
 20
-92.3282304782
 30
0.0
 11
63.8896308659
 21
-88.7631105681
 31
0.0
  0
LINE
 62
0
  8
0
 10
63.8896308659
 20
-88.7631105681
 30
0.0
 11
67.3695742729
 21
-112.966826667
 31
0.0
  0
LINE
 62
1
  8
0
 10
67.3695743093
 20
-112.966826705
 30
0.0
 11
87.8817227821
 21
-118.294543859
 31
0.0
  0
LINE
 62
0
  8
0
 10
87.8817227821
 20
-118.294543859
 30
0.0
 11
88.6219522412
 21
-92.3282304407
 31
0.0
  0
LINE
 62
1
  8
0
 10
88.6219522412
 20
-92.3282304407
 30
0.0
 11
67.3695743093
 21
-112.966826705
 31
0.0
  0
LINE
 62
1
  8
0
 10
9.63525996879
 20
-219.832084066
 30
0.0
 11
1.54336440578
 21
-237.982490859
 31
0.0
  0
LINE
 62
1
  8
0
 10
1.54336440578
 20
-237.982490859
 30
0.0
 11
29.3838165336
 21
-212.214324171
 31
0.0
  0
LINE
 62
1
  8
0
 10
29.3838165336
 20
-212.214324171
 30
0.0
 11
9.63525996879
 21
-219.832084066
 31
0.0
  0
LINE
 62
1
  8
0
 10
-0.842523274933
 20
-28.2859422139
 30
0.0
 11
-5.49596920817
 21
-34.6641136794
 31
0.0
  0
LINE
 62
1
  8
0
 10
-5.49596920817
 20
-34.6641136794
 30
0.0
 11
16.6271630239
 21
-55.5467494787
 31
0.0
  0
LINE
 62
0
  8
0
 10
16.6271630239
 20
-55.5467494787
 30
0.0
 11
-0.842523274933
 21
-28.2859422139
 31
0.0
  0
LINE
 62
1
  8
0
 10
-24.0573075338
 20
-207.2507196
 30
0.0
 11
-22.236668009
 21
-231.264222787
 31
0.0
  0
LINE
 62
1
  8
0
 10
-22.236668009
 20
-231.264222787
 30
0.0
 11
-5.66722257563
 21
-221.611016778
 31
0.0
  0
LINE
 62
0
  8
0
 10
-5.66722257563
 20
-221.611016778
 30
0.0
 11
-24.0573075338
 21
-207.2507196
 31
0.0
  0
LINE
 62
0
  8
0
 10
60.8475049439
 20
-60.7519682602
 30
0.0
 11
55.4450351201
 21
-73.5529849446
 31
0.0
  0
LINE
 62
1
  8
0
 10
55.4450351201
 20
-73.5529849446
 30
0.0
 11
77.0003910925
 21
-77.7268429888
 31
0.0
  0
LINE
 62
1
  8
0
 10
77.0003910925
 20
-77.7268429888
 30
0.0
 11
60.8475049439
 21
-60.7519682602
 31
0.0
  0
LINE
 62
1
  8
0
 10
77.0003911026
 20
-77.7268429792
 30
0.0
 11
85.0825936064
 21
-54.7030290855
 31
0.0
  0
LINE
 62
1
  8
0
 10
85.0825936064
 20
-54.7030290855
 30
0.0
 11
60.8475049339
 21
-60.7519682698
 31
0.0
  0
LINE
 62
1
  8
0
 10
60.8475049339
 20
-60.7519682698
 30
0.0
 11
77.0003911026
 21
-77.7268429792
 31
0.0
  0
LINE
 62
1
  8
0
 10
87.8817228946
 20
-118.294543426
 30
0.0
 11
67.3695741968
 21
-112.966827138
 31
0.0
  0
LINE
 62
0
  8
0
 10
67.3695741968
 20
-112.966827138
 30
0.0
 11
62.5306949189
 21
-122.384624634
 31
0.0
  0
LINE
 62
1
  8
0
 10
62.5306949189
 20
-122.384624634
 30
0.0
 11
87.8817228946
 21
-118.294543426
 31
0.0
  0
LINE
 62
1
  8
0
 10
87.8817228943
 20
-118.294543424
 30
0.0
 11
62.5306949192
 21
-122.384624636
 31
0.0
  0
LINE
 62
1
  8
0
 10
62.5306949192
 20
-122.384624636
 30
0.0
 11
87.3124538564
 21
-135.543225828
 31
0.0
  0
LINE
 62
1
  8
0
 10
87.3124538564
 20
-135.543225828
 30
0.0
 11
87.8817228943
 21
-118.294543424
 31
0.0
  0
LINE
 62
1
  8
0
 10
29.3838166274
 20
-212.214324273
 30
0.0
 11
56.5183521776
 21
-235.533587334
 31
0.0
  0
LINE
 62
1
  8
0
 10
56.5183521776
 20
-235.533587334
 30
0.0
 11
61.1849526212
 21
-208.840509326
 31
0.0
  0
LINE
 62
0
  8
0
 10
61.1849526212
 20
-208.840509326
 30
0.0
 11
29.3838166274
 21
-212.214324273
 31
0.0
  0
LINE
 62
1
  8
0
 10
29.3838166279
 20
-212.214324273
 30
0.0
 11
1.54336431153
 21
-237.982490757
 31
0.0
  0
LINE
 62
0
  8
0
 10
1.54336431153
 20
-237.982490757
 30
0.0
 11
56.5183521771
 21
-235.533587335
 31
0.0
  0
LINE
 62
1
  8
0
 10
56.5183521771
 20
-235.533587335
 30
0.0
 11
29.3838166279
 21
-212.214324273
 31
0.0
  0
LINE
 62
1
  8
0
 10
61.1849522036
 20
-208.840508954
 30
0.0
 11
68.3386928383
 21
-201.007988479
 31
0.0
  0
LINE
 62
0
  8
0
 10
68.3386928383
 20
-201.007988479
 30
0.0
 11
49.4269313793
 21
-179.100908686
 31
0.0
  0
LINE
 62
0
  8
0
 10
49.4269313793
 20
-179.100908686
 30
0.0
 11
61.1849522036
 21
-208.840508954
 31
0.0
  0
LINE
 62
1
  8
0
 10
48.9325778591
 20
-53.3783769931
 30
0.0
 11
60.5119975017
 21
-41.8438163034
 31
0.0
  0
LINE
 62
0
  8
0
 10
60.5119975017
 20
-41.8438163034
 30
0.0
 11
46.9433779373
 21
-45.2179619622
 31
0.0
  0
LINE
 62
1
  8
0
 10
46.9433779373
 20
-45.2179619622
 30
0.0
 11
48.9325778591
 21
-53.3783769931
 31
0.0
  0
LINE
 62
1
  8
0
 10
18.2339426036
 20
-181.184397439
 30
0.0
 11
9.94243876194
 21
-164.713240837
 31
0.0
  0
LINE
 62
1
  8
0
 10
9.94243876194
 20
-164.713240837
 30
0.0
 11
5.29263720364
 21
-201.553573633
 31
0.0
  0
LINE
 62
1
  8
0
 10
5.29263720364
 20
-201.553573633
 30
0.0
 11
18.2339426036
 21
-181.184397439
 31
0.0
  0
LINE
 62
1
  8
0
 10
97.0468140469
 20
-63.5988196862
 30
0.0
 11
120.620256495
 21
-68.4515147682
 31
0.0
  0
LINE
 62
1
  8
0
 10
120.620256495
 20
-68.4515147682
 30
0.0
 11
116.524872697
 21
-50.7703089039
 31
0.0
  0
LINE
 62
0
  8
0
 10
116.524872697
 20
-50.7703089039
 30
0.0
 11
97.0468140469
 21
-63.5988196862
 31
0.0
  0
LINE
 62
0
  8
0
 10
9.94243882672
 20
-164.713240836
 30
0.0
 11
-27.164147328
 21
-176.151408613
 31
0.0
  0
LINE
 62
1
  8
0
 10
-27.164147328
 20
-176.151408613
 30
0.0
 11
-10.758014843
 21
-193.346740231
 31
0.0
  0
LINE
 62
1
  8
0
 10
-10.758014843
 20
-193.346740231
 30
0.0
 11
9.94243882672
 21
-164.713240836
 31
0.0
  0
LINE
 62
0
  8
0
 10
-33.5548510027
 20
-198.273170854
 30
0.0
 11
-10.758014841
 21
-193.346740229
 31
0.0
  0
LINE
 62
1
  8
0
 10
-10.758014841
 20
-193.346740229
 30
0.0
 11
-27.16414733
 21
-176.151408615
 31
0.0
  0
LINE
 62
1
  8
0
 10
-27.16414733
 20
-176.151408615
 30
0.0
 11
-33.5548510027
 21
-198.273170854
 31
0.0
  0
LINE
 62
1
  8
0
 10
56.5183523552
 20
-235.533587407
 30
0.0
 11
53.3974253687
 21
-257.953712188
 31
0.0
  0
LINE
 62
0
  8
0
 10
53.3974253687
 20
-257.953712188
 30
0.0
 11
66.718456462
 21
-229.984877407
 31
0.0
  0
LINE
 62
1
  8
0
 10
66.718456462
 20
-229.984877407
 30
0.0
 11
56.5183523552
 21
-235.533587407
 31
0.0
  0
LINE
 62
1
  8
0
 10
33.3547831972
 20
-151.22748598
 30
0.0
 11
64.3073914717
 21
-156.291061051
 31
0.0
  0
LINE
 62
1
  8
0
 10
64.3073914717
 20
-156.291061051
 30
0.0
 11
62.5306946095
 21
-122.384624934
 31
0.0
  0
LINE
 62
1
  8
0
 10
62.5306946095
 20
-122.384624934
 30
0.0
 11
33.3547831972
 21
-151.22748598
 31
0.0
  0
LINE
 62
0
  8
0
 10
-31.5368950047
 20
-239.702265847
 30
0.0
 11
-11.9137827069
 21
-237.140739274
 31
0.0
  0
LINE
 62
0
  8
0
 10
-11.9137827069
 20
-237.140739274
 30
0.0
 11
-22.2366688471
 21
-231.264222717
 31
0.0
  0
LINE
 62
1
  8
0
 10
-22.2366688471
 20
-231.264222717
 30
0.0
 11
-31.5368950047
 21
-239.702265847
 31
0.0
  0
LINE
 62
1
  8
0
 10
9.94243875274
 20
-164.713240842
 30
0.0
 11
18.2339426128
 21
-181.184397435
 31
0.0
  0
LINE
 62
0
  8
0
 10
18.2339426128
 20
-181.184397435
 30
0.0
 11
48.4202636949
 21
-180.578597867
 31
0.0
  0
LINE
 62
1
  8
0
 10
48.4202636949
 20
-180.578597867
 30
0.0
 11
9.94243875274
 21
-164.713240842
 31
0.0
  0
LINE
 62
1
  8
0
 10
5.29263716931
 20
-201.553573611
 30
0.0
 11
29.3838165545
 21
-212.214323938
 31
0.0
  0
LINE
 62
1
  8
0
 10
29.3838165545
 20
-212.214323938
 30
0.0
 11
18.2339426379
 21
-181.184397461
 31
0.0
  0
LINE
 62
1
  8
0
 10
18.2339426379
 20
-181.184397461
 30
0.0
 11
5.29263716931
 21
-201.553573611
 31
0.0
  0
LINE
 62
1
  8
0
 10
-27.1641473245
 20
-176.151408668
 30
0.0
 11
-43.6956717652
 21
-168.157927383
 31
0.0
  0
LINE
 62
0
  8
0
 10
-43.6956717652
 20
-168.157927383
 30
0.0
 11
-49.2848563094
 21
-190.309380053
 31
0.0
  0
LINE
 62
1
  8
0
 10
-49.2848563094
 20
-190.309380053
 30
0.0
 11
-27.1641473245
 21
-176.151408668
 31
0.0
  0
LINE
 62
1
  8
0
 10
-43.6956717849
 20
-168.157927424
 30
0.0
 11
-27.1641473047
 21
-176.151408627
 31
0.0
  0
LINE
 62
1
  8
0
 10
-27.1641473047
 20
-176.151408627
 30
0.0
 11
-32.8356374685
 21
-159.3515689
 31
0.0
  0
LINE
 62
0
  8
0
 10
-32.8356374685
 20
-159.3515689
 30
0.0
 11
-43.6956717849
 21
-168.157927424
 31
0.0
  0
LINE
 62
1
  8
0
 10
33.3547831451
 20
-151.227485962
 30
0.0
 11
9.9424387877
 21
-164.713240757
 31
0.0
  0
LINE
 62
1
  8
0
 10
9.9424387877
 20
-164.713240757
 30
0.0
 11
48.42026366
 21
-180.578597952
 31
0.0
  0
LINE
 62
1
  8
0
 10
48.42026366
 20
-180.578597952
 30
0.0
 11
33.3547831451
 21
-151.227485962
 31
0.0
  0
LINE
 62
0
  8
0
 10
87.3124534731
 20
-135.543225445
 30
0.0
 11
132.816116499
 21
-131.298442678
 31
0.0
  0
LINE
 62
0
  8
0
 10
132.816116499
 20
-131.298442678
 30
0.0
 11
107.670611451
 21
-118.461455499
 31
0.0
  0
LINE
 62
1
  8
0
 10
107.670611451
 20
-118.461455499
 30
0.0
 11
87.3124534731
 21
-135.543225445
 31
0.0
  0
LINE
 62
1
  8
0
 10
18.3028891925
 20
-128.51503483
 30
0.0
 11
19.2508332486
 21
-96.6734556574
 31
0.0
  0
LINE
 62
0
  8
0
 10
19.2508332486
 20
-96.6734556574
 30
0.0
 11
1.73635637696
 21
-131.328520483
 31
0.0
  0
LINE
 62
0
  8
0
 10
1.73635637696
 20
-131.328520483
 30
0.0
 11
18.3028891925
 21
-128.51503483
 31
0.0
  0
LINE
 62
0
  8
0
 10
18.302889142
 20
-128.515034814
 30
0.0
 11
33.7399945205
 21
-129.622272156
 31
0.0
  0
LINE
 62
1
  8
0
 10
33.7399945205
 20
-129.622272156
 30
0.0
 11
41.4205327493
 21
-94.7976093074
 31
0.0
  0
LINE
 62
1
  8
0
 10
41.4205327493
 20
-94.7976093074
 30
0.0
 11
18.302889142
 21
-128.515034814
 31
0.0
  0
LINE
 62
1
  8
0
 10
8.80086718036
 20
-147.948321398
 30
0.0
 11
33.3547831764
 21
-151.227485835
 31
0.0
  0
LINE
 62
0
  8
0
 10
33.3547831764
 20
-151.227485835
 30
0.0
 11
18.2980941958
 21
-135.728138256
 31
0.0
  0
LINE
 62
0
  8
0
 10
18.2980941958
 20
-135.728138256
 30
0.0
 11
8.80086718036
 21
-147.948321398
 31
0.0
  0
TEXT
  8
0
 10
-5.79755104593
 20
-40.0667379553
 30
0.0
 40
1.0
  1
0
  0
TEXT
  8
0
 10
35.0471505709
 20
-140.451619176
 30
0.0
 40
1.0
  1
1
  0
TEXT
  8
0
 10
-9.93883877024
 20
-233.179858131
 30
0.0
 40
1.0
  1
2
  0
TEXT
  8
0
 10
-2.04981335977
 20
-196.114611699
 30
0.0
 40
1.0
  1
3
  0
TEXT
  8
0
 10
-37.6542637799
 20
-37.8048926424
 30
0.0
 40
1.0
  1
4
  0
TEXT
  8
0
 10
4.01309701145
 20
-54.4013349564
 30
0.0
 40
1.0
  1
5
  0
TEXT
  8
0
 10
-35.1692611427
 20
-203.699141411
 30
0.0
 40
1.0
  1
6
  0
TEXT
  8
0
 10
-41.8804178303
 20
-206.349281424
 30
0.0
 40
1.0
  1
7
  0
TEXT
  8
0
 10
32.8803266493
 20
-55.9591956947
 30
0.0
 40
1.0
  1
8
  0
TEXT
  8
0
 10
26.4367003968
 20
-91.4748100835
 30
0.0
 40
1.0
  1
9
  0
TEXT
  8
0
 10
35.3544433305
 20
-90.5129392547
 30
0.0
 40
1.0
  1
10
  0
TEXT
  8
0
 10
81.6375372721
 20
-85.9616578181
 30
0.0
 40
1.0
  1
7
  0
TEXT
  8
0
 10
74.805318338
 20
-144.803244672
 30
0.0
 40
1.0
  1
11
  0
TEXT
  8
0
 10
-2.77404244998
 20
-205.845724746
 30
0.0
 40
1.0
  1
3
  0
TEXT
  8
0
 10
-0.322935954208
 20
-212.268354772
 30
0.0
 40
1.0
  1
12
  0
TEXT
  8
0
 10
37.1474146479
 20
-199.911061728
 30
0.0
 40
1.0
  1
13
  0
TEXT
  8
0
 10
32.3405009404
 20
-186.765638948
 30
0.0
 40
1.0
  1
14
  0
TEXT
  8
0
 10
-26.455743263
 20
-167.310550749
 30
0.0
 40
1.0
  1
9
  0
TEXT
  8
0
 10
-40.0798552593
 20
-137.996143192
 30
0.0
 40
1.0
  1
4
  0
TEXT
  8
0
 10
-38.7989731981
 20
-147.185307413
 30
0.0
 40
1.0
  1
15
  0
TEXT
  8
0
 10
57.5545205299
 20
-120.036198247
 30
0.0
 40
1.0
  1
16
  0
TEXT
  8
0
 10
46.7197345841
 20
-105.917453247
 30
0.0
 40
1.0
  1
17
  0
TEXT
  8
0
 10
53.8565982621
 20
-59.4711861046
 30
0.0
 40
1.0
  1
18
  0
TEXT
  8
0
 10
55.1085344746
 20
-167.613708758
 30
0.0
 40
1.0
  1
19
  0
TEXT
  8
0
 10
33.7001466163
 20
-42.3550751038
 30
0.0
 40
1.0
  1
15
  0
TEXT
  8
0
 10
35.9512392117
 20
-43.7315041267
 30
0.0
 40
1.0
  1
20
  0
TEXT
  8
0
 10
-40.7423179709
 20
-192.953013391
 30
0.0
 40
1.0
  1
21
  0
TEXT
  8
0
 10
30.6937266414
 20
-62.3784666902
 30
0.0
 40
1.0
  1
5
  0
TEXT
  8
0
 10
128.042227125
 20
-65.9025940573
 30
0.0
 40
1.0
  1
22
  0
TEXT
  8
0
 10
125.261904903
 20
-59.7168129863
 30
0.0
 40
1.0
  1
12
  0
TEXT
  8
0
 10
2.15722903127
 20
-222.211516392
 30
0.0
 40
1.0
  1
22
  0
TEXT
  8
0
 10
10.8681875547
 20
-156.228877652
 30
0.0
 40
1.0
  1
23
  0
TEXT
  8
0
 10
90.7495661274
 20
-48.3896005928
 30
0.0
 40
1.0
  1
21
  0
TEXT
  8
0
 10
91.8357242117
 20
-51.2080833606
 30
0.0
 40
1.0
  1
24
  0
TEXT
  8
0
 10
71.8020941743
 20
-44.1384133476
 30
0.0
 40
1.0
  1
25
  0
TEXT
  8
0
 10
-18.066551203
 20
-34.275899156
 30
0.0
 40
1.0
  1
26
  0
TEXT
  8
0
 10
66.0309138045
 20
-215.412691467
 30
0.0
 40
1.0
  1
19
  0
TEXT
  8
0
 10
-35.2408754698
 20
-227.163131813
 30
0.0
 40
1.0
  1
27
  0
TEXT
  8
0
 10
-29.2535642416
 20
-148.392960599
 30
0.0
 40
1.0
  1
26
  0
TEXT
  8
0
 10
88.6502505698
 20
-77.1185648311
 30
0.0
 40
1.0
  1
6
  0
TEXT
  8
0
 10
109.634764084
 20
-72.6553579352
 30
0.0
 40
1.0
  1
28
  0
TEXT
  8
0
 10
97.7635155686
 20
-119.877945918
 30
0.0
 40
1.0
  1
29
  0
TEXT
  8
0
 10
90.169693927
 20
-60.3546506374
 30
0.0
 40
1.0
  1
24
  0
TEXT
  8
0
 10
30.4978306269
 20
-258.048273045
 30
0.0
 40
1.0
  1
30
  0
TEXT
  8
0
 10
32.8605892118
 20
-249.662347047
 30
0.0
 40
1.0
  1
31
  0
TEXT
  8
0
 10
54.3691954249
 20
-78.8559908328
 30
0.0
 40
1.0
  1
0
  0
TEXT
  8
0
 10
57.8795992913
 20
-84.4001579115
 30
0.0
 40
1.0
  1
10
  0
TEXT
  8
0
 10
-57.5769442895
 20
-37.215809877
 30
0.0
 40
1.0
  1
32
  0
TEXT
  8
0
 10
-60.1308166903
 20
-41.5997980964
 30
0.0
 40
1.0
  1
20
  0
TEXT
  8
0
 10
-20.6941705422
 20
-29.2038228183
 30
0.0
 40
1.0
  1
32
  0
TEXT
  8
0
 10
67.1143349535
 20
-100.651497899
 30
0.0
 40
1.0
  1
17
  0
TEXT
  8
0
 10
86.75244664
 20
-105.268643566
 30
0.0
 40
1.0
  1
27
  0
TEXT
  8
0
 10
6.6293919342
 20
-42.7256745914
 30
0.0
 40
1.0
  1
8
  0
TEXT
  8
0
 10
-15.7854533709
 20
-215.613121687
 30
0.0
 40
1.0
  1
28
  0
TEXT
  8
0
 10
59.5282373524
 20
-67.7357143975
 30
0.0
 40
1.0
  1
18
  0
TEXT
  8
0
 10
66.2843288695
 20
-118.361237037
 30
0.0
 40
1.0
  1
16
  0
TEXT
  8
0
 10
45.4426330786
 20
-212.019045918
 30
0.0
 40
1.0
  1
33
  0
TEXT
  8
0
 10
28.9641057788
 20
-235.259525079
 30
0.0
 40
1.0
  1
31
  0
TEXT
  8
0
 10
57.747372786
 20
-191.034641188
 30
0.0
 40
1.0
  1
13
  0
TEXT
  8
0
 10
56.7008747817
 20
-193.419200024
 30
0.0
 40
1.0
  1
33
  0
TEXT
  8
0
 10
54.0896724593
 20
-44.9865563503
 30
0.0
 40
1.0
  1
34
  0
TEXT
  8
0
 10
107.61089636
 20
-58.4372763798
 30
0.0
 40
1.0
  1
35
  0
TEXT
  8
0
 10
-8.16899304495
 20
-171.865767669
 30
0.0
 40
1.0
  1
36
  0
TEXT
  8
0
 10
-22.4732714369
 20
-194.343799562
 30
0.0
 40
1.0
  1
35
  0
TEXT
  8
0
 10
58.7036978491
 20
-243.324294241
 30
0.0
 40
1.0
  1
11
  0
TEXT
  8
0
 10
-21.9194959584
 20
-236.934121298
 30
0.0
 40
1.0
  1
29
  0
TEXT
  8
0
 10
-17.8173126632
 20
-235.506055717
 30
0.0
 40
1.0
  1
37
  0
TEXT
  8
0
 10
33.2970061966
 20
-179.381799624
 30
0.0
 40
1.0
  1
14
  0
TEXT
  8
0
 10
-45.0358466024
 20
-179.60062773
 30
0.0
 40
1.0
  1
25
  0
TEXT
  8
0
 10
-37.3208917975
 20
-164.919833222
 30
0.0
 40
1.0
  1
34
  0
TEXT
  8
0
 10
109.924963232
 20
-131.92731826
 30
0.0
 40
1.0
  1
30
  0
TEXT
  8
0
 10
119.561336076
 20
-126.215927362
 30
0.0
 40
1.0
  1
38
  0
TEXT
  8
0
 10
11.8323344628
 20
-114.677579638
 30
0.0
 40
1.0
  1
36
  0
TEXT
  8
0
 10
9.7684746336
 20
-128.442952242
 30
0.0
 40
1.0
  1
23
  0
TEXT
  8
0
 10
26.1287547106
 20
-127.572497094
 30
0.0
 40
1.0
  1
39
  0
TEXT
  8
0
 10
24.7505258564
 20
-144.522996997
 30
0.0
 40
1.0
  1
1
  0
TEXT
  8
0
 10
14.7338546142
 20
-142.758696233
 30
0.0
 40
1.0
  1
39
  0
ENDSEC
  0
EOF
