  0
SECTION
  2
HEADER
  9
$ACADVER
  1
AC1009
  9
$EXTMIN
 10
0.0
 20
0.0
 30
0.0
  9
$EXTMAX
 10
100.0
 20
100.0
 30
0.0
  9
$INSBASE
 10
0.0
 20
0.0
 30
0.0
  0
ENDSEC
  0
SECTION
  2
TABLES
  0
TABLE
  2
LTYPE
 70
19
  0
LTYPE
  2
PHANTOM
 70
0
  3
Phantom ______  __  __  ______  __  __  ______
 72
65
 73
6
 40
2.5
 49
1.25
 49
-0.25
 49
0.25
 49
-0.25
 49
0.25
 49
-0.25
  0
LTYPE
  2
DOT2
 70
0
  3
Dot (.5) . . . . . . . . . . . . . . . . . . . 
 72
65
 73
2
 40
0.1
 49
0.0
 49
-0.1
  0
LTYPE
  2
DIVIDE
 70
0
  3
Divide __ . . __ . . __ . . __ . . __ . . __
 72
65
 73
6
 40
1.6
 49
1.0
 49
-0.2
 49
0.0
 49
-0.2
 49
0.0
 49
-0.2
  0
LTYPE
  2
DIVIDEX2
 70
0
  3
Divide (2x) ____  . .  ____  . .  ____  . .  ____
 72
65
 73
6
 40
2.6
 49
2.0
 49
-0.2
 49
0.0
 49
-0.2
 49
0.0
 49
-0.2
  0
LTYPE
  2
CENTER
 70
0
  3
Center ____ _ ____ _ ____ _ ____ _ ____ _ ____
 72
65
 73
4
 40
2.0
 49
1.25
 49
-0.25
 49
0.25
 49
-0.25
  0
LTYPE
  2
DASHDOT
 70
0
  3
Dash dot __ . __ . __ . __ . __ . __ . __ . __
 72
65
 73
4
 40
1.4
 49
1.0
 49
-0.2
 49
0.0
 49
-0.2
  0
LTYPE
  2
CENTERX2
 70
0
  3
Center (2x) ________  __  ________  __  ________
 72
65
 73
4
 40
3.5
 49
2.5
 49
-0.25
 49
0.5
 49
-0.25
  0
LTYPE
  2
PHANTOMX2
 70
0
  3
Phantom (2x)____________    ____    ____    ____________
 72
65
 73
6
 40
4.25
 49
2.5
 49
-0.25
 49
0.5
 49
-0.25
 49
0.5
 49
-0.25
  0
LTYPE
  2
CONTINUOUS
 70
0
  3
Solid
 72
65
 73
0
 40
0.0
  0
LTYPE
  2
PHANTOM2
 70
0
  3
Phantom (.5x) ___ _ _ ___ _ _ ___ _ _ ___ _ _ ___
 72
65
 73
6
 40
1.25
 49
0.625
 49
-0.125
 49
0.125
 49
-0.125
 49
0.125
 49
-0.125
  0
LTYPE
  2
DASHED
 70
0
  3
Dashed __ __ __ __ __ __ __ __ __ __ __ __ __ _
 72
65
 73
2
 40
0.6
 49
0.5
 49
-0.1
  0
LTYPE
  2
DASHED2
 70
0
  3
Dashed (.5x) _ _ _ _ _ _ _ _ _ _ _ _ _ _
 72
65
 73
2
 40
0.3
 49
0.25
 49
-0.05
  0
LTYPE
  2
DASHDOT2
 70
0
  3
Dash dot (.5x) _ . _ . _ . _ . _ . _ . _ . _
 72
65
 73
4
 40
0.7
 49
0.5
 49
-0.1
 49
0.0
 49
-0.1
  0
LTYPE
  2
DOTX2
 70
0
  3
Dot (2x) .    .    .    .    .    .    .    . 
 72
65
 73
2
 40
0.4
 49
0.0
 49
-0.4
  0
LTYPE
  2
DIVIDE2
 70
0
  3
Divide(.5x) _ . _ . _ . _ . _ . _ . _ . _
 72
65
 73
6
 40
0.8
 49
0.5
 49
-0.1
 49
0.0
 49
-0.1
 49
0.0
 49
-0.1
  0
LTYPE
  2
CENTER2
 70
0
  3
Center (.5x) ____ _ ____ _ ____ _ ____ _ ____
 72
65
 73
4
 40
1.0
 49
0.625
 49
-0.125
 49
0.125
 49
-0.125
  0
LTYPE
  2
DASHDOTX2
 70
0
  3
Dash dot (2x) ____  .  ____  .  ____  .  ____
 72
65
 73
4
 40
2.4
 49
2.0
 49
-0.2
 49
0.0
 49
-0.2
  0
LTYPE
  2
DOT
 70
0
  3
Dot .  .  .  .  .  .  .  .  .  .  .  .  .  .  .  .
 72
65
 73
2
 40
0.2
 49
0.0
 49
-0.2
  0
LTYPE
  2
DASHEDX2
 70
0
  3
Dashed (2x) ____  ____  ____  ____  ____  ____
 72
65
 73
2
 40
1.2
 49
1.0
 49
-0.2
  0
ENDTAB
  0
TABLE
  2
LAYER
 70
5
  0
LAYER
  2
VIEWPORTS
 70
0
 62
7
  6
CONTINUOUS
  0
LAYER
  2
TABLEGRID
 70
0
 62
1
  6
CONTINUOUS
  0
LAYER
  2
TABLECONTENT
 70
0
 62
1
  6
CONTINUOUS
  0
LAYER
  2
DIMENSIONS
 70
0
 62
1
  6
CONTINUOUS
  0
LAYER
  2
TABLEBACKGROUND
 70
0
 62
1
  6
CONTINUOUS
  0
ENDTAB
  0
TABLE
  2
STYLE
 70
12
  0
STYLE
  2
TIMES
 70
0
 40
0.0
 41
1.0
 42
1.0
 50
0.0
 71
0
  3
times.ttf
  4

  0
STYLE
  2
ARIAL
 70
0
 40
0.0
 41
1.0
 42
1.0
 50
0.0
 71
0
  3
arial.ttf
  4

  0
STYLE
  2
TIMES_BOLD
 70
0
 40
0.0
 41
1.0
 42
1.0
 50
0.0
 71
0
  3
timesbd.ttf
  4

  0
STYLE
  2
ARIAL_BLACK
 70
0
 40
0.0
 41
1.0
 42
1.0
 50
0.0
 71
0
  3
ariblk.ttf
  4

  0
STYLE
  2
TIMES_ITALIC
 70
0
 40
0.0
 41
1.0
 42
1.0
 50
0.0
 71
0
  3
timesi.ttf
  4

  0
STYLE
  2
ISOCPEUR
 70
0
 40
0.0
 41
1.0
 42
1.0
 50
0.0
 71
0
  3
isocpeur.ttf
  4

  0
STYLE
  2
ARIAL_BOLD
 70
0
 40
0.0
 41
1.0
 42
1.0
 50
0.0
 71
0
  3
arialbd.ttf
  4

  0
STYLE
  2
ARIAL_ITALIC
 70
0
 40
0.0
 41
1.0
 42
1.0
 50
0.0
 71
0
  3
ariali.ttf
  4

  0
STYLE
  2
ARIAL_BOLD_ITALIC
 70
0
 40
0.0
 41
1.0
 42
1.0
 50
0.0
 71
0
  3
arialbi.ttf
  4

  0
STYLE
  2
TIMES_BOLD_ITALIC
 70
0
 40
0.0
 41
1.0
 42
1.0
 50
0.0
 71
0
  3
timesbi.ttf
  4

  0
STYLE
  2
ISOCPEUR_ITALIC
 70
0
 40
0.0
 41
1.0
 42
1.0
 50
0.0
 71
0
  3
isocpeui.ttf
  4

  0
STYLE
  2
STANDARD
 70
0
 40
0.0
 41
1.0
 42
1.0
 50
0.0
 71
0
  3
arial.ttf
  4

  0
ENDTAB
  0
TABLE
  2
VIEW
 70
0
  0
ENDTAB
  0
TABLE
  2
APPID
 70
1
  0
APPID
  2
DXFWRITE
 70
0
  0
ENDTAB
  0
TABLE
  2
VPORT
 70
0
  0
ENDTAB
  0
TABLE
  2
UCS
 70
0
  0
ENDTAB
  0
ENDSEC
  0
SECTION
  2
BLOCKS
  0
ENDSEC
  0
SECTION
  2
ENTITIES
  0
VIEWPORT
  8
VIEWPORTS
 67
1
 10
0.0
 20
0.0
 30
0.0
 40
1.0
 41
1.0
 68
1
 69
1
1001
ACAD
1000
MVIEW
1002
{
1070
16
1010
0.0
1020
0.0
1030
0.0
1010
0.0
1020
0.0
1030
0.0
1040
0.0
1040
1.0
1040
0.0
1040
0.0
1040
50.0
1040
0.0
1040
0.0
1070
0
1070
100
1070
1
1070
3
1070
0
1070
0
1070
0
1070
0
1040
0.0
1040
0.0
1040
0.0
1040
0.1
1040
0.1
1040
0.1
1040
0.1
1070
0
1002
{
1002
}
1002
}
  0
LINE
 62
0
  8
0
 10
1.92740812383
 20
1.37795357318
 30
0.0
 11
-8.80599212743
 21
-1.75160735171
 31
0.0
  0
LINE
 62
0
  8
0
 10
-8.80599212743
 20
-1.75160735171
 30
0.0
 11
2.30800810452
 21
-0.535466387733
 31
0.0
  0
LINE
 62
1
  8
0
 10
2.30800810452
 20
-0.535466387733
 30
0.0
 11
1.92740812383
 21
1.37795357318
 31
0.0
  0
LINE
 62
0
  8
0
 10
2.30802427215
 20
3.29136587593
 30
0.0
 11
-8.80596102738
 21
4.50762111272
 31
0.0
  0
LINE
 62
0
  8
0
 10
-8.80596102738
 20
4.50762111272
 30
0.0
 11
1.92740813597
 21
1.37795356815
 31
0.0
  0
LINE
 62
1
  8
0
 10
1.92740813597
 20
1.37795356815
 30
0.0
 11
2.30802427215
 21
3.29136587593
 31
0.0
  0
LINE
 62
0
  8
0
 10
3.39188433233
 20
4.91348261066
 30
0.0
 11
-6.41073147551
 21
10.2901689378
 31
0.0
  0
LINE
 62
0
  8
0
 10
-6.41073147551
 20
10.2901689378
 30
0.0
 11
2.308024275
 21
3.2913658828
 31
0.0
  0
LINE
 62
1
  8
0
 10
2.308024275
 20
3.2913658828
 30
0.0
 11
3.39188433233
 21
4.91348261066
 31
0.0
  0
LINE
 62
0
  8
0
 10
5.01400771822
 20
5.99734052782
 30
0.0
 11
-1.98478468031
 21
14.7161079271
 31
0.0
  0
LINE
 62
0
  8
0
 10
-1.98478468031
 20
14.7161079271
 30
0.0
 11
3.39188432019
 21
4.91348261569
 31
0.0
  0
LINE
 62
1
  8
0
 10
3.39188432019
 20
4.91348261569
 30
0.0
 11
5.01400771822
 21
5.99734052782
 31
0.0
  0
LINE
 62
0
  8
0
 10
6.92742768155
 20
6.37794050951
 30
0.0
 11
3.79786675665
 21
17.1113407608
 31
0.0
  0
LINE
 62
0
  8
0
 10
3.79786675665
 20
17.1113407608
 30
0.0
 11
5.01400772064
 21
5.99734052882
 31
0.0
  0
LINE
 62
1
  8
0
 10
5.01400772064
 20
5.99734052882
 30
0.0
 11
6.92742768155
 21
6.37794050951
 31
0.0
  0
LINE
 62
0
  8
0
 10
8.8408399843
 20
5.99732436119
 30
0.0
 11
10.0570952211
 21
17.1113096607
 31
0.0
  0
LINE
 62
0
  8
0
 10
10.0570952211
 20
17.1113096607
 30
0.0
 11
6.92742767652
 21
6.37794049737
 31
0.0
  0
LINE
 62
1
  8
0
 10
6.92742767652
 20
6.37794049737
 30
0.0
 11
8.8408399843
 21
5.99732436119
 31
0.0
  0
LINE
 62
0
  8
0
 10
10.462956719
 20
4.91346430101
 30
0.0
 11
15.8396430461
 21
14.7160801089
 31
0.0
  0
LINE
 62
0
  8
0
 10
15.8396430461
 20
14.7160801089
 30
0.0
 11
8.84083999117
 21
5.99732435834
 31
0.0
  0
LINE
 62
1
  8
0
 10
8.84083999117
 20
5.99732435834
 30
0.0
 11
10.462956719
 21
4.91346430101
 31
0.0
  0
LINE
 62
0
  8
0
 10
11.5468146362
 20
3.29134091512
 30
0.0
 11
20.2655820354
 21
10.2901333137
 31
0.0
  0
LINE
 62
0
  8
0
 10
20.2655820354
 20
10.2901333137
 30
0.0
 11
10.4629567241
 21
4.91346431315
 31
0.0
  0
LINE
 62
1
  8
0
 10
10.4629567241
 20
4.91346431315
 30
0.0
 11
11.5468146362
 21
3.29134091512
 31
0.0
  0
LINE
 62
0
  8
0
 10
11.9274146179
 20
1.37792095179
 30
0.0
 11
22.6608148691
 21
4.50748187669
 31
0.0
  0
LINE
 62
0
  8
0
 10
22.6608148691
 20
4.50748187669
 30
0.0
 11
11.5468146372
 21
3.2913409127
 31
0.0
  0
LINE
 62
1
  8
0
 10
11.5468146372
 20
3.2913409127
 30
0.0
 11
11.9274146179
 21
1.37792095179
 31
0.0
  0
LINE
 62
0
  8
0
 10
11.5467984696
 20
-0.535491350956
 30
0.0
 11
22.6607837691
 21
-1.75174658775
 31
0.0
  0
LINE
 62
0
  8
0
 10
22.6607837691
 20
-1.75174658775
 30
0.0
 11
11.9274146057
 21
1.37792095682
 31
0.0
  0
LINE
 62
1
  8
0
 10
11.9274146057
 20
1.37792095682
 30
0.0
 11
11.5467984696
 21
-0.535491350956
 31
0.0
  0
LINE
 62
0
  8
0
 10
10.4629384094
 20
-2.15760808569
 30
0.0
 11
20.2655542172
 21
-7.5342944128
 31
0.0
  0
LINE
 62
0
  8
0
 10
20.2655542172
 20
-7.5342944128
 30
0.0
 11
11.5467984667
 21
-0.535491357834
 31
0.0
  0
LINE
 62
1
  8
0
 10
11.5467984667
 20
-0.535491357834
 30
0.0
 11
10.4629384094
 21
-2.15760808569
 31
0.0
  0
LINE
 62
0
  8
0
 10
8.84081502349
 20
-3.24146600285
 30
0.0
 11
15.839607422
 21
-11.9602334021
 31
0.0
  0
LINE
 62
0
  8
0
 10
15.839607422
 20
-11.9602334021
 30
0.0
 11
10.4629384215
 21
-2.15760809072
 31
0.0
  0
LINE
 62
1
  8
0
 10
10.4629384215
 20
-2.15760809072
 30
0.0
 11
8.84081502349
 21
-3.24146600285
 31
0.0
  0
LINE
 62
0
  8
0
 10
6.92739506016
 20
-3.62206598454
 30
0.0
 11
10.0569559851
 21
-14.3554662358
 31
0.0
  0
LINE
 62
0
  8
0
 10
10.0569559851
 20
-14.3554662358
 30
0.0
 11
8.84081502107
 21
-3.24146600385
 31
0.0
  0
LINE
 62
1
  8
0
 10
8.84081502107
 20
-3.24146600385
 30
0.0
 11
6.92739506016
 21
-3.62206598454
 31
0.0
  0
LINE
 62
0
  8
0
 10
5.01398275741
 20
-3.24144983622
 30
0.0
 11
3.79772752062
 21
-14.3554351358
 31
0.0
  0
LINE
 62
0
  8
0
 10
3.79772752062
 20
-14.3554351358
 30
0.0
 11
6.92739506519
 21
-3.6220659724
 31
0.0
  0
LINE
 62
1
  8
0
 10
6.92739506519
 20
-3.6220659724
 30
0.0
 11
5.01398275741
 21
-3.24144983622
 31
0.0
  0
LINE
 62
0
  8
0
 10
3.39186602268
 20
-2.15758977604
 30
0.0
 11
-1.98482030443
 21
-11.9602055839
 31
0.0
  0
LINE
 62
0
  8
0
 10
-1.98482030443
 20
-11.9602055839
 30
0.0
 11
5.01398275054
 21
-3.24144983337
 31
0.0
  0
LINE
 62
1
  8
0
 10
5.01398275054
 20
-3.24144983337
 30
0.0
 11
3.39186602268
 21
-2.15758977604
 31
0.0
  0
LINE
 62
0
  8
0
 10
2.30800810552
 20
-0.535466390148
 30
0.0
 11
-6.41075929373
 21
-7.53425878868
 31
0.0
  0
LINE
 62
0
  8
0
 10
-6.41075929373
 20
-7.53425878868
 30
0.0
 11
3.39186601765
 21
-2.15758978818
 31
0.0
  0
LINE
 62
1
  8
0
 10
3.39186601765
 20
-2.15758978818
 30
0.0
 11
2.30800810552
 21
-0.535466390148
 31
0.0
  0
LINE
 62
1
  8
0
 10
3.39186601208
 20
-2.1575897919
 30
0.0
 11
1.92740811726
 21
1.37795357187
 31
0.0
  0
LINE
 62
1
  8
0
 10
1.92740811726
 20
1.37795357187
 30
0.0
 11
2.30800811109
 21
-0.535466386426
 31
0.0
  0
LINE
 62
1
  8
0
 10
2.30800811109
 20
-0.535466386426
 30
0.0
 11
3.39186601208
 21
-2.1575897919
 31
0.0
  0
LINE
 62
1
  8
0
 10
5.01398276113
 20
-3.24144981751
 30
0.0
 11
1.92740811726
 21
1.37795357187
 31
0.0
  0
LINE
 62
1
  8
0
 10
1.92740811726
 20
1.37795357187
 30
0.0
 11
3.39186601208
 21
-2.1575897919
 31
0.0
  0
LINE
 62
1
  8
0
 10
3.39186601208
 20
-2.1575897919
 30
0.0
 11
5.01398276113
 21
-3.24144981751
 31
0.0
  0
LINE
 62
1
  8
0
 10
5.01398276113
 20
-3.24144981751
 30
0.0
 11
2.30802429086
 21
3.29136587221
 31
0.0
  0
LINE
 62
1
  8
0
 10
2.30802429086
 20
3.29136587221
 30
0.0
 11
1.92740811726
 21
1.37795357187
 31
0.0
  0
LINE
 62
1
  8
0
 10
1.92740811726
 20
1.37795357187
 30
0.0
 11
5.01398276113
 21
-3.24144981751
 31
0.0
  0
LINE
 62
1
  8
0
 10
6.92739506147
 20
-3.62206599111
 30
0.0
 11
2.30802429086
 21
3.29136587221
 31
0.0
  0
LINE
 62
1
  8
0
 10
2.30802429086
 20
3.29136587221
 30
0.0
 11
5.01398276113
 21
-3.24144981751
 31
0.0
  0
LINE
 62
1
  8
0
 10
5.01398276113
 20
-3.24144981751
 30
0.0
 11
6.92739506147
 21
-3.62206599111
 31
0.0
  0
LINE
 62
1
  8
0
 10
6.92739506147
 20
-3.62206599111
 30
0.0
 11
3.39188431647
 21
4.91348262126
 31
0.0
  0
LINE
 62
1
  8
0
 10
3.39188431647
 20
4.91348262126
 30
0.0
 11
2.30802429086
 21
3.29136587221
 31
0.0
  0
LINE
 62
1
  8
0
 10
2.30802429086
 20
3.29136587221
 30
0.0
 11
6.92739506147
 21
-3.62206599111
 31
0.0
  0
LINE
 62
1
  8
0
 10
6.92739506147
 20
-3.62206599111
 30
0.0
 11
5.01400772194
 21
5.99734052225
 31
0.0
  0
LINE
 62
1
  8
0
 10
5.01400772194
 20
5.99734052225
 30
0.0
 11
3.39188431647
 21
4.91348262126
 31
0.0
  0
LINE
 62
1
  8
0
 10
3.39188431647
 20
4.91348262126
 30
0.0
 11
6.92739506147
 21
-3.62206599111
 31
0.0
  0
LINE
 62
1
  8
0
 10
8.84081501977
 20
-3.24146599728
 30
0.0
 11
5.01400772194
 21
5.99734052225
 31
0.0
  0
LINE
 62
1
  8
0
 10
5.01400772194
 20
5.99734052225
 30
0.0
 11
6.92739506147
 21
-3.62206599111
 31
0.0
  0
LINE
 62
1
  8
0
 10
6.92739506147
 20
-3.62206599111
 30
0.0
 11
8.84081501977
 21
-3.24146599728
 31
0.0
  0
LINE
 62
1
  8
0
 10
10.4629384252
 20
-2.15760809629
 30
0.0
 11
5.01400772194
 21
5.99734052225
 31
0.0
  0
LINE
 62
1
  8
0
 10
5.01400772194
 20
5.99734052225
 30
0.0
 11
8.84081501977
 21
-3.24146599728
 31
0.0
  0
LINE
 62
1
  8
0
 10
8.84081501977
 20
-3.24146599728
 30
0.0
 11
10.4629384252
 21
-2.15760809629
 31
0.0
  0
LINE
 62
1
  8
0
 10
10.4629384252
 20
-2.15760809629
 30
0.0
 11
6.92742768024
 21
6.37794051608
 31
0.0
  0
LINE
 62
1
  8
0
 10
6.92742768024
 20
6.37794051608
 30
0.0
 11
5.01400772194
 21
5.99734052225
 31
0.0
  0
LINE
 62
1
  8
0
 10
5.01400772194
 20
5.99734052225
 30
0.0
 11
10.4629384252
 21
-2.15760809629
 31
0.0
  0
LINE
 62
1
  8
0
 10
11.5467984508
 20
-0.535491347234
 30
0.0
 11
6.92742768024
 21
6.37794051608
 31
0.0
  0
LINE
 62
1
  8
0
 10
6.92742768024
 20
6.37794051608
 30
0.0
 11
10.4629384252
 21
-2.15760809629
 31
0.0
  0
LINE
 62
1
  8
0
 10
10.4629384252
 20
-2.15760809629
 30
0.0
 11
11.5467984508
 21
-0.535491347234
 31
0.0
  0
LINE
 62
1
  8
0
 10
11.5467984508
 20
-0.535491347234
 30
0.0
 11
8.84083998057
 21
5.99732434248
 31
0.0
  0
LINE
 62
1
  8
0
 10
8.84083998057
 20
5.99732434248
 30
0.0
 11
6.92742768024
 21
6.37794051608
 31
0.0
  0
LINE
 62
1
  8
0
 10
6.92742768024
 20
6.37794051608
 30
0.0
 11
11.5467984508
 21
-0.535491347234
 31
0.0
  0
LINE
 62
1
  8
0
 10
11.9274146245
 20
1.3779209531
 30
0.0
 11
8.84083998057
 21
5.99732434248
 31
0.0
  0
LINE
 62
1
  8
0
 10
8.84083998057
 20
5.99732434248
 30
0.0
 11
11.5467984508
 21
-0.535491347234
 31
0.0
  0
LINE
 62
1
  8
0
 10
11.5467984508
 20
-0.535491347234
 30
0.0
 11
11.9274146245
 21
1.3779209531
 31
0.0
  0
LINE
 62
1
  8
0
 10
11.9274146245
 20
1.3779209531
 30
0.0
 11
10.4629567296
 21
4.91346431687
 31
0.0
  0
LINE
 62
1
  8
0
 10
10.4629567296
 20
4.91346431687
 30
0.0
 11
8.84083998057
 21
5.99732434248
 31
0.0
  0
LINE
 62
1
  8
0
 10
8.84083998057
 20
5.99732434248
 30
0.0
 11
11.9274146245
 21
1.3779209531
 31
0.0
  0
LINE
 62
1
  8
0
 10
10.4629567296
 20
4.91346431687
 30
0.0
 11
11.9274146245
 21
1.3779209531
 31
0.0
  0
LINE
 62
1
  8
0
 10
11.9274146245
 20
1.3779209531
 30
0.0
 11
11.5468146306
 21
3.2913409114
 31
0.0
  0
LINE
 62
1
  8
0
 10
11.5468146306
 20
3.2913409114
 30
0.0
 11
10.4629567296
 21
4.91346431687
 31
0.0
  0
TEXT
  8
0
 10
-3.01941739838
 20
-1.62686345734
 30
0.0
 40
1.0
  1
0
  0
TEXT
  8
0
 10
-3.4121544434
 20
0.347562731511
 30
0.0
 40
1.0
  1
1
  0
TEXT
  8
0
 10
-3.41214617608
 20
2.40839557464
 30
0.0
 40
1.0
  1
2
  0
TEXT
  8
0
 10
-3.01938753776
 20
4.38281973763
 30
0.0
 40
1.0
  1
0
  0
TEXT
  8
0
 10
-2.23078164498
 20
6.28666702716
 30
0.0
 40
1.0
  1
3
  0
TEXT
  8
0
 10
-1.11236543406
 20
7.96051149501
 30
0.0
 40
1.0
  1
2
  0
TEXT
  8
0
 10
0.34486612387
 20
9.41773769363
 30
0.0
 40
1.0
  1
4
  0
TEXT
  8
0
 10
2.01870984203
 20
10.5361510202
 30
0.0
 40
1.0
  1
3
  0
TEXT
  8
0
 10
3.92261065102
 20
11.3247660317
 30
0.0
 40
1.0
  1
5
  0
TEXT
  8
0
 10
5.89703683988
 20
11.7175030767
 30
0.0
 40
1.0
  1
4
  0
TEXT
  8
0
 10
7.95786968301
 20
11.7174948094
 30
0.0
 40
1.0
  1
6
  0
TEXT
  8
0
 10
9.932293846
 20
11.3247361711
 30
0.0
 40
1.0
  1
5
  0
TEXT
  8
0
 10
11.8361411355
 20
10.5361302783
 30
0.0
 40
1.0
  1
7
  0
TEXT
  8
0
 10
13.5099856034
 20
9.4177140674
 30
0.0
 40
1.0
  1
6
  0
TEXT
  8
0
 10
14.967211802
 20
7.96048250947
 30
0.0
 40
1.0
  1
8
  0
TEXT
  8
0
 10
16.0856251285
 20
6.28663879131
 30
0.0
 40
1.0
  1
7
  0
TEXT
  8
0
 10
16.8742401401
 20
4.38273798232
 30
0.0
 40
1.0
  1
9
  0
TEXT
  8
0
 10
17.2669771851
 20
2.40831179346
 30
0.0
 40
1.0
  1
8
  0
TEXT
  8
0
 10
17.2669689178
 20
0.347478950332
 30
0.0
 40
1.0
  1
10
  0
TEXT
  8
0
 10
16.8742102795
 20
-1.62694521266
 30
0.0
 40
1.0
  1
9
  0
TEXT
  8
0
 10
16.0856043867
 20
-3.53079250219
 30
0.0
 40
1.0
  1
11
  0
TEXT
  8
0
 10
14.9671881758
 20
-5.20463697004
 30
0.0
 40
1.0
  1
10
  0
TEXT
  8
0
 10
13.5099566178
 20
-6.66186316866
 30
0.0
 40
1.0
  1
12
  0
TEXT
  8
0
 10
11.8361128997
 20
-7.78027649519
 30
0.0
 40
1.0
  1
11
  0
TEXT
  8
0
 10
9.93221209068
 20
-8.56889150675
 30
0.0
 40
1.0
  1
13
  0
TEXT
  8
0
 10
7.95778590183
 20
-8.96162855177
 30
0.0
 40
1.0
  1
12
  0
TEXT
  8
0
 10
5.8969530587
 20
-8.96162028445
 30
0.0
 40
1.0
  1
14
  0
TEXT
  8
0
 10
3.92252889571
 20
-8.56886164613
 30
0.0
 40
1.0
  1
13
  0
TEXT
  8
0
 10
2.01868160618
 20
-7.78025575334
 30
0.0
 40
1.0
  1
15
  0
TEXT
  8
0
 10
0.34483713833
 20
-6.66183954243
 30
0.0
 40
1.0
  1
14
  0
TEXT
  8
0
 10
-1.11238906029
 20
-5.2046079845
 30
0.0
 40
1.0
  1
1
  0
TEXT
  8
0
 10
-2.23080238682
 20
-3.53076426634
 30
0.0
 40
1.0
  1
15
  0
ENDSEC
  0
EOF
