  0
SECTION
  2
HEADER
  9
$ACADVER
  1
AC1009
  9
$EXTMIN
 10
0.0
 20
0.0
 30
0.0
  9
$EXTMAX
 10
100.0
 20
100.0
 30
0.0
  9
$INSBASE
 10
0.0
 20
0.0
 30
0.0
  0
ENDSEC
  0
SECTION
  2
TABLES
  0
TABLE
  2
LTYPE
 70
19
  0
LTYPE
  2
PHANTOM
 70
0
  3
Phantom ______  __  __  ______  __  __  ______
 72
65
 73
6
 40
2.5
 49
1.25
 49
-0.25
 49
0.25
 49
-0.25
 49
0.25
 49
-0.25
  0
LTYPE
  2
DOT2
 70
0
  3
Dot (.5) . . . . . . . . . . . . . . . . . . . 
 72
65
 73
2
 40
0.1
 49
0.0
 49
-0.1
  0
LTYPE
  2
DIVIDE
 70
0
  3
Divide __ . . __ . . __ . . __ . . __ . . __
 72
65
 73
6
 40
1.6
 49
1.0
 49
-0.2
 49
0.0
 49
-0.2
 49
0.0
 49
-0.2
  0
LTYPE
  2
DIVIDEX2
 70
0
  3
Divide (2x) ____  . .  ____  . .  ____  . .  ____
 72
65
 73
6
 40
2.6
 49
2.0
 49
-0.2
 49
0.0
 49
-0.2
 49
0.0
 49
-0.2
  0
LTYPE
  2
CENTER
 70
0
  3
Center ____ _ ____ _ ____ _ ____ _ ____ _ ____
 72
65
 73
4
 40
2.0
 49
1.25
 49
-0.25
 49
0.25
 49
-0.25
  0
LTYPE
  2
DASHDOT
 70
0
  3
Dash dot __ . __ . __ . __ . __ . __ . __ . __
 72
65
 73
4
 40
1.4
 49
1.0
 49
-0.2
 49
0.0
 49
-0.2
  0
LTYPE
  2
CENTERX2
 70
0
  3
Center (2x) ________  __  ________  __  ________
 72
65
 73
4
 40
3.5
 49
2.5
 49
-0.25
 49
0.5
 49
-0.25
  0
LTYPE
  2
PHANTOMX2
 70
0
  3
Phantom (2x)____________    ____    ____    ____________
 72
65
 73
6
 40
4.25
 49
2.5
 49
-0.25
 49
0.5
 49
-0.25
 49
0.5
 49
-0.25
  0
LTYPE
  2
CONTINUOUS
 70
0
  3
Solid
 72
65
 73
0
 40
0.0
  0
LTYPE
  2
PHANTOM2
 70
0
  3
Phantom (.5x) ___ _ _ ___ _ _ ___ _ _ ___ _ _ ___
 72
65
 73
6
 40
1.25
 49
0.625
 49
-0.125
 49
0.125
 49
-0.125
 49
0.125
 49
-0.125
  0
LTYPE
  2
DASHED
 70
0
  3
Dashed __ __ __ __ __ __ __ __ __ __ __ __ __ _
 72
65
 73
2
 40
0.6
 49
0.5
 49
-0.1
  0
LTYPE
  2
DASHED2
 70
0
  3
Dashed (.5x) _ _ _ _ _ _ _ _ _ _ _ _ _ _
 72
65
 73
2
 40
0.3
 49
0.25
 49
-0.05
  0
LTYPE
  2
DASHDOT2
 70
0
  3
Dash dot (.5x) _ . _ . _ . _ . _ . _ . _ . _
 72
65
 73
4
 40
0.7
 49
0.5
 49
-0.1
 49
0.0
 49
-0.1
  0
LTYPE
  2
DOTX2
 70
0
  3
Dot (2x) .    .    .    .    .    .    .    . 
 72
65
 73
2
 40
0.4
 49
0.0
 49
-0.4
  0
LTYPE
  2
DIVIDE2
 70
0
  3
Divide(.5x) _ . _ . _ . _ . _ . _ . _ . _
 72
65
 73
6
 40
0.8
 49
0.5
 49
-0.1
 49
0.0
 49
-0.1
 49
0.0
 49
-0.1
  0
LTYPE
  2
CENTER2
 70
0
  3
Center (.5x) ____ _ ____ _ ____ _ ____ _ ____
 72
65
 73
4
 40
1.0
 49
0.625
 49
-0.125
 49
0.125
 49
-0.125
  0
LTYPE
  2
DASHDOTX2
 70
0
  3
Dash dot (2x) ____  .  ____  .  ____  .  ____
 72
65
 73
4
 40
2.4
 49
2.0
 49
-0.2
 49
0.0
 49
-0.2
  0
LTYPE
  2
DOT
 70
0
  3
Dot .  .  .  .  .  .  .  .  .  .  .  .  .  .  .  .
 72
65
 73
2
 40
0.2
 49
0.0
 49
-0.2
  0
LTYPE
  2
DASHEDX2
 70
0
  3
Dashed (2x) ____  ____  ____  ____  ____  ____
 72
65
 73
2
 40
1.2
 49
1.0
 49
-0.2
  0
ENDTAB
  0
TABLE
  2
LAYER
 70
5
  0
LAYER
  2
VIEWPORTS
 70
0
 62
7
  6
CONTINUOUS
  0
LAYER
  2
TABLEGRID
 70
0
 62
1
  6
CONTINUOUS
  0
LAYER
  2
TABLECONTENT
 70
0
 62
1
  6
CONTINUOUS
  0
LAYER
  2
DIMENSIONS
 70
0
 62
1
  6
CONTINUOUS
  0
LAYER
  2
TABLEBACKGROUND
 70
0
 62
1
  6
CONTINUOUS
  0
ENDTAB
  0
TABLE
  2
STYLE
 70
12
  0
STYLE
  2
TIMES
 70
0
 40
0.0
 41
1.0
 42
1.0
 50
0.0
 71
0
  3
times.ttf
  4

  0
STYLE
  2
ARIAL
 70
0
 40
0.0
 41
1.0
 42
1.0
 50
0.0
 71
0
  3
arial.ttf
  4

  0
STYLE
  2
TIMES_BOLD
 70
0
 40
0.0
 41
1.0
 42
1.0
 50
0.0
 71
0
  3
timesbd.ttf
  4

  0
STYLE
  2
ARIAL_BLACK
 70
0
 40
0.0
 41
1.0
 42
1.0
 50
0.0
 71
0
  3
ariblk.ttf
  4

  0
STYLE
  2
TIMES_ITALIC
 70
0
 40
0.0
 41
1.0
 42
1.0
 50
0.0
 71
0
  3
timesi.ttf
  4

  0
STYLE
  2
ISOCPEUR
 70
0
 40
0.0
 41
1.0
 42
1.0
 50
0.0
 71
0
  3
isocpeur.ttf
  4

  0
STYLE
  2
ARIAL_BOLD
 70
0
 40
0.0
 41
1.0
 42
1.0
 50
0.0
 71
0
  3
arialbd.ttf
  4

  0
STYLE
  2
ARIAL_ITALIC
 70
0
 40
0.0
 41
1.0
 42
1.0
 50
0.0
 71
0
  3
ariali.ttf
  4

  0
STYLE
  2
ARIAL_BOLD_ITALIC
 70
0
 40
0.0
 41
1.0
 42
1.0
 50
0.0
 71
0
  3
arialbi.ttf
  4

  0
STYLE
  2
TIMES_BOLD_ITALIC
 70
0
 40
0.0
 41
1.0
 42
1.0
 50
0.0
 71
0
  3
timesbi.ttf
  4

  0
STYLE
  2
ISOCPEUR_ITALIC
 70
0
 40
0.0
 41
1.0
 42
1.0
 50
0.0
 71
0
  3
isocpeui.ttf
  4

  0
STYLE
  2
STANDARD
 70
0
 40
0.0
 41
1.0
 42
1.0
 50
0.0
 71
0
  3
arial.ttf
  4

  0
ENDTAB
  0
TABLE
  2
VIEW
 70
0
  0
ENDTAB
  0
TABLE
  2
APPID
 70
1
  0
APPID
  2
DXFWRITE
 70
0
  0
ENDTAB
  0
TABLE
  2
VPORT
 70
0
  0
ENDTAB
  0
TABLE
  2
UCS
 70
0
  0
ENDTAB
  0
ENDSEC
  0
SECTION
  2
BLOCKS
  0
ENDSEC
  0
SECTION
  2
ENTITIES
  0
VIEWPORT
  8
VIEWPORTS
 67
1
 10
0.0
 20
0.0
 30
0.0
 40
1.0
 41
1.0
 68
1
 69
1
1001
ACAD
1000
MVIEW
1002
{
1070
16
1010
0.0
1020
0.0
1030
0.0
1010
0.0
1020
0.0
1030
0.0
1040
0.0
1040
1.0
1040
0.0
1040
0.0
1040
50.0
1040
0.0
1040
0.0
1070
0
1070
100
1070
1
1070
3
1070
0
1070
0
1070
0
1070
0
1040
0.0
1040
0.0
1040
0.0
1040
0.1
1040
0.1
1040
0.1
1040
0.1
1070
0
1002
{
1002
}
1002
}
  0
LINE
 62
0
  8
0
 10
-12.0444694219
 20
-1.52985139947
 30
0.0
 11
7.34712638761
 21
-9.66589148027
 31
0.0
  0
LINE
 62
1
  8
0
 10
7.34712638761
 20
-9.66589148027
 30
0.0
 11
4.6973455988
 21
11.1957423909
 31
0.0
  0
LINE
 62
0
  8
0
 10
4.6973455988
 20
11.1957423909
 30
0.0
 11
-12.0444694219
 21
-1.52985139947
 31
0.0
  0
LINE
 62
0
  8
0
 10
2.04756574985
 20
32.0573777085
 30
0.0
 11
-14.694249059
 21
19.3317842603
 31
0.0
  0
LINE
 62
0
  8
0
 10
-14.694249059
 20
19.3317842603
 30
0.0
 11
4.69734537982
 21
11.1957426783
 31
0.0
  0
LINE
 62
1
  8
0
 10
4.69734537982
 20
11.1957426783
 30
0.0
 11
2.04756574985
 21
32.0573777085
 31
0.0
  0
LINE
 62
1
  8
0
 10
2.04756568156
 20
32.0573776999
 30
0.0
 11
4.69734544811
 21
11.195742687
 31
0.0
  0
LINE
 62
1
  8
0
 10
4.69734544811
 20
11.195742687
 30
0.0
 11
21.4391601965
 21
23.9213367599
 31
0.0
  0
LINE
 62
0
  8
0
 10
21.4391601965
 20
23.9213367599
 30
0.0
 11
2.04756568156
 21
32.0573776999
 31
0.0
  0
LINE
 62
1
  8
0
 10
21.4391600739
 20
23.9213369212
 30
0.0
 11
4.69734557078
 21
11.1957425256
 31
0.0
  0
LINE
 62
1
  8
0
 10
4.69734557078
 20
11.1957425256
 30
0.0
 11
24.0889406476
 21
3.05970258289
 31
0.0
  0
LINE
 62
1
  8
0
 10
24.0889406476
 20
3.05970258289
 30
0.0
 11
21.4391600739
 21
23.9213369212
 31
0.0
  0
LINE
 62
1
  8
0
 10
24.0889407089
 20
3.05970272895
 30
0.0
 11
4.6973455095
 21
11.1957423795
 31
0.0
  0
LINE
 62
1
  8
0
 10
4.6973455095
 20
11.1957423795
 30
0.0
 11
7.34712647691
 21
-9.66589146893
 31
0.0
  0
LINE
 62
1
  8
0
 10
7.34712647691
 20
-9.66589146893
 30
0.0
 11
24.0889407089
 21
3.05970272895
 31
0.0
  0
LINE
 62
1
  8
0
 10
12.646687967
 20
-51.3891601521
 30
0.0
 11
9.99690782672
 21
-30.5275257587
 31
0.0
  0
LINE
 62
0
  8
0
 10
9.99690782672
 20
-30.5275257587
 30
0.0
 11
-6.7449073581
 21
-43.2531200406
 31
0.0
  0
LINE
 62
0
  8
0
 10
-6.7449073581
 20
-43.2531200406
 30
0.0
 11
12.646687967
 21
-51.3891601521
 31
0.0
  0
LINE
 62
0
  8
0
 10
12.6466878164
 20
-51.3891598304
 30
0.0
 11
-4.09512761672
 21
-64.1147534884
 31
0.0
  0
LINE
 62
0
  8
0
 10
-4.09512761672
 20
-64.1147534884
 30
0.0
 11
15.296466996
 21
-72.250793685
 31
0.0
  0
LINE
 62
1
  8
0
 10
15.296466996
 20
-72.250793685
 30
0.0
 11
12.6466878164
 21
-51.3891598304
 31
0.0
  0
LINE
 62
1
  8
0
 10
9.99690794
 20
-30.5275261003
 30
0.0
 11
7.34712644452
 21
-9.66589140651
 31
0.0
  0
LINE
 62
0
  8
0
 10
7.34712644452
 20
-9.66589140651
 30
0.0
 11
-9.39468802546
 21
-22.3914870503
 31
0.0
  0
LINE
 62
0
  8
0
 10
-9.39468802546
 20
-22.3914870503
 30
0.0
 11
9.99690794
 21
-30.5275261003
 31
0.0
  0
LINE
 62
1
  8
0
 10
9.99690788123
 20
-30.5275261078
 30
0.0
 11
26.7387216525
 21
-17.8019309681
 31
0.0
  0
LINE
 62
1
  8
0
 10
26.7387216525
 20
-17.8019309681
 30
0.0
 11
7.34712650328
 21
-9.66589139905
 31
0.0
  0
LINE
 62
1
  8
0
 10
7.34712650328
 20
-9.66589139905
 30
0.0
 11
9.99690788123
 21
-30.5275261078
 31
0.0
  0
LINE
 62
1
  8
0
 10
26.7387216808
 20
-17.8019309007
 30
0.0
 11
24.0889407108
 21
3.05970272645
 31
0.0
  0
LINE
 62
1
  8
0
 10
24.0889407108
 20
3.05970272645
 30
0.0
 11
7.34712647501
 21
-9.66589146643
 31
0.0
  0
LINE
 62
1
  8
0
 10
7.34712647501
 20
-9.66589146643
 30
0.0
 11
26.7387216808
 21
-17.8019309007
 31
0.0
  0
LINE
 62
1
  8
0
 10
32.0382822304
 20
-59.5252004824
 30
0.0
 11
15.2964669694
 21
-72.2507937522
 31
0.0
  0
LINE
 62
0
  8
0
 10
15.2964669694
 20
-72.2507937522
 30
0.0
 11
34.6880611437
 21
-80.3868355041
 31
0.0
  0
LINE
 62
1
  8
0
 10
34.6880611437
 20
-80.3868355041
 30
0.0
 11
32.0382822304
 21
-59.5252004824
 31
0.0
  0
LINE
 62
1
  8
0
 10
32.0382822746
 20
-59.5252005406
 30
0.0
 11
12.6466878873
 21
-51.3891598214
 31
0.0
  0
LINE
 62
1
  8
0
 10
12.6466878873
 20
-51.3891598214
 30
0.0
 11
15.2964669251
 21
-72.250793694
 31
0.0
  0
LINE
 62
1
  8
0
 10
15.2964669251
 20
-72.250793694
 30
0.0
 11
32.0382822746
 21
-59.5252005406
 31
0.0
  0
LINE
 62
0
  8
0
 10
40.8307556124
 20
15.785296863
 30
0.0
 11
21.4391600697
 21
23.9213369207
 31
0.0
  0
LINE
 62
1
  8
0
 10
21.4391600697
 20
23.9213369207
 30
0.0
 11
24.0889406517
 21
3.05970258342
 31
0.0
  0
LINE
 62
0
  8
0
 10
24.0889406517
 20
3.05970258342
 30
0.0
 11
40.8307556124
 21
15.785296863
 31
0.0
  0
LINE
 62
1
  8
0
 10
32.0382823456
 20
-59.5252004677
 30
0.0
 11
34.6880610285
 21
-80.3868355188
 31
0.0
  0
LINE
 62
0
  8
0
 10
34.6880610285
 20
-80.3868355188
 30
0.0
 11
51.4298772784
 21
-67.6612426381
 31
0.0
  0
LINE
 62
0
  8
0
 10
51.4298772784
 20
-67.6612426381
 30
0.0
 11
32.0382823456
 21
-59.5252004677
 31
0.0
  0
LINE
 62
0
  8
0
 10
43.4805361946
 20
-5.07633716653
 30
0.0
 11
24.0889407817
 21
3.05970273545
 31
0.0
  0
LINE
 62
1
  8
0
 10
24.0889407817
 20
3.05970273545
 30
0.0
 11
26.7387216099
 21
-17.8019309097
 31
0.0
  0
LINE
 62
0
  8
0
 10
26.7387216099
 20
-17.8019309097
 30
0.0
 11
43.4805361946
 21
-5.07633716653
 31
0.0
  0
LINE
 62
1
  8
0
 10
29.3885027427
 20
-38.6635661689
 30
0.0
 11
9.99690786386
 21
-30.5275257539
 31
0.0
  0
LINE
 62
1
  8
0
 10
9.99690786386
 20
-30.5275257539
 30
0.0
 11
12.6466879298
 21
-51.3891601568
 31
0.0
  0
LINE
 62
1
  8
0
 10
12.6466879298
 20
-51.3891601568
 30
0.0
 11
29.3885027427
 21
-38.6635661689
 31
0.0
  0
LINE
 62
1
  8
0
 10
29.3885028608
 20
-38.6635663243
 30
0.0
 11
12.6466878117
 21
-51.3891600014
 31
0.0
  0
LINE
 62
1
  8
0
 10
12.6466878117
 20
-51.3891600014
 30
0.0
 11
32.0382823502
 21
-59.5252003605
 31
0.0
  0
LINE
 62
1
  8
0
 10
32.0382823502
 20
-59.5252003605
 30
0.0
 11
29.3885028608
 21
-38.6635663243
 31
0.0
  0
LINE
 62
1
  8
0
 10
29.3885028322
 20
-38.6635659557
 30
0.0
 11
26.7387217594
 21
-17.8019311087
 31
0.0
  0
LINE
 62
1
  8
0
 10
26.7387217594
 20
-17.8019311087
 30
0.0
 11
9.99690777439
 21
-30.5275259672
 31
0.0
  0
LINE
 62
1
  8
0
 10
9.99690777439
 20
-30.5275259672
 30
0.0
 11
29.3885028322
 21
-38.6635659557
 31
0.0
  0
LINE
 62
0
  8
0
 10
29.388502971
 20
-38.663565938
 30
0.0
 11
46.1303166357
 21
-25.9379703637
 31
0.0
  0
LINE
 62
0
  8
0
 10
46.1303166357
 20
-25.9379703637
 30
0.0
 11
26.7387216205
 21
-17.8019311263
 31
0.0
  0
LINE
 62
1
  8
0
 10
26.7387216205
 20
-17.8019311263
 30
0.0
 11
29.388502971
 21
-38.663565938
 31
0.0
  0
LINE
 62
1
  8
0
 10
29.3885027027
 20
-38.6635663443
 30
0.0
 11
32.0382825082
 21
-59.5252003404
 31
0.0
  0
LINE
 62
0
  8
0
 10
32.0382825082
 20
-59.5252003404
 30
0.0
 11
48.7800979566
 21
-46.7996059838
 31
0.0
  0
LINE
 62
0
  8
0
 10
48.7800979566
 20
-46.7996059838
 30
0.0
 11
29.3885027027
 21
-38.6635663443
 31
0.0
  0
TEXT
  8
0
 10
-1.76833398027
 20
-4.21468369293
 30
0.0
 40
1.0
  1
0
  0
TEXT
  8
0
 10
-2.76585497769
 20
3.63876455372
 30
0.0
 40
1.0
  1
1
  0
TEXT
  8
0
 10
-5.4156347289
 20
24.5004000362
 30
0.0
 40
1.0
  1
2
  0
TEXT
  8
0
 10
-4.41811417679
 20
16.6469511634
 30
0.0
 40
1.0
  1
1
  0
TEXT
  8
0
 10
11.1630253171
 20
26.6061695186
 30
0.0
 40
1.0
  1
3
  0
TEXT
  8
0
 10
2.53370718477
 20
-38.084503829
 30
0.0
 40
1.0
  1
4
  0
TEXT
  8
0
 10
3.53122785551
 20
-45.9379523554
 30
0.0
 40
1.0
  1
5
  0
TEXT
  8
0
 10
5.18348701356
 20
-58.9461376167
 30
0.0
 40
1.0
  1
5
  0
TEXT
  8
0
 10
6.18100726401
 20
-66.7995858555
 30
0.0
 40
1.0
  1
2
  0
TEXT
  8
0
 10
-0.116073753884
 20
-17.2228700923
 30
0.0
 40
1.0
  1
0
  0
TEXT
  8
0
 10
0.881447427664
 20
-25.0763188005
 30
0.0
 40
1.0
  1
4
  0
TEXT
  8
0
 10
25.5726017364
 20
-74.9356269412
 30
0.0
 40
1.0
  1
3
  0
TEXT
  8
0
 10
30.5546202988
 20
18.4701291472
 30
0.0
 40
1.0
  1
6
  0
TEXT
  8
0
 10
31.552141174
 20
10.6166806468
 30
0.0
 40
1.0
  1
7
  0
TEXT
  8
0
 10
42.1512623029
 20
-72.8298580731
 30
0.0
 40
1.0
  1
6
  0
TEXT
  8
0
 10
41.1537421261
 20
-64.9764092373
 30
0.0
 40
1.0
  1
8
  0
TEXT
  8
0
 10
33.204400952
 20
-2.3915049628
 30
0.0
 40
1.0
  1
7
  0
TEXT
  8
0
 10
34.2019219556
 20
-10.2449531059
 30
0.0
 40
1.0
  1
9
  0
TEXT
  8
0
 10
36.8517027422
 20
-31.1065873056
 30
0.0
 40
1.0
  1
10
  0
TEXT
  8
0
 10
35.8541816222
 20
-23.2531385049
 30
0.0
 40
1.0
  1
9
  0
TEXT
  8
0
 10
39.5014832876
 20
-51.9682222284
 30
0.0
 40
1.0
  1
8
  0
TEXT
  8
0
 10
38.5039628054
 20
-44.1147739163
 30
0.0
 40
1.0
  1
10
  0
ENDSEC
  0
EOF
