  0
SECTION
  2
HEADER
  9
$ACADVER
  1
AC1009
  9
$EXTMIN
 10
0.0
 20
0.0
 30
0.0
  9
$EXTMAX
 10
100.0
 20
100.0
 30
0.0
  9
$INSBASE
 10
0.0
 20
0.0
 30
0.0
  0
ENDSEC
  0
SECTION
  2
TABLES
  0
TABLE
  2
LTYPE
 70
19
  0
LTYPE
  2
PHANTOM
 70
0
  3
Phantom ______  __  __  ______  __  __  ______
 72
65
 73
6
 40
2.5
 49
1.25
 49
-0.25
 49
0.25
 49
-0.25
 49
0.25
 49
-0.25
  0
LTYPE
  2
DOT2
 70
0
  3
Dot (.5) . . . . . . . . . . . . . . . . . . . 
 72
65
 73
2
 40
0.1
 49
0.0
 49
-0.1
  0
LTYPE
  2
DIVIDE
 70
0
  3
Divide __ . . __ . . __ . . __ . . __ . . __
 72
65
 73
6
 40
1.6
 49
1.0
 49
-0.2
 49
0.0
 49
-0.2
 49
0.0
 49
-0.2
  0
LTYPE
  2
DIVIDEX2
 70
0
  3
Divide (2x) ____  . .  ____  . .  ____  . .  ____
 72
65
 73
6
 40
2.6
 49
2.0
 49
-0.2
 49
0.0
 49
-0.2
 49
0.0
 49
-0.2
  0
LTYPE
  2
CENTER
 70
0
  3
Center ____ _ ____ _ ____ _ ____ _ ____ _ ____
 72
65
 73
4
 40
2.0
 49
1.25
 49
-0.25
 49
0.25
 49
-0.25
  0
LTYPE
  2
DASHDOT
 70
0
  3
Dash dot __ . __ . __ . __ . __ . __ . __ . __
 72
65
 73
4
 40
1.4
 49
1.0
 49
-0.2
 49
0.0
 49
-0.2
  0
LTYPE
  2
CENTERX2
 70
0
  3
Center (2x) ________  __  ________  __  ________
 72
65
 73
4
 40
3.5
 49
2.5
 49
-0.25
 49
0.5
 49
-0.25
  0
LTYPE
  2
PHANTOMX2
 70
0
  3
Phantom (2x)____________    ____    ____    ____________
 72
65
 73
6
 40
4.25
 49
2.5
 49
-0.25
 49
0.5
 49
-0.25
 49
0.5
 49
-0.25
  0
LTYPE
  2
CONTINUOUS
 70
0
  3
Solid
 72
65
 73
0
 40
0.0
  0
LTYPE
  2
PHANTOM2
 70
0
  3
Phantom (.5x) ___ _ _ ___ _ _ ___ _ _ ___ _ _ ___
 72
65
 73
6
 40
1.25
 49
0.625
 49
-0.125
 49
0.125
 49
-0.125
 49
0.125
 49
-0.125
  0
LTYPE
  2
DASHED
 70
0
  3
Dashed __ __ __ __ __ __ __ __ __ __ __ __ __ _
 72
65
 73
2
 40
0.6
 49
0.5
 49
-0.1
  0
LTYPE
  2
DASHED2
 70
0
  3
Dashed (.5x) _ _ _ _ _ _ _ _ _ _ _ _ _ _
 72
65
 73
2
 40
0.3
 49
0.25
 49
-0.05
  0
LTYPE
  2
DASHDOT2
 70
0
  3
Dash dot (.5x) _ . _ . _ . _ . _ . _ . _ . _
 72
65
 73
4
 40
0.7
 49
0.5
 49
-0.1
 49
0.0
 49
-0.1
  0
LTYPE
  2
DOTX2
 70
0
  3
Dot (2x) .    .    .    .    .    .    .    . 
 72
65
 73
2
 40
0.4
 49
0.0
 49
-0.4
  0
LTYPE
  2
DIVIDE2
 70
0
  3
Divide(.5x) _ . _ . _ . _ . _ . _ . _ . _
 72
65
 73
6
 40
0.8
 49
0.5
 49
-0.1
 49
0.0
 49
-0.1
 49
0.0
 49
-0.1
  0
LTYPE
  2
CENTER2
 70
0
  3
Center (.5x) ____ _ ____ _ ____ _ ____ _ ____
 72
65
 73
4
 40
1.0
 49
0.625
 49
-0.125
 49
0.125
 49
-0.125
  0
LTYPE
  2
DASHDOTX2
 70
0
  3
Dash dot (2x) ____  .  ____  .  ____  .  ____
 72
65
 73
4
 40
2.4
 49
2.0
 49
-0.2
 49
0.0
 49
-0.2
  0
LTYPE
  2
DOT
 70
0
  3
Dot .  .  .  .  .  .  .  .  .  .  .  .  .  .  .  .
 72
65
 73
2
 40
0.2
 49
0.0
 49
-0.2
  0
LTYPE
  2
DASHEDX2
 70
0
  3
Dashed (2x) ____  ____  ____  ____  ____  ____
 72
65
 73
2
 40
1.2
 49
1.0
 49
-0.2
  0
ENDTAB
  0
TABLE
  2
LAYER
 70
5
  0
LAYER
  2
VIEWPORTS
 70
0
 62
7
  6
CONTINUOUS
  0
LAYER
  2
TABLEGRID
 70
0
 62
1
  6
CONTINUOUS
  0
LAYER
  2
TABLECONTENT
 70
0
 62
1
  6
CONTINUOUS
  0
LAYER
  2
DIMENSIONS
 70
0
 62
1
  6
CONTINUOUS
  0
LAYER
  2
TABLEBACKGROUND
 70
0
 62
1
  6
CONTINUOUS
  0
ENDTAB
  0
TABLE
  2
STYLE
 70
12
  0
STYLE
  2
TIMES
 70
0
 40
0.0
 41
1.0
 42
1.0
 50
0.0
 71
0
  3
times.ttf
  4

  0
STYLE
  2
ARIAL
 70
0
 40
0.0
 41
1.0
 42
1.0
 50
0.0
 71
0
  3
arial.ttf
  4

  0
STYLE
  2
TIMES_BOLD
 70
0
 40
0.0
 41
1.0
 42
1.0
 50
0.0
 71
0
  3
timesbd.ttf
  4

  0
STYLE
  2
ARIAL_BLACK
 70
0
 40
0.0
 41
1.0
 42
1.0
 50
0.0
 71
0
  3
ariblk.ttf
  4

  0
STYLE
  2
TIMES_ITALIC
 70
0
 40
0.0
 41
1.0
 42
1.0
 50
0.0
 71
0
  3
timesi.ttf
  4

  0
STYLE
  2
ISOCPEUR
 70
0
 40
0.0
 41
1.0
 42
1.0
 50
0.0
 71
0
  3
isocpeur.ttf
  4

  0
STYLE
  2
ARIAL_BOLD
 70
0
 40
0.0
 41
1.0
 42
1.0
 50
0.0
 71
0
  3
arialbd.ttf
  4

  0
STYLE
  2
ARIAL_ITALIC
 70
0
 40
0.0
 41
1.0
 42
1.0
 50
0.0
 71
0
  3
ariali.ttf
  4

  0
STYLE
  2
ARIAL_BOLD_ITALIC
 70
0
 40
0.0
 41
1.0
 42
1.0
 50
0.0
 71
0
  3
arialbi.ttf
  4

  0
STYLE
  2
TIMES_BOLD_ITALIC
 70
0
 40
0.0
 41
1.0
 42
1.0
 50
0.0
 71
0
  3
timesbi.ttf
  4

  0
STYLE
  2
ISOCPEUR_ITALIC
 70
0
 40
0.0
 41
1.0
 42
1.0
 50
0.0
 71
0
  3
isocpeui.ttf
  4

  0
STYLE
  2
STANDARD
 70
0
 40
0.0
 41
1.0
 42
1.0
 50
0.0
 71
0
  3
arial.ttf
  4

  0
ENDTAB
  0
TABLE
  2
VIEW
 70
0
  0
ENDTAB
  0
TABLE
  2
APPID
 70
1
  0
APPID
  2
DXFWRITE
 70
0
  0
ENDTAB
  0
TABLE
  2
VPORT
 70
0
  0
ENDTAB
  0
TABLE
  2
UCS
 70
0
  0
ENDTAB
  0
ENDSEC
  0
SECTION
  2
BLOCKS
  0
ENDSEC
  0
SECTION
  2
ENTITIES
  0
VIEWPORT
  8
VIEWPORTS
 67
1
 10
0.0
 20
0.0
 30
0.0
 40
1.0
 41
1.0
 68
1
 69
1
1001
ACAD
1000
MVIEW
1002
{
1070
16
1010
0.0
1020
0.0
1030
0.0
1010
0.0
1020
0.0
1030
0.0
1040
0.0
1040
1.0
1040
0.0
1040
0.0
1040
50.0
1040
0.0
1040
0.0
1070
0
1070
100
1070
1
1070
3
1070
0
1070
0
1070
0
1070
0
1040
0.0
1040
0.0
1040
0.0
1040
0.1
1040
0.1
1040
0.1
1040
0.1
1070
0
1002
{
1002
}
1002
}
  0
LINE
 62
0
  8
0
 10
-14.608836406
 20
11.9224002258
 30
0.0
 11
-74.219411888
 21
-20.8499445172
 31
0.0
  0
LINE
 62
1
  8
0
 10
-74.219411888
 20
-20.8499445172
 30
0.0
 11
-43.9609988186
 21
-58.6307821971
 31
0.0
  0
LINE
 62
0
  8
0
 10
-43.9609988186
 20
-58.6307821971
 30
0.0
 11
-14.608836406
 21
11.9224002258
 31
0.0
  0
LINE
 62
1
  8
0
 10
37.835650345
 20
-105.526674073
 30
0.0
 11
5.25403121224
 21
-135.555740379
 31
0.0
  0
LINE
 62
1
  8
0
 10
5.25403121224
 20
-135.555740379
 30
0.0
 11
13.2880025704
 21
-190.102028816
 31
0.0
  0
LINE
 62
1
  8
0
 10
13.2880025704
 20
-190.102028816
 30
0.0
 11
37.835650345
 21
-105.526674073
 31
0.0
  0
LINE
 62
0
  8
0
 10
13.2880025604
 20
-190.102028813
 30
0.0
 11
77.7379098282
 21
-170.696534267
 31
0.0
  0
LINE
 62
0
  8
0
 10
77.7379098282
 20
-170.696534267
 30
0.0
 11
37.8356503549
 21
-105.526674076
 31
0.0
  0
LINE
 62
1
  8
0
 10
37.8356503549
 20
-105.526674076
 30
0.0
 11
13.2880025604
 21
-190.102028813
 31
0.0
  0
LINE
 62
1
  8
0
 10
-128.78368767
 20
-467.89927112
 30
0.0
 11
-185.532956636
 21
-450.935957415
 31
0.0
  0
LINE
 62
0
  8
0
 10
-185.532956636
 20
-450.935957415
 30
0.0
 11
-178.405743385
 21
-491.370380913
 31
0.0
  0
LINE
 62
1
  8
0
 10
-178.405743385
 20
-491.370380913
 30
0.0
 11
-128.78368767
 21
-467.89927112
 31
0.0
  0
LINE
 62
1
  8
0
 10
-128.783687762
 20
-467.899270925
 30
0.0
 11
-178.405743293
 21
-491.370381107
 31
0.0
  0
LINE
 62
0
  8
0
 10
-178.405743293
 20
-491.370381107
 30
0.0
 11
-157.776486674
 21
-510.975443789
 31
0.0
  0
LINE
 62
1
  8
0
 10
-157.776486674
 20
-510.975443789
 30
0.0
 11
-128.783687762
 21
-467.899270925
 31
0.0
  0
LINE
 62
1
  8
0
 10
-43.9609980949
 20
-58.6307816175
 30
0.0
 11
-74.2194126117
 21
-20.8499450968
 31
0.0
  0
LINE
 62
0
  8
0
 10
-74.2194126117
 20
-20.8499450968
 30
0.0
 11
-112.699780587
 21
-82.7649374376
 31
0.0
  0
LINE
 62
1
  8
0
 10
-112.699780587
 20
-82.7649374376
 30
0.0
 11
-43.9609980949
 21
-58.6307816175
 31
0.0
  0
LINE
 62
0
  8
0
 10
-69.7053919719
 20
-365.561176027
 30
0.0
 11
-92.4077782227
 21
-303.621246411
 31
0.0
  0
LINE
 62
1
  8
0
 10
-92.4077782227
 20
-303.621246411
 30
0.0
 11
-126.078162514
 21
-367.423411439
 31
0.0
  0
LINE
 62
1
  8
0
 10
-126.078162514
 20
-367.423411439
 30
0.0
 11
-69.7053919719
 21
-365.561176027
 31
0.0
  0
LINE
 62
0
  8
0
 10
-117.49608453
 20
-252.036460779
 30
0.0
 11
-87.3031505894
 21
-274.134554603
 31
0.0
  0
LINE
 62
1
  8
0
 10
-87.3031505894
 20
-274.134554603
 30
0.0
 11
-45.7810043682
 21
-186.33203836
 31
0.0
  0
LINE
 62
1
  8
0
 10
-45.7810043682
 20
-186.33203836
 30
0.0
 11
-117.49608453
 21
-252.036460779
 31
0.0
  0
LINE
 62
1
  8
0
 10
-127.919090101
 20
-416.903241774
 30
0.0
 11
-185.532956587
 21
-450.935957249
 31
0.0
  0
LINE
 62
1
  8
0
 10
-185.532956587
 20
-450.935957249
 30
0.0
 11
-128.78368772
 21
-467.899271286
 31
0.0
  0
LINE
 62
1
  8
0
 10
-128.78368772
 20
-467.899271286
 30
0.0
 11
-127.919090101
 21
-416.903241774
 31
0.0
  0
LINE
 62
0
  8
0
 10
-118.067426873
 20
-252.839054756
 30
0.0
 11
-158.872997265
 21
-300.347456609
 31
0.0
  0
LINE
 62
1
  8
0
 10
-158.872997265
 20
-300.347456609
 30
0.0
 11
-87.3031505926
 21
-274.134554645
 31
0.0
  0
LINE
 62
0
  8
0
 10
-87.3031505926
 20
-274.134554645
 30
0.0
 11
-118.067426873
 21
-252.839054756
 31
0.0
  0
LINE
 62
1
  8
0
 10
-126.07816252
 20
-367.423411275
 30
0.0
 11
-56.5585998406
 21
-405.21284485
 31
0.0
  0
LINE
 62
1
  8
0
 10
-56.5585998406
 20
-405.21284485
 30
0.0
 11
-69.7053919664
 21
-365.561176191
 31
0.0
  0
LINE
 62
1
  8
0
 10
-69.7053919664
 20
-365.561176191
 30
0.0
 11
-126.07816252
 21
-367.423411275
 31
0.0
  0
LINE
 62
1
  8
0
 10
-63.5804413148
 20
-158.562990787
 30
0.0
 11
13.2880017494
 21
-190.102028937
 31
0.0
  0
LINE
 62
1
  8
0
 10
13.2880017494
 20
-190.102028937
 30
0.0
 11
5.25403203324
 21
-135.555740258
 31
0.0
  0
LINE
 62
0
  8
0
 10
5.25403203324
 20
-135.555740258
 30
0.0
 11
-63.5804413148
 21
-158.562990787
 31
0.0
  0
LINE
 62
1
  8
0
 10
-87.3031505762
 20
-274.134554609
 30
0.0
 11
-7.87739172924
 21
-272.039796336
 31
0.0
  0
LINE
 62
0
  8
0
 10
-7.87739172924
 20
-272.039796336
 30
0.0
 11
-45.7810043815
 21
-186.332038354
 31
0.0
  0
LINE
 62
1
  8
0
 10
-45.7810043815
 20
-186.332038354
 30
0.0
 11
-87.3031505762
 21
-274.134554609
 31
0.0
  0
LINE
 62
1
  8
0
 10
-116.339486631
 20
-169.70403587
 30
0.0
 11
-93.3255824075
 21
-123.228507314
 31
0.0
  0
LINE
 62
1
  8
0
 10
-93.3255824075
 20
-123.228507314
 30
0.0
 11
-149.426042416
 21
-136.017249915
 31
0.0
  0
LINE
 62
0
  8
0
 10
-149.426042416
 20
-136.017249915
 30
0.0
 11
-116.339486631
 21
-169.70403587
 31
0.0
  0
LINE
 62
1
  8
0
 10
-149.426042395
 20
-136.017250009
 30
0.0
 11
-93.325582429
 21
-123.22850722
 31
0.0
  0
LINE
 62
1
  8
0
 10
-93.325582429
 20
-123.22850722
 30
0.0
 11
-112.699780618
 21
-82.7649378725
 31
0.0
  0
LINE
 62
1
  8
0
 10
-112.699780618
 20
-82.7649378725
 30
0.0
 11
-149.426042395
 21
-136.017250009
 31
0.0
  0
LINE
 62
0
  8
0
 10
-128.783687697
 20
-467.899271286
 30
0.0
 11
-56.0301017621
 21
-482.86143809
 31
0.0
  0
LINE
 62
1
  8
0
 10
-56.0301017621
 20
-482.86143809
 30
0.0
 11
-127.919090123
 21
-416.903241773
 31
0.0
  0
LINE
 62
1
  8
0
 10
-127.919090123
 20
-416.903241773
 30
0.0
 11
-128.783687697
 21
-467.899271286
 31
0.0
  0
LINE
 62
1
  8
0
 10
-69.7053919282
 20
-365.561176178
 30
0.0
 11
-56.5585998788
 21
-405.212844862
 31
0.0
  0
LINE
 62
0
  8
0
 10
-56.5585998788
 20
-405.212844862
 30
0.0
 11
-18.5210219498
 21
-399.392555128
 31
0.0
  0
LINE
 62
0
  8
0
 10
-18.5210219498
 20
-399.392555128
 30
0.0
 11
-69.7053919282
 21
-365.561176178
 31
0.0
  0
LINE
 62
1
  8
0
 10
-7.87739173049
 20
-272.039796288
 30
0.0
 11
-87.3031505749
 21
-274.134554657
 31
0.0
  0
LINE
 62
1
  8
0
 10
-87.3031505749
 20
-274.134554657
 30
0.0
 11
-56.9639130473
 21
-298.863277473
 31
0.0
  0
LINE
 62
1
  8
0
 10
-56.9639130473
 20
-298.863277473
 30
0.0
 11
-7.87739173049
 21
-272.039796288
 31
0.0
  0
LINE
 62
1
  8
0
 10
1.2093229605
 20
-267.414791491
 30
0.0
 11
13.2880017493
 21
-190.102028955
 31
0.0
  0
LINE
 62
1
  8
0
 10
13.2880017493
 20
-190.102028955
 30
0.0
 11
-45.781004376
 21
-186.332038902
 31
0.0
  0
LINE
 62
0
  8
0
 10
-45.781004376
 20
-186.332038902
 30
0.0
 11
1.2093229605
 21
-267.414791491
 31
0.0
  0
LINE
 62
0
  8
0
 10
-125.837383716
 20
-65.5862493166
 30
0.0
 11
-149.426041892
 21
-136.017250356
 31
0.0
  0
LINE
 62
1
  8
0
 10
-149.426041892
 20
-136.017250356
 30
0.0
 11
-112.69978112
 21
-82.7649375261
 31
0.0
  0
LINE
 62
1
  8
0
 10
-112.69978112
 20
-82.7649375261
 30
0.0
 11
-125.837383716
 21
-65.5862493166
 31
0.0
  0
LINE
 62
0
  8
0
 10
-56.0301017735
 20
-482.861438103
 30
0.0
 11
-56.5585998922
 21
-405.212844926
 31
0.0
  0
LINE
 62
1
  8
0
 10
-56.5585998922
 20
-405.212844926
 30
0.0
 11
-127.919090112
 21
-416.903241761
 31
0.0
  0
LINE
 62
1
  8
0
 10
-127.919090112
 20
-416.903241761
 30
0.0
 11
-56.0301017735
 21
-482.861438103
 31
0.0
  0
LINE
 62
0
  8
0
 10
-205.365307072
 20
-348.114098816
 30
0.0
 11
-126.078162376
 21
-367.423411379
 31
0.0
  0
LINE
 62
1
  8
0
 10
-126.078162376
 20
-367.423411379
 30
0.0
 11
-158.872997433
 21
-300.347456536
 31
0.0
  0
LINE
 62
1
  8
0
 10
-158.872997433
 20
-300.347456536
 30
0.0
 11
-205.365307072
 21
-348.114098816
 31
0.0
  0
LINE
 62
1
  8
0
 10
-93.3255822726
 20
-123.22850736
 30
0.0
 11
-63.580441007
 21
-158.562991779
 31
0.0
  0
LINE
 62
0
  8
0
 10
-63.580441007
 20
-158.562991779
 30
0.0
 11
-7.55695158491
 21
-112.423129068
 31
0.0
  0
LINE
 62
0
  8
0
 10
-7.55695158491
 20
-112.423129068
 30
0.0
 11
-93.3255822726
 21
-123.22850736
 31
0.0
  0
LINE
 62
0
  8
0
 10
-205.228538283
 20
-387.285910384
 30
0.0
 11
-127.919090114
 21
-416.903241746
 31
0.0
  0
LINE
 62
1
  8
0
 10
-127.919090114
 20
-416.903241746
 30
0.0
 11
-126.078162471
 21
-367.423411185
 31
0.0
  0
LINE
 62
0
  8
0
 10
-126.078162471
 20
-367.423411185
 30
0.0
 11
-205.228538283
 21
-387.285910384
 31
0.0
  0
LINE
 62
1
  8
0
 10
-127.919090114
 20
-416.903241746
 30
0.0
 11
-56.5585998899
 21
-405.21284494
 31
0.0
  0
LINE
 62
1
  8
0
 10
-56.5585998899
 20
-405.21284494
 30
0.0
 11
-126.078162471
 21
-367.423411185
 31
0.0
  0
LINE
 62
1
  8
0
 10
-126.078162471
 20
-367.423411185
 30
0.0
 11
-127.919090114
 21
-416.903241746
 31
0.0
  0
LINE
 62
1
  8
0
 10
-185.532956636
 20
-450.935957164
 30
0.0
 11
-127.919090051
 21
-416.903241858
 31
0.0
  0
LINE
 62
0
  8
0
 10
-127.919090051
 20
-416.903241858
 30
0.0
 11
-208.628195312
 21
-398.464765207
 31
0.0
  0
LINE
 62
0
  8
0
 10
-208.628195312
 20
-398.464765207
 30
0.0
 11
-185.532956636
 21
-450.935957164
 31
0.0
  0
LINE
 62
1
  8
0
 10
5.25403118576
 20
-135.55574035
 30
0.0
 11
37.8356503715
 21
-105.526674102
 31
0.0
  0
LINE
 62
0
  8
0
 10
37.8356503715
 20
-105.526674102
 30
0.0
 11
-25.744397027
 21
-54.8580845078
 31
0.0
  0
LINE
 62
0
  8
0
 10
-25.744397027
 20
-54.8580845078
 30
0.0
 11
5.25403118576
 21
-135.55574035
 31
0.0
  0
LINE
 62
1
  8
0
 10
-92.4077782286
 20
-303.621246377
 30
0.0
 11
-87.3031505534
 21
-274.134554752
 31
0.0
  0
LINE
 62
1
  8
0
 10
-87.3031505534
 20
-274.134554752
 30
0.0
 11
-158.872997304
 21
-300.347456502
 31
0.0
  0
LINE
 62
1
  8
0
 10
-158.872997304
 20
-300.347456502
 30
0.0
 11
-92.4077782286
 21
-303.621246377
 31
0.0
  0
LINE
 62
0
  8
0
 10
-93.3255825859
 20
-123.228507295
 30
0.0
 11
-43.9609982212
 21
-58.6307812578
 31
0.0
  0
LINE
 62
1
  8
0
 10
-43.9609982212
 20
-58.6307812578
 30
0.0
 11
-112.699780461
 21
-82.7649377973
 31
0.0
  0
LINE
 62
1
  8
0
 10
-112.699780461
 20
-82.7649377973
 30
0.0
 11
-93.3255825859
 21
-123.228507295
 31
0.0
  0
LINE
 62
0
  8
0
 10
-130.014043527
 20
-11.9523587125
 30
0.0
 11
-125.837383782
 21
-65.5862493667
 31
0.0
  0
LINE
 62
1
  8
0
 10
-125.837383782
 20
-65.5862493667
 30
0.0
 11
-112.699781055
 21
-82.764937476
 31
0.0
  0
LINE
 62
0
  8
0
 10
-112.699781055
 20
-82.764937476
 30
0.0
 11
-130.014043527
 21
-11.9523587125
 31
0.0
  0
LINE
 62
0
  8
0
 10
-116.33948675
 20
-169.704035812
 30
0.0
 11
-129.909627573
 21
-215.091012787
 31
0.0
  0
LINE
 62
1
  8
0
 10
-129.909627573
 20
-215.091012787
 30
0.0
 11
-63.580440991
 21
-158.562991765
 31
0.0
  0
LINE
 62
1
  8
0
 10
-63.580440991
 20
-158.562991765
 30
0.0
 11
-116.33948675
 21
-169.704035812
 31
0.0
  0
LINE
 62
1
  8
0
 10
-166.986466298
 20
-290.414122427
 30
0.0
 11
-184.040414708
 21
-238.586929759
 31
0.0
  0
LINE
 62
0
  8
0
 10
-184.040414708
 20
-238.586929759
 30
0.0
 11
-211.629885094
 21
-263.575293308
 31
0.0
  0
LINE
 62
0
  8
0
 10
-211.629885094
 20
-263.575293308
 30
0.0
 11
-166.986466298
 21
-290.414122427
 31
0.0
  0
LINE
 62
1
  8
0
 10
-87.30315064
 20
-274.134554737
 30
0.0
 11
-92.407778142
 21
-303.621246392
 31
0.0
  0
LINE
 62
0
  8
0
 10
-92.407778142
 20
-303.621246392
 30
0.0
 11
-56.9639129822
 21
-298.863277393
 31
0.0
  0
LINE
 62
1
  8
0
 10
-56.9639129822
 20
-298.863277393
 30
0.0
 11
-87.30315064
 21
-274.134554737
 31
0.0
  0
LINE
 62
1
  8
0
 10
13.2880017405
 20
-190.102028954
 30
0.0
 11
1.20932296931
 21
-267.414791492
 31
0.0
  0
LINE
 62
0
  8
0
 10
1.20932296931
 20
-267.414791492
 30
0.0
 11
66.0339149782
 21
-231.913898108
 31
0.0
  0
LINE
 62
0
  8
0
 10
66.0339149782
 20
-231.913898108
 30
0.0
 11
13.2880017405
 21
-190.102028954
 31
0.0
  0
LINE
 62
1
  8
0
 10
-184.040414628
 20
-238.586929692
 30
0.0
 11
-117.496084761
 21
-252.036460384
 31
0.0
  0
LINE
 62
1
  8
0
 10
-117.496084761
 20
-252.036460384
 30
0.0
 11
-129.909627034
 21
-215.091013578
 31
0.0
  0
LINE
 62
0
  8
0
 10
-129.909627034
 20
-215.091013578
 30
0.0
 11
-184.040414628
 21
-238.586929692
 31
0.0
  0
LINE
 62
1
  8
0
 10
-45.7810043774
 20
-186.332038924
 30
0.0
 11
13.2880017507
 21
-190.102028934
 31
0.0
  0
LINE
 62
1
  8
0
 10
13.2880017507
 20
-190.102028934
 30
0.0
 11
-63.5804413162
 21
-158.56299079
 31
0.0
  0
LINE
 62
1
  8
0
 10
-63.5804413162
 20
-158.56299079
 30
0.0
 11
-45.7810043774
 21
-186.332038924
 31
0.0
  0
LINE
 62
1
  8
0
 10
-92.40777823
 20
-303.621246407
 30
0.0
 11
-158.872997303
 21
-300.347456472
 31
0.0
  0
LINE
 62
1
  8
0
 10
-158.872997303
 20
-300.347456472
 30
0.0
 11
-126.078162507
 21
-367.423411443
 31
0.0
  0
LINE
 62
1
  8
0
 10
-126.078162507
 20
-367.423411443
 30
0.0
 11
-92.40777823
 21
-303.621246407
 31
0.0
  0
LINE
 62
1
  8
0
 10
-157.776487501
 20
-510.975443233
 30
0.0
 11
-110.920402046
 21
-511.607654826
 31
0.0
  0
LINE
 62
0
  8
0
 10
-110.920402046
 20
-511.607654826
 30
0.0
 11
-128.783686936
 21
-467.899271481
 31
0.0
  0
LINE
 62
1
  8
0
 10
-128.783686936
 20
-467.899271481
 30
0.0
 11
-157.776487501
 21
-510.975443233
 31
0.0
  0
LINE
 62
0
  8
0
 10
-56.9639131276
 20
-298.863277326
 30
0.0
 11
-20.7225486087
 21
-318.004452753
 31
0.0
  0
LINE
 62
0
  8
0
 10
-20.7225486087
 20
-318.004452753
 30
0.0
 11
-7.87739165025
 21
-272.039796435
 31
0.0
  0
LINE
 62
1
  8
0
 10
-7.87739165025
 20
-272.039796435
 30
0.0
 11
-56.9639131276
 21
-298.863277326
 31
0.0
  0
LINE
 62
1
  8
0
 10
-93.3255822886
 20
-123.228507373
 30
0.0
 11
-116.33948675
 21
-169.704035811
 31
0.0
  0
LINE
 62
1
  8
0
 10
-116.33948675
 20
-169.704035811
 30
0.0
 11
-63.5804409909
 21
-158.562991766
 31
0.0
  0
LINE
 62
1
  8
0
 10
-63.5804409909
 20
-158.562991766
 30
0.0
 11
-93.3255822886
 21
-123.228507373
 31
0.0
  0
LINE
 62
1
  8
0
 10
-117.496084852
 20
-252.036460427
 30
0.0
 11
-45.7810040459
 21
-186.332038712
 31
0.0
  0
LINE
 62
1
  8
0
 10
-45.7810040459
 20
-186.332038712
 30
0.0
 11
-63.5804416477
 21
-158.562991002
 31
0.0
  0
LINE
 62
1
  8
0
 10
-63.5804416477
 20
-158.562991002
 30
0.0
 11
-117.496084852
 21
-252.036460427
 31
0.0
  0
LINE
 62
1
  8
0
 10
-63.5804416347
 20
-158.56299101
 30
0.0
 11
-129.909626929
 21
-215.091013543
 31
0.0
  0
LINE
 62
1
  8
0
 10
-129.909626929
 20
-215.091013543
 30
0.0
 11
-117.496084865
 21
-252.036460419
 31
0.0
  0
LINE
 62
1
  8
0
 10
-117.496084865
 20
-252.036460419
 30
0.0
 11
-63.5804416347
 21
-158.56299101
 31
0.0
  0
LINE
 62
0
  8
0
 10
-166.986466369
 20
-290.41412245
 30
0.0
 11
-117.496084752
 21
-252.036460341
 31
0.0
  0
LINE
 62
1
  8
0
 10
-117.496084752
 20
-252.036460341
 30
0.0
 11
-184.040414637
 21
-238.586929736
 31
0.0
  0
LINE
 62
1
  8
0
 10
-184.040414637
 20
-238.586929736
 30
0.0
 11
-166.986466369
 21
-290.41412245
 31
0.0
  0
LINE
 62
0
  8
0
 10
-148.618923678
 20
-537.921013537
 30
0.0
 11
-110.92040204
 21
-511.607654402
 31
0.0
  0
LINE
 62
1
  8
0
 10
-110.92040204
 20
-511.607654402
 30
0.0
 11
-157.776487506
 21
-510.975443657
 31
0.0
  0
LINE
 62
0
  8
0
 10
-157.776487506
 20
-510.975443657
 30
0.0
 11
-148.618923678
 21
-537.921013537
 31
0.0
  0
LINE
 62
0
  8
0
 10
-209.358021475
 20
-313.17788679
 30
0.0
 11
-205.365307036
 21
-348.114098851
 31
0.0
  0
LINE
 62
1
  8
0
 10
-205.365307036
 20
-348.114098851
 30
0.0
 11
-158.872997469
 21
-300.347456501
 31
0.0
  0
LINE
 62
0
  8
0
 10
-158.872997469
 20
-300.347456501
 30
0.0
 11
-209.358021475
 21
-313.17788679
 31
0.0
  0
TEXT
  8
0
 10
-43.6914741029
 20
-5.77822142724
 30
0.0
 40
1.0
  1
0
  0
TEXT
  8
0
 10
-30.6698463795
 20
-22.7780206031
 30
0.0
 40
1.0
  1
1
  0
TEXT
  8
0
 10
45.0804927164
 20
-178.962975396
 30
0.0
 40
1.0
  1
2
  0
TEXT
  8
0
 10
56.5075236352
 20
-138.894868443
 30
0.0
 40
1.0
  1
1
  0
TEXT
  8
0
 10
-180.492122974
 20
-470.892784294
 30
0.0
 40
1.0
  1
3
  0
TEXT
  8
0
 10
-167.05778943
 20
-500.085604626
 30
0.0
 40
1.0
  1
4
  0
TEXT
  8
0
 10
-92.1856009911
 20
-52.5992336579
 30
0.0
 40
1.0
  1
5
  0
TEXT
  8
0
 10
-82.4649651236
 20
-335.107414378
 30
0.0
 40
1.0
  1
6
  0
TEXT
  8
0
 10
-101.513703663
 20
-261.875071172
 30
0.0
 40
1.0
  1
7
  0
TEXT
  8
0
 10
-137.332322862
 20
-277.57060319
 30
0.0
 40
1.0
  1
8
  0
TEXT
  8
0
 10
-103.539026591
 20
-264.720146368
 30
0.0
 40
1.0
  1
7
  0
TEXT
  8
0
 10
-28.687701977
 20
-148.482002938
 30
0.0
 40
1.0
  1
9
  0
TEXT
  8
0
 10
-28.2010341474
 20
-229.79260156
 30
0.0
 40
1.0
  1
10
  0
TEXT
  8
0
 10
-131.81261324
 20
-151.809559533
 30
0.0
 40
1.0
  1
11
  0
TEXT
  8
0
 10
-92.1047352671
 20
-473.911103294
 30
0.0
 40
1.0
  1
12
  0
TEXT
  8
0
 10
-37.7666915707
 20
-400.819957547
 30
0.0
 40
1.0
  1
13
  0
TEXT
  8
0
 10
-44.9403163551
 20
-383.728220924
 30
0.0
 40
1.0
  1
14
  0
TEXT
  8
0
 10
-20.9880323289
 20
-226.121289268
 30
0.0
 40
1.0
  1
10
  0
TEXT
  8
0
 10
-136.20936578
 20
-101.27812043
 30
0.0
 40
1.0
  1
12
  0
TEXT
  8
0
 10
-57.79431609
 20
-444.047350699
 30
0.0
 40
1.0
  1
15
  0
TEXT
  8
0
 10
-165.366803871
 20
-356.311351897
 30
0.0
 40
1.0
  1
16
  0
TEXT
  8
0
 10
-36.5222925372
 20
-134.335194193
 30
0.0
 40
1.0
  1
9
  0
TEXT
  8
0
 10
-50.2537746744
 20
-119.314054302
 30
0.0
 40
1.0
  1
17
  0
TEXT
  8
0
 10
-166.037193863
 20
-400.693848177
 30
0.0
 40
1.0
  1
18
  0
TEXT
  8
0
 10
-165.288251217
 20
-378.809549991
 30
0.0
 40
1.0
  1
16
  0
TEXT
  8
0
 10
-168.607719422
 20
-409.14632796
 30
0.0
 40
1.0
  1
18
  0
TEXT
  8
0
 10
-195.707679771
 20
-424.096079783
 30
0.0
 40
1.0
  1
19
  0
TEXT
  8
0
 10
5.11078456122
 20
-81.3654395027
 30
0.0
 40
1.0
  1
20
  0
TEXT
  8
0
 10
-8.84493713494
 20
-94.6690353615
 30
0.0
 40
1.0
  1
17
  0
TEXT
  8
0
 10
-69.8351269054
 20
-90.0188612326
 30
0.0
 40
1.0
  1
20
  0
TEXT
  8
0
 10
-126.430241286
 20
-38.6528463453
 30
0.0
 40
1.0
  1
21
  0
TEXT
  8
0
 10
-122.81398934
 20
-47.7149155105
 30
0.0
 40
1.0
  1
5
  0
TEXT
  8
0
 10
-121.687417884
 20
-192.827211044
 30
0.0
 40
1.0
  1
22
  0
TEXT
  8
0
 10
-196.828193706
 20
-252.192884542
 30
0.0
 40
1.0
  1
23
  0
TEXT
  8
0
 10
-188.535314846
 20
-275.709139469
 30
0.0
 40
1.0
  1
24
  0
TEXT
  8
0
 10
-74.8854147917
 20
-299.755597128
 30
0.0
 40
1.0
  1
25
  0
TEXT
  8
0
 10
32.9011203093
 20
-248.348715036
 30
0.0
 40
1.0
  1
26
  0
TEXT
  8
0
 10
38.7291549307
 20
-212.183438911
 30
0.0
 40
1.0
  1
2
  0
TEXT
  8
0
 10
-156.377769988
 20
-228.214940904
 30
0.0
 40
1.0
  1
27
  0
TEXT
  8
0
 10
-121.240558748
 20
-490.320938403
 30
0.0
 40
1.0
  1
11
  0
TEXT
  8
0
 10
-38.1426982741
 20
-307.10749628
 30
0.0
 40
1.0
  1
28
  0
TEXT
  8
0
 10
-15.7446195544
 20
-294.618406823
 30
0.0
 40
1.0
  1
29
  0
TEXT
  8
0
 10
-143.160471447
 20
-270.039931145
 30
0.0
 40
1.0
  1
8
  0
TEXT
  8
0
 10
-130.628200005
 20
-523.534328291
 30
0.0
 40
1.0
  1
30
  0
TEXT
  8
0
 10
-151.777483359
 20
-523.965560173
 30
0.0
 40
1.0
  1
4
  0
TEXT
  8
0
 10
-205.871365268
 20
-330.475672745
 30
0.0
 40
1.0
  1
31
  0
TEXT
  8
0
 10
-183.746039657
 20
-308.216457068
 30
0.0
 40
1.0
  1
24
  0
ENDSEC
  0
EOF
