  0
SECTION
  2
HEADER
  9
$ACADVER
  1
AC1009
  9
$EXTMIN
 10
0.0
 20
0.0
 30
0.0
  9
$EXTMAX
 10
100.0
 20
100.0
 30
0.0
  9
$INSBASE
 10
0.0
 20
0.0
 30
0.0
  0
ENDSEC
  0
SECTION
  2
TABLES
  0
TABLE
  2
LTYPE
 70
19
  0
LTYPE
  2
PHANTOM
 70
0
  3
Phantom ______  __  __  ______  __  __  ______
 72
65
 73
6
 40
2.5
 49
1.25
 49
-0.25
 49
0.25
 49
-0.25
 49
0.25
 49
-0.25
  0
LTYPE
  2
DOT2
 70
0
  3
Dot (.5) . . . . . . . . . . . . . . . . . . . 
 72
65
 73
2
 40
0.1
 49
0.0
 49
-0.1
  0
LTYPE
  2
DIVIDE
 70
0
  3
Divide __ . . __ . . __ . . __ . . __ . . __
 72
65
 73
6
 40
1.6
 49
1.0
 49
-0.2
 49
0.0
 49
-0.2
 49
0.0
 49
-0.2
  0
LTYPE
  2
DIVIDEX2
 70
0
  3
Divide (2x) ____  . .  ____  . .  ____  . .  ____
 72
65
 73
6
 40
2.6
 49
2.0
 49
-0.2
 49
0.0
 49
-0.2
 49
0.0
 49
-0.2
  0
LTYPE
  2
CENTER
 70
0
  3
Center ____ _ ____ _ ____ _ ____ _ ____ _ ____
 72
65
 73
4
 40
2.0
 49
1.25
 49
-0.25
 49
0.25
 49
-0.25
  0
LTYPE
  2
DASHDOT
 70
0
  3
Dash dot __ . __ . __ . __ . __ . __ . __ . __
 72
65
 73
4
 40
1.4
 49
1.0
 49
-0.2
 49
0.0
 49
-0.2
  0
LTYPE
  2
CENTERX2
 70
0
  3
Center (2x) ________  __  ________  __  ________
 72
65
 73
4
 40
3.5
 49
2.5
 49
-0.25
 49
0.5
 49
-0.25
  0
LTYPE
  2
PHANTOMX2
 70
0
  3
Phantom (2x)____________    ____    ____    ____________
 72
65
 73
6
 40
4.25
 49
2.5
 49
-0.25
 49
0.5
 49
-0.25
 49
0.5
 49
-0.25
  0
LTYPE
  2
CONTINUOUS
 70
0
  3
Solid
 72
65
 73
0
 40
0.0
  0
LTYPE
  2
PHANTOM2
 70
0
  3
Phantom (.5x) ___ _ _ ___ _ _ ___ _ _ ___ _ _ ___
 72
65
 73
6
 40
1.25
 49
0.625
 49
-0.125
 49
0.125
 49
-0.125
 49
0.125
 49
-0.125
  0
LTYPE
  2
DASHED
 70
0
  3
Dashed __ __ __ __ __ __ __ __ __ __ __ __ __ _
 72
65
 73
2
 40
0.6
 49
0.5
 49
-0.1
  0
LTYPE
  2
DASHED2
 70
0
  3
Dashed (.5x) _ _ _ _ _ _ _ _ _ _ _ _ _ _
 72
65
 73
2
 40
0.3
 49
0.25
 49
-0.05
  0
LTYPE
  2
DASHDOT2
 70
0
  3
Dash dot (.5x) _ . _ . _ . _ . _ . _ . _ . _
 72
65
 73
4
 40
0.7
 49
0.5
 49
-0.1
 49
0.0
 49
-0.1
  0
LTYPE
  2
DOTX2
 70
0
  3
Dot (2x) .    .    .    .    .    .    .    . 
 72
65
 73
2
 40
0.4
 49
0.0
 49
-0.4
  0
LTYPE
  2
DIVIDE2
 70
0
  3
Divide(.5x) _ . _ . _ . _ . _ . _ . _ . _
 72
65
 73
6
 40
0.8
 49
0.5
 49
-0.1
 49
0.0
 49
-0.1
 49
0.0
 49
-0.1
  0
LTYPE
  2
CENTER2
 70
0
  3
Center (.5x) ____ _ ____ _ ____ _ ____ _ ____
 72
65
 73
4
 40
1.0
 49
0.625
 49
-0.125
 49
0.125
 49
-0.125
  0
LTYPE
  2
DASHDOTX2
 70
0
  3
Dash dot (2x) ____  .  ____  .  ____  .  ____
 72
65
 73
4
 40
2.4
 49
2.0
 49
-0.2
 49
0.0
 49
-0.2
  0
LTYPE
  2
DOT
 70
0
  3
Dot .  .  .  .  .  .  .  .  .  .  .  .  .  .  .  .
 72
65
 73
2
 40
0.2
 49
0.0
 49
-0.2
  0
LTYPE
  2
DASHEDX2
 70
0
  3
Dashed (2x) ____  ____  ____  ____  ____  ____
 72
65
 73
2
 40
1.2
 49
1.0
 49
-0.2
  0
ENDTAB
  0
TABLE
  2
LAYER
 70
5
  0
LAYER
  2
VIEWPORTS
 70
0
 62
7
  6
CONTINUOUS
  0
LAYER
  2
TABLEGRID
 70
0
 62
1
  6
CONTINUOUS
  0
LAYER
  2
TABLECONTENT
 70
0
 62
1
  6
CONTINUOUS
  0
LAYER
  2
DIMENSIONS
 70
0
 62
1
  6
CONTINUOUS
  0
LAYER
  2
TABLEBACKGROUND
 70
0
 62
1
  6
CONTINUOUS
  0
ENDTAB
  0
TABLE
  2
STYLE
 70
12
  0
STYLE
  2
TIMES
 70
0
 40
0.0
 41
1.0
 42
1.0
 50
0.0
 71
0
  3
times.ttf
  4

  0
STYLE
  2
ARIAL
 70
0
 40
0.0
 41
1.0
 42
1.0
 50
0.0
 71
0
  3
arial.ttf
  4

  0
STYLE
  2
TIMES_BOLD
 70
0
 40
0.0
 41
1.0
 42
1.0
 50
0.0
 71
0
  3
timesbd.ttf
  4

  0
STYLE
  2
ARIAL_BLACK
 70
0
 40
0.0
 41
1.0
 42
1.0
 50
0.0
 71
0
  3
ariblk.ttf
  4

  0
STYLE
  2
TIMES_ITALIC
 70
0
 40
0.0
 41
1.0
 42
1.0
 50
0.0
 71
0
  3
timesi.ttf
  4

  0
STYLE
  2
ISOCPEUR
 70
0
 40
0.0
 41
1.0
 42
1.0
 50
0.0
 71
0
  3
isocpeur.ttf
  4

  0
STYLE
  2
ARIAL_BOLD
 70
0
 40
0.0
 41
1.0
 42
1.0
 50
0.0
 71
0
  3
arialbd.ttf
  4

  0
STYLE
  2
ARIAL_ITALIC
 70
0
 40
0.0
 41
1.0
 42
1.0
 50
0.0
 71
0
  3
ariali.ttf
  4

  0
STYLE
  2
ARIAL_BOLD_ITALIC
 70
0
 40
0.0
 41
1.0
 42
1.0
 50
0.0
 71
0
  3
arialbi.ttf
  4

  0
STYLE
  2
TIMES_BOLD_ITALIC
 70
0
 40
0.0
 41
1.0
 42
1.0
 50
0.0
 71
0
  3
timesbi.ttf
  4

  0
STYLE
  2
ISOCPEUR_ITALIC
 70
0
 40
0.0
 41
1.0
 42
1.0
 50
0.0
 71
0
  3
isocpeui.ttf
  4

  0
STYLE
  2
STANDARD
 70
0
 40
0.0
 41
1.0
 42
1.0
 50
0.0
 71
0
  3
arial.ttf
  4

  0
ENDTAB
  0
TABLE
  2
VIEW
 70
0
  0
ENDTAB
  0
TABLE
  2
APPID
 70
1
  0
APPID
  2
DXFWRITE
 70
0
  0
ENDTAB
  0
TABLE
  2
VPORT
 70
0
  0
ENDTAB
  0
TABLE
  2
UCS
 70
0
  0
ENDTAB
  0
ENDSEC
  0
SECTION
  2
BLOCKS
  0
ENDSEC
  0
SECTION
  2
ENTITIES
  0
VIEWPORT
  8
VIEWPORTS
 67
1
 10
0.0
 20
0.0
 30
0.0
 40
1.0
 41
1.0
 68
1
 69
1
1001
ACAD
1000
MVIEW
1002
{
1070
16
1010
0.0
1020
0.0
1030
0.0
1010
0.0
1020
0.0
1030
0.0
1040
0.0
1040
1.0
1040
0.0
1040
0.0
1040
50.0
1040
0.0
1040
0.0
1070
0
1070
100
1070
1
1070
3
1070
0
1070
0
1070
0
1070
0
1040
0.0
1040
0.0
1040
0.0
1040
0.1
1040
0.1
1040
0.1
1040
0.1
1070
0
1002
{
1002
}
1002
}
  0
LINE
 62
0
  8
0
 10
-226.359089766
 20
-168.335009773
 30
0.0
 11
-262.546500625
 21
-211.870924157
 31
0.0
  0
LINE
 62
0
  8
0
 10
-262.546500625
 20
-211.870924157
 30
0.0
 11
-246.631527552
 21
-266.946596346
 31
0.0
  0
LINE
 62
1
  8
0
 10
-246.631527552
 20
-266.946596346
 30
0.0
 11
-226.359089766
 21
-168.335009773
 31
0.0
  0
LINE
 62
1
  8
0
 10
-206.470406508
 20
-167.619115278
 30
0.0
 11
-178.303315668
 21
-172.887468721
 31
0.0
  0
LINE
 62
0
  8
0
 10
-178.303315668
 20
-172.887468721
 30
0.0
 11
-164.614777896
 21
-134.178765487
 31
0.0
  0
LINE
 62
1
  8
0
 10
-164.614777896
 20
-134.178765487
 30
0.0
 11
-206.470406508
 21
-167.619115278
 31
0.0
  0
LINE
 62
0
  8
0
 10
-164.614777942
 20
-134.17876543
 30
0.0
 11
-218.440569054
 21
-151.719824608
 31
0.0
  0
LINE
 62
0
  8
0
 10
-218.440569054
 20
-151.719824608
 30
0.0
 11
-206.470406462
 21
-167.619115335
 31
0.0
  0
LINE
 62
1
  8
0
 10
-206.470406462
 20
-167.619115335
 30
0.0
 11
-164.614777942
 21
-134.17876543
 31
0.0
  0
LINE
 62
0
  8
0
 10
-246.631527787
 20
-266.946596298
 30
0.0
 11
-211.629884981
 21
-263.575293473
 31
0.0
  0
LINE
 62
1
  8
0
 10
-211.629884981
 20
-263.575293473
 30
0.0
 11
-226.359089531
 21
-168.335009821
 31
0.0
  0
LINE
 62
1
  8
0
 10
-226.359089531
 20
-168.335009821
 30
0.0
 11
-246.631527787
 21
-266.946596298
 31
0.0
  0
LINE
 62
0
  8
0
 10
-135.661846864
 20
-155.703856529
 30
0.0
 11
-178.303316285
 21
-172.887467565
 31
0.0
  0
LINE
 62
1
  8
0
 10
-178.303316285
 20
-172.887467565
 30
0.0
 11
-136.923697937
 21
-203.05925889
 31
0.0
  0
LINE
 62
0
  8
0
 10
-136.923697937
 20
-203.05925889
 30
0.0
 11
-135.661846864
 21
-155.703856529
 31
0.0
  0
LINE
 62
1
  8
0
 10
-184.040414853
 20
-238.5869296
 30
0.0
 11
-226.359089563
 21
-168.335009826
 31
0.0
  0
LINE
 62
1
  8
0
 10
-226.359089563
 20
-168.335009826
 30
0.0
 11
-211.62988495
 21
-263.575293468
 31
0.0
  0
LINE
 62
0
  8
0
 10
-211.62988495
 20
-263.575293468
 30
0.0
 11
-184.040414853
 21
-238.5869296
 31
0.0
  0
LINE
 62
1
  8
0
 10
-178.303316336
 20
-172.887467635
 30
0.0
 11
-184.040413296
 21
-238.586929283
 31
0.0
  0
LINE
 62
0
  8
0
 10
-184.040413296
 20
-238.586929283
 30
0.0
 11
-136.923697886
 21
-203.05925882
 31
0.0
  0
LINE
 62
1
  8
0
 10
-136.923697886
 20
-203.05925882
 30
0.0
 11
-178.303316336
 21
-172.887467635
 31
0.0
  0
LINE
 62
1
  8
0
 10
-178.303315479
 20
-172.88746771
 30
0.0
 11
-206.470406697
 21
-167.619116289
 31
0.0
  0
LINE
 62
1
  8
0
 10
-206.470406697
 20
-167.619116289
 30
0.0
 11
-184.040414153
 21
-238.586929208
 31
0.0
  0
LINE
 62
1
  8
0
 10
-184.040414153
 20
-238.586929208
 30
0.0
 11
-178.303315479
 21
-172.88746771
 31
0.0
  0
LINE
 62
1
  8
0
 10
-226.359090158
 20
-168.335010185
 30
0.0
 11
-184.040414258
 21
-238.586929241
 31
0.0
  0
LINE
 62
1
  8
0
 10
-184.040414258
 20
-238.586929241
 30
0.0
 11
-206.470406592
 21
-167.619116256
 31
0.0
  0
LINE
 62
0
  8
0
 10
-206.470406592
 20
-167.619116256
 30
0.0
 11
-226.359090158
 21
-168.335010185
 31
0.0
  0
TEXT
  8
0
 10
-243.299258592
 20
-191.061796097
 30
0.0
 40
1.0
  1
32
  0
TEXT
  8
0
 10
-253.147972282
 20
-238.992348783
 30
0.0
 40
1.0
  1
19
  0
TEXT
  8
0
 10
-172.873226534
 20
-153.033021484
 30
0.0
 40
1.0
  1
3
  0
TEXT
  8
0
 10
-191.062901962
 20
-144.375474327
 30
0.0
 40
1.0
  1
32
  0
TEXT
  8
0
 10
-211.257142923
 20
-158.767267303
 30
0.0
 40
1.0
  1
33
  0
TEXT
  8
0
 10
-229.27451846
 20
-263.767854772
 30
0.0
 40
1.0
  1
31
  0
TEXT
  8
0
 10
-156.421924598
 20
-165.686943383
 30
0.0
 40
1.0
  1
30
  0
TEXT
  8
0
 10
-137.792240161
 20
-179.341602289
 30
0.0
 40
1.0
  1
22
  0
TEXT
  8
0
 10
-198.842106109
 20
-249.969338537
 30
0.0
 40
1.0
  1
23
  0
TEXT
  8
0
 10
-161.385145772
 20
-219.625417916
 30
0.0
 40
1.0
  1
27
  0
TEXT
  8
0
 10
-216.360790761
 20
-169.476092431
 30
0.0
 40
1.0
  1
33
  0
ENDSEC
  0
EOF
