  0
SECTION
  2
HEADER
  9
$ACADVER
  1
AC1009
  9
$EXTMIN
 10
0.0
 20
0.0
 30
0.0
  9
$EXTMAX
 10
100.0
 20
100.0
 30
0.0
  9
$INSBASE
 10
0.0
 20
0.0
 30
0.0
  0
ENDSEC
  0
SECTION
  2
TABLES
  0
TABLE
  2
LTYPE
 70
19
  0
LTYPE
  2
PHANTOM
 70
0
  3
Phantom ______  __  __  ______  __  __  ______
 72
65
 73
6
 40
2.5
 49
1.25
 49
-0.25
 49
0.25
 49
-0.25
 49
0.25
 49
-0.25
  0
LTYPE
  2
DOT2
 70
0
  3
Dot (.5) . . . . . . . . . . . . . . . . . . . 
 72
65
 73
2
 40
0.1
 49
0.0
 49
-0.1
  0
LTYPE
  2
DIVIDE
 70
0
  3
Divide __ . . __ . . __ . . __ . . __ . . __
 72
65
 73
6
 40
1.6
 49
1.0
 49
-0.2
 49
0.0
 49
-0.2
 49
0.0
 49
-0.2
  0
LTYPE
  2
DIVIDEX2
 70
0
  3
Divide (2x) ____  . .  ____  . .  ____  . .  ____
 72
65
 73
6
 40
2.6
 49
2.0
 49
-0.2
 49
0.0
 49
-0.2
 49
0.0
 49
-0.2
  0
LTYPE
  2
CENTER
 70
0
  3
Center ____ _ ____ _ ____ _ ____ _ ____ _ ____
 72
65
 73
4
 40
2.0
 49
1.25
 49
-0.25
 49
0.25
 49
-0.25
  0
LTYPE
  2
DASHDOT
 70
0
  3
Dash dot __ . __ . __ . __ . __ . __ . __ . __
 72
65
 73
4
 40
1.4
 49
1.0
 49
-0.2
 49
0.0
 49
-0.2
  0
LTYPE
  2
CENTERX2
 70
0
  3
Center (2x) ________  __  ________  __  ________
 72
65
 73
4
 40
3.5
 49
2.5
 49
-0.25
 49
0.5
 49
-0.25
  0
LTYPE
  2
PHANTOMX2
 70
0
  3
Phantom (2x)____________    ____    ____    ____________
 72
65
 73
6
 40
4.25
 49
2.5
 49
-0.25
 49
0.5
 49
-0.25
 49
0.5
 49
-0.25
  0
LTYPE
  2
CONTINUOUS
 70
0
  3
Solid
 72
65
 73
0
 40
0.0
  0
LTYPE
  2
PHANTOM2
 70
0
  3
Phantom (.5x) ___ _ _ ___ _ _ ___ _ _ ___ _ _ ___
 72
65
 73
6
 40
1.25
 49
0.625
 49
-0.125
 49
0.125
 49
-0.125
 49
0.125
 49
-0.125
  0
LTYPE
  2
DASHED
 70
0
  3
Dashed __ __ __ __ __ __ __ __ __ __ __ __ __ _
 72
65
 73
2
 40
0.6
 49
0.5
 49
-0.1
  0
LTYPE
  2
DASHED2
 70
0
  3
Dashed (.5x) _ _ _ _ _ _ _ _ _ _ _ _ _ _
 72
65
 73
2
 40
0.3
 49
0.25
 49
-0.05
  0
LTYPE
  2
DASHDOT2
 70
0
  3
Dash dot (.5x) _ . _ . _ . _ . _ . _ . _ . _
 72
65
 73
4
 40
0.7
 49
0.5
 49
-0.1
 49
0.0
 49
-0.1
  0
LTYPE
  2
DOTX2
 70
0
  3
Dot (2x) .    .    .    .    .    .    .    . 
 72
65
 73
2
 40
0.4
 49
0.0
 49
-0.4
  0
LTYPE
  2
DIVIDE2
 70
0
  3
Divide(.5x) _ . _ . _ . _ . _ . _ . _ . _
 72
65
 73
6
 40
0.8
 49
0.5
 49
-0.1
 49
0.0
 49
-0.1
 49
0.0
 49
-0.1
  0
LTYPE
  2
CENTER2
 70
0
  3
Center (.5x) ____ _ ____ _ ____ _ ____ _ ____
 72
65
 73
4
 40
1.0
 49
0.625
 49
-0.125
 49
0.125
 49
-0.125
  0
LTYPE
  2
DASHDOTX2
 70
0
  3
Dash dot (2x) ____  .  ____  .  ____  .  ____
 72
65
 73
4
 40
2.4
 49
2.0
 49
-0.2
 49
0.0
 49
-0.2
  0
LTYPE
  2
DOT
 70
0
  3
Dot .  .  .  .  .  .  .  .  .  .  .  .  .  .  .  .
 72
65
 73
2
 40
0.2
 49
0.0
 49
-0.2
  0
LTYPE
  2
DASHEDX2
 70
0
  3
Dashed (2x) ____  ____  ____  ____  ____  ____
 72
65
 73
2
 40
1.2
 49
1.0
 49
-0.2
  0
ENDTAB
  0
TABLE
  2
LAYER
 70
5
  0
LAYER
  2
VIEWPORTS
 70
0
 62
7
  6
CONTINUOUS
  0
LAYER
  2
TABLEGRID
 70
0
 62
1
  6
CONTINUOUS
  0
LAYER
  2
TABLECONTENT
 70
0
 62
1
  6
CONTINUOUS
  0
LAYER
  2
DIMENSIONS
 70
0
 62
1
  6
CONTINUOUS
  0
LAYER
  2
TABLEBACKGROUND
 70
0
 62
1
  6
CONTINUOUS
  0
ENDTAB
  0
TABLE
  2
STYLE
 70
12
  0
STYLE
  2
TIMES
 70
0
 40
0.0
 41
1.0
 42
1.0
 50
0.0
 71
0
  3
times.ttf
  4

  0
STYLE
  2
ARIAL
 70
0
 40
0.0
 41
1.0
 42
1.0
 50
0.0
 71
0
  3
arial.ttf
  4

  0
STYLE
  2
TIMES_BOLD
 70
0
 40
0.0
 41
1.0
 42
1.0
 50
0.0
 71
0
  3
timesbd.ttf
  4

  0
STYLE
  2
ARIAL_BLACK
 70
0
 40
0.0
 41
1.0
 42
1.0
 50
0.0
 71
0
  3
ariblk.ttf
  4

  0
STYLE
  2
TIMES_ITALIC
 70
0
 40
0.0
 41
1.0
 42
1.0
 50
0.0
 71
0
  3
timesi.ttf
  4

  0
STYLE
  2
ISOCPEUR
 70
0
 40
0.0
 41
1.0
 42
1.0
 50
0.0
 71
0
  3
isocpeur.ttf
  4

  0
STYLE
  2
ARIAL_BOLD
 70
0
 40
0.0
 41
1.0
 42
1.0
 50
0.0
 71
0
  3
arialbd.ttf
  4

  0
STYLE
  2
ARIAL_ITALIC
 70
0
 40
0.0
 41
1.0
 42
1.0
 50
0.0
 71
0
  3
ariali.ttf
  4

  0
STYLE
  2
ARIAL_BOLD_ITALIC
 70
0
 40
0.0
 41
1.0
 42
1.0
 50
0.0
 71
0
  3
arialbi.ttf
  4

  0
STYLE
  2
TIMES_BOLD_ITALIC
 70
0
 40
0.0
 41
1.0
 42
1.0
 50
0.0
 71
0
  3
timesbi.ttf
  4

  0
STYLE
  2
ISOCPEUR_ITALIC
 70
0
 40
0.0
 41
1.0
 42
1.0
 50
0.0
 71
0
  3
isocpeui.ttf
  4

  0
STYLE
  2
STANDARD
 70
0
 40
0.0
 41
1.0
 42
1.0
 50
0.0
 71
0
  3
arial.ttf
  4

  0
ENDTAB
  0
TABLE
  2
VIEW
 70
0
  0
ENDTAB
  0
TABLE
  2
APPID
 70
1
  0
APPID
  2
DXFWRITE
 70
0
  0
ENDTAB
  0
TABLE
  2
VPORT
 70
0
  0
ENDTAB
  0
TABLE
  2
UCS
 70
0
  0
ENDTAB
  0
ENDSEC
  0
SECTION
  2
BLOCKS
  0
ENDSEC
  0
SECTION
  2
ENTITIES
  0
VIEWPORT
  8
VIEWPORTS
 67
1
 10
0.0
 20
0.0
 30
0.0
 40
1.0
 41
1.0
 68
1
 69
1
1001
ACAD
1000
MVIEW
1002
{
1070
16
1010
0.0
1020
0.0
1030
0.0
1010
0.0
1020
0.0
1030
0.0
1040
0.0
1040
1.0
1040
0.0
1040
0.0
1040
50.0
1040
0.0
1040
0.0
1070
0
1070
100
1070
1
1070
3
1070
0
1070
0
1070
0
1070
0
1040
0.0
1040
0.0
1040
0.0
1040
0.1
1040
0.1
1040
0.1
1040
0.1
1070
0
1002
{
1002
}
1002
}
  0
LINE
 62
1
  8
0
 10
-33.0554987799
 20
-338.605608792
 30
0.0
 11
-69.7053919593
 21
-365.561176225
 31
0.0
  0
LINE
 62
0
  8
0
 10
-69.7053919593
 20
-365.561176225
 30
0.0
 11
-18.5210219186
 21
-399.392555081
 31
0.0
  0
LINE
 62
1
  8
0
 10
-18.5210219186
 20
-399.392555081
 30
0.0
 11
-33.0554987799
 21
-338.605608792
 31
0.0
  0
LINE
 62
1
  8
0
 10
-33.0554992875
 20
-338.605608914
 30
0.0
 11
-18.5210214109
 21
-399.392554959
 31
0.0
  0
LINE
 62
1
  8
0
 10
-18.5210214109
 20
-399.392554959
 30
0.0
 11
50.5603110372
 21
-381.713452223
 31
0.0
  0
LINE
 62
1
  8
0
 10
50.5603110372
 20
-381.713452223
 30
0.0
 11
-33.0554992875
 21
-338.605608914
 31
0.0
  0
LINE
 62
0
  8
0
 10
50.5603110087
 20
-381.713452252
 30
0.0
 11
50.5084913225
 21
-307.80446447
 31
0.0
  0
LINE
 62
0
  8
0
 10
50.5084913225
 20
-307.80446447
 30
0.0
 11
2.80874063064
 21
-306.229195728
 31
0.0
  0
LINE
 62
1
  8
0
 10
2.80874063064
 20
-306.229195728
 30
0.0
 11
50.5603110087
 21
-381.713452252
 31
0.0
  0
LINE
 62
0
  8
0
 10
-33.0554988316
 20
-338.605608722
 30
0.0
 11
-92.4762863316
 21
-310.047140949
 31
0.0
  0
LINE
 62
1
  8
0
 10
-92.4762863316
 20
-310.047140949
 30
0.0
 11
-69.7053919076
 21
-365.561176296
 31
0.0
  0
LINE
 62
1
  8
0
 10
-69.7053919076
 20
-365.561176296
 30
0.0
 11
-33.0554988316
 21
-338.605608722
 31
0.0
  0
LINE
 62
1
  8
0
 10
50.7354727843
 20
-449.738569313
 30
0.0
 11
-18.5210216739
 21
-399.392555346
 31
0.0
  0
LINE
 62
1
  8
0
 10
-18.5210216739
 20
-399.392555346
 30
0.0
 11
15.0047406144
 21
-489.954902959
 31
0.0
  0
LINE
 62
0
  8
0
 10
15.0047406144
 20
-489.954902959
 30
0.0
 11
50.7354727843
 21
-449.738569313
 31
0.0
  0
LINE
 62
1
  8
0
 10
50.5603110325
 20
-381.713452204
 30
0.0
 11
-18.5210214062
 21
-399.392554978
 31
0.0
  0
LINE
 62
1
  8
0
 10
-18.5210214062
 20
-399.392554978
 30
0.0
 11
50.7354725165
 21
-449.738569681
 31
0.0
  0
LINE
 62
0
  8
0
 10
50.7354725165
 20
-449.738569681
 30
0.0
 11
50.5603110325
 21
-381.713452204
 31
0.0
  0
LINE
 62
0
  8
0
 10
-22.0074863153
 20
-273.610551397
 30
0.0
 11
-33.0554994532
 21
-338.605608704
 31
0.0
  0
LINE
 62
1
  8
0
 10
-33.0554994532
 20
-338.605608704
 30
0.0
 11
2.80874078497
 21
-306.229195934
 31
0.0
  0
LINE
 62
0
  8
0
 10
2.80874078497
 20
-306.229195934
 30
0.0
 11
-22.0074863153
 21
-273.610551397
 31
0.0
  0
LINE
 62
1
  8
0
 10
50.5603110286
 20
-381.71345224
 30
0.0
 11
2.80874061072
 21
-306.229195741
 31
0.0
  0
LINE
 62
1
  8
0
 10
2.80874061072
 20
-306.229195741
 30
0.0
 11
-33.0554992789
 21
-338.605608897
 31
0.0
  0
LINE
 62
1
  8
0
 10
-33.0554992789
 20
-338.605608897
 30
0.0
 11
50.5603110286
 21
-381.71345224
 31
0.0
  0
LINE
 62
0
  8
0
 10
-92.4762861659
 20
-310.047140881
 30
0.0
 11
-123.644739691
 21
-327.580918321
 31
0.0
  0
LINE
 62
0
  8
0
 10
-123.644739691
 20
-327.580918321
 30
0.0
 11
-69.7053920734
 21
-365.561176364
 31
0.0
  0
LINE
 62
1
  8
0
 10
-69.7053920734
 20
-365.561176364
 30
0.0
 11
-92.4762861659
 21
-310.047140881
 31
0.0
  0
LINE
 62
0
  8
0
 10
-18.521021684
 20
-399.39255535
 30
0.0
 11
-37.5811307485
 21
-432.820767234
 31
0.0
  0
LINE
 62
0
  8
0
 10
-37.5811307485
 20
-432.820767234
 30
0.0
 11
15.0047406244
 21
-489.954902955
 31
0.0
  0
LINE
 62
1
  8
0
 10
15.0047406244
 20
-489.954902955
 30
0.0
 11
-18.521021684
 21
-399.39255535
 31
0.0
  0
TEXT
  8
0
 10
-43.2860975251
 20
-381.225510381
 30
0.0
 40
1.0
  1
14
  0
TEXT
  8
0
 10
49.0344015342
 20
-344.760010054
 30
0.0
 40
1.0
  1
26
  0
TEXT
  8
0
 10
26.6091059559
 20
-308.516012796
 30
0.0
 40
1.0
  1
29
  0
TEXT
  8
0
 10
-63.4156638639
 20
-325.678335368
 30
0.0
 40
1.0
  1
34
  0
TEXT
  8
0
 10
31.7487557214
 20
-468.850457066
 30
0.0
 40
1.0
  1
21
  0
TEXT
  8
0
 10
49.1478967472
 20
-415.729873359
 30
0.0
 40
1.0
  1
0
  0
TEXT
  8
0
 10
-26.0527048041
 20
-306.359447936
 30
0.0
 40
1.0
  1
34
  0
TEXT
  8
0
 10
-10.7931564885
 20
-290.828102943
 30
0.0
 40
1.0
  1
28
  0
TEXT
  8
0
 10
-107.325072564
 20
-320.121365621
 30
0.0
 40
1.0
  1
25
  0
TEXT
  8
0
 10
-95.8114769638
 20
-345.344583246
 30
0.0
 40
1.0
  1
6
  0
TEXT
  8
0
 10
-26.7480114202
 20
-416.849643214
 30
0.0
 40
1.0
  1
13
  0
TEXT
  8
0
 10
-10.184514814
 20
-460.372015273
 30
0.0
 40
1.0
  1
15
  0
ENDSEC
  0
EOF
