  0
SECTION
  2
HEADER
  9
$ACADVER
  1
AC1009
  9
$EXTMIN
 10
0.0
 20
0.0
 30
0.0
  9
$EXTMAX
 10
100.0
 20
100.0
 30
0.0
  9
$INSBASE
 10
0.0
 20
0.0
 30
0.0
  0
ENDSEC
  0
SECTION
  2
TABLES
  0
TABLE
  2
LTYPE
 70
19
  0
LTYPE
  2
PHANTOM
 70
0
  3
Phantom ______  __  __  ______  __  __  ______
 72
65
 73
6
 40
2.5
 49
1.25
 49
-0.25
 49
0.25
 49
-0.25
 49
0.25
 49
-0.25
  0
LTYPE
  2
DOT2
 70
0
  3
Dot (.5) . . . . . . . . . . . . . . . . . . . 
 72
65
 73
2
 40
0.1
 49
0.0
 49
-0.1
  0
LTYPE
  2
DIVIDE
 70
0
  3
Divide __ . . __ . . __ . . __ . . __ . . __
 72
65
 73
6
 40
1.6
 49
1.0
 49
-0.2
 49
0.0
 49
-0.2
 49
0.0
 49
-0.2
  0
LTYPE
  2
DIVIDEX2
 70
0
  3
Divide (2x) ____  . .  ____  . .  ____  . .  ____
 72
65
 73
6
 40
2.6
 49
2.0
 49
-0.2
 49
0.0
 49
-0.2
 49
0.0
 49
-0.2
  0
LTYPE
  2
CENTER
 70
0
  3
Center ____ _ ____ _ ____ _ ____ _ ____ _ ____
 72
65
 73
4
 40
2.0
 49
1.25
 49
-0.25
 49
0.25
 49
-0.25
  0
LTYPE
  2
DASHDOT
 70
0
  3
Dash dot __ . __ . __ . __ . __ . __ . __ . __
 72
65
 73
4
 40
1.4
 49
1.0
 49
-0.2
 49
0.0
 49
-0.2
  0
LTYPE
  2
CENTERX2
 70
0
  3
Center (2x) ________  __  ________  __  ________
 72
65
 73
4
 40
3.5
 49
2.5
 49
-0.25
 49
0.5
 49
-0.25
  0
LTYPE
  2
PHANTOMX2
 70
0
  3
Phantom (2x)____________    ____    ____    ____________
 72
65
 73
6
 40
4.25
 49
2.5
 49
-0.25
 49
0.5
 49
-0.25
 49
0.5
 49
-0.25
  0
LTYPE
  2
CONTINUOUS
 70
0
  3
Solid
 72
65
 73
0
 40
0.0
  0
LTYPE
  2
PHANTOM2
 70
0
  3
Phantom (.5x) ___ _ _ ___ _ _ ___ _ _ ___ _ _ ___
 72
65
 73
6
 40
1.25
 49
0.625
 49
-0.125
 49
0.125
 49
-0.125
 49
0.125
 49
-0.125
  0
LTYPE
  2
DASHED
 70
0
  3
Dashed __ __ __ __ __ __ __ __ __ __ __ __ __ _
 72
65
 73
2
 40
0.6
 49
0.5
 49
-0.1
  0
LTYPE
  2
DASHED2
 70
0
  3
Dashed (.5x) _ _ _ _ _ _ _ _ _ _ _ _ _ _
 72
65
 73
2
 40
0.3
 49
0.25
 49
-0.05
  0
LTYPE
  2
DASHDOT2
 70
0
  3
Dash dot (.5x) _ . _ . _ . _ . _ . _ . _ . _
 72
65
 73
4
 40
0.7
 49
0.5
 49
-0.1
 49
0.0
 49
-0.1
  0
LTYPE
  2
DOTX2
 70
0
  3
Dot (2x) .    .    .    .    .    .    .    . 
 72
65
 73
2
 40
0.4
 49
0.0
 49
-0.4
  0
LTYPE
  2
DIVIDE2
 70
0
  3
Divide(.5x) _ . _ . _ . _ . _ . _ . _ . _
 72
65
 73
6
 40
0.8
 49
0.5
 49
-0.1
 49
0.0
 49
-0.1
 49
0.0
 49
-0.1
  0
LTYPE
  2
CENTER2
 70
0
  3
Center (.5x) ____ _ ____ _ ____ _ ____ _ ____
 72
65
 73
4
 40
1.0
 49
0.625
 49
-0.125
 49
0.125
 49
-0.125
  0
LTYPE
  2
DASHDOTX2
 70
0
  3
Dash dot (2x) ____  .  ____  .  ____  .  ____
 72
65
 73
4
 40
2.4
 49
2.0
 49
-0.2
 49
0.0
 49
-0.2
  0
LTYPE
  2
DOT
 70
0
  3
Dot .  .  .  .  .  .  .  .  .  .  .  .  .  .  .  .
 72
65
 73
2
 40
0.2
 49
0.0
 49
-0.2
  0
LTYPE
  2
DASHEDX2
 70
0
  3
Dashed (2x) ____  ____  ____  ____  ____  ____
 72
65
 73
2
 40
1.2
 49
1.0
 49
-0.2
  0
ENDTAB
  0
TABLE
  2
LAYER
 70
5
  0
LAYER
  2
VIEWPORTS
 70
0
 62
7
  6
CONTINUOUS
  0
LAYER
  2
TABLEGRID
 70
0
 62
1
  6
CONTINUOUS
  0
LAYER
  2
TABLECONTENT
 70
0
 62
1
  6
CONTINUOUS
  0
LAYER
  2
DIMENSIONS
 70
0
 62
1
  6
CONTINUOUS
  0
LAYER
  2
TABLEBACKGROUND
 70
0
 62
1
  6
CONTINUOUS
  0
ENDTAB
  0
TABLE
  2
STYLE
 70
12
  0
STYLE
  2
TIMES
 70
0
 40
0.0
 41
1.0
 42
1.0
 50
0.0
 71
0
  3
times.ttf
  4

  0
STYLE
  2
ARIAL
 70
0
 40
0.0
 41
1.0
 42
1.0
 50
0.0
 71
0
  3
arial.ttf
  4

  0
STYLE
  2
TIMES_BOLD
 70
0
 40
0.0
 41
1.0
 42
1.0
 50
0.0
 71
0
  3
timesbd.ttf
  4

  0
STYLE
  2
ARIAL_BLACK
 70
0
 40
0.0
 41
1.0
 42
1.0
 50
0.0
 71
0
  3
ariblk.ttf
  4

  0
STYLE
  2
TIMES_ITALIC
 70
0
 40
0.0
 41
1.0
 42
1.0
 50
0.0
 71
0
  3
timesi.ttf
  4

  0
STYLE
  2
ISOCPEUR
 70
0
 40
0.0
 41
1.0
 42
1.0
 50
0.0
 71
0
  3
isocpeur.ttf
  4

  0
STYLE
  2
ARIAL_BOLD
 70
0
 40
0.0
 41
1.0
 42
1.0
 50
0.0
 71
0
  3
arialbd.ttf
  4

  0
STYLE
  2
ARIAL_ITALIC
 70
0
 40
0.0
 41
1.0
 42
1.0
 50
0.0
 71
0
  3
ariali.ttf
  4

  0
STYLE
  2
ARIAL_BOLD_ITALIC
 70
0
 40
0.0
 41
1.0
 42
1.0
 50
0.0
 71
0
  3
arialbi.ttf
  4

  0
STYLE
  2
TIMES_BOLD_ITALIC
 70
0
 40
0.0
 41
1.0
 42
1.0
 50
0.0
 71
0
  3
timesbi.ttf
  4

  0
STYLE
  2
ISOCPEUR_ITALIC
 70
0
 40
0.0
 41
1.0
 42
1.0
 50
0.0
 71
0
  3
isocpeui.ttf
  4

  0
STYLE
  2
STANDARD
 70
0
 40
0.0
 41
1.0
 42
1.0
 50
0.0
 71
0
  3
arial.ttf
  4

  0
ENDTAB
  0
TABLE
  2
VIEW
 70
0
  0
ENDTAB
  0
TABLE
  2
APPID
 70
1
  0
APPID
  2
DXFWRITE
 70
0
  0
ENDTAB
  0
TABLE
  2
VPORT
 70
0
  0
ENDTAB
  0
TABLE
  2
UCS
 70
0
  0
ENDTAB
  0
ENDSEC
  0
SECTION
  2
BLOCKS
  0
ENDSEC
  0
SECTION
  2
ENTITIES
  0
VIEWPORT
  8
VIEWPORTS
 67
1
 10
0.0
 20
0.0
 30
0.0
 40
1.0
 41
1.0
 68
1
 69
1
1001
ACAD
1000
MVIEW
1002
{
1070
16
1010
0.0
1020
0.0
1030
0.0
1010
0.0
1020
0.0
1030
0.0
1040
0.0
1040
1.0
1040
0.0
1040
0.0
1040
50.0
1040
0.0
1040
0.0
1070
0
1070
100
1070
1
1070
3
1070
0
1070
0
1070
0
1070
0
1040
0.0
1040
0.0
1040
0.0
1040
0.1
1040
0.1
1040
0.1
1040
0.1
1070
0
1002
{
1002
}
1002
}
  0
LINE
 62
0
  8
0
 10
-43.9609988186
 20
-58.6307821971
 30
0.0
 11
-14.608836406
 21
11.9224002258
 31
0.0
  0
TEXT
  8
0
 10
-30.6698463795
 20
-22.7780206031
 30
0.0
 40
1.0
  1
0
  0
LINE
 62
0
  8
0
 10
-9.76534722296
 20
150.905315653
 30
0.0
 11
-16.8746094976
 21
105.96896427
 31
0.0
  0
TEXT
  8
0
 10
-11.8384053389
 20
128.20274418
 30
0.0
 40
1.0
  1
1
  0
LINE
 62
0
  8
0
 10
-14.608836378
 20
11.9224002142
 30
0.0
 11
-43.9609988465
 21
-58.6307821855
 31
0.0
  0
TEXT
  8
0
 10
-27.8999888455
 20
-23.9303613693
 30
0.0
 40
1.0
  1
0
  0
LINE
 62
0
  8
0
 10
153.199365656
 20
424.949608275
 30
0.0
 11
93.9724144841
 21
425.583481214
 31
0.0
  0
TEXT
  8
0
 10
123.569837328
 20
423.766630644
 30
0.0
 40
1.0
  1
2
  0
LINE
 62
0
  8
0
 10
111.987517157
 20
388.689093226
 30
0.0
 11
137.228201853
 21
375.542513918
 31
0.0
  0
TEXT
  8
0
 10
125.300777276
 20
383.44616629
 30
0.0
 40
1.0
  1
3
  0
LINE
 62
0
  8
0
 10
-74.2194126117
 20
-20.8499450968
 30
0.0
 11
-112.699780587
 21
-82.7649374376
 31
0.0
  0
TEXT
  8
0
 10
-92.1856009911
 20
-52.5992336579
 30
0.0
 40
1.0
  1
4
  0
LINE
 62
0
  8
0
 10
144.686554989
 20
106.511634424
 30
0.0
 11
107.487881492
 21
102.486997709
 31
0.0
  0
TEXT
  8
0
 10
126.248566166
 20
103.008019031
 30
0.0
 40
1.0
  1
5
  0
LINE
 62
0
  8
0
 10
25.8255596807
 20
337.995003548
 30
0.0
 11
-23.3553272467
 21
371.002183086
 31
0.0
  0
TEXT
  8
0
 10
0.399214097558
 20
353.253094362
 30
0.0
 40
1.0
  1
2
  0
LINE
 62
0
  8
0
 10
-23.3553272467
 20
371.002183086
 30
0.0
 11
-39.2821556202
 21
322.549332881
 31
0.0
  0
TEXT
  8
0
 10
-29.8937514373
 20
346.307352699
 30
0.0
 40
1.0
  1
6
  0
LINE
 62
0
  8
0
 10
109.931186234
 20
177.699026625
 30
0.0
 11
70.7428631521
 21
226.550005691
 31
0.0
  0
TEXT
  8
0
 10
89.1669789813
 20
201.185903867
 30
0.0
 40
1.0
  1
7
  0
LINE
 62
0
  8
0
 10
83.3382728004
 20
151.378768919
 30
0.0
 11
109.931186234
 21
177.699026625
 31
0.0
  0
TEXT
  8
0
 10
95.5795488187
 20
165.605009255
 30
0.0
 40
1.0
  1
5
  0
LINE
 62
0
  8
0
 10
-51.1591042007
 20
145.279494885
 30
0.0
 11
-9.7653473125
 21
150.90531583
 31
0.0
  0
TEXT
  8
0
 10
-30.6642334362
 20
149.578740749
 30
0.0
 40
1.0
  1
8
  0
LINE
 62
0
  8
0
 10
58.4975517449
 20
-109.624114597
 30
0.0
 11
38.9255301105
 21
-28.8750933294
 31
0.0
  0
TEXT
  8
0
 10
47.2537513082
 20
-69.6029443447
 30
0.0
 40
1.0
  1
9
  0
LINE
 62
0
  8
0
 10
93.9724138589
 20
425.583480952
 30
0.0
 11
68.7573100066
 21
374.897160474
 31
0.0
  0
TEXT
  8
0
 10
82.7078571767
 20
399.5722161
 30
0.0
 40
1.0
  1
10
  0
LINE
 62
0
  8
0
 10
50.2241979507
 20
47.4078752571
 30
0.0
 11
135.990954421
 21
9.63795183803
 31
0.0
  0
TEXT
  8
0
 10
93.7121205742
 20
29.8956939678
 30
0.0
 40
1.0
  1
11
  0
LINE
 62
0
  8
0
 10
-116.339486631
 20
-169.70403587
 30
0.0
 11
-93.3255824075
 21
-123.228507314
 31
0.0
  0
TEXT
  8
0
 10
-106.176755206
 20
-145.800635997
 30
0.0
 40
1.0
  1
12
  0
LINE
 62
0
  8
0
 10
-149.426042416
 20
-136.017249915
 30
0.0
 11
-116.339486631
 21
-169.70403587
 31
0.0
  0
TEXT
  8
0
 10
-131.81261324
 20
-151.809559533
 30
0.0
 40
1.0
  1
13
  0
LINE
 62
0
  8
0
 10
-112.699780618
 20
-82.7649378725
 30
0.0
 11
-149.426042395
 21
-136.017250009
 31
0.0
  0
TEXT
  8
0
 10
-129.828098063
 20
-110.242701692
 30
0.0
 40
1.0
  1
14
  0
LINE
 62
0
  8
0
 10
-190.48958399
 20
29.1773577576
 30
0.0
 11
-126.643933853
 21
-8.77898111386
 31
0.0
  0
TEXT
  8
0
 10
-157.800234453
 20
11.4885448432
 30
0.0
 40
1.0
  1
15
  0
LINE
 62
0
  8
0
 10
-172.977081608
 20
77.0799131729
 30
0.0
 11
-190.48958399
 21
29.1773577576
 31
0.0
  0
TEXT
  8
0
 10
-180.324526878
 20
52.6135957804
 30
0.0
 40
1.0
  1
6
  0
LINE
 62
0
  8
0
 10
-58.1030625016
 20
125.205177537
 30
0.0
 11
-86.5948734853
 21
94.6550600655
 31
0.0
  0
TEXT
  8
0
 10
-71.2519977197
 20
108.907056624
 30
0.0
 40
1.0
  1
8
  0
LINE
 62
0
  8
0
 10
-86.5948734853
 20
94.6550600655
 30
0.0
 11
-63.2480044097
 21
64.0665522289
 31
0.0
  0
TEXT
  8
0
 10
-73.7290686267
 20
80.2708902192
 30
0.0
 40
1.0
  1
16
  0
LINE
 62
0
  8
0
 10
107.487881445
 20
102.486997739
 30
0.0
 11
68.408126926
 21
100.30712329
 31
0.0
  0
TEXT
  8
0
 10
88.0315445419
 20
99.8993886514
 30
0.0
 40
1.0
  1
17
  0
LINE
 62
0
  8
0
 10
115.384063526
 20
362.406036009
 30
0.0
 11
88.4875210432
 21
372.291204538
 31
0.0
  0
TEXT
  8
0
 10
101.418344435
 20
365.940697078
 30
0.0
 40
1.0
  1
18
  0
LINE
 62
0
  8
0
 10
28.734109491
 20
90.0215324269
 30
0.0
 11
45.4585852275
 21
127.439616427
 31
0.0
  0
TEXT
  8
0
 10
35.7269127836
 20
109.342660159
 30
0.0
 40
1.0
  1
19
  0
LINE
 62
0
  8
0
 10
98.0557325432
 20
-31.5169481829
 30
0.0
 11
49.526342201
 21
48.6541307888
 31
0.0
  0
TEXT
  8
0
 10
72.5078212169
 20
7.79183117337
 30
0.0
 40
1.0
  1
11
  0
LINE
 62
0
  8
0
 10
-126.643933838
 20
-8.77898120524
 30
0.0
 11
-186.783284634
 21
34.8124077124
 31
0.0
  0
TEXT
  8
0
 10
-157.593932977
 20
11.802205077
 30
0.0
 40
1.0
  1
15
  0
LINE
 62
0
  8
0
 10
-186.783284634
 20
34.8124077124
 30
0.0
 11
-146.967718173
 21
-16.171390885
 31
0.0
  0
TEXT
  8
0
 10
-165.693290202
 20
10.2437508934
 30
0.0
 40
1.0
  1
14
  0
LINE
 62
0
  8
0
 10
-101.721989533
 20
64.7633877766
 30
0.0
 11
-172.977081593
 21
77.079913181
 31
0.0
  0
TEXT
  8
0
 10
-137.605023718
 20
69.4435686805
 30
0.0
 40
1.0
  1
20
  0
LINE
 62
0
  8
0
 10
-63.248004477
 20
64.0665518893
 30
0.0
 11
-101.721989545
 21
64.7633877809
 31
0.0
  0
TEXT
  8
0
 10
-82.5121603642
 20
62.9152158045
 30
0.0
 40
1.0
  1
16
  0
LINE
 62
0
  8
0
 10
-0.526201637729
 20
-67.3900663112
 30
0.0
 11
32.0263045712
 21
-147.47345129
 31
0.0
  0
TEXT
  8
0
 10
17.1396385762
 20
-106.866915756
 30
0.0
 40
1.0
  1
21
  0
LINE
 62
0
  8
0
 10
32.3471504597
 20
281.038134932
 30
0.0
 11
-38.8682185102
 21
238.82074141
 31
0.0
  0
TEXT
  8
0
 10
-2.4956200095
 20
258.639125593
 30
0.0
 40
1.0
  1
22
  0
LINE
 62
0
  8
0
 10
-38.8682185102
 20
238.82074141
 30
0.0
 11
-1.22239056254
 21
206.658118925
 31
0.0
  0
TEXT
  8
0
 10
-19.0709564681
 20
223.879888777
 30
0.0
 40
1.0
  1
23
  0
LINE
 62
0
  8
0
 10
-49.5185257244
 20
217.572602813
 30
0.0
 11
-51.1591042808
 21
145.27949495
 31
0.0
  0
TEXT
  8
0
 10
-48.8392010973
 20
181.392017499
 30
0.0
 40
1.0
  1
20
  0
LINE
 62
0
  8
0
 10
-1.2223903731
 20
206.65811899
 30
0.0
 11
-49.5185257244
 21
217.572602813
 31
0.0
  0
TEXT
  8
0
 10
-25.701106031
 20
210.652257381
 30
0.0
 40
1.0
  1
23
  0
LINE
 62
0
  8
0
 10
-39.2821556428
 20
322.549332976
 30
0.0
 11
32.3471506459
 21
281.038134801
 31
0.0
  0
TEXT
  8
0
 10
-2.71538365247
 20
303.091546372
 30
0.0
 40
1.0
  1
22
  0
LINE
 62
0
  8
0
 10
-16.8746092608
 20
105.968963662
 30
0.0
 11
-58.103062558
 21
125.205177541
 31
0.0
  0
TEXT
  8
0
 10
-38.1230630916
 20
114.227748755
 30
0.0
 40
1.0
  1
1
  0
LINE
 62
0
  8
0
 10
68.7573106224
 20
374.897162029
 30
0.0
 11
25.825559689
 21
337.995003451
 31
0.0
  0
TEXT
  8
0
 10
48.2692023914
 20
355.308554176
 30
0.0
 40
1.0
  1
10
  0
LINE
 62
0
  8
0
 10
88.4875212395
 20
372.291205775
 30
0.0
 11
111.987517567
 21
388.689093657
 31
0.0
  0
TEXT
  8
0
 10
99.379157526
 20
381.720277713
 30
0.0
 40
1.0
  1
18
  0
LINE
 62
0
  8
0
 10
-43.9609988353
 20
-58.6307821569
 30
0.0
 11
-47.6763941053
 21
-139.84607774
 31
0.0
  0
TEXT
  8
0
 10
-44.3202636349
 20
-99.3069794776
 30
0.0
 40
1.0
  1
24
  0
LINE
 62
0
  8
0
 10
-47.6763941053
 20
-139.84607774
 30
0.0
 11
-0.52620104616
 21
-67.3900669159
 31
0.0
  0
TEXT
  8
0
 10
-25.3585363734
 20
-102.799933828
 30
0.0
 40
1.0
  1
21
  0
LINE
 62
0
  8
0
 10
55.2944322765
 20
161.822198494
 30
0.0
 11
83.3382726879
 21
151.3787689
 31
0.0
  0
TEXT
  8
0
 10
69.8398278159
 20
158.006176969
 30
0.0
 40
1.0
  1
25
  0
LINE
 62
0
  8
0
 10
-93.3255825859
 20
-123.228507295
 30
0.0
 11
-43.9609982212
 21
-58.6307812578
 31
0.0
  0
TEXT
  8
0
 10
-69.8351269054
 20
-90.0188612326
 30
0.0
 40
1.0
  1
24
  0
LINE
 62
0
  8
0
 10
-14.6088364782
 20
11.9224002582
 30
0.0
 11
50.2241971356
 21
47.4078749292
 31
0.0
  0
TEXT
  8
0
 10
17.0874945905
 20
30.9809386815
 30
0.0
 40
1.0
  1
26
  0
LINE
 62
0
  8
0
 10
-74.2194114155
 20
-20.8499446014
 30
0.0
 11
-126.643933866
 21
-8.77898112773
 31
0.0
  0
TEXT
  8
0
 10
-100.768246999
 20
-16.2762144513
 30
0.0
 40
1.0
  1
27
  0
LINE
 62
0
  8
0
 10
-146.967718145
 20
-16.1713909625
 30
0.0
 11
-74.2194114155
 21
-20.8499446014
 31
0.0
  0
TEXT
  8
0
 10
-110.497296387
 20
-17.0137601707
 30
0.0
 40
1.0
  1
4
  0
LINE
 62
0
  8
0
 10
199.322793075
 20
44.9093016183
 30
0.0
 11
178.757629747
 21
87.5848269014
 31
0.0
  0
TEXT
  8
0
 10
187.688927901
 20
65.5958861923
 30
0.0
 40
1.0
  1
28
  0
LINE
 62
0
  8
0
 10
167.856099814
 20
1.12018211255
 30
0.0
 11
199.322793075
 21
44.9093016183
 31
0.0
  0
TEXT
  8
0
 10
182.371334586
 20
23.8900723736
 30
0.0
 40
1.0
  1
29
  0
LINE
 62
0
  8
0
 10
103.667115293
 20
270.057346208
 30
0.0
 11
67.4214936682
 21
278.533908131
 31
0.0
  0
TEXT
  8
0
 10
85.202724428
 20
272.835037197
 30
0.0
 40
1.0
  1
30
  0
LINE
 62
0
  8
0
 10
80.2684495402
 20
145.335213632
 30
0.0
 11
55.2944322883
 21
161.822198469
 31
0.0
  0
TEXT
  8
0
 10
66.9550332853
 20
152.326887202
 30
0.0
 40
1.0
  1
25
  0
LINE
 62
0
  8
0
 10
45.4585851056
 20
127.4396163
 30
0.0
 11
80.2684495402
 21
145.335213632
 31
0.0
  0
TEXT
  8
0
 10
62.1776959066
 20
137.721449817
 30
0.0
 40
1.0
  1
17
  0
LINE
 62
0
  8
0
 10
49.5263421922
 20
48.65413079
 30
0.0
 11
-14.608836373
 21
11.9224002208
 31
0.0
  0
TEXT
  8
0
 10
18.2042316933
 20
28.9866275438
 30
0.0
 40
1.0
  1
26
  0
LINE
 62
0
  8
0
 10
160.291586299
 20
372.24909129
 30
0.0
 11
115.384062756
 21
362.406036286
 31
0.0
  0
TEXT
  8
0
 10
138.158978064
 20
365.862346942
 30
0.0
 40
1.0
  1
31
  0
LINE
 62
0
  8
0
 10
151.161749821
 20
325.764981243
 30
0.0
 11
160.291586299
 21
372.24909129
 31
0.0
  0
TEXT
  8
0
 10
154.254789015
 20
349.296124623
 30
0.0
 40
1.0
  1
28
  0
LINE
 62
0
  8
0
 10
67.4214933721
 20
278.533908114
 30
0.0
 11
98.7868158638
 21
298.57920018
 31
0.0
  0
TEXT
  8
0
 10
82.2963893963
 20
289.820482684
 30
0.0
 40
1.0
  1
30
  0
LINE
 62
0
  8
0
 10
130.458594212
 20
207.677426526
 30
0.0
 11
153.783019052
 21
238.902949377
 31
0.0
  0
TEXT
  8
0
 10
140.919059158
 20
224.187853261
 30
0.0
 40
1.0
  1
32
  0
LINE
 62
0
  8
0
 10
153.783019052
 20
238.902949377
 30
0.0
 11
103.667115394
 21
270.05734618
 31
0.0
  0
TEXT
  8
0
 10
127.933142803
 20
253.206234237
 30
0.0
 40
1.0
  1
33
  0
LINE
 62
0
  8
0
 10
98.7868174513
 20
298.579200234
 30
0.0
 11
151.161749883
 21
325.764981304
 31
0.0
  0
TEXT
  8
0
 10
124.283238866
 20
313.503427347
 30
0.0
 40
1.0
  1
33
  0
LINE
 62
0
  8
0
 10
38.9255295195
 20
-28.8750927725
 30
0.0
 11
116.381953659
 21
-58.9412003715
 31
0.0
  0
TEXT
  8
0
 10
78.1965352833
 20
-42.5097993313
 30
0.0
 40
1.0
  1
9
  0
LINE
 62
0
  8
0
 10
116.381953659
 20
-58.9412003715
 30
0.0
 11
98.0557325442
 21
-31.5169481612
 31
0.0
  0
TEXT
  8
0
 10
105.971679053
 20
-46.0624900307
 30
0.0
 40
1.0
  1
34
  0
LINE
 62
0
  8
0
 10
-126.643933864
 20
-8.77898111914
 30
0.0
 11
-74.2194114174
 21
-20.84994461
 31
0.0
  0
TEXT
  8
0
 10
-100.095098282
 20
-13.352711278
 30
0.0
 40
1.0
  1
27
  0
LINE
 62
0
  8
0
 10
137.228200905
 20
375.542514225
 30
0.0
 11
182.437163065
 21
387.873052579
 31
0.0
  0
TEXT
  8
0
 10
159.437981404
 20
383.154922459
 30
0.0
 40
1.0
  1
35
  0
LINE
 62
0
  8
0
 10
182.437163065
 20
387.873052579
 30
0.0
 11
153.199366462
 21
424.94960813
 31
0.0
  0
TEXT
  8
0
 10
166.640428338
 20
405.482513173
 30
0.0
 40
1.0
  1
13
  0
LINE
 62
0
  8
0
 10
68.4081270842
 20
100.307123235
 30
0.0
 11
28.7341089075
 21
90.021532313
 31
0.0
  0
TEXT
  8
0
 10
48.9475521243
 20
93.7123300652
 30
0.0
 40
1.0
  1
19
  0
LINE
 62
0
  8
0
 10
32.0263045884
 20
-147.473451302
 30
0.0
 11
82.8640214293
 21
-157.727284174
 31
0.0
  0
TEXT
  8
0
 10
57.7417365969
 20
-151.129978637
 30
0.0
 40
1.0
  1
12
  0
LINE
 62
0
  8
0
 10
82.8640214293
 20
-157.727284174
 30
0.0
 11
58.4975517473
 21
-109.624114558
 31
0.0
  0
TEXT
  8
0
 10
69.3426678494
 20
-134.353518103
 30
0.0
 40
1.0
  1
29
  0
LINE
 62
0
  8
0
 10
135.990953931
 20
9.63795187638
 30
0.0
 11
167.856100814
 21
1.12018199163
 31
0.0
  0
TEXT
  8
0
 10
152.310887301
 20
6.82818814559
 30
0.0
 40
1.0
  1
34
  0
LINE
 62
0
  8
0
 10
178.757628762
 20
87.5848270255
 30
0.0
 11
144.686555479
 21
106.511634384
 31
0.0
  0
TEXT
  8
0
 10
160.993673799
 20
95.7369691943
 30
0.0
 40
1.0
  1
32
  0
LINE
 62
0
  8
0
 10
70.7428629068
 20
226.550005896
 30
0.0
 11
130.458594253
 21
207.677426544
 31
0.0
  0
TEXT
  8
0
 10
101.052751875
 20
218.543987152
 30
0.0
 40
1.0
  1
7
  0
LINE
 62
0
  8
0
 10
111.987517533
 20
388.689093947
 30
0.0
 11
102.925343006
 21
343.617502057
 31
0.0
  0
TEXT
  8
0
 10
108.927000243
 20
365.857622584
 30
0.0
 40
1.0
  1
31
  0
LINE
 62
0
  8
0
 10
102.925343006
 20
343.617502057
 30
0.0
 11
137.228201478
 21
375.542513197
 31
0.0
  0
TEXT
  8
0
 10
119.054852509
 20
360.678042262
 30
0.0
 40
1.0
  1
35
  0
LINE
 62
0
  8
0
 10
137.228201478
 20
375.542513197
 30
0.0
 11
111.987517533
 21
388.689093947
 31
0.0
  0
TEXT
  8
0
 10
123.914941658
 20
380.785440893
 30
0.0
 40
1.0
  1
3
  0
ENDSEC
  0
EOF
