  0
SECTION
  2
HEADER
  9
$ACADVER
  1
AC1009
  9
$EXTMIN
 10
0.0
 20
0.0
 30
0.0
  9
$EXTMAX
 10
100.0
 20
100.0
 30
0.0
  9
$INSBASE
 10
0.0
 20
0.0
 30
0.0
  0
ENDSEC
  0
SECTION
  2
TABLES
  0
TABLE
  2
LTYPE
 70
19
  0
LTYPE
  2
PHANTOM
 70
0
  3
Phantom ______  __  __  ______  __  __  ______
 72
65
 73
6
 40
2.5
 49
1.25
 49
-0.25
 49
0.25
 49
-0.25
 49
0.25
 49
-0.25
  0
LTYPE
  2
DOT2
 70
0
  3
Dot (.5) . . . . . . . . . . . . . . . . . . . 
 72
65
 73
2
 40
0.1
 49
0.0
 49
-0.1
  0
LTYPE
  2
DIVIDE
 70
0
  3
Divide __ . . __ . . __ . . __ . . __ . . __
 72
65
 73
6
 40
1.6
 49
1.0
 49
-0.2
 49
0.0
 49
-0.2
 49
0.0
 49
-0.2
  0
LTYPE
  2
DIVIDEX2
 70
0
  3
Divide (2x) ____  . .  ____  . .  ____  . .  ____
 72
65
 73
6
 40
2.6
 49
2.0
 49
-0.2
 49
0.0
 49
-0.2
 49
0.0
 49
-0.2
  0
LTYPE
  2
CENTER
 70
0
  3
Center ____ _ ____ _ ____ _ ____ _ ____ _ ____
 72
65
 73
4
 40
2.0
 49
1.25
 49
-0.25
 49
0.25
 49
-0.25
  0
LTYPE
  2
DASHDOT
 70
0
  3
Dash dot __ . __ . __ . __ . __ . __ . __ . __
 72
65
 73
4
 40
1.4
 49
1.0
 49
-0.2
 49
0.0
 49
-0.2
  0
LTYPE
  2
CENTERX2
 70
0
  3
Center (2x) ________  __  ________  __  ________
 72
65
 73
4
 40
3.5
 49
2.5
 49
-0.25
 49
0.5
 49
-0.25
  0
LTYPE
  2
PHANTOMX2
 70
0
  3
Phantom (2x)____________    ____    ____    ____________
 72
65
 73
6
 40
4.25
 49
2.5
 49
-0.25
 49
0.5
 49
-0.25
 49
0.5
 49
-0.25
  0
LTYPE
  2
CONTINUOUS
 70
0
  3
Solid
 72
65
 73
0
 40
0.0
  0
LTYPE
  2
PHANTOM2
 70
0
  3
Phantom (.5x) ___ _ _ ___ _ _ ___ _ _ ___ _ _ ___
 72
65
 73
6
 40
1.25
 49
0.625
 49
-0.125
 49
0.125
 49
-0.125
 49
0.125
 49
-0.125
  0
LTYPE
  2
DASHED
 70
0
  3
Dashed __ __ __ __ __ __ __ __ __ __ __ __ __ _
 72
65
 73
2
 40
0.6
 49
0.5
 49
-0.1
  0
LTYPE
  2
DASHED2
 70
0
  3
Dashed (.5x) _ _ _ _ _ _ _ _ _ _ _ _ _ _
 72
65
 73
2
 40
0.3
 49
0.25
 49
-0.05
  0
LTYPE
  2
DASHDOT2
 70
0
  3
Dash dot (.5x) _ . _ . _ . _ . _ . _ . _ . _
 72
65
 73
4
 40
0.7
 49
0.5
 49
-0.1
 49
0.0
 49
-0.1
  0
LTYPE
  2
DOTX2
 70
0
  3
Dot (2x) .    .    .    .    .    .    .    . 
 72
65
 73
2
 40
0.4
 49
0.0
 49
-0.4
  0
LTYPE
  2
DIVIDE2
 70
0
  3
Divide(.5x) _ . _ . _ . _ . _ . _ . _ . _
 72
65
 73
6
 40
0.8
 49
0.5
 49
-0.1
 49
0.0
 49
-0.1
 49
0.0
 49
-0.1
  0
LTYPE
  2
CENTER2
 70
0
  3
Center (.5x) ____ _ ____ _ ____ _ ____ _ ____
 72
65
 73
4
 40
1.0
 49
0.625
 49
-0.125
 49
0.125
 49
-0.125
  0
LTYPE
  2
DASHDOTX2
 70
0
  3
Dash dot (2x) ____  .  ____  .  ____  .  ____
 72
65
 73
4
 40
2.4
 49
2.0
 49
-0.2
 49
0.0
 49
-0.2
  0
LTYPE
  2
DOT
 70
0
  3
Dot .  .  .  .  .  .  .  .  .  .  .  .  .  .  .  .
 72
65
 73
2
 40
0.2
 49
0.0
 49
-0.2
  0
LTYPE
  2
DASHEDX2
 70
0
  3
Dashed (2x) ____  ____  ____  ____  ____  ____
 72
65
 73
2
 40
1.2
 49
1.0
 49
-0.2
  0
ENDTAB
  0
TABLE
  2
LAYER
 70
5
  0
LAYER
  2
VIEWPORTS
 70
0
 62
7
  6
CONTINUOUS
  0
LAYER
  2
TABLEGRID
 70
0
 62
1
  6
CONTINUOUS
  0
LAYER
  2
TABLECONTENT
 70
0
 62
1
  6
CONTINUOUS
  0
LAYER
  2
DIMENSIONS
 70
0
 62
1
  6
CONTINUOUS
  0
LAYER
  2
TABLEBACKGROUND
 70
0
 62
1
  6
CONTINUOUS
  0
ENDTAB
  0
TABLE
  2
STYLE
 70
12
  0
STYLE
  2
TIMES
 70
0
 40
0.0
 41
1.0
 42
1.0
 50
0.0
 71
0
  3
times.ttf
  4

  0
STYLE
  2
ARIAL
 70
0
 40
0.0
 41
1.0
 42
1.0
 50
0.0
 71
0
  3
arial.ttf
  4

  0
STYLE
  2
TIMES_BOLD
 70
0
 40
0.0
 41
1.0
 42
1.0
 50
0.0
 71
0
  3
timesbd.ttf
  4

  0
STYLE
  2
ARIAL_BLACK
 70
0
 40
0.0
 41
1.0
 42
1.0
 50
0.0
 71
0
  3
ariblk.ttf
  4

  0
STYLE
  2
TIMES_ITALIC
 70
0
 40
0.0
 41
1.0
 42
1.0
 50
0.0
 71
0
  3
timesi.ttf
  4

  0
STYLE
  2
ISOCPEUR
 70
0
 40
0.0
 41
1.0
 42
1.0
 50
0.0
 71
0
  3
isocpeur.ttf
  4

  0
STYLE
  2
ARIAL_BOLD
 70
0
 40
0.0
 41
1.0
 42
1.0
 50
0.0
 71
0
  3
arialbd.ttf
  4

  0
STYLE
  2
ARIAL_ITALIC
 70
0
 40
0.0
 41
1.0
 42
1.0
 50
0.0
 71
0
  3
ariali.ttf
  4

  0
STYLE
  2
ARIAL_BOLD_ITALIC
 70
0
 40
0.0
 41
1.0
 42
1.0
 50
0.0
 71
0
  3
arialbi.ttf
  4

  0
STYLE
  2
TIMES_BOLD_ITALIC
 70
0
 40
0.0
 41
1.0
 42
1.0
 50
0.0
 71
0
  3
timesbi.ttf
  4

  0
STYLE
  2
ISOCPEUR_ITALIC
 70
0
 40
0.0
 41
1.0
 42
1.0
 50
0.0
 71
0
  3
isocpeui.ttf
  4

  0
STYLE
  2
STANDARD
 70
0
 40
0.0
 41
1.0
 42
1.0
 50
0.0
 71
0
  3
arial.ttf
  4

  0
ENDTAB
  0
TABLE
  2
VIEW
 70
0
  0
ENDTAB
  0
TABLE
  2
APPID
 70
1
  0
APPID
  2
DXFWRITE
 70
0
  0
ENDTAB
  0
TABLE
  2
VPORT
 70
0
  0
ENDTAB
  0
TABLE
  2
UCS
 70
0
  0
ENDTAB
  0
ENDSEC
  0
SECTION
  2
BLOCKS
  0
ENDSEC
  0
SECTION
  2
ENTITIES
  0
VIEWPORT
  8
VIEWPORTS
 67
1
 10
0.0
 20
0.0
 30
0.0
 40
1.0
 41
1.0
 68
1
 69
1
1001
ACAD
1000
MVIEW
1002
{
1070
16
1010
0.0
1020
0.0
1030
0.0
1010
0.0
1020
0.0
1030
0.0
1040
0.0
1040
1.0
1040
0.0
1040
0.0
1040
50.0
1040
0.0
1040
0.0
1070
0
1070
100
1070
1
1070
3
1070
0
1070
0
1070
0
1070
0
1040
0.0
1040
0.0
1040
0.0
1040
0.1
1040
0.1
1040
0.1
1040
0.1
1070
0
1002
{
1002
}
1002
}
  0
LINE
 62
1
  8
0
 10
-10.9925586341
 20
12.3510685488
 30
0.0
 11
-72.6705096799
 21
-19.3458514854
 31
0.0
  0
LINE
 62
1
  8
0
 10
-72.6705096799
 20
-19.3458514854
 30
0.0
 11
-41.6540917158
 21
-59.6533934102
 31
0.0
  0
LINE
 62
1
  8
0
 10
-41.6540917158
 20
-59.6533934102
 30
0.0
 11
-10.9925586341
 21
12.3510685488
 31
0.0
  0
LINE
 62
1
  8
0
 10
-35.2587832541
 20
93.1299425923
 30
0.0
 11
-10.9925586532
 21
12.3510685797
 31
0.0
  0
LINE
 62
0
  8
0
 10
-10.9925586532
 20
12.3510685797
 30
0.0
 11
14.9602697172
 21
103.275427565
 31
0.0
  0
LINE
 62
0
  8
0
 10
14.9602697172
 20
103.275427565
 30
0.0
 11
-35.2587832541
 21
93.1299425923
 31
0.0
  0
LINE
 62
0
  8
0
 10
-41.6540917108
 20
-59.6533934598
 30
0.0
 11
-0.107385241191
 21
-67.5489535877
 31
0.0
  0
LINE
 62
1
  8
0
 10
-0.107385241191
 20
-67.5489535877
 30
0.0
 11
40.7942058864
 21
-28.704146871
 31
0.0
  0
LINE
 62
1
  8
0
 10
40.7942058864
 20
-28.704146871
 30
0.0
 11
-41.6540917108
 21
-59.6533934598
 31
0.0
  0
LINE
 62
0
  8
0
 10
40.7942059077
 20
-28.7041469276
 30
0.0
 11
-10.9925586179
 21
12.3510685419
 31
0.0
  0
LINE
 62
1
  8
0
 10
-10.9925586179
 20
12.3510685419
 30
0.0
 11
-41.654091732
 21
-59.6533934033
 31
0.0
  0
LINE
 62
1
  8
0
 10
-41.654091732
 20
-59.6533934033
 30
0.0
 11
40.7942059077
 21
-28.7041469276
 31
0.0
  0
LINE
 62
1
  8
0
 10
-312.07915143
 20
-76.090768012
 30
0.0
 11
-323.115634736
 21
-131.53787594
 31
0.0
  0
LINE
 62
0
  8
0
 10
-323.115634736
 20
-131.53787594
 30
0.0
 11
-277.694529356
 21
-87.3830971156
 31
0.0
  0
LINE
 62
1
  8
0
 10
-277.694529356
 20
-87.3830971156
 30
0.0
 11
-312.07915143
 21
-76.090768012
 31
0.0
  0
LINE
 62
1
  8
0
 10
63.8576661624
 20
-82.9380959067
 30
0.0
 11
51.2068814768
 21
-117.473346503
 31
0.0
  0
LINE
 62
1
  8
0
 10
51.2068814768
 20
-117.473346503
 30
0.0
 11
95.0809792267
 21
-118.698512546
 31
0.0
  0
LINE
 62
1
  8
0
 10
95.0809792267
 20
-118.698512546
 30
0.0
 11
63.8576661624
 21
-82.9380959067
 31
0.0
  0
LINE
 62
1
  8
0
 10
-41.6540923483
 20
-59.6533938968
 30
0.0
 11
-72.6705090475
 21
-19.3458509988
 31
0.0
  0
LINE
 62
1
  8
0
 10
-72.6705090475
 20
-19.3458509988
 30
0.0
 11
-111.328782214
 21
-79.0004326074
 31
0.0
  0
LINE
 62
1
  8
0
 10
-111.328782214
 20
-79.0004326074
 30
0.0
 11
-41.6540923483
 21
-59.6533938968
 31
0.0
  0
LINE
 62
1
  8
0
 10
-212.733253339
 20
38.0131022101
 30
0.0
 11
-280.86393002
 21
41.0806665194
 31
0.0
  0
LINE
 62
1
  8
0
 10
-280.86393002
 20
41.0806665194
 30
0.0
 11
-239.209663847
 21
-16.3985781915
 31
0.0
  0
LINE
 62
1
  8
0
 10
-239.209663847
 20
-16.3985781915
 30
0.0
 11
-212.733253339
 21
38.0131022101
 31
0.0
  0
LINE
 62
0
  8
0
 10
61.0960928095
 20
-193.216331633
 30
0.0
 11
33.4200170892
 21
-254.80200823
 31
0.0
  0
LINE
 62
0
  8
0
 10
33.4200170892
 20
-254.80200823
 30
0.0
 11
58.4762730105
 21
-230.950502182
 31
0.0
  0
LINE
 62
1
  8
0
 10
58.4762730105
 20
-230.950502182
 30
0.0
 11
61.0960928095
 21
-193.216331633
 31
0.0
  0
LINE
 62
0
  8
0
 10
167.23171184
 20
-116.048698829
 30
0.0
 11
130.134309371
 21
-62.9840265691
 31
0.0
  0
LINE
 62
0
  8
0
 10
130.134309371
 20
-62.9840265691
 30
0.0
 11
63.8576662395
 21
-82.9380959153
 31
0.0
  0
LINE
 62
1
  8
0
 10
63.8576662395
 20
-82.9380959153
 30
0.0
 11
167.23171184
 21
-116.048698829
 31
0.0
  0
LINE
 62
1
  8
0
 10
58.4762729487
 20
-230.950502144
 30
0.0
 11
103.273085057
 21
-249.302571227
 31
0.0
  0
LINE
 62
0
  8
0
 10
103.273085057
 20
-249.302571227
 30
0.0
 11
103.488669343
 21
-219.988805184
 31
0.0
  0
LINE
 62
1
  8
0
 10
103.488669343
 20
-219.988805184
 30
0.0
 11
58.4762729487
 21
-230.950502144
 31
0.0
  0
LINE
 62
1
  8
0
 10
103.488669335
 20
-219.98880515
 30
0.0
 11
61.096092863
 21
-193.216331636
 31
0.0
  0
LINE
 62
1
  8
0
 10
61.096092863
 20
-193.216331636
 30
0.0
 11
58.476272957
 21
-230.950502178
 31
0.0
  0
LINE
 62
1
  8
0
 10
58.476272957
 20
-230.950502178
 30
0.0
 11
103.488669335
 21
-219.98880515
 31
0.0
  0
LINE
 62
0
  8
0
 10
-239.209663541
 20
-16.3985783399
 30
0.0
 11
-177.718284541
 21
30.8427204172
 31
0.0
  0
LINE
 62
1
  8
0
 10
-177.718284541
 20
30.8427204172
 30
0.0
 11
-212.733253644
 21
38.0131023586
 31
0.0
  0
LINE
 62
1
  8
0
 10
-212.733253644
 20
38.0131023586
 30
0.0
 11
-239.209663541
 21
-16.3985783399
 31
0.0
  0
LINE
 62
1
  8
0
 10
63.8576660577
 20
-82.9380958823
 30
0.0
 11
40.7942055264
 21
-28.704146492
 31
0.0
  0
LINE
 62
1
  8
0
 10
40.7942055264
 20
-28.704146492
 30
0.0
 11
-0.107384881181
 21
-67.5489539668
 31
0.0
  0
LINE
 62
1
  8
0
 10
-0.107384881181
 20
-67.5489539668
 30
0.0
 11
63.8576660577
 21
-82.9380958823
 31
0.0
  0
LINE
 62
0
  8
0
 10
-277.694530185
 20
-87.3830981209
 30
0.0
 11
-282.666674943
 21
-150.533704479
 31
0.0
  0
LINE
 62
0
  8
0
 10
-282.666674943
 20
-150.533704479
 30
0.0
 11
-244.051340705
 21
-169.218717303
 31
0.0
  0
LINE
 62
1
  8
0
 10
-244.051340705
 20
-169.218717303
 30
0.0
 11
-277.694530185
 21
-87.3830981209
 31
0.0
  0
LINE
 62
1
  8
0
 10
118.509717787
 20
-40.4656160492
 30
0.0
 11
110.037527567
 21
10.5293364031
 31
0.0
  0
LINE
 62
1
  8
0
 10
110.037527567
 20
10.5293364031
 30
0.0
 11
63.8576660097
 21
-82.9380959012
 31
0.0
  0
LINE
 62
0
  8
0
 10
63.8576660097
 20
-82.9380959012
 30
0.0
 11
118.509717787
 21
-40.4656160492
 31
0.0
  0
LINE
 62
1
  8
0
 10
91.7479656394
 20
-155.644924613
 30
0.0
 11
37.5188746481
 21
-151.086472202
 31
0.0
  0
LINE
 62
1
  8
0
 10
37.5188746481
 20
-151.086472202
 30
0.0
 11
61.096092673
 21
-193.21633183
 31
0.0
  0
LINE
 62
1
  8
0
 10
61.096092673
 20
-193.21633183
 30
0.0
 11
91.7479656394
 21
-155.644924613
 31
0.0
  0
LINE
 62
1
  8
0
 10
-239.209663893
 20
-16.398578125
 30
0.0
 11
-284.029286061
 21
-28.2533561651
 31
0.0
  0
LINE
 62
1
  8
0
 10
-284.029286061
 20
-28.2533561651
 30
0.0
 11
-277.694529583
 21
-87.3830977565
 31
0.0
  0
LINE
 62
1
  8
0
 10
-277.694529583
 20
-87.3830977565
 30
0.0
 11
-239.209663893
 21
-16.398578125
 31
0.0
  0
LINE
 62
1
  8
0
 10
61.0960927654
 20
-193.216331778
 30
0.0
 11
37.5188745557
 21
-151.086472254
 31
0.0
  0
LINE
 62
0
  8
0
 10
37.5188745557
 20
-151.086472254
 30
0.0
 11
7.18516418407
 21
-187.482227012
 31
0.0
  0
LINE
 62
1
  8
0
 10
7.18516418407
 20
-187.482227012
 30
0.0
 11
61.0960927654
 21
-193.216331778
 31
0.0
  0
LINE
 62
0
  8
0
 10
-161.472793825
 20
-92.2724340153
 30
0.0
 11
-122.636144826
 21
-56.4422392785
 31
0.0
  0
LINE
 62
1
  8
0
 10
-122.636144826
 20
-56.4422392785
 30
0.0
 11
-213.201405706
 21
-48.8799065238
 31
0.0
  0
LINE
 62
0
  8
0
 10
-213.201405706
 20
-48.8799065238
 30
0.0
 11
-161.472793825
 21
-92.2724340153
 31
0.0
  0
LINE
 62
1
  8
0
 10
-212.733253583
 20
38.0131026542
 30
0.0
 11
-177.718284601
 21
30.8427201215
 31
0.0
  0
LINE
 62
0
  8
0
 10
-177.718284601
 20
30.8427201215
 30
0.0
 11
-162.290159494
 21
68.8439389163
 31
0.0
  0
LINE
 62
0
  8
0
 10
-162.290159494
 20
68.8439389163
 30
0.0
 11
-212.733253583
 21
38.0131026542
 31
0.0
  0
LINE
 62
0
  8
0
 10
-244.051341295
 20
-169.218717542
 30
0.0
 11
-229.74031145
 21
-169.380175913
 31
0.0
  0
LINE
 62
1
  8
0
 10
-229.74031145
 20
-169.380175913
 30
0.0
 11
-240.364421276
 21
-105.729122263
 31
0.0
  0
LINE
 62
1
  8
0
 10
-240.364421276
 20
-105.729122263
 30
0.0
 11
-244.051341295
 21
-169.218717542
 31
0.0
  0
LINE
 62
0
  8
0
 10
118.509717818
 20
-40.465616103
 30
0.0
 11
165.367758191
 21
-85.146716855
 31
0.0
  0
LINE
 62
1
  8
0
 10
165.367758191
 20
-85.146716855
 30
0.0
 11
157.697342391
 21
-17.1995022567
 31
0.0
  0
LINE
 62
1
  8
0
 10
157.697342391
 20
-17.1995022567
 30
0.0
 11
118.509717818
 21
-40.465616103
 31
0.0
  0
LINE
 62
1
  8
0
 10
140.7528483
 20
-220.599526517
 30
0.0
 11
122.012762671
 21
-266.343421378
 31
0.0
  0
LINE
 62
1
  8
0
 10
122.012762671
 20
-266.343421378
 30
0.0
 11
166.622948448
 21
-250.796493252
 31
0.0
  0
LINE
 62
0
  8
0
 10
166.622948448
 20
-250.796493252
 30
0.0
 11
140.7528483
 21
-220.599526517
 31
0.0
  0
LINE
 62
1
  8
0
 10
-10.9925586521
 20
12.3510685838
 30
0.0
 11
-62.8400958615
 21
62.5158670405
 31
0.0
  0
LINE
 62
0
  8
0
 10
-62.8400958615
 20
62.5158670405
 30
0.0
 11
-72.6705096619
 21
-19.3458515204
 31
0.0
  0
LINE
 62
1
  8
0
 10
-72.6705096619
 20
-19.3458515204
 30
0.0
 11
-10.9925586521
 21
12.3510685838
 31
0.0
  0
LINE
 62
0
  8
0
 10
132.199950474
 20
-276.395925937
 30
0.0
 11
166.622948458
 21
-250.79649328
 31
0.0
  0
LINE
 62
1
  8
0
 10
166.622948458
 20
-250.79649328
 30
0.0
 11
122.012762661
 21
-266.343421349
 31
0.0
  0
LINE
 62
0
  8
0
 10
122.012762661
 20
-266.343421349
 30
0.0
 11
132.199950474
 21
-276.395925937
 31
0.0
  0
LINE
 62
1
  8
0
 10
110.037527565
 20
10.5293364039
 30
0.0
 11
40.7942055727
 21
-28.7041464723
 31
0.0
  0
LINE
 62
1
  8
0
 10
40.7942055727
 20
-28.7041464723
 30
0.0
 11
63.8576660114
 21
-82.938095902
 31
0.0
  0
LINE
 62
1
  8
0
 10
63.8576660114
 20
-82.938095902
 30
0.0
 11
110.037527565
 21
10.5293364039
 31
0.0
  0
LINE
 62
0
  8
0
 10
11.8172786964
 20
-212.286903785
 30
0.0
 11
61.0960926071
 21
-193.216333267
 31
0.0
  0
LINE
 62
1
  8
0
 10
61.0960926071
 20
-193.216333267
 30
0.0
 11
7.1851643424
 21
-187.482225523
 31
0.0
  0
LINE
 62
0
  8
0
 10
7.1851643424
 20
-187.482225523
 30
0.0
 11
11.8172786964
 21
-212.286903785
 31
0.0
  0
LINE
 62
1
  8
0
 10
113.784354524
 20
-189.612794713
 30
0.0
 11
61.0960928814
 21
-193.216331607
 31
0.0
  0
LINE
 62
1
  8
0
 10
61.0960928814
 20
-193.216331607
 30
0.0
 11
103.488669317
 21
-219.988805179
 31
0.0
  0
LINE
 62
1
  8
0
 10
103.488669317
 20
-219.988805179
 30
0.0
 11
113.784354524
 21
-189.612794713
 31
0.0
  0
LINE
 62
1
  8
0
 10
-122.636144808
 20
-56.4422390627
 30
0.0
 11
-163.376129803
 21
-0.205829147898
 31
0.0
  0
LINE
 62
1
  8
0
 10
-163.376129803
 20
-0.205829147898
 30
0.0
 11
-213.201405724
 21
-48.8799067396
 31
0.0
  0
LINE
 62
1
  8
0
 10
-213.201405724
 20
-48.8799067396
 30
0.0
 11
-122.636144808
 21
-56.4422390627
 31
0.0
  0
LINE
 62
0
  8
0
 10
113.784354495
 20
-189.612794297
 30
0.0
 11
91.7479654025
 21
-155.64492442
 31
0.0
  0
LINE
 62
1
  8
0
 10
91.7479654025
 20
-155.64492442
 30
0.0
 11
61.0960929099
 21
-193.216332023
 31
0.0
  0
LINE
 62
1
  8
0
 10
61.0960929099
 20
-193.216332023
 30
0.0
 11
113.784354495
 21
-189.612794297
 31
0.0
  0
LINE
 62
1
  8
0
 10
51.2068815784
 20
-117.473346541
 30
0.0
 11
63.8576660608
 21
-82.9380958695
 31
0.0
  0
LINE
 62
1
  8
0
 10
63.8576660608
 20
-82.9380958695
 30
0.0
 11
-0.107384884267
 21
-67.5489539796
 31
0.0
  0
LINE
 62
0
  8
0
 10
-0.107384884267
 20
-67.5489539796
 30
0.0
 11
51.2068815784
 21
-117.473346541
 31
0.0
  0
LINE
 62
0
  8
0
 10
-137.491240363
 20
31.6075669553
 30
0.0
 11
-163.376129816
 21
-0.205829157275
 31
0.0
  0
LINE
 62
1
  8
0
 10
-163.376129816
 20
-0.205829157275
 30
0.0
 11
-122.636144795
 21
-56.4422390533
 31
0.0
  0
LINE
 62
1
  8
0
 10
-122.636144795
 20
-56.4422390533
 30
0.0
 11
-137.491240363
 21
31.6075669553
 31
0.0
  0
LINE
 62
1
  8
0
 10
37.5188746741
 20
-151.086471939
 30
0.0
 11
51.2068810968
 21
-117.473347173
 31
0.0
  0
LINE
 62
0
  8
0
 10
51.2068810968
 20
-117.473347173
 30
0.0
 11
-9.99649624153
 21
-80.3284213071
 31
0.0
  0
LINE
 62
0
  8
0
 10
-9.99649624153
 20
-80.3284213071
 30
0.0
 11
37.5188746741
 21
-151.086471939
 31
0.0
  0
LINE
 62
1
  8
0
 10
-312.07915122
 20
-76.090767373
 30
0.0
 11
-277.694529566
 21
-87.3830977546
 31
0.0
  0
LINE
 62
1
  8
0
 10
-277.694529566
 20
-87.3830977546
 30
0.0
 11
-284.029286078
 21
-28.2533561669
 31
0.0
  0
LINE
 62
1
  8
0
 10
-284.029286078
 20
-28.2533561669
 30
0.0
 11
-312.07915122
 21
-76.090767373
 31
0.0
  0
LINE
 62
1
  8
0
 10
-277.694529577
 20
-87.3830977596
 30
0.0
 11
-213.20140564
 21
-48.8799067307
 31
0.0
  0
LINE
 62
1
  8
0
 10
-213.20140564
 20
-48.8799067307
 30
0.0
 11
-239.209663899
 21
-16.3985781219
 31
0.0
  0
LINE
 62
1
  8
0
 10
-239.209663899
 20
-16.3985781219
 30
0.0
 11
-277.694529577
 21
-87.3830977596
 31
0.0
  0
LINE
 62
1
  8
0
 10
-213.201405692
 20
-48.8799067724
 30
0.0
 11
-163.376129835
 21
-0.205829115188
 31
0.0
  0
LINE
 62
0
  8
0
 10
-163.376129835
 20
-0.205829115188
 30
0.0
 11
-239.209663847
 21
-16.3985780803
 31
0.0
  0
LINE
 62
1
  8
0
 10
-239.209663847
 20
-16.3985780803
 30
0.0
 11
-213.201405692
 21
-48.8799067724
 31
0.0
  0
LINE
 62
0
  8
0
 10
-240.364421327
 20
-105.729122353
 30
0.0
 11
-213.201405658
 21
-48.8799066992
 31
0.0
  0
LINE
 62
1
  8
0
 10
-213.201405658
 20
-48.8799066992
 30
0.0
 11
-277.694529558
 21
-87.3830977911
 31
0.0
  0
LINE
 62
1
  8
0
 10
-277.694529558
 20
-87.3830977911
 30
0.0
 11
-240.364421327
 21
-105.729122353
 31
0.0
  0
LINE
 62
1
  8
0
 10
-35.258783369
 20
93.1299427006
 30
0.0
 11
-64.563020555
 21
121.609671487
 31
0.0
  0
LINE
 62
0
  8
0
 10
-64.563020555
 20
121.609671487
 30
0.0
 11
-62.8400957375
 21
62.5158669387
 31
0.0
  0
LINE
 62
1
  8
0
 10
-62.8400957375
 20
62.5158669387
 30
0.0
 11
-35.258783369
 21
93.1299427006
 31
0.0
  0
LINE
 62
1
  8
0
 10
-35.2587832501
 20
93.1299425935
 30
0.0
 11
-62.8400958564
 21
62.5158670458
 31
0.0
  0
LINE
 62
1
  8
0
 10
-62.8400958564
 20
62.5158670458
 30
0.0
 11
-10.9925586572
 21
12.3510685785
 31
0.0
  0
LINE
 62
1
  8
0
 10
-10.9925586572
 20
12.3510685785
 30
0.0
 11
-35.2587832501
 21
93.1299425935
 31
0.0
  0
LINE
 62
1
  8
0
 10
-244.051341288
 20
-169.218717542
 30
0.0
 11
-240.364421283
 21
-105.729122263
 31
0.0
  0
LINE
 62
1
  8
0
 10
-240.364421283
 20
-105.729122263
 30
0.0
 11
-277.694529603
 21
-87.3830978816
 31
0.0
  0
LINE
 62
1
  8
0
 10
-277.694529603
 20
-87.3830978816
 30
0.0
 11
-244.051341288
 21
-169.218717542
 31
0.0
  0
LINE
 62
1
  8
0
 10
-382.764612309
 20
-143.708332742
 30
0.0
 11
-323.115634973
 21
-131.537876069
 31
0.0
  0
LINE
 62
1
  8
0
 10
-323.115634973
 20
-131.537876069
 30
0.0
 11
-339.33144568
 21
-94.2578250794
 31
0.0
  0
LINE
 62
1
  8
0
 10
-339.33144568
 20
-94.2578250794
 30
0.0
 11
-382.764612309
 21
-143.708332742
 31
0.0
  0
LINE
 62
0
  8
0
 10
-229.740311482
 20
-169.380175918
 30
0.0
 11
-215.648327539
 21
-121.491674975
 31
0.0
  0
LINE
 62
0
  8
0
 10
-215.648327539
 20
-121.491674975
 30
0.0
 11
-240.364421244
 21
-105.729122258
 31
0.0
  0
LINE
 62
1
  8
0
 10
-240.364421244
 20
-105.729122258
 30
0.0
 11
-229.740311482
 21
-169.380175918
 31
0.0
  0
LINE
 62
0
  8
0
 10
-13.7165490005
 20
-91.4018170725
 30
0.0
 11
-41.6540922973
 21
-59.6533940764
 31
0.0
  0
LINE
 62
1
  8
0
 10
-41.6540922973
 20
-59.6533940764
 30
0.0
 11
-92.9975735058
 21
-122.689695809
 31
0.0
  0
LINE
 62
0
  8
0
 10
-92.9975735058
 20
-122.689695809
 30
0.0
 11
-13.7165490005
 21
-91.4018170725
 31
0.0
  0
LINE
 62
0
  8
0
 10
-295.469362512
 20
40.2035704646
 30
0.0
 11
-343.753720451
 21
28.0172200024
 31
0.0
  0
LINE
 62
0
  8
0
 10
-343.753720451
 20
28.0172200024
 30
0.0
 11
-319.303595752
 21
-28.8752292298
 31
0.0
  0
LINE
 62
1
  8
0
 10
-319.303595752
 20
-28.8752292298
 30
0.0
 11
-295.469362512
 21
40.2035704646
 31
0.0
  0
LINE
 62
1
  8
0
 10
-92.9975735044
 20
-122.68969581
 30
0.0
 11
-41.6540922987
 21
-59.6533940752
 31
0.0
  0
LINE
 62
1
  8
0
 10
-41.6540922987
 20
-59.6533940752
 30
0.0
 11
-111.328782264
 21
-79.000432429
 31
0.0
  0
LINE
 62
0
  8
0
 10
-111.328782264
 20
-79.000432429
 30
0.0
 11
-92.9975735044
 21
-122.68969581
 31
0.0
  0
LINE
 62
1
  8
0
 10
42.0173945294
 20
37.3708367856
 30
0.0
 11
110.037527173
 21
10.529337119
 31
0.0
  0
LINE
 62
0
  8
0
 10
110.037527173
 20
10.529337119
 30
0.0
 11
129.281149791
 21
73.7827218653
 31
0.0
  0
LINE
 62
0
  8
0
 10
129.281149791
 20
73.7827218653
 30
0.0
 11
42.0173945294
 21
37.3708367856
 31
0.0
  0
LINE
 62
0
  8
0
 10
91.7479656325
 20
-155.644924862
 30
0.0
 11
137.268456834
 21
-149.019648988
 31
0.0
  0
LINE
 62
1
  8
0
 10
137.268456834
 20
-149.019648988
 30
0.0
 11
51.2068810852
 21
-117.473347191
 31
0.0
  0
LINE
 62
1
  8
0
 10
51.2068810852
 20
-117.473347191
 30
0.0
 11
91.7479656325
 21
-155.644924862
 31
0.0
  0
LINE
 62
0
  8
0
 10
-319.303595911
 20
-28.8752292116
 30
0.0
 11
-342.456193167
 21
-63.8447533093
 31
0.0
  0
LINE
 62
0
  8
0
 10
-342.456193167
 20
-63.8447533093
 30
0.0
 11
-312.079151422
 21
-76.0907672251
 31
0.0
  0
LINE
 62
1
  8
0
 10
-312.079151422
 20
-76.0907672251
 30
0.0
 11
-319.303595911
 21
-28.8752292116
 31
0.0
  0
LINE
 62
0
  8
0
 10
165.367758131
 20
-85.1467168618
 30
0.0
 11
187.147843682
 21
-40.3637487536
 31
0.0
  0
LINE
 62
0
  8
0
 10
187.147843682
 20
-40.3637487536
 30
0.0
 11
157.697342452
 21
-17.1995022499
 31
0.0
  0
LINE
 62
1
  8
0
 10
157.697342452
 20
-17.1995022499
 30
0.0
 11
165.367758131
 21
-85.1467168618
 31
0.0
  0
LINE
 62
1
  8
0
 10
40.7942059698
 20
-28.7041471731
 30
0.0
 11
110.037527168
 21
10.5293371047
 31
0.0
  0
LINE
 62
1
  8
0
 10
110.037527168
 20
10.5293371047
 30
0.0
 11
42.017394535
 21
37.3708367998
 31
0.0
  0
LINE
 62
0
  8
0
 10
42.017394535
 20
37.3708367998
 30
0.0
 11
40.7942059698
 21
-28.7041471731
 31
0.0
  0
LINE
 62
1
  8
0
 10
153.179308289
 20
-180.260988046
 30
0.0
 11
140.752847532
 21
-220.59952655
 31
0.0
  0
LINE
 62
0
  8
0
 10
140.752847532
 20
-220.59952655
 30
0.0
 11
171.622202737
 21
-222.402049304
 31
0.0
  0
LINE
 62
0
  8
0
 10
171.622202737
 20
-222.402049304
 30
0.0
 11
153.179308289
 21
-180.260988046
 31
0.0
  0
LINE
 62
1
  8
0
 10
-319.303595871
 20
-28.8752292055
 30
0.0
 11
-312.079151462
 21
-76.0907672312
 31
0.0
  0
LINE
 62
1
  8
0
 10
-312.079151462
 20
-76.0907672312
 30
0.0
 11
-284.029285836
 21
-28.2533563087
 31
0.0
  0
LINE
 62
1
  8
0
 10
-284.029285836
 20
-28.2533563087
 30
0.0
 11
-319.303595871
 21
-28.8752292055
 31
0.0
  0
LINE
 62
1
  8
0
 10
-64.5630205947
 20
121.609671446
 30
0.0
 11
-35.2587833293
 21
93.1299427414
 31
0.0
  0
LINE
 62
0
  8
0
 10
-35.2587833293
 20
93.1299427414
 30
0.0
 11
-4.71811338086
 21
134.265713377
 31
0.0
  0
LINE
 62
0
  8
0
 10
-4.71811338086
 20
134.265713377
 30
0.0
 11
-64.5630205947
 21
121.609671446
 31
0.0
  0
LINE
 62
1
  8
0
 10
-339.331445667
 20
-94.2578250907
 30
0.0
 11
-418.09010708
 21
-110.68053664
 31
0.0
  0
LINE
 62
1
  8
0
 10
-418.09010708
 20
-110.68053664
 30
0.0
 11
-382.764612322
 21
-143.708332731
 31
0.0
  0
LINE
 62
1
  8
0
 10
-382.764612322
 20
-143.708332731
 30
0.0
 11
-339.331445667
 21
-94.2578250907
 31
0.0
  0
LINE
 62
0
  8
0
 10
-354.416876506
 20
-156.060338555
 30
0.0
 11
-323.115634938
 21
-131.53787624
 31
0.0
  0
LINE
 62
1
  8
0
 10
-323.115634938
 20
-131.53787624
 30
0.0
 11
-382.764612344
 21
-143.708332571
 31
0.0
  0
LINE
 62
0
  8
0
 10
-382.764612344
 20
-143.708332571
 30
0.0
 11
-354.416876506
 21
-156.060338555
 31
0.0
  0
LINE
 62
0
  8
0
 10
-280.863929996
 20
41.0806665368
 30
0.0
 11
-284.029286083
 21
-28.2533560812
 31
0.0
  0
LINE
 62
1
  8
0
 10
-284.029286083
 20
-28.2533560812
 30
0.0
 11
-239.209663871
 21
-16.3985782089
 31
0.0
  0
LINE
 62
1
  8
0
 10
-239.209663871
 20
-16.3985782089
 30
0.0
 11
-280.863929996
 21
41.0806665368
 31
0.0
  0
LINE
 62
0
  8
0
 10
-284.029285836
 20
-28.2533563256
 30
0.0
 11
-295.469362393
 21
40.2035704235
 31
0.0
  0
LINE
 62
1
  8
0
 10
-295.469362393
 20
40.2035704235
 30
0.0
 11
-319.303595871
 21
-28.8752291887
 31
0.0
  0
LINE
 62
1
  8
0
 10
-319.303595871
 20
-28.8752291887
 30
0.0
 11
-284.029285836
 21
-28.2533563256
 31
0.0
  0
LINE
 62
0
  8
0
 10
-72.6705090846
 20
-19.3458509743
 30
0.0
 11
-137.491240354
 21
31.6075669568
 31
0.0
  0
LINE
 62
1
  8
0
 10
-137.491240354
 20
31.6075669568
 30
0.0
 11
-122.636144804
 21
-56.4422390547
 31
0.0
  0
LINE
 62
1
  8
0
 10
-122.636144804
 20
-56.4422390547
 30
0.0
 11
-72.6705090846
 21
-19.3458509743
 31
0.0
  0
LINE
 62
1
  8
0
 10
103.273084934
 20
-249.302571527
 30
0.0
 11
58.4762730714
 21
-230.950501844
 31
0.0
  0
LINE
 62
0
  8
0
 10
58.4762730714
 20
-230.950501844
 30
0.0
 11
41.3663127157
 21
-261.016422056
 31
0.0
  0
LINE
 62
0
  8
0
 10
41.3663127157
 20
-261.016422056
 30
0.0
 11
103.273084934
 21
-249.302571527
 31
0.0
  0
LINE
 62
1
  8
0
 10
174.26693365
 20
26.2102505954
 30
0.0
 11
157.697342538
 21
-17.1995022125
 31
0.0
  0
LINE
 62
0
  8
0
 10
157.697342538
 20
-17.1995022125
 30
0.0
 11
220.120337024
 21
-14.274977769
 31
0.0
  0
LINE
 62
0
  8
0
 10
220.120337024
 20
-14.274977769
 30
0.0
 11
174.26693365
 21
26.2102505954
 31
0.0
  0
LINE
 62
1
  8
0
 10
157.697342491
 20
-17.1995021945
 30
0.0
 11
174.266933697
 21
26.2102505774
 31
0.0
  0
LINE
 62
0
  8
0
 10
174.266933697
 20
26.2102505774
 30
0.0
 11
110.0375275
 21
10.5293362873
 31
0.0
  0
LINE
 62
1
  8
0
 10
110.0375275
 20
10.5293362873
 30
0.0
 11
157.697342491
 21
-17.1995021945
 31
0.0
  0
LINE
 62
1
  8
0
 10
37.5188746704
 20
-151.086471937
 30
0.0
 11
91.7479656171
 21
-155.644924878
 31
0.0
  0
LINE
 62
1
  8
0
 10
91.7479656171
 20
-155.644924878
 30
0.0
 11
51.2068811005
 21
-117.473347174
 31
0.0
  0
LINE
 62
1
  8
0
 10
51.2068811005
 20
-117.473347174
 30
0.0
 11
37.5188746704
 21
-151.086471937
 31
0.0
  0
LINE
 62
1
  8
0
 10
113.784354778
 20
-189.612794799
 30
0.0
 11
103.488669062
 21
-219.988805093
 31
0.0
  0
LINE
 62
1
  8
0
 10
103.488669062
 20
-219.988805093
 30
0.0
 11
140.752847772
 21
-220.599526307
 31
0.0
  0
LINE
 62
1
  8
0
 10
140.752847772
 20
-220.599526307
 30
0.0
 11
113.784354778
 21
-189.612794799
 31
0.0
  0
LINE
 62
0
  8
0
 10
103.488669062
 20
-219.9888051
 30
0.0
 11
122.012763199
 21
-266.343421594
 31
0.0
  0
LINE
 62
1
  8
0
 10
122.012763199
 20
-266.343421594
 30
0.0
 11
140.752847772
 21
-220.599526301
 31
0.0
  0
LINE
 62
1
  8
0
 10
140.752847772
 20
-220.599526301
 30
0.0
 11
103.488669062
 21
-219.9888051
 31
0.0
  0
LINE
 62
1
  8
0
 10
118.509717786
 20
-40.4656160494
 30
0.0
 11
157.697342423
 21
-17.1995023104
 31
0.0
  0
LINE
 62
1
  8
0
 10
157.697342423
 20
-17.1995023104
 30
0.0
 11
110.037527568
 21
10.5293364033
 31
0.0
  0
LINE
 62
1
  8
0
 10
110.037527568
 20
10.5293364033
 30
0.0
 11
118.509717786
 21
-40.4656160494
 31
0.0
  0
LINE
 62
0
  8
0
 10
-312.079151469
 20
-76.0907680041
 30
0.0
 11
-339.331445958
 21
-94.2578252002
 31
0.0
  0
LINE
 62
1
  8
0
 10
-339.331445958
 20
-94.2578252002
 30
0.0
 11
-323.115634696
 21
-131.537875948
 31
0.0
  0
LINE
 62
1
  8
0
 10
-323.115634696
 20
-131.537875948
 30
0.0
 11
-312.079151469
 21
-76.0907680041
 31
0.0
  0
LINE
 62
1
  8
0
 10
-111.328782178
 20
-79.0004326311
 30
0.0
 11
-72.670509084
 21
-19.3458509751
 31
0.0
  0
LINE
 62
1
  8
0
 10
-72.670509084
 20
-19.3458509751
 30
0.0
 11
-122.636144805
 21
-56.442239054
 31
0.0
  0
LINE
 62
0
  8
0
 10
-122.636144805
 20
-56.442239054
 30
0.0
 11
-111.328782178
 21
-79.0004326311
 31
0.0
  0
LINE
 62
0
  8
0
 10
-263.588918173
 20
74.3295507898
 30
0.0
 11
-280.863930019
 21
41.0806665297
 31
0.0
  0
LINE
 62
1
  8
0
 10
-280.863930019
 20
41.0806665297
 30
0.0
 11
-212.733253339
 21
38.0131021999
 31
0.0
  0
LINE
 62
0
  8
0
 10
-212.733253339
 20
38.0131021999
 30
0.0
 11
-263.588918173
 21
74.3295507898
 31
0.0
  0
LINE
 62
1
  8
0
 10
167.231711807
 20
-116.048698934
 30
0.0
 11
63.8576662732
 21
-82.93809581
 31
0.0
  0
LINE
 62
1
  8
0
 10
63.8576662732
 20
-82.93809581
 30
0.0
 11
95.0809791159
 21
-118.698512642
 31
0.0
  0
LINE
 62
0
  8
0
 10
95.0809791159
 20
-118.698512642
 30
0.0
 11
167.231711807
 21
-116.048698934
 31
0.0
  0
LINE
 62
0
  8
0
 10
-416.904106429
 20
-182.870170057
 30
0.0
 11
-382.764612125
 21
-143.70833252
 31
0.0
  0
LINE
 62
1
  8
0
 10
-382.764612125
 20
-143.70833252
 30
0.0
 11
-418.090107277
 21
-110.680536851
 31
0.0
  0
LINE
 62
0
  8
0
 10
-418.090107277
 20
-110.680536851
 30
0.0
 11
-416.904106429
 21
-182.870170057
 31
0.0
  0
LINE
 62
0
  8
0
 10
-372.576867114
 20
-68.6912001224
 30
0.0
 11
-418.090107131
 21
-110.680536396
 31
0.0
  0
LINE
 62
1
  8
0
 10
-418.090107131
 20
-110.680536396
 30
0.0
 11
-339.331445616
 21
-94.2578253348
 31
0.0
  0
LINE
 62
0
  8
0
 10
-339.331445616
 20
-94.2578253348
 30
0.0
 11
-372.576867114
 21
-68.6912001224
 31
0.0
  0
LINE
 62
0
  8
0
 10
137.268456431
 20
-149.019650088
 30
0.0
 11
95.0809792152
 21
-118.698512958
 31
0.0
  0
LINE
 62
1
  8
0
 10
95.0809792152
 20
-118.698512958
 30
0.0
 11
51.2068814883
 21
-117.473346091
 31
0.0
  0
LINE
 62
1
  8
0
 10
51.2068814883
 20
-117.473346091
 30
0.0
 11
137.268456431
 21
-149.019650088
 31
0.0
  0
LINE
 62
1
  8
0
 10
113.784355047
 20
-189.612794565
 30
0.0
 11
140.752847503
 21
-220.599526541
 31
0.0
  0
LINE
 62
1
  8
0
 10
140.752847503
 20
-220.599526541
 30
0.0
 11
153.179308318
 21
-180.260988055
 31
0.0
  0
LINE
 62
0
  8
0
 10
153.179308318
 20
-180.260988055
 30
0.0
 11
113.784355047
 21
-189.612794565
 31
0.0
  0
TEXT
  8
0
 10
0.541462552972
 20
58.2249548785
 30
0.0
 40
1.0
  1
0
  0
TEXT
  8
0
 10
-9.85222082785
 20
96.7323893093
 30
0.0
 40
1.0
  1
1
  0
TEXT
  8
0
 10
-20.6006897936
 20
-62.127547813
 30
0.0
 40
1.0
  1
2
  0
TEXT
  8
0
 10
13.9689691058
 20
-9.35197405623
 30
0.0
 40
1.0
  1
3
  0
TEXT
  8
0
 10
-301.450643282
 20
-108.384939365
 30
0.0
 40
1.0
  1
4
  0
TEXT
  8
0
 10
48.6262486196
 20
-224.624024451
 30
0.0
 40
1.0
  1
5
  0
TEXT
  8
0
 10
44.9139259571
 20
-241.78979726
 30
0.0
 40
1.0
  1
6
  0
TEXT
  8
0
 10
147.453641954
 20
-90.3758117773
 30
0.0
 40
1.0
  1
7
  0
TEXT
  8
0
 10
97.4284225746
 20
-74.3973760302
 30
0.0
 40
1.0
  1
8
  0
TEXT
  8
0
 10
101.880917764
 20
-234.634656949
 30
0.0
 40
1.0
  1
9
  0
TEXT
  8
0
 10
-209.377813726
 20
8.41156548219
 30
0.0
 40
1.0
  1
10
  0
TEXT
  8
0
 10
-278.685230425
 20
-119.076138994
 30
0.0
 40
1.0
  1
4
  0
TEXT
  8
0
 10
-262.705661512
 20
-158.525974395
 30
0.0
 40
1.0
  1
11
  0
TEXT
  8
0
 10
90.2632492204
 20
-60.5174636093
 30
0.0
 40
1.0
  1
8
  0
TEXT
  8
0
 10
23.5042903335
 20
-170.244699375
 30
0.0
 40
1.0
  1
12
  0
TEXT
  8
0
 10
-143.071597921
 20
-73.2548624201
 30
0.0
 40
1.0
  1
13
  0
TEXT
  8
0
 10
-186.37308695
 20
-69.426962154
 30
0.0
 40
1.0
  1
5
  0
TEXT
  8
0
 10
-171.394047752
 20
50.407585233
 30
0.0
 40
1.0
  1
14
  0
TEXT
  8
0
 10
-186.729448377
 20
52.1486488508
 30
0.0
 40
1.0
  1
15
  0
TEXT
  8
0
 10
-236.87890431
 20
-167.799542182
 30
0.0
 40
1.0
  1
16
  0
TEXT
  8
0
 10
142.973881392
 20
-61.720589136
 30
0.0
 40
1.0
  1
7
  0
TEXT
  8
0
 10
152.548770925
 20
-236.673913903
 30
0.0
 40
1.0
  1
17
  0
TEXT
  8
0
 10
-66.2660025907
 20
21.4061642516
 30
0.0
 40
1.0
  1
18
  0
TEXT
  8
0
 10
148.516331272
 20
-262.392563723
 30
0.0
 40
1.0
  1
11
  0
TEXT
  8
0
 10
128.159935344
 20
-270.301979042
 30
0.0
 40
1.0
  1
16
  0
TEXT
  8
0
 10
35.9153203942
 20
-201.352717651
 30
0.0
 40
1.0
  1
13
  0
TEXT
  8
0
 10
10.9757314322
 20
-199.609209398
 30
0.0
 40
1.0
  1
19
  0
TEXT
  8
0
 10
101.507771742
 20
-173.445228835
 30
0.0
 40
1.0
  1
20
  0
TEXT
  8
0
 10
26.5957484782
 20
-91.4360299293
 30
0.0
 40
1.0
  1
21
  0
TEXT
  8
0
 10
-149.270167785
 20
14.7541759807
 30
0.0
 40
1.0
  1
14
  0
TEXT
  8
0
 10
19.8269436532
 20
-100.183198104
 30
0.0
 40
1.0
  1
21
  0
TEXT
  8
0
 10
15.0064688321
 20
-114.871217779
 30
0.0
 40
1.0
  1
22
  0
TEXT
  8
0
 10
-200.979662934
 20
-9.76913390254
 30
0.0
 40
1.0
  1
10
  0
TEXT
  8
0
 10
-228.136353253
 20
-76.6578300471
 30
0.0
 40
1.0
  1
23
  0
TEXT
  8
0
 10
-62.2021952839
 20
92.1064842777
 30
0.0
 40
1.0
  1
15
  0
TEXT
  8
0
 10
-224.133309747
 20
-145.012478755
 30
0.0
 40
1.0
  1
24
  0
TEXT
  8
0
 10
-228.812930249
 20
-114.875099233
 30
0.0
 40
1.0
  1
9
  0
TEXT
  8
0
 10
-28.8114097274
 20
-76.5185260492
 30
0.0
 40
1.0
  1
2
  0
TEXT
  8
0
 10
-53.9077004704
 20
-105.650479962
 30
0.0
 40
1.0
  1
22
  0
TEXT
  8
0
 10
-319.244471362
 20
32.6560020516
 30
0.0
 40
1.0
  1
25
  0
TEXT
  8
0
 10
-330.150534546
 20
0.163258388771
 30
0.0
 40
1.0
  1
26
  0
TEXT
  8
0
 10
-100.779998171
 20
-100.264707434
 30
0.0
 40
1.0
  1
12
  0
TEXT
  8
0
 10
118.224280858
 20
42.5926181027
 30
0.0
 40
1.0
  1
27
  0
TEXT
  8
0
 10
86.2268978698
 20
54.1924569138
 30
0.0
 40
1.0
  1
0
  0
TEXT
  8
0
 10
114.292170108
 20
-150.847926378
 30
0.0
 40
1.0
  1
28
  0
TEXT
  8
0
 10
-329.629177329
 20
-47.1880652073
 30
0.0
 40
1.0
  1
29
  0
TEXT
  8
0
 10
-326.706829827
 20
-68.5765536949
 30
0.0
 40
1.0
  1
30
  0
TEXT
  8
0
 10
174.908874541
 20
-62.0991858128
 30
0.0
 40
1.0
  1
25
  0
TEXT
  8
0
 10
171.49525277
 20
-29.9606250667
 30
0.0
 40
1.0
  1
31
  0
TEXT
  8
0
 10
42.9055432943
 20
4.30558137812
 30
0.0
 40
1.0
  1
3
  0
TEXT
  8
0
 10
156.274964163
 20
-220.003338624
 30
0.0
 40
1.0
  1
32
  0
TEXT
  8
0
 10
161.026593524
 20
-201.932916071
 30
0.0
 40
1.0
  1
28
  0
TEXT
  8
0
 10
-21.1928069792
 20
114.591987052
 30
0.0
 40
1.0
  1
1
  0
TEXT
  8
0
 10
-34.3302102605
 20
126.470150691
 30
0.0
 40
1.0
  1
33
  0
TEXT
  8
0
 10
-339.691322474
 20
-142.618323123
 30
0.0
 40
1.0
  1
17
  0
TEXT
  8
0
 10
-367.991557865
 20
-148.509208127
 30
0.0
 40
1.0
  1
32
  0
TEXT
  8
0
 10
-280.948168797
 20
6.34524590146
 30
0.0
 40
1.0
  1
34
  0
TEXT
  8
0
 10
-291.228807658
 20
5.72786537737
 30
0.0
 40
1.0
  1
34
  0
TEXT
  8
0
 10
-106.007863981
 20
4.95158240475
 30
0.0
 40
1.0
  1
18
  0
TEXT
  8
0
 10
51.2249736197
 20
-246.725362593
 30
0.0
 40
1.0
  1
6
  0
TEXT
  8
0
 10
72.0408209043
 20
-253.68564907
 30
0.0
 40
1.0
  1
23
  0
TEXT
  8
0
 10
188.838641607
 20
-14.2388834856
 30
0.0
 40
1.0
  1
35
  0
TEXT
  8
0
 10
196.200839718
 20
4.84320017262
 30
0.0
 40
1.0
  1
33
  0
TEXT
  8
0
 10
142.507990463
 20
16.912592376
 30
0.0
 40
1.0
  1
27
  0
TEXT
  8
0
 10
114.143615036
 20
-242.609487225
 30
0.0
 40
1.0
  1
24
  0
TEXT
  8
0
 10
-324.873284537
 20
-86.4223961215
 30
0.0
 40
1.0
  1
30
  0
TEXT
  8
0
 10
-115.641495481
 20
-67.0491715796
 30
0.0
 40
1.0
  1
19
  0
TEXT
  8
0
 10
-270.895362877
 20
57.0135336237
 30
0.0
 40
1.0
  1
31
  0
TEXT
  8
0
 10
-239.032799576
 20
54.9506238218
 30
0.0
 40
1.0
  1
35
  0
TEXT
  8
0
 10
131.101293453
 20
-115.87461637
 30
0.0
 40
1.0
  1
36
  0
TEXT
  8
0
 10
-400.96504118
 20
-162.30357465
 30
0.0
 40
1.0
  1
37
  0
TEXT
  8
0
 10
-415.997309245
 20
-146.750713334
 30
0.0
 40
1.0
  1
36
  0
TEXT
  8
0
 10
-394.316366323
 20
-90.7883496784
 30
0.0
 40
1.0
  1
26
  0
TEXT
  8
0
 10
-356.868570243
 20
-82.6635658222
 30
0.0
 40
1.0
  1
29
  0
TEXT
  8
0
 10
115.299284923
 20
-135.077119797
 30
0.0
 40
1.0
  1
37
  0
TEXT
  8
0
 10
133.828282698
 20
-186.396333564
 30
0.0
 40
1.0
  1
20
  0
ENDSEC
  0
EOF
