  0
SECTION
  2
HEADER
  9
$ACADVER
  1
AC1009
  9
$EXTMIN
 10
0.0
 20
0.0
 30
0.0
  9
$EXTMAX
 10
100.0
 20
100.0
 30
0.0
  9
$INSBASE
 10
0.0
 20
0.0
 30
0.0
  0
ENDSEC
  0
SECTION
  2
TABLES
  0
TABLE
  2
LTYPE
 70
19
  0
LTYPE
  2
PHANTOM
 70
0
  3
Phantom ______  __  __  ______  __  __  ______
 72
65
 73
6
 40
2.5
 49
1.25
 49
-0.25
 49
0.25
 49
-0.25
 49
0.25
 49
-0.25
  0
LTYPE
  2
DOT2
 70
0
  3
Dot (.5) . . . . . . . . . . . . . . . . . . . 
 72
65
 73
2
 40
0.1
 49
0.0
 49
-0.1
  0
LTYPE
  2
DIVIDE
 70
0
  3
Divide __ . . __ . . __ . . __ . . __ . . __
 72
65
 73
6
 40
1.6
 49
1.0
 49
-0.2
 49
0.0
 49
-0.2
 49
0.0
 49
-0.2
  0
LTYPE
  2
DIVIDEX2
 70
0
  3
Divide (2x) ____  . .  ____  . .  ____  . .  ____
 72
65
 73
6
 40
2.6
 49
2.0
 49
-0.2
 49
0.0
 49
-0.2
 49
0.0
 49
-0.2
  0
LTYPE
  2
CENTER
 70
0
  3
Center ____ _ ____ _ ____ _ ____ _ ____ _ ____
 72
65
 73
4
 40
2.0
 49
1.25
 49
-0.25
 49
0.25
 49
-0.25
  0
LTYPE
  2
DASHDOT
 70
0
  3
Dash dot __ . __ . __ . __ . __ . __ . __ . __
 72
65
 73
4
 40
1.4
 49
1.0
 49
-0.2
 49
0.0
 49
-0.2
  0
LTYPE
  2
CENTERX2
 70
0
  3
Center (2x) ________  __  ________  __  ________
 72
65
 73
4
 40
3.5
 49
2.5
 49
-0.25
 49
0.5
 49
-0.25
  0
LTYPE
  2
PHANTOMX2
 70
0
  3
Phantom (2x)____________    ____    ____    ____________
 72
65
 73
6
 40
4.25
 49
2.5
 49
-0.25
 49
0.5
 49
-0.25
 49
0.5
 49
-0.25
  0
LTYPE
  2
CONTINUOUS
 70
0
  3
Solid
 72
65
 73
0
 40
0.0
  0
LTYPE
  2
PHANTOM2
 70
0
  3
Phantom (.5x) ___ _ _ ___ _ _ ___ _ _ ___ _ _ ___
 72
65
 73
6
 40
1.25
 49
0.625
 49
-0.125
 49
0.125
 49
-0.125
 49
0.125
 49
-0.125
  0
LTYPE
  2
DASHED
 70
0
  3
Dashed __ __ __ __ __ __ __ __ __ __ __ __ __ _
 72
65
 73
2
 40
0.6
 49
0.5
 49
-0.1
  0
LTYPE
  2
DASHED2
 70
0
  3
Dashed (.5x) _ _ _ _ _ _ _ _ _ _ _ _ _ _
 72
65
 73
2
 40
0.3
 49
0.25
 49
-0.05
  0
LTYPE
  2
DASHDOT2
 70
0
  3
Dash dot (.5x) _ . _ . _ . _ . _ . _ . _ . _
 72
65
 73
4
 40
0.7
 49
0.5
 49
-0.1
 49
0.0
 49
-0.1
  0
LTYPE
  2
DOTX2
 70
0
  3
Dot (2x) .    .    .    .    .    .    .    . 
 72
65
 73
2
 40
0.4
 49
0.0
 49
-0.4
  0
LTYPE
  2
DIVIDE2
 70
0
  3
Divide(.5x) _ . _ . _ . _ . _ . _ . _ . _
 72
65
 73
6
 40
0.8
 49
0.5
 49
-0.1
 49
0.0
 49
-0.1
 49
0.0
 49
-0.1
  0
LTYPE
  2
CENTER2
 70
0
  3
Center (.5x) ____ _ ____ _ ____ _ ____ _ ____
 72
65
 73
4
 40
1.0
 49
0.625
 49
-0.125
 49
0.125
 49
-0.125
  0
LTYPE
  2
DASHDOTX2
 70
0
  3
Dash dot (2x) ____  .  ____  .  ____  .  ____
 72
65
 73
4
 40
2.4
 49
2.0
 49
-0.2
 49
0.0
 49
-0.2
  0
LTYPE
  2
DOT
 70
0
  3
Dot .  .  .  .  .  .  .  .  .  .  .  .  .  .  .  .
 72
65
 73
2
 40
0.2
 49
0.0
 49
-0.2
  0
LTYPE
  2
DASHEDX2
 70
0
  3
Dashed (2x) ____  ____  ____  ____  ____  ____
 72
65
 73
2
 40
1.2
 49
1.0
 49
-0.2
  0
ENDTAB
  0
TABLE
  2
LAYER
 70
5
  0
LAYER
  2
VIEWPORTS
 70
0
 62
7
  6
CONTINUOUS
  0
LAYER
  2
TABLEGRID
 70
0
 62
1
  6
CONTINUOUS
  0
LAYER
  2
TABLECONTENT
 70
0
 62
1
  6
CONTINUOUS
  0
LAYER
  2
DIMENSIONS
 70
0
 62
1
  6
CONTINUOUS
  0
LAYER
  2
TABLEBACKGROUND
 70
0
 62
1
  6
CONTINUOUS
  0
ENDTAB
  0
TABLE
  2
STYLE
 70
12
  0
STYLE
  2
TIMES
 70
0
 40
0.0
 41
1.0
 42
1.0
 50
0.0
 71
0
  3
times.ttf
  4

  0
STYLE
  2
ARIAL
 70
0
 40
0.0
 41
1.0
 42
1.0
 50
0.0
 71
0
  3
arial.ttf
  4

  0
STYLE
  2
TIMES_BOLD
 70
0
 40
0.0
 41
1.0
 42
1.0
 50
0.0
 71
0
  3
timesbd.ttf
  4

  0
STYLE
  2
ARIAL_BLACK
 70
0
 40
0.0
 41
1.0
 42
1.0
 50
0.0
 71
0
  3
ariblk.ttf
  4

  0
STYLE
  2
TIMES_ITALIC
 70
0
 40
0.0
 41
1.0
 42
1.0
 50
0.0
 71
0
  3
timesi.ttf
  4

  0
STYLE
  2
ISOCPEUR
 70
0
 40
0.0
 41
1.0
 42
1.0
 50
0.0
 71
0
  3
isocpeur.ttf
  4

  0
STYLE
  2
ARIAL_BOLD
 70
0
 40
0.0
 41
1.0
 42
1.0
 50
0.0
 71
0
  3
arialbd.ttf
  4

  0
STYLE
  2
ARIAL_ITALIC
 70
0
 40
0.0
 41
1.0
 42
1.0
 50
0.0
 71
0
  3
ariali.ttf
  4

  0
STYLE
  2
ARIAL_BOLD_ITALIC
 70
0
 40
0.0
 41
1.0
 42
1.0
 50
0.0
 71
0
  3
arialbi.ttf
  4

  0
STYLE
  2
TIMES_BOLD_ITALIC
 70
0
 40
0.0
 41
1.0
 42
1.0
 50
0.0
 71
0
  3
timesbi.ttf
  4

  0
STYLE
  2
ISOCPEUR_ITALIC
 70
0
 40
0.0
 41
1.0
 42
1.0
 50
0.0
 71
0
  3
isocpeui.ttf
  4

  0
STYLE
  2
STANDARD
 70
0
 40
0.0
 41
1.0
 42
1.0
 50
0.0
 71
0
  3
arial.ttf
  4

  0
ENDTAB
  0
TABLE
  2
VIEW
 70
0
  0
ENDTAB
  0
TABLE
  2
APPID
 70
1
  0
APPID
  2
DXFWRITE
 70
0
  0
ENDTAB
  0
TABLE
  2
VPORT
 70
0
  0
ENDTAB
  0
TABLE
  2
UCS
 70
0
  0
ENDTAB
  0
ENDSEC
  0
SECTION
  2
BLOCKS
  0
ENDSEC
  0
SECTION
  2
ENTITIES
  0
VIEWPORT
  8
VIEWPORTS
 67
1
 10
0.0
 20
0.0
 30
0.0
 40
1.0
 41
1.0
 68
1
 69
1
1001
ACAD
1000
MVIEW
1002
{
1070
16
1010
0.0
1020
0.0
1030
0.0
1010
0.0
1020
0.0
1030
0.0
1040
0.0
1040
1.0
1040
0.0
1040
0.0
1040
50.0
1040
0.0
1040
0.0
1070
0
1070
100
1070
1
1070
3
1070
0
1070
0
1070
0
1070
0
1040
0.0
1040
0.0
1040
0.0
1040
0.1
1040
0.1
1040
0.1
1040
0.1
1070
0
1002
{
1002
}
1002
}
  0
LINE
 62
0
  8
0
 10
3.19394190963
 20
-1.59088654953
 30
0.0
 11
1.64885220819
 21
3.1643934749
 31
0.0
  0
LINE
 62
0
  8
0
 10
1.64885220819
 20
3.1643934749
 30
0.0
 11
-2.97472572671
 21
-1.97061102818
 31
0.0
  0
LINE
 62
1
  8
0
 10
-2.97472572671
 20
-1.97061102818
 30
0.0
 11
3.19394190963
 21
-1.59088654953
 31
0.0
  0
LINE
 62
1
  8
0
 10
9.200583698
 20
3.6489074947
 30
0.0
 11
4.7121954475
 21
7.89754805292
 31
0.0
  0
LINE
 62
1
  8
0
 10
4.7121954475
 20
7.89754805292
 30
0.0
 11
3.0942330414
 21
6.8828255248
 31
0.0
  0
LINE
 62
0
  8
0
 10
3.0942330414
 20
6.8828255248
 30
0.0
 11
9.200583698
 21
3.6489074947
 31
0.0
  0
LINE
 62
1
  8
0
 10
9.20058369205
 20
3.64890748841
 30
0.0
 11
11.6208682611
 21
8.02408817678
 31
0.0
  0
LINE
 62
1
  8
0
 10
11.6208682611
 20
8.02408817678
 30
0.0
 11
4.71219545345
 21
7.8975480592
 31
0.0
  0
LINE
 62
1
  8
0
 10
4.71219545345
 20
7.8975480592
 30
0.0
 11
9.20058369205
 21
3.64890748841
 31
0.0
  0
LINE
 62
1
  8
0
 10
11.6208682611
 20
8.02408817678
 30
0.0
 11
5.63666072523
 21
9.56871984817
 31
0.0
  0
LINE
 62
0
  8
0
 10
5.63666072523
 20
9.56871984817
 30
0.0
 11
4.71219545345
 21
7.8975480592
 31
0.0
  0
LINE
 62
1
  8
0
 10
4.71219545345
 20
7.8975480592
 30
0.0
 11
11.6208682611
 21
8.02408817678
 31
0.0
  0
LINE
 62
0
  8
0
 10
11.6208682613
 20
8.02408817744
 30
0.0
 11
11.6204894749
 21
13.0240881631
 31
0.0
  0
LINE
 62
1
  8
0
 10
11.6204894749
 20
13.0240881631
 30
0.0
 11
5.63666072506
 21
9.56871984751
 31
0.0
  0
LINE
 62
1
  8
0
 10
5.63666072506
 20
9.56871984751
 30
0.0
 11
11.6208682613
 21
8.02408817744
 31
0.0
  0
LINE
 62
1
  8
0
 10
11.6204894749
 20
13.0240881631
 30
0.0
 11
5.63651604154
 21
11.4785498162
 31
0.0
  0
LINE
 62
0
  8
0
 10
5.63651604154
 20
11.4785498162
 30
0.0
 11
5.63666072506
 21
9.56871984751
 31
0.0
  0
LINE
 62
1
  8
0
 10
5.63666072506
 20
9.56871984751
 30
0.0
 11
11.6204894749
 21
13.0240881631
 31
0.0
  0
LINE
 62
1
  8
0
 10
11.6204894707
 20
13.0240881791
 30
0.0
 11
9.19954200341
 21
17.3989020965
 31
0.0
  0
LINE
 62
1
  8
0
 10
9.19954200341
 20
17.3989020965
 30
0.0
 11
5.63651604568
 21
11.4785498002
 31
0.0
  0
LINE
 62
1
  8
0
 10
5.63651604568
 20
11.4785498002
 30
0.0
 11
11.6204894707
 21
13.0240881791
 31
0.0
  0
LINE
 62
0
  8
0
 10
9.19954200341
 20
17.3989020965
 30
0.0
 11
4.71179756907
 21
13.1495814952
 31
0.0
  0
LINE
 62
0
  8
0
 10
4.71179756907
 20
13.1495814952
 30
0.0
 11
5.63651604568
 21
11.4785498002
 31
0.0
  0
LINE
 62
1
  8
0
 10
5.63651604568
 20
11.4785498002
 30
0.0
 11
9.19954200341
 21
17.3989020965
 31
0.0
  0
LINE
 62
1
  8
0
 10
-19.6566497362
 20
-7.36773818972
 30
0.0
 11
-15.3151586112
 21
-9.84794888806
 31
0.0
  0
LINE
 62
1
  8
0
 10
-15.3151586112
 20
-9.84794888806
 30
0.0
 11
-15.3467024556
 21
-2.93818628026
 31
0.0
  0
LINE
 62
0
  8
0
 10
-15.3467024556
 20
-2.93818628026
 30
0.0
 11
-19.6566497362
 21
-7.36773818972
 31
0.0
  0
LINE
 62
0
  8
0
 10
-15.3151586112
 20
-9.84794888806
 30
0.0
 11
-13.6883957983
 21
-3.88554217281
 31
0.0
  0
LINE
 62
0
  8
0
 10
-13.6883957983
 20
-3.88554217281
 30
0.0
 11
-15.3467024556
 21
-2.93818628026
 31
0.0
  0
LINE
 62
1
  8
0
 10
-15.3467024556
 20
-2.93818628026
 30
0.0
 11
-15.3151586112
 21
-9.84794888806
 31
0.0
  0
LINE
 62
0
  8
0
 10
-14.5862962595
 20
-8.46419717858
 30
0.0
 11
-10.5813297118
 21
-11.4575620491
 31
0.0
  0
LINE
 62
1
  8
0
 10
-10.5813297118
 20
-11.4575620491
 30
0.0
 11
-9.76617485699
 21
-4.59598302312
 31
0.0
  0
LINE
 62
0
  8
0
 10
-9.76617485699
 20
-4.59598302312
 30
0.0
 11
-14.5862962595
 21
-8.46419717858
 31
0.0
  0
LINE
 62
1
  8
0
 10
-10.5813297118
 20
-11.4575620491
 30
0.0
 11
-8.2364121931
 21
-5.73935100798
 31
0.0
  0
LINE
 62
0
  8
0
 10
-8.2364121931
 20
-5.73935100798
 30
0.0
 11
-9.76617485699
 21
-4.59598302312
 31
0.0
  0
LINE
 62
1
  8
0
 10
-9.76617485699
 20
-4.59598302312
 30
0.0
 11
-10.5813297118
 21
-11.4575620491
 31
0.0
  0
LINE
 62
1
  8
0
 10
-10.5813297198
 20
-11.4575620458
 30
0.0
 11
-5.62782975519
 21
-12.1378719396
 31
0.0
  0
LINE
 62
1
  8
0
 10
-5.62782975519
 20
-12.1378719396
 30
0.0
 11
-8.23641218509
 21
-5.73935101126
 31
0.0
  0
LINE
 62
1
  8
0
 10
-8.23641218509
 20
-5.73935101126
 30
0.0
 11
-10.5813297198
 21
-11.4575620458
 31
0.0
  0
LINE
 62
1
  8
0
 10
-5.62782975519
 20
-12.1378719396
 30
0.0
 11
-6.34434261018
 21
-5.99920464443
 31
0.0
  0
LINE
 62
1
  8
0
 10
-6.34434261018
 20
-5.99920464443
 30
0.0
 11
-8.23641218509
 21
-5.73935101126
 31
0.0
  0
LINE
 62
1
  8
0
 10
-8.23641218509
 20
-5.73935101126
 30
0.0
 11
-5.62782975519
 21
-12.1378719396
 31
0.0
  0
LINE
 62
1
  8
0
 10
-5.62782975451
 20
-12.1378719396
 30
0.0
 11
-0.964163047087
 21
-10.335037271
 31
0.0
  0
LINE
 62
1
  8
0
 10
-0.964163047087
 20
-10.335037271
 30
0.0
 11
-6.34434261086
 21
-5.99920464451
 31
0.0
  0
LINE
 62
1
  8
0
 10
-6.34434261086
 20
-5.99920464451
 30
0.0
 11
-5.62782975451
 21
-12.1378719396
 31
0.0
  0
LINE
 62
1
  8
0
 10
-0.964163047087
 20
-10.335037271
 30
0.0
 11
-4.56298051738
 21
-5.31058310682
 31
0.0
  0
LINE
 62
0
  8
0
 10
-4.56298051738
 20
-5.31058310682
 30
0.0
 11
-6.34434261086
 21
-5.99920464451
 31
0.0
  0
LINE
 62
1
  8
0
 10
-6.34434261086
 20
-5.99920464451
 30
0.0
 11
-0.964163047087
 21
-10.335037271
 31
0.0
  0
LINE
 62
1
  8
0
 10
-0.964163033615
 20
-10.3350372614
 30
0.0
 11
2.24374872365
 21
-6.49976861255
 31
0.0
  0
LINE
 62
1
  8
0
 10
2.24374872365
 20
-6.49976861255
 30
0.0
 11
-4.56298053085
 21
-5.31058311647
 31
0.0
  0
LINE
 62
1
  8
0
 10
-4.56298053085
 20
-5.31058311647
 30
0.0
 11
-0.964163033615
 21
-10.3350372614
 31
0.0
  0
LINE
 62
1
  8
0
 10
2.24374872365
 20
-6.49976861255
 30
0.0
 11
-3.33766547631
 21
-3.84564140975
 31
0.0
  0
LINE
 62
0
  8
0
 10
-3.33766547631
 20
-3.84564140975
 30
0.0
 11
-4.56298053085
 21
-5.31058311647
 31
0.0
  0
LINE
 62
1
  8
0
 10
-4.56298053085
 20
-5.31058311647
 30
0.0
 11
2.24374872365
 21
-6.49976861255
 31
0.0
  0
LINE
 62
0
  8
0
 10
2.2437487156
 20
-6.49976862946
 30
0.0
 11
3.19394191017
 21
-1.59088655823
 31
0.0
  0
LINE
 62
1
  8
0
 10
3.19394191017
 20
-1.59088655823
 30
0.0
 11
-3.33766546827
 21
-3.84564139283
 31
0.0
  0
LINE
 62
1
  8
0
 10
-3.33766546827
 20
-3.84564139283
 30
0.0
 11
2.2437487156
 21
-6.49976862946
 31
0.0
  0
LINE
 62
1
  8
0
 10
3.19394191017
 20
-1.59088655823
 30
0.0
 11
-2.97472572725
 21
-1.97061101947
 31
0.0
  0
LINE
 62
0
  8
0
 10
-2.97472572725
 20
-1.97061101947
 30
0.0
 11
-3.33766546827
 21
-3.84564139283
 31
0.0
  0
LINE
 62
1
  8
0
 10
-3.33766546827
 20
-3.84564139283
 30
0.0
 11
3.19394191017
 21
-1.59088655823
 31
0.0
  0
LINE
 62
1
  8
0
 10
10.3330178092
 20
-4.5861318814
 30
0.0
 11
14.2982150438
 21
0.154520305135
 31
0.0
  0
LINE
 62
1
  8
0
 10
14.2982150438
 20
0.154520305135
 30
0.0
 11
5.99267221937
 21
-0.186362293841
 31
0.0
  0
LINE
 62
0
  8
0
 10
5.99267221937
 20
-0.186362293841
 30
0.0
 11
10.3330178092
 21
-4.5861318814
 31
0.0
  0
LINE
 62
1
  8
0
 10
14.2982150438
 20
0.154520305135
 30
0.0
 11
9.20058370132
 21
3.64890747766
 31
0.0
  0
LINE
 62
0
  8
0
 10
9.20058370132
 20
3.64890747766
 30
0.0
 11
5.99267221937
 21
-0.186362293841
 31
0.0
  0
LINE
 62
1
  8
0
 10
5.99267221937
 20
-0.186362293841
 30
0.0
 11
14.2982150438
 21
0.154520305135
 31
0.0
  0
LINE
 62
0
  8
0
 10
14.298215041
 20
0.154520301055
 30
0.0
 11
17.2898537741
 21
5.56254663029
 31
0.0
  0
LINE
 62
1
  8
0
 10
17.2898537741
 20
5.56254663029
 30
0.0
 11
9.20058370412
 21
3.64890748174
 31
0.0
  0
LINE
 62
1
  8
0
 10
9.20058370412
 20
3.64890748174
 30
0.0
 11
14.298215041
 21
0.154520301055
 31
0.0
  0
LINE
 62
0
  8
0
 10
17.2898537741
 20
5.56254663029
 30
0.0
 11
11.620868249
 21
8.02408818345
 31
0.0
  0
LINE
 62
1
  8
0
 10
11.620868249
 20
8.02408818345
 30
0.0
 11
9.20058370412
 21
3.64890748174
 31
0.0
  0
LINE
 62
1
  8
0
 10
9.20058370412
 20
3.64890748174
 30
0.0
 11
17.2898537741
 21
5.56254663029
 31
0.0
  0
LINE
 62
0
  8
0
 10
19.1989458738
 20
9.60864073059
 30
0.0
 11
17.2891019436
 21
15.4864886675
 31
0.0
  0
LINE
 62
1
  8
0
 10
17.2891019436
 20
15.4864886675
 30
0.0
 11
13.1655856765
 21
8.26880923688
 31
0.0
  0
LINE
 62
0
  8
0
 10
13.1655856765
 20
8.26880923688
 30
0.0
 11
19.1989458738
 21
9.60864073059
 31
0.0
  0
LINE
 62
1
  8
0
 10
17.2891019436
 20
15.4864886675
 30
0.0
 11
11.6204894618
 21
13.0240881653
 31
0.0
  0
LINE
 62
0
  8
0
 10
11.6204894618
 20
13.0240881653
 30
0.0
 11
13.1655856765
 21
8.26880923688
 31
0.0
  0
LINE
 62
1
  8
0
 10
13.1655856765
 20
8.26880923688
 30
0.0
 11
17.2891019436
 21
15.4864886675
 31
0.0
  0
LINE
 62
1
  8
0
 10
17.2891019467
 20
15.4864886603
 30
0.0
 11
14.2966438253
 21
20.8940616353
 31
0.0
  0
LINE
 62
1
  8
0
 10
14.2966438253
 20
20.8940616353
 30
0.0
 11
11.6204894587
 21
13.0240881725
 31
0.0
  0
LINE
 62
1
  8
0
 10
11.6204894587
 20
13.0240881725
 30
0.0
 11
17.2891019467
 21
15.4864886603
 31
0.0
  0
LINE
 62
1
  8
0
 10
14.2966438253
 20
20.8940616353
 30
0.0
 11
9.19954201548
 21
17.3989021032
 31
0.0
  0
LINE
 62
1
  8
0
 10
9.19954201548
 20
17.3989021032
 30
0.0
 11
11.6204894587
 21
13.0240881725
 31
0.0
  0
LINE
 62
1
  8
0
 10
11.6204894587
 20
13.0240881725
 30
0.0
 11
14.2966438253
 21
20.8940616353
 31
0.0
  0
LINE
 62
1
  8
0
 10
14.2966438141
 20
20.8940616517
 30
0.0
 11
10.3307282846
 21
25.6341129464
 31
0.0
  0
LINE
 62
0
  8
0
 10
10.3307282846
 20
25.6341129464
 30
0.0
 11
9.19954202675
 21
17.3989020867
 31
0.0
  0
LINE
 62
1
  8
0
 10
9.19954202675
 20
17.3989020867
 30
0.0
 11
14.2966438141
 21
20.8940616517
 31
0.0
  0
LINE
 62
1
  8
0
 10
-17.8544121383
 20
-15.4825530283
 30
0.0
 11
-15.3151586124
 21
-9.84794889015
 31
0.0
  0
LINE
 62
1
  8
0
 10
-15.3151586124
 20
-9.84794889015
 30
0.0
 11
-19.656649735
 21
-7.36773818762
 31
0.0
  0
LINE
 62
0
  8
0
 10
-19.656649735
 20
-7.36773818762
 30
0.0
 11
-17.8544121383
 21
-15.4825530283
 31
0.0
  0
LINE
 62
0
  8
0
 10
-17.8544121544
 20
-15.4825530211
 30
0.0
 11
-12.0030795006
 21
-17.4721455514
 31
0.0
  0
LINE
 62
1
  8
0
 10
-12.0030795006
 20
-17.4721455514
 30
0.0
 11
-15.3151585963
 21
-9.84794889742
 31
0.0
  0
LINE
 62
1
  8
0
 10
-15.3151585963
 20
-9.84794889742
 30
0.0
 11
-17.8544121544
 21
-15.4825530211
 31
0.0
  0
LINE
 62
1
  8
0
 10
-12.0030795006
 20
-17.4721455514
 30
0.0
 11
-10.5813297265
 21
-11.4575620583
 31
0.0
  0
LINE
 62
0
  8
0
 10
-10.5813297265
 20
-11.4575620583
 30
0.0
 11
-15.3151585963
 21
-9.84794889742
 31
0.0
  0
LINE
 62
1
  8
0
 10
-15.3151585963
 20
-9.84794889742
 30
0.0
 11
-12.0030795006
 21
-17.4721455514
 31
0.0
  0
LINE
 62
1
  8
0
 10
-12.0030795054
 20
-17.4721455502
 30
0.0
 11
-5.88021071917
 21
-18.3130551257
 31
0.0
  0
LINE
 62
1
  8
0
 10
-5.88021071917
 20
-18.3130551257
 30
0.0
 11
-10.5813297217
 21
-11.4575620595
 31
0.0
  0
LINE
 62
1
  8
0
 10
-10.5813297217
 20
-11.4575620595
 30
0.0
 11
-12.0030795054
 21
-17.4721455502
 31
0.0
  0
LINE
 62
0
  8
0
 10
-5.88021071917
 20
-18.3130551257
 30
0.0
 11
-5.62782975331
 21
-12.137871926
 31
0.0
  0
LINE
 62
1
  8
0
 10
-5.62782975331
 20
-12.137871926
 30
0.0
 11
-10.5813297217
 21
-11.4575620595
 31
0.0
  0
LINE
 62
1
  8
0
 10
-10.5813297217
 20
-11.4575620595
 30
0.0
 11
-5.88021071917
 21
-18.3130551257
 31
0.0
  0
LINE
 62
1
  8
0
 10
-3.96005857186
 20
-18.0889326
 30
0.0
 11
1.80455043365
 21
-15.8605064243
 31
0.0
  0
LINE
 62
1
  8
0
 10
1.80455043365
 20
-15.8605064243
 30
0.0
 11
-5.62782975451
 21
-12.1378719396
 31
0.0
  0
LINE
 62
0
  8
0
 10
-5.62782975451
 20
-12.1378719396
 30
0.0
 11
-3.96005857186
 21
-18.0889326
 31
0.0
  0
LINE
 62
0
  8
0
 10
1.80455043365
 20
-15.8605064243
 30
0.0
 11
-0.964163047087
 21
-10.335037271
 31
0.0
  0
LINE
 62
1
  8
0
 10
-0.964163047087
 20
-10.335037271
 30
0.0
 11
-5.62782975451
 21
-12.1378719396
 31
0.0
  0
LINE
 62
1
  8
0
 10
-5.62782975451
 20
-12.1378719396
 30
0.0
 11
1.80455043365
 21
-15.8605064243
 31
0.0
  0
LINE
 62
1
  8
0
 10
4.26248758685
 20
-25.6500810808
 30
0.0
 11
4.93791606001
 21
-31.793406521
 31
0.0
  0
LINE
 62
0
  8
0
 10
4.93791606001
 20
-31.793406521
 30
0.0
 11
10.4422318158
 21
-25.5643783014
 31
0.0
  0
LINE
 62
0
  8
0
 10
10.4422318158
 20
-25.5643783014
 30
0.0
 11
4.26248758685
 21
-25.6500810808
 31
0.0
  0
LINE
 62
1
  8
0
 10
7.34138222363
 20
-9.99415266194
 30
0.0
 11
2.24374873423
 21
-6.4997686214
 31
0.0
  0
LINE
 62
1
  8
0
 10
2.24374873423
 20
-6.4997686214
 30
0.0
 11
-0.964163044193
 21
-10.3350372525
 31
0.0
  0
LINE
 62
0
  8
0
 10
-0.964163044193
 20
-10.3350372525
 30
0.0
 11
7.34138222363
 21
-9.99415266194
 31
0.0
  0
LINE
 62
1
  8
0
 10
7.34138223491
 20
-9.99415264549
 30
0.0
 11
10.3330178215
 21
-4.5861318634
 31
0.0
  0
LINE
 62
1
  8
0
 10
10.3330178215
 20
-4.5861318634
 30
0.0
 11
2.24374872295
 21
-6.49976863784
 31
0.0
  0
LINE
 62
1
  8
0
 10
2.24374872295
 20
-6.49976863784
 30
0.0
 11
7.34138223491
 21
-9.99415264549
 31
0.0
  0
LINE
 62
0
  8
0
 10
10.3330178215
 20
-4.5861318634
 30
0.0
 11
4.66403440319
 21
-2.12458778189
 31
0.0
  0
LINE
 62
0
  8
0
 10
4.66403440319
 20
-2.12458778189
 30
0.0
 11
2.24374872295
 21
-6.49976863784
 31
0.0
  0
LINE
 62
1
  8
0
 10
2.24374872295
 20
-6.49976863784
 30
0.0
 11
10.3330178215
 21
-4.5861318634
 31
0.0
  0
LINE
 62
1
  8
0
 10
15.4306492454
 20
-8.08051676822
 30
0.0
 11
18.6385628668
 21
-4.24524878616
 31
0.0
  0
LINE
 62
1
  8
0
 10
18.6385628668
 20
-4.24524878616
 30
0.0
 11
10.3330177926
 21
-4.58613186753
 31
0.0
  0
LINE
 62
1
  8
0
 10
10.3330177926
 20
-4.58613186753
 30
0.0
 11
15.4306492454
 21
-8.08051676822
 31
0.0
  0
LINE
 62
1
  8
0
 10
18.6385628668
 20
-4.24524878616
 30
0.0
 11
14.2982150604
 21
0.154520291261
 31
0.0
  0
LINE
 62
1
  8
0
 10
14.2982150604
 20
0.154520291261
 30
0.0
 11
10.3330177926
 21
-4.58613186753
 31
0.0
  0
LINE
 62
1
  8
0
 10
10.3330177926
 20
-4.58613186753
 30
0.0
 11
18.6385628668
 21
-4.24524878616
 31
0.0
  0
LINE
 62
1
  8
0
 10
18.6385628688
 20
-4.24524878416
 30
0.0
 11
22.5170954792
 21
-1.08978237791
 31
0.0
  0
LINE
 62
0
  8
0
 10
22.5170954792
 20
-1.08978237791
 30
0.0
 11
14.2982150583
 21
0.154520289265
 31
0.0
  0
LINE
 62
1
  8
0
 10
14.2982150583
 20
0.154520289265
 30
0.0
 11
18.6385628688
 21
-4.24524878416
 31
0.0
  0
LINE
 62
1
  8
0
 10
27.8556217929
 20
17.2876723326
 30
0.0
 11
25.0877342099
 21
11.7617894141
 31
0.0
  0
LINE
 62
0
  8
0
 10
25.0877342099
 20
11.7617894141
 30
0.0
 11
30.8526813608
 21
9.53422674718
 31
0.0
  0
LINE
 62
0
  8
0
 10
30.8526813608
 20
9.53422674718
 30
0.0
 11
27.8556217929
 21
17.2876723326
 31
0.0
  0
LINE
 62
0
  8
0
 10
27.8556217889
 20
17.2876723346
 30
0.0
 11
23.6193479872
 21
19.9436061209
 31
0.0
  0
LINE
 62
1
  8
0
 10
23.6193479872
 20
19.9436061209
 30
0.0
 11
25.0877342139
 21
11.7617894121
 31
0.0
  0
LINE
 62
1
  8
0
 10
25.0877342139
 20
11.7617894121
 30
0.0
 11
27.8556217889
 21
17.2876723346
 31
0.0
  0
LINE
 62
1
  8
0
 10
23.6193479872
 20
19.9436061209
 30
0.0
 11
19.8514118866
 21
15.0447040762
 31
0.0
  0
LINE
 62
0
  8
0
 10
19.8514118866
 20
15.0447040762
 30
0.0
 11
25.0877342139
 21
11.7617894121
 31
0.0
  0
LINE
 62
1
  8
0
 10
25.0877342139
 20
11.7617894121
 30
0.0
 11
23.6193479872
 21
19.9436061209
 31
0.0
  0
LINE
 62
1
  8
0
 10
23.6193479824
 20
19.9436061246
 30
0.0
 11
19.9652560197
 21
23.3564634874
 31
0.0
  0
LINE
 62
0
  8
0
 10
19.9652560197
 20
23.3564634874
 30
0.0
 11
19.8514118914
 21
15.0447040725
 31
0.0
  0
LINE
 62
1
  8
0
 10
19.8514118914
 20
15.0447040725
 30
0.0
 11
23.6193479824
 21
19.9436061246
 31
0.0
  0
LINE
 62
1
  8
0
 10
19.965256004
 20
23.3564635281
 30
0.0
 11
14.2966438323
 21
20.8940616392
 31
0.0
  0
LINE
 62
1
  8
0
 10
14.2966438323
 20
20.8940616392
 30
0.0
 11
17.2891019397
 21
15.4864886565
 31
0.0
  0
LINE
 62
0
  8
0
 10
17.2891019397
 20
15.4864886565
 30
0.0
 11
19.965256004
 21
23.3564635281
 31
0.0
  0
LINE
 62
1
  8
0
 10
19.9652560159
 20
23.3564635008
 30
0.0
 11
18.4201565275
 21
28.1117403452
 31
0.0
  0
LINE
 62
0
  8
0
 10
18.4201565275
 20
28.1117403452
 30
0.0
 11
14.2966438205
 21
20.8940616665
 31
0.0
  0
LINE
 62
1
  8
0
 10
14.2966438205
 20
20.8940616665
 30
0.0
 11
19.9652560159
 21
23.3564635008
 31
0.0
  0
LINE
 62
0
  8
0
 10
15.4278301661
 20
29.1292702258
 30
0.0
 11
10.3307282681
 21
25.6341129326
 31
0.0
  0
LINE
 62
1
  8
0
 10
10.3307282681
 20
25.6341129326
 30
0.0
 11
14.2966438306
 21
20.8940616656
 31
0.0
  0
LINE
 62
0
  8
0
 10
14.2966438306
 20
20.8940616656
 30
0.0
 11
15.4278301661
 21
29.1292702258
 31
0.0
  0
LINE
 62
1
  8
0
 10
-17.2479582352
 20
-23.9211369132
 30
0.0
 11
-12.2554619158
 21
-23.6473289566
 31
0.0
  0
LINE
 62
1
  8
0
 10
-12.2554619158
 20
-23.6473289566
 30
0.0
 11
-18.1741431033
 21
-17.8105924323
 31
0.0
  0
LINE
 62
0
  8
0
 10
-18.1741431033
 20
-17.8105924323
 30
0.0
 11
-17.2479582352
 21
-23.9211369132
 31
0.0
  0
LINE
 62
1
  8
0
 10
-12.2554619158
 20
-23.6473289566
 30
0.0
 11
-12.0030795022
 21
-17.4721455478
 31
0.0
  0
LINE
 62
0
  8
0
 10
-12.0030795022
 20
-17.4721455478
 30
0.0
 11
-18.1741431033
 21
-17.8105924323
 31
0.0
  0
LINE
 62
1
  8
0
 10
-18.1741431033
 20
-17.8105924323
 30
0.0
 11
-12.2554619158
 21
-23.6473289566
 31
0.0
  0
LINE
 62
1
  8
0
 10
-12.255461913
 20
-23.6473289567
 30
0.0
 11
-7.30196183547
 21
-24.3276380287
 31
0.0
  0
LINE
 62
1
  8
0
 10
-7.30196183547
 20
-24.3276380287
 30
0.0
 11
-12.003079505
 21
-17.4721455477
 31
0.0
  0
LINE
 62
1
  8
0
 10
-12.003079505
 20
-17.4721455477
 30
0.0
 11
-12.255461913
 21
-23.6473289567
 31
0.0
  0
LINE
 62
0
  8
0
 10
-7.30196183547
 20
-24.3276380287
 30
0.0
 11
-5.88021071953
 21
-18.3130551282
 31
0.0
  0
LINE
 62
1
  8
0
 10
-5.88021071953
 20
-18.3130551282
 30
0.0
 11
-12.003079505
 21
-17.4721455477
 31
0.0
  0
LINE
 62
1
  8
0
 10
-12.003079505
 20
-17.4721455477
 30
0.0
 11
-7.30196183547
 21
-24.3276380287
 31
0.0
  0
LINE
 62
0
  8
0
 10
-1.19134509112
 20
-23.6144017532
 30
0.0
 11
3.4723216163
 21
-21.8115670847
 31
0.0
  0
LINE
 62
1
  8
0
 10
3.4723216163
 20
-21.8115670847
 30
0.0
 11
-3.96005857186
 21
-18.0889326
 31
0.0
  0
LINE
 62
0
  8
0
 10
-3.96005857186
 20
-18.0889326
 30
0.0
 11
-1.19134509112
 21
-23.6144017532
 31
0.0
  0
LINE
 62
1
  8
0
 10
3.4723216163
 20
-21.8115670847
 30
0.0
 11
1.80455043365
 21
-15.8605064243
 31
0.0
  0
LINE
 62
1
  8
0
 10
1.80455043365
 20
-15.8605064243
 30
0.0
 11
-3.96005857186
 21
-18.0889326
 31
0.0
  0
LINE
 62
1
  8
0
 10
-3.96005857186
 20
-18.0889326
 30
0.0
 11
3.4723216163
 21
-21.8115670847
 31
0.0
  0
LINE
 62
0
  8
0
 10
3.4723216221
 20
-21.811567083
 30
0.0
 11
8.39367220504
 21
-20.9282257612
 31
0.0
  0
LINE
 62
0
  8
0
 10
8.39367220504
 20
-20.9282257612
 30
0.0
 11
1.80455042784
 21
-15.8605064259
 31
0.0
  0
LINE
 62
1
  8
0
 10
1.80455042784
 20
-15.8605064259
 30
0.0
 11
3.4723216221
 21
-21.811567083
 31
0.0
  0
LINE
 62
1
  8
0
 10
-1.24182842537
 20
-31.8791107159
 30
0.0
 11
4.93791605205
 21
-31.7934065219
 31
0.0
  0
LINE
 62
1
  8
0
 10
4.93791605205
 20
-31.7934065219
 30
0.0
 11
4.26248759481
 21
-25.6500810799
 31
0.0
  0
LINE
 62
0
  8
0
 10
4.26248759481
 20
-25.6500810799
 30
0.0
 11
-1.24182842537
 21
-31.8791107159
 31
0.0
  0
LINE
 62
1
  8
0
 10
-1.24182842579
 20
-31.8791106861
 30
0.0
 11
-1.65021809717
 21
-36.8624035907
 31
0.0
  0
LINE
 62
0
  8
0
 10
-1.65021809717
 20
-36.8624035907
 30
0.0
 11
4.93791605247
 21
-31.7934065517
 31
0.0
  0
LINE
 62
1
  8
0
 10
4.93791605247
 20
-31.7934065517
 30
0.0
 11
-1.24182842579
 21
-31.8791106861
 31
0.0
  0
LINE
 62
1
  8
0
 10
15.4306492354
 20
-8.08051678281
 30
0.0
 11
10.3330178026
 21
-4.58613185293
 31
0.0
  0
LINE
 62
1
  8
0
 10
10.3330178026
 20
-4.58613185293
 30
0.0
 11
7.34138225383
 21
-9.99415265596
 31
0.0
  0
LINE
 62
0
  8
0
 10
7.34138225383
 20
-9.99415265596
 30
0.0
 11
15.4306492354
 21
-8.08051678281
 31
0.0
  0
LINE
 62
0
  8
0
 10
21.0120721238
 20
-10.7346399594
 30
0.0
 11
22.2373866093
 21
-9.26969335012
 31
0.0
  0
LINE
 62
1
  8
0
 10
22.2373866093
 20
-9.26969335012
 30
0.0
 11
15.4306492566
 21
-8.08051677754
 31
0.0
  0
LINE
 62
0
  8
0
 10
15.4306492566
 20
-8.08051677754
 30
0.0
 11
21.0120721238
 21
-10.7346399594
 31
0.0
  0
LINE
 62
1
  8
0
 10
22.2373866093
 20
-9.26969335012
 30
0.0
 11
18.6385628556
 21
-4.24524877684
 31
0.0
  0
LINE
 62
1
  8
0
 10
18.6385628556
 20
-4.24524877684
 30
0.0
 11
15.4306492566
 21
-8.08051677754
 31
0.0
  0
LINE
 62
1
  8
0
 10
15.4306492566
 20
-8.08051677754
 30
0.0
 11
22.2373866093
 21
-9.26969335012
 31
0.0
  0
LINE
 62
0
  8
0
 10
22.2373866056
 20
-9.26969335281
 30
0.0
 11
24.0187477444
 21
-8.58106886864
 31
0.0
  0
LINE
 62
0
  8
0
 10
24.0187477444
 20
-8.58106886864
 30
0.0
 11
18.6385628594
 21
-4.24524877415
 31
0.0
  0
LINE
 62
1
  8
0
 10
18.6385628594
 20
-4.24524877415
 30
0.0
 11
22.2373866056
 21
-9.26969335281
 31
0.0
  0
LINE
 62
1
  8
0
 10
25.0950793814
 20
-6.70677674638
 30
0.0
 11
22.5170954741
 21
-1.08978237159
 31
0.0
  0
LINE
 62
1
  8
0
 10
22.5170954741
 20
-1.08978237159
 30
0.0
 11
18.6385628739
 21
-4.24524879049
 31
0.0
  0
LINE
 62
0
  8
0
 10
18.6385628739
 20
-4.24524879049
 30
0.0
 11
25.0950793814
 21
-6.70677674638
 31
0.0
  0
LINE
 62
0
  8
0
 10
25.0950794129
 20
-6.7067767319
 30
0.0
 11
26.9748684125
 21
-6.36936919298
 31
0.0
  0
LINE
 62
0
  8
0
 10
26.9748684125
 20
-6.36936919298
 30
0.0
 11
22.5170954425
 21
-1.08978238607
 31
0.0
  0
LINE
 62
1
  8
0
 10
22.5170954425
 20
-1.08978238607
 30
0.0
 11
25.0950794129
 21
-6.7067767319
 31
0.0
  0
LINE
 62
1
  8
0
 10
26.5747382744
 20
25.3715242236
 30
0.0
 11
23.6193479736
 21
19.9436061142
 31
0.0
  0
LINE
 62
0
  8
0
 10
23.6193479736
 20
19.9436061142
 30
0.0
 11
28.4689231242
 21
18.7263876216
 31
0.0
  0
LINE
 62
0
  8
0
 10
28.4689231242
 20
18.7263876216
 30
0.0
 11
26.5747382744
 21
25.3715242236
 31
0.0
  0
LINE
 62
1
  8
0
 10
26.574738275
 20
25.3715242232
 30
0.0
 11
25.1789976367
 21
26.6751189676
 31
0.0
  0
LINE
 62
1
  8
0
 10
25.1789976367
 20
26.6751189676
 30
0.0
 11
23.619347973
 21
19.9436061145
 31
0.0
  0
LINE
 62
1
  8
0
 10
23.619347973
 20
19.9436061145
 30
0.0
 11
26.574738275
 21
25.3715242232
 31
0.0
  0
LINE
 62
1
  8
0
 10
25.1789976367
 20
26.6751189676
 30
0.0
 11
19.9652560291
 21
23.3564634975
 31
0.0
  0
LINE
 62
1
  8
0
 10
19.9652560291
 20
23.3564634975
 30
0.0
 11
23.619347973
 21
19.9436061145
 31
0.0
  0
LINE
 62
1
  8
0
 10
23.619347973
 20
19.9436061145
 30
0.0
 11
25.1789976367
 21
26.6751189676
 31
0.0
  0
LINE
 62
1
  8
0
 10
25.1789976407
 20
26.6751189613
 30
0.0
 11
24.5888233716
 21
28.4914775406
 31
0.0
  0
LINE
 62
1
  8
0
 10
24.5888233716
 20
28.4914775406
 30
0.0
 11
19.9652560251
 21
23.3564635038
 31
0.0
  0
LINE
 62
1
  8
0
 10
19.9652560251
 20
23.3564635038
 30
0.0
 11
25.1789976407
 21
26.6751189613
 31
0.0
  0
LINE
 62
1
  8
0
 10
24.5888233716
 20
28.4914775406
 30
0.0
 11
18.4201565183
 21
28.1117403422
 31
0.0
  0
LINE
 62
1
  8
0
 10
18.4201565183
 20
28.1117403422
 30
0.0
 11
19.9652560251
 21
23.3564635038
 31
0.0
  0
LINE
 62
1
  8
0
 10
19.9652560251
 20
23.3564635038
 30
0.0
 11
24.5888233716
 21
28.4914775406
 31
0.0
  0
LINE
 62
0
  8
0
 10
24.5888233722
 20
28.4914775319
 30
0.0
 11
24.9517592469
 21
30.3665086537
 31
0.0
  0
LINE
 62
0
  8
0
 10
24.9517592469
 20
30.3665086537
 30
0.0
 11
18.4201565178
 21
28.1117403509
 31
0.0
  0
LINE
 62
1
  8
0
 10
18.4201565178
 20
28.1117403509
 30
0.0
 11
24.5888233722
 21
28.4914775319
 31
0.0
  0
LINE
 62
1
  8
0
 10
-13.4705206137
 20
-29.7070490712
 30
0.0
 11
-12.2554619166
 21
-23.6473289421
 31
0.0
  0
LINE
 62
1
  8
0
 10
-12.2554619166
 20
-23.6473289421
 30
0.0
 11
-17.2479582344
 21
-23.9211369277
 31
0.0
  0
LINE
 62
0
  8
0
 10
-17.2479582344
 20
-23.9211369277
 30
0.0
 11
-13.4705206137
 21
-29.7070490712
 31
0.0
  0
LINE
 62
0
  8
0
 10
-13.4705206183
 20
-29.7070490703
 30
0.0
 11
-11.7512934012
 21
-30.5387394953
 31
0.0
  0
LINE
 62
0
  8
0
 10
-11.7512934012
 20
-30.5387394953
 30
0.0
 11
-12.2554619121
 21
-23.647328943
 31
0.0
  0
LINE
 62
1
  8
0
 10
-12.2554619121
 20
-23.647328943
 30
0.0
 11
-13.4705206183
 21
-29.7070490703
 31
0.0
  0
LINE
 62
1
  8
0
 10
-9.64688836962
 20
-30.045849837
 30
0.0
 11
-7.30196183436
 21
-24.3276380206
 31
0.0
  0
LINE
 62
1
  8
0
 10
-7.30196183436
 20
-24.3276380206
 30
0.0
 11
-12.2554619141
 21
-23.6473289648
 31
0.0
  0
LINE
 62
0
  8
0
 10
-12.2554619141
 20
-23.6473289648
 30
0.0
 11
-9.64688836962
 21
-30.045849837
 31
0.0
  0
LINE
 62
1
  8
0
 10
-9.6468883375
 20
-30.0458498501
 30
0.0
 11
-8.11713011135
 21
-31.1892178136
 31
0.0
  0
LINE
 62
1
  8
0
 10
-8.11713011135
 20
-31.1892178136
 30
0.0
 11
-7.30196186648
 21
-24.3276380074
 31
0.0
  0
LINE
 62
1
  8
0
 10
-7.30196186648
 20
-24.3276380074
 30
0.0
 11
-9.6468883375
 21
-30.0458498501
 31
0.0
  0
LINE
 62
1
  8
0
 10
-8.11713011135
 20
-31.1892178136
 30
0.0
 11
-3.29700266374
 21
-27.3210143259
 31
0.0
  0
LINE
 62
0
  8
0
 10
-3.29700266374
 20
-27.3210143259
 30
0.0
 11
-7.30196186648
 21
-24.3276380074
 31
0.0
  0
LINE
 62
1
  8
0
 10
-7.30196186648
 20
-24.3276380074
 30
0.0
 11
-8.11713011135
 21
-31.1892178136
 31
0.0
  0
LINE
 62
1
  8
0
 10
-8.11713011178
 20
-31.189217813
 30
0.0
 11
-7.33212152907
 21
-32.9302556392
 31
0.0
  0
LINE
 62
1
  8
0
 10
-7.33212152907
 20
-32.9302556392
 30
0.0
 11
-3.29700266331
 21
-27.3210143265
 31
0.0
  0
LINE
 62
1
  8
0
 10
-3.29700266331
 20
-27.3210143265
 30
0.0
 11
-8.11713011178
 21
-31.189217813
 31
0.0
  0
LINE
 62
1
  8
0
 10
-7.33212152907
 20
-32.9302556392
 30
0.0
 11
-1.24182843672
 21
-31.879110678
 31
0.0
  0
LINE
 62
0
  8
0
 10
-1.24182843672
 20
-31.879110678
 30
0.0
 11
-3.29700266331
 21
-27.3210143265
 31
0.0
  0
LINE
 62
1
  8
0
 10
-3.29700266331
 20
-27.3210143265
 30
0.0
 11
-7.33212152907
 21
-32.9302556392
 31
0.0
  0
LINE
 62
0
  8
0
 10
-7.33212153034
 20
-32.9302556318
 30
0.0
 11
-7.48811534577
 21
-34.8337077815
 31
0.0
  0
LINE
 62
1
  8
0
 10
-7.48811534577
 20
-34.8337077815
 30
0.0
 11
-1.24182843545
 21
-31.8791106853
 31
0.0
  0
LINE
 62
1
  8
0
 10
-1.24182843545
 20
-31.8791106853
 30
0.0
 11
-7.33212153034
 21
-32.9302556318
 31
0.0
  0
LINE
 62
0
  8
0
 10
-7.48811534577
 20
-34.8337077815
 30
0.0
 11
-1.6502180875
 21
-36.8624035915
 31
0.0
  0
LINE
 62
1
  8
0
 10
-1.6502180875
 20
-36.8624035915
 30
0.0
 11
-1.24182843545
 21
-31.8791106853
 31
0.0
  0
LINE
 62
1
  8
0
 10
-1.24182843545
 20
-31.8791106853
 30
0.0
 11
-7.48811534577
 21
-34.8337077815
 31
0.0
  0
LINE
 62
1
  8
0
 10
4.71219544787
 20
7.89754805234
 30
0.0
 11
1.18883486154
 21
7.01290986043
 31
0.0
  0
LINE
 62
0
  8
0
 10
1.18883486154
 20
7.01290986043
 30
0.0
 11
3.09423304103
 21
6.88282552538
 31
0.0
  0
LINE
 62
1
  8
0
 10
3.09423304103
 20
6.88282552538
 30
0.0
 11
4.71219544787
 21
7.89754805234
 31
0.0
  0
LINE
 62
0
  8
0
 10
5.424713291
 20
9.66948752935
 30
0.0
 11
1.18883486154
 21
7.01290986043
 31
0.0
  0
LINE
 62
1
  8
0
 10
1.18883486154
 20
7.01290986043
 30
0.0
 11
4.71219544787
 21
7.89754805234
 31
0.0
  0
LINE
 62
0
  8
0
 10
4.71219544787
 20
7.89754805234
 30
0.0
 11
5.424713291
 21
9.66948752935
 31
0.0
  0
LINE
 62
1
  8
0
 10
-7.43666870183
 20
0.0838466665027
 30
0.0
 11
-4.66088821441
 21
-5.09730008684
 31
0.0
  0
LINE
 62
0
  8
0
 10
-4.66088821441
 20
-5.09730008684
 30
0.0
 11
-3.8290711698
 21
-3.3781341288
 31
0.0
  0
LINE
 62
0
  8
0
 10
-3.8290711698
 20
-3.3781341288
 30
0.0
 11
-7.43666870183
 21
0.0838466665027
 31
0.0
  0
LINE
 62
1
  8
0
 10
-9.12012309739
 20
-0.818057889597
 30
0.0
 11
-4.66088821441
 21
-5.09730008684
 31
0.0
  0
LINE
 62
1
  8
0
 10
-4.66088821441
 20
-5.09730008684
 30
0.0
 11
-7.43666870183
 21
0.0838466665027
 31
0.0
  0
LINE
 62
0
  8
0
 10
-7.43666870183
 20
0.0838466665027
 30
0.0
 11
-9.12012309739
 21
-0.818057889597
 31
0.0
  0
LINE
 62
1
  8
0
 10
-9.12012309739
 20
-0.818057889597
 30
0.0
 11
-6.34434260998
 21
-5.99920464294
 31
0.0
  0
LINE
 62
0
  8
0
 10
-6.34434260998
 20
-5.99920464294
 30
0.0
 11
-4.66088821441
 21
-5.09730008684
 31
0.0
  0
LINE
 62
1
  8
0
 10
-4.66088821441
 20
-5.09730008684
 30
0.0
 11
-9.12012309739
 21
-0.818057889597
 31
0.0
  0
LINE
 62
1
  8
0
 10
-9.95194014201
 20
-2.53722384763
 30
0.0
 11
-6.34434260998
 21
-5.99920464294
 31
0.0
  0
LINE
 62
1
  8
0
 10
-6.34434260998
 20
-5.99920464294
 30
0.0
 11
-9.12012309739
 21
-0.818057889597
 31
0.0
  0
LINE
 62
0
  8
0
 10
-9.12012309739
 20
-0.818057889597
 30
0.0
 11
-9.95194014201
 21
-2.53722384763
 31
0.0
  0
LINE
 62
1
  8
0
 10
-9.95194014201
 20
-2.53722384763
 30
0.0
 11
-8.2364121853
 21
-5.73935101275
 31
0.0
  0
LINE
 62
1
  8
0
 10
-8.2364121853
 20
-5.73935101275
 30
0.0
 11
-6.34434260998
 21
-5.99920464294
 31
0.0
  0
LINE
 62
1
  8
0
 10
-6.34434260998
 20
-5.99920464294
 30
0.0
 11
-9.95194014201
 21
-2.53722384763
 31
0.0
  0
LINE
 62
1
  8
0
 10
-8.2364121853
 20
-5.73935101275
 30
0.0
 11
-9.95194014201
 21
-2.53722384763
 31
0.0
  0
LINE
 62
0
  8
0
 10
-9.95194014201
 20
-2.53722384763
 30
0.0
 11
-9.61439217076
 21
-4.41699125977
 31
0.0
  0
LINE
 62
0
  8
0
 10
-9.61439217076
 20
-4.41699125977
 30
0.0
 11
-8.2364121853
 21
-5.73935101275
 31
0.0
  0
LINE
 62
1
  8
0
 10
-7.33212152769
 20
-32.9302556385
 30
0.0
 11
-9.13364044635
 21
-36.0848053905
 31
0.0
  0
LINE
 62
0
  8
0
 10
-9.13364044635
 20
-36.0848053905
 30
0.0
 11
-7.72039438309
 21
-34.8002043936
 31
0.0
  0
LINE
 62
0
  8
0
 10
-7.72039438309
 20
-34.8002043936
 30
0.0
 11
-7.33212152769
 21
-32.9302556385
 31
0.0
  0
LINE
 62
1
  8
0
 10
-8.11713011315
 20
-31.1892178136
 30
0.0
 11
-9.13364044635
 21
-36.0848053905
 31
0.0
  0
LINE
 62
1
  8
0
 10
-9.13364044635
 20
-36.0848053905
 30
0.0
 11
-7.33212152769
 21
-32.9302556385
 31
0.0
  0
LINE
 62
1
  8
0
 10
-7.33212152769
 20
-32.9302556385
 30
0.0
 11
-8.11713011315
 21
-31.1892178136
 31
0.0
  0
LINE
 62
0
  8
0
 10
-8.11713011315
 20
-31.1892178136
 30
0.0
 11
-11.0320467967
 21
-36.2933827524
 31
0.0
  0
LINE
 62
0
  8
0
 10
-11.0320467967
 20
-36.2933827524
 30
0.0
 11
-9.13364044635
 21
-36.0848053905
 31
0.0
  0
LINE
 62
1
  8
0
 10
-9.13364044635
 20
-36.0848053905
 30
0.0
 11
-8.11713011315
 21
-31.1892178136
 31
0.0
  0
LINE
 62
1
  8
0
 10
-9.6468883375
 20
-30.0458498501
 30
0.0
 11
-11.6360595384
 21
-35.8973357689
 31
0.0
  0
LINE
 62
0
  8
0
 10
-11.6360595384
 20
-35.8973357689
 30
0.0
 11
-8.11713011135
 21
-31.1892178136
 31
0.0
  0
LINE
 62
1
  8
0
 10
-8.11713011135
 20
-31.1892178136
 30
0.0
 11
-9.6468883375
 21
-30.0458498501
 31
0.0
  0
LINE
 62
1
  8
0
 10
-9.6468883375
 20
-30.0458498501
 30
0.0
 11
-13.1658177645
 21
-34.7539678055
 31
0.0
  0
LINE
 62
0
  8
0
 10
-13.1658177645
 20
-34.7539678055
 30
0.0
 11
-11.6360595384
 21
-35.8973357689
 31
0.0
  0
LINE
 62
1
  8
0
 10
-11.6360595384
 20
-35.8973357689
 30
0.0
 11
-9.6468883375
 21
-30.0458498501
 31
0.0
  0
LINE
 62
0
  8
0
 10
-11.5565437392
 20
-30.0200151133
 30
0.0
 11
-13.1658177645
 21
-34.7539678055
 31
0.0
  0
LINE
 62
1
  8
0
 10
-13.1658177645
 20
-34.7539678055
 30
0.0
 11
-9.6468883375
 21
-30.0458498501
 31
0.0
  0
LINE
 62
0
  8
0
 10
-9.6468883375
 20
-30.0458498501
 30
0.0
 11
-11.5565437392
 21
-30.0200151133
 31
0.0
  0
LINE
 62
0
  8
0
 10
25.624538978
 20
30.2804133323
 30
0.0
 11
25.1789976357
 21
26.6751189665
 31
0.0
  0
LINE
 62
1
  8
0
 10
25.1789976357
 20
26.6751189665
 30
0.0
 11
26.5747382761
 21
25.3715242243
 31
0.0
  0
LINE
 62
0
  8
0
 10
26.5747382761
 20
25.3715242243
 30
0.0
 11
25.624538978
 21
30.2804133323
 31
0.0
  0
LINE
 62
0
  8
0
 10
25.1789976361
 20
26.6751189598
 30
0.0
 11
25.1789889296
 21
30.3078389534
 31
0.0
  0
LINE
 62
0
  8
0
 10
25.1789889296
 20
30.3078389534
 30
0.0
 11
24.5888233763
 21
28.4914775421
 31
0.0
  0
LINE
 62
1
  8
0
 10
24.5888233763
 20
28.4914775421
 30
0.0
 11
25.1789976361
 21
26.6751189598
 31
0.0
  0
TEXT
  8
0
 10
0.994812774721
 20
0.323226462297
 30
0.0
 40
1.0
  1
0
  0
TEXT
  8
0
 10
0.451780574722
 20
-0.406804579818
 30
0.0
 40
1.0
  1
1
  0
TEXT
  8
0
 10
6.84943394391
 20
6.59144566361
 30
0.0
 40
1.0
  1
1
  0
TEXT
  8
0
 10
6.48698339096
 20
8.00704953697
 30
0.0
 40
1.0
  1
2
  0
TEXT
  8
0
 10
10.1206788724
 20
10.5239745344
 30
0.0
 40
1.0
  1
3
  0
TEXT
  8
0
 10
7.136588379
 20
10.5237484678
 30
0.0
 40
1.0
  1
4
  0
TEXT
  8
0
 10
7.98700190404
 20
14.1850429789
 30
0.0
 40
1.0
  1
5
  0
TEXT
  8
0
 10
6.48660207783
 20
13.0403489341
 30
0.0
 40
1.0
  1
6
  0
TEXT
  8
0
 10
-16.4266009061
 20
-6.19900876186
 30
0.0
 40
1.0
  1
5
  0
TEXT
  8
0
 10
-15.9488827663
 20
-6.47192216022
 30
0.0
 40
1.0
  1
7
  0
TEXT
  8
0
 10
-15.2616107469
 20
-4.71431280736
 30
0.0
 40
1.0
  1
8
  0
TEXT
  8
0
 10
-11.6858033502
 20
-8.75938941634
 30
0.0
 40
1.0
  1
9
  0
TEXT
  8
0
 10
-11.2374008754
 20
-7.69995737461
 30
0.0
 40
1.0
  1
7
  0
TEXT
  8
0
 10
-9.89930476002
 20
-6.36915601753
 30
0.0
 40
1.0
  1
10
  0
TEXT
  8
0
 10
-4.91281116356
 20
-7.05399388789
 30
0.0
 40
1.0
  1
11
  0
TEXT
  8
0
 10
-2.7997429038
 20
-5.54048715574
 30
0.0
 40
1.0
  1
12
  0
TEXT
  8
0
 10
1.24618040571
 20
-3.76026958016
 30
0.0
 40
1.0
  1
13
  0
TEXT
  8
0
 10
-1.68353031109
 20
-3.19318225929
 30
0.0
 40
1.0
  1
14
  0
TEXT
  8
0
 10
9.23069192803
 20
-1.33282268653
 30
0.0
 40
1.0
  1
15
  0
TEXT
  8
0
 10
8.7472091151
 20
0.76889896055
 30
0.0
 40
1.0
  1
0
  0
TEXT
  8
0
 10
14.4814797041
 20
3.58461896365
 30
0.0
 40
1.0
  1
16
  0
TEXT
  8
0
 10
13.8579321907
 20
5.41742540387
 30
0.0
 40
1.0
  1
17
  0
TEXT
  8
0
 10
16.8174402301
 20
12.0840358346
 30
0.0
 40
1.0
  1
18
  0
TEXT
  8
0
 10
15.8570817666
 20
10.4030525975
 30
0.0
 40
1.0
  1
17
  0
TEXT
  8
0
 10
13.8196212477
 20
11.1099775655
 30
0.0
 40
1.0
  1
3
  0
TEXT
  8
0
 10
11.2511815331
 20
21.3123846023
 30
0.0
 40
1.0
  1
19
  0
TEXT
  8
0
 10
-17.2912100585
 20
-11.0999312695
 30
0.0
 40
1.0
  1
19
  0
TEXT
  8
0
 10
-14.4458613944
 20
-15.0572004827
 30
0.0
 40
1.0
  1
20
  0
TEXT
  8
0
 10
-13.4311282034
 20
-12.0729044144
 30
0.0
 40
1.0
  1
9
  0
TEXT
  8
0
 10
-7.25276902365
 20
-15.1642093647
 30
0.0
 40
1.0
  1
21
  0
TEXT
  8
0
 10
-3.34959107111
 20
-14.7086256086
 30
0.0
 40
1.0
  1
21
  0
TEXT
  8
0
 10
-0.920866146639
 20
-13.7697528784
 30
0.0
 40
1.0
  1
22
  0
TEXT
  8
0
 10
6.5660438804
 20
-27.6856369407
 30
0.0
 40
1.0
  1
23
  0
TEXT
  8
0
 10
7.37316020755
 20
-27.1070854638
 30
0.0
 40
1.0
  1
22
  0
TEXT
  8
0
 10
3.12709686053
 20
-8.6658567599
 30
0.0
 40
1.0
  1
23
  0
TEXT
  8
0
 10
6.90109658835
 20
-4.73125152036
 30
0.0
 40
1.0
  1
15
  0
TEXT
  8
0
 10
4.76644607459
 20
-5.03826405485
 30
0.0
 40
1.0
  1
13
  0
TEXT
  8
0
 10
18.1831204699
 20
-1.95073054338
 30
0.0
 40
1.0
  1
24
  0
TEXT
  8
0
 10
28.5108482478
 20
12.0471892306
 30
0.0
 40
1.0
  1
16
  0
TEXT
  8
0
 10
27.9550399369
 20
12.8701292193
 30
0.0
 40
1.0
  1
24
  0
TEXT
  8
0
 10
24.9407047521
 20
17.3447570873
 30
0.0
 40
1.0
  1
25
  0
TEXT
  8
0
 10
23.2663531861
 20
14.6741288846
 30
0.0
 40
1.0
  1
18
  0
TEXT
  8
0
 10
21.4081932745
 20
19.1800405751
 30
0.0
 40
1.0
  1
26
  0
TEXT
  8
0
 10
17.2070397976
 20
19.9043888442
 30
0.0
 40
1.0
  1
26
  0
TEXT
  8
0
 10
17.6608329061
 20
23.7588116442
 30
0.0
 40
1.0
  1
27
  0
TEXT
  8
0
 10
13.727572032
 20
26.1445984945
 30
0.0
 40
1.0
  1
28
  0
TEXT
  8
0
 10
13.3761906305
 20
25.2157889297
 30
0.0
 40
1.0
  1
27
  0
TEXT
  8
0
 10
-16.22798981
 20
-20.6410747983
 30
0.0
 40
1.0
  1
28
  0
TEXT
  8
0
 10
-15.0064684874
 20
-19.1391181539
 30
0.0
 40
1.0
  1
20
  0
TEXT
  8
0
 10
-8.05085654459
 20
-20.9752802554
 30
0.0
 40
1.0
  1
29
  0
TEXT
  8
0
 10
0.599637862023
 20
-21.3138844067
 30
0.0
 40
1.0
  1
30
  0
TEXT
  8
0
 10
-1.23464199157
 20
-20.1796861458
 30
0.0
 40
1.0
  1
29
  0
TEXT
  8
0
 10
5.66799442931
 20
-19.8934907586
 30
0.0
 40
1.0
  1
31
  0
TEXT
  8
0
 10
4.18463994021
 20
-19.5833749674
 30
0.0
 40
1.0
  1
32
  0
TEXT
  8
0
 10
2.63435973062
 20
-29.7578512684
 30
0.0
 40
1.0
  1
32
  0
TEXT
  8
0
 10
0.729146625744
 20
-33.1390738774
 30
0.0
 40
1.0
  1
33
  0
TEXT
  8
0
 10
11.0406994581
 20
-7.57762356225
 30
0.0
 40
1.0
  1
33
  0
TEXT
  8
0
 10
20.4741474618
 20
-9.03979392005
 30
0.0
 40
1.0
  1
34
  0
TEXT
  8
0
 10
18.8655294967
 20
-8.05293946873
 30
0.0
 40
1.0
  1
35
  0
TEXT
  8
0
 10
22.5872145089
 20
-7.52628197428
 30
0.0
 40
1.0
  1
36
  0
TEXT
  8
0
 10
20.3874263762
 20
-7.58110064761
 30
0.0
 40
1.0
  1
37
  0
TEXT
  8
0
 10
22.4011747823
 20
-4.07441861472
 30
0.0
 40
1.0
  1
37
  0
TEXT
  8
0
 10
25.7699705798
 20
-5.06166745122
 30
0.0
 40
1.0
  1
38
  0
TEXT
  8
0
 10
23.5998787603
 20
-4.69727798033
 30
0.0
 40
1.0
  1
39
  0
TEXT
  8
0
 10
26.4093010967
 20
20.7898694131
 30
0.0
 40
1.0
  1
25
  0
TEXT
  8
0
 10
26.0792912763
 20
21.6377625215
 30
0.0
 40
1.0
  1
39
  0
TEXT
  8
0
 10
23.2976254351
 20
29.7140461093
 30
0.0
 40
1.0
  1
40
  0
TEXT
  8
0
 10
22.1754272613
 20
27.8212317958
 30
0.0
 40
1.0
  1
41
  0
TEXT
  8
0
 10
-14.103222644
 20
-25.9940796775
 30
0.0
 40
1.0
  1
41
  0
TEXT
  8
0
 10
-11.9576889002
 20
-28.7725957598
 30
0.0
 40
1.0
  1
42
  0
TEXT
  8
0
 10
-13.4993795223
 20
-27.2024801776
 30
0.0
 40
1.0
  1
43
  0
TEXT
  8
0
 10
-9.56217080234
 20
-26.2803147812
 30
0.0
 40
1.0
  1
43
  0
TEXT
  8
0
 10
-6.19749516067
 20
-27.0258139275
 30
0.0
 40
1.0
  1
30
  0
TEXT
  8
0
 10
-3.63684490805
 20
-30.2166149743
 30
0.0
 40
1.0
  1
31
  0
TEXT
  8
0
 10
-5.91513043918
 20
-34.0045006163
 30
0.0
 40
1.0
  1
44
  0
TEXT
  8
0
 10
-4.07679222266
 20
-34.4311691851
 30
0.0
 40
1.0
  1
35
  0
TEXT
  8
0
 10
2.243703328
 20
8.44438412063
 30
0.0
 40
1.0
  1
14
  0
TEXT
  8
0
 10
4.10374624557
 20
7.07043697003
 30
0.0
 40
1.0
  1
45
  0
TEXT
  8
0
 10
3.67675510186
 20
9.34313654379
 30
0.0
 40
1.0
  1
2
  0
TEXT
  8
0
 10
-5.59523010171
 20
-3.58439954999
 30
0.0
 40
1.0
  1
12
  0
TEXT
  8
0
 10
-6.67146270001
 20
-2.72942145435
 30
0.0
 40
1.0
  1
45
  0
TEXT
  8
0
 10
-7.57003083442
 20
-1.6893079162
 30
0.0
 40
1.0
  1
4
  0
TEXT
  8
0
 10
-6.21098047738
 20
-4.22605006024
 30
0.0
 40
1.0
  1
11
  0
TEXT
  8
0
 10
-8.1857812101
 20
-2.33095842644
 30
0.0
 40
1.0
  1
6
  0
TEXT
  8
0
 10
-8.30678035794
 20
-3.21199441906
 30
0.0
 40
1.0
  1
8
  0
TEXT
  8
0
 10
-7.88680923982
 20
-3.99589358004
 30
0.0
 40
1.0
  1
10
  0
TEXT
  8
0
 10
-9.43595429505
 20
-34.3325290493
 30
0.0
 40
1.0
  1
34
  0
TEXT
  8
0
 10
-8.99493209449
 20
-33.5602771129
 30
0.0
 40
1.0
  1
44
  0
TEXT
  8
0
 10
-8.2720315179
 20
-34.4851721979
 30
0.0
 40
1.0
  1
46
  0
TEXT
  8
0
 10
-10.2466624006
 20
-34.6980664367
 30
0.0
 40
1.0
  1
36
  0
TEXT
  8
0
 10
-11.0780825857
 20
-32.6452638957
 30
0.0
 40
1.0
  1
46
  0
TEXT
  8
0
 10
-11.5029257559
 20
-34.1241640264
 30
0.0
 40
1.0
  1
38
  0
TEXT
  8
0
 10
-10.9409969603
 20
-32.8697729816
 30
0.0
 40
1.0
  1
47
  0
TEXT
  8
0
 10
-10.6220069031
 20
-31.5327952357
 30
0.0
 40
1.0
  1
42
  0
TEXT
  8
0
 10
26.8904438883
 20
28.2937960073
 30
0.0
 40
1.0
  1
48
  0
TEXT
  8
0
 10
24.6269739852
 20
27.5409093936
 30
0.0
 40
1.0
  1
47
  0
TEXT
  8
0
 10
23.6789932829
 20
28.4914753616
 30
0.0
 40
1.0
  1
48
  0
TEXT
  8
0
 10
26.3104923226
 20
28.9361370503
 30
0.0
 40
1.0
  1
40
  0
ENDSEC
  0
EOF
