  0
SECTION
  2
HEADER
  9
$ACADVER
  1
AC1009
  9
$EXTMIN
 10
0.0
 20
0.0
 30
0.0
  9
$EXTMAX
 10
100.0
 20
100.0
 30
0.0
  9
$INSBASE
 10
0.0
 20
0.0
 30
0.0
  0
ENDSEC
  0
SECTION
  2
TABLES
  0
TABLE
  2
LTYPE
 70
19
  0
LTYPE
  2
PHANTOM
 70
0
  3
Phantom ______  __  __  ______  __  __  ______
 72
65
 73
6
 40
2.5
 49
1.25
 49
-0.25
 49
0.25
 49
-0.25
 49
0.25
 49
-0.25
  0
LTYPE
  2
DOT2
 70
0
  3
Dot (.5) . . . . . . . . . . . . . . . . . . . 
 72
65
 73
2
 40
0.1
 49
0.0
 49
-0.1
  0
LTYPE
  2
DIVIDE
 70
0
  3
Divide __ . . __ . . __ . . __ . . __ . . __
 72
65
 73
6
 40
1.6
 49
1.0
 49
-0.2
 49
0.0
 49
-0.2
 49
0.0
 49
-0.2
  0
LTYPE
  2
DIVIDEX2
 70
0
  3
Divide (2x) ____  . .  ____  . .  ____  . .  ____
 72
65
 73
6
 40
2.6
 49
2.0
 49
-0.2
 49
0.0
 49
-0.2
 49
0.0
 49
-0.2
  0
LTYPE
  2
CENTER
 70
0
  3
Center ____ _ ____ _ ____ _ ____ _ ____ _ ____
 72
65
 73
4
 40
2.0
 49
1.25
 49
-0.25
 49
0.25
 49
-0.25
  0
LTYPE
  2
DASHDOT
 70
0
  3
Dash dot __ . __ . __ . __ . __ . __ . __ . __
 72
65
 73
4
 40
1.4
 49
1.0
 49
-0.2
 49
0.0
 49
-0.2
  0
LTYPE
  2
CENTERX2
 70
0
  3
Center (2x) ________  __  ________  __  ________
 72
65
 73
4
 40
3.5
 49
2.5
 49
-0.25
 49
0.5
 49
-0.25
  0
LTYPE
  2
PHANTOMX2
 70
0
  3
Phantom (2x)____________    ____    ____    ____________
 72
65
 73
6
 40
4.25
 49
2.5
 49
-0.25
 49
0.5
 49
-0.25
 49
0.5
 49
-0.25
  0
LTYPE
  2
CONTINUOUS
 70
0
  3
Solid
 72
65
 73
0
 40
0.0
  0
LTYPE
  2
PHANTOM2
 70
0
  3
Phantom (.5x) ___ _ _ ___ _ _ ___ _ _ ___ _ _ ___
 72
65
 73
6
 40
1.25
 49
0.625
 49
-0.125
 49
0.125
 49
-0.125
 49
0.125
 49
-0.125
  0
LTYPE
  2
DASHED
 70
0
  3
Dashed __ __ __ __ __ __ __ __ __ __ __ __ __ _
 72
65
 73
2
 40
0.6
 49
0.5
 49
-0.1
  0
LTYPE
  2
DASHED2
 70
0
  3
Dashed (.5x) _ _ _ _ _ _ _ _ _ _ _ _ _ _
 72
65
 73
2
 40
0.3
 49
0.25
 49
-0.05
  0
LTYPE
  2
DASHDOT2
 70
0
  3
Dash dot (.5x) _ . _ . _ . _ . _ . _ . _ . _
 72
65
 73
4
 40
0.7
 49
0.5
 49
-0.1
 49
0.0
 49
-0.1
  0
LTYPE
  2
DOTX2
 70
0
  3
Dot (2x) .    .    .    .    .    .    .    . 
 72
65
 73
2
 40
0.4
 49
0.0
 49
-0.4
  0
LTYPE
  2
DIVIDE2
 70
0
  3
Divide(.5x) _ . _ . _ . _ . _ . _ . _ . _
 72
65
 73
6
 40
0.8
 49
0.5
 49
-0.1
 49
0.0
 49
-0.1
 49
0.0
 49
-0.1
  0
LTYPE
  2
CENTER2
 70
0
  3
Center (.5x) ____ _ ____ _ ____ _ ____ _ ____
 72
65
 73
4
 40
1.0
 49
0.625
 49
-0.125
 49
0.125
 49
-0.125
  0
LTYPE
  2
DASHDOTX2
 70
0
  3
Dash dot (2x) ____  .  ____  .  ____  .  ____
 72
65
 73
4
 40
2.4
 49
2.0
 49
-0.2
 49
0.0
 49
-0.2
  0
LTYPE
  2
DOT
 70
0
  3
Dot .  .  .  .  .  .  .  .  .  .  .  .  .  .  .  .
 72
65
 73
2
 40
0.2
 49
0.0
 49
-0.2
  0
LTYPE
  2
DASHEDX2
 70
0
  3
Dashed (2x) ____  ____  ____  ____  ____  ____
 72
65
 73
2
 40
1.2
 49
1.0
 49
-0.2
  0
ENDTAB
  0
TABLE
  2
LAYER
 70
5
  0
LAYER
  2
VIEWPORTS
 70
0
 62
7
  6
CONTINUOUS
  0
LAYER
  2
TABLEGRID
 70
0
 62
1
  6
CONTINUOUS
  0
LAYER
  2
TABLECONTENT
 70
0
 62
1
  6
CONTINUOUS
  0
LAYER
  2
DIMENSIONS
 70
0
 62
1
  6
CONTINUOUS
  0
LAYER
  2
TABLEBACKGROUND
 70
0
 62
1
  6
CONTINUOUS
  0
ENDTAB
  0
TABLE
  2
STYLE
 70
12
  0
STYLE
  2
TIMES
 70
0
 40
0.0
 41
1.0
 42
1.0
 50
0.0
 71
0
  3
times.ttf
  4

  0
STYLE
  2
ARIAL
 70
0
 40
0.0
 41
1.0
 42
1.0
 50
0.0
 71
0
  3
arial.ttf
  4

  0
STYLE
  2
TIMES_BOLD
 70
0
 40
0.0
 41
1.0
 42
1.0
 50
0.0
 71
0
  3
timesbd.ttf
  4

  0
STYLE
  2
ARIAL_BLACK
 70
0
 40
0.0
 41
1.0
 42
1.0
 50
0.0
 71
0
  3
ariblk.ttf
  4

  0
STYLE
  2
TIMES_ITALIC
 70
0
 40
0.0
 41
1.0
 42
1.0
 50
0.0
 71
0
  3
timesi.ttf
  4

  0
STYLE
  2
ISOCPEUR
 70
0
 40
0.0
 41
1.0
 42
1.0
 50
0.0
 71
0
  3
isocpeur.ttf
  4

  0
STYLE
  2
ARIAL_BOLD
 70
0
 40
0.0
 41
1.0
 42
1.0
 50
0.0
 71
0
  3
arialbd.ttf
  4

  0
STYLE
  2
ARIAL_ITALIC
 70
0
 40
0.0
 41
1.0
 42
1.0
 50
0.0
 71
0
  3
ariali.ttf
  4

  0
STYLE
  2
ARIAL_BOLD_ITALIC
 70
0
 40
0.0
 41
1.0
 42
1.0
 50
0.0
 71
0
  3
arialbi.ttf
  4

  0
STYLE
  2
TIMES_BOLD_ITALIC
 70
0
 40
0.0
 41
1.0
 42
1.0
 50
0.0
 71
0
  3
timesbi.ttf
  4

  0
STYLE
  2
ISOCPEUR_ITALIC
 70
0
 40
0.0
 41
1.0
 42
1.0
 50
0.0
 71
0
  3
isocpeui.ttf
  4

  0
STYLE
  2
STANDARD
 70
0
 40
0.0
 41
1.0
 42
1.0
 50
0.0
 71
0
  3
arial.ttf
  4

  0
ENDTAB
  0
TABLE
  2
VIEW
 70
0
  0
ENDTAB
  0
TABLE
  2
APPID
 70
1
  0
APPID
  2
DXFWRITE
 70
0
  0
ENDTAB
  0
TABLE
  2
VPORT
 70
0
  0
ENDTAB
  0
TABLE
  2
UCS
 70
0
  0
ENDTAB
  0
ENDSEC
  0
SECTION
  2
BLOCKS
  0
ENDSEC
  0
SECTION
  2
ENTITIES
  0
VIEWPORT
  8
VIEWPORTS
 67
1
 10
0.0
 20
0.0
 30
0.0
 40
1.0
 41
1.0
 68
1
 69
1
1001
ACAD
1000
MVIEW
1002
{
1070
16
1010
0.0
1020
0.0
1030
0.0
1010
0.0
1020
0.0
1030
0.0
1040
0.0
1040
1.0
1040
0.0
1040
0.0
1040
50.0
1040
0.0
1040
0.0
1070
0
1070
100
1070
1
1070
3
1070
0
1070
0
1070
0
1070
0
1040
0.0
1040
0.0
1040
0.0
1040
0.1
1040
0.1
1040
0.1
1040
0.1
1070
0
1002
{
1002
}
1002
}
  0
LINE
 62
1
  8
0
 10
7.78794580456
 20
-33.0475796877
 30
0.0
 11
6.54292915444
 21
-34.4958144998
 31
0.0
  0
LINE
 62
1
  8
0
 10
6.54292915444
 20
-34.4958144998
 30
0.0
 11
13.3329549908
 21
-35.7769568981
 31
0.0
  0
LINE
 62
1
  8
0
 10
13.3329549908
 20
-35.7769568981
 30
0.0
 11
7.78794580456
 21
-33.0475796877
 31
0.0
  0
LINE
 62
1
  8
0
 10
6.54292915444
 20
-34.4958144998
 30
0.0
 11
10.0734589442
 21
-39.568485023
 31
0.0
  0
LINE
 62
1
  8
0
 10
10.0734589442
 20
-39.568485023
 30
0.0
 11
13.3329549908
 21
-35.7769568981
 31
0.0
  0
LINE
 62
1
  8
0
 10
13.3329549908
 20
-35.7769568981
 30
0.0
 11
6.54292915444
 21
-34.4958144998
 31
0.0
  0
LINE
 62
1
  8
0
 10
6.542929155
 20
-34.4958144995
 30
0.0
 11
4.75241602821
 21
-35.1602796451
 31
0.0
  0
LINE
 62
1
  8
0
 10
4.75241602821
 20
-35.1602796451
 30
0.0
 11
10.0734589436
 21
-39.5684850234
 31
0.0
  0
LINE
 62
1
  8
0
 10
10.0734589436
 20
-39.5684850234
 30
0.0
 11
6.542929155
 21
-34.4958144995
 31
0.0
  0
LINE
 62
0
  8
0
 10
4.75241602821
 20
-35.1602796451
 30
0.0
 11
5.38583490954
 21
-41.3080724361
 31
0.0
  0
LINE
 62
0
  8
0
 10
5.38583490954
 20
-41.3080724361
 30
0.0
 11
10.0734589436
 21
-39.5684850234
 31
0.0
  0
LINE
 62
1
  8
0
 10
10.0734589436
 20
-39.5684850234
 30
0.0
 11
4.75241602821
 21
-35.1602796451
 31
0.0
  0
LINE
 62
1
  8
0
 10
7.61066117448
 20
-29.3534577272
 30
0.0
 11
12.8688222392
 21
-26.1056287132
 31
0.0
  0
LINE
 62
1
  8
0
 10
12.8688222392
 20
-26.1056287132
 30
0.0
 11
9.26122429593
 21
-22.6436599994
 31
0.0
  0
LINE
 62
0
  8
0
 10
9.26122429593
 20
-22.6436599994
 30
0.0
 11
7.61066117448
 21
-29.3534577272
 31
0.0
  0
LINE
 62
1
  8
0
 10
17.5543155908
 20
-22.0754024307
 30
0.0
 11
22.7457515112
 21
-25.4288432528
 31
0.0
  0
LINE
 62
1
  8
0
 10
22.7457515112
 20
-25.4288432528
 30
0.0
 11
21.3881703976
 21
-17.2279154959
 31
0.0
  0
LINE
 62
1
  8
0
 10
21.3881703976
 20
-17.2279154959
 30
0.0
 11
17.5543155908
 21
-22.0754024307
 31
0.0
  0
LINE
 62
0
  8
0
 10
22.7457515112
 20
-25.4288432528
 30
0.0
 11
25.5881318013
 21
-19.9409054523
 31
0.0
  0
LINE
 62
0
  8
0
 10
25.5881318013
 20
-19.9409054523
 30
0.0
 11
21.3881703976
 21
-17.2279154959
 31
0.0
  0
LINE
 62
1
  8
0
 10
21.3881703976
 20
-17.2279154959
 30
0.0
 11
22.7457515112
 21
-25.4288432528
 31
0.0
  0
LINE
 62
1
  8
0
 10
21.4473672394
 20
-33.9729063493
 30
0.0
 11
18.3828551643
 21
-39.3399741548
 31
0.0
  0
LINE
 62
0
  8
0
 10
18.3828551643
 20
-39.3399741548
 30
0.0
 11
26.4972684529
 21
-37.5359225926
 31
0.0
  0
LINE
 62
0
  8
0
 10
26.4972684529
 20
-37.5359225926
 30
0.0
 11
21.4473672394
 21
-33.9729063493
 31
0.0
  0
LINE
 62
1
  8
0
 10
18.3828551767
 20
-39.3399741383
 30
0.0
 11
22.6632927353
 21
-43.798049733
 31
0.0
  0
LINE
 62
0
  8
0
 10
22.6632927353
 20
-43.798049733
 30
0.0
 11
26.5841537966
 21
-40.6953360838
 31
0.0
  0
LINE
 62
0
  8
0
 10
26.5841537966
 20
-40.6953360838
 30
0.0
 11
18.3828551767
 21
-39.3399741383
 31
0.0
  0
LINE
 62
1
  8
0
 10
18.3828551646
 20
-39.3399741499
 30
0.0
 11
14.353896527
 21
-44.0265605945
 31
0.0
  0
LINE
 62
1
  8
0
 10
14.353896527
 20
-44.0265605945
 30
0.0
 11
22.6632927474
 21
-43.7980497214
 31
0.0
  0
LINE
 62
1
  8
0
 10
22.6632927474
 20
-43.7980497214
 30
0.0
 11
18.3828551646
 21
-39.3399741499
 31
0.0
  0
LINE
 62
1
  8
0
 10
14.353896527
 20
-44.0265605945
 30
0.0
 11
19.4037967008
 21
-47.5895778463
 31
0.0
  0
LINE
 62
0
  8
0
 10
19.4037967008
 20
-47.5895778463
 30
0.0
 11
22.6632927474
 21
-43.7980497214
 31
0.0
  0
LINE
 62
1
  8
0
 10
22.6632927474
 20
-43.7980497214
 30
0.0
 11
14.353896527
 21
-44.0265605945
 31
0.0
  0
LINE
 62
0
  8
0
 10
3.83434540076
 20
-28.6980644267
 30
0.0
 11
7.78794581842
 21
-33.0475796562
 31
0.0
  0
LINE
 62
1
  8
0
 10
7.78794581842
 20
-33.0475796562
 30
0.0
 11
8.17621253405
 21
-31.1776330943
 31
0.0
  0
LINE
 62
0
  8
0
 10
8.17621253405
 20
-31.1776330943
 30
0.0
 11
3.83434540076
 21
-28.6980644267
 31
0.0
  0
LINE
 62
0
  8
0
 10
11.289384446
 20
-49.3936283878
 30
0.0
 11
16.9245571318
 21
-51.9316228355
 31
0.0
  0
LINE
 62
0
  8
0
 10
16.9245571318
 20
-51.9316228355
 30
0.0
 11
19.4037966963
 21
-47.5895778527
 31
0.0
  0
LINE
 62
1
  8
0
 10
19.4037966963
 20
-47.5895778527
 30
0.0
 11
11.289384446
 21
-49.3936283878
 31
0.0
  0
LINE
 62
0
  8
0
 10
2.08571480108
 20
-30.6640421681
 30
0.0
 11
6.54292915444
 21
-34.4958144998
 31
0.0
  0
LINE
 62
1
  8
0
 10
6.54292915444
 20
-34.4958144998
 30
0.0
 11
7.78794580456
 21
-33.0475796877
 31
0.0
  0
LINE
 62
0
  8
0
 10
7.78794580456
 20
-33.0475796877
 30
0.0
 11
2.08571480108
 21
-30.6640421681
 31
0.0
  0
LINE
 62
1
  8
0
 10
14.3538965315
 20
-44.0265605882
 30
0.0
 11
11.289384446
 21
-49.3936283878
 31
0.0
  0
LINE
 62
1
  8
0
 10
11.289384446
 20
-49.3936283878
 30
0.0
 11
19.4037966963
 21
-47.5895778527
 31
0.0
  0
LINE
 62
1
  8
0
 10
19.4037966963
 20
-47.5895778527
 30
0.0
 11
14.3538965315
 21
-44.0265605882
 31
0.0
  0
LINE
 62
0
  8
0
 10
1.72804873605
 20
-33.1478539881
 30
0.0
 11
4.75241602873
 21
-35.1602796465
 31
0.0
  0
LINE
 62
1
  8
0
 10
4.75241602873
 20
-35.1602796465
 30
0.0
 11
6.54292915447
 21
-34.495814498
 31
0.0
  0
LINE
 62
0
  8
0
 10
6.54292915447
 20
-34.495814498
 30
0.0
 11
1.72804873605
 21
-33.1478539881
 31
0.0
  0
LINE
 62
1
  8
0
 10
13.0950813557
 20
-17.796173285
 30
0.0
 11
17.5543156047
 21
-22.0754024417
 31
0.0
  0
LINE
 62
1
  8
0
 10
17.5543156047
 20
-22.0754024417
 30
0.0
 11
17.780574385
 21
-13.7659447447
 31
0.0
  0
LINE
 62
0
  8
0
 10
17.780574385
 20
-13.7659447447
 30
0.0
 11
13.0950813557
 21
-17.796173285
 31
0.0
  0
LINE
 62
1
  8
0
 10
17.5543156047
 20
-22.0754024417
 30
0.0
 11
21.3881703837
 21
-17.2279154849
 31
0.0
  0
LINE
 62
0
  8
0
 10
21.3881703837
 20
-17.2279154849
 30
0.0
 11
17.780574385
 21
-13.7659447447
 31
0.0
  0
LINE
 62
1
  8
0
 10
17.780574385
 20
-13.7659447447
 30
0.0
 11
17.5543156047
 21
-22.0754024417
 31
0.0
  0
LINE
 62
0
  8
0
 10
12.8688222441
 20
-26.1056287336
 30
0.0
 11
15.7524688689
 21
-30.1903040499
 31
0.0
  0
LINE
 62
0
  8
0
 10
15.7524688689
 20
-30.1903040499
 30
0.0
 11
17.5543156081
 21
-22.0754024126
 31
0.0
  0
LINE
 62
1
  8
0
 10
17.5543156081
 20
-22.0754024126
 30
0.0
 11
12.8688222441
 21
-26.1056287336
 31
0.0
  0
LINE
 62
0
  8
0
 10
18.911897471
 20
-30.276332343
 30
0.0
 11
22.7457514995
 21
-25.428843271
 31
0.0
  0
LINE
 62
1
  8
0
 10
22.7457514995
 20
-25.428843271
 30
0.0
 11
17.5543156025
 21
-22.0754024125
 31
0.0
  0
LINE
 62
0
  8
0
 10
17.5543156025
 20
-22.0754024125
 30
0.0
 11
18.911897471
 21
-30.276332343
 31
0.0
  0
LINE
 62
0
  8
0
 10
15.8121945532
 20
-31.434911909
 30
0.0
 11
13.3329549934
 21
-35.7769568945
 31
0.0
  0
LINE
 62
1
  8
0
 10
13.3329549934
 20
-35.7769568945
 30
0.0
 11
21.4473672417
 21
-33.9729063506
 31
0.0
  0
LINE
 62
0
  8
0
 10
21.4473672417
 20
-33.9729063506
 30
0.0
 11
15.8121945532
 21
-31.434911909
 31
0.0
  0
LINE
 62
1
  8
0
 10
13.3329549934
 20
-35.7769568945
 30
0.0
 11
18.3828551621
 21
-39.3399741535
 31
0.0
  0
LINE
 62
1
  8
0
 10
18.3828551621
 20
-39.3399741535
 30
0.0
 11
21.4473672417
 21
-33.9729063506
 31
0.0
  0
LINE
 62
1
  8
0
 10
21.4473672417
 20
-33.9729063506
 30
0.0
 11
13.3329549934
 21
-35.7769568945
 31
0.0
  0
LINE
 62
1
  8
0
 10
13.3329549908
 20
-35.7769568981
 30
0.0
 11
10.0734589442
 21
-39.568485023
 31
0.0
  0
LINE
 62
1
  8
0
 10
10.0734589442
 20
-39.568485023
 30
0.0
 11
18.3828551646
 21
-39.3399741499
 31
0.0
  0
LINE
 62
1
  8
0
 10
18.3828551646
 20
-39.3399741499
 30
0.0
 11
13.3329549908
 21
-35.7769568981
 31
0.0
  0
LINE
 62
1
  8
0
 10
10.0734589442
 20
-39.568485023
 30
0.0
 11
14.353896527
 21
-44.0265605945
 31
0.0
  0
LINE
 62
1
  8
0
 10
14.353896527
 20
-44.0265605945
 30
0.0
 11
18.3828551646
 21
-39.3399741499
 31
0.0
  0
LINE
 62
1
  8
0
 10
18.3828551646
 20
-39.3399741499
 30
0.0
 11
10.0734589442
 21
-39.568485023
 31
0.0
  0
LINE
 62
0
  8
0
 10
10.0734589398
 20
-39.5684850272
 30
0.0
 11
6.15259790139
 21
-42.6711987053
 31
0.0
  0
LINE
 62
0
  8
0
 10
6.15259790139
 20
-42.6711987053
 30
0.0
 11
14.3538965313
 21
-44.0265605904
 31
0.0
  0
LINE
 62
1
  8
0
 10
14.3538965313
 20
-44.0265605904
 30
0.0
 11
10.0734589398
 21
-39.5684850272
 31
0.0
  0
LINE
 62
0
  8
0
 10
6.23948324173
 20
-45.8306121178
 30
0.0
 11
11.2893844391
 21
-49.3936283838
 31
0.0
  0
LINE
 62
1
  8
0
 10
11.2893844391
 20
-49.3936283838
 30
0.0
 11
14.3538965384
 21
-44.0265605921
 31
0.0
  0
LINE
 62
0
  8
0
 10
14.3538965384
 20
-44.0265605921
 30
0.0
 11
6.23948324173
 21
-45.8306121178
 31
0.0
  0
LINE
 62
1
  8
0
 10
9.26122430265
 20
-22.6436599924
 30
0.0
 11
12.8688222325
 21
-26.1056287202
 31
0.0
  0
LINE
 62
1
  8
0
 10
12.8688222325
 20
-26.1056287202
 30
0.0
 11
13.0950813407
 21
-17.7961733006
 31
0.0
  0
LINE
 62
0
  8
0
 10
13.0950813407
 20
-17.7961733006
 30
0.0
 11
9.26122430265
 21
-22.6436599924
 31
0.0
  0
LINE
 62
1
  8
0
 10
12.8688222325
 20
-26.1056287202
 30
0.0
 11
17.5543156197
 21
-22.0754024261
 31
0.0
  0
LINE
 62
1
  8
0
 10
17.5543156197
 20
-22.0754024261
 30
0.0
 11
13.0950813407
 21
-17.7961733006
 31
0.0
  0
LINE
 62
1
  8
0
 10
13.0950813407
 20
-17.7961733006
 30
0.0
 11
12.8688222325
 21
-26.1056287202
 31
0.0
  0
LINE
 62
0
  8
0
 10
7.6106611699
 20
-29.3534577198
 30
0.0
 11
8.1762125328
 21
-31.1776330986
 31
0.0
  0
LINE
 62
1
  8
0
 10
8.1762125328
 20
-31.1776330986
 30
0.0
 11
12.8688222438
 21
-26.1056287206
 31
0.0
  0
LINE
 62
1
  8
0
 10
12.8688222438
 20
-26.1056287206
 30
0.0
 11
7.6106611699
 21
-29.3534577198
 31
0.0
  0
LINE
 62
1
  8
0
 10
8.1762125328
 20
-31.1776330986
 30
0.0
 11
14.3494455869
 21
-30.8813741925
 31
0.0
  0
LINE
 62
0
  8
0
 10
14.3494455869
 20
-30.8813741925
 30
0.0
 11
12.8688222438
 21
-26.1056287206
 31
0.0
  0
LINE
 62
1
  8
0
 10
12.8688222438
 20
-26.1056287206
 30
0.0
 11
8.1762125328
 21
-31.1776330986
 31
0.0
  0
LINE
 62
1
  8
0
 10
8.17621253258
 20
-31.177633094
 30
0.0
 11
7.7879458199
 21
-33.0475796565
 31
0.0
  0
LINE
 62
1
  8
0
 10
7.7879458199
 20
-33.0475796565
 30
0.0
 11
14.3494455872
 21
-30.8813741971
 31
0.0
  0
LINE
 62
1
  8
0
 10
14.3494455872
 20
-30.8813741971
 30
0.0
 11
8.17621253258
 21
-31.177633094
 31
0.0
  0
LINE
 62
1
  8
0
 10
7.7879458199
 20
-33.0475796565
 30
0.0
 11
13.3329549755
 21
-35.7769569293
 31
0.0
  0
LINE
 62
0
  8
0
 10
13.3329549755
 20
-35.7769569293
 30
0.0
 11
14.3494455872
 21
-30.8813741971
 31
0.0
  0
LINE
 62
1
  8
0
 10
14.3494455872
 20
-30.8813741971
 30
0.0
 11
7.7879458199
 21
-33.0475796565
 31
0.0
  0
TEXT
  8
0
 10
6.5612266196
 20
-38.0804419975
 30
0.0
 40
1.0
  1
21
  0
TEXT
  8
0
 10
7.20777053003
 20
-39.0319910541
 30
0.0
 40
1.0
  1
50
  0
TEXT
  8
0
 10
9.89251941986
 20
-26.3568664989
 30
0.0
 40
1.0
  1
22
  0
TEXT
  8
0
 10
22.8349909268
 20
-21.9950140374
 30
0.0
 40
1.0
  1
44
  0
TEXT
  8
0
 10
22.6742539545
 20
-19.8443991397
 30
0.0
 40
1.0
  1
0
  0
TEXT
  8
0
 10
22.1145201979
 20
-36.9737002186
 30
0.0
 40
1.0
  1
45
  0
TEXT
  8
0
 10
23.1075554788
 20
-36.9800514678
 30
0.0
 40
1.0
  1
44
  0
TEXT
  8
0
 10
23.6929088631
 20
-41.0704342007
 30
0.0
 40
1.0
  1
41
  0
TEXT
  8
0
 10
22.2389290432
 20
-41.4975817486
 30
0.0
 40
1.0
  1
45
  0
TEXT
  8
0
 10
19.8960862866
 20
-44.7159649699
 30
0.0
 40
1.0
  1
42
  0
TEXT
  8
0
 10
6.92111977831
 20
-29.8638833195
 30
0.0
 40
1.0
  1
36
  0
TEXT
  8
0
 10
5.26140942315
 20
-31.2404070514
 30
0.0
 40
1.0
  1
34
  0
TEXT
  8
0
 10
14.7229550946
 20
-49.2949402183
 30
0.0
 40
1.0
  1
7
  0
TEXT
  8
0
 10
16.861562988
 20
-49.0168282286
 30
0.0
 40
1.0
  1
43
  0
TEXT
  8
0
 10
5.29217079176
 20
-31.4424698965
 30
0.0
 40
1.0
  1
38
  0
TEXT
  8
0
 10
4.35833426422
 20
-33.2397698627
 30
0.0
 40
1.0
  1
35
  0
TEXT
  8
0
 10
4.07119058808
 20
-32.9052640065
 30
0.0
 40
1.0
  1
39
  0
TEXT
  8
0
 10
3.73110136634
 20
-35.266296318
 30
0.0
 40
1.0
  1
37
  0
TEXT
  8
0
 10
16.4159850651
 20
-16.9182522712
 30
0.0
 40
1.0
  1
12
  0
TEXT
  8
0
 10
18.5457809607
 20
-16.5792091244
 30
0.0
 40
1.0
  1
5
  0
TEXT
  8
0
 10
15.5360483892
 20
-27.2828722364
 30
0.0
 40
1.0
  1
46
  0
TEXT
  8
0
 10
15.1890556979
 20
-25.8077094232
 30
0.0
 40
1.0
  1
47
  0
TEXT
  8
0
 10
19.6523139561
 20
-26.9220917162
 30
0.0
 40
1.0
  1
48
  0
TEXT
  8
0
 10
19.7129669098
 20
-25.9308913046
 30
0.0
 40
1.0
  1
47
  0
TEXT
  8
0
 10
15.8751887001
 20
-34.3497065158
 30
0.0
 40
1.0
  1
49
  0
TEXT
  8
0
 10
18.0137965932
 20
-34.0715945238
 30
0.0
 40
1.0
  1
48
  0
TEXT
  8
0
 10
9.04384283212
 20
-42.2961005671
 30
0.0
 40
1.0
  1
50
  0
TEXT
  8
0
 10
10.4978226489
 20
-41.8689530085
 30
0.0
 40
1.0
  1
51
  0
TEXT
  8
0
 10
9.62919621326
 20
-46.3864832579
 30
0.0
 40
1.0
  1
14
  0
TEXT
  8
0
 10
10.6222314941
 20
-46.3928345115
 30
0.0
 40
1.0
  1
51
  0
TEXT
  8
0
 10
12.3546627731
 20
-21.1504134677
 30
0.0
 40
1.0
  1
19
  0
TEXT
  8
0
 10
9.32616017962
 20
-29.8213564127
 30
0.0
 40
1.0
  1
33
  0
TEXT
  8
0
 10
12.1764099958
 20
-28.9376885457
 30
0.0
 40
1.0
  1
46
  0
TEXT
  8
0
 10
12.3725249756
 20
-33.0242182788
 30
0.0
 40
1.0
  1
49
  0
ENDSEC
  0
EOF
