  0
SECTION
  2
HEADER
  9
$ACADVER
  1
AC1009
  9
$EXTMIN
 10
0.0
 20
0.0
 30
0.0
  9
$EXTMAX
 10
100.0
 20
100.0
 30
0.0
  9
$INSBASE
 10
0.0
 20
0.0
 30
0.0
  0
ENDSEC
  0
SECTION
  2
TABLES
  0
TABLE
  2
LTYPE
 70
19
  0
LTYPE
  2
PHANTOM
 70
0
  3
Phantom ______  __  __  ______  __  __  ______
 72
65
 73
6
 40
2.5
 49
1.25
 49
-0.25
 49
0.25
 49
-0.25
 49
0.25
 49
-0.25
  0
LTYPE
  2
DOT2
 70
0
  3
Dot (.5) . . . . . . . . . . . . . . . . . . . 
 72
65
 73
2
 40
0.1
 49
0.0
 49
-0.1
  0
LTYPE
  2
DIVIDE
 70
0
  3
Divide __ . . __ . . __ . . __ . . __ . . __
 72
65
 73
6
 40
1.6
 49
1.0
 49
-0.2
 49
0.0
 49
-0.2
 49
0.0
 49
-0.2
  0
LTYPE
  2
DIVIDEX2
 70
0
  3
Divide (2x) ____  . .  ____  . .  ____  . .  ____
 72
65
 73
6
 40
2.6
 49
2.0
 49
-0.2
 49
0.0
 49
-0.2
 49
0.0
 49
-0.2
  0
LTYPE
  2
CENTER
 70
0
  3
Center ____ _ ____ _ ____ _ ____ _ ____ _ ____
 72
65
 73
4
 40
2.0
 49
1.25
 49
-0.25
 49
0.25
 49
-0.25
  0
LTYPE
  2
DASHDOT
 70
0
  3
Dash dot __ . __ . __ . __ . __ . __ . __ . __
 72
65
 73
4
 40
1.4
 49
1.0
 49
-0.2
 49
0.0
 49
-0.2
  0
LTYPE
  2
CENTERX2
 70
0
  3
Center (2x) ________  __  ________  __  ________
 72
65
 73
4
 40
3.5
 49
2.5
 49
-0.25
 49
0.5
 49
-0.25
  0
LTYPE
  2
PHANTOMX2
 70
0
  3
Phantom (2x)____________    ____    ____    ____________
 72
65
 73
6
 40
4.25
 49
2.5
 49
-0.25
 49
0.5
 49
-0.25
 49
0.5
 49
-0.25
  0
LTYPE
  2
CONTINUOUS
 70
0
  3
Solid
 72
65
 73
0
 40
0.0
  0
LTYPE
  2
PHANTOM2
 70
0
  3
Phantom (.5x) ___ _ _ ___ _ _ ___ _ _ ___ _ _ ___
 72
65
 73
6
 40
1.25
 49
0.625
 49
-0.125
 49
0.125
 49
-0.125
 49
0.125
 49
-0.125
  0
LTYPE
  2
DASHED
 70
0
  3
Dashed __ __ __ __ __ __ __ __ __ __ __ __ __ _
 72
65
 73
2
 40
0.6
 49
0.5
 49
-0.1
  0
LTYPE
  2
DASHED2
 70
0
  3
Dashed (.5x) _ _ _ _ _ _ _ _ _ _ _ _ _ _
 72
65
 73
2
 40
0.3
 49
0.25
 49
-0.05
  0
LTYPE
  2
DASHDOT2
 70
0
  3
Dash dot (.5x) _ . _ . _ . _ . _ . _ . _ . _
 72
65
 73
4
 40
0.7
 49
0.5
 49
-0.1
 49
0.0
 49
-0.1
  0
LTYPE
  2
DOTX2
 70
0
  3
Dot (2x) .    .    .    .    .    .    .    . 
 72
65
 73
2
 40
0.4
 49
0.0
 49
-0.4
  0
LTYPE
  2
DIVIDE2
 70
0
  3
Divide(.5x) _ . _ . _ . _ . _ . _ . _ . _
 72
65
 73
6
 40
0.8
 49
0.5
 49
-0.1
 49
0.0
 49
-0.1
 49
0.0
 49
-0.1
  0
LTYPE
  2
CENTER2
 70
0
  3
Center (.5x) ____ _ ____ _ ____ _ ____ _ ____
 72
65
 73
4
 40
1.0
 49
0.625
 49
-0.125
 49
0.125
 49
-0.125
  0
LTYPE
  2
DASHDOTX2
 70
0
  3
Dash dot (2x) ____  .  ____  .  ____  .  ____
 72
65
 73
4
 40
2.4
 49
2.0
 49
-0.2
 49
0.0
 49
-0.2
  0
LTYPE
  2
DOT
 70
0
  3
Dot .  .  .  .  .  .  .  .  .  .  .  .  .  .  .  .
 72
65
 73
2
 40
0.2
 49
0.0
 49
-0.2
  0
LTYPE
  2
DASHEDX2
 70
0
  3
Dashed (2x) ____  ____  ____  ____  ____  ____
 72
65
 73
2
 40
1.2
 49
1.0
 49
-0.2
  0
ENDTAB
  0
TABLE
  2
LAYER
 70
5
  0
LAYER
  2
VIEWPORTS
 70
0
 62
7
  6
CONTINUOUS
  0
LAYER
  2
TABLEGRID
 70
0
 62
1
  6
CONTINUOUS
  0
LAYER
  2
TABLECONTENT
 70
0
 62
1
  6
CONTINUOUS
  0
LAYER
  2
DIMENSIONS
 70
0
 62
1
  6
CONTINUOUS
  0
LAYER
  2
TABLEBACKGROUND
 70
0
 62
1
  6
CONTINUOUS
  0
ENDTAB
  0
TABLE
  2
STYLE
 70
12
  0
STYLE
  2
TIMES
 70
0
 40
0.0
 41
1.0
 42
1.0
 50
0.0
 71
0
  3
times.ttf
  4

  0
STYLE
  2
ARIAL
 70
0
 40
0.0
 41
1.0
 42
1.0
 50
0.0
 71
0
  3
arial.ttf
  4

  0
STYLE
  2
TIMES_BOLD
 70
0
 40
0.0
 41
1.0
 42
1.0
 50
0.0
 71
0
  3
timesbd.ttf
  4

  0
STYLE
  2
ARIAL_BLACK
 70
0
 40
0.0
 41
1.0
 42
1.0
 50
0.0
 71
0
  3
ariblk.ttf
  4

  0
STYLE
  2
TIMES_ITALIC
 70
0
 40
0.0
 41
1.0
 42
1.0
 50
0.0
 71
0
  3
timesi.ttf
  4

  0
STYLE
  2
ISOCPEUR
 70
0
 40
0.0
 41
1.0
 42
1.0
 50
0.0
 71
0
  3
isocpeur.ttf
  4

  0
STYLE
  2
ARIAL_BOLD
 70
0
 40
0.0
 41
1.0
 42
1.0
 50
0.0
 71
0
  3
arialbd.ttf
  4

  0
STYLE
  2
ARIAL_ITALIC
 70
0
 40
0.0
 41
1.0
 42
1.0
 50
0.0
 71
0
  3
ariali.ttf
  4

  0
STYLE
  2
ARIAL_BOLD_ITALIC
 70
0
 40
0.0
 41
1.0
 42
1.0
 50
0.0
 71
0
  3
arialbi.ttf
  4

  0
STYLE
  2
TIMES_BOLD_ITALIC
 70
0
 40
0.0
 41
1.0
 42
1.0
 50
0.0
 71
0
  3
timesbi.ttf
  4

  0
STYLE
  2
ISOCPEUR_ITALIC
 70
0
 40
0.0
 41
1.0
 42
1.0
 50
0.0
 71
0
  3
isocpeui.ttf
  4

  0
STYLE
  2
STANDARD
 70
0
 40
0.0
 41
1.0
 42
1.0
 50
0.0
 71
0
  3
arial.ttf
  4

  0
ENDTAB
  0
TABLE
  2
VIEW
 70
0
  0
ENDTAB
  0
TABLE
  2
APPID
 70
1
  0
APPID
  2
DXFWRITE
 70
0
  0
ENDTAB
  0
TABLE
  2
VPORT
 70
0
  0
ENDTAB
  0
TABLE
  2
UCS
 70
0
  0
ENDTAB
  0
ENDSEC
  0
SECTION
  2
BLOCKS
  0
ENDSEC
  0
SECTION
  2
ENTITIES
  0
VIEWPORT
  8
VIEWPORTS
 67
1
 10
0.0
 20
0.0
 30
0.0
 40
1.0
 41
1.0
 68
1
 69
1
1001
ACAD
1000
MVIEW
1002
{
1070
16
1010
0.0
1020
0.0
1030
0.0
1010
0.0
1020
0.0
1030
0.0
1040
0.0
1040
1.0
1040
0.0
1040
0.0
1040
50.0
1040
0.0
1040
0.0
1070
0
1070
100
1070
1
1070
3
1070
0
1070
0
1070
0
1070
0
1040
0.0
1040
0.0
1040
0.0
1040
0.1
1040
0.1
1040
0.1
1040
0.1
1070
0
1002
{
1002
}
1002
}
  0
LINE
 62
0
  8
0
 10
-7.54134285239
 20
7.35863331917
 30
0.0
 11
-12.2289669322
 21
5.61904602981
 31
0.0
  0
LINE
 62
1
  8
0
 10
-12.2289669322
 20
5.61904602981
 30
0.0
 11
-6.9079241328
 21
1.21084051152
 31
0.0
  0
LINE
 62
0
  8
0
 10
-6.9079241328
 20
1.21084051152
 30
0.0
 11
-7.54134285239
 21
7.35863331917
 31
0.0
  0
LINE
 62
1
  8
0
 10
-12.2289669322
 20
5.61904602981
 30
0.0
 11
-8.69843727707
 21
0.546375412976
 31
0.0
  0
LINE
 62
1
  8
0
 10
-8.69843727707
 20
0.546375412976
 30
0.0
 11
-6.9079241328
 21
1.21084051152
 31
0.0
  0
LINE
 62
1
  8
0
 10
-6.9079241328
 20
1.21084051152
 30
0.0
 11
-12.2289669322
 21
5.61904602981
 31
0.0
  0
LINE
 62
0
  8
0
 10
-12.2289669328
 20
5.61904602942
 30
0.0
 11
-15.4884630792
 21
1.8275179903
 31
0.0
  0
LINE
 62
1
  8
0
 10
-15.4884630792
 20
1.8275179903
 30
0.0
 11
-8.69843727651
 21
0.546375413367
 31
0.0
  0
LINE
 62
1
  8
0
 10
-8.69843727651
 20
0.546375413367
 30
0.0
 11
-12.2289669328
 21
5.61904602942
 31
0.0
  0
LINE
 62
1
  8
0
 10
-15.4884630792
 20
1.8275179903
 30
0.0
 11
-9.94345396474
 21
-0.901859366041
 31
0.0
  0
LINE
 62
1
  8
0
 10
-9.94345396474
 20
-0.901859366041
 30
0.0
 11
-8.69843727651
 21
0.546375413367
 31
0.0
  0
LINE
 62
1
  8
0
 10
-8.69843727651
 20
0.546375413367
 30
0.0
 11
-15.4884630792
 21
1.8275179903
 31
0.0
  0
LINE
 62
0
  8
0
 10
-15.4884630865
 20
1.82751797543
 30
0.0
 11
-16.5049537457
 21
-3.06806474687
 31
0.0
  0
LINE
 62
1
  8
0
 10
-16.5049537457
 20
-3.06806474687
 30
0.0
 11
-9.94345395742
 21
-0.901859351173
 31
0.0
  0
LINE
 62
1
  8
0
 10
-9.94345395742
 20
-0.901859351173
 30
0.0
 11
-15.4884630865
 21
1.82751797543
 31
0.0
  0
LINE
 62
1
  8
0
 10
-16.5049537457
 20
-3.06806474687
 30
0.0
 11
-10.3317206883
 21
-2.77180590996
 31
0.0
  0
LINE
 62
1
  8
0
 10
-10.3317206883
 20
-2.77180590996
 30
0.0
 11
-9.94345395742
 21
-0.901859351173
 31
0.0
  0
LINE
 62
1
  8
0
 10
-9.94345395742
 20
-0.901859351173
 30
0.0
 11
-16.5049537457
 21
-3.06806474687
 31
0.0
  0
LINE
 62
0
  8
0
 10
-16.5049537466
 20
-3.06806472816
 30
0.0
 11
-15.024330486
 21
-7.8438102256
 31
0.0
  0
LINE
 62
1
  8
0
 10
-15.024330486
 20
-7.8438102256
 30
0.0
 11
-10.3317206874
 21
-2.77180592866
 31
0.0
  0
LINE
 62
1
  8
0
 10
-10.3317206874
 20
-2.77180592866
 30
0.0
 11
-16.5049537466
 21
-3.06806472816
 31
0.0
  0
LINE
 62
1
  8
0
 10
-15.024330486
 20
-7.8438102256
 30
0.0
 11
-9.76616935596
 21
-4.59598131721
 31
0.0
  0
LINE
 62
0
  8
0
 10
-9.76616935596
 20
-4.59598131721
 30
0.0
 11
-10.3317206874
 21
-2.77180592866
 31
0.0
  0
LINE
 62
1
  8
0
 10
-10.3317206874
 20
-2.77180592866
 30
0.0
 11
-15.024330486
 21
-7.8438102256
 31
0.0
  0
LINE
 62
0
  8
0
 10
-15.0243304814
 20
-7.84381023302
 30
0.0
 11
-11.4167325979
 21
-11.3057790092
 31
0.0
  0
LINE
 62
0
  8
0
 10
-11.4167325979
 20
-11.3057790092
 30
0.0
 11
-9.76616936055
 21
-4.59598130979
 31
0.0
  0
LINE
 62
1
  8
0
 10
-9.76616936055
 20
-4.59598130979
 30
0.0
 11
-15.0243304814
 21
-7.84381023302
 31
0.0
  0
LINE
 62
0
  8
0
 10
-8.69843727655
 20
0.546375411563
 30
0.0
 11
-3.88355689358
 21
-0.801585225076
 31
0.0
  0
LINE
 62
0
  8
0
 10
-3.88355689358
 20
-0.801585225076
 30
0.0
 11
-6.90792413333
 21
1.21084051294
 31
0.0
  0
LINE
 62
1
  8
0
 10
-6.90792413333
 20
1.21084051294
 30
0.0
 11
-8.69843727655
 21
0.546375411563
 31
0.0
  0
LINE
 62
0
  8
0
 10
-9.94345396474
 20
-0.901859366041
 30
0.0
 11
-4.24122302397
 21
-3.28539703564
 31
0.0
  0
LINE
 62
0
  8
0
 10
-4.24122302397
 20
-3.28539703564
 30
0.0
 11
-8.69843727651
 21
0.546375413367
 31
0.0
  0
LINE
 62
1
  8
0
 10
-8.69843727651
 20
0.546375413367
 30
0.0
 11
-9.94345396474
 21
-0.901859366041
 31
0.0
  0
LINE
 62
0
  8
0
 10
-10.3317206927
 20
-2.77180590905
 30
0.0
 11
-5.98985359119
 21
-5.25137463231
 31
0.0
  0
LINE
 62
0
  8
0
 10
-5.98985359119
 20
-5.25137463231
 30
0.0
 11
-9.94345395302
 21
-0.901859352086
 31
0.0
  0
LINE
 62
1
  8
0
 10
-9.94345395302
 20
-0.901859352086
 30
0.0
 11
-10.3317206927
 21
-2.77180590905
 31
0.0
  0
TEXT
  8
0
 10
-9.36327853276
 20
5.08255198509
 30
0.0
 40
1.0
  1
41
  0
TEXT
  8
0
 10
-8.71673464737
 20
4.13100291153
 30
0.0
 40
1.0
  1
40
  0
TEXT
  8
0
 10
-12.7212565942
 20
2.74543316593
 30
0.0
 40
1.0
  1
42
  0
TEXT
  8
0
 10
-14.5280331133
 20
-0.925220684411
 30
0.0
 40
1.0
  1
43
  0
TEXT
  8
0
 10
-14.331918189
 20
-5.01175041248
 30
0.0
 40
1.0
  1
8
  0
TEXT
  8
0
 10
-11.4816683576
 20
-4.12808259471
 30
0.0
 40
1.0
  1
31
  0
TEXT
  8
0
 10
-12.1819407052
 20
-8.49251504598
 30
0.0
 40
1.0
  1
10
  0
TEXT
  8
0
 10
-12.0480276577
 20
-7.59257249872
 30
0.0
 40
1.0
  1
2
  0
TEXT
  8
0
 10
-5.88660946814
 20
1.31685715757
 30
0.0
 40
1.0
  1
26
  0
TEXT
  8
0
 10
-6.226698752
 20
-1.04417514506
 30
0.0
 40
1.0
  1
23
  0
TEXT
  8
0
 10
-6.51384241934
 20
-0.70966928122
 30
0.0
 40
1.0
  1
28
  0
TEXT
  8
0
 10
-7.44767899417
 20
-2.50696922287
 30
0.0
 40
1.0
  1
25
  0
TEXT
  8
0
 10
-7.41691758094
 20
-2.70903198935
 30
0.0
 40
1.0
  1
30
  0
TEXT
  8
0
 10
-9.07662795377
 20
-4.08555569997
 30
0.0
 40
1.0
  1
27
  0
ENDSEC
  0
EOF
