####
#
# OBJ File Generated by Meshlab
#
####
# Object earth.obj
#
# Vertices: 52
# Faces: 100
#
####
mtllib ./earth.obj.mtl

vn -4.095992 4.111814 -0.284342
v -3.549192 3.618869 -0.295402 0.752941 0.752941 0.752941
vn -4.168090 -3.529023 -1.795639
v -3.595758 -3.287848 -1.471643 0.752941 0.752941 0.752941
vn -5.195481 -1.301799 -1.971561
v -4.667707 -1.023489 -1.837410 0.752941 0.752941 0.752941
vn -3.316219 3.289314 -3.289151
v -3.040998 2.971033 -2.771307 0.752941 0.752941 0.752941
vn -2.300724 5.226366 -0.845950
v -1.938691 4.677322 -0.686871 0.752941 0.752941 0.752941
vn -1.835863 -4.325805 -3.136391
v -1.670674 -3.916091 -2.834537 0.752941 0.752941 0.752941
vn -3.323558 -0.583922 -4.244048
v -3.273144 -0.614536 -3.974548 0.752941 0.752941 0.752941
vn -0.052860 4.376518 -3.534037
v -0.148287 4.034688 -3.167028 0.752941 0.752941 0.752941
vn -0.750174 2.355333 -4.857414
v -0.762316 2.377081 -4.507897 0.752941 0.752941 0.752941
vn -0.041269 -0.296238 -5.559615
v 0.034646 -0.415482 -5.131301 0.752941 0.752941 0.752941
vn 1.415983 -3.207969 -4.488484
v 1.131726 -2.953355 -4.007424 0.752941 0.752941 0.752941
vn 0.897980 6.045375 -0.540979
v 0.562091 4.979203 -0.340593 0.752941 0.752941 0.752941
vn 3.125968 3.118082 -3.256229
v 3.024971 2.951542 -2.936929 0.752941 0.752941 0.752941
vn 5.101425 1.410453 -1.693651
v 4.715528 1.243583 -1.605054 0.752941 0.752941 0.752941
vn 4.106692 3.755053 0.764397
v 3.723866 3.426540 0.744092 0.752941 0.752941 0.752941
vn 0.763410 -5.540791 1.915010
v 0.608635 -4.782929 1.588517 0.752941 0.752941 0.752941
vn 3.156451 3.198547 3.516258
v 2.908095 2.728094 3.161363 0.752941 0.752941 0.752941
vn -0.211924 2.573121 4.689223
v -0.277753 2.627633 4.501409 0.752941 0.752941 0.752941
vn -1.952153 0.487111 4.989455
v -1.951155 0.392935 4.821636 0.752941 0.752941 0.752941
vn -1.914045 -4.560306 2.746921
v -1.697067 -4.234761 2.365696 0.752941 0.752941 0.752941
vn -3.845454 2.894155 2.967955
v -3.540704 2.691514 2.529132 0.752941 0.752941 0.752941
vn -1.785134 -5.774244 0.224129
v -1.433457 -4.807159 0.164273 0.752941 0.752941 0.752941
vn -5.851884 0.329287 0.212910
v -5.049644 0.360376 0.194805 0.752941 0.752941 0.752941
vn -0.011393 6.234488 -0.101448
v -0.002691 5.000011 -0.002927 0.752941 0.752941 0.752941
vn -5.288403 2.520632 0.942612
v -4.474105 2.153716 0.853407 0.752941 0.752941 0.752941
vn -4.949598 1.695746 -2.203202
v -4.523397 1.483734 -1.927662 0.752941 0.752941 0.752941
vn -3.112500 -4.957762 -0.373020
v -2.709197 -4.278127 -0.358424 0.752941 0.752941 0.752941
vn -1.287363 -2.893209 -4.826156
v -0.997301 -2.608573 -4.260952 0.752941 0.752941 0.752941
vn -0.107601 5.623298 -1.878165
v -0.147081 4.847905 -1.488080 0.752941 0.752941 0.752941
vn 2.850905 -0.030921 -4.393766
v 2.777255 -0.023993 -4.439192 0.752941 0.752941 0.752941
vn 2.326731 -4.079652 -2.662489
v 2.039768 -4.006360 -2.585164 0.752941 0.752941 0.752941
vn -0.258446 -5.741290 -1.446251
v -0.188761 -4.971118 -0.879189 0.752941 0.752941 0.752941
vn 2.785218 4.866538 -1.364001
v 2.373819 4.354512 -1.118575 0.752941 0.752941 0.752941
vn 4.963033 -1.486885 -1.521356
v 4.793204 -1.328440 -1.370862 0.752941 0.752941 0.752941
vn 1.757742 5.471393 1.219760
v 1.245229 4.835867 0.927361 0.752941 0.752941 0.752941
vn 2.086822 -5.414562 0.024868
v 1.540380 -4.851704 0.084699 0.752941 0.752941 0.752941
vn 5.178299 0.886587 1.672787
v 4.788904 0.918039 1.692648 0.752941 0.752941 0.752941
vn 4.535228 -3.234826 0.244933
v 4.139166 -2.996313 0.357084 0.752941 0.752941 0.752941
vn 4.827460 -1.413186 2.783172
v 4.188864 -1.240120 2.565063 0.752941 0.752941 0.752941
vn 3.386524 -3.788418 2.645971
v 3.067712 -3.362079 2.310302 0.752941 0.752941 0.752941
vn 3.018645 0.855451 4.679392
v 2.890160 0.717522 4.167635 0.752941 0.752941 0.752941
vn 2.077805 -1.250830 4.988507
v 2.022674 -1.238914 4.568977 0.752941 0.752941 0.752941
vn 0.789649 4.865273 2.938308
v 0.579544 4.397779 2.525091 0.752941 0.752941 0.752941
vn -0.503026 -2.093498 5.092067
v -0.415656 -2.005682 4.740986 0.752941 0.752941 0.752941
vn 1.000939 -4.247473 3.780061
v 0.860651 -3.835289 3.254903 0.752941 0.752941 0.752941
vn -2.240451 4.671522 2.533437
v -1.956382 4.132484 2.218554 0.752941 0.752941 0.752941
vn -0.390734 -6.097384 0.508005
v -0.274725 -5.005969 0.206196 0.752941 0.752941 0.752941
vn -5.026741 0.074151 2.762673
v -4.532215 -0.034286 2.347019 0.752941 0.752941 0.752941
vn -3.628117 -1.905941 4.053813
v -3.291606 -1.579900 3.534047 0.752941 0.752941 0.752941
vn -5.279500 -2.253470 1.075697
v -4.488044 -2.083213 1.138979 0.752941 0.752941 0.752941
vn -4.154953 -3.618253 1.837066
v -3.737805 -3.083199 1.592863 0.752941 0.752941 0.752941
vn -0.791640 5.910605 0.788600
v -0.509090 4.998814 0.483192 0.752941 0.752941 0.752941
# 52 vertices, 0 vertices normals


usemtl material_0
vt 0.936001 0.274891
vt 0.976693 0.179054
vt 1.000521 0.304149
f 2/1/2 27/2/27 51/3/51
vt 0.932807 0.593379
vt 0.999617 0.519216
vt 1.000123 0.644706
f 26/4/26 23/5/23 25/6/25
vt 1.000464 0.380058
f 2/1/2 51/3/51 50/7/50
vt 0.981964 0.749172
f 1/8/1 26/4/26 25/6/25
vt 0.937438 0.434136
f 2/1/2 50/7/50 3/9/3
f 3/9/3 23/5/23 26/4/26
vt 0.783422 0.055351
vt 0.936826 0.020772
vt 1.012626 0.092347
f 32/10/32 47/11/47 22/12/22
f 27/2/27 32/10/32 22/12/22
vt 0.878677 0.697630
f 4/13/4 26/4/26 1/8/1
vt 0.856330 0.461311
f 2/1/2 3/9/3 7/14/7
vt 0.936233 0.865341
f 5/15/5 4/13/4 1/8/1
vt 0.832902 0.219814
f 7/14/7 6/16/6 2/1/2
f 26/4/26 7/14/7 3/9/3
f 2/1/2 6/16/6 27/2/27
vt 0.929437 0.947082
vt 0.757956 0.905466
f 5/15/5 52/17/52 29/18/29
f 6/16/6 32/10/32 27/2/27
f 4/13/4 7/14/7 26/4/26
vt 0.753428 0.789351
f 4/13/4 5/15/5 8/19/8
vt 0.774075 0.651887
f 7/14/7 4/13/4 9/20/9
f 5/15/5 29/18/29 8/19/8
vt 0.784738 0.327470
f 28/21/28 6/16/6 7/14/7
f 8/19/8 9/20/9 4/13/4
vt 0.746320 0.473052
f 28/21/28 7/14/7 10/22/10
f 9/20/9 10/22/10 7/14/7
vt 0.702987 0.302724
f 28/21/28 10/22/10 11/23/11
vt 0.637077 0.212979
f 31/24/31 32/10/32 6/16/6
f 11/23/11 31/24/31 6/16/6
f 11/23/11 6/16/6 28/21/28
vt 0.658162 0.497407
f 30/25/30 10/22/10 9/20/9
vt 0.620325 0.694841
f 8/19/8 13/26/13 9/20/9
f 11/23/11 10/22/10 30/25/30
f 30/25/30 9/20/9 13/26/13
vt 0.566827 0.827232
f 33/27/33 8/19/8 29/18/29
f 33/27/33 13/26/13 8/19/8
vt 0.584781 0.954740
f 29/18/29 12/28/12 33/27/33
vt 0.498640 0.094541
f 31/24/31 36/29/36 32/10/32
f 31/24/31 11/23/11 30/25/30
vt 0.542155 0.415524
f 34/30/34 31/24/31 30/25/30
vt 0.550657 0.577428
f 14/31/14 34/30/34 30/25/30
f 14/31/14 30/25/30 13/26/13
vt 0.468128 0.732950
f 33/27/33 15/32/15 13/26/13
vt 0.484345 0.299015
f 38/33/38 31/24/31 34/30/34
f 38/33/38 36/29/36 31/24/31
vt 0.411211 0.902012
f 12/28/12 35/34/35 33/27/33
f 14/31/14 13/26/13 15/32/15
vt 0.444476 0.555824
f 14/31/14 37/35/37 34/30/34
f 37/35/37 14/31/14 15/32/15
f 15/32/15 33/27/33 35/34/35
f 38/33/38 34/30/34 37/35/37
vt 0.411270 0.419911
f 39/36/39 38/33/38 37/35/37
vt 0.395152 0.270935
f 40/37/40 36/29/36 38/33/38
f 40/37/40 38/33/38 39/36/39
vt 0.366793 0.678606
f 37/35/37 15/32/15 17/38/17
vt 0.315727 0.105662
f 40/37/40 16/39/16 36/29/36
vt 0.345541 0.543504
f 39/36/39 37/35/37 41/40/41
vt 0.287342 0.832946
f 15/32/15 35/34/35 43/41/43
f 41/40/41 37/35/37 17/38/17
vt 0.315245 0.421940
f 40/37/40 39/36/39 42/42/42
f 17/38/17 15/32/15 43/41/43
f 41/40/41 42/42/42 39/36/39
vt 0.290230 0.226711
f 45/43/45 16/39/16 40/37/40
vt 0.239072 0.668768
f 18/44/18 17/38/17 43/41/43
f 45/43/45 40/37/40 42/42/42
f 41/40/41 17/38/17 18/44/18
vt 0.235088 0.369878
f 44/45/44 45/43/45 42/42/42
f 18/44/18 42/42/42 41/40/41
vt 0.187936 0.522811
f 44/45/44 42/42/42 19/46/19
vt 0.135358 0.952053
f 43/41/43 35/34/35 52/47/52
f 19/46/19 42/42/42 18/44/18
vt 0.152979 0.189300
f 45/43/45 20/48/20 16/39/16
f 20/48/20 45/43/45 44/45/44
vt 0.136750 0.801283
f 46/49/46 18/44/18 43/41/43
vt 0.132188 0.024562
f 20/48/20 47/50/47 16/39/16
vt 0.098615 0.675312
f 46/49/46 21/51/21 18/44/18
f 19/46/19 18/44/18 21/51/21
vt 0.130082 0.397920
f 20/48/20 44/45/44 49/52/49
f 49/52/49 44/45/44 19/46/19
f 46/49/46 43/41/43 52/47/52
vt 0.063529 0.289988
f 51/53/51 20/48/20 49/52/49
vt 0.075483 0.496954
f 49/52/49 19/46/19 48/54/48
f 21/51/21 48/54/48 19/46/19
vt 0.014269 0.875367
f 46/49/46 52/47/52 5/55/5
vt 0.021583 0.094640
f 22/56/22 47/50/47 20/48/20
vt 0.039226 0.365794
f 50/57/50 51/53/51 49/52/49
f 48/54/48 50/57/50 49/52/49
vt -0.008837 0.752969
f 21/51/21 46/49/46 1/58/1
vt 0.010212 0.200178
f 51/53/51 27/59/27 20/48/20
f 1/58/1 46/49/46 5/55/5
vt 0.029852 0.638451
f 48/54/48 21/51/21 25/60/25
vt 0.006776 0.521640
f 25/60/25 23/61/23 48/54/48
f 25/60/25 21/51/21 1/58/1
f 22/56/22 20/48/20 27/59/27
f 50/57/50 48/54/48 23/61/23
f 3/9/3 50/7/50 23/5/23
vt 0.254705 0.975323
f 24/62/24 52/47/52 35/34/35
vt 0.440410 0.976869
f 24/63/24 35/34/35 12/28/12
vt 0.690695 0.975587
f 24/64/24 12/28/12 29/18/29
vt 0.862173 0.975324
f 24/65/24 29/18/29 52/17/52
vt 0.324088 0.021702
f 47/66/47 36/29/36 16/39/16
vt 0.604458 0.021701
f 47/67/47 32/10/32 36/29/36
# 100 faces, 67 coords texture

# End of File