solid STL generated by MeshLab
  facet normal -1.728701e-01  1.395208e-01 -9.750128e-01
    outer loop
      vertex  -3.269991e+01  1.719438e+00  6.172978e+01
      vertex  -2.876210e+01  3.127505e+01  6.526091e+01
      vertex  -2.497284e+01  3.095416e+00  6.055667e+01
    endloop
  endfacet
  facet normal  1.601130e-01  9.636467e-01  2.138895e-01
    outer loop
      vertex  -5.830347e+00  1.341879e+01  3.203946e+01
      vertex   1.024147e+01  7.865211e+00  4.502925e+01
      vertex   2.617831e+01  6.693906e+00  3.837642e+01
    endloop
  endfacet
  facet normal -7.947007e-01  7.746597e-02  6.020381e-01
    outer loop
      vertex  -1.917433e+01 -2.291394e+01  7.822920e+00
      vertex  -1.986667e+01 -1.199301e+01  5.503793e+00
      vertex  -2.549058e+01 -2.692049e+01  8.962465e-04
    endloop
  endfacet
  facet normal  5.680234e-01  4.777109e-01 -6.701804e-01
    outer loop
      vertex   2.858339e+01  3.508023e+00  8.325031e+00
      vertex   2.845498e+01 -8.018473e+00  0.000000e+00
      vertex   2.056800e+01  1.361186e+00  1.159027e-03
    endloop
  endfacet
  facet normal -8.531646e-01 -1.648576e-01 -4.949062e-01
    outer loop
      vertex  -3.908948e+01 -1.963072e+00  2.502944e+01
      vertex  -3.349884e+01 -1.560937e+01  1.993749e+01
      vertex  -3.977162e+01 -1.328489e+01  2.997678e+01
    endloop
  endfacet
  facet normal -2.651341e-01 -4.906226e-01  8.300564e-01
    outer loop
      vertex  -2.589189e+00 -3.290117e+01  2.908080e+01
      vertex   5.438558e+00 -2.554017e+01  3.599587e+01
      vertex  -7.748536e+00 -2.558325e+01  3.175823e+01
    endloop
  endfacet
  facet normal -3.434611e-01 -6.273493e-01  6.989043e-01
    outer loop
      vertex  -8.826379e+00 -3.072544e+01  1.690039e-02
      vertex  -5.603441e-01 -2.718817e+01  7.254182e+00
      vertex  -6.743103e+00 -2.109098e+01  9.688749e+00
    endloop
  endfacet
  facet normal -1.948610e-01 -9.020334e-01  3.851816e-01
    outer loop
      vertex   4.190358e+01 -1.450551e+01  1.717364e+01
      vertex   3.537816e+01 -1.143126e+01  2.107187e+01
      vertex   3.281440e+01 -1.601590e+01  9.038377e+00
    endloop
  endfacet
  facet normal  8.061679e-01 -5.241116e-01  2.745909e-01
    outer loop
      vertex  -2.428655e-01  3.372221e+00  6.906470e+01
      vertex   5.241845e+00  1.487944e+01  7.492604e+01
      vertex  -3.393559e+00  5.765752e+00  8.288332e+01
    endloop
  endfacet
  facet normal -6.350681e-01  3.847069e-01 -6.698426e-01
    outer loop
      vertex  -3.498662e+01  2.437440e+01  7.690907e+01
      vertex  -2.727519e+01  3.188805e+01  7.391325e+01
      vertex  -3.269991e+01  1.719438e+00  6.172978e+01
    endloop
  endfacet
  facet normal -5.382063e-01  6.702306e-01  5.110038e-01
    outer loop
      vertex  -4.524890e-01  2.079734e+01  2.802592e+01
      vertex  -5.266775e+00  2.116727e+01  2.247015e+01
      vertex  -5.830347e+00  1.341879e+01  3.203946e+01
    endloop
  endfacet
  facet normal -7.082595e-01  5.684656e-01  4.185872e-01
    outer loop
      vertex  -5.266775e+00  2.116727e+01  2.247015e+01
      vertex  -9.701232e+00  1.279375e+01  2.633867e+01
      vertex  -5.830347e+00  1.341879e+01  3.203946e+01
    endloop
  endfacet
  facet normal -9.917043e-01  9.673718e-02  8.464257e-02
    outer loop
      vertex  -3.977162e+01 -1.328489e+01  2.997678e+01
      vertex  -3.865839e+01 -1.102348e+01  4.043528e+01
      vertex  -3.908948e+01 -1.963072e+00  2.502944e+01
    endloop
  endfacet
  facet normal -6.932261e-01 -7.180698e-01 -6.175290e-02
    outer loop
      vertex  -3.085380e+01 -2.272153e+01  3.959738e+01
      vertex  -3.977162e+01 -1.328489e+01  2.997678e+01
      vertex  -2.698006e+01 -2.537200e+01  2.693149e+01
    endloop
  endfacet
  facet normal -4.492300e-02 -9.001049e-01 -4.333511e-01
    outer loop
      vertex   6.633068e+00 -3.349883e+01  1.961624e+01
      vertex  -5.603441e-01 -2.718817e+01  7.254182e+00
      vertex   1.612714e+01 -2.457771e+01  1.021610e-01
    endloop
  endfacet
  facet normal  3.185684e-01 -9.300168e-01 -1.832562e-01
    outer loop
      vertex   3.281440e+01 -1.601590e+01  9.038377e+00
      vertex   3.984388e+01 -1.336377e+01  7.798809e+00
      vertex   4.190358e+01 -1.450551e+01  1.717364e+01
    endloop
  endfacet
  facet normal  3.424342e-01  3.475077e-01  8.729130e-01
    outer loop
      vertex  -1.927011e+01 -7.639084e-01  5.985595e+01
      vertex  -2.497284e+01  3.095416e+00  6.055667e+01
      vertex  -2.684219e+01 -3.571089e+00  6.394394e+01
    endloop
  endfacet
  facet normal  9.154554e-01 -1.654809e-01  3.668208e-01
    outer loop
      vertex  -2.689869e+01  3.207375e+01  8.016512e+01
      vertex  -2.684219e+01 -3.571089e+00  6.394394e+01
      vertex  -2.441166e+01  3.349774e+01  7.460075e+01
    endloop
  endfacet
  facet normal  9.247440e-01  3.342994e-01  1.819128e-01
    outer loop
      vertex  -1.778400e+01 -5.515220e+00  6.021789e+01
      vertex  -1.472788e+01 -9.299896e+00  5.163734e+01
      vertex  -1.850919e+01  9.915390e-01  5.194695e+01
    endloop
  endfacet
  facet normal -4.037259e-01  9.124190e-01 -6.705882e-02
    outer loop
      vertex  -3.272494e+01  2.222364e+00  4.366000e+01
      vertex  -3.908948e+01 -1.963072e+00  2.502944e+01
      vertex  -4.007199e+01 -9.542324e-01  4.467114e+01
    endloop
  endfacet
  facet normal -9.678583e-01  8.344935e-02  2.372476e-01
    outer loop
      vertex  -2.331074e+01 -3.435470e-02  7.375607e+00
      vertex  -2.309375e+01 -6.073984e+00  1.038519e+01
      vertex  -2.090029e+01  4.123918e+00  1.574647e+01
    endloop
  endfacet
  facet normal  1.438935e-01 -7.056564e-01 -6.937894e-01
    outer loop
      vertex   3.984388e+01 -1.336377e+01  7.798809e+00
      vertex   3.281440e+01 -1.601590e+01  9.038377e+00
      vertex   2.845498e+01 -8.018473e+00  0.000000e+00
    endloop
  endfacet
  facet normal  4.072116e-01  8.780192e-01  2.515175e-01
    outer loop
      vertex  -2.045555e+01 -7.311112e+00  6.665984e+01
      vertex  -2.684219e+01 -3.571089e+00  6.394394e+01
      vertex  -3.263865e+01 -1.428459e+00  6.584884e+01
    endloop
  endfacet
  facet normal  6.781275e-01  5.440686e-01 -4.940976e-01
    outer loop
      vertex   2.172821e+01  1.324879e+01  9.642507e+00
      vertex   2.858339e+01  3.508023e+00  8.325031e+00
      vertex   1.639251e+01  1.114234e+01  0.000000e+00
    endloop
  endfacet
  facet normal  1.062957e-01  9.304468e-01 -3.506707e-01
    outer loop
      vertex   2.172821e+01  1.324879e+01  9.642507e+00
      vertex  -5.052079e+00  1.526675e+01  6.879148e+00
      vertex  -5.266775e+00  2.116727e+01  2.247015e+01
    endloop
  endfacet
  facet normal -8.335840e-01 -5.104668e-01 -2.110959e-01
    outer loop
      vertex  -5.603441e-01 -2.718817e+01  7.254182e+00
      vertex  -2.589189e+00 -3.290117e+01  2.908080e+01
      vertex  -7.748536e+00 -2.558325e+01  3.175823e+01
    endloop
  endfacet
  facet normal -6.936437e-01  7.200298e-01  2.038526e-02
    outer loop
      vertex  -2.689869e+01  3.207375e+01  8.016512e+01
      vertex  -2.727519e+01  3.188805e+01  7.391325e+01
      vertex  -3.498662e+01  2.437440e+01  7.690907e+01
    endloop
  endfacet
  facet normal  5.178398e-01 -8.399523e-01 -1.622404e-01
    outer loop
      vertex   1.612714e+01 -2.457771e+01  1.021610e-01
      vertex   3.281440e+01 -1.601590e+01  9.038377e+00
      vertex   2.347363e+01 -2.624878e+01  3.220220e+01
    endloop
  endfacet
  facet normal  9.283534e-01 -7.549888e-02  3.639505e-01
    outer loop
      vertex  -1.472788e+01 -9.299896e+00  5.163734e+01
      vertex  -1.778400e+01 -5.515220e+00  6.021789e+01
      vertex  -2.045555e+01 -7.311112e+00  6.665984e+01
    endloop
  endfacet
  facet normal -8.556601e-01 -3.621098e-01  3.697597e-01
    outer loop
      vertex  -4.090805e+01 -9.346874e+00  6.352306e+01
      vertex  -4.207513e+01 -2.577008e+01  4.473888e+01
      vertex  -3.653941e+01 -3.037143e+01  5.304295e+01
    endloop
  endfacet
  facet normal  9.588267e-01  7.183153e-02  2.747571e-01
    outer loop
      vertex   3.518588e+01 -3.012737e+00  1.954198e+01
      vertex   3.136228e+01  6.253376e+00  3.046279e+01
      vertex   3.537816e+01 -1.143126e+01  2.107187e+01
    endloop
  endfacet
  facet normal  4.293988e-01 -8.683095e-01  2.483050e-01
    outer loop
      vertex  -2.045555e+01 -7.311112e+00  6.665984e+01
      vertex  -2.428655e-01  3.372221e+00  6.906470e+01
      vertex  -3.393559e+00  5.765752e+00  8.288332e+01
    endloop
  endfacet
  facet normal -1.174584e-01  3.076353e-01  9.442267e-01
    outer loop
      vertex   1.379476e+01 -4.505839e+00  5.362352e+01
      vertex  -1.157718e+01  5.212082e+00  4.730118e+01
      vertex  -1.472788e+01 -9.299896e+00  5.163734e+01
    endloop
  endfacet
  facet normal  3.481214e-01  5.875470e-01  7.304793e-01
    outer loop
      vertex   2.804589e+01 -1.423302e+00  4.401532e+01
      vertex   2.617831e+01  6.693906e+00  3.837642e+01
      vertex   1.024147e+01  7.865211e+00  4.502925e+01
    endloop
  endfacet
  facet normal -6.220377e-02  5.115114e-01  8.570220e-01
    outer loop
      vertex  -5.830347e+00  1.341879e+01  3.203946e+01
      vertex   2.617831e+01  6.693906e+00  3.837642e+01
      vertex  -4.524890e-01  2.079734e+01  2.802592e+01
    endloop
  endfacet
  facet normal -6.066787e-02  8.884673e-01  4.549123e-01
    outer loop
      vertex   1.024147e+01  7.865211e+00  4.502925e+01
      vertex  -5.830347e+00  1.341879e+01  3.203946e+01
      vertex  -1.157718e+01  5.212082e+00  4.730118e+01
    endloop
  endfacet
  facet normal  4.846460e-01  1.521561e-01  8.613749e-01
    outer loop
      vertex  -1.157718e+01  5.212082e+00  4.730118e+01
      vertex  -1.850919e+01  9.915390e-01  5.194695e+01
      vertex  -1.472788e+01 -9.299896e+00  5.163734e+01
    endloop
  endfacet
  facet normal -6.800751e-01  5.775971e-01  4.515300e-01
    outer loop
      vertex  -3.263865e+01 -1.428459e+00  6.584884e+01
      vertex  -3.269991e+01  1.719438e+00  6.172978e+01
      vertex  -4.090805e+01 -9.346874e+00  6.352306e+01
    endloop
  endfacet
  facet normal -2.451487e-01 -2.861646e-02  9.690631e-01
    outer loop
      vertex  -4.090805e+01 -9.346874e+00  6.352306e+01
      vertex  -3.368645e+01 -1.874922e+01  6.507229e+01
      vertex  -3.263865e+01 -1.428459e+00  6.584884e+01
    endloop
  endfacet
  facet normal  8.236999e-01  5.407968e-01 -1.704621e-01
    outer loop
      vertex   3.136228e+01  6.253376e+00  3.046279e+01
      vertex   3.518588e+01 -3.012737e+00  1.954198e+01
      vertex   2.858339e+01  3.508023e+00  8.325031e+00
    endloop
  endfacet
  facet normal  7.945061e-01  5.824008e-01 -1.719569e-01
    outer loop
      vertex   2.172821e+01  1.324879e+01  9.642507e+00
      vertex   3.136228e+01  6.253376e+00  3.046279e+01
      vertex   2.858339e+01  3.508023e+00  8.325031e+00
    endloop
  endfacet
  facet normal -1.563250e-01 -9.870691e-01 -3.545606e-02
    outer loop
      vertex  -1.917433e+01 -2.291394e+01  7.822920e+00
      vertex  -7.748536e+00 -2.558325e+01  3.175823e+01
      vertex  -1.795439e+01 -2.345494e+01  1.750520e+01
    endloop
  endfacet
  facet normal  5.910210e-01  8.962506e-02 -8.016617e-01
    outer loop
      vertex   4.086395e+01  1.680422e+00  1.023277e+01
      vertex   3.984388e+01 -1.336377e+01  7.798809e+00
      vertex   2.845498e+01 -8.018473e+00  0.000000e+00
    endloop
  endfacet
  facet normal  6.546339e-01  2.793744e-01 -7.024275e-01
    outer loop
      vertex   2.858339e+01  3.508023e+00  8.325031e+00
      vertex   2.056800e+01  1.361186e+00  1.159027e-03
      vertex   1.639251e+01  1.114234e+01  0.000000e+00
    endloop
  endfacet
  facet normal  2.083383e-01  5.711321e-01 -7.939795e-01
    outer loop
      vertex   2.845498e+01 -8.018473e+00  0.000000e+00
      vertex   2.858339e+01  3.508023e+00  8.325031e+00
      vertex   4.086395e+01  1.680422e+00  1.023277e+01
    endloop
  endfacet
  facet normal -5.198473e-01 -3.095287e-01  7.962102e-01
    outer loop
      vertex  -2.684219e+01 -3.571089e+00  6.394394e+01
      vertex  -2.045555e+01 -7.311112e+00  6.665984e+01
      vertex  -3.393559e+00  5.765752e+00  8.288332e+01
    endloop
  endfacet
  facet normal  4.800782e-01 -4.009991e-01 -7.802080e-01
    outer loop
      vertex  -3.085380e+01 -2.272153e+01  3.959738e+01
      vertex  -1.805863e+01 -1.849876e+01  4.530016e+01
      vertex  -2.824336e+01 -3.023326e+01  4.506440e+01
    endloop
  endfacet
  facet normal -6.754825e-01 -1.590412e-03 -7.373743e-01
    outer loop
      vertex  -2.309375e+01 -6.073984e+00  1.038519e+01
      vertex  -3.349884e+01 -1.560937e+01  1.993749e+01
      vertex  -3.908948e+01 -1.963072e+00  2.502944e+01
    endloop
  endfacet
  facet normal  4.195799e-02 -7.234930e-01  6.890554e-01
    outer loop
      vertex  -2.281549e+01 -1.830178e+01  6.488013e+01
      vertex  -3.368645e+01 -1.874922e+01  6.507229e+01
      vertex  -3.653941e+01 -3.037143e+01  5.304295e+01
    endloop
  endfacet
  facet normal -3.332313e-01 -9.040695e-01 -2.676101e-01
    outer loop
      vertex  -2.589189e+00 -3.290117e+01  2.908080e+01
      vertex  -5.603441e-01 -2.718817e+01  7.254182e+00
      vertex   6.633068e+00 -3.349883e+01  1.961624e+01
    endloop
  endfacet
  facet normal -9.964811e-01 -7.308690e-02 -4.103495e-02
    outer loop
      vertex  -3.498662e+01  2.437440e+01  7.690907e+01
      vertex  -3.269991e+01  1.719438e+00  6.172978e+01
      vertex  -3.263865e+01 -1.428459e+00  6.584884e+01
    endloop
  endfacet
  facet normal -1.565606e-01 -6.826722e-01  7.137558e-01
    outer loop
      vertex  -8.826379e+00 -3.072544e+01  1.690039e-02
      vertex  -6.743103e+00 -2.109098e+01  9.688749e+00
      vertex  -2.549058e+01 -2.692049e+01  8.962465e-04
    endloop
  endfacet
  facet normal  1.702008e-01 -9.670952e-01 -1.890994e-01
    outer loop
      vertex  -1.917433e+01 -2.291394e+01  7.822920e+00
      vertex  -6.743103e+00 -2.109098e+01  9.688749e+00
      vertex  -7.748536e+00 -2.558325e+01  3.175823e+01
    endloop
  endfacet
  facet normal  7.225557e-02 -9.101804e-01  4.078612e-01
    outer loop
      vertex  -2.549058e+01 -2.692049e+01  8.962465e-04
      vertex  -6.743103e+00 -2.109098e+01  9.688749e+00
      vertex  -1.917433e+01 -2.291394e+01  7.822920e+00
    endloop
  endfacet
  facet normal -7.779493e-01  6.152457e-01  1.275439e-01
    outer loop
      vertex  -3.908948e+01 -1.963072e+00  2.502944e+01
      vertex  -3.272494e+01  2.222364e+00  4.366000e+01
      vertex  -3.140013e+01  7.939946e+00  2.416018e+01
    endloop
  endfacet
  facet normal  8.519989e-02 -3.670816e-01  9.262787e-01
    outer loop
      vertex   2.366137e+01 -1.739730e+01  4.760713e+01
      vertex   1.379476e+01 -4.505839e+00  5.362352e+01
      vertex   4.376334e+00 -1.801743e+01  4.913523e+01
    endloop
  endfacet
  facet normal  5.534273e-01  3.520915e-02  8.321530e-01
    outer loop
      vertex   1.379476e+01 -4.505839e+00  5.362352e+01
      vertex   2.366137e+01 -1.739730e+01  4.760713e+01
      vertex   2.804589e+01 -1.423302e+00  4.401532e+01
    endloop
  endfacet
  facet normal -1.818114e-01 -6.191645e-01 -7.639241e-01
    outer loop
      vertex  -3.085380e+01 -2.272153e+01  3.959738e+01
      vertex  -2.824336e+01 -3.023326e+01  4.506440e+01
      vertex  -4.207513e+01 -2.577008e+01  4.473888e+01
    endloop
  endfacet
  facet normal  8.193148e-01  1.205768e-01  5.605216e-01
    outer loop
      vertex   3.537816e+01 -1.143126e+01  2.107187e+01
      vertex   4.086395e+01  1.680422e+00  1.023277e+01
      vertex   3.518588e+01 -3.012737e+00  1.954198e+01
    endloop
  endfacet
  facet normal -6.885766e-01 -4.330270e-01  5.816785e-01
    outer loop
      vertex  -3.653941e+01 -3.037143e+01  5.304295e+01
      vertex  -3.368645e+01 -1.874922e+01  6.507229e+01
      vertex  -4.090805e+01 -9.346874e+00  6.352306e+01
    endloop
  endfacet
  facet normal  4.235153e-01  6.362862e-02 -9.036516e-01
    outer loop
      vertex  -2.428655e-01  3.372221e+00  6.906470e+01
      vertex  -1.778400e+01 -5.515220e+00  6.021789e+01
      vertex  -1.927011e+01 -7.639084e-01  5.985595e+01
    endloop
  endfacet
  facet normal  3.694853e-01  2.758696e-01 -8.873424e-01
    outer loop
      vertex  -2.428655e-01  3.372221e+00  6.906470e+01
      vertex  -1.927011e+01 -7.639084e-01  5.985595e+01
      vertex   5.241845e+00  1.487944e+01  7.492604e+01
    endloop
  endfacet
  facet normal -9.189708e-01 -3.478275e-01 -1.857653e-01
    outer loop
      vertex  -1.795439e+01 -2.345494e+01  1.750520e+01
      vertex  -2.309375e+01 -6.073984e+00  1.038519e+01
      vertex  -1.986667e+01 -1.199301e+01  5.503793e+00
    endloop
  endfacet
  facet normal  5.649590e-02  8.772415e-01  4.767133e-01
    outer loop
      vertex   2.858339e+01  3.508023e+00  8.325031e+00
      vertex   3.518588e+01 -3.012737e+00  1.954198e+01
      vertex   4.086395e+01  1.680422e+00  1.023277e+01
    endloop
  endfacet
  facet normal -5.701383e-01  3.786967e-01 -7.290619e-01
    outer loop
      vertex  -3.140013e+01  7.939946e+00  2.416018e+01
      vertex  -2.309375e+01 -6.073984e+00  1.038519e+01
      vertex  -3.908948e+01 -1.963072e+00  2.502944e+01
    endloop
  endfacet
  facet normal -4.291396e-01  4.909025e-01 -7.581912e-01
    outer loop
      vertex  -3.140013e+01  7.939946e+00  2.416018e+01
      vertex  -2.090029e+01  4.123918e+00  1.574647e+01
      vertex  -2.309375e+01 -6.073984e+00  1.038519e+01
    endloop
  endfacet
  facet normal  5.962263e-01  3.484439e-01  7.232572e-01
    outer loop
      vertex   4.086395e+01  1.680422e+00  1.023277e+01
      vertex   3.537816e+01 -1.143126e+01  2.107187e+01
      vertex   4.190358e+01 -1.450551e+01  1.717364e+01
    endloop
  endfacet
  facet normal  4.713488e-01 -8.805284e-01 -5.000088e-02
    outer loop
      vertex  -2.045555e+01 -7.311112e+00  6.665984e+01
      vertex  -1.778400e+01 -5.515220e+00  6.021789e+01
      vertex  -2.428655e-01  3.372221e+00  6.906470e+01
    endloop
  endfacet
  facet normal -2.850828e-01 -9.062604e-01 -3.121217e-01
    outer loop
      vertex  -4.207513e+01 -2.577008e+01  4.473888e+01
      vertex  -2.824336e+01 -3.023326e+01  4.506440e+01
      vertex  -3.653941e+01 -3.037143e+01  5.304295e+01
    endloop
  endfacet
  facet normal -8.072312e-01 -5.532842e-01  2.055589e-01
    outer loop
      vertex  -3.085380e+01 -2.272153e+01  3.959738e+01
      vertex  -3.865839e+01 -1.102348e+01  4.043528e+01
      vertex  -3.977162e+01 -1.328489e+01  2.997678e+01
    endloop
  endfacet
  facet normal -4.407134e-01 -6.983333e-01 -5.640057e-01
    outer loop
      vertex  -1.795439e+01 -2.345494e+01  1.750520e+01
      vertex  -2.698006e+01 -2.537200e+01  2.693149e+01
      vertex  -3.349884e+01 -1.560937e+01  1.993749e+01
    endloop
  endfacet
  facet normal -6.937293e-01 -6.636680e-01 -2.797936e-01
    outer loop
      vertex  -2.698006e+01 -2.537200e+01  2.693149e+01
      vertex  -3.977162e+01 -1.328489e+01  2.997678e+01
      vertex  -3.349884e+01 -1.560937e+01  1.993749e+01
    endloop
  endfacet
  facet normal -6.784489e-01  5.252817e-01  5.136012e-01
    outer loop
      vertex  -9.542184e+00  5.472689e+00  1.096467e+01
      vertex  -5.052079e+00  1.526675e+01  6.879148e+00
      vertex  -1.745600e+01  5.972135e+00  0.000000e+00
    endloop
  endfacet
  facet normal -9.917074e-01 -1.209689e-01 -4.339359e-02
    outer loop
      vertex  -3.865839e+01 -1.102348e+01  4.043528e+01
      vertex  -4.007199e+01 -9.542324e-01  4.467114e+01
      vertex  -3.908948e+01 -1.963072e+00  2.502944e+01
    endloop
  endfacet
  facet normal -3.687020e-01 -1.806756e-01 -9.118197e-01
    outer loop
      vertex  -3.865839e+01 -1.102348e+01  4.043528e+01
      vertex  -3.085380e+01 -2.272153e+01  3.959738e+01
      vertex  -4.207513e+01 -2.577008e+01  4.473888e+01
    endloop
  endfacet
  facet normal -8.842296e-01  7.011487e-02 -4.617596e-01
    outer loop
      vertex  -3.865839e+01 -1.102348e+01  4.043528e+01
      vertex  -4.207513e+01 -2.577008e+01  4.473888e+01
      vertex  -4.007199e+01 -9.542324e-01  4.467114e+01
    endloop
  endfacet
  facet normal -3.894144e-06 -1.926151e-05 -1.000000e+00
    outer loop
      vertex  -2.549058e+01 -2.692049e+01  8.962465e-04
      vertex  -8.500104e+00  1.617494e+01  0.000000e+00
      vertex   1.639251e+01  1.114234e+01  0.000000e+00
    endloop
  endfacet
  facet normal -5.057951e-01  8.247144e-01  2.530168e-01
    outer loop
      vertex  -1.157718e+01  5.212082e+00  4.730118e+01
      vertex  -5.830347e+00  1.341879e+01  3.203946e+01
      vertex  -9.701232e+00  1.279375e+01  2.633867e+01
    endloop
  endfacet
  facet normal -4.468046e-01  8.337725e-01  3.243288e-01
    outer loop
      vertex  -3.259763e+01 -2.213839e+00  1.846624e-01
      vertex  -2.331074e+01 -3.435470e-02  7.375607e+00
      vertex  -1.745600e+01  5.972135e+00  0.000000e+00
    endloop
  endfacet
  facet normal -3.936919e-01  9.188713e-01  2.611982e-02
    outer loop
      vertex  -3.272494e+01  2.222364e+00  4.366000e+01
      vertex  -4.007199e+01 -9.542324e-01  4.467114e+01
      vertex  -3.269991e+01  1.719438e+00  6.172978e+01
    endloop
  endfacet
  facet normal -4.821903e-01  8.489775e-01  2.161706e-01
    outer loop
      vertex  -3.140013e+01  7.939946e+00  2.416018e+01
      vertex  -3.272494e+01  2.222364e+00  4.366000e+01
      vertex  -2.279358e+01  9.446844e+00  3.743984e+01
    endloop
  endfacet
  facet normal -1.711776e-01  9.848521e-01  2.764798e-02
    outer loop
      vertex  -3.272494e+01  2.222364e+00  4.366000e+01
      vertex  -3.269991e+01  1.719438e+00  6.172978e+01
      vertex  -2.497284e+01  3.095416e+00  6.055667e+01
    endloop
  endfacet
  facet normal -5.503536e-01  7.804625e-01  2.966298e-01
    outer loop
      vertex   5.241845e+00  1.487944e+01  7.492604e+01
      vertex  -2.684219e+01 -3.571089e+00  6.394394e+01
      vertex  -3.393559e+00  5.765752e+00  8.288332e+01
    endloop
  endfacet
  facet normal -2.777331e-01  8.662196e-01 -4.153649e-01
    outer loop
      vertex  -9.542184e+00  5.472689e+00  1.096467e+01
      vertex  -2.090029e+01  4.123918e+00  1.574647e+01
      vertex  -9.701232e+00  1.279375e+01  2.633867e+01
    endloop
  endfacet
  facet normal  1.561454e-01  9.801355e-01 -1.222824e-01
    outer loop
      vertex  -2.497284e+01  3.095416e+00  6.055667e+01
      vertex  -1.850919e+01  9.915390e-01  5.194695e+01
      vertex  -3.272494e+01  2.222364e+00  4.366000e+01
    endloop
  endfacet
  facet normal -2.028542e-01  8.562015e-01  4.751516e-01
    outer loop
      vertex  -3.272494e+01  2.222364e+00  4.366000e+01
      vertex  -1.850919e+01  9.915390e-01  5.194695e+01
      vertex  -1.157718e+01  5.212082e+00  4.730118e+01
    endloop
  endfacet
  facet normal -4.349208e-01  8.772421e-01 -2.032001e-01
    outer loop
      vertex  -1.927011e+01 -7.639084e-01  5.985595e+01
      vertex  -2.684219e+01 -3.571089e+00  6.394394e+01
      vertex   5.241845e+00  1.487944e+01  7.492604e+01
    endloop
  endfacet
  facet normal -2.609647e-01  8.923904e-01 -3.681533e-01
    outer loop
      vertex  -9.542184e+00  5.472689e+00  1.096467e+01
      vertex  -2.331074e+01 -3.435470e-02  7.375607e+00
      vertex  -2.090029e+01  4.123918e+00  1.574647e+01
    endloop
  endfacet
  facet normal -2.213150e-01  9.746494e-01  3.283680e-02
    outer loop
      vertex  -9.701232e+00  1.279375e+01  2.633867e+01
      vertex  -3.140013e+01  7.939946e+00  2.416018e+01
      vertex  -2.279358e+01  9.446844e+00  3.743984e+01
    endloop
  endfacet
  facet normal -1.315206e-01  8.307342e-01 -5.409093e-01
    outer loop
      vertex  -9.701232e+00  1.279375e+01  2.633867e+01
      vertex  -2.090029e+01  4.123918e+00  1.574647e+01
      vertex  -3.140013e+01  7.939946e+00  2.416018e+01
    endloop
  endfacet
  facet normal -4.246867e-01  8.371710e-01  3.446535e-01
    outer loop
      vertex  -2.331074e+01 -3.435470e-02  7.375607e+00
      vertex  -9.542184e+00  5.472689e+00  1.096467e+01
      vertex  -1.745600e+01  5.972135e+00  0.000000e+00
    endloop
  endfacet
  facet normal  5.646563e-01  7.925613e-01  2.302385e-01
    outer loop
      vertex  -2.497284e+01  3.095416e+00  6.055667e+01
      vertex  -1.927011e+01 -7.639084e-01  5.985595e+01
      vertex  -1.850919e+01  9.915390e-01  5.194695e+01
    endloop
  endfacet
  facet normal  2.338322e-01 -9.518688e-01  1.981621e-01
    outer loop
      vertex  -5.603441e-01 -2.718817e+01  7.254182e+00
      vertex  -8.826379e+00 -3.072544e+01  1.690039e-02
      vertex   1.612714e+01 -2.457771e+01  1.021610e-01
    endloop
  endfacet
  facet normal  9.563236e-01 -1.369465e-01  2.582457e-01
    outer loop
      vertex  -2.684219e+01 -3.571089e+00  6.394394e+01
      vertex  -2.497284e+01  3.095416e+00  6.055667e+01
      vertex  -2.441166e+01  3.349774e+01  7.460075e+01
    endloop
  endfacet
  facet normal  9.388909e-01  3.057148e-01  1.581848e-01
    outer loop
      vertex  -1.850919e+01  9.915390e-01  5.194695e+01
      vertex  -1.927011e+01 -7.639084e-01  5.985595e+01
      vertex  -1.778400e+01 -5.515220e+00  6.021789e+01
    endloop
  endfacet
  facet normal -9.917373e-01 -3.677284e-02  1.229017e-01
    outer loop
      vertex  -1.986667e+01 -1.199301e+01  5.503793e+00
      vertex  -1.917433e+01 -2.291394e+01  7.822920e+00
      vertex  -1.795439e+01 -2.345494e+01  1.750520e+01
    endloop
  endfacet
  facet normal -3.522037e-01 -4.420740e-01 -8.249382e-01
    outer loop
      vertex  -3.349884e+01 -1.560937e+01  1.993749e+01
      vertex  -2.309375e+01 -6.073984e+00  1.038519e+01
      vertex  -1.795439e+01 -2.345494e+01  1.750520e+01
    endloop
  endfacet
  facet normal -7.621339e-01  6.033413e-01  2.348003e-01
    outer loop
      vertex  -4.090805e+01 -9.346874e+00  6.352306e+01
      vertex  -3.269991e+01  1.719438e+00  6.172978e+01
      vertex  -4.007199e+01 -9.542324e-01  4.467114e+01
    endloop
  endfacet
  facet normal  8.711903e-01  1.925388e-01 -4.516151e-01
    outer loop
      vertex  -2.497284e+01  3.095416e+00  6.055667e+01
      vertex  -2.876210e+01  3.127505e+01  6.526091e+01
      vertex  -2.441166e+01  3.349774e+01  7.460075e+01
    endloop
  endfacet
  facet normal -9.967247e-01  8.043318e-02 -8.395862e-03
    outer loop
      vertex  -4.007199e+01 -9.542324e-01  4.467114e+01
      vertex  -4.207513e+01 -2.577008e+01  4.473888e+01
      vertex  -4.090805e+01 -9.346874e+00  6.352306e+01
    endloop
  endfacet
  facet normal -9.806989e-01  1.114705e-01  1.606362e-01
    outer loop
      vertex  -3.269991e+01  1.719438e+00  6.172978e+01
      vertex  -2.727519e+01  3.188805e+01  7.391325e+01
      vertex  -2.876210e+01  3.127505e+01  6.526091e+01
    endloop
  endfacet
  facet normal -9.011760e-01  3.876541e-01 -1.939228e-01
    outer loop
      vertex  -9.542184e+00  5.472689e+00  1.096467e+01
      vertex  -9.701232e+00  1.279375e+01  2.633867e+01
      vertex  -5.266775e+00  2.116727e+01  2.247015e+01
    endloop
  endfacet
  facet normal -9.209541e-01  3.600773e-01 -1.489559e-01
    outer loop
      vertex  -9.542184e+00  5.472689e+00  1.096467e+01
      vertex  -5.266775e+00  2.116727e+01  2.247015e+01
      vertex  -5.052079e+00  1.526675e+01  6.879148e+00
    endloop
  endfacet
  facet normal -3.969469e-03 -3.214201e-03 -9.999869e-01
    outer loop
      vertex   1.612714e+01 -2.457771e+01  1.021610e-01
      vertex   2.056800e+01  1.361186e+00  1.159027e-03
      vertex   2.845498e+01 -8.018473e+00  0.000000e+00
    endloop
  endfacet
  facet normal  7.632492e-04 -8.634010e-04 -9.999994e-01
    outer loop
      vertex   1.639251e+01  1.114234e+01  0.000000e+00
      vertex  -8.826379e+00 -3.072544e+01  1.690039e-02
      vertex  -2.549058e+01 -2.692049e+01  8.962465e-04
    endloop
  endfacet
  facet normal -2.770643e-04 -2.367724e-04 -9.999999e-01
    outer loop
      vertex   2.056800e+01  1.361186e+00  1.159027e-03
      vertex  -8.826379e+00 -3.072544e+01  1.690039e-02
      vertex   1.639251e+01  1.114234e+01  0.000000e+00
    endloop
  endfacet
  facet normal  4.568706e-03 -4.675945e-03 -9.999787e-01
    outer loop
      vertex   1.612714e+01 -2.457771e+01  1.021610e-01
      vertex  -8.826379e+00 -3.072544e+01  1.690039e-02
      vertex   2.056800e+01  1.361186e+00  1.159027e-03
    endloop
  endfacet
  facet normal  5.891376e-01 -4.427648e-01 -6.759263e-01
    outer loop
      vertex   2.845498e+01 -8.018473e+00  0.000000e+00
      vertex   3.281440e+01 -1.601590e+01  9.038377e+00
      vertex   1.612714e+01 -2.457771e+01  1.021610e-01
    endloop
  endfacet
  facet normal  1.606808e-01 -3.764683e-01  9.123887e-01
    outer loop
      vertex  -3.263865e+01 -1.428459e+00  6.584884e+01
      vertex  -2.684219e+01 -3.571089e+00  6.394394e+01
      vertex  -3.498662e+01  2.437440e+01  7.690907e+01
    endloop
  endfacet
  facet normal  2.421442e-02 -1.648645e-01  9.860189e-01
    outer loop
      vertex  -2.045555e+01 -7.311112e+00  6.665984e+01
      vertex  -3.368645e+01 -1.874922e+01  6.507229e+01
      vertex  -2.281549e+01 -1.830178e+01  6.488013e+01
    endloop
  endfacet
  facet normal  2.782999e-02 -4.140076e-01  9.098480e-01
    outer loop
      vertex  -3.498662e+01  2.437440e+01  7.690907e+01
      vertex  -2.684219e+01 -3.571089e+00  6.394394e+01
      vertex  -2.689869e+01  3.207375e+01  8.016512e+01
    endloop
  endfacet
  facet normal -8.533269e-02 -3.947279e-02  9.955703e-01
    outer loop
      vertex  -3.263865e+01 -1.428459e+00  6.584884e+01
      vertex  -3.368645e+01 -1.874922e+01  6.507229e+01
      vertex  -2.045555e+01 -7.311112e+00  6.665984e+01
    endloop
  endfacet
  facet normal  5.727123e-02 -8.963224e-01  4.396887e-01
    outer loop
      vertex   2.347363e+01 -2.624878e+01  3.220220e+01
      vertex   5.438558e+00 -2.554017e+01  3.599587e+01
      vertex   6.633068e+00 -3.349883e+01  1.961624e+01
    endloop
  endfacet
  facet normal -6.544248e-02 -8.682410e-01  4.918077e-01
    outer loop
      vertex  -1.805863e+01 -1.849876e+01  4.530016e+01
      vertex   5.438558e+00 -2.554017e+01  3.599587e+01
      vertex   4.376334e+00 -1.801743e+01  4.913523e+01
    endloop
  endfacet
  facet normal  3.181114e-02 -9.849555e-01 -1.698550e-01
    outer loop
      vertex  -2.698006e+01 -2.537200e+01  2.693149e+01
      vertex  -1.795439e+01 -2.345494e+01  1.750520e+01
      vertex  -7.748536e+00 -2.558325e+01  3.175823e+01
    endloop
  endfacet
  facet normal  3.841223e-01 -8.191226e-01  4.260144e-01
    outer loop
      vertex   6.633068e+00 -3.349883e+01  1.961624e+01
      vertex   5.438558e+00 -2.554017e+01  3.599587e+01
      vertex  -2.589189e+00 -3.290117e+01  2.908080e+01
    endloop
  endfacet
  facet normal  7.040346e-02 -8.652797e-01  4.963209e-01
    outer loop
      vertex   5.438558e+00 -2.554017e+01  3.599587e+01
      vertex   2.347363e+01 -2.624878e+01  3.220220e+01
      vertex   2.366137e+01 -1.739730e+01  4.760713e+01
    endloop
  endfacet
  facet normal  1.970625e-01 -9.457837e-01  2.581849e-01
    outer loop
      vertex  -3.085380e+01 -2.272153e+01  3.959738e+01
      vertex  -2.698006e+01 -2.537200e+01  2.693149e+01
      vertex  -1.805863e+01 -1.849876e+01  4.530016e+01
    endloop
  endfacet
  facet normal -1.211115e-01 -9.144375e-01  3.861815e-01
    outer loop
      vertex   5.438558e+00 -2.554017e+01  3.599587e+01
      vertex  -1.805863e+01 -1.849876e+01  4.530016e+01
      vertex  -7.748536e+00 -2.558325e+01  3.175823e+01
    endloop
  endfacet
  facet normal -1.090018e-01 -9.124646e-01  3.943691e-01
    outer loop
      vertex  -2.698006e+01 -2.537200e+01  2.693149e+01
      vertex  -7.748536e+00 -2.558325e+01  3.175823e+01
      vertex  -1.805863e+01 -1.849876e+01  4.530016e+01
    endloop
  endfacet
  facet normal  7.417649e-01  4.892928e-01  4.586692e-01
    outer loop
      vertex   3.136228e+01  6.253376e+00  3.046279e+01
      vertex   2.617831e+01  6.693906e+00  3.837642e+01
      vertex   2.804589e+01 -1.423302e+00  4.401532e+01
    endloop
  endfacet
  facet normal  9.754453e-01 -3.085877e-02 -2.180692e-01
    outer loop
      vertex   4.190358e+01 -1.450551e+01  1.717364e+01
      vertex   3.984388e+01 -1.336377e+01  7.798809e+00
      vertex   4.086395e+01  1.680422e+00  1.023277e+01
    endloop
  endfacet
  facet normal  2.224648e-01  9.664456e-01 -1.284220e-01
    outer loop
      vertex  -4.524890e-01  2.079734e+01  2.802592e+01
      vertex   2.172821e+01  1.324879e+01  9.642507e+00
      vertex  -5.266775e+00  2.116727e+01  2.247015e+01
    endloop
  endfacet
  facet normal  3.934619e-01  8.955268e-01  2.078930e-01
    outer loop
      vertex  -4.524890e-01  2.079734e+01  2.802592e+01
      vertex   2.617831e+01  6.693906e+00  3.837642e+01
      vertex   3.136228e+01  6.253376e+00  3.046279e+01
    endloop
  endfacet
  facet normal  9.958492e-02  9.591901e-01 -2.646454e-01
    outer loop
      vertex   1.639251e+01  1.114234e+01  0.000000e+00
      vertex  -5.052079e+00  1.526675e+01  6.879148e+00
      vertex   2.172821e+01  1.324879e+01  9.642507e+00
    endloop
  endfacet
  facet normal  4.054818e-01  9.065873e-01  1.169779e-01
    outer loop
      vertex   3.136228e+01  6.253376e+00  3.046279e+01
      vertex   2.172821e+01  1.324879e+01  9.642507e+00
      vertex  -4.524890e-01  2.079734e+01  2.802592e+01
    endloop
  endfacet
  facet normal  1.980737e-01  9.797260e-01  3.006433e-02
    outer loop
      vertex  -5.052079e+00  1.526675e+01  6.879148e+00
      vertex   1.639251e+01  1.114234e+01  0.000000e+00
      vertex  -8.500104e+00  1.617494e+01  0.000000e+00
    endloop
  endfacet
  facet normal -9.128528e-01 -2.078983e-01 -3.513944e-01
    outer loop
      vertex  -1.986667e+01 -1.199301e+01  5.503793e+00
      vertex  -2.309375e+01 -6.073984e+00  1.038519e+01
      vertex  -2.331074e+01 -3.435470e-02  7.375607e+00
    endloop
  endfacet
  facet normal -7.249954e-01 -6.677126e-01 -1.689427e-01
    outer loop
      vertex  -7.748536e+00 -2.558325e+01  3.175823e+01
      vertex  -6.743103e+00 -2.109098e+01  9.688749e+00
      vertex  -5.603441e-01 -2.718817e+01  7.254182e+00
    endloop
  endfacet
  facet normal  7.990182e-01 -5.985226e-01  5.779845e-02
    outer loop
      vertex   3.281440e+01 -1.601590e+01  9.038377e+00
      vertex   3.537816e+01 -1.143126e+01  2.107187e+01
      vertex   2.347363e+01 -2.624878e+01  3.220220e+01
    endloop
  endfacet
  facet normal -6.928478e-01 -3.020280e-01  6.547831e-01
    outer loop
      vertex  -2.331074e+01 -3.435470e-02  7.375607e+00
      vertex  -2.503027e+01 -1.207976e+01  0.000000e+00
      vertex  -1.986667e+01 -1.199301e+01  5.503793e+00
    endloop
  endfacet
  facet normal -5.011207e-01 -3.987450e-01  7.680367e-01
    outer loop
      vertex  -2.331074e+01 -3.435470e-02  7.375607e+00
      vertex  -3.259763e+01 -2.213839e+00  1.846624e-01
      vertex  -2.503027e+01 -1.207976e+01  0.000000e+00
    endloop
  endfacet
  facet normal -4.941399e-01  8.690689e-01  2.334681e-02
    outer loop
      vertex  -2.441166e+01  3.349774e+01  7.460075e+01
      vertex  -2.876210e+01  3.127505e+01  6.526091e+01
      vertex  -2.727519e+01  3.188805e+01  7.391325e+01
    endloop
  endfacet
  facet normal  8.389698e-01 -4.761895e-01  2.633879e-01
    outer loop
      vertex   2.366137e+01 -1.739730e+01  4.760713e+01
      vertex   2.347363e+01 -2.624878e+01  3.220220e+01
      vertex   3.537816e+01 -1.143126e+01  2.107187e+01
    endloop
  endfacet
  facet normal -4.906858e-01  8.713289e-01  3.668757e-03
    outer loop
      vertex  -2.689869e+01  3.207375e+01  8.016512e+01
      vertex  -2.441166e+01  3.349774e+01  7.460075e+01
      vertex  -2.727519e+01  3.188805e+01  7.391325e+01
    endloop
  endfacet
  facet normal  4.867111e-01 -8.594967e-01 -1.561337e-01
    outer loop
      vertex   6.633068e+00 -3.349883e+01  1.961624e+01
      vertex   1.612714e+01 -2.457771e+01  1.021610e-01
      vertex   2.347363e+01 -2.624878e+01  3.220220e+01
    endloop
  endfacet
  facet normal  7.401366e-01 -6.461310e-01  1.863129e-01
    outer loop
      vertex  -1.805863e+01 -1.849876e+01  4.530016e+01
      vertex  -2.281549e+01 -1.830178e+01  6.488013e+01
      vertex  -2.824336e+01 -3.023326e+01  4.506440e+01
    endloop
  endfacet
  facet normal  8.926066e-01 -2.521771e-01  3.737112e-01
    outer loop
      vertex  -2.281549e+01 -1.830178e+01  6.488013e+01
      vertex  -1.472788e+01 -9.299896e+00  5.163734e+01
      vertex  -2.045555e+01 -7.311112e+00  6.665984e+01
    endloop
  endfacet
  facet normal  3.921128e-01 -8.315955e-01  3.933147e-01
    outer loop
      vertex  -2.281549e+01 -1.830178e+01  6.488013e+01
      vertex  -3.653941e+01 -3.037143e+01  5.304295e+01
      vertex  -2.824336e+01 -3.023326e+01  4.506440e+01
    endloop
  endfacet
  facet normal  8.619729e-01 -4.595558e-01  2.140355e-01
    outer loop
      vertex  -2.281549e+01 -1.830178e+01  6.488013e+01
      vertex  -1.805863e+01 -1.849876e+01  4.530016e+01
      vertex  -1.472788e+01 -9.299896e+00  5.163734e+01
    endloop
  endfacet
  facet normal  9.151222e-01 -1.688594e-01  3.661117e-01
    outer loop
      vertex   2.804589e+01 -1.423302e+00  4.401532e+01
      vertex   2.366137e+01 -1.739730e+01  4.760713e+01
      vertex   3.537816e+01 -1.143126e+01  2.107187e+01
    endloop
  endfacet
  facet normal  9.587286e-01  7.159470e-02  2.751611e-01
    outer loop
      vertex   3.136228e+01  6.253376e+00  3.046279e+01
      vertex   2.804589e+01 -1.423302e+00  4.401532e+01
      vertex   3.537816e+01 -1.143126e+01  2.107187e+01
    endloop
  endfacet
  facet normal -7.292772e-01  2.266104e-02  6.838430e-01
    outer loop
      vertex  -2.549058e+01 -2.692049e+01  8.962465e-04
      vertex  -1.986667e+01 -1.199301e+01  5.503793e+00
      vertex  -2.503027e+01 -1.207976e+01  0.000000e+00
    endloop
  endfacet
  facet normal -1.577146e-02  6.617440e-03 -9.998537e-01
    outer loop
      vertex  -2.503027e+01 -1.207976e+01  0.000000e+00
      vertex  -3.259763e+01 -2.213839e+00  1.846624e-01
      vertex  -1.745600e+01  5.972135e+00  0.000000e+00
    endloop
  endfacet
  facet normal  0.000000e+00 -0.000000e+00 -1.000000e+00
    outer loop
      vertex  -1.745600e+01  5.972135e+00  0.000000e+00
      vertex  -8.500104e+00  1.617494e+01  0.000000e+00
      vertex  -2.503027e+01 -1.207976e+01  0.000000e+00
    endloop
  endfacet
  facet normal  1.090041e-04 -6.377191e-05 -1.000000e+00
    outer loop
      vertex  -8.500104e+00  1.617494e+01  0.000000e+00
      vertex  -2.549058e+01 -2.692049e+01  8.962465e-04
      vertex  -2.503027e+01 -1.207976e+01  0.000000e+00
    endloop
  endfacet
  facet normal -6.817816e-01  5.984595e-01  4.207377e-01
    outer loop
      vertex  -8.500104e+00  1.617494e+01  0.000000e+00
      vertex  -1.745600e+01  5.972135e+00  0.000000e+00
      vertex  -5.052079e+00  1.526675e+01  6.879148e+00
    endloop
  endfacet
  facet normal -1.318835e-01 -5.295345e-01  8.379737e-01
    outer loop
      vertex  -1.472788e+01 -9.299896e+00  5.163734e+01
      vertex  -1.805863e+01 -1.849876e+01  4.530016e+01
      vertex   4.376334e+00 -1.801743e+01  4.913523e+01
    endloop
  endfacet
  facet normal -1.488331e-02 -3.058493e-01  9.519636e-01
    outer loop
      vertex   1.379476e+01 -4.505839e+00  5.362352e+01
      vertex  -1.472788e+01 -9.299896e+00  5.163734e+01
      vertex   4.376334e+00 -1.801743e+01  4.913523e+01
    endloop
  endfacet
  facet normal  1.555301e-02  5.734821e-01  8.190705e-01
    outer loop
      vertex   1.379476e+01 -4.505839e+00  5.362352e+01
      vertex   1.024147e+01  7.865211e+00  4.502925e+01
      vertex  -1.157718e+01  5.212082e+00  4.730118e+01
    endloop
  endfacet
  facet normal  3.539001e-01  6.000490e-01  7.174231e-01
    outer loop
      vertex   1.379476e+01 -4.505839e+00  5.362352e+01
      vertex   2.804589e+01 -1.423302e+00  4.401532e+01
      vertex   1.024147e+01  7.865211e+00  4.502925e+01
    endloop
  endfacet
  facet normal  5.177878e-02  9.376312e-01  3.437538e-01
    outer loop
      vertex  -1.157718e+01  5.212082e+00  4.730118e+01
      vertex  -9.701232e+00  1.279375e+01  2.633867e+01
      vertex  -2.279358e+01  9.446844e+00  3.743984e+01
    endloop
  endfacet
  facet normal -2.109873e-01  7.880133e-01  5.783765e-01
    outer loop
      vertex  -3.272494e+01  2.222364e+00  4.366000e+01
      vertex  -1.157718e+01  5.212082e+00  4.730118e+01
      vertex  -2.279358e+01  9.446844e+00  3.743984e+01
    endloop
  endfacet
  facet normal  6.737193e-02 -8.634992e-01  4.998300e-01
    outer loop
      vertex   5.438558e+00 -2.554017e+01  3.599587e+01
      vertex   2.366137e+01 -1.739730e+01  4.760713e+01
      vertex   4.376334e+00 -1.801743e+01  4.913523e+01
    endloop
  endfacet
endsolid vcg
