solid STL generated by MeshLab
  facet normal -1.471256e-01  2.859532e-01 -9.468816e-01
    outer loop
      vertex  -3.269991e+01  1.719438e+00  6.172978e+01
      vertex  -2.632336e+01  2.793194e+01  6.865504e+01
      vertex  -2.289170e+01 -8.537485e-01  5.942870e+01
    endloop
  endfacet
  facet normal  1.675358e-01  9.716355e-01  1.669021e-01
    outer loop
      vertex  -9.195389e+00  1.377516e+01  3.013464e+01
      vertex   1.024147e+01  7.865211e+00  4.502925e+01
      vertex   3.070068e+01  5.458129e+00  3.850542e+01
    endloop
  endfacet
  facet normal -9.425905e-01 -7.612582e-02  3.251587e-01
    outer loop
      vertex  -1.645860e+01 -2.335108e+01  1.599278e+01
      vertex  -2.051179e+01 -6.287479e+00  8.238034e+00
      vertex  -2.147953e+01 -2.955904e+01 -1.563060e-02
    endloop
  endfacet
  facet normal  5.250068e-01  6.757153e-01 -5.174714e-01
    outer loop
      vertex   2.264612e+01  1.256977e+01  9.039298e+00
      vertex   3.834486e+01 -2.247455e+00  5.618277e+00
      vertex   1.549858e+01  1.119468e+01 -7.917290e-03
    endloop
  endfacet
  facet normal -1.145512e-01 -8.181603e-01  5.634640e-01
    outer loop
      vertex   3.711533e+00 -3.452877e+01  2.109896e+01
      vertex   2.233718e+01 -1.811803e+01  4.871424e+01
      vertex  -7.748536e+00 -2.558325e+01  3.175823e+01
    endloop
  endfacet
  facet normal  8.061679e-01 -5.241116e-01  2.745909e-01
    outer loop
      vertex  -2.428655e-01  3.372221e+00  6.906470e+01
      vertex   5.241845e+00  1.487944e+01  7.492604e+01
      vertex  -3.393559e+00  5.765752e+00  8.288332e+01
    endloop
  endfacet
  facet normal -8.507913e-01  3.175814e-01 -4.186838e-01
    outer loop
      vertex  -3.076980e+01  2.932066e+01  7.874385e+01
      vertex  -2.632336e+01  2.793194e+01  6.865504e+01
      vertex  -3.269991e+01  1.719438e+00  6.172978e+01
    endloop
  endfacet
  facet normal -9.800658e-01  4.416729e-02 -1.937013e-01
    outer loop
      vertex  -3.723512e+01 -1.536979e+01  2.299625e+01
      vertex  -4.025391e+01 -1.667856e+00  4.139464e+01
      vertex  -3.656494e+01  4.198622e+00  2.406729e+01
    endloop
  endfacet
  facet normal -1.997626e-01 -8.344542e-01 -5.135962e-01
    outer loop
      vertex   3.711533e+00 -3.452877e+01  2.109896e+01
      vertex  -3.780715e+00 -2.423290e+01  7.285069e+00
      vertex   1.612714e+01 -2.457771e+01  1.021610e-01
    endloop
  endfacet
  facet normal  9.055285e-01 -9.861085e-02  4.126670e-01
    outer loop
      vertex  -3.076980e+01  2.932066e+01  7.874385e+01
      vertex  -2.793788e+01 -4.142148e+00  6.453342e+01
      vertex  -2.632336e+01  2.793194e+01  6.865504e+01
    endloop
  endfacet
  facet normal  9.075909e-01  4.192224e-01  2.305330e-02
    outer loop
      vertex  -2.289170e+01 -8.537485e-01  5.942870e+01
      vertex  -1.627015e+01 -1.473152e+01  5.110927e+01
      vertex  -2.528392e+01  5.044593e+00  4.634779e+01
    endloop
  endfacet
  facet normal -4.547053e-01  8.685253e-01  1.972483e-01
    outer loop
      vertex  -2.528392e+01  5.044593e+00  4.634779e+01
      vertex  -3.656494e+01  4.198622e+00  2.406729e+01
      vertex  -4.025391e+01 -1.667856e+00  4.139464e+01
    endloop
  endfacet
  facet normal  1.363974e-01  9.358629e-01 -3.248944e-01
    outer loop
      vertex   2.264612e+01  1.256977e+01  9.039298e+00
      vertex  -6.988915e+00  1.378391e+01  9.524132e-02
      vertex  -4.603843e+00  2.264182e+01  2.661190e+01
    endloop
  endfacet
  facet normal -6.917580e-01 -7.061405e-01 -1.511169e-01
    outer loop
      vertex  -3.780715e+00 -2.423290e+01  7.285069e+00
      vertex   3.711533e+00 -3.452877e+01  2.109896e+01
      vertex  -7.748536e+00 -2.558325e+01  3.175823e+01
    endloop
  endfacet
  facet normal  5.556223e-01 -8.139668e-01 -1.695347e-01
    outer loop
      vertex   1.612714e+01 -2.457771e+01  1.021610e-01
      vertex   3.919627e+01 -1.116326e+01  1.130228e+01
      vertex   2.347363e+01 -2.624878e+01  3.220220e+01
    endloop
  endfacet
  facet normal  9.132459e-01  4.039406e-01  5.304592e-02
    outer loop
      vertex  -1.627015e+01 -1.473152e+01  5.110927e+01
      vertex  -2.289170e+01 -8.537485e-01  5.942870e+01
      vertex  -2.045555e+01 -7.311112e+00  6.665984e+01
    endloop
  endfacet
  facet normal -7.670726e-01 -4.586160e-01  4.486322e-01
    outer loop
      vertex  -4.090805e+01 -9.346874e+00  6.352306e+01
      vertex  -4.207513e+01 -2.577008e+01  4.473888e+01
      vertex  -3.485391e+01 -3.321769e+01  4.947240e+01
    endloop
  endfacet
  facet normal  4.293988e-01 -8.683095e-01  2.483050e-01
    outer loop
      vertex  -2.045555e+01 -7.311112e+00  6.665984e+01
      vertex  -2.428655e-01  3.372221e+00  6.906470e+01
      vertex  -3.393559e+00  5.765752e+00  8.288332e+01
    endloop
  endfacet
  facet normal -1.397612e-01  1.711172e-01  9.752875e-01
    outer loop
      vertex   1.379476e+01 -4.505839e+00  5.362352e+01
      vertex  -2.528392e+01  5.044593e+00  4.634779e+01
      vertex  -1.627015e+01 -1.473152e+01  5.110927e+01
    endloop
  endfacet
  facet normal -1.036985e-01  4.131530e-01  9.047381e-01
    outer loop
      vertex  -9.195389e+00  1.377516e+01  3.013464e+01
      vertex   3.070068e+01  5.458129e+00  3.850542e+01
      vertex  -4.603843e+00  2.264182e+01  2.661190e+01
    endloop
  endfacet
  facet normal -5.558148e-02  9.010842e-01  4.300674e-01
    outer loop
      vertex   1.024147e+01  7.865211e+00  4.502925e+01
      vertex  -9.195389e+00  1.377516e+01  3.013464e+01
      vertex  -2.528392e+01  5.044593e+00  4.634779e+01
    endloop
  endfacet
  facet normal -1.906430e-01  2.932182e-01  9.368448e-01
    outer loop
      vertex  -2.793788e+01 -4.142148e+00  6.453342e+01
      vertex  -3.269991e+01  1.719438e+00  6.172978e+01
      vertex  -4.090805e+01 -9.346874e+00  6.352306e+01
    endloop
  endfacet
  facet normal -1.048410e-01  6.867048e-02  9.921153e-01
    outer loop
      vertex  -4.090805e+01 -9.346874e+00  6.352306e+01
      vertex  -2.565225e+01 -2.026857e+01  6.589116e+01
      vertex  -2.793788e+01 -4.142148e+00  6.453342e+01
    endloop
  endfacet
  facet normal  8.209804e-01  5.640915e-01 -8.827157e-02
    outer loop
      vertex   3.070068e+01  5.458129e+00  3.850542e+01
      vertex   3.919627e+01 -1.116326e+01  1.130228e+01
      vertex   2.264612e+01  1.256977e+01  9.039298e+00
    endloop
  endfacet
  facet normal -4.140992e-01 -4.448870e-01  7.941015e-01
    outer loop
      vertex  -2.793788e+01 -4.142148e+00  6.453342e+01
      vertex  -2.045555e+01 -7.311112e+00  6.665984e+01
      vertex  -3.393559e+00  5.765752e+00  8.288332e+01
    endloop
  endfacet
  facet normal  6.920601e-01 -6.724862e-01 -2.623264e-01
    outer loop
      vertex  -3.068468e+01 -2.343995e+01  3.540583e+01
      vertex  -1.627015e+01 -1.473152e+01  5.110927e+01
      vertex  -3.485391e+01 -3.321769e+01  4.947240e+01
    endloop
  endfacet
  facet normal -6.794542e-01  6.327904e-02 -7.309840e-01
    outer loop
      vertex  -2.051179e+01 -6.287479e+00  8.238034e+00
      vertex  -3.723512e+01 -1.536979e+01  2.299625e+01
      vertex  -3.656494e+01  4.198622e+00  2.406729e+01
    endloop
  endfacet
  facet normal -7.388451e-01 -3.154151e-01  5.955009e-01
    outer loop
      vertex  -3.076980e+01  2.932066e+01  7.874385e+01
      vertex  -3.269991e+01  1.719438e+00  6.172978e+01
      vertex  -2.793788e+01 -4.142148e+00  6.453342e+01
    endloop
  endfacet
  facet normal -1.197148e-01 -9.900439e-01 -7.403664e-02
    outer loop
      vertex  -1.645860e+01 -2.335108e+01  1.599278e+01
      vertex  -3.780715e+00 -2.423290e+01  7.285069e+00
      vertex  -7.748536e+00 -2.558325e+01  3.175823e+01
    endloop
  endfacet
  facet normal  1.516628e-01 -9.366710e-01  3.156673e-01
    outer loop
      vertex  -2.147953e+01 -2.955904e+01 -1.563060e-02
      vertex  -3.780715e+00 -2.423290e+01  7.285069e+00
      vertex  -1.645860e+01 -2.335108e+01  1.599278e+01
    endloop
  endfacet
  facet normal  6.244320e-01  1.131383e-01  7.728418e-01
    outer loop
      vertex   1.379476e+01 -4.505839e+00  5.362352e+01
      vertex   2.233718e+01 -1.811803e+01  4.871424e+01
      vertex   3.070068e+01  5.458129e+00  3.850542e+01
    endloop
  endfacet
  facet normal -3.465773e-01 -7.189620e-01 -6.024764e-01
    outer loop
      vertex  -3.068468e+01 -2.343995e+01  3.540583e+01
      vertex  -3.485391e+01 -3.321769e+01  4.947240e+01
      vertex  -4.207513e+01 -2.577008e+01  4.473888e+01
    endloop
  endfacet
  facet normal -4.879092e-01 -5.313718e-01  6.925234e-01
    outer loop
      vertex  -3.485391e+01 -3.321769e+01  4.947240e+01
      vertex  -2.565225e+01 -2.026857e+01  6.589116e+01
      vertex  -4.090805e+01 -9.346874e+00  6.352306e+01
    endloop
  endfacet
  facet normal  3.250596e-01  3.016109e-01 -8.963075e-01
    outer loop
      vertex  -2.428655e-01  3.372221e+00  6.906470e+01
      vertex  -2.289170e+01 -8.537485e-01  5.942870e+01
      vertex   5.241845e+00  1.487944e+01  7.492604e+01
    endloop
  endfacet
  facet normal  5.895212e-01  4.735007e-01  6.544171e-01
    outer loop
      vertex   2.264612e+01  1.256977e+01  9.039298e+00
      vertex   3.919627e+01 -1.116326e+01  1.130228e+01
      vertex   3.834486e+01 -2.247455e+00  5.618277e+00
    endloop
  endfacet
  facet normal -3.592889e-01  5.678751e-01 -7.405601e-01
    outer loop
      vertex  -3.656494e+01  4.198622e+00  2.406729e+01
      vertex  -1.347447e+01  3.329536e+00  1.219833e+01
      vertex  -2.051179e+01 -6.287479e+00  8.238034e+00
    endloop
  endfacet
  facet normal  4.037805e-01 -6.105862e-01 -6.812825e-01
    outer loop
      vertex  -2.045555e+01 -7.311112e+00  6.665984e+01
      vertex  -2.289170e+01 -8.537485e-01  5.942870e+01
      vertex  -2.428655e-01  3.372221e+00  6.906470e+01
    endloop
  endfacet
  facet normal -8.810809e-01 -4.370078e-01  1.808883e-01
    outer loop
      vertex  -3.068468e+01 -2.343995e+01  3.540583e+01
      vertex  -4.025391e+01 -1.667856e+00  4.139464e+01
      vertex  -3.723512e+01 -1.536979e+01  2.299625e+01
    endloop
  endfacet
  facet normal -4.318700e-01 -8.431319e-01 -3.203386e-01
    outer loop
      vertex  -1.645860e+01 -2.335108e+01  1.599278e+01
      vertex  -3.068468e+01 -2.343995e+01  3.540583e+01
      vertex  -3.723512e+01 -1.536979e+01  2.299625e+01
    endloop
  endfacet
  facet normal -5.606285e-01  7.511885e-01  3.484413e-01
    outer loop
      vertex  -1.347447e+01  3.329536e+00  1.219833e+01
      vertex  -6.988915e+00  1.378391e+01  9.524132e-02
      vertex  -2.825508e+01 -2.152590e+00  2.355609e-01
    endloop
  endfacet
  facet normal -6.251587e-01 -6.072932e-02 -7.781315e-01
    outer loop
      vertex  -4.025391e+01 -1.667856e+00  4.139464e+01
      vertex  -3.068468e+01 -2.343995e+01  3.540583e+01
      vertex  -4.207513e+01 -2.577008e+01  4.473888e+01
    endloop
  endfacet
  facet normal -4.133653e-03  3.939955e-03 -9.999837e-01
    outer loop
      vertex  -2.147953e+01 -2.955904e+01 -1.563060e-02
      vertex  -6.988915e+00  1.378391e+01  9.524132e-02
      vertex   1.549858e+01  1.119468e+01 -7.917290e-03
    endloop
  endfacet
  facet normal -4.091437e-01  9.124700e-01 -6.427071e-06
    outer loop
      vertex  -2.528392e+01  5.044593e+00  4.634779e+01
      vertex  -4.025391e+01 -1.667856e+00  4.139464e+01
      vertex  -3.269991e+01  1.719438e+00  6.172978e+01
    endloop
  endfacet
  facet normal  3.127534e-01  8.860056e-01  3.423146e-01
    outer loop
      vertex  -2.528392e+01  5.044593e+00  4.634779e+01
      vertex  -3.269991e+01  1.719438e+00  6.172978e+01
      vertex  -2.289170e+01 -8.537485e-01  5.942870e+01
    endloop
  endfacet
  facet normal -5.437775e-01  7.817503e-01  3.052413e-01
    outer loop
      vertex   5.241845e+00  1.487944e+01  7.492604e+01
      vertex  -2.793788e+01 -4.142148e+00  6.453342e+01
      vertex  -3.393559e+00  5.765752e+00  8.288332e+01
    endloop
  endfacet
  facet normal -5.086505e-01  8.594705e-01  5.084319e-02
    outer loop
      vertex  -2.289170e+01 -8.537485e-01  5.942870e+01
      vertex  -2.793788e+01 -4.142148e+00  6.453342e+01
      vertex   5.241845e+00  1.487944e+01  7.492604e+01
    endloop
  endfacet
  facet normal -3.552277e-01  9.234978e-01  1.447937e-01
    outer loop
      vertex  -9.195389e+00  1.377516e+01  3.013464e+01
      vertex  -3.656494e+01  4.198622e+00  2.406729e+01
      vertex  -2.528392e+01  5.044593e+00  4.634779e+01
    endloop
  endfacet
  facet normal -2.020068e-01  8.665175e-01 -4.564433e-01
    outer loop
      vertex  -9.195389e+00  1.377516e+01  3.013464e+01
      vertex  -1.347447e+01  3.329536e+00  1.219833e+01
      vertex  -3.656494e+01  4.198622e+00  2.406729e+01
    endloop
  endfacet
  facet normal  1.204163e-01 -9.180194e-01  3.778100e-01
    outer loop
      vertex  -3.780715e+00 -2.423290e+01  7.285069e+00
      vertex  -2.147953e+01 -2.955904e+01 -1.563060e-02
      vertex   1.612714e+01 -2.457771e+01  1.021610e-01
    endloop
  endfacet
  facet normal  7.440054e-01 -1.218733e-01  6.569649e-01
    outer loop
      vertex  -2.793788e+01 -4.142148e+00  6.453342e+01
      vertex  -2.289170e+01 -8.537485e-01  5.942870e+01
      vertex  -2.632336e+01  2.793194e+01  6.865504e+01
    endloop
  endfacet
  facet normal -4.366121e-01 -4.561223e-01 -7.754498e-01
    outer loop
      vertex  -3.723512e+01 -1.536979e+01  2.299625e+01
      vertex  -2.051179e+01 -6.287479e+00  8.238034e+00
      vertex  -1.645860e+01 -2.335108e+01  1.599278e+01
    endloop
  endfacet
  facet normal -7.742885e-01  6.045977e-01  1.869192e-01
    outer loop
      vertex  -4.090805e+01 -9.346874e+00  6.352306e+01
      vertex  -3.269991e+01  1.719438e+00  6.172978e+01
      vertex  -4.025391e+01 -1.667856e+00  4.139464e+01
    endloop
  endfacet
  facet normal -9.971876e-01  7.486443e-02 -3.498290e-03
    outer loop
      vertex  -4.025391e+01 -1.667856e+00  4.139464e+01
      vertex  -4.207513e+01 -2.577008e+01  4.473888e+01
      vertex  -4.090805e+01 -9.346874e+00  6.352306e+01
    endloop
  endfacet
  facet normal -8.943776e-01  4.449658e-01 -4.576345e-02
    outer loop
      vertex  -1.347447e+01  3.329536e+00  1.219833e+01
      vertex  -9.195389e+00  1.377516e+01  3.013464e+01
      vertex  -4.603843e+00  2.264182e+01  2.661190e+01
    endloop
  endfacet
  facet normal -8.838461e-01  4.617659e-01 -7.475477e-02
    outer loop
      vertex  -1.347447e+01  3.329536e+00  1.219833e+01
      vertex  -4.603843e+00  2.264182e+01  2.661190e+01
      vertex  -6.988915e+00  1.378391e+01  9.524132e-02
    endloop
  endfacet
  facet normal  2.397989e-01  1.226142e-03 -9.708217e-01
    outer loop
      vertex   1.612714e+01 -2.457771e+01  1.021610e-01
      vertex   1.549858e+01  1.119468e+01 -7.917290e-03
      vertex   3.834486e+01 -2.247455e+00  5.618277e+00
    endloop
  endfacet
  facet normal  3.531544e-03 -3.015101e-03 -9.999892e-01
    outer loop
      vertex   1.612714e+01 -2.457771e+01  1.021610e-01
      vertex  -2.147953e+01 -2.955904e+01 -1.563060e-02
      vertex   1.549858e+01  1.119468e+01 -7.917290e-03
    endloop
  endfacet
  facet normal  5.776911e-01 -3.988563e-01 -7.121704e-01
    outer loop
      vertex   3.834486e+01 -2.247455e+00  5.618277e+00
      vertex   3.919627e+01 -1.116326e+01  1.130228e+01
      vertex   1.612714e+01 -2.457771e+01  1.021610e-01
    endloop
  endfacet
  facet normal -2.553616e-01  4.512063e-02  9.657922e-01
    outer loop
      vertex  -2.793788e+01 -4.142148e+00  6.453342e+01
      vertex  -2.565225e+01 -2.026857e+01  6.589116e+01
      vertex  -2.045555e+01 -7.311112e+00  6.665984e+01
    endloop
  endfacet
  facet normal  1.215600e-01 -8.871387e-01  4.452057e-01
    outer loop
      vertex   2.347363e+01 -2.624878e+01  3.220220e+01
      vertex   2.233718e+01 -1.811803e+01  4.871424e+01
      vertex   3.711533e+00 -3.452877e+01  2.109896e+01
    endloop
  endfacet
  facet normal -1.056402e-01 -9.910218e-01 -8.195104e-02
    outer loop
      vertex  -3.068468e+01 -2.343995e+01  3.540583e+01
      vertex  -1.645860e+01 -2.335108e+01  1.599278e+01
      vertex  -7.748536e+00 -2.558325e+01  3.175823e+01
    endloop
  endfacet
  facet normal -4.788836e-02 -8.800634e-01  4.724355e-01
    outer loop
      vertex   2.233718e+01 -1.811803e+01  4.871424e+01
      vertex  -1.627015e+01 -1.473152e+01  5.110927e+01
      vertex  -7.748536e+00 -2.558325e+01  3.175823e+01
    endloop
  endfacet
  facet normal -4.002091e-03 -8.729587e-01  4.877776e-01
    outer loop
      vertex  -3.068468e+01 -2.343995e+01  3.540583e+01
      vertex  -7.748536e+00 -2.558325e+01  3.175823e+01
      vertex  -1.627015e+01 -1.473152e+01  5.110927e+01
    endloop
  endfacet
  facet normal  1.101547e-01  9.660125e-01 -2.338497e-01
    outer loop
      vertex   1.549858e+01  1.119468e+01 -7.917290e-03
      vertex  -6.988915e+00  1.378391e+01  9.524132e-02
      vertex   2.264612e+01  1.256977e+01  9.039298e+00
    endloop
  endfacet
  facet normal  4.053397e-01  9.077306e-01  1.082810e-01
    outer loop
      vertex   3.070068e+01  5.458129e+00  3.850542e+01
      vertex   2.264612e+01  1.256977e+01  9.039298e+00
      vertex  -4.603843e+00  2.264182e+01  2.661190e+01
    endloop
  endfacet
  facet normal -6.584132e-01  1.809441e-01  7.305830e-01
    outer loop
      vertex  -1.347447e+01  3.329536e+00  1.219833e+01
      vertex  -2.825508e+01 -2.152590e+00  2.355609e-01
      vertex  -2.051179e+01 -6.287479e+00  8.238034e+00
    endloop
  endfacet
  facet normal  8.343339e-01 -4.696307e-01  2.886762e-01
    outer loop
      vertex   2.233718e+01 -1.811803e+01  4.871424e+01
      vertex   2.347363e+01 -2.624878e+01  3.220220e+01
      vertex   3.919627e+01 -1.116326e+01  1.130228e+01
    endloop
  endfacet
  facet normal  4.522837e-01 -8.792914e-01 -1.492850e-01
    outer loop
      vertex   3.711533e+00 -3.452877e+01  2.109896e+01
      vertex   1.612714e+01 -2.457771e+01  1.021610e-01
      vertex   2.347363e+01 -2.624878e+01  3.220220e+01
    endloop
  endfacet
  facet normal  6.871295e-01 -7.059590e-01  1.716825e-01
    outer loop
      vertex  -1.627015e+01 -1.473152e+01  5.110927e+01
      vertex  -2.565225e+01 -2.026857e+01  6.589116e+01
      vertex  -3.485391e+01 -3.321769e+01  4.947240e+01
    endloop
  endfacet
  facet normal  8.425072e-01 -3.615829e-01  3.992986e-01
    outer loop
      vertex  -2.565225e+01 -2.026857e+01  6.589116e+01
      vertex  -1.627015e+01 -1.473152e+01  5.110927e+01
      vertex  -2.045555e+01 -7.311112e+00  6.665984e+01
    endloop
  endfacet
  facet normal  9.109141e-01 -1.581218e-01  3.810944e-01
    outer loop
      vertex   3.070068e+01  5.458129e+00  3.850542e+01
      vertex   2.233718e+01 -1.811803e+01  4.871424e+01
      vertex   3.919627e+01 -1.116326e+01  1.130228e+01
    endloop
  endfacet
  facet normal -7.529837e-01 -1.919252e-01  6.294285e-01
    outer loop
      vertex  -2.147953e+01 -2.955904e+01 -1.563060e-02
      vertex  -2.051179e+01 -6.287479e+00  8.238034e+00
      vertex  -2.825508e+01 -2.152590e+00  2.355609e-01
    endloop
  endfacet
  facet normal -1.136075e-02  6.355979e-03 -9.999153e-01
    outer loop
      vertex  -6.988915e+00  1.378391e+01  9.524132e-02
      vertex  -2.147953e+01 -2.955904e+01 -1.563060e-02
      vertex  -2.825508e+01 -2.152590e+00  2.355609e-01
    endloop
  endfacet
  facet normal  3.044047e-02 -3.221472e-01  9.462000e-01
    outer loop
      vertex   1.379476e+01 -4.505839e+00  5.362352e+01
      vertex  -1.627015e+01 -1.473152e+01  5.110927e+01
      vertex   2.233718e+01 -1.811803e+01  4.871424e+01
    endloop
  endfacet
  facet normal -1.452024e-02  5.676654e-01  8.231313e-01
    outer loop
      vertex   1.379476e+01 -4.505839e+00  5.362352e+01
      vertex   1.024147e+01  7.865211e+00  4.502925e+01
      vertex  -2.528392e+01  5.044593e+00  4.634779e+01
    endloop
  endfacet
  facet normal  3.061441e-01  6.008913e-01  7.383803e-01
    outer loop
      vertex   1.379476e+01 -4.505839e+00  5.362352e+01
      vertex   3.070068e+01  5.458129e+00  3.850542e+01
      vertex   1.024147e+01  7.865211e+00  4.502925e+01
    endloop
  endfacet
endsolid vcg
