solid STL generated by MeshLab
  facet normal  8.805992e-01  1.751607e-01  4.402996e-01
    outer loop
      vertex   4.619400e+00  1.913420e+00  0.000000e+00
      vertex  -0.000000e+00 -0.000000e+00  1.000000e+01
      vertex   5.000000e+00  0.000000e+00  0.000000e+00
    endloop
  endfacet
  facet normal  7.465336e-01  4.988226e-01  4.402994e-01
    outer loop
      vertex   3.535530e+00  3.535530e+00  0.000000e+00
      vertex  -0.000000e+00 -0.000000e+00  1.000000e+01
      vertex   4.619400e+00  1.913420e+00  0.000000e+00
    endloop
  endfacet
  facet normal  4.988226e-01  7.465336e-01  4.402994e-01
    outer loop
      vertex   1.913420e+00  4.619400e+00  0.000000e+00
      vertex  -0.000000e+00 -0.000000e+00  1.000000e+01
      vertex   3.535530e+00  3.535530e+00  0.000000e+00
    endloop
  endfacet
  facet normal  1.751607e-01  8.805992e-01  4.402996e-01
    outer loop
      vertex   3.061620e-16  5.000000e+00  0.000000e+00
      vertex  -0.000000e+00 -0.000000e+00  1.000000e+01
      vertex   1.913420e+00  4.619400e+00  0.000000e+00
    endloop
  endfacet
  facet normal -1.751607e-01  8.805992e-01  4.402996e-01
    outer loop
      vertex  -1.913420e+00  4.619400e+00  0.000000e+00
      vertex  -0.000000e+00 -0.000000e+00  1.000000e+01
      vertex   3.061620e-16  5.000000e+00  0.000000e+00
    endloop
  endfacet
  facet normal -4.988226e-01  7.465336e-01  4.402994e-01
    outer loop
      vertex  -3.535530e+00  3.535530e+00  0.000000e+00
      vertex  -0.000000e+00 -0.000000e+00  1.000000e+01
      vertex  -1.913420e+00  4.619400e+00  0.000000e+00
    endloop
  endfacet
  facet normal -7.465336e-01  4.988226e-01  4.402994e-01
    outer loop
      vertex  -4.619400e+00  1.913420e+00  0.000000e+00
      vertex  -0.000000e+00 -0.000000e+00  1.000000e+01
      vertex  -3.535530e+00  3.535530e+00  0.000000e+00
    endloop
  endfacet
  facet normal -8.805992e-01  1.751607e-01  4.402996e-01
    outer loop
      vertex  -5.000000e+00  6.123230e-16  0.000000e+00
      vertex  -0.000000e+00 -0.000000e+00  1.000000e+01
      vertex  -4.619400e+00  1.913420e+00  0.000000e+00
    endloop
  endfacet
  facet normal -8.805992e-01 -1.751607e-01  4.402996e-01
    outer loop
      vertex  -4.619400e+00 -1.913420e+00  0.000000e+00
      vertex  -0.000000e+00 -0.000000e+00  1.000000e+01
      vertex  -5.000000e+00  6.123230e-16  0.000000e+00
    endloop
  endfacet
  facet normal -7.465336e-01 -4.988226e-01  4.402994e-01
    outer loop
      vertex  -3.535530e+00 -3.535530e+00  0.000000e+00
      vertex  -0.000000e+00 -0.000000e+00  1.000000e+01
      vertex  -4.619400e+00 -1.913420e+00  0.000000e+00
    endloop
  endfacet
  facet normal -4.988226e-01 -7.465336e-01  4.402994e-01
    outer loop
      vertex  -1.913420e+00 -4.619400e+00  0.000000e+00
      vertex  -0.000000e+00 -0.000000e+00  1.000000e+01
      vertex  -3.535530e+00 -3.535530e+00  0.000000e+00
    endloop
  endfacet
  facet normal -1.751607e-01 -8.805992e-01  4.402996e-01
    outer loop
      vertex  -9.184850e-16 -5.000000e+00  0.000000e+00
      vertex  -0.000000e+00 -0.000000e+00  1.000000e+01
      vertex  -1.913420e+00 -4.619400e+00  0.000000e+00
    endloop
  endfacet
  facet normal  1.751607e-01 -8.805992e-01  4.402996e-01
    outer loop
      vertex   1.913420e+00 -4.619400e+00  0.000000e+00
      vertex  -0.000000e+00 -0.000000e+00  1.000000e+01
      vertex  -9.184850e-16 -5.000000e+00  0.000000e+00
    endloop
  endfacet
  facet normal  4.988226e-01 -7.465336e-01  4.402994e-01
    outer loop
      vertex   3.535530e+00 -3.535530e+00  0.000000e+00
      vertex  -0.000000e+00 -0.000000e+00  1.000000e+01
      vertex   1.913420e+00 -4.619400e+00  0.000000e+00
    endloop
  endfacet
  facet normal  7.465336e-01 -4.988226e-01  4.402994e-01
    outer loop
      vertex   4.619400e+00 -1.913420e+00  0.000000e+00
      vertex  -0.000000e+00 -0.000000e+00  1.000000e+01
      vertex   3.535530e+00 -3.535530e+00  0.000000e+00
    endloop
  endfacet
  facet normal  8.805992e-01 -1.751607e-01  4.402996e-01
    outer loop
      vertex   5.000000e+00  0.000000e+00  0.000000e+00
      vertex  -0.000000e+00 -0.000000e+00  1.000000e+01
      vertex   4.619400e+00 -1.913420e+00  0.000000e+00
    endloop
  endfacet
  facet normal  0.000000e+00  0.000000e+00 -1.000000e+00
    outer loop
      vertex   4.619400e+00 -1.913420e+00  0.000000e+00
      vertex   4.619400e+00  1.913420e+00  0.000000e+00
      vertex   5.000000e+00  0.000000e+00  0.000000e+00
    endloop
  endfacet
  facet normal  0.000000e+00  0.000000e+00 -1.000000e+00
    outer loop
      vertex   3.535530e+00 -3.535530e+00  0.000000e+00
      vertex   4.619400e+00  1.913420e+00  0.000000e+00
      vertex   4.619400e+00 -1.913420e+00  0.000000e+00
    endloop
  endfacet
  facet normal  0.000000e+00  0.000000e+00 -1.000000e+00
    outer loop
      vertex   3.535530e+00 -3.535530e+00  0.000000e+00
      vertex   3.535530e+00  3.535530e+00  0.000000e+00
      vertex   4.619400e+00  1.913420e+00  0.000000e+00
    endloop
  endfacet
  facet normal  0.000000e+00  0.000000e+00 -1.000000e+00
    outer loop
      vertex   1.913420e+00 -4.619400e+00  0.000000e+00
      vertex   3.535530e+00  3.535530e+00  0.000000e+00
      vertex   3.535530e+00 -3.535530e+00  0.000000e+00
    endloop
  endfacet
  facet normal  0.000000e+00  0.000000e+00 -1.000000e+00
    outer loop
      vertex   1.913420e+00 -4.619400e+00  0.000000e+00
      vertex   1.913420e+00  4.619400e+00  0.000000e+00
      vertex   3.535530e+00  3.535530e+00  0.000000e+00
    endloop
  endfacet
  facet normal  0.000000e+00  0.000000e+00 -1.000000e+00
    outer loop
      vertex   1.913420e+00 -4.619400e+00  0.000000e+00
      vertex   3.061620e-16  5.000000e+00  0.000000e+00
      vertex   1.913420e+00  4.619400e+00  0.000000e+00
    endloop
  endfacet
  facet normal  0.000000e+00  0.000000e+00 -1.000000e+00
    outer loop
      vertex  -9.184850e-16 -5.000000e+00  0.000000e+00
      vertex   3.061620e-16  5.000000e+00  0.000000e+00
      vertex   1.913420e+00 -4.619400e+00  0.000000e+00
    endloop
  endfacet
  facet normal  0.000000e+00  0.000000e+00 -1.000000e+00
    outer loop
      vertex  -1.913420e+00 -4.619400e+00  0.000000e+00
      vertex   3.061620e-16  5.000000e+00  0.000000e+00
      vertex  -9.184850e-16 -5.000000e+00  0.000000e+00
    endloop
  endfacet
  facet normal  0.000000e+00  0.000000e+00 -1.000000e+00
    outer loop
      vertex  -1.913420e+00 -4.619400e+00  0.000000e+00
      vertex  -1.913420e+00  4.619400e+00  0.000000e+00
      vertex   3.061620e-16  5.000000e+00  0.000000e+00
    endloop
  endfacet
  facet normal  0.000000e+00  0.000000e+00 -1.000000e+00
    outer loop
      vertex  -3.535530e+00 -3.535530e+00  0.000000e+00
      vertex  -1.913420e+00  4.619400e+00  0.000000e+00
      vertex  -1.913420e+00 -4.619400e+00  0.000000e+00
    endloop
  endfacet
  facet normal  0.000000e+00  0.000000e+00 -1.000000e+00
    outer loop
      vertex  -3.535530e+00 -3.535530e+00  0.000000e+00
      vertex  -3.535530e+00  3.535530e+00  0.000000e+00
      vertex  -1.913420e+00  4.619400e+00  0.000000e+00
    endloop
  endfacet
  facet normal  0.000000e+00  0.000000e+00 -1.000000e+00
    outer loop
      vertex  -4.619400e+00 -1.913420e+00  0.000000e+00
      vertex  -3.535530e+00  3.535530e+00  0.000000e+00
      vertex  -3.535530e+00 -3.535530e+00  0.000000e+00
    endloop
  endfacet
  facet normal  0.000000e+00  0.000000e+00 -1.000000e+00
    outer loop
      vertex  -4.619400e+00 -1.913420e+00  0.000000e+00
      vertex  -4.619400e+00  1.913420e+00  0.000000e+00
      vertex  -3.535530e+00  3.535530e+00  0.000000e+00
    endloop
  endfacet
  facet normal  0.000000e+00 -0.000000e+00 -1.000000e+00
    outer loop
      vertex  -4.619400e+00  1.913420e+00  0.000000e+00
      vertex  -4.619400e+00 -1.913420e+00  0.000000e+00
      vertex  -5.000000e+00  6.123230e-16  0.000000e+00
    endloop
  endfacet
endsolid vcg
