solid STL generated by MeshLab
  facet normal  1.569951e-01  9.547517e-01  2.525901e-01
    outer loop
      vertex  -7.110720e-01  6.147740e+00 -5.411140e+00
      vertex  -1.728680e+00  7.002530e+00 -8.009630e+00
      vertex  -5.625970e+00  6.773530e+00 -4.721720e+00
    endloop
  endfacet
  facet normal  6.766763e-01  7.359242e-01 -2.290959e-02
    outer loop
      vertex  -7.110720e-01  6.147740e+00 -5.411140e+00
      vertex   2.841810e+00  2.687750e+00 -1.161550e+01
      vertex  -1.728680e+00  7.002530e+00 -8.009630e+00
    endloop
  endfacet
  facet normal -3.285291e-01  8.858142e-01 -3.277224e-01
    outer loop
      vertex  -4.242640e+00  4.690190e+00 -1.173960e+01
      vertex  -5.625970e+00  6.773530e+00 -4.721720e+00
      vertex  -1.728680e+00  7.002530e+00 -8.009630e+00
    endloop
  endfacet
  facet normal  1.859093e-01  6.956521e-01  6.939064e-01
    outer loop
      vertex  -7.110720e-01  6.147740e+00 -5.411140e+00
      vertex  -5.625970e+00  6.773530e+00 -4.721720e+00
      vertex  -1.944480e+00  4.943720e+00 -3.873640e+00
    endloop
  endfacet
  facet normal -6.741099e-01  6.612281e-01 -3.291706e-01
    outer loop
      vertex  -5.625970e+00  6.773530e+00 -4.721720e+00
      vertex  -4.242640e+00  4.690190e+00 -1.173960e+01
      vertex  -6.760970e+00  4.597730e+00 -6.768030e+00
    endloop
  endfacet
  facet normal -8.807442e-02  9.700792e-01  2.262503e-01
    outer loop
      vertex  -6.111810e-01  6.400150e+00  2.468930e+00
      vertex  -7.385300e-01  5.316650e+00  7.065010e+00
      vertex   2.146130e+00  5.716410e+00  6.473920e+00
    endloop
  endfacet
  facet normal  2.891981e-01  9.565999e-01 -3.579133e-02
    outer loop
      vertex   2.146130e+00  5.716410e+00  6.473920e+00
      vertex   4.404370e+00  4.803350e+00  3.172720e-01
      vertex  -6.111810e-01  6.400150e+00  2.468930e+00
    endloop
  endfacet
  facet normal -4.463697e-01  8.736569e-01  1.935916e-01
    outer loop
      vertex  -3.880080e+00  3.800190e+00  6.665060e+00
      vertex  -7.385300e-01  5.316650e+00  7.065010e+00
      vertex  -6.111810e-01  6.400150e+00  2.468930e+00
    endloop
  endfacet
  facet normal -4.871432e-01  8.597750e-01  1.532266e-01
    outer loop
      vertex  -6.111810e-01  6.400150e+00  2.468930e+00
      vertex  -5.336040e+00  3.688630e+00  2.662200e+00
      vertex  -3.880080e+00  3.800190e+00  6.665060e+00
    endloop
  endfacet
  facet normal  2.238343e-01  7.536024e-01 -6.180467e-01
    outer loop
      vertex  -4.242640e+00  4.690190e+00 -1.173960e+01
      vertex  -1.728680e+00  7.002530e+00 -8.009630e+00
      vertex   2.841810e+00  2.687750e+00 -1.161550e+01
    endloop
  endfacet
  facet normal -4.876667e-01  8.306030e-01 -2.688492e-01
    outer loop
      vertex  -5.336040e+00  3.688630e+00  2.662200e+00
      vertex  -6.111810e-01  6.400150e+00  2.468930e+00
      vertex  -3.551330e+00  4.340250e+00  1.438070e+00
    endloop
  endfacet
  facet normal  6.414007e-02  5.229733e-01  8.499324e-01
    outer loop
      vertex  -5.625970e+00  6.773530e+00 -4.721720e+00
      vertex  -5.480220e+00  4.327340e+00 -3.227550e+00
      vertex  -1.944480e+00  4.943720e+00 -3.873640e+00
    endloop
  endfacet
  facet normal -5.961943e-01  5.691142e-01 -5.662698e-01
    outer loop
      vertex  -5.336040e+00  3.688630e+00  2.662200e+00
      vertex  -3.551330e+00  4.340250e+00  1.438070e+00
      vertex  -4.612430e+00  3.115120e+00  1.323960e+00
    endloop
  endfacet
  facet normal  6.112374e-01  7.840548e-01  1.079210e-01
    outer loop
      vertex   4.404370e+00  4.803350e+00  3.172720e-01
      vertex   2.146130e+00  5.716410e+00  6.473920e+00
      vertex   4.838340e+00  3.519130e+00  7.189340e+00
    endloop
  endfacet
  facet normal  1.142777e-01 -5.536305e-01  8.248842e-01
    outer loop
      vertex  -7.185650e+00  4.988870e+00 -2.547290e+00
      vertex  -6.853880e+00 -4.151020e-01 -6.220190e+00
      vertex  -5.480220e+00  4.327340e+00 -3.227550e+00
    endloop
  endfacet
  facet normal  8.697556e-01  4.153956e-01  2.664053e-01
    outer loop
      vertex  -7.110720e-01  6.147740e+00 -5.411140e+00
      vertex   5.940730e-01  3.065060e+00 -4.865450e+00
      vertex   2.841810e+00  2.687750e+00 -1.161550e+01
    endloop
  endfacet
  facet normal  4.932084e-02  6.989884e-01  7.134302e-01
    outer loop
      vertex  -4.457420e-02  3.232640e+00  9.058860e+00
      vertex   2.146130e+00  5.716410e+00  6.473920e+00
      vertex  -7.385300e-01  5.316650e+00  7.065010e+00
    endloop
  endfacet
  facet normal -3.703565e-01  5.747954e-01  7.296891e-01
    outer loop
      vertex  -4.457420e-02  3.232640e+00  9.058860e+00
      vertex  -7.385300e-01  5.316650e+00  7.065010e+00
      vertex  -3.880080e+00  3.800190e+00  6.665060e+00
    endloop
  endfacet
  facet normal -9.948800e-01  7.424382e-03 -1.007902e-01
    outer loop
      vertex  -6.853880e+00 -4.151020e-01 -6.220190e+00
      vertex  -7.185650e+00  4.988870e+00 -2.547290e+00
      vertex  -6.760970e+00  4.597730e+00 -6.768030e+00
    endloop
  endfacet
  facet normal -2.097020e-01  9.765338e-01  4.905885e-02
    outer loop
      vertex  -5.336040e+00  3.688630e+00  2.662200e+00
      vertex  -6.539820e+00  3.268580e+00  5.877890e+00
      vertex  -3.880080e+00  3.800190e+00  6.665060e+00
    endloop
  endfacet
  facet normal  3.496598e-01  6.485542e-01  6.761031e-01
    outer loop
      vertex   4.838340e+00  3.519130e+00  7.189340e+00
      vertex   2.146130e+00  5.716410e+00  6.473920e+00
      vertex   3.153370e+00  2.236440e+00  9.291180e+00
    endloop
  endfacet
  facet normal  8.871170e-01  3.709155e-01  2.746728e-01
    outer loop
      vertex   5.940730e-01  3.065060e+00 -4.865450e+00
      vertex   2.921680e+00  5.285460e-01 -8.957690e+00
      vertex   2.841810e+00  2.687750e+00 -1.161550e+01
    endloop
  endfacet
  facet normal  5.622522e-01  3.690487e-01  7.400510e-01
    outer loop
      vertex  -1.944480e+00  4.943720e+00 -3.873640e+00
      vertex   5.940730e-01  3.065060e+00 -4.865450e+00
      vertex  -7.110720e-01  6.147740e+00 -5.411140e+00
    endloop
  endfacet
  facet normal -3.160768e-01  7.785301e-01  5.422051e-01
    outer loop
      vertex  -6.539820e+00  3.268580e+00  5.877890e+00
      vertex  -7.484210e+00  8.472150e-01  8.804100e+00
      vertex  -3.880080e+00  3.800190e+00  6.665060e+00
    endloop
  endfacet
  facet normal  5.447307e-01  8.154749e-01 -1.956249e-01
    outer loop
      vertex   2.921680e+00  5.285460e-01 -8.957690e+00
      vertex   5.940730e-01  3.065060e+00 -4.865450e+00
      vertex   4.293900e+00  3.589100e-01 -5.843790e+00
    endloop
  endfacet
  facet normal  1.474923e-01  6.477738e-01  7.474189e-01
    outer loop
      vertex   2.146130e+00  5.716410e+00  6.473920e+00
      vertex  -4.457420e-02  3.232640e+00  9.058860e+00
      vertex   3.153370e+00  2.236440e+00  9.291180e+00
    endloop
  endfacet
  facet normal  8.012017e-01  5.953125e-01  6.065347e-02
    outer loop
      vertex   6.921830e+00  1.037220e+00  4.027380e+00
      vertex   4.404370e+00  4.803350e+00  3.172720e-01
      vertex   4.838340e+00  3.519130e+00  7.189340e+00
    endloop
  endfacet
  facet normal  3.320113e-01  8.869203e-01  3.211554e-01
    outer loop
      vertex   4.838340e+00  3.519130e+00  7.189340e+00
      vertex   6.130750e+00  1.417000e+00  1.165860e+01
      vertex   7.086650e+00  2.204730e+00  8.494950e+00
    endloop
  endfacet
  facet normal -3.868853e-02  6.605417e-01 -7.497920e-01
    outer loop
      vertex  -2.417650e+00  3.698960e+00 -3.036490e-01
      vertex   4.404370e+00  4.803350e+00  3.172720e-01
      vertex   1.539350e+00  1.317560e+00 -2.605760e+00
    endloop
  endfacet
  facet normal -1.136404e-01  8.859791e-01  4.495852e-01
    outer loop
      vertex   6.130750e+00  1.417000e+00  1.165860e+01
      vertex   4.838340e+00  3.519130e+00  7.189340e+00
      vertex   3.153370e+00  2.236440e+00  9.291180e+00
    endloop
  endfacet
  facet normal  3.900494e-01  4.143029e-02  9.198614e-01
    outer loop
      vertex  -1.944480e+00  4.943720e+00 -3.873640e+00
      vertex  -1.965540e+00  6.035510e-01 -3.669230e+00
      vertex   5.940730e-01  3.065060e+00 -4.865450e+00
    endloop
  endfacet
  facet normal -8.653660e-01  4.230224e-01 -2.686888e-01
    outer loop
      vertex  -7.554630e+00  4.494740e-01  4.707900e+00
      vertex  -6.539820e+00  3.268580e+00  5.877890e+00
      vertex  -5.336040e+00  3.688630e+00  2.662200e+00
    endloop
  endfacet
  facet normal -8.153806e-01  2.203833e-01 -5.353371e-01
    outer loop
      vertex  -5.336040e+00  3.688630e+00  2.662200e+00
      vertex  -4.612430e+00  3.115120e+00  1.323960e+00
      vertex  -7.554630e+00  4.494740e-01  4.707900e+00
    endloop
  endfacet
  facet normal  5.858477e-01  7.785411e-01 -2.250695e-01
    outer loop
      vertex   7.086650e+00  2.204730e+00  8.494950e+00
      vertex   6.921830e+00  1.037220e+00  4.027380e+00
      vertex   4.838340e+00  3.519130e+00  7.189340e+00
    endloop
  endfacet
  facet normal  5.864253e-03 -4.117345e-02 -9.991348e-01
    outer loop
      vertex  -3.938630e+00 -2.070840e+00 -1.145920e+01
      vertex  -4.242640e+00  4.690190e+00 -1.173960e+01
      vertex   2.841810e+00  2.687750e+00 -1.161550e+01
    endloop
  endfacet
  facet normal  6.134247e-01  7.279261e-01  3.063228e-01
    outer loop
      vertex   1.539350e+00  1.317560e+00 -2.605760e+00
      vertex   4.293900e+00  3.589100e-01 -5.843790e+00
      vertex   5.940730e-01  3.065060e+00 -4.865450e+00
    endloop
  endfacet
  facet normal -3.469824e-01 -4.265669e-01  8.352508e-01
    outer loop
      vertex  -5.480220e+00  4.327340e+00 -3.227550e+00
      vertex  -6.853880e+00 -4.151020e-01 -6.220190e+00
      vertex  -1.965540e+00  6.035510e-01 -3.669230e+00
    endloop
  endfacet
  facet normal  3.675691e-01  4.013742e-01 -8.389230e-01
    outer loop
      vertex   3.336680e+00  2.540420e-01 -2.327100e+00
      vertex   1.539350e+00  1.317560e+00 -2.605760e+00
      vertex   4.404370e+00  4.803350e+00  3.172720e-01
    endloop
  endfacet
  facet normal -5.855670e-01  1.962251e-01 -7.865157e-01
    outer loop
      vertex  -3.386130e+00 -1.432380e-01 -5.411850e-01
      vertex  -2.417650e+00  3.698960e+00 -3.036490e-01
      vertex  -3.506490e-01 -4.827990e-01 -2.885840e+00
    endloop
  endfacet
  facet normal -4.731194e-01  2.985887e-01  8.288563e-01
    outer loop
      vertex  -4.457420e-02  3.232640e+00  9.058860e+00
      vertex  -3.880080e+00  3.800190e+00  6.665060e+00
      vertex  -3.823430e+00  9.475130e-02  8.032250e+00
    endloop
  endfacet
  facet normal -2.613699e-01  4.103028e-01 -8.736918e-01
    outer loop
      vertex  -3.506490e-01 -4.827990e-01 -2.885840e+00
      vertex  -2.417650e+00  3.698960e+00 -3.036490e-01
      vertex   1.539350e+00  1.317560e+00 -2.605760e+00
    endloop
  endfacet
  facet normal -6.175137e-01  2.026390e-01 -7.600093e-01
    outer loop
      vertex  -3.386130e+00 -1.432380e-01 -5.411850e-01
      vertex  -4.612430e+00  3.115120e+00  1.323960e+00
      vertex  -2.417650e+00  3.698960e+00 -3.036490e-01
    endloop
  endfacet
  facet normal -5.226235e-03  2.111670e-01  9.774361e-01
    outer loop
      vertex   3.153370e+00  2.236440e+00  9.291180e+00
      vertex  -4.457420e-02  3.232640e+00  9.058860e+00
      vertex   5.871350e-01 -9.810500e-01  9.972570e+00
    endloop
  endfacet
  facet normal -3.688942e-01  1.438183e-01  9.182773e-01
    outer loop
      vertex  -3.823430e+00  9.475130e-02  8.032250e+00
      vertex   5.871350e-01 -9.810500e-01  9.972570e+00
      vertex  -4.457420e-02  3.232640e+00  9.058860e+00
    endloop
  endfacet
  facet normal -8.913497e-01 -3.289062e-02 -4.521215e-01
    outer loop
      vertex  -6.853880e+00 -4.151020e-01 -6.220190e+00
      vertex  -6.760970e+00  4.597730e+00 -6.768030e+00
      vertex  -4.242640e+00  4.690190e+00 -1.173960e+01
    endloop
  endfacet
  facet normal -9.384340e-01  3.450218e-01 -1.736853e-02
    outer loop
      vertex  -7.554630e+00  4.494740e-01  4.707900e+00
      vertex  -7.484210e+00  8.472150e-01  8.804100e+00
      vertex  -6.539820e+00  3.268580e+00  5.877890e+00
    endloop
  endfacet
  facet normal  1.837040e-03 -3.544286e-02 -9.993700e-01
    outer loop
      vertex   2.841810e+00  2.687750e+00 -1.161550e+01
      vertex   1.130690e-01 -2.543180e+00 -1.143500e+01
      vertex  -3.938630e+00 -2.070840e+00 -1.145920e+01
    endloop
  endfacet
  facet normal -8.801180e-01 -5.911084e-02 -4.710608e-01
    outer loop
      vertex  -4.242640e+00  4.690190e+00 -1.173960e+01
      vertex  -3.938630e+00 -2.070840e+00 -1.145920e+01
      vertex  -6.853880e+00 -4.151020e-01 -6.220190e+00
    endloop
  endfacet
  facet normal  4.846748e-01  8.603826e-01  1.575820e-01
    outer loop
      vertex   4.293900e+00  3.589100e-01 -5.843790e+00
      vertex   1.539350e+00  1.317560e+00 -2.605760e+00
      vertex   3.336680e+00  2.540420e-01 -2.327100e+00
    endloop
  endfacet
  facet normal  1.971852e-02  1.920651e-01  9.811841e-01
    outer loop
      vertex   3.153370e+00  2.236440e+00  9.291180e+00
      vertex   5.871350e-01 -9.810500e-01  9.972570e+00
      vertex   3.434750e+00 -2.077280e-02  9.727370e+00
    endloop
  endfacet
  facet normal -7.778540e-01  6.505187e-02 -6.250692e-01
    outer loop
      vertex  -3.386130e+00 -1.432380e-01 -5.411850e-01
      vertex  -7.554630e+00  4.494740e-01  4.707900e+00
      vertex  -4.612430e+00  3.115120e+00  1.323960e+00
    endloop
  endfacet
  facet normal -6.074405e-01  7.705909e-02  7.906187e-01
    outer loop
      vertex   3.434750e+00 -2.077280e-02  9.727370e+00
      vertex   6.130750e+00  1.417000e+00  1.165860e+01
      vertex   3.153370e+00  2.236440e+00  9.291180e+00
    endloop
  endfacet
  facet normal  2.601446e-01  3.377374e-01  9.045763e-01
    outer loop
      vertex  -7.484210e+00  8.472150e-01  8.804100e+00
      vertex  -3.823430e+00  9.475130e-02  8.032250e+00
      vertex  -3.880080e+00  3.800190e+00  6.665060e+00
    endloop
  endfacet
  facet normal  9.751341e-01  2.029534e-01 -8.901292e-02
    outer loop
      vertex   6.921830e+00  1.037220e+00  4.027380e+00
      vertex   7.086650e+00  2.204730e+00  8.494950e+00
      vertex   7.657210e+00  1.435340e-01  1.004580e+01
    endloop
  endfacet
  facet normal  7.922141e-01  4.914677e-01  3.617408e-01
    outer loop
      vertex   7.086650e+00  2.204730e+00  8.494950e+00
      vertex   6.130750e+00  1.417000e+00  1.165860e+01
      vertex   7.657210e+00  1.435340e-01  1.004580e+01
    endloop
  endfacet
  facet normal -6.289784e-01  1.565658e-01  7.614940e-01
    outer loop
      vertex   6.130750e+00  1.417000e+00  1.165860e+01
      vertex   3.434750e+00 -2.077280e-02  9.727370e+00
      vertex   5.156890e+00 -4.846650e-01  1.124520e+01
    endloop
  endfacet
  facet normal  1.557601e-02 -9.952239e-01  9.636845e-02
    outer loop
      vertex  -7.484210e+00  8.472150e-01  8.804100e+00
      vertex  -7.554630e+00  4.494740e-01  4.707900e+00
      vertex  -4.876870e+00  5.766310e-01  5.588280e+00
    endloop
  endfacet
  facet normal  7.175475e-01  2.164168e-01 -6.620342e-01
    outer loop
      vertex   3.336680e+00  2.540420e-01 -2.327100e+00
      vertex   4.404370e+00  4.803350e+00  3.172720e-01
      vertex   5.948860e+00 -1.111620e+00  5.768810e-02
    endloop
  endfacet
  facet normal -2.199006e-01 -9.707263e-01 -9.661379e-02
    outer loop
      vertex  -7.484210e+00  8.472150e-01  8.804100e+00
      vertex  -4.876870e+00  5.766310e-01  5.588280e+00
      vertex  -3.823430e+00  9.475130e-02  8.032250e+00
    endloop
  endfacet
  facet normal  9.001155e-01  2.506710e-01 -3.563091e-01
    outer loop
      vertex   6.921830e+00  1.037220e+00  4.027380e+00
      vertex   5.948860e+00 -1.111620e+00  5.768810e-02
      vertex   4.404370e+00  4.803350e+00  3.172720e-01
    endloop
  endfacet
  facet normal  8.145387e-01 -4.380321e-01 -3.803350e-01
    outer loop
      vertex   1.130690e-01 -2.543180e+00 -1.143500e+01
      vertex   2.841810e+00  2.687750e+00 -1.161550e+01
      vertex   2.921680e+00  5.285460e-01 -8.957690e+00
    endloop
  endfacet
  facet normal  9.653862e-01 -2.136035e-01 -1.496771e-01
    outer loop
      vertex   6.714400e+00 -1.066720e+00  5.692020e+00
      vertex   6.921830e+00  1.037220e+00  4.027380e+00
      vertex   7.657210e+00  1.435340e-01  1.004580e+01
    endloop
  endfacet
  facet normal  6.316060e-02 -9.321386e-01 -3.565506e-01
    outer loop
      vertex   5.156890e+00 -4.846650e-01  1.124520e+01
      vertex   3.434750e+00 -2.077280e-02  9.727370e+00
      vertex   7.657210e+00  1.435340e-01  1.004580e+01
    endloop
  endfacet
  facet normal -1.616150e-01 -7.802257e-01  6.042585e-01
    outer loop
      vertex  -7.554630e+00  4.494740e-01  4.707900e+00
      vertex  -5.026690e+00 -1.511810e+00  2.851590e+00
      vertex  -4.876870e+00  5.766310e-01  5.588280e+00
    endloop
  endfacet
  facet normal  4.761718e-01 -4.126571e-01  7.765143e-01
    outer loop
      vertex   6.130750e+00  1.417000e+00  1.165860e+01
      vertex   5.156890e+00 -4.846650e-01  1.124520e+01
      vertex   7.657210e+00  1.435340e-01  1.004580e+01
    endloop
  endfacet
  facet normal -7.275317e-01 -4.376687e-01 -5.283405e-01
    outer loop
      vertex  -3.386130e+00 -1.432380e-01 -5.411850e-01
      vertex  -5.026690e+00 -1.511810e+00  2.851590e+00
      vertex  -7.554630e+00  4.494740e-01  4.707900e+00
    endloop
  endfacet
  facet normal  6.336908e-01 -1.219014e-01 -7.639215e-01
    outer loop
      vertex   3.163070e+00 -2.346040e+00 -2.056210e+00
      vertex   3.336680e+00  2.540420e-01 -2.327100e+00
      vertex   5.948860e+00 -1.111620e+00  5.768810e-02
    endloop
  endfacet
  facet normal  9.775037e-01 -1.087918e-01 -1.806955e-01
    outer loop
      vertex   6.224690e+00 -3.470510e+00  2.970060e+00
      vertex   5.948860e+00 -1.111620e+00  5.768810e-02
      vertex   6.921830e+00  1.037220e+00  4.027380e+00
    endloop
  endfacet
  facet normal  1.759583e-02 -9.642958e-01  2.642424e-01
    outer loop
      vertex   7.657210e+00  1.435340e-01  1.004580e+01
      vertex   3.434750e+00 -2.077280e-02  9.727370e+00
      vertex   6.714400e+00 -1.066720e+00  5.692020e+00
    endloop
  endfacet
  facet normal -8.670260e-01 -1.435291e-01 -4.771428e-01
    outer loop
      vertex  -2.722740e+00 -3.642220e+00 -6.941180e-01
      vertex  -5.026690e+00 -1.511810e+00  2.851590e+00
      vertex  -3.386130e+00 -1.432380e-01 -5.411850e-01
    endloop
  endfacet
  facet normal  9.645082e-01 -3.716457e-02  2.614246e-01
    outer loop
      vertex   3.163070e+00 -2.346040e+00 -2.056210e+00
      vertex   4.293900e+00  3.589100e-01 -5.843790e+00
      vertex   3.336680e+00  2.540420e-01 -2.327100e+00
    endloop
  endfacet
  facet normal -4.355584e-01 -2.047040e-01  8.765758e-01
    outer loop
      vertex  -1.504870e+00 -3.484370e+00  8.348490e+00
      vertex   5.871350e-01 -9.810500e-01  9.972570e+00
      vertex  -3.823430e+00  9.475130e-02  8.032250e+00
    endloop
  endfacet
  facet normal -5.305314e-02 -8.882179e-01  4.563488e-01
    outer loop
      vertex  -1.965540e+00  6.035510e-01 -3.669230e+00
      vertex  -6.853880e+00 -4.151020e-01 -6.220190e+00
      vertex  -2.668340e+00 -1.509810e+00 -7.864290e+00
    endloop
  endfacet
  facet normal  9.886442e-01 -1.402240e-01 -5.403452e-02
    outer loop
      vertex   6.224690e+00 -3.470510e+00  2.970060e+00
      vertex   6.921830e+00  1.037220e+00  4.027380e+00
      vertex   6.714400e+00 -1.066720e+00  5.692020e+00
    endloop
  endfacet
  facet normal  9.671555e-01 -2.154341e-01  1.349014e-01
    outer loop
      vertex   3.450680e+00 -3.540150e+00 -6.025150e+00
      vertex   4.293900e+00  3.589100e-01 -5.843790e+00
      vertex   3.163070e+00 -2.346040e+00 -2.056210e+00
    endloop
  endfacet
  facet normal -6.660003e-01 -3.744309e-01  6.451706e-01
    outer loop
      vertex  -1.504870e+00 -3.484370e+00  8.348490e+00
      vertex  -3.823430e+00  9.475130e-02  8.032250e+00
      vertex  -3.299930e+00 -4.147950e+00  6.110360e+00
    endloop
  endfacet
  facet normal -9.233981e-01 -2.790852e-01  2.635286e-01
    outer loop
      vertex  -5.026690e+00 -1.511810e+00  2.851590e+00
      vertex  -3.299930e+00 -4.147950e+00  6.110360e+00
      vertex  -4.876870e+00  5.766310e-01  5.588280e+00
    endloop
  endfacet
  facet normal -1.693146e-01 -9.629068e-01  2.101021e-01
    outer loop
      vertex  -3.938630e+00 -2.070840e+00 -1.145920e+01
      vertex  -2.668340e+00 -1.509810e+00 -7.864290e+00
      vertex  -6.853880e+00 -4.151020e-01 -6.220190e+00
    endloop
  endfacet
  facet normal  8.973703e-01 -1.752296e-01 -4.049953e-01
    outer loop
      vertex   3.450680e+00 -3.540150e+00 -6.025150e+00
      vertex   2.921680e+00  5.285460e-01 -8.957690e+00
      vertex   4.293900e+00  3.589100e-01 -5.843790e+00
    endloop
  endfacet
  facet normal -6.381687e-01 -6.393097e-01  4.289800e-01
    outer loop
      vertex  -2.668340e+00 -1.509810e+00 -7.864290e+00
      vertex  -3.506490e-01 -4.827990e-01 -2.885840e+00
      vertex  -1.965540e+00  6.035510e-01 -3.669230e+00
    endloop
  endfacet
  facet normal -9.035212e-01 -2.642945e-01  3.373393e-01
    outer loop
      vertex  -4.876870e+00  5.766310e-01  5.588280e+00
      vertex  -3.299930e+00 -4.147950e+00  6.110360e+00
      vertex  -3.823430e+00  9.475130e-02  8.032250e+00
    endloop
  endfacet
  facet normal -3.354014e-01 -3.538548e-01 -8.730938e-01
    outer loop
      vertex   5.091830e-01 -3.086320e+00 -2.160970e+00
      vertex  -2.722740e+00 -3.642220e+00 -6.941180e-01
      vertex  -3.506490e-01 -4.827990e-01 -2.885840e+00
    endloop
  endfacet
  facet normal -6.149698e-01 -8.231778e-02 -7.842422e-01
    outer loop
      vertex  -2.722740e+00 -3.642220e+00 -6.941180e-01
      vertex  -3.386130e+00 -1.432380e-01 -5.411850e-01
      vertex  -3.506490e-01 -4.827990e-01 -2.885840e+00
    endloop
  endfacet
  facet normal  7.108999e-01 -2.724339e-01  6.483834e-01
    outer loop
      vertex   6.714400e+00 -1.066720e+00  5.692020e+00
      vertex   3.434750e+00 -2.077280e-02  9.727370e+00
      vertex   3.345850e+00 -3.871800e+00  8.206740e+00
    endloop
  endfacet
  facet normal  8.690564e-01 -3.409493e-01 -3.584616e-01
    outer loop
      vertex   4.624870e+00 -4.677080e+00  2.390710e-01
      vertex   5.948860e+00 -1.111620e+00  5.768810e-02
      vertex   6.224690e+00 -3.470510e+00  2.970060e+00
    endloop
  endfacet
  facet normal  7.907498e-01 -2.869240e-01 -5.407303e-01
    outer loop
      vertex   3.450680e+00 -3.540150e+00 -6.025150e+00
      vertex   1.130690e-01 -2.543180e+00 -1.143500e+01
      vertex   2.921680e+00  5.285460e-01 -8.957690e+00
    endloop
  endfacet
  facet normal -8.802083e-01 -1.670132e-01  4.442296e-01
    outer loop
      vertex  -2.668340e+00 -1.509810e+00 -7.864290e+00
      vertex   5.091830e-01 -3.086320e+00 -2.160970e+00
      vertex  -3.506490e-01 -4.827990e-01 -2.885840e+00
    endloop
  endfacet
  facet normal  6.558942e-01 -2.792353e-01 -7.013062e-01
    outer loop
      vertex   5.948860e+00 -1.111620e+00  5.768810e-02
      vertex   4.624870e+00 -4.677080e+00  2.390710e-01
      vertex   3.163070e+00 -2.346040e+00 -2.056210e+00
    endloop
  endfacet
  facet normal -1.147603e-01 -9.745358e-01  1.926398e-01
    outer loop
      vertex  -2.668340e+00 -1.509810e+00 -7.864290e+00
      vertex  -3.938630e+00 -2.070840e+00 -1.145920e+01
      vertex   1.130690e-01 -2.543180e+00 -1.143500e+01
    endloop
  endfacet
  facet normal  2.009938e-01 -3.637840e-01  9.095399e-01
    outer loop
      vertex   3.345850e+00 -3.871800e+00  8.206740e+00
      vertex   3.434750e+00 -2.077280e-02  9.727370e+00
      vertex   5.871350e-01 -9.810500e-01  9.972570e+00
    endloop
  endfacet
  facet normal -5.596840e-01 -8.033368e-01 -2.034794e-01
    outer loop
      vertex  -2.668340e+00 -1.509810e+00 -7.864290e+00
      vertex   1.130690e-01 -2.543180e+00 -1.143500e+01
      vertex   8.411060e-01 -4.585580e+00 -5.374120e+00
    endloop
  endfacet
  facet normal -7.279602e-01 -6.470503e-01  2.267151e-01
    outer loop
      vertex   5.091830e-01 -3.086320e+00 -2.160970e+00
      vertex  -2.668340e+00 -1.509810e+00 -7.864290e+00
      vertex   8.411060e-01 -4.585580e+00 -5.374120e+00
    endloop
  endfacet
  facet normal  7.384473e-01 -4.003431e-01  5.426058e-01
    outer loop
      vertex   5.166880e+00 -3.941370e+00  5.677120e+00
      vertex   6.714400e+00 -1.066720e+00  5.692020e+00
      vertex   3.345850e+00 -3.871800e+00  8.206740e+00
    endloop
  endfacet
  facet normal -6.869170e-01 -7.266707e-01 -9.734579e-03
    outer loop
      vertex  -3.297390e-01 -5.975690e+00  4.634420e+00
      vertex  -5.026690e+00 -1.511810e+00  2.851590e+00
      vertex  -2.722740e+00 -3.642220e+00 -6.941180e-01
    endloop
  endfacet
  facet normal  8.513846e-01 -4.596386e-01  2.527382e-01
    outer loop
      vertex   6.224690e+00 -3.470510e+00  2.970060e+00
      vertex   6.714400e+00 -1.066720e+00  5.692020e+00
      vertex   5.166880e+00 -3.941370e+00  5.677120e+00
    endloop
  endfacet
  facet normal -6.011348e-01 -7.464768e-01 -2.853230e-01
    outer loop
      vertex  -5.026690e+00 -1.511810e+00  2.851590e+00
      vertex  -3.297390e-01 -5.975690e+00  4.634420e+00
      vertex  -3.299930e+00 -4.147950e+00  6.110360e+00
    endloop
  endfacet
  facet normal  2.766359e-01 -9.001145e-01 -3.365510e-01
    outer loop
      vertex   1.130690e-01 -2.543180e+00 -1.143500e+01
      vertex   3.450680e+00 -3.540150e+00 -6.025150e+00
      vertex   8.411060e-01 -4.585580e+00 -5.374120e+00
    endloop
  endfacet
  facet normal  2.266291e-01 -8.734474e-01  4.309628e-01
    outer loop
      vertex   5.091830e-01 -3.086320e+00 -2.160970e+00
      vertex   8.411060e-01 -4.585580e+00 -5.374120e+00
      vertex   3.163070e+00 -2.346040e+00 -2.056210e+00
    endloop
  endfacet
  facet normal  4.173100e-01 -8.614461e-01  2.894183e-01
    outer loop
      vertex   3.163070e+00 -2.346040e+00 -2.056210e+00
      vertex   8.411060e-01 -4.585580e+00 -5.374120e+00
      vertex   3.450680e+00 -3.540150e+00 -6.025150e+00
    endloop
  endfacet
  facet normal -2.926926e-01 -4.802106e-01 -8.268789e-01
    outer loop
      vertex  -2.722740e+00 -3.642220e+00 -6.941180e-01
      vertex   5.091830e-01 -3.086320e+00 -2.160970e+00
      vertex   1.363450e+00 -5.347750e+00 -1.150030e+00
    endloop
  endfacet
  facet normal -8.696873e-01 -4.550232e-01  1.913056e-01
    outer loop
      vertex  -3.297390e-01 -5.975690e+00  4.634420e+00
      vertex  -2.722740e+00 -3.642220e+00 -6.941180e-01
      vertex  -9.802510e-01 -6.385340e+00  7.027930e-01
    endloop
  endfacet
  facet normal  3.512397e-01 -9.359370e-01 -2.554452e-02
    outer loop
      vertex  -3.297390e-01 -5.975690e+00  4.634420e+00
      vertex   6.224690e+00 -3.470510e+00  2.970060e+00
      vertex   5.166880e+00 -3.941370e+00  5.677120e+00
    endloop
  endfacet
  facet normal -1.791002e-02 -5.335993e-01  8.455477e-01
    outer loop
      vertex  -1.504870e+00 -3.484370e+00  8.348490e+00
      vertex   3.345850e+00 -3.871800e+00  8.206740e+00
      vertex   5.871350e-01 -9.810500e-01  9.972570e+00
    endloop
  endfacet
  facet normal  1.370220e-01 -3.606636e-01 -9.225761e-01
    outer loop
      vertex   5.091830e-01 -3.086320e+00 -2.160970e+00
      vertex   3.163070e+00 -2.346040e+00 -2.056210e+00
      vertex   1.363450e+00 -5.347750e+00 -1.150030e+00
    endloop
  endfacet
  facet normal  4.251856e-01 -4.855144e-01 -7.638671e-01
    outer loop
      vertex   1.363450e+00 -5.347750e+00 -1.150030e+00
      vertex   3.163070e+00 -2.346040e+00 -2.056210e+00
      vertex   4.624870e+00 -4.677080e+00  2.390710e-01
    endloop
  endfacet
  facet normal -3.271462e-01 -5.855219e-01 -7.417139e-01
    outer loop
      vertex  -2.722740e+00 -3.642220e+00 -6.941180e-01
      vertex   1.363450e+00 -5.347750e+00 -1.150030e+00
      vertex  -9.802510e-01 -6.385340e+00  7.027930e-01
    endloop
  endfacet
  facet normal  5.699406e-01 -8.211766e-01  2.892899e-02
    outer loop
      vertex   7.345620e-01 -7.283270e+00  2.904290e+00
      vertex   4.624870e+00 -4.677080e+00  2.390710e-01
      vertex   6.224690e+00 -3.470510e+00  2.970060e+00
    endloop
  endfacet
  facet normal  4.036056e-01 -5.931822e-01  6.965899e-01
    outer loop
      vertex   6.224690e+00 -3.470510e+00  2.970060e+00
      vertex  -3.297390e-01 -5.975690e+00  4.634420e+00
      vertex   7.345620e-01 -7.283270e+00  2.904290e+00
    endloop
  endfacet
  facet normal  2.968119e-01 -9.245192e-01  2.390961e-01
    outer loop
      vertex   5.166880e+00 -3.941370e+00  5.677120e+00
      vertex   3.345850e+00 -3.871800e+00  8.206740e+00
      vertex  -3.297390e-01 -5.975690e+00  4.634420e+00
    endloop
  endfacet
  facet normal -5.090185e-02 -8.367705e-01  5.451827e-01
    outer loop
      vertex   3.345850e+00 -3.871800e+00  8.206740e+00
      vertex  -1.504870e+00 -3.484370e+00  8.348490e+00
      vertex  -3.297390e-01 -5.975690e+00  4.634420e+00
    endloop
  endfacet
  facet normal -2.797452e-01 -8.359208e-01  4.722067e-01
    outer loop
      vertex  -1.504870e+00 -3.484370e+00  8.348490e+00
      vertex  -3.299930e+00 -4.147950e+00  6.110360e+00
      vertex  -3.297390e-01 -5.975690e+00  4.634420e+00
    endloop
  endfacet
  facet normal -6.299959e-01 -7.547588e-01  1.828777e-01
    outer loop
      vertex  -3.297390e-01 -5.975690e+00  4.634420e+00
      vertex  -9.802510e-01 -6.385340e+00  7.027930e-01
      vertex   7.345620e-01 -7.283270e+00  2.904290e+00
    endloop
  endfacet
  facet normal  3.336753e-01 -8.697952e-01 -3.634793e-01
    outer loop
      vertex   1.363450e+00 -5.347750e+00 -1.150030e+00
      vertex   4.624870e+00 -4.677080e+00  2.390710e-01
      vertex   7.345620e-01 -7.283270e+00  2.904290e+00
    endloop
  endfacet
  facet normal  6.731861e-02 -9.044099e-01 -4.213203e-01
    outer loop
      vertex   1.363450e+00 -5.347750e+00 -1.150030e+00
      vertex   7.345620e-01 -7.283270e+00  2.904290e+00
      vertex  -9.802510e-01 -6.385340e+00  7.027930e-01
    endloop
  endfacet
  facet normal  1.718852e-01  4.551272e-02  9.840651e-01
    outer loop
      vertex  -1.944480e+00  4.943720e+00 -3.873640e+00
      vertex  -5.480220e+00  4.327340e+00 -3.227550e+00
      vertex  -1.965540e+00  6.035510e-01 -3.669230e+00
    endloop
  endfacet
  facet normal -8.016022e-02  5.018797e-01  8.612149e-01
    outer loop
      vertex   5.940730e-01  3.065060e+00 -4.865450e+00
      vertex  -1.965540e+00  6.035510e-01 -3.669230e+00
      vertex  -3.506490e-01 -4.827990e-01 -2.885840e+00
    endloop
  endfacet
  facet normal -5.794484e-01  5.093157e-01  6.362681e-01
    outer loop
      vertex   5.940730e-01  3.065060e+00 -4.865450e+00
      vertex  -3.506490e-01 -4.827990e-01 -2.885840e+00
      vertex   1.539350e+00  1.317560e+00 -2.605760e+00
    endloop
  endfacet
  facet normal  4.790896e-01  4.781626e-01  7.360935e-01
    outer loop
      vertex  -7.185650e+00  4.988870e+00 -2.547290e+00
      vertex  -5.480220e+00  4.327340e+00 -3.227550e+00
      vertex  -5.625970e+00  6.773530e+00 -4.721720e+00
    endloop
  endfacet
  facet normal -5.842652e-01  5.606887e-01 -5.867387e-01
    outer loop
      vertex  -2.417650e+00  3.698960e+00 -3.036490e-01
      vertex  -4.612430e+00  3.115120e+00  1.323960e+00
      vertex  -3.551330e+00  4.340250e+00  1.438070e+00
    endloop
  endfacet
  facet normal -3.604166e-01  7.745512e-01 -5.197790e-01
    outer loop
      vertex  -2.417650e+00  3.698960e+00 -3.036490e-01
      vertex  -3.551330e+00  4.340250e+00  1.438070e+00
      vertex  -6.111810e-01  6.400150e+00  2.468930e+00
    endloop
  endfacet
  facet normal -5.708160e-02  7.334349e-01 -6.773587e-01
    outer loop
      vertex   4.404370e+00  4.803350e+00  3.172720e-01
      vertex  -2.417650e+00  3.698960e+00 -3.036490e-01
      vertex  -6.111810e-01  6.400150e+00  2.468930e+00
    endloop
  endfacet
  facet normal -8.213263e-01  5.544913e-01 -1.340249e-01
    outer loop
      vertex  -5.625970e+00  6.773530e+00 -4.721720e+00
      vertex  -6.760970e+00  4.597730e+00 -6.768030e+00
      vertex  -7.185650e+00  4.988870e+00 -2.547290e+00
    endloop
  endfacet
endsolid vcg
