solid STL generated by MeshLab
  facet normal  1.227238e-01  9.903952e-01  6.368806e-02
    outer loop
      vertex  -8.766119e+00  9.752941e+01  8.092192e+00
      vertex  -4.557240e+01  9.935653e+01  5.060310e+01
      vertex  -1.980537e+01  9.484657e+01  7.108447e+01
    endloop
  endfacet
  facet normal  4.370807e-01 -2.167771e-01  8.729079e-01
    outer loop
      vertex   3.102629e+01  9.586736e+01  6.680819e+01
      vertex   1.279448e+01  7.416913e+01  7.054867e+01
      vertex   4.640615e+01  5.265712e+01  4.837643e+01
    endloop
  endfacet
  facet normal  6.178760e-02  9.557320e-01 -2.876780e-01
    outer loop
      vertex  -3.477987e+01  8.248343e+01 -7.934689e+01
      vertex   2.495172e+01  9.378898e+01 -2.895811e+01
      vertex  -1.807838e+00  7.565672e+01 -9.494505e+01
    endloop
  endfacet
  facet normal -9.199539e-03  9.918087e-01  1.274005e-01
    outer loop
      vertex  -1.980537e+01  9.484657e+01  7.108447e+01
      vertex   3.102629e+01  9.586736e+01  6.680819e+01
      vertex   5.759378e+01  1.009045e+02  2.951224e+01
    endloop
  endfacet
  facet normal -5.810475e-02  9.865969e-01 -1.524810e-01
    outer loop
      vertex   2.495172e+01  9.378898e+01 -2.895811e+01
      vertex  -3.477987e+01  8.248343e+01 -7.934689e+01
      vertex  -8.766119e+00  9.752941e+01  8.092192e+00
    endloop
  endfacet
  facet normal -6.100464e-02  9.976309e-01  3.179825e-02
    outer loop
      vertex   5.759378e+01  1.009045e+02  2.951224e+01
      vertex  -8.766119e+00  9.752941e+01  8.092192e+00
      vertex  -1.980537e+01  9.484657e+01  7.108447e+01
    endloop
  endfacet
  facet normal -2.380124e-01 -9.623935e-01  1.309538e-01
    outer loop
      vertex   9.989904e-01 -1.000053e+02 -5.938655e+01
      vertex   7.081302e+00 -9.518501e+01 -1.290680e+01
      vertex  -3.144918e+01 -9.024982e+01 -4.666784e+01
    endloop
  endfacet
  facet normal  3.134817e-01 -7.987263e-01  5.135812e-01
    outer loop
      vertex   5.226059e+01  2.994331e+01  5.174037e+01
      vertex   2.673204e+01  2.355901e+01  5.739366e+01
      vertex   4.030159e+01  4.882010e+00  2.006439e+01
    endloop
  endfacet
  facet normal -6.092255e-01  9.475942e-02  7.873151e-01
    outer loop
      vertex  -1.980537e+01  9.484657e+01  7.108447e+01
      vertex  -4.557240e+01  9.935653e+01  5.060310e+01
      vertex  -4.842513e+01  4.805667e+01  5.456998e+01
    endloop
  endfacet
  facet normal -6.384409e-02  2.011545e-01 -9.774768e-01
    outer loop
      vertex  -3.050713e+01  4.323864e+01 -6.879116e+01
      vertex   2.834880e+01  1.045145e+01 -7.938261e+01
      vertex  -3.308999e+01 -3.186715e-02 -7.752708e+01
    endloop
  endfacet
  facet normal -8.461761e-01  4.871101e-01  2.161244e-01
    outer loop
      vertex  -3.226176e+01 -7.202716e+00  2.178477e+01
      vertex  -5.511486e+01 -1.922170e+01 -4.060145e+01
      vertex  -4.965782e+01 -2.470225e+01 -6.883584e+00
    endloop
  endfacet
  facet normal  9.974629e-01  4.853248e-02 -5.207964e-02
    outer loop
      vertex   5.477969e+01 -2.127861e+01 -4.118054e+01
      vertex   5.235184e+01  4.527838e+01 -2.565650e+01
      vertex   5.523014e+01  5.184887e+01  3.559353e+01
    endloop
  endfacet
  facet normal -6.232772e-01 -3.208354e-01  7.131552e-01
    outer loop
      vertex  -4.965782e+01 -2.470225e+01 -6.883584e+00
      vertex  -3.114816e+01 -6.926631e+01 -1.075523e+01
      vertex  -1.676115e+01 -5.315759e+01  9.065626e+00
    endloop
  endfacet
  facet normal  8.499072e-01 -1.893218e-01 -4.917470e-01
    outer loop
      vertex   5.477969e+01 -2.127861e+01 -4.118054e+01
      vertex   2.623729e+01 -6.244046e+01 -7.466433e+01
      vertex   5.027900e+01  5.865619e+00 -5.940977e+01
    endloop
  endfacet
  facet normal -6.556951e-01 -3.986373e-01  6.412116e-01
    outer loop
      vertex  -1.676115e+01 -5.315759e+01  9.065626e+00
      vertex  -3.226176e+01 -7.202716e+00  2.178477e+01
      vertex  -4.965782e+01 -2.470225e+01 -6.883584e+00
    endloop
  endfacet
  facet normal -7.648587e-01  1.710447e-01 -6.210756e-01
    outer loop
      vertex  -3.308999e+01 -3.186715e-02 -7.752708e+01
      vertex  -5.161635e+01  5.034430e+01 -4.083811e+01
      vertex  -3.050713e+01  4.323864e+01 -6.879116e+01
    endloop
  endfacet
  facet normal  8.112741e-01  3.994514e-02  5.833000e-01
    outer loop
      vertex   4.640615e+01  5.265712e+01  4.837643e+01
      vertex   5.759378e+01  1.009045e+02  2.951224e+01
      vertex   3.102629e+01  9.586736e+01  6.680819e+01
    endloop
  endfacet
  facet normal -7.777802e-01 -6.135771e-01 -1.363123e-01
    outer loop
      vertex  -6.382753e+01  4.571653e+01  6.011194e+01
      vertex  -5.408725e+01  4.053389e+01  2.786364e+01
      vertex  -5.276782e+01  3.287985e+01  5.478793e+01
    endloop
  endfacet
  facet normal  8.785959e-01 -3.919365e-01  2.728645e-01
    outer loop
      vertex  -1.278603e+00 -9.086192e+01  5.731758e+01
      vertex   2.299845e+00 -9.858778e+01  3.469809e+01
      vertex   1.067089e+01 -8.036816e+01  3.391444e+01
    endloop
  endfacet
  facet normal -1.281576e-01  9.277337e-01  3.505509e-01
    outer loop
      vertex  -3.114816e+01 -6.926631e+01 -1.075523e+01
      vertex  -1.278603e+00 -9.086192e+01  5.731758e+01
      vertex   1.067089e+01 -8.036816e+01  3.391444e+01
    endloop
  endfacet
  facet normal -5.987180e-02 -9.952201e-01 -7.715132e-02
    outer loop
      vertex  -3.144918e+01 -9.024982e+01 -4.666784e+01
      vertex   7.081302e+00 -9.518501e+01 -1.290680e+01
      vertex   2.299845e+00 -9.858778e+01  3.469809e+01
    endloop
  endfacet
  facet normal  7.973056e-01  2.843526e-01  5.323978e-01
    outer loop
      vertex   5.523014e+01  5.184887e+01  3.559353e+01
      vertex   4.640615e+01  5.265712e+01  4.837643e+01
      vertex   5.226059e+01  2.994331e+01  5.174037e+01
    endloop
  endfacet
  facet normal  9.891577e-01 -1.435295e-01 -3.108624e-02
    outer loop
      vertex   5.235184e+01  4.527838e+01 -2.565650e+01
      vertex   5.821109e+01  9.080692e+01 -4.942800e+01
      vertex   5.523014e+01  5.184887e+01  3.559353e+01
    endloop
  endfacet
  facet normal -1.293853e-01 -7.936595e-01  5.944443e-01
    outer loop
      vertex   1.535331e+01 -1.621264e+01  2.011915e+01
      vertex  -8.657540e+00  1.551163e+01  5.724897e+01
      vertex  -3.226176e+01 -7.202716e+00  2.178477e+01
    endloop
  endfacet
  facet normal -5.061371e-01 -3.644878e-01 -7.816482e-01
    outer loop
      vertex  -4.249072e+01 -2.713398e+01 -6.894950e+01
      vertex  -5.886463e+00 -4.986477e+01 -8.205217e+01
      vertex  -3.144918e+01 -9.024982e+01 -4.666784e+01
    endloop
  endfacet
  facet normal  9.545569e-01 -2.495255e-01 -1.629663e-01
    outer loop
      vertex   4.030159e+01  4.882010e+00  2.006439e+01
      vertex   5.523014e+01  5.184887e+01  3.559353e+01
      vertex   5.226059e+01  2.994331e+01  5.174037e+01
    endloop
  endfacet
  facet normal -3.094540e-01 -6.937746e-01  6.503192e-01
    outer loop
      vertex  -3.226176e+01 -7.202716e+00  2.178477e+01
      vertex  -8.657540e+00  1.551163e+01  5.724897e+01
      vertex  -5.276782e+01  3.287985e+01  5.478793e+01
    endloop
  endfacet
  facet normal -8.209432e-01 -4.240386e-01  3.824181e-01
    outer loop
      vertex  -3.226176e+01 -7.202716e+00  2.178477e+01
      vertex  -5.408725e+01  4.053389e+01  2.786364e+01
      vertex  -5.511486e+01 -1.922170e+01 -4.060145e+01
    endloop
  endfacet
  facet normal -8.060530e-01 -1.912757e-01 -5.600823e-01
    outer loop
      vertex  -3.050713e+01  4.323864e+01 -6.879116e+01
      vertex  -5.161635e+01  5.034430e+01 -4.083811e+01
      vertex  -5.758268e+01  9.059241e+01 -4.599683e+01
    endloop
  endfacet
  facet normal -7.363992e-01 -6.673086e-01  1.114246e-01
    outer loop
      vertex   2.299845e+00 -9.858778e+01  3.469809e+01
      vertex  -1.278603e+00 -9.086192e+01  5.731758e+01
      vertex  -3.114816e+01 -6.926631e+01 -1.075523e+01
    endloop
  endfacet
  facet normal  8.473975e-01  3.189588e-01 -4.244795e-01
    outer loop
      vertex   5.235184e+01  4.527838e+01 -2.565650e+01
      vertex   5.027900e+01  5.865619e+00 -5.940977e+01
      vertex   3.190006e+01  4.541323e+01 -6.638350e+01
    endloop
  endfacet
  facet normal  9.366407e-01  5.895301e-02  3.452953e-01
    outer loop
      vertex   2.011400e+01 -5.491156e+01  3.953010e+00
      vertex   1.067089e+01 -8.036816e+01  3.391444e+01
      vertex   2.824352e+01 -7.910380e+01 -1.396857e+01
    endloop
  endfacet
  facet normal  2.861872e-02  9.878849e-01 -1.525267e-01
    outer loop
      vertex  -8.766119e+00  9.752941e+01  8.092192e+00
      vertex  -5.758268e+01  9.059241e+01 -4.599683e+01
      vertex  -5.694599e+01  1.012580e+02  2.320150e+01
    endloop
  endfacet
  facet normal  8.692366e-01 -3.860905e-01  3.088071e-01
    outer loop
      vertex   2.299845e+00 -9.858778e+01  3.469809e+01
      vertex   2.824352e+01 -7.910380e+01 -1.396857e+01
      vertex   1.067089e+01 -8.036816e+01  3.391444e+01
    endloop
  endfacet
  facet normal  9.988273e-01 -4.642181e-02  1.374888e-02
    outer loop
      vertex   5.821109e+01  9.080692e+01 -4.942800e+01
      vertex   5.759378e+01  1.009045e+02  2.951224e+01
      vertex   5.523014e+01  5.184887e+01  3.559353e+01
    endloop
  endfacet
  facet normal -9.105430e-01 -4.072459e-01 -7.115038e-02
    outer loop
      vertex  -5.408725e+01  4.053389e+01  2.786364e+01
      vertex  -3.226176e+01 -7.202716e+00  2.178477e+01
      vertex  -5.276782e+01  3.287985e+01  5.478793e+01
    endloop
  endfacet
  facet normal -1.374689e-01 -3.070137e-01  9.417244e-01
    outer loop
      vertex  -1.258166e+01 -1.938343e+01  2.068652e+01
      vertex  -3.226176e+01 -7.202716e+00  2.178477e+01
      vertex  -1.676115e+01 -5.315759e+01  9.065626e+00
    endloop
  endfacet
  facet normal -9.983298e-01  5.010880e-02 -2.875022e-02
    outer loop
      vertex  -5.408725e+01  4.053389e+01  2.786364e+01
      vertex  -5.161635e+01  5.034430e+01 -4.083811e+01
      vertex  -5.511486e+01 -1.922170e+01 -4.060145e+01
    endloop
  endfacet
  facet normal  2.577218e-02 -4.838755e-02  9.984961e-01
    outer loop
      vertex  -1.258166e+01 -1.938343e+01  2.068652e+01
      vertex   1.535331e+01 -1.621264e+01  2.011915e+01
      vertex  -3.226176e+01 -7.202716e+00  2.178477e+01
    endloop
  endfacet
  facet normal -9.238541e-01 -1.412723e-02  3.824842e-01
    outer loop
      vertex  -5.694599e+01  1.012580e+02  2.320150e+01
      vertex  -5.408725e+01  4.053389e+01  2.786364e+01
      vertex  -4.557240e+01  9.935653e+01  5.060310e+01
    endloop
  endfacet
  facet normal  2.547772e-01 -1.769437e-01  9.506732e-01
    outer loop
      vertex   2.673204e+01  2.355901e+01  5.739366e+01
      vertex   5.226059e+01  2.994331e+01  5.174037e+01
      vertex   1.279448e+01  7.416913e+01  7.054867e+01
    endloop
  endfacet
  facet normal  8.134306e-02  1.025551e-01  9.913960e-01
    outer loop
      vertex   3.102629e+01  9.586736e+01  6.680819e+01
      vertex  -1.980537e+01  9.484657e+01  7.108447e+01
      vertex   1.279448e+01  7.416913e+01  7.054867e+01
    endloop
  endfacet
  facet normal -9.864653e-01 -1.535910e-01 -5.741125e-02
    outer loop
      vertex  -5.758268e+01  9.059241e+01 -4.599683e+01
      vertex  -5.161635e+01  5.034430e+01 -4.083811e+01
      vertex  -5.408725e+01  4.053389e+01  2.786364e+01
    endloop
  endfacet
  facet normal  5.021693e-02 -2.382749e-01  9.698986e-01
    outer loop
      vertex  -8.657540e+00  1.551163e+01  5.724897e+01
      vertex   2.673204e+01  2.355901e+01  5.739366e+01
      vertex   1.279448e+01  7.416913e+01  7.054867e+01
    endloop
  endfacet
  facet normal -4.378206e-01 -4.195673e-01 -7.951580e-01
    outer loop
      vertex   9.989904e-01 -1.000053e+02 -5.938655e+01
      vertex  -3.144918e+01 -9.024982e+01 -4.666784e+01
      vertex  -5.886463e+00 -4.986477e+01 -8.205217e+01
    endloop
  endfacet
  facet normal -9.047289e-01 -2.735546e-01 -3.265476e-01
    outer loop
      vertex  -3.144918e+01 -9.024982e+01 -4.666784e+01
      vertex  -5.511486e+01 -1.922170e+01 -4.060145e+01
      vertex  -4.249072e+01 -2.713398e+01 -6.894950e+01
    endloop
  endfacet
  facet normal  8.734823e-02  9.956365e-01  3.283434e-02
    outer loop
      vertex  -8.766119e+00  9.752941e+01  8.092192e+00
      vertex  -5.694599e+01  1.012580e+02  2.320150e+01
      vertex  -4.557240e+01  9.935653e+01  5.060310e+01
    endloop
  endfacet
  facet normal  3.301935e-01 -4.269840e-01 -8.418177e-01
    outer loop
      vertex   2.893410e+01  8.080875e+01 -8.550006e+01
      vertex   3.190006e+01  4.541323e+01 -6.638350e+01
      vertex  -1.807838e+00  7.565672e+01 -9.494505e+01
    endloop
  endfacet
  facet normal -9.079701e-01  4.424483e-02 -4.166926e-01
    outer loop
      vertex  -5.511486e+01 -1.922170e+01 -4.060145e+01
      vertex  -5.161635e+01  5.034430e+01 -4.083811e+01
      vertex  -4.249072e+01 -2.713398e+01 -6.894950e+01
    endloop
  endfacet
  facet normal -9.248203e-01 -3.250203e-01  1.976592e-01
    outer loop
      vertex  -3.114816e+01 -6.926631e+01 -1.075523e+01
      vertex  -5.511486e+01 -1.922170e+01 -4.060145e+01
      vertex  -3.144918e+01 -9.024982e+01 -4.666784e+01
    endloop
  endfacet
  facet normal -8.206543e-01  1.070031e-01 -5.613170e-01
    outer loop
      vertex  -4.249072e+01 -2.713398e+01 -6.894950e+01
      vertex  -5.161635e+01  5.034430e+01 -4.083811e+01
      vertex  -3.308999e+01 -3.186715e-02 -7.752708e+01
    endloop
  endfacet
  facet normal -8.287098e-01 -2.277366e-01 -5.112494e-01
    outer loop
      vertex  -3.477987e+01  8.248343e+01 -7.934689e+01
      vertex  -3.050713e+01  4.323864e+01 -6.879116e+01
      vertex  -5.758268e+01  9.059241e+01 -4.599683e+01
    endloop
  endfacet
  facet normal  7.093206e-02  9.792933e-01 -1.896136e-01
    outer loop
      vertex  -3.477987e+01  8.248343e+01 -7.934689e+01
      vertex  -5.758268e+01  9.059241e+01 -4.599683e+01
      vertex  -8.766119e+00  9.752941e+01  8.092192e+00
    endloop
  endfacet
  facet normal -8.232224e-01 -4.871460e-01  2.915367e-01
    outer loop
      vertex   2.299845e+00 -9.858778e+01  3.469809e+01
      vertex  -3.114816e+01 -6.926631e+01 -1.075523e+01
      vertex  -3.144918e+01 -9.024982e+01 -4.666784e+01
    endloop
  endfacet
  facet normal -1.403287e-02  9.934880e-01 -1.130688e-01
    outer loop
      vertex   5.759378e+01  1.009045e+02  2.951224e+01
      vertex   2.495172e+01  9.378898e+01 -2.895811e+01
      vertex  -8.766119e+00  9.752941e+01  8.092192e+00
    endloop
  endfacet
  facet normal  9.000548e-01 -4.007750e-01  1.711164e-01
    outer loop
      vertex   4.457808e+01 -3.936797e+01 -6.820653e+00
      vertex   2.824352e+01 -7.910380e+01 -1.396857e+01
      vertex   2.862466e+01 -9.114878e+01 -4.418412e+01
    endloop
  endfacet
  facet normal  6.451130e-01  2.720245e-01  7.140251e-01
    outer loop
      vertex   5.226059e+01  2.994331e+01  5.174037e+01
      vertex   4.640615e+01  5.265712e+01  4.837643e+01
      vertex   1.279448e+01  7.416913e+01  7.054867e+01
    endloop
  endfacet
  facet normal -7.400466e-01 -1.466725e-01  6.563675e-01
    outer loop
      vertex   1.067089e+01 -8.036816e+01  3.391444e+01
      vertex  -1.676115e+01 -5.315759e+01  9.065626e+00
      vertex  -3.114816e+01 -6.926631e+01 -1.075523e+01
    endloop
  endfacet
  facet normal -1.010762e-01 -1.846875e-01  9.775859e-01
    outer loop
      vertex   1.279448e+01  7.416913e+01  7.054867e+01
      vertex  -1.980537e+01  9.484657e+01  7.108447e+01
      vertex  -8.657540e+00  1.551163e+01  5.724897e+01
    endloop
  endfacet
  facet normal -2.234592e-01  9.495390e-01 -2.200945e-01
    outer loop
      vertex  -5.408725e+01  4.053389e+01  2.786364e+01
      vertex  -6.382753e+01  4.571653e+01  6.011194e+01
      vertex  -4.842513e+01  4.805667e+01  5.456998e+01
    endloop
  endfacet
  facet normal  6.640650e-01 -6.743598e-02 -7.446274e-01
    outer loop
      vertex   2.834880e+01  1.045145e+01 -7.938261e+01
      vertex   5.027900e+01  5.865619e+00 -5.940977e+01
      vertex   2.623729e+01 -6.244046e+01 -7.466433e+01
    endloop
  endfacet
  facet normal -2.263877e-01 -1.981257e-01  9.536743e-01
    outer loop
      vertex  -8.657540e+00  1.551163e+01  5.724897e+01
      vertex  -1.980537e+01  9.484657e+01  7.108447e+01
      vertex  -4.842513e+01  4.805667e+01  5.456998e+01
    endloop
  endfacet
  facet normal -5.248458e-02  9.724912e-01 -2.269496e-01
    outer loop
      vertex   2.495172e+01  9.378898e+01 -2.895811e+01
      vertex   5.821109e+01  9.080692e+01 -4.942800e+01
      vertex   2.893410e+01  8.080875e+01 -8.550006e+01
    endloop
  endfacet
  facet normal  1.038471e-01 -6.957883e-01  7.107000e-01
    outer loop
      vertex   1.535331e+01 -1.621264e+01  2.011915e+01
      vertex   4.457808e+01 -3.936797e+01 -6.820653e+00
      vertex   2.673204e+01  2.355901e+01  5.739366e+01
    endloop
  endfacet
  facet normal  5.248822e-01 -5.987096e-01 -6.050168e-01
    outer loop
      vertex   2.623729e+01 -6.244046e+01 -7.466433e+01
      vertex   2.862466e+01 -9.114878e+01 -4.418412e+01
      vertex   9.989904e-01 -1.000053e+02 -5.938655e+01
    endloop
  endfacet
  facet normal  6.824414e-01  1.928240e-01 -7.050481e-01
    outer loop
      vertex   5.027900e+01  5.865619e+00 -5.940977e+01
      vertex   2.834880e+01  1.045145e+01 -7.938261e+01
      vertex   3.190006e+01  4.541323e+01 -6.638350e+01
    endloop
  endfacet
  facet normal  3.488962e-01 -8.643254e-02  9.331671e-01
    outer loop
      vertex  -5.276782e+01  3.287985e+01  5.478793e+01
      vertex  -4.842513e+01  4.805667e+01  5.456998e+01
      vertex  -6.382753e+01  4.571653e+01  6.011194e+01
    endloop
  endfacet
  facet normal  1.089759e-02  9.918697e-01 -1.267897e-01
    outer loop
      vertex   5.759378e+01  1.009045e+02  2.951224e+01
      vertex   5.821109e+01  9.080692e+01 -4.942800e+01
      vertex   2.495172e+01  9.378898e+01 -2.895811e+01
    endloop
  endfacet
  facet normal  5.271351e-01 -2.715315e-01  8.052325e-01
    outer loop
      vertex   1.535331e+01 -1.621264e+01  2.011915e+01
      vertex   2.011400e+01 -5.491156e+01  3.953010e+00
      vertex   4.457808e+01 -3.936797e+01 -6.820653e+00
    endloop
  endfacet
  facet normal  5.113481e-02 -4.055332e-01 -9.126489e-01
    outer loop
      vertex   2.623729e+01 -6.244046e+01 -7.466433e+01
      vertex   9.989904e-01 -1.000053e+02 -5.938655e+01
      vertex  -5.886463e+00 -4.986477e+01 -8.205217e+01
    endloop
  endfacet
  facet normal -4.571698e-01 -2.770858e-01 -8.451149e-01
    outer loop
      vertex  -3.050713e+01  4.323864e+01 -6.879116e+01
      vertex  -3.477987e+01  8.248343e+01 -7.934689e+01
      vertex  -1.807838e+00  7.565672e+01 -9.494505e+01
    endloop
  endfacet
  facet normal  6.051526e-01 -7.961000e-01  3.877033e-03
    outer loop
      vertex   2.824352e+01 -7.910380e+01 -1.396857e+01
      vertex   2.299845e+00 -9.858778e+01  3.469809e+01
      vertex   7.081302e+00 -9.518501e+01 -1.290680e+01
    endloop
  endfacet
  facet normal -4.499954e-02  2.721641e-02  9.986162e-01
    outer loop
      vertex  -4.842513e+01  4.805667e+01  5.456998e+01
      vertex  -5.276782e+01  3.287985e+01  5.478793e+01
      vertex  -8.657540e+00  1.551163e+01  5.724897e+01
    endloop
  endfacet
  facet normal  9.313647e-01 -3.525531e-01  9.091869e-02
    outer loop
      vertex   2.862466e+01 -9.114878e+01 -4.418412e+01
      vertex   5.477969e+01 -2.127861e+01 -4.118054e+01
      vertex   4.457808e+01 -3.936797e+01 -6.820653e+00
    endloop
  endfacet
  facet normal  5.592335e-01 -3.638827e-01  7.448807e-01
    outer loop
      vertex   2.011400e+01 -5.491156e+01  3.953010e+00
      vertex   2.824352e+01 -7.910380e+01 -1.396857e+01
      vertex   4.457808e+01 -3.936797e+01 -6.820653e+00
    endloop
  endfacet
  facet normal -4.108312e-01 -1.424999e-01 -9.005063e-01
    outer loop
      vertex  -5.886463e+00 -4.986477e+01 -8.205217e+01
      vertex  -4.249072e+01 -2.713398e+01 -6.894950e+01
      vertex  -3.308999e+01 -3.186715e-02 -7.752708e+01
    endloop
  endfacet
  facet normal  9.875829e-01  6.894946e-02 -1.411595e-01
    outer loop
      vertex   5.235184e+01  4.527838e+01 -2.565650e+01
      vertex   5.477969e+01 -2.127861e+01 -4.118054e+01
      vertex   5.027900e+01  5.865619e+00 -5.940977e+01
    endloop
  endfacet
  facet normal  8.234840e-01  3.055164e-02  5.665162e-01
    outer loop
      vertex   5.523014e+01  5.184887e+01  3.559353e+01
      vertex   5.759378e+01  1.009045e+02  2.951224e+01
      vertex   4.640615e+01  5.265712e+01  4.837643e+01
    endloop
  endfacet
  facet normal -4.166925e-02  6.777049e-02 -9.968304e-01
    outer loop
      vertex   2.834880e+01  1.045145e+01 -7.938261e+01
      vertex  -5.886463e+00 -4.986477e+01 -8.205217e+01
      vertex  -3.308999e+01 -3.186715e-02 -7.752708e+01
    endloop
  endfacet
  facet normal  1.978534e-01 -6.902403e-02 -9.777984e-01
    outer loop
      vertex  -5.886463e+00 -4.986477e+01 -8.205217e+01
      vertex   2.834880e+01  1.045145e+01 -7.938261e+01
      vertex   2.623729e+01 -6.244046e+01 -7.466433e+01
    endloop
  endfacet
  facet normal -9.352242e-01 -6.072042e-03  3.540040e-01
    outer loop
      vertex  -1.258166e+01 -1.938343e+01  2.068652e+01
      vertex  -1.676115e+01 -5.315759e+01  9.065626e+00
      vertex  -3.535566e+00 -5.202930e+01  4.402496e+01
    endloop
  endfacet
  facet normal -9.988196e-01 -4.577466e-02  1.624534e-02
    outer loop
      vertex  -5.694599e+01  1.012580e+02  2.320150e+01
      vertex  -5.758268e+01  9.059241e+01 -4.599683e+01
      vertex  -5.408725e+01  4.053389e+01  2.786364e+01
    endloop
  endfacet
  facet normal -9.174906e-01 -3.884938e-01  8.534435e-02
    outer loop
      vertex  -3.114816e+01 -6.926631e+01 -1.075523e+01
      vertex  -4.965782e+01 -2.470225e+01 -6.883584e+00
      vertex  -5.511486e+01 -1.922170e+01 -4.060145e+01
    endloop
  endfacet
  facet normal  5.190616e-02 -6.544881e-01 -7.542885e-01
    outer loop
      vertex  -1.807838e+00  7.565672e+01 -9.494505e+01
      vertex   3.190006e+01  4.541323e+01 -6.638350e+01
      vertex  -3.050713e+01  4.323864e+01 -6.879116e+01
    endloop
  endfacet
  facet normal  7.850941e-01 -2.421127e-01 -5.700953e-01
    outer loop
      vertex   3.190006e+01  4.541323e+01 -6.638350e+01
      vertex   2.893410e+01  8.080875e+01 -8.550006e+01
      vertex   5.821109e+01  9.080692e+01 -4.942800e+01
    endloop
  endfacet
  facet normal  1.560613e-01 -6.988539e-01  6.980316e-01
    outer loop
      vertex  -8.657540e+00  1.551163e+01  5.724897e+01
      vertex   1.535331e+01 -1.621264e+01  2.011915e+01
      vertex   2.673204e+01  2.355901e+01  5.739366e+01
    endloop
  endfacet
  facet normal -9.206462e-02  9.690741e-01 -2.289529e-01
    outer loop
      vertex   2.495172e+01  9.378898e+01 -2.895811e+01
      vertex   2.893410e+01  8.080875e+01 -8.550006e+01
      vertex  -1.807838e+00  7.565672e+01 -9.494505e+01
    endloop
  endfacet
  facet normal -4.086201e-02 -9.980270e-01  4.766917e-02
    outer loop
      vertex  -3.535566e+00 -5.202930e+01  4.402496e+01
      vertex  -1.676115e+01 -5.315759e+01  9.065626e+00
      vertex   2.011400e+01 -5.491156e+01  3.953010e+00
    endloop
  endfacet
  facet normal  1.272247e-01  7.357351e-01  6.652125e-01
    outer loop
      vertex  -1.676115e+01 -5.315759e+01  9.065626e+00
      vertex   1.067089e+01 -8.036816e+01  3.391444e+01
      vertex   2.011400e+01 -5.491156e+01  3.953010e+00
    endloop
  endfacet
  facet normal  8.431096e-01 -3.301316e-01 -4.244754e-01
    outer loop
      vertex   5.235184e+01  4.527838e+01 -2.565650e+01
      vertex   3.190006e+01  4.541323e+01 -6.638350e+01
      vertex   5.821109e+01  9.080692e+01 -4.942800e+01
    endloop
  endfacet
  facet normal  2.726113e-01 -9.600009e-01  6.388582e-02
    outer loop
      vertex   9.989904e-01 -1.000053e+02 -5.938655e+01
      vertex   2.862466e+01 -9.114878e+01 -4.418412e+01
      vertex   7.081302e+00 -9.518501e+01 -1.290680e+01
    endloop
  endfacet
  facet normal -9.796895e-01  6.903736e-02  1.882612e-01
    outer loop
      vertex  -4.842513e+01  4.805667e+01  5.456998e+01
      vertex  -4.557240e+01  9.935653e+01  5.060310e+01
      vertex  -5.408725e+01  4.053389e+01  2.786364e+01
    endloop
  endfacet
  facet normal  5.856111e-01 -7.504019e-01  3.065235e-01
    outer loop
      vertex   7.081302e+00 -9.518501e+01 -1.290680e+01
      vertex   2.862466e+01 -9.114878e+01 -4.418412e+01
      vertex   2.824352e+01 -7.910380e+01 -1.396857e+01
    endloop
  endfacet
  facet normal  2.411650e-02  3.462455e-01 -9.378339e-01
    outer loop
      vertex   3.190006e+01  4.541323e+01 -6.638350e+01
      vertex   2.834880e+01  1.045145e+01 -7.938261e+01
      vertex  -3.050713e+01  4.323864e+01 -6.879116e+01
    endloop
  endfacet
  facet normal  8.450138e-01 -3.896727e-01  3.662062e-01
    outer loop
      vertex   5.477969e+01 -2.127861e+01 -4.118054e+01
      vertex   5.523014e+01  5.184887e+01  3.559353e+01
      vertex   4.030159e+01  4.882010e+00  2.006439e+01
    endloop
  endfacet
  facet normal  9.651781e-01 -6.124148e-02  2.543241e-01
    outer loop
      vertex   4.030159e+01  4.882010e+00  2.006439e+01
      vertex   4.457808e+01 -3.936797e+01 -6.820653e+00
      vertex   5.477969e+01 -2.127861e+01 -4.118054e+01
    endloop
  endfacet
  facet normal  8.775225e-01 -3.128673e-01 -3.634118e-01
    outer loop
      vertex   2.623729e+01 -6.244046e+01 -7.466433e+01
      vertex   5.477969e+01 -2.127861e+01 -4.118054e+01
      vertex   2.862466e+01 -9.114878e+01 -4.418412e+01
    endloop
  endfacet
  facet normal -4.829458e-02  5.719982e-01  8.188319e-01
    outer loop
      vertex  -1.258166e+01 -1.938343e+01  2.068652e+01
      vertex  -3.535566e+00 -5.202930e+01  4.402496e+01
      vertex   1.535331e+01 -1.621264e+01  2.011915e+01
    endloop
  endfacet
  facet normal  8.991589e-01 -1.604686e-01  4.071402e-01
    outer loop
      vertex   4.457808e+01 -3.936797e+01 -6.820653e+00
      vertex   4.030159e+01  4.882010e+00  2.006439e+01
      vertex   2.673204e+01  2.355901e+01  5.739366e+01
    endloop
  endfacet
  facet normal  8.526717e-01 -1.085872e-01  5.110380e-01
    outer loop
      vertex  -3.535566e+00 -5.202930e+01  4.402496e+01
      vertex   2.011400e+01 -5.491156e+01  3.953010e+00
      vertex   1.535331e+01 -1.621264e+01  2.011915e+01
    endloop
  endfacet
endsolid vcg
