solid STL generated by MeshLab
  facet normal  1.397157e-01  9.879784e-01  6.616800e-02
    outer loop
      vertex   9.724102e-01  9.695956e+01 -4.338278e+00
      vertex  -5.547250e+01  1.022673e+02  3.559497e+01
      vertex  -1.980537e+01  9.484657e+01  7.108447e+01
    endloop
  endfacet
  facet normal  5.324760e-02  9.754608e-01 -2.136371e-01
    outer loop
      vertex  -3.477987e+01  8.248343e+01 -7.934689e+01
      vertex   9.724102e-01  9.695956e+01 -4.338278e+00
      vertex   1.335073e+01  7.626006e+01 -9.576637e+01
    endloop
  endfacet
  facet normal  2.717883e-02  9.807212e-01  1.935128e-01
    outer loop
      vertex  -1.980537e+01  9.484657e+01  7.108447e+01
      vertex   2.241584e+01  9.330876e+01  7.294813e+01
      vertex   5.759378e+01  1.009045e+02  2.951224e+01
    endloop
  endfacet
  facet normal -7.399490e-02  9.972300e-01  7.553264e-03
    outer loop
      vertex   5.759378e+01  1.009045e+02  2.951224e+01
      vertex   9.724102e-01  9.695956e+01 -4.338278e+00
      vertex  -1.980537e+01  9.484657e+01  7.108447e+01
    endloop
  endfacet
  facet normal -2.176790e-01 -9.592068e-01  1.803832e-01
    outer loop
      vertex   9.989904e-01 -1.000053e+02 -5.938655e+01
      vertex   1.653629e+01 -9.338513e+01 -5.433317e+00
      vertex  -3.144918e+01 -9.024982e+01 -4.666784e+01
    endloop
  endfacet
  facet normal  6.619925e-01 -5.457741e-01  5.137085e-01
    outer loop
      vertex   5.415542e+01  4.376221e+01  4.351869e+01
      vertex   2.673204e+01  2.355901e+01  5.739366e+01
      vertex   4.030159e+01  4.882010e+00  2.006439e+01
    endloop
  endfacet
  facet normal -6.840274e-01  1.379437e-01  7.162946e-01
    outer loop
      vertex  -1.980537e+01  9.484657e+01  7.108447e+01
      vertex  -5.547250e+01  1.022673e+02  3.559497e+01
      vertex  -5.230545e+01  3.315645e+01  5.192870e+01
    endloop
  endfacet
  facet normal -8.497879e-02  1.648853e-01 -9.826452e-01
    outer loop
      vertex  -3.050713e+01  4.323864e+01 -6.879116e+01
      vertex   2.834880e+01  1.045145e+01 -7.938261e+01
      vertex  -3.745690e+01 -1.613878e+01 -7.815353e+01
    endloop
  endfacet
  facet normal -8.461760e-01  4.871103e-01  2.161242e-01
    outer loop
      vertex  -3.226176e+01 -7.202716e+00  2.178477e+01
      vertex  -5.511486e+01 -1.922170e+01 -4.060145e+01
      vertex  -4.965782e+01 -2.470225e+01 -6.883584e+00
    endloop
  endfacet
  facet normal  9.971867e-01  7.085893e-02 -2.444624e-02
    outer loop
      vertex   5.614767e+01 -1.561572e+01 -4.732622e+01
      vertex   5.235184e+01  4.527838e+01 -2.565650e+01
      vertex   5.415542e+01  4.376221e+01  4.351869e+01
    endloop
  endfacet
  facet normal -6.232771e-01 -3.208355e-01  7.131552e-01
    outer loop
      vertex  -4.965782e+01 -2.470225e+01 -6.883584e+00
      vertex  -3.114816e+01 -6.926631e+01 -1.075523e+01
      vertex  -1.676115e+01 -5.315759e+01  9.065626e+00
    endloop
  endfacet
  facet normal -6.556950e-01 -3.986374e-01  6.412116e-01
    outer loop
      vertex  -1.676115e+01 -5.315759e+01  9.065626e+00
      vertex  -3.226176e+01 -7.202716e+00  2.178477e+01
      vertex  -4.965782e+01 -2.470225e+01 -6.883584e+00
    endloop
  endfacet
  facet normal -7.604780e-01  1.870580e-01 -6.218380e-01
    outer loop
      vertex  -3.745690e+01 -1.613878e+01 -7.815353e+01
      vertex  -5.161635e+01  5.034430e+01 -4.083811e+01
      vertex  -3.050713e+01  4.323864e+01 -6.879116e+01
    endloop
  endfacet
  facet normal  7.628523e-01  1.102612e-01  6.371019e-01
    outer loop
      vertex   5.415542e+01  4.376221e+01  4.351869e+01
      vertex   5.759378e+01  1.009045e+02  2.951224e+01
      vertex   2.241584e+01  9.330876e+01  7.294813e+01
    endloop
  endfacet
  facet normal  3.504038e-02 -9.926016e-01 -1.162508e-01
    outer loop
      vertex  -3.144918e+01 -9.024982e+01 -4.666784e+01
      vertex   1.653629e+01 -9.338513e+01 -5.433317e+00
      vertex   2.299845e+00 -9.858778e+01  3.469809e+01
    endloop
  endfacet
  facet normal  9.893829e-01 -1.424261e-01 -2.891752e-02
    outer loop
      vertex   5.235184e+01  4.527838e+01 -2.565650e+01
      vertex   5.821109e+01  9.080692e+01 -4.942800e+01
      vertex   5.415542e+01  4.376221e+01  4.351869e+01
    endloop
  endfacet
  facet normal -1.293854e-01 -7.936594e-01  5.944443e-01
    outer loop
      vertex   1.535331e+01 -1.621264e+01  2.011915e+01
      vertex  -8.657540e+00  1.551163e+01  5.724897e+01
      vertex  -3.226176e+01 -7.202716e+00  2.178477e+01
    endloop
  endfacet
  facet normal -4.956641e-01 -3.733351e-01 -7.841799e-01
    outer loop
      vertex  -3.745690e+01 -1.613878e+01 -7.815353e+01
      vertex  -5.886463e+00 -4.986477e+01 -8.205217e+01
      vertex  -3.144918e+01 -9.024982e+01 -4.666784e+01
    endloop
  endfacet
  facet normal -3.495240e-01 -6.658772e-01  6.591211e-01
    outer loop
      vertex  -3.226176e+01 -7.202716e+00  2.178477e+01
      vertex  -8.657540e+00  1.551163e+01  5.724897e+01
      vertex  -5.230545e+01  3.315645e+01  5.192870e+01
    endloop
  endfacet
  facet normal -8.209433e-01 -4.240385e-01  3.824179e-01
    outer loop
      vertex  -3.226176e+01 -7.202716e+00  2.178477e+01
      vertex  -5.408725e+01  4.053389e+01  2.786364e+01
      vertex  -5.511486e+01 -1.922170e+01 -4.060145e+01
    endloop
  endfacet
  facet normal -8.060529e-01 -1.912757e-01 -5.600823e-01
    outer loop
      vertex  -3.050713e+01  4.323864e+01 -6.879116e+01
      vertex  -5.161635e+01  5.034430e+01 -4.083811e+01
      vertex  -5.758268e+01  9.059241e+01 -4.599683e+01
    endloop
  endfacet
  facet normal -8.145420e-01 -3.121719e-02  5.792640e-01
    outer loop
      vertex   2.299845e+00 -9.858778e+01  3.469809e+01
      vertex   5.447447e+00 -8.560128e+01  3.982400e+01
      vertex  -3.114816e+01 -6.926631e+01 -1.075523e+01
    endloop
  endfacet
  facet normal  8.739262e-01  2.103996e-01 -4.381608e-01
    outer loop
      vertex   5.235184e+01  4.527838e+01 -2.565650e+01
      vertex   5.614767e+01 -1.561572e+01 -4.732622e+01
      vertex   3.190006e+01  4.541323e+01 -6.638350e+01
    endloop
  endfacet
  facet normal  9.536132e-01 -1.520620e-01  2.598055e-01
    outer loop
      vertex   2.011400e+01 -5.491156e+01  3.953010e+00
      vertex   5.447447e+00 -8.560128e+01  3.982400e+01
      vertex   1.653629e+01 -9.338513e+01 -5.433317e+00
    endloop
  endfacet
  facet normal -6.997029e-03  9.899184e-01 -1.414657e-01
    outer loop
      vertex   9.724102e-01  9.695956e+01 -4.338278e+00
      vertex  -5.758268e+01  9.059241e+01 -4.599683e+01
      vertex  -5.547250e+01  1.022673e+02  3.559497e+01
    endloop
  endfacet
  facet normal  9.027911e-01 -3.284191e-01  2.776850e-01
    outer loop
      vertex   2.299845e+00 -9.858778e+01  3.469809e+01
      vertex   1.653629e+01 -9.338513e+01 -5.433317e+00
      vertex   5.447447e+00 -8.560128e+01  3.982400e+01
    endloop
  endfacet
  facet normal  9.982959e-01 -5.638783e-02  1.501944e-02
    outer loop
      vertex   5.821109e+01  9.080692e+01 -4.942800e+01
      vertex   5.759378e+01  1.009045e+02  2.951224e+01
      vertex   5.415542e+01  4.376221e+01  4.351869e+01
    endloop
  endfacet
  facet normal -9.106943e-01 -4.089955e-01 -5.795377e-02
    outer loop
      vertex  -5.408725e+01  4.053389e+01  2.786364e+01
      vertex  -3.226176e+01 -7.202716e+00  2.178477e+01
      vertex  -5.230545e+01  3.315645e+01  5.192870e+01
    endloop
  endfacet
  facet normal -7.923358e-01 -3.957624e-01  4.643019e-01
    outer loop
      vertex  -2.684783e+00 -4.806149e+01  3.743090e+01
      vertex  -3.226176e+01 -7.202716e+00  2.178477e+01
      vertex  -1.676115e+01 -5.315759e+01  9.065626e+00
    endloop
  endfacet
  facet normal -9.983298e-01  5.010875e-02 -2.875017e-02
    outer loop
      vertex  -5.408725e+01  4.053389e+01  2.786364e+01
      vertex  -5.161635e+01  5.034430e+01 -4.083811e+01
      vertex  -5.511486e+01 -1.922170e+01 -4.060145e+01
    endloop
  endfacet
  facet normal  1.118312e-01  4.249364e-01  8.982889e-01
    outer loop
      vertex  -2.684783e+00 -4.806149e+01  3.743090e+01
      vertex   1.535331e+01 -1.621264e+01  2.011915e+01
      vertex  -3.226176e+01 -7.202716e+00  2.178477e+01
    endloop
  endfacet
  facet normal  5.333477e-01 -1.525414e-01  8.320284e-01
    outer loop
      vertex   2.673204e+01  2.355901e+01  5.739366e+01
      vertex   5.415542e+01  4.376221e+01  4.351869e+01
      vertex   2.241584e+01  9.330876e+01  7.294813e+01
    endloop
  endfacet
  facet normal -9.864653e-01 -1.535910e-01 -5.741118e-02
    outer loop
      vertex  -5.758268e+01  9.059241e+01 -4.599683e+01
      vertex  -5.161635e+01  5.034430e+01 -4.083811e+01
      vertex  -5.408725e+01  4.053389e+01  2.786364e+01
    endloop
  endfacet
  facet normal  4.485385e-02 -2.147934e-01  9.756289e-01
    outer loop
      vertex  -8.657540e+00  1.551163e+01  5.724897e+01
      vertex   2.673204e+01  2.355901e+01  5.739366e+01
      vertex   2.241584e+01  9.330876e+01  7.294813e+01
    endloop
  endfacet
  facet normal -4.378205e-01 -4.195676e-01 -7.951581e-01
    outer loop
      vertex   9.989904e-01 -1.000053e+02 -5.938655e+01
      vertex  -3.144918e+01 -9.024982e+01 -4.666784e+01
      vertex  -5.886463e+00 -4.986477e+01 -8.205217e+01
    endloop
  endfacet
  facet normal -8.674941e-01 -2.524286e-01 -4.286419e-01
    outer loop
      vertex  -3.144918e+01 -9.024982e+01 -4.666784e+01
      vertex  -5.511486e+01 -1.922170e+01 -4.060145e+01
      vertex  -3.745690e+01 -1.613878e+01 -7.815353e+01
    endloop
  endfacet
  facet normal -9.054539e-01  4.409964e-02 -4.221474e-01
    outer loop
      vertex  -5.511486e+01 -1.922170e+01 -4.060145e+01
      vertex  -5.161635e+01  5.034430e+01 -4.083811e+01
      vertex  -3.745690e+01 -1.613878e+01 -7.815353e+01
    endloop
  endfacet
  facet normal -9.248204e-01 -3.250203e-01  1.976591e-01
    outer loop
      vertex  -3.114816e+01 -6.926631e+01 -1.075523e+01
      vertex  -5.511486e+01 -1.922170e+01 -4.060145e+01
      vertex  -3.144918e+01 -9.024982e+01 -4.666784e+01
    endloop
  endfacet
  facet normal -8.287099e-01 -2.277366e-01 -5.112495e-01
    outer loop
      vertex  -3.477987e+01  8.248343e+01 -7.934689e+01
      vertex  -3.050713e+01  4.323864e+01 -6.879116e+01
      vertex  -5.758268e+01  9.059241e+01 -4.599683e+01
    endloop
  endfacet
  facet normal  4.223105e-02  9.770682e-01 -2.086964e-01
    outer loop
      vertex  -3.477987e+01  8.248343e+01 -7.934689e+01
      vertex  -5.758268e+01  9.059241e+01 -4.599683e+01
      vertex   9.724102e-01  9.695956e+01 -4.338278e+00
    endloop
  endfacet
  facet normal -8.232224e-01 -4.871461e-01  2.915366e-01
    outer loop
      vertex   2.299845e+00 -9.858778e+01  3.469809e+01
      vertex  -3.114816e+01 -6.926631e+01 -1.075523e+01
      vertex  -3.144918e+01 -9.024982e+01 -4.666784e+01
    endloop
  endfacet
  facet normal  8.632982e-01 -4.419000e-01  2.438045e-01
    outer loop
      vertex   4.457808e+01 -3.936797e+01 -6.820653e+00
      vertex   1.653629e+01 -9.338513e+01 -5.433317e+00
      vertex   2.862466e+01 -9.114878e+01 -4.418412e+01
    endloop
  endfacet
  facet normal -8.099208e-01  1.655806e-03  5.865371e-01
    outer loop
      vertex   5.447447e+00 -8.560128e+01  3.982400e+01
      vertex  -1.676115e+01 -5.315759e+01  9.065626e+00
      vertex  -3.114816e+01 -6.926631e+01 -1.075523e+01
    endloop
  endfacet
  facet normal -4.987369e-02 -1.783839e-01  9.826962e-01
    outer loop
      vertex   2.241584e+01  9.330876e+01  7.294813e+01
      vertex  -1.980537e+01  9.484657e+01  7.108447e+01
      vertex  -8.657540e+00  1.551163e+01  5.724897e+01
    endloop
  endfacet
  facet normal  7.269881e-01 -6.530441e-02 -6.835376e-01
    outer loop
      vertex   2.834880e+01  1.045145e+01 -7.938261e+01
      vertex   5.614767e+01 -1.561572e+01 -4.732622e+01
      vertex   2.623729e+01 -6.244046e+01 -7.466433e+01
    endloop
  endfacet
  facet normal -1.960192e-01 -1.951340e-01  9.609886e-01
    outer loop
      vertex  -8.657540e+00  1.551163e+01  5.724897e+01
      vertex  -1.980537e+01  9.484657e+01  7.108447e+01
      vertex  -5.230545e+01  3.315645e+01  5.192870e+01
    endloop
  endfacet
  facet normal -7.694711e-02  9.701303e-01 -2.300572e-01
    outer loop
      vertex   9.724102e-01  9.695956e+01 -4.338278e+00
      vertex   5.821109e+01  9.080692e+01 -4.942800e+01
      vertex   1.335073e+01  7.626006e+01 -9.576637e+01
    endloop
  endfacet
  facet normal  1.038473e-01 -6.957883e-01  7.107000e-01
    outer loop
      vertex   1.535331e+01 -1.621264e+01  2.011915e+01
      vertex   4.457808e+01 -3.936797e+01 -6.820653e+00
      vertex   2.673204e+01  2.355901e+01  5.739366e+01
    endloop
  endfacet
  facet normal  5.248819e-01 -5.987099e-01 -6.050169e-01
    outer loop
      vertex   2.623729e+01 -6.244046e+01 -7.466433e+01
      vertex   2.862466e+01 -9.114878e+01 -4.418412e+01
      vertex   9.989904e-01 -1.000053e+02 -5.938655e+01
    endloop
  endfacet
  facet normal  8.004817e-01  1.357463e-01 -5.837826e-01
    outer loop
      vertex   5.614767e+01 -1.561572e+01 -4.732622e+01
      vertex   2.834880e+01  1.045145e+01 -7.938261e+01
      vertex   3.190006e+01  4.541323e+01 -6.638350e+01
    endloop
  endfacet
  facet normal  6.713533e-03  9.919022e-01 -1.268259e-01
    outer loop
      vertex   5.759378e+01  1.009045e+02  2.951224e+01
      vertex   5.821109e+01  9.080692e+01 -4.942800e+01
      vertex   9.724102e-01  9.695956e+01 -4.338278e+00
    endloop
  endfacet
  facet normal  5.271352e-01 -2.715314e-01  8.052323e-01
    outer loop
      vertex   1.535331e+01 -1.621264e+01  2.011915e+01
      vertex   2.011400e+01 -5.491156e+01  3.953010e+00
      vertex   4.457808e+01 -3.936797e+01 -6.820653e+00
    endloop
  endfacet
  facet normal  5.113474e-02 -4.055334e-01 -9.126488e-01
    outer loop
      vertex   2.623729e+01 -6.244046e+01 -7.466433e+01
      vertex   9.989904e-01 -1.000053e+02 -5.938655e+01
      vertex  -5.886463e+00 -4.986477e+01 -8.205217e+01
    endloop
  endfacet
  facet normal -3.421630e-01 -2.786228e-01 -8.973817e-01
    outer loop
      vertex  -3.050713e+01  4.323864e+01 -6.879116e+01
      vertex  -3.477987e+01  8.248343e+01 -7.934689e+01
      vertex   1.335073e+01  7.626006e+01 -9.576637e+01
    endloop
  endfacet
  facet normal  9.382380e-01 -3.389998e-01  6.920078e-02
    outer loop
      vertex   2.862466e+01 -9.114878e+01 -4.418412e+01
      vertex   5.614767e+01 -1.561572e+01 -4.732622e+01
      vertex   4.457808e+01 -3.936797e+01 -6.820653e+00
    endloop
  endfacet
  facet normal  5.180292e-01 -2.478975e-01  8.186529e-01
    outer loop
      vertex   2.011400e+01 -5.491156e+01  3.953010e+00
      vertex   1.653629e+01 -9.338513e+01 -5.433317e+00
      vertex   4.457808e+01 -3.936797e+01 -6.820653e+00
    endloop
  endfacet
  facet normal -4.726963e-02  7.092845e-02 -9.963607e-01
    outer loop
      vertex   2.834880e+01  1.045145e+01 -7.938261e+01
      vertex  -5.886463e+00 -4.986477e+01 -8.205217e+01
      vertex  -3.745690e+01 -1.613878e+01 -7.815353e+01
    endloop
  endfacet
  facet normal  1.978534e-01 -6.902403e-02 -9.777984e-01
    outer loop
      vertex  -5.886463e+00 -4.986477e+01 -8.205217e+01
      vertex   2.834880e+01  1.045145e+01 -7.938261e+01
      vertex   2.623729e+01 -6.244046e+01 -7.466433e+01
    endloop
  endfacet
  facet normal -9.992209e-01 -2.612638e-02  2.958090e-02
    outer loop
      vertex  -5.547250e+01  1.022673e+02  3.559497e+01
      vertex  -5.758268e+01  9.059241e+01 -4.599683e+01
      vertex  -5.408725e+01  4.053389e+01  2.786364e+01
    endloop
  endfacet
  facet normal -9.174906e-01 -3.884938e-01  8.534423e-02
    outer loop
      vertex  -3.114816e+01 -6.926631e+01 -1.075523e+01
      vertex  -4.965782e+01 -2.470225e+01 -6.883584e+00
      vertex  -5.511486e+01 -1.922170e+01 -4.060145e+01
    endloop
  endfacet
  facet normal  5.191597e-02 -6.722415e-01 -7.385094e-01
    outer loop
      vertex   1.335073e+01  7.626006e+01 -9.576637e+01
      vertex   3.190006e+01  4.541323e+01 -6.638350e+01
      vertex  -3.050713e+01  4.323864e+01 -6.879116e+01
    endloop
  endfacet
  facet normal  7.343983e-01 -1.813750e-01 -6.540354e-01
    outer loop
      vertex   3.190006e+01  4.541323e+01 -6.638350e+01
      vertex   1.335073e+01  7.626006e+01 -9.576637e+01
      vertex   5.821109e+01  9.080692e+01 -4.942800e+01
    endloop
  endfacet
  facet normal  1.560613e-01 -6.988538e-01  6.980317e-01
    outer loop
      vertex  -8.657540e+00  1.551163e+01  5.724897e+01
      vertex   1.535331e+01 -1.621264e+01  2.011915e+01
      vertex   2.673204e+01  2.355901e+01  5.739366e+01
    endloop
  endfacet
  facet normal -2.081969e-02 -9.821792e-01  1.867898e-01
    outer loop
      vertex  -2.684783e+00 -4.806149e+01  3.743090e+01
      vertex  -1.676115e+01 -5.315759e+01  9.065626e+00
      vertex   2.011400e+01 -5.491156e+01  3.953010e+00
    endloop
  endfacet
  facet normal  1.280971e-01  7.271123e-01  6.744619e-01
    outer loop
      vertex  -1.676115e+01 -5.315759e+01  9.065626e+00
      vertex   5.447447e+00 -8.560128e+01  3.982400e+01
      vertex   2.011400e+01 -5.491156e+01  3.953010e+00
    endloop
  endfacet
  facet normal  8.431097e-01 -3.301315e-01 -4.244754e-01
    outer loop
      vertex   5.235184e+01  4.527838e+01 -2.565650e+01
      vertex   3.190006e+01  4.541323e+01 -6.638350e+01
      vertex   5.821109e+01  9.080692e+01 -4.942800e+01
    endloop
  endfacet
  facet normal  2.878122e-01 -9.570635e-01  3.455024e-02
    outer loop
      vertex   9.989904e-01 -1.000053e+02 -5.938655e+01
      vertex   2.862466e+01 -9.114878e+01 -4.418412e+01
      vertex   1.653629e+01 -9.338513e+01 -5.433317e+00
    endloop
  endfacet
  facet normal -9.974518e-01 -3.046161e-02  6.451404e-02
    outer loop
      vertex  -5.230545e+01  3.315645e+01  5.192870e+01
      vertex  -5.547250e+01  1.022673e+02  3.559497e+01
      vertex  -5.408725e+01  4.053389e+01  2.786364e+01
    endloop
  endfacet
  facet normal  2.411652e-02  3.462455e-01 -9.378339e-01
    outer loop
      vertex   3.190006e+01  4.541323e+01 -6.638350e+01
      vertex   2.834880e+01  1.045145e+01 -7.938261e+01
      vertex  -3.050713e+01  4.323864e+01 -6.879116e+01
    endloop
  endfacet
  facet normal  8.034172e-01 -4.901756e-01  3.380070e-01
    outer loop
      vertex   5.614767e+01 -1.561572e+01 -4.732622e+01
      vertex   5.415542e+01  4.376221e+01  4.351869e+01
      vertex   4.030159e+01  4.882010e+00  2.006439e+01
    endloop
  endfacet
  facet normal  9.681346e-01 -5.489019e-02  2.443406e-01
    outer loop
      vertex   4.030159e+01  4.882010e+00  2.006439e+01
      vertex   4.457808e+01 -3.936797e+01 -6.820653e+00
      vertex   5.614767e+01 -1.561572e+01 -4.732622e+01
    endloop
  endfacet
  facet normal  8.642297e-01 -3.306834e-01 -3.791510e-01
    outer loop
      vertex   2.623729e+01 -6.244046e+01 -7.466433e+01
      vertex   5.614767e+01 -1.561572e+01 -4.732622e+01
      vertex   2.862466e+01 -9.114878e+01 -4.418412e+01
    endloop
  endfacet
  facet normal  8.991587e-01 -1.604689e-01  4.071403e-01
    outer loop
      vertex   4.457808e+01 -3.936797e+01 -6.820653e+00
      vertex   4.030159e+01  4.882010e+00  2.006439e+01
      vertex   2.673204e+01  2.355901e+01  5.739366e+01
    endloop
  endfacet
  facet normal  8.043987e-01 -1.420238e-01  5.768638e-01
    outer loop
      vertex  -2.684783e+00 -4.806149e+01  3.743090e+01
      vertex   2.011400e+01 -5.491156e+01  3.953010e+00
      vertex   1.535331e+01 -1.621264e+01  2.011915e+01
    endloop
  endfacet
endsolid vcg
