solid STL generated by MeshLab
  facet normal  1.551144e-01  9.855494e-01  6.805797e-02
    outer loop
      vertex  -1.212836e+00  9.703642e+01 -3.002120e+00
      vertex  -5.478978e+01  1.025999e+02  3.854311e+01
      vertex  -1.980537e+01  9.484657e+01  7.108447e+01
    endloop
  endfacet
  facet normal  1.583741e-02  9.847958e-01  1.729924e-01
    outer loop
      vertex  -1.980537e+01  9.484657e+01  7.108447e+01
      vertex   2.445019e+01  9.379903e+01  7.299622e+01
      vertex   5.759378e+01  1.009045e+02  2.951224e+01
    endloop
  endfacet
  facet normal  5.122583e-02 -5.538229e-01 -8.310572e-01
    outer loop
      vertex  -1.865065e+01  7.873614e+01 -9.361620e+01
      vertex   3.094630e+01  4.406492e+01 -6.745392e+01
      vertex  -2.897015e+01  4.157315e+01 -6.948660e+01
    endloop
  endfacet
  facet normal -7.192221e-02  9.973448e-01  1.143023e-02
    outer loop
      vertex   5.759378e+01  1.009045e+02  2.951224e+01
      vertex  -1.212836e+00  9.703642e+01 -3.002120e+00
      vertex  -1.980537e+01  9.484657e+01  7.108447e+01
    endloop
  endfacet
  facet normal -4.018781e-01 -2.923000e-01  8.677872e-01
    outer loop
      vertex  -2.989087e+01 -1.629311e+01  1.425574e+01
      vertex  -2.699087e+01 -7.275070e+01 -3.418078e+00
      vertex   5.665195e+00 -5.804517e+01  1.665849e+01
    endloop
  endfacet
  facet normal -7.549668e-01 -6.485225e-01 -9.717879e-02
    outer loop
      vertex  -2.989087e+01 -1.629311e+01  1.425574e+01
      vertex   5.665195e+00 -5.804517e+01  1.665849e+01
      vertex  -3.699647e+00 -5.103066e+01  4.260114e+01
    endloop
  endfacet
  facet normal -6.639149e-01  1.092404e-01  7.397861e-01
    outer loop
      vertex  -1.980537e+01  9.484657e+01  7.108447e+01
      vertex  -5.478978e+01  1.025999e+02  3.854311e+01
      vertex  -5.044109e+01  3.127713e+01  5.297767e+01
    endloop
  endfacet
  facet normal -8.846565e-02  1.501774e-01 -9.846932e-01
    outer loop
      vertex  -2.897015e+01  4.157315e+01 -6.948660e+01
      vertex   2.834880e+01  1.045145e+01 -7.938261e+01
      vertex  -3.972571e+01 -1.329835e+01 -7.688886e+01
    endloop
  endfacet
  facet normal  9.934512e-01  9.202617e-02 -6.771982e-02
    outer loop
      vertex   5.477969e+01 -2.127861e+01 -4.118054e+01
      vertex   5.053746e+01  1.117205e+01 -5.931606e+01
      vertex   5.396552e+01  4.191550e+01  3.275163e+01
    endloop
  endfacet
  facet normal -8.488542e-01 -1.971477e-01  4.904888e-01
    outer loop
      vertex  -5.506431e+01 -1.816569e+01 -3.006281e+01
      vertex  -2.699087e+01 -7.275070e+01 -3.418078e+00
      vertex  -2.989087e+01 -1.629311e+01  1.425574e+01
    endloop
  endfacet
  facet normal  8.304501e-01 -1.850900e-01 -5.254468e-01
    outer loop
      vertex   5.477969e+01 -2.127861e+01 -4.118054e+01
      vertex   2.154428e+01 -5.570907e+01 -8.157972e+01
      vertex   5.053746e+01  1.117205e+01 -5.931606e+01
    endloop
  endfacet
  facet normal -7.572675e-01  2.308522e-01 -6.109447e-01
    outer loop
      vertex  -3.972571e+01 -1.329835e+01 -7.688886e+01
      vertex  -5.174012e+01  5.376814e+01 -3.665516e+01
      vertex  -2.897015e+01  4.157315e+01 -6.948660e+01
    endloop
  endfacet
  facet normal  7.967077e-01 -1.962162e-02  6.040462e-01
    outer loop
      vertex   3.656010e+01  2.459723e+01  5.477591e+01
      vertex   5.759378e+01  1.009045e+02  2.951224e+01
      vertex   2.445019e+01  9.379903e+01  7.299622e+01
    endloop
  endfacet
  facet normal -5.836013e-01  4.446566e-01  6.794777e-01
    outer loop
      vertex  -2.699087e+01 -7.275070e+01 -3.418078e+00
      vertex   2.182583e+00 -9.787933e+01  3.808332e+01
      vertex   1.067089e+01 -8.036816e+01  3.391444e+01
    endloop
  endfacet
  facet normal -2.139918e-01 -9.768028e-01  7.978662e-03
    outer loop
      vertex  -2.901501e+01 -9.182503e+01 -5.744297e+01
      vertex   5.324144e+00 -9.935423e+01 -5.822668e+01
      vertex   2.182583e+00 -9.787933e+01  3.808332e+01
    endloop
  endfacet
  facet normal  9.966747e-01 -8.085342e-02 -1.011150e-02
    outer loop
      vertex   5.053746e+01  1.117205e+01 -5.931606e+01
      vertex   5.701027e+01  8.953497e+01 -4.790579e+01
      vertex   5.396552e+01  4.191550e+01  3.275163e+01
    endloop
  endfacet
  facet normal -6.817558e-02 -7.856694e-01  6.148784e-01
    outer loop
      vertex   1.651065e+01 -1.376939e+01  2.262530e+01
      vertex  -8.657540e+00  1.551163e+01  5.724897e+01
      vertex  -2.989087e+01 -1.629311e+01  1.425574e+01
    endloop
  endfacet
  facet normal -3.231625e-01 -6.774637e-01  6.607639e-01
    outer loop
      vertex  -2.989087e+01 -1.629311e+01  1.425574e+01
      vertex  -8.657540e+00  1.551163e+01  5.724897e+01
      vertex  -5.044109e+01  3.127713e+01  5.297767e+01
    endloop
  endfacet
  facet normal -7.622421e-01 -4.628330e-01  4.525180e-01
    outer loop
      vertex  -2.989087e+01 -1.629311e+01  1.425574e+01
      vertex  -5.368584e+01  4.886299e+01  4.081572e+01
      vertex  -5.506431e+01 -1.816569e+01 -3.006281e+01
    endloop
  endfacet
  facet normal -8.361259e-01 -2.581229e-01 -4.840103e-01
    outer loop
      vertex  -2.897015e+01  4.157315e+01 -6.948660e+01
      vertex  -5.174012e+01  5.376814e+01 -3.665516e+01
      vertex  -5.758954e+01  9.058766e+01 -4.618617e+01
    endloop
  endfacet
  facet normal  4.996042e-01  8.426779e-02 -8.621454e-01
    outer loop
      vertex   5.701027e+01  8.953497e+01 -4.790579e+01
      vertex   5.053746e+01  1.117205e+01 -5.931606e+01
      vertex   3.094630e+01  4.406492e+01 -6.745392e+01
    endloop
  endfacet
  facet normal  8.875379e-01  3.893924e-01  2.462721e-01
    outer loop
      vertex   5.665195e+00 -5.804517e+01  1.665849e+01
      vertex   1.067089e+01 -8.036816e+01  3.391444e+01
      vertex   3.252251e+01 -8.528413e+01 -3.706355e+01
    endloop
  endfacet
  facet normal -5.882601e-03  9.901091e-01 -1.401753e-01
    outer loop
      vertex  -1.212836e+00  9.703642e+01 -3.002120e+00
      vertex  -5.758954e+01  9.058766e+01 -4.618617e+01
      vertex  -5.478978e+01  1.025999e+02  3.854311e+01
    endloop
  endfacet
  facet normal  1.700806e-01 -4.268933e-01 -8.881637e-01
    outer loop
      vertex   3.094630e+01  4.406492e+01 -6.745392e+01
      vertex  -1.865065e+01  7.873614e+01 -9.361620e+01
      vertex   2.893410e+01  8.080875e+01 -8.550006e+01
    endloop
  endfacet
  facet normal  8.850367e-01 -3.582357e-01  2.972832e-01
    outer loop
      vertex   2.182583e+00 -9.787933e+01  3.808332e+01
      vertex   3.252251e+01 -8.528413e+01 -3.706355e+01
      vertex   1.067089e+01 -8.036816e+01  3.391444e+01
    endloop
  endfacet
  facet normal  9.981177e-01 -6.131020e-02  1.481122e-03
    outer loop
      vertex   5.701027e+01  8.953497e+01 -4.790579e+01
      vertex   5.759378e+01  1.009045e+02  2.951224e+01
      vertex   5.396552e+01  4.191550e+01  3.275163e+01
    endloop
  endfacet
  facet normal -9.466287e-01 -2.822766e-01 -1.556084e-01
    outer loop
      vertex  -5.368584e+01  4.886299e+01  4.081572e+01
      vertex  -2.989087e+01 -1.629311e+01  1.425574e+01
      vertex  -5.044109e+01  3.127713e+01  5.297767e+01
    endloop
  endfacet
  facet normal -9.987778e-01  4.411241e-02 -2.229179e-02
    outer loop
      vertex  -5.368584e+01  4.886299e+01  4.081572e+01
      vertex  -5.174012e+01  5.376814e+01 -3.665516e+01
      vertex  -5.506431e+01 -1.816569e+01 -3.006281e+01
    endloop
  endfacet
  facet normal -2.546569e-01 -2.650347e-01 -9.300034e-01
    outer loop
      vertex  -2.901501e+01 -9.182503e+01 -5.744297e+01
      vertex  -3.972571e+01 -1.329835e+01 -7.688886e+01
      vertex   2.154428e+01 -5.570907e+01 -8.157972e+01
    endloop
  endfacet
  facet normal -9.855472e-01 -1.656944e-01 -3.524363e-02
    outer loop
      vertex  -5.758954e+01  9.058766e+01 -4.618617e+01
      vertex  -5.174012e+01  5.376814e+01 -3.665516e+01
      vertex  -5.368584e+01  4.886299e+01  4.081572e+01
    endloop
  endfacet
  facet normal  1.004426e-01 -2.368531e-01  9.663395e-01
    outer loop
      vertex  -8.657540e+00  1.551163e+01  5.724897e+01
      vertex   3.656010e+01  2.459723e+01  5.477591e+01
      vertex   2.445019e+01  9.379903e+01  7.299622e+01
    endloop
  endfacet
  facet normal -9.233624e-01 -2.061488e-01 -3.238898e-01
    outer loop
      vertex  -2.901501e+01 -9.182503e+01 -5.744297e+01
      vertex  -5.506431e+01 -1.816569e+01 -3.006281e+01
      vertex  -3.972571e+01 -1.329835e+01 -7.688886e+01
    endloop
  endfacet
  facet normal -9.506768e-01  1.554159e-02 -3.097934e-01
    outer loop
      vertex  -5.506431e+01 -1.816569e+01 -3.006281e+01
      vertex  -5.174012e+01  5.376814e+01 -3.665516e+01
      vertex  -3.972571e+01 -1.329835e+01 -7.688886e+01
    endloop
  endfacet
  facet normal -9.076198e-01 -3.840137e-01  1.695874e-01
    outer loop
      vertex  -2.699087e+01 -7.275070e+01 -3.418078e+00
      vertex  -5.506431e+01 -1.816569e+01 -3.006281e+01
      vertex  -2.901501e+01 -9.182503e+01 -5.744297e+01
    endloop
  endfacet
  facet normal -7.820272e-01 -1.718287e-01 -5.990895e-01
    outer loop
      vertex  -1.865065e+01  7.873614e+01 -9.361620e+01
      vertex  -2.897015e+01  4.157315e+01 -6.948660e+01
      vertex  -5.758954e+01  9.058766e+01 -4.618617e+01
    endloop
  endfacet
  facet normal  4.621246e-02  9.773996e-01 -2.062873e-01
    outer loop
      vertex  -1.865065e+01  7.873614e+01 -9.361620e+01
      vertex  -5.758954e+01  9.058766e+01 -4.618617e+01
      vertex  -1.212836e+00  9.703642e+01 -3.002120e+00
    endloop
  endfacet
  facet normal -8.001665e-01 -5.555226e-01  2.261154e-01
    outer loop
      vertex   2.182583e+00 -9.787933e+01  3.808332e+01
      vertex  -2.699087e+01 -7.275070e+01 -3.418078e+00
      vertex  -2.901501e+01 -9.182503e+01 -5.744297e+01
    endloop
  endfacet
  facet normal -6.038456e-01  3.983166e-01  6.904451e-01
    outer loop
      vertex   1.067089e+01 -8.036816e+01  3.391444e+01
      vertex   5.665195e+00 -5.804517e+01  1.665849e+01
      vertex  -2.699087e+01 -7.275070e+01 -3.418078e+00
    endloop
  endfacet
  facet normal -4.667319e-02 -1.779745e-01  9.829276e-01
    outer loop
      vertex   2.445019e+01  9.379903e+01  7.299622e+01
      vertex  -1.980537e+01  9.484657e+01  7.108447e+01
      vertex  -8.657540e+00  1.551163e+01  5.724897e+01
    endloop
  endfacet
  facet normal  6.708807e-01 -4.441693e-02 -7.402340e-01
    outer loop
      vertex   2.834880e+01  1.045145e+01 -7.938261e+01
      vertex   5.053746e+01  1.117205e+01 -5.931606e+01
      vertex   2.154428e+01 -5.570907e+01 -8.157972e+01
    endloop
  endfacet
  facet normal -1.714337e-01 -1.925862e-01  9.661889e-01
    outer loop
      vertex  -8.657540e+00  1.551163e+01  5.724897e+01
      vertex  -1.980537e+01  9.484657e+01  7.108447e+01
      vertex  -5.044109e+01  3.127713e+01  5.297767e+01
    endloop
  endfacet
  facet normal -3.115373e-02  9.785042e-01 -2.038601e-01
    outer loop
      vertex  -1.212836e+00  9.703642e+01 -3.002120e+00
      vertex   5.701027e+01  8.953497e+01 -4.790579e+01
      vertex   2.893410e+01  8.080875e+01 -8.550006e+01
    endloop
  endfacet
  facet normal -9.695176e-01 -9.562871e-03  2.448352e-01
    outer loop
      vertex  -5.478978e+01  1.025999e+02  3.854311e+01
      vertex  -5.368584e+01  4.886299e+01  4.081572e+01
      vertex  -5.044109e+01  3.127713e+01  5.297767e+01
    endloop
  endfacet
  facet normal  1.689693e-01 -6.834292e-01  7.101928e-01
    outer loop
      vertex   1.651065e+01 -1.376939e+01  2.262530e+01
      vertex   4.606309e+01 -3.668327e+01 -6.456203e+00
      vertex   3.656010e+01  2.459723e+01  5.477591e+01
    endloop
  endfacet
  facet normal  6.746899e-01 -5.271631e-01 -5.166164e-01
    outer loop
      vertex   2.154428e+01 -5.570907e+01 -8.157972e+01
      vertex   3.252251e+01 -8.528413e+01 -3.706355e+01
      vertex   5.324144e+00 -9.935423e+01 -5.822668e+01
    endloop
  endfacet
  facet normal  6.523196e-01  2.082206e-01 -7.287822e-01
    outer loop
      vertex   5.053746e+01  1.117205e+01 -5.931606e+01
      vertex   2.834880e+01  1.045145e+01 -7.938261e+01
      vertex   3.094630e+01  4.406492e+01 -6.745392e+01
    endloop
  endfacet
  facet normal  1.532017e-02  9.892548e-01 -1.453969e-01
    outer loop
      vertex   5.759378e+01  1.009045e+02  2.951224e+01
      vertex   5.701027e+01  8.953497e+01 -4.790579e+01
      vertex  -1.212836e+00  9.703642e+01 -3.002120e+00
    endloop
  endfacet
  facet normal  5.761271e-01 -2.461608e-01  7.794117e-01
    outer loop
      vertex   1.651065e+01 -1.376939e+01  2.262530e+01
      vertex   5.665195e+00 -5.804517e+01  1.665849e+01
      vertex   4.606309e+01 -3.668327e+01 -6.456203e+00
    endloop
  endfacet
  facet normal  4.419279e-01 -8.966089e-01  2.814618e-02
    outer loop
      vertex   3.252251e+01 -8.528413e+01 -3.706355e+01
      vertex   2.182583e+00 -9.787933e+01  3.808332e+01
      vertex   5.324144e+00 -9.935423e+01 -5.822668e+01
    endloop
  endfacet
  facet normal  9.422114e-01 -3.216069e-01  9.384291e-02
    outer loop
      vertex   3.252251e+01 -8.528413e+01 -3.706355e+01
      vertex   5.477969e+01 -2.127861e+01 -4.118054e+01
      vertex   4.606309e+01 -3.668327e+01 -6.456203e+00
    endloop
  endfacet
  facet normal  6.145915e-01 -5.358264e-01  5.789363e-01
    outer loop
      vertex   5.665195e+00 -5.804517e+01  1.665849e+01
      vertex   3.252251e+01 -8.528413e+01 -3.706355e+01
      vertex   4.606309e+01 -3.668327e+01 -6.456203e+00
    endloop
  endfacet
  facet normal  7.901731e-01 -1.495485e-02  6.127013e-01
    outer loop
      vertex   5.396552e+01  4.191550e+01  3.275163e+01
      vertex   5.759378e+01  1.009045e+02  2.951224e+01
      vertex   3.656010e+01  2.459723e+01  5.477591e+01
    endloop
  endfacet
  facet normal -4.991396e-02  3.827665e-02 -9.980198e-01
    outer loop
      vertex   2.834880e+01  1.045145e+01 -7.938261e+01
      vertex   2.154428e+01 -5.570907e+01 -8.157972e+01
      vertex  -3.972571e+01 -1.329835e+01 -7.688886e+01
    endloop
  endfacet
  facet normal -9.991811e-01 -1.901639e-02  3.571247e-02
    outer loop
      vertex  -5.478978e+01  1.025999e+02  3.854311e+01
      vertex  -5.758954e+01  9.058766e+01 -4.618617e+01
      vertex  -5.368584e+01  4.886299e+01  4.081572e+01
    endloop
  endfacet
  facet normal -1.778721e-01  5.381523e-01  8.238649e-01
    outer loop
      vertex  -3.699647e+00 -5.103066e+01  4.260114e+01
      vertex   1.651065e+01 -1.376939e+01  2.262530e+01
      vertex  -2.989087e+01 -1.629311e+01  1.425574e+01
    endloop
  endfacet
  facet normal  8.049577e-01 -2.254648e-01 -5.488249e-01
    outer loop
      vertex   3.094630e+01  4.406492e+01 -6.745392e+01
      vertex   2.893410e+01  8.080875e+01 -8.550006e+01
      vertex   5.701027e+01  8.953497e+01 -4.790579e+01
    endloop
  endfacet
  facet normal  1.762570e-01 -6.847123e-01  7.071793e-01
    outer loop
      vertex  -8.657540e+00  1.551163e+01  5.724897e+01
      vertex   1.651065e+01 -1.376939e+01  2.262530e+01
      vertex   3.656010e+01  2.459723e+01  5.477591e+01
    endloop
  endfacet
  facet normal -9.235327e-03  9.805114e-01 -1.962454e-01
    outer loop
      vertex  -1.212836e+00  9.703642e+01 -3.002120e+00
      vertex   2.893410e+01  8.080875e+01 -8.550006e+01
      vertex  -1.865065e+01  7.873614e+01 -9.361620e+01
    endloop
  endfacet
  facet normal  1.812675e-02  3.331436e-01 -9.427018e-01
    outer loop
      vertex   3.094630e+01  4.406492e+01 -6.745392e+01
      vertex   2.834880e+01  1.045145e+01 -7.938261e+01
      vertex  -2.897015e+01  4.157315e+01 -6.948660e+01
    endloop
  endfacet
  facet normal  8.453701e-01 -4.014250e-01  3.524308e-01
    outer loop
      vertex   5.477969e+01 -2.127861e+01 -4.118054e+01
      vertex   5.396552e+01  4.191550e+01  3.275163e+01
      vertex   3.656010e+01  2.459723e+01  5.477591e+01
    endloop
  endfacet
  facet normal  9.742758e-01 -6.463605e-02  2.158910e-01
    outer loop
      vertex   3.656010e+01  2.459723e+01  5.477591e+01
      vertex   4.606309e+01 -3.668327e+01 -6.456203e+00
      vertex   5.477969e+01 -2.127861e+01 -4.118054e+01
    endloop
  endfacet
  facet normal  8.472037e-01 -3.217958e-01 -4.227213e-01
    outer loop
      vertex   2.154428e+01 -5.570907e+01 -8.157972e+01
      vertex   5.477969e+01 -2.127861e+01 -4.118054e+01
      vertex   3.252251e+01 -8.528413e+01 -3.706355e+01
    endloop
  endfacet
  facet normal  8.806488e-01 -2.683362e-01  3.904529e-01
    outer loop
      vertex   5.665195e+00 -5.804517e+01  1.665849e+01
      vertex   1.651065e+01 -1.376939e+01  2.262530e+01
      vertex  -3.699647e+00 -5.103066e+01  4.260114e+01
    endloop
  endfacet
  facet normal -1.157228e-01 -4.348312e-01 -8.930453e-01
    outer loop
      vertex   5.324144e+00 -9.935423e+01 -5.822668e+01
      vertex  -2.901501e+01 -9.182503e+01 -5.744297e+01
      vertex   2.154428e+01 -5.570907e+01 -8.157972e+01
    endloop
  endfacet
endsolid vcg
