solid STL generated by MeshLab
  facet normal  1.227238e-01  9.903952e-01  6.368806e-02
    outer loop
      vertex  -8.766119e+00  9.752941e+01  8.092192e+00
      vertex  -4.557240e+01  9.935653e+01  5.060310e+01
      vertex  -1.980537e+01  9.484657e+01  7.108447e+01
    endloop
  endfacet
  facet normal  3.831071e-01 -1.652381e-01  9.088044e-01
    outer loop
      vertex   3.102629e+01  9.586736e+01  6.680819e+01
      vertex   1.279448e+01  7.416913e+01  7.054867e+01
      vertex   4.044769e+01  4.507595e+01  5.360174e+01
    endloop
  endfacet
  facet normal  6.438380e-02  9.546992e-01 -2.905239e-01
    outer loop
      vertex  -3.477987e+01  8.248343e+01 -7.934689e+01
      vertex   2.495172e+01  9.378898e+01 -2.895811e+01
      vertex  -7.635867e+00  7.652139e+01 -9.292348e+01
    endloop
  endfacet
  facet normal -9.199539e-03  9.918087e-01  1.274005e-01
    outer loop
      vertex  -1.980537e+01  9.484657e+01  7.108447e+01
      vertex   3.102629e+01  9.586736e+01  6.680819e+01
      vertex   5.759378e+01  1.009045e+02  2.951224e+01
    endloop
  endfacet
  facet normal -5.810475e-02  9.865969e-01 -1.524810e-01
    outer loop
      vertex   2.495172e+01  9.378898e+01 -2.895811e+01
      vertex  -3.477987e+01  8.248343e+01 -7.934689e+01
      vertex  -8.766119e+00  9.752941e+01  8.092192e+00
    endloop
  endfacet
  facet normal  5.166251e-02 -5.777887e-01 -8.145497e-01
    outer loop
      vertex  -7.635867e+00  7.652139e+01 -9.292348e+01
      vertex   3.094630e+01  4.406492e+01 -6.745392e+01
      vertex  -2.897015e+01  4.157315e+01 -6.948660e+01
    endloop
  endfacet
  facet normal -6.100464e-02  9.976309e-01  3.179825e-02
    outer loop
      vertex   5.759378e+01  1.009045e+02  2.951224e+01
      vertex  -8.766119e+00  9.752941e+01  8.092192e+00
      vertex  -1.980537e+01  9.484657e+01  7.108447e+01
    endloop
  endfacet
  facet normal -2.337111e-01 -9.626585e-01  1.366298e-01
    outer loop
      vertex   1.040337e+00 -1.002511e+02 -5.893435e+01
      vertex   7.081302e+00 -9.518501e+01 -1.290680e+01
      vertex  -3.118296e+01 -9.024904e+01 -4.358184e+01
    endloop
  endfacet
  facet normal -4.617461e-01 -4.320519e-01  7.746753e-01
    outer loop
      vertex  -2.380364e+01 -4.078103e+01  9.509297e+00
      vertex  -3.114816e+01 -6.926631e+01 -1.075523e+01
      vertex  -9.969560e+00 -5.561587e+01  9.481428e+00
    endloop
  endfacet
  facet normal -7.120753e-01 -6.644646e-01  2.267943e-01
    outer loop
      vertex  -2.380364e+01 -4.078103e+01  9.509297e+00
      vertex  -9.969560e+00 -5.561587e+01  9.481428e+00
      vertex  -3.699647e+00 -5.103066e+01  4.260114e+01
    endloop
  endfacet
  facet normal  6.385812e-01 -6.989414e-01  3.220172e-01
    outer loop
      vertex  -7.199897e+01  4.122438e+01  6.765475e+01
      vertex  -5.431110e+01  3.816900e+01  2.594682e+01
      vertex  -5.416455e+01  4.957797e+01  5.041946e+01
    endloop
  endfacet
  facet normal  3.134817e-01 -7.987263e-01  5.135812e-01
    outer loop
      vertex   5.226059e+01  2.994331e+01  5.174037e+01
      vertex   2.673204e+01  2.355901e+01  5.739366e+01
      vertex   4.030159e+01  4.882010e+00  2.006439e+01
    endloop
  endfacet
  facet normal -6.146843e-01  5.986177e-02  7.864984e-01
    outer loop
      vertex  -1.980537e+01  9.484657e+01  7.108447e+01
      vertex  -4.557240e+01  9.935653e+01  5.060310e+01
      vertex  -4.350630e+01  4.462529e+01  5.638354e+01
    endloop
  endfacet
  facet normal -9.662709e-01 -1.785408e-01 -1.855902e-01
    outer loop
      vertex  -5.409607e+01  8.952763e+01 -5.292645e+01
      vertex  -5.107151e+01  5.386096e+01 -3.436183e+01
      vertex  -5.836310e+01  7.485573e+01 -1.659567e+01
    endloop
  endfacet
  facet normal -6.289452e-02  1.953711e-01 -9.787105e-01
    outer loop
      vertex  -2.897015e+01  4.157315e+01 -6.948660e+01
      vertex   2.834880e+01  1.045145e+01 -7.938261e+01
      vertex  -3.308999e+01 -3.186715e-02 -7.752708e+01
    endloop
  endfacet
  facet normal -8.461761e-01  4.871101e-01  2.161244e-01
    outer loop
      vertex  -3.226176e+01 -7.202716e+00  2.178477e+01
      vertex  -5.511486e+01 -1.922170e+01 -4.060145e+01
      vertex  -4.965782e+01 -2.470225e+01 -6.883584e+00
    endloop
  endfacet
  facet normal  9.985133e-01  4.572951e-02 -2.966389e-02
    outer loop
      vertex   5.477969e+01 -2.127861e+01 -4.118054e+01
      vertex   5.272611e+01  3.979796e+01 -1.615087e+01
      vertex   5.399980e+01  4.319045e+01  3.195234e+01
    endloop
  endfacet
  facet normal -4.700655e-01 -7.104086e-01 -5.237920e-01
    outer loop
      vertex  -3.118296e+01 -9.024904e+01 -4.358184e+01
      vertex  -2.287714e+01 -7.796210e+01 -6.770023e+01
      vertex   1.040337e+00 -1.002511e+02 -5.893435e+01
    endloop
  endfacet
  facet normal -6.426944e-01 -3.271293e-01  6.927700e-01
    outer loop
      vertex  -4.965782e+01 -2.470225e+01 -6.883584e+00
      vertex  -3.114816e+01 -6.926631e+01 -1.075523e+01
      vertex  -2.380364e+01 -4.078103e+01  9.509297e+00
    endloop
  endfacet
  facet normal  8.668894e-01 -2.505408e-01 -4.309662e-01
    outer loop
      vertex   5.477969e+01 -2.127861e+01 -4.118054e+01
      vertex   2.623729e+01 -6.244046e+01 -7.466433e+01
      vertex   4.653560e+01 -1.102268e+01 -6.372580e+01
    endloop
  endfacet
  facet normal -6.550688e-01 -3.994648e-01  6.413367e-01
    outer loop
      vertex  -2.380364e+01 -4.078103e+01  9.509297e+00
      vertex  -3.226176e+01 -7.202716e+00  2.178477e+01
      vertex  -4.965782e+01 -2.470225e+01 -6.883584e+00
    endloop
  endfacet
  facet normal -7.684395e-01  1.939460e-01 -6.098243e-01
    outer loop
      vertex  -3.308999e+01 -3.186715e-02 -7.752708e+01
      vertex  -5.393760e+01  1.692497e+01 -4.586413e+01
      vertex  -2.897015e+01  4.157315e+01 -6.948660e+01
    endloop
  endfacet
  facet normal  8.144676e-01  2.150611e-04  5.802090e-01
    outer loop
      vertex   4.044769e+01  4.507595e+01  5.360174e+01
      vertex   5.759378e+01  1.009045e+02  2.951224e+01
      vertex   3.102629e+01  9.586736e+01  6.680819e+01
    endloop
  endfacet
  facet normal -9.965383e-01 -7.290353e-02  3.995496e-02
    outer loop
      vertex  -5.416455e+01  4.957797e+01  5.041946e+01
      vertex  -5.431110e+01  3.816900e+01  2.594682e+01
      vertex  -5.276782e+01  3.287985e+01  5.478793e+01
    endloop
  endfacet
  facet normal  8.985008e-01 -2.918425e-01  3.279091e-01
    outer loop
      vertex  -1.278603e+00 -9.086192e+01  5.731758e+01
      vertex   2.725764e+00 -9.879729e+01  3.928269e+01
      vertex   1.067089e+01 -8.036816e+01  3.391444e+01
    endloop
  endfacet
  facet normal -1.281576e-01  9.277337e-01  3.505509e-01
    outer loop
      vertex  -3.114816e+01 -6.926631e+01 -1.075523e+01
      vertex  -1.278603e+00 -9.086192e+01  5.731758e+01
      vertex   1.067089e+01 -8.036816e+01  3.391444e+01
    endloop
  endfacet
  facet normal -6.107160e-01 -2.478351e-01 -7.520663e-01
    outer loop
      vertex  -7.199897e+01  4.122438e+01  6.765475e+01
      vertex  -5.416455e+01  4.957797e+01  5.041946e+01
      vertex  -5.276782e+01  3.287985e+01  5.478793e+01
    endloop
  endfacet
  facet normal -1.762771e-01 -9.823980e-01  6.180998e-02
    outer loop
      vertex  -3.118296e+01 -9.024904e+01 -4.358184e+01
      vertex   7.081302e+00 -9.518501e+01 -1.290680e+01
      vertex  -1.575537e+01 -9.067529e+01 -6.358392e+00
    endloop
  endfacet
  facet normal  7.957494e-01 -2.424230e-01  5.549901e-01
    outer loop
      vertex   6.286989e+01  4.877250e+01  4.475338e+01
      vertex   5.464571e+01  4.803638e+01  5.622373e+01
      vertex   5.226059e+01  2.994331e+01  5.174037e+01
    endloop
  endfacet
  facet normal  9.846690e-01 -1.738858e-01 -1.380891e-02
    outer loop
      vertex   5.272611e+01  3.979796e+01 -1.615087e+01
      vertex   5.583641e+01  5.823723e+01 -2.655792e+01
      vertex   5.399980e+01  4.319045e+01  3.195234e+01
    endloop
  endfacet
  facet normal -9.976176e-01 -3.096561e-02 -6.164600e-02
    outer loop
      vertex  -5.107151e+01  5.386096e+01 -3.436183e+01
      vertex  -5.431110e+01  3.816900e+01  2.594682e+01
      vertex  -5.474771e+01  5.504075e+01  2.453753e+01
    endloop
  endfacet
  facet normal -1.177169e-01 -7.987983e-01  5.899695e-01
    outer loop
      vertex   1.651065e+01 -1.376939e+01  2.262530e+01
      vertex  -8.657540e+00  1.551163e+01  5.724897e+01
      vertex  -3.226176e+01 -7.202716e+00  2.178477e+01
    endloop
  endfacet
  facet normal -6.934261e-01 -7.035285e-01  1.555888e-01
    outer loop
      vertex  -1.278603e+00 -9.086192e+01  5.731758e+01
      vertex  -1.575537e+01 -9.067529e+01 -6.358392e+00
      vertex   2.725764e+00 -9.879729e+01  3.928269e+01
    endloop
  endfacet
  facet normal  8.775371e-01 -4.772685e-01  4.629690e-02
    outer loop
      vertex   4.030159e+01  4.882010e+00  2.006439e+01
      vertex   6.286989e+01  4.877250e+01  4.475338e+01
      vertex   5.226059e+01  2.994331e+01  5.174037e+01
    endloop
  endfacet
  facet normal -3.094540e-01 -6.937746e-01  6.503192e-01
    outer loop
      vertex  -3.226176e+01 -7.202716e+00  2.178477e+01
      vertex  -8.657540e+00  1.551163e+01  5.724897e+01
      vertex  -5.276782e+01  3.287985e+01  5.478793e+01
    endloop
  endfacet
  facet normal -8.167732e-01 -4.320091e-01  3.824261e-01
    outer loop
      vertex  -3.226176e+01 -7.202716e+00  2.178477e+01
      vertex  -5.431110e+01  3.816900e+01  2.594682e+01
      vertex  -5.511486e+01 -1.922170e+01 -4.060145e+01
    endloop
  endfacet
  facet normal -8.515909e-01 -2.970359e-01 -4.319288e-01
    outer loop
      vertex  -2.897015e+01  4.157315e+01 -6.948660e+01
      vertex  -5.107151e+01  5.386096e+01 -3.436183e+01
      vertex  -5.409607e+01  8.952763e+01 -5.292645e+01
    endloop
  endfacet
  facet normal -8.155940e-01 -5.486507e-01  1.838177e-01
    outer loop
      vertex  -1.575537e+01 -9.067529e+01 -6.358392e+00
      vertex  -1.278603e+00 -9.086192e+01  5.731758e+01
      vertex  -3.114816e+01 -6.926631e+01 -1.075523e+01
    endloop
  endfacet
  facet normal  6.597582e-01  4.886756e-01 -5.708899e-01
    outer loop
      vertex   5.583641e+01  5.823723e+01 -2.655792e+01
      vertex   4.874317e+01  3.759550e+01 -5.242443e+01
      vertex   3.094630e+01  4.406492e+01 -6.745392e+01
    endloop
  endfacet
  facet normal  9.361684e-01  6.596768e-02  3.453072e-01
    outer loop
      vertex   2.111085e+01 -6.049448e+01  1.813805e+00
      vertex   1.067089e+01 -8.036816e+01  3.391444e+01
      vertex   2.824352e+01 -7.910380e+01 -1.396857e+01
    endloop
  endfacet
  facet normal  2.906157e-02  9.880815e-01 -1.511631e-01
    outer loop
      vertex  -8.766119e+00  9.752941e+01  8.092192e+00
      vertex  -5.409607e+01  8.952763e+01 -5.292645e+01
      vertex  -5.694599e+01  1.012580e+02  2.320150e+01
    endloop
  endfacet
  facet normal  9.717447e-01 -2.167070e-01 -9.354232e-02
    outer loop
      vertex   5.272611e+01  3.979796e+01 -1.615087e+01
      vertex   4.874317e+01  3.759550e+01 -5.242443e+01
      vertex   5.583641e+01  5.823723e+01 -2.655792e+01
    endloop
  endfacet
  facet normal  2.275586e-01 -4.192020e-01 -8.789123e-01
    outer loop
      vertex   3.094630e+01  4.406492e+01 -6.745392e+01
      vertex  -7.635867e+00  7.652139e+01 -9.292348e+01
      vertex   2.893410e+01  8.080875e+01 -8.550006e+01
    endloop
  endfacet
  facet normal  8.997782e-01 -2.939841e-01  3.224477e-01
    outer loop
      vertex   2.725764e+00 -9.879729e+01  3.928269e+01
      vertex   2.824352e+01 -7.910380e+01 -1.396857e+01
      vertex   1.067089e+01 -8.036816e+01  3.391444e+01
    endloop
  endfacet
  facet normal  9.979871e-01 -6.149088e-02  1.551317e-02
    outer loop
      vertex   5.583641e+01  5.823723e+01 -2.655792e+01
      vertex   5.759378e+01  1.009045e+02  2.951224e+01
      vertex   5.399980e+01  4.319045e+01  3.195234e+01
    endloop
  endfacet
  facet normal -9.001041e-01 -4.345329e-01 -3.152411e-02
    outer loop
      vertex  -5.431110e+01  3.816900e+01  2.594682e+01
      vertex  -3.226176e+01 -7.202716e+00  2.178477e+01
      vertex  -5.276782e+01  3.287985e+01  5.478793e+01
    endloop
  endfacet
  facet normal -1.832712e-01 -3.779307e-01  9.075131e-01
    outer loop
      vertex  -1.258166e+01 -1.938343e+01  2.068652e+01
      vertex  -3.226176e+01 -7.202716e+00  2.178477e+01
      vertex  -2.380364e+01 -4.078103e+01  9.509297e+00
    endloop
  endfacet
  facet normal -9.994342e-01  3.048110e-02 -1.421564e-02
    outer loop
      vertex  -5.431110e+01  3.816900e+01  2.594682e+01
      vertex  -5.393760e+01  1.692497e+01 -4.586413e+01
      vertex  -5.511486e+01 -1.922170e+01 -4.060145e+01
    endloop
  endfacet
  facet normal -3.709395e-02 -1.490249e-01  9.881374e-01
    outer loop
      vertex  -1.258166e+01 -1.938343e+01  2.068652e+01
      vertex   1.651065e+01 -1.376939e+01  2.262530e+01
      vertex  -3.226176e+01 -7.202716e+00  2.178477e+01
    endloop
  endfacet
  facet normal  9.435019e-01  3.378442e-02 -3.296403e-01
    outer loop
      vertex   4.653560e+01 -1.102268e+01 -6.372580e+01
      vertex   4.874317e+01  3.759550e+01 -5.242443e+01
      vertex   5.477969e+01 -2.127861e+01 -4.118054e+01
    endloop
  endfacet
  facet normal -9.239057e-01 -3.292509e-02  3.812011e-01
    outer loop
      vertex  -5.694599e+01  1.012580e+02  2.320150e+01
      vertex  -5.474771e+01  5.504075e+01  2.453753e+01
      vertex  -4.557240e+01  9.935653e+01  5.060310e+01
    endloop
  endfacet
  facet normal -8.277241e-01 -3.305474e-01 -4.534439e-01
    outer loop
      vertex  -2.287714e+01 -7.796210e+01 -6.770023e+01
      vertex  -3.118296e+01 -9.024904e+01 -4.358184e+01
      vertex  -4.249072e+01 -2.713398e+01 -6.894950e+01
    endloop
  endfacet
  facet normal -9.895308e-01 -1.360565e-02  1.436795e-01
    outer loop
      vertex  -5.474771e+01  5.504075e+01  2.453753e+01
      vertex  -5.431110e+01  3.816900e+01  2.594682e+01
      vertex  -5.192447e+01  5.562432e+01  4.403666e+01
    endloop
  endfacet
  facet normal  2.547772e-01 -1.769437e-01  9.506732e-01
    outer loop
      vertex   2.673204e+01  2.355901e+01  5.739366e+01
      vertex   5.226059e+01  2.994331e+01  5.174037e+01
      vertex   1.279448e+01  7.416913e+01  7.054867e+01
    endloop
  endfacet
  facet normal  8.134306e-02  1.025551e-01  9.913960e-01
    outer loop
      vertex   3.102629e+01  9.586736e+01  6.680819e+01
      vertex  -1.980537e+01  9.484657e+01  7.108447e+01
      vertex   1.279448e+01  7.416913e+01  7.054867e+01
    endloop
  endfacet
  facet normal -3.515873e-01 -1.583482e-01 -9.226658e-01
    outer loop
      vertex  -2.287714e+01 -7.796210e+01 -6.770023e+01
      vertex  -4.249072e+01 -2.713398e+01 -6.894950e+01
      vertex  -2.875269e-01 -4.123616e+01 -8.261106e+01
    endloop
  endfacet
  facet normal -9.565449e-01 -2.865483e-01 -5.396296e-02
    outer loop
      vertex  -5.836310e+01  7.485573e+01 -1.659567e+01
      vertex  -5.107151e+01  5.386096e+01 -3.436183e+01
      vertex  -5.474771e+01  5.504075e+01  2.453753e+01
    endloop
  endfacet
  facet normal -9.881582e-01  1.417130e-01 -5.882881e-02
    outer loop
      vertex  -5.694599e+01  1.012580e+02  2.320150e+01
      vertex  -5.409607e+01  8.952763e+01 -5.292645e+01
      vertex  -5.836310e+01  7.485573e+01 -1.659567e+01
    endloop
  endfacet
  facet normal -9.957398e-01  8.688238e-02 -3.088176e-02
    outer loop
      vertex  -5.107151e+01  5.386096e+01 -3.436183e+01
      vertex  -5.393760e+01  1.692497e+01 -4.586413e+01
      vertex  -5.431110e+01  3.816900e+01  2.594682e+01
    endloop
  endfacet
  facet normal  5.021693e-02 -2.382749e-01  9.698986e-01
    outer loop
      vertex  -8.657540e+00  1.551163e+01  5.724897e+01
      vertex   2.673204e+01  2.355901e+01  5.739366e+01
      vertex   1.279448e+01  7.416913e+01  7.054867e+01
    endloop
  endfacet
  facet normal  8.047020e-01 -3.537210e-01  4.767978e-01
    outer loop
      vertex   3.907597e+01 -2.943325e+01  4.598257e+00
      vertex   2.824352e+01 -7.910380e+01 -1.396857e+01
      vertex   5.138803e+01 -2.742902e+01 -1.469420e+01
    endloop
  endfacet
  facet normal -9.016545e-01 -2.903548e-01 -3.204893e-01
    outer loop
      vertex  -3.118296e+01 -9.024904e+01 -4.358184e+01
      vertex  -5.511486e+01 -1.922170e+01 -4.060145e+01
      vertex  -4.249072e+01 -2.713398e+01 -6.894950e+01
    endloop
  endfacet
  facet normal  8.734823e-02  9.956365e-01  3.283434e-02
    outer loop
      vertex  -8.766119e+00  9.752941e+01  8.092192e+00
      vertex  -5.694599e+01  1.012580e+02  2.320150e+01
      vertex  -4.557240e+01  9.935653e+01  5.060310e+01
    endloop
  endfacet
  facet normal -9.160659e-01 -2.840434e-02 -4.000205e-01
    outer loop
      vertex  -5.511486e+01 -1.922170e+01 -4.060145e+01
      vertex  -5.393760e+01  1.692497e+01 -4.586413e+01
      vertex  -4.249072e+01 -2.713398e+01 -6.894950e+01
    endloop
  endfacet
  facet normal -9.247517e-01 -3.202150e-01  2.056614e-01
    outer loop
      vertex  -3.114816e+01 -6.926631e+01 -1.075523e+01
      vertex  -5.511486e+01 -1.922170e+01 -4.060145e+01
      vertex  -3.118296e+01 -9.024904e+01 -4.358184e+01
    endloop
  endfacet
  facet normal -2.165372e-01 -9.725333e-01 -8.538502e-02
    outer loop
      vertex  -1.575537e+01 -9.067529e+01 -6.358392e+00
      vertex   7.081302e+00 -9.518501e+01 -1.290680e+01
      vertex   2.725764e+00 -9.879729e+01  3.928269e+01
    endloop
  endfacet
  facet normal -8.071167e-01  9.556979e-02 -5.826055e-01
    outer loop
      vertex  -4.249072e+01 -2.713398e+01 -6.894950e+01
      vertex  -5.393760e+01  1.692497e+01 -4.586413e+01
      vertex  -3.308999e+01 -3.186715e-02 -7.752708e+01
    endloop
  endfacet
  facet normal -8.127903e-01 -2.430324e-01 -5.294404e-01
    outer loop
      vertex  -3.477987e+01  8.248343e+01 -7.934689e+01
      vertex  -2.897015e+01  4.157315e+01 -6.948660e+01
      vertex  -5.409607e+01  8.952763e+01 -5.292645e+01
    endloop
  endfacet
  facet normal  1.263651e-01 -5.213535e-01  8.439327e-01
    outer loop
      vertex   2.111085e+01 -6.049448e+01  1.813805e+00
      vertex   1.974201e+01 -4.856289e+01  9.389705e+00
      vertex  -9.969560e+00 -5.561587e+01  9.481428e+00
    endloop
  endfacet
  facet normal -7.816200e-01  2.399478e-01 -5.757561e-01
    outer loop
      vertex  -2.897015e+01  4.157315e+01 -6.948660e+01
      vertex  -5.393760e+01  1.692497e+01 -4.586413e+01
      vertex  -5.107151e+01  5.386096e+01 -3.436183e+01
    endloop
  endfacet
  facet normal  8.977652e-02  9.767299e-01 -1.947788e-01
    outer loop
      vertex  -3.477987e+01  8.248343e+01 -7.934689e+01
      vertex  -5.409607e+01  8.952763e+01 -5.292645e+01
      vertex  -8.766119e+00  9.752941e+01  8.092192e+00
    endloop
  endfacet
  facet normal -7.982180e-01 -5.071581e-01  3.250211e-01
    outer loop
      vertex  -1.575537e+01 -9.067529e+01 -6.358392e+00
      vertex  -3.114816e+01 -6.926631e+01 -1.075523e+01
      vertex  -3.118296e+01 -9.024904e+01 -4.358184e+01
    endloop
  endfacet
  facet normal -1.669207e-01  9.677308e-01 -1.887712e-01
    outer loop
      vertex   5.399980e+01  4.319045e+01  3.195234e+01
      vertex   4.044769e+01  4.507595e+01  5.360174e+01
      vertex   5.464571e+01  4.803638e+01  5.622373e+01
    endloop
  endfacet
  facet normal -1.403287e-02  9.934880e-01 -1.130688e-01
    outer loop
      vertex   5.759378e+01  1.009045e+02  2.951224e+01
      vertex   2.495172e+01  9.378898e+01 -2.895811e+01
      vertex  -8.766119e+00  9.752941e+01  8.092192e+00
    endloop
  endfacet
  facet normal  9.000775e-01 -4.007312e-01  1.710992e-01
    outer loop
      vertex   5.138803e+01 -2.742902e+01 -1.469420e+01
      vertex   2.824352e+01 -7.910380e+01 -1.396857e+01
      vertex   2.862466e+01 -9.114878e+01 -4.418412e+01
    endloop
  endfacet
  facet normal  7.721773e-01  5.676656e-01  2.854786e-01
    outer loop
      vertex   5.226059e+01  2.994331e+01  5.174037e+01
      vertex   4.044769e+01  4.507595e+01  5.360174e+01
      vertex   1.279448e+01  7.416913e+01  7.054867e+01
    endloop
  endfacet
  facet normal -7.166194e-01  8.567861e-02  6.921820e-01
    outer loop
      vertex   1.067089e+01 -8.036816e+01  3.391444e+01
      vertex  -9.969560e+00 -5.561587e+01  9.481428e+00
      vertex  -3.114816e+01 -6.926631e+01 -1.075523e+01
    endloop
  endfacet
  facet normal -1.010762e-01 -1.846875e-01  9.775859e-01
    outer loop
      vertex   1.279448e+01  7.416913e+01  7.054867e+01
      vertex  -1.980537e+01  9.484657e+01  7.108447e+01
      vertex  -8.657540e+00  1.551163e+01  5.724897e+01
    endloop
  endfacet
  facet normal -7.882257e-01  4.915175e-01 -3.702846e-01
    outer loop
      vertex  -5.431110e+01  3.816900e+01  2.594682e+01
      vertex  -7.199897e+01  4.122438e+01  6.765475e+01
      vertex  -5.192447e+01  5.562432e+01  4.403666e+01
    endloop
  endfacet
  facet normal  6.028962e-01 -6.891417e-02 -7.948378e-01
    outer loop
      vertex   2.834880e+01  1.045145e+01 -7.938261e+01
      vertex   4.653560e+01 -1.102268e+01 -6.372580e+01
      vertex   2.623729e+01 -6.244046e+01 -7.466433e+01
    endloop
  endfacet
  facet normal -1.860915e-01 -1.941187e-01  9.631656e-01
    outer loop
      vertex  -8.657540e+00  1.551163e+01  5.724897e+01
      vertex  -1.980537e+01  9.484657e+01  7.108447e+01
      vertex  -4.350630e+01  4.462529e+01  5.638354e+01
    endloop
  endfacet
  facet normal -5.996962e-02  9.719635e-01 -2.273557e-01
    outer loop
      vertex   2.495172e+01  9.378898e+01 -2.895811e+01
      vertex   5.582099e+01  9.001360e+01 -5.324053e+01
      vertex   2.893410e+01  8.080875e+01 -8.550006e+01
    endloop
  endfacet
  facet normal -8.128841e-01  3.074088e-02  5.816136e-01
    outer loop
      vertex  -4.557240e+01  9.935653e+01  5.060310e+01
      vertex  -5.192447e+01  5.562432e+01  4.403666e+01
      vertex  -4.350630e+01  4.462529e+01  5.638354e+01
    endloop
  endfacet
  facet normal  9.165389e-02 -6.920234e-01  7.160330e-01
    outer loop
      vertex   1.651065e+01 -1.376939e+01  2.262530e+01
      vertex   3.907597e+01 -2.943325e+01  4.598257e+00
      vertex   2.673204e+01  2.355901e+01  5.739366e+01
    endloop
  endfacet
  facet normal  8.268257e-01 -2.553947e-01  5.011315e-01
    outer loop
      vertex   4.030159e+01  4.882010e+00  2.006439e+01
      vertex   3.907597e+01 -2.943325e+01  4.598257e+00
      vertex   5.138803e+01 -2.742902e+01 -1.469420e+01
    endloop
  endfacet
  facet normal  5.221002e-01 -6.000675e-01 -6.060778e-01
    outer loop
      vertex   2.623729e+01 -6.244046e+01 -7.466433e+01
      vertex   2.862466e+01 -9.114878e+01 -4.418412e+01
      vertex   1.040337e+00 -1.002511e+02 -5.893435e+01
    endloop
  endfacet
  facet normal  7.500228e-01  1.689733e-01 -6.394637e-01
    outer loop
      vertex   4.653560e+01 -1.102268e+01 -6.372580e+01
      vertex   2.834880e+01  1.045145e+01 -7.938261e+01
      vertex   3.094630e+01  4.406492e+01 -6.745392e+01
    endloop
  endfacet
  facet normal  3.773834e-01 -4.103536e-01  8.301758e-01
    outer loop
      vertex  -5.276782e+01  3.287985e+01  5.478793e+01
      vertex  -4.350630e+01  4.462529e+01  5.638354e+01
      vertex  -7.199897e+01  4.122438e+01  6.765475e+01
    endloop
  endfacet
  facet normal  1.830322e-02  9.912337e-01 -1.308466e-01
    outer loop
      vertex   5.759378e+01  1.009045e+02  2.951224e+01
      vertex   5.582099e+01  9.001360e+01 -5.324053e+01
      vertex   2.495172e+01  9.378898e+01 -2.895811e+01
    endloop
  endfacet
  facet normal  1.442006e-01  7.856790e-01  6.015935e-01
    outer loop
      vertex  -7.199897e+01  4.122438e+01  6.765475e+01
      vertex  -4.350630e+01  4.462529e+01  5.638354e+01
      vertex  -5.192447e+01  5.562432e+01  4.403666e+01
    endloop
  endfacet
  facet normal  4.774023e-01 -2.733343e-01  8.350902e-01
    outer loop
      vertex   1.651065e+01 -1.376939e+01  2.262530e+01
      vertex   1.974201e+01 -4.856289e+01  9.389705e+00
      vertex   3.907597e+01 -2.943325e+01  4.598257e+00
    endloop
  endfacet
  facet normal -1.996028e-02 -3.726621e-01 -9.277524e-01
    outer loop
      vertex   2.623729e+01 -6.244046e+01 -7.466433e+01
      vertex   1.040337e+00 -1.002511e+02 -5.893435e+01
      vertex  -2.875269e-01 -4.123616e+01 -8.261106e+01
    endloop
  endfacet
  facet normal  8.412996e-01 -1.386941e-01 -5.224739e-01
    outer loop
      vertex   6.286989e+01  4.877250e+01  4.475338e+01
      vertex   4.030159e+01  4.882010e+00  2.006439e+01
      vertex   5.399980e+01  4.319045e+01  3.195234e+01
    endloop
  endfacet
  facet normal -4.774756e-01 -2.693816e-01 -8.363317e-01
    outer loop
      vertex  -2.897015e+01  4.157315e+01 -6.948660e+01
      vertex  -3.477987e+01  8.248343e+01 -7.934689e+01
      vertex  -7.635867e+00  7.652139e+01 -9.292348e+01
    endloop
  endfacet
  facet normal  6.048799e-01 -7.963032e-01 -4.634914e-03
    outer loop
      vertex   2.824352e+01 -7.910380e+01 -1.396857e+01
      vertex   2.725764e+00 -9.879729e+01  3.928269e+01
      vertex   7.081302e+00 -9.518501e+01 -1.290680e+01
    endloop
  endfacet
  facet normal -8.290160e-02 -6.968122e-02  9.941186e-01
    outer loop
      vertex  -4.350630e+01  4.462529e+01  5.638354e+01
      vertex  -5.276782e+01  3.287985e+01  5.478793e+01
      vertex  -8.657540e+00  1.551163e+01  5.724897e+01
    endloop
  endfacet
  facet normal  9.353148e-01 -3.517607e-01  3.808743e-02
    outer loop
      vertex   2.862466e+01 -9.114878e+01 -4.418412e+01
      vertex   5.477969e+01 -2.127861e+01 -4.118054e+01
      vertex   5.138803e+01 -2.742902e+01 -1.469420e+01
    endloop
  endfacet
  facet normal  5.684332e-01 -3.935372e-01  7.225041e-01
    outer loop
      vertex   2.111085e+01 -6.049448e+01  1.813805e+00
      vertex   3.907597e+01 -2.943325e+01  4.598257e+00
      vertex   1.974201e+01 -4.856289e+01  9.389705e+00
    endloop
  endfacet
  facet normal  5.691946e-01 -3.939057e-01  7.217035e-01
    outer loop
      vertex   2.111085e+01 -6.049448e+01  1.813805e+00
      vertex   2.824352e+01 -7.910380e+01 -1.396857e+01
      vertex   3.907597e+01 -2.943325e+01  4.598257e+00
    endloop
  endfacet
  facet normal -3.540498e-01 -1.683489e-01 -9.199497e-01
    outer loop
      vertex  -2.875269e-01 -4.123616e+01 -8.261106e+01
      vertex  -4.249072e+01 -2.713398e+01 -6.894950e+01
      vertex  -3.308999e+01 -3.186715e-02 -7.752708e+01
    endloop
  endfacet
  facet normal  9.903142e-01  7.984638e-02 -1.135875e-01
    outer loop
      vertex   5.272611e+01  3.979796e+01 -1.615087e+01
      vertex   5.477969e+01 -2.127861e+01 -4.118054e+01
      vertex   4.874317e+01  3.759550e+01 -5.242443e+01
    endloop
  endfacet
  facet normal  8.460538e-01 -3.018282e-02  5.322423e-01
    outer loop
      vertex   5.399980e+01  4.319045e+01  3.195234e+01
      vertex   5.759378e+01  1.009045e+02  2.951224e+01
      vertex   4.044769e+01  4.507595e+01  5.360174e+01
    endloop
  endfacet
  facet normal -4.490785e-02  8.704075e-02 -9.951921e-01
    outer loop
      vertex   2.834880e+01  1.045145e+01 -7.938261e+01
      vertex  -2.875269e-01 -4.123616e+01 -8.261106e+01
      vertex  -3.308999e+01 -3.186715e-02 -7.752708e+01
    endloop
  endfacet
  facet normal  2.348612e-01 -6.956127e-02 -9.695367e-01
    outer loop
      vertex  -2.875269e-01 -4.123616e+01 -8.261106e+01
      vertex   2.834880e+01  1.045145e+01 -7.938261e+01
      vertex   2.623729e+01 -6.244046e+01 -7.466433e+01
    endloop
  endfacet
  facet normal  6.680170e-01  1.395757e-01 -7.309391e-01
    outer loop
      vertex   4.874317e+01  3.759550e+01 -5.242443e+01
      vertex   4.653560e+01 -1.102268e+01 -6.372580e+01
      vertex   3.094630e+01  4.406492e+01 -6.745392e+01
    endloop
  endfacet
  facet normal -8.245066e-01  1.469804e-01  5.464299e-01
    outer loop
      vertex  -1.258166e+01 -1.938343e+01  2.068652e+01
      vertex  -2.380364e+01 -4.078103e+01  9.509297e+00
      vertex  -3.699647e+00 -5.103066e+01  4.260114e+01
    endloop
  endfacet
  facet normal  9.996887e-01 -1.575653e-02 -1.934231e-02
    outer loop
      vertex   5.583641e+01  5.823723e+01 -2.655792e+01
      vertex   5.582099e+01  9.001360e+01 -5.324053e+01
      vertex   5.759378e+01  1.009045e+02  2.951224e+01
    endloop
  endfacet
  facet normal -9.968017e-01 -4.551304e-02  6.568863e-02
    outer loop
      vertex  -5.694599e+01  1.012580e+02  2.320150e+01
      vertex  -5.836310e+01  7.485573e+01 -1.659567e+01
      vertex  -5.474771e+01  5.504075e+01  2.453753e+01
    endloop
  endfacet
  facet normal -9.174906e-01 -3.884938e-01  8.534435e-02
    outer loop
      vertex  -3.114816e+01 -6.926631e+01 -1.075523e+01
      vertex  -4.965782e+01 -2.470225e+01 -6.883584e+00
      vertex  -5.511486e+01 -1.922170e+01 -4.060145e+01
    endloop
  endfacet
  facet normal -1.580649e-01  5.317731e-01  8.320053e-01
    outer loop
      vertex  -3.699647e+00 -5.103066e+01  4.260114e+01
      vertex   1.651065e+01 -1.376939e+01  2.262530e+01
      vertex  -1.258166e+01 -1.938343e+01  2.068652e+01
    endloop
  endfacet
  facet normal -3.291314e-01  9.276514e-01 -1.764523e-01
    outer loop
      vertex   5.399980e+01  4.319045e+01  3.195234e+01
      vertex   5.464571e+01  4.803638e+01  5.622373e+01
      vertex   6.286989e+01  4.877250e+01  4.475338e+01
    endloop
  endfacet
  facet normal  7.781875e-01 -2.420110e-01 -5.795299e-01
    outer loop
      vertex   3.094630e+01  4.406492e+01 -6.745392e+01
      vertex   2.893410e+01  8.080875e+01 -8.550006e+01
      vertex   5.582099e+01  9.001360e+01 -5.324053e+01
    endloop
  endfacet
  facet normal  1.553393e-01 -6.957375e-01  7.012981e-01
    outer loop
      vertex  -8.657540e+00  1.551163e+01  5.724897e+01
      vertex   1.651065e+01 -1.376939e+01  2.262530e+01
      vertex   2.673204e+01  2.355901e+01  5.739366e+01
    endloop
  endfacet
  facet normal -6.764677e-02  9.713649e-01 -2.277589e-01
    outer loop
      vertex   2.495172e+01  9.378898e+01 -2.895811e+01
      vertex   2.893410e+01  8.080875e+01 -8.550006e+01
      vertex  -7.635867e+00  7.652139e+01 -9.292348e+01
    endloop
  endfacet
  facet normal  2.302794e-01 -9.689031e-01  9.054414e-02
    outer loop
      vertex  -3.699647e+00 -5.103066e+01  4.260114e+01
      vertex  -9.969560e+00 -5.561587e+01  9.481428e+00
      vertex   1.974201e+01 -4.856289e+01  9.389705e+00
    endloop
  endfacet
  facet normal  2.625923e-01  7.798566e-01  5.682155e-01
    outer loop
      vertex  -9.969560e+00 -5.561587e+01  9.481428e+00
      vertex   1.067089e+01 -8.036816e+01  3.391444e+01
      vertex   2.111085e+01 -6.049448e+01  1.813805e+00
    endloop
  endfacet
  facet normal  8.516316e-01 -3.368101e-01 -4.015999e-01
    outer loop
      vertex   5.583641e+01  5.823723e+01 -2.655792e+01
      vertex   3.094630e+01  4.406492e+01 -6.745392e+01
      vertex   5.582099e+01  9.001360e+01 -5.324053e+01
    endloop
  endfacet
  facet normal  2.792690e-01 -9.577476e-01  6.876234e-02
    outer loop
      vertex   1.040337e+00 -1.002511e+02 -5.893435e+01
      vertex   2.862466e+01 -9.114878e+01 -4.418412e+01
      vertex   7.081302e+00 -9.518501e+01 -1.290680e+01
    endloop
  endfacet
  facet normal -9.828064e-01  1.219336e-01  1.386494e-01
    outer loop
      vertex  -5.192447e+01  5.562432e+01  4.403666e+01
      vertex  -4.557240e+01  9.935653e+01  5.060310e+01
      vertex  -5.474771e+01  5.504075e+01  2.453753e+01
    endloop
  endfacet
  facet normal  5.856111e-01 -7.504019e-01  3.065235e-01
    outer loop
      vertex   7.081302e+00 -9.518501e+01 -1.290680e+01
      vertex   2.862466e+01 -9.114878e+01 -4.418412e+01
      vertex   2.824352e+01 -7.910380e+01 -1.396857e+01
    endloop
  endfacet
  facet normal -1.321227e-01 -2.219672e-01  9.660612e-01
    outer loop
      vertex   4.044769e+01  4.507595e+01  5.360174e+01
      vertex   5.226059e+01  2.994331e+01  5.174037e+01
      vertex   5.464571e+01  4.803638e+01  5.622373e+01
    endloop
  endfacet
  facet normal  1.812675e-02  3.331436e-01 -9.427018e-01
    outer loop
      vertex   3.094630e+01  4.406492e+01 -6.745392e+01
      vertex   2.834880e+01  1.045145e+01 -7.938261e+01
      vertex  -2.897015e+01  4.157315e+01 -6.948660e+01
    endloop
  endfacet
  facet normal  8.310175e-01 -4.128384e-01  3.727927e-01
    outer loop
      vertex   5.477969e+01 -2.127861e+01 -4.118054e+01
      vertex   5.399980e+01  4.319045e+01  3.195234e+01
      vertex   4.030159e+01  4.882010e+00  2.006439e+01
    endloop
  endfacet
  facet normal  9.737576e-01  1.600048e-01  1.618475e-01
    outer loop
      vertex   4.030159e+01  4.882010e+00  2.006439e+01
      vertex   5.138803e+01 -2.742902e+01 -1.469420e+01
      vertex   5.477969e+01 -2.127861e+01 -4.118054e+01
    endloop
  endfacet
  facet normal  8.775225e-01 -3.128673e-01 -3.634118e-01
    outer loop
      vertex   2.623729e+01 -6.244046e+01 -7.466433e+01
      vertex   5.477969e+01 -2.127861e+01 -4.118054e+01
      vertex   2.862466e+01 -9.114878e+01 -4.418412e+01
    endloop
  endfacet
  facet normal  8.740827e-01 -2.252114e-01  4.304176e-01
    outer loop
      vertex   3.907597e+01 -2.943325e+01  4.598257e+00
      vertex   4.030159e+01  4.882010e+00  2.006439e+01
      vertex   2.673204e+01  2.355901e+01  5.739366e+01
    endloop
  endfacet
  facet normal  8.138921e-01 -1.390134e-01  5.641409e-01
    outer loop
      vertex   1.974201e+01 -4.856289e+01  9.389705e+00
      vertex   1.651065e+01 -1.376939e+01  2.262530e+01
      vertex  -3.699647e+00 -5.103066e+01  4.260114e+01
    endloop
  endfacet
  facet normal -6.992093e-03 -3.724759e-01 -9.280155e-01
    outer loop
      vertex   1.040337e+00 -1.002511e+02 -5.893435e+01
      vertex  -2.287714e+01 -7.796210e+01 -6.770023e+01
      vertex  -2.875269e-01 -4.123616e+01 -8.261106e+01
    endloop
  endfacet
endsolid vcg
