solid STL generated by MeshLab
  facet normal  5.773509e-01  1.875933e-01  7.946538e-01
    outer loop
      vertex   8.090170e+00  0.000000e+00  5.877850e+00
      vertex   6.545080e+00  4.755280e+00  5.877850e+00
      vertex   3.090170e+00  0.000000e+00  9.510570e+00
    endloop
  endfacet
  facet normal  5.773516e-01  1.875925e-01  7.946535e-01
    outer loop
      vertex   6.545080e+00  4.755280e+00  5.877850e+00
      vertex   2.500000e+00  1.816360e+00  9.510570e+00
      vertex   3.090170e+00  0.000000e+00  9.510570e+00
    endloop
  endfacet
  facet normal  3.568234e-01  4.911240e-01  7.946535e-01
    outer loop
      vertex   6.545080e+00  4.755280e+00  5.877850e+00
      vertex   2.500000e+00  7.694210e+00  5.877850e+00
      vertex   2.500000e+00  1.816360e+00  9.510570e+00
    endloop
  endfacet
  facet normal  3.568226e-01  4.911242e-01  7.946538e-01
    outer loop
      vertex   2.500000e+00  7.694210e+00  5.877850e+00
      vertex   9.549150e-01  2.938930e+00  9.510570e+00
      vertex   2.500000e+00  1.816360e+00  9.510570e+00
    endloop
  endfacet
  facet normal  0.000000e+00  6.070629e-01  7.946538e-01
    outer loop
      vertex   2.500000e+00  7.694210e+00  5.877850e+00
      vertex  -2.500000e+00  7.694210e+00  5.877850e+00
      vertex   9.549150e-01  2.938930e+00  9.510570e+00
    endloop
  endfacet
  facet normal  0.000000e+00  6.070629e-01  7.946538e-01
    outer loop
      vertex  -2.500000e+00  7.694210e+00  5.877850e+00
      vertex  -9.549150e-01  2.938930e+00  9.510570e+00
      vertex   9.549150e-01  2.938930e+00  9.510570e+00
    endloop
  endfacet
  facet normal -3.568233e-01  4.911239e-01  7.946537e-01
    outer loop
      vertex  -2.500000e+00  7.694210e+00  5.877850e+00
      vertex  -6.545080e+00  4.755280e+00  5.877850e+00
      vertex  -9.549150e-01  2.938930e+00  9.510570e+00
    endloop
  endfacet
  facet normal -3.568229e-01  4.911246e-01  7.946534e-01
    outer loop
      vertex  -6.545080e+00  4.755280e+00  5.877850e+00
      vertex  -2.500000e+00  1.816360e+00  9.510570e+00
      vertex  -9.549150e-01  2.938930e+00  9.510570e+00
    endloop
  endfacet
  facet normal -5.773512e-01  1.875934e-01  7.946536e-01
    outer loop
      vertex  -6.545080e+00  4.755280e+00  5.877850e+00
      vertex  -8.090170e+00  9.907600e-16  5.877850e+00
      vertex  -2.500000e+00  1.816360e+00  9.510570e+00
    endloop
  endfacet
  facet normal -5.773509e-01  1.875924e-01  7.946540e-01
    outer loop
      vertex  -8.090170e+00  9.907600e-16  5.877850e+00
      vertex  -3.090170e+00  3.784370e-16  9.510570e+00
      vertex  -2.500000e+00  1.816360e+00  9.510570e+00
    endloop
  endfacet
  facet normal -5.773509e-01 -1.875933e-01  7.946538e-01
    outer loop
      vertex  -8.090170e+00  9.907600e-16  5.877850e+00
      vertex  -6.545080e+00 -4.755280e+00  5.877850e+00
      vertex  -3.090170e+00  3.784370e-16  9.510570e+00
    endloop
  endfacet
  facet normal -5.773516e-01 -1.875925e-01  7.946535e-01
    outer loop
      vertex  -6.545080e+00 -4.755280e+00  5.877850e+00
      vertex  -2.500000e+00 -1.816360e+00  9.510570e+00
      vertex  -3.090170e+00  3.784370e-16  9.510570e+00
    endloop
  endfacet
  facet normal -3.568234e-01 -4.911240e-01  7.946535e-01
    outer loop
      vertex  -6.545080e+00 -4.755280e+00  5.877850e+00
      vertex  -2.500000e+00 -7.694210e+00  5.877850e+00
      vertex  -2.500000e+00 -1.816360e+00  9.510570e+00
    endloop
  endfacet
  facet normal -3.568226e-01 -4.911242e-01  7.946538e-01
    outer loop
      vertex  -2.500000e+00 -7.694210e+00  5.877850e+00
      vertex  -9.549150e-01 -2.938930e+00  9.510570e+00
      vertex  -2.500000e+00 -1.816360e+00  9.510570e+00
    endloop
  endfacet
  facet normal  0.000000e+00 -6.070629e-01  7.946538e-01
    outer loop
      vertex  -2.500000e+00 -7.694210e+00  5.877850e+00
      vertex   2.500000e+00 -7.694210e+00  5.877850e+00
      vertex  -9.549150e-01 -2.938930e+00  9.510570e+00
    endloop
  endfacet
  facet normal  0.000000e+00 -6.070629e-01  7.946538e-01
    outer loop
      vertex   2.500000e+00 -7.694210e+00  5.877850e+00
      vertex   9.549150e-01 -2.938930e+00  9.510570e+00
      vertex  -9.549150e-01 -2.938930e+00  9.510570e+00
    endloop
  endfacet
  facet normal  3.568233e-01 -4.911239e-01  7.946537e-01
    outer loop
      vertex   2.500000e+00 -7.694210e+00  5.877850e+00
      vertex   6.545080e+00 -4.755280e+00  5.877850e+00
      vertex   9.549150e-01 -2.938930e+00  9.510570e+00
    endloop
  endfacet
  facet normal  3.568229e-01 -4.911246e-01  7.946534e-01
    outer loop
      vertex   6.545080e+00 -4.755280e+00  5.877850e+00
      vertex   2.500000e+00 -1.816360e+00  9.510570e+00
      vertex   9.549150e-01 -2.938930e+00  9.510570e+00
    endloop
  endfacet
  facet normal  5.773512e-01 -1.875934e-01  7.946536e-01
    outer loop
      vertex   6.545080e+00 -4.755280e+00  5.877850e+00
      vertex   8.090170e+00  0.000000e+00  5.877850e+00
      vertex   2.500000e+00 -1.816360e+00  9.510570e+00
    endloop
  endfacet
  facet normal  5.773509e-01 -1.875924e-01  7.946540e-01
    outer loop
      vertex   8.090170e+00  0.000000e+00  5.877850e+00
      vertex   3.090170e+00  0.000000e+00  9.510570e+00
      vertex   2.500000e+00 -1.816360e+00  9.510570e+00
    endloop
  endfacet
  facet normal  9.086608e-01  2.952419e-01  2.952419e-01
    outer loop
      vertex   1.000000e+01  0.000000e+00  6.123230e-16
      vertex   8.090170e+00  5.877850e+00  6.123230e-16
      vertex   8.090170e+00  0.000000e+00  5.877850e+00
    endloop
  endfacet
  facet normal  9.086603e-01  2.952427e-01  2.952427e-01
    outer loop
      vertex   8.090170e+00  5.877850e+00  6.123230e-16
      vertex   6.545080e+00  4.755280e+00  5.877850e+00
      vertex   8.090170e+00  0.000000e+00  5.877850e+00
    endloop
  endfacet
  facet normal  5.615839e-01  7.729524e-01  2.952424e-01
    outer loop
      vertex   8.090170e+00  5.877850e+00  6.123230e-16
      vertex   3.090170e+00  9.510570e+00  6.123230e-16
      vertex   6.545080e+00  4.755280e+00  5.877850e+00
    endloop
  endfacet
  facet normal  5.615841e-01  7.729524e-01  2.952422e-01
    outer loop
      vertex   3.090170e+00  9.510570e+00  6.123230e-16
      vertex   2.500000e+00  7.694210e+00  5.877850e+00
      vertex   6.545080e+00  4.755280e+00  5.877850e+00
    endloop
  endfacet
  facet normal  0.000000e+00  9.554224e-01  2.952424e-01
    outer loop
      vertex   3.090170e+00  9.510570e+00  6.123230e-16
      vertex  -3.090170e+00  9.510570e+00  6.123230e-16
      vertex   2.500000e+00  7.694210e+00  5.877850e+00
    endloop
  endfacet
  facet normal  0.000000e+00  9.554224e-01  2.952424e-01
    outer loop
      vertex  -3.090170e+00  9.510570e+00  6.123230e-16
      vertex  -2.500000e+00  7.694210e+00  5.877850e+00
      vertex   2.500000e+00  7.694210e+00  5.877850e+00
    endloop
  endfacet
  facet normal -5.615839e-01  7.729525e-01  2.952422e-01
    outer loop
      vertex  -3.090170e+00  9.510570e+00  6.123230e-16
      vertex  -8.090170e+00  5.877850e+00  6.123230e-16
      vertex  -2.500000e+00  7.694210e+00  5.877850e+00
    endloop
  endfacet
  facet normal -5.615841e-01  7.729523e-01  2.952425e-01
    outer loop
      vertex  -8.090170e+00  5.877850e+00  6.123230e-16
      vertex  -6.545080e+00  4.755280e+00  5.877850e+00
      vertex  -2.500000e+00  7.694210e+00  5.877850e+00
    endloop
  endfacet
  facet normal -9.086605e-01  2.952418e-01  2.952426e-01
    outer loop
      vertex  -8.090170e+00  5.877850e+00  6.123230e-16
      vertex  -1.000000e+01  1.224650e-15  6.123230e-16
      vertex  -6.545080e+00  4.755280e+00  5.877850e+00
    endloop
  endfacet
  facet normal -9.086606e-01  2.952428e-01  2.952418e-01
    outer loop
      vertex  -1.000000e+01  1.224650e-15  6.123230e-16
      vertex  -8.090170e+00  9.907600e-16  5.877850e+00
      vertex  -6.545080e+00  4.755280e+00  5.877850e+00
    endloop
  endfacet
  facet normal -9.086608e-01 -2.952419e-01  2.952419e-01
    outer loop
      vertex  -1.000000e+01  1.224650e-15  6.123230e-16
      vertex  -8.090170e+00 -5.877850e+00  6.123230e-16
      vertex  -8.090170e+00  9.907600e-16  5.877850e+00
    endloop
  endfacet
  facet normal -9.086603e-01 -2.952427e-01  2.952427e-01
    outer loop
      vertex  -8.090170e+00 -5.877850e+00  6.123230e-16
      vertex  -6.545080e+00 -4.755280e+00  5.877850e+00
      vertex  -8.090170e+00  9.907600e-16  5.877850e+00
    endloop
  endfacet
  facet normal -5.615839e-01 -7.729524e-01  2.952424e-01
    outer loop
      vertex  -8.090170e+00 -5.877850e+00  6.123230e-16
      vertex  -3.090170e+00 -9.510570e+00  6.123230e-16
      vertex  -6.545080e+00 -4.755280e+00  5.877850e+00
    endloop
  endfacet
  facet normal -5.615841e-01 -7.729524e-01  2.952422e-01
    outer loop
      vertex  -3.090170e+00 -9.510570e+00  6.123230e-16
      vertex  -2.500000e+00 -7.694210e+00  5.877850e+00
      vertex  -6.545080e+00 -4.755280e+00  5.877850e+00
    endloop
  endfacet
  facet normal  0.000000e+00 -9.554224e-01  2.952424e-01
    outer loop
      vertex  -3.090170e+00 -9.510570e+00  6.123230e-16
      vertex   3.090170e+00 -9.510570e+00  6.123230e-16
      vertex  -2.500000e+00 -7.694210e+00  5.877850e+00
    endloop
  endfacet
  facet normal  0.000000e+00 -9.554224e-01  2.952424e-01
    outer loop
      vertex   3.090170e+00 -9.510570e+00  6.123230e-16
      vertex   2.500000e+00 -7.694210e+00  5.877850e+00
      vertex  -2.500000e+00 -7.694210e+00  5.877850e+00
    endloop
  endfacet
  facet normal  5.615839e-01 -7.729525e-01  2.952422e-01
    outer loop
      vertex   3.090170e+00 -9.510570e+00  6.123230e-16
      vertex   8.090170e+00 -5.877850e+00  6.123230e-16
      vertex   2.500000e+00 -7.694210e+00  5.877850e+00
    endloop
  endfacet
  facet normal  5.615841e-01 -7.729523e-01  2.952425e-01
    outer loop
      vertex   8.090170e+00 -5.877850e+00  6.123230e-16
      vertex   6.545080e+00 -4.755280e+00  5.877850e+00
      vertex   2.500000e+00 -7.694210e+00  5.877850e+00
    endloop
  endfacet
  facet normal  9.086605e-01 -2.952418e-01  2.952426e-01
    outer loop
      vertex   8.090170e+00 -5.877850e+00  6.123230e-16
      vertex   1.000000e+01  0.000000e+00  6.123230e-16
      vertex   6.545080e+00 -4.755280e+00  5.877850e+00
    endloop
  endfacet
  facet normal  9.086606e-01 -2.952428e-01  2.952418e-01
    outer loop
      vertex   1.000000e+01  0.000000e+00  6.123230e-16
      vertex   8.090170e+00  0.000000e+00  5.877850e+00
      vertex   6.545080e+00 -4.755280e+00  5.877850e+00
    endloop
  endfacet
  facet normal  9.086606e-01  2.952428e-01 -2.952418e-01
    outer loop
      vertex   8.090170e+00  0.000000e+00 -5.877850e+00
      vertex   6.545080e+00  4.755280e+00 -5.877850e+00
      vertex   1.000000e+01  0.000000e+00  6.123230e-16
    endloop
  endfacet
  facet normal  9.086605e-01  2.952418e-01 -2.952426e-01
    outer loop
      vertex   6.545080e+00  4.755280e+00 -5.877850e+00
      vertex   8.090170e+00  5.877850e+00  6.123230e-16
      vertex   1.000000e+01  0.000000e+00  6.123230e-16
    endloop
  endfacet
  facet normal  5.615841e-01  7.729523e-01 -2.952425e-01
    outer loop
      vertex   6.545080e+00  4.755280e+00 -5.877850e+00
      vertex   2.500000e+00  7.694210e+00 -5.877850e+00
      vertex   8.090170e+00  5.877850e+00  6.123230e-16
    endloop
  endfacet
  facet normal  5.615839e-01  7.729526e-01 -2.952422e-01
    outer loop
      vertex   2.500000e+00  7.694210e+00 -5.877850e+00
      vertex   3.090170e+00  9.510570e+00  6.123230e-16
      vertex   8.090170e+00  5.877850e+00  6.123230e-16
    endloop
  endfacet
  facet normal  0.000000e+00  9.554224e-01 -2.952424e-01
    outer loop
      vertex   2.500000e+00  7.694210e+00 -5.877850e+00
      vertex  -2.500000e+00  7.694210e+00 -5.877850e+00
      vertex   3.090170e+00  9.510570e+00  6.123230e-16
    endloop
  endfacet
  facet normal  0.000000e+00  9.554224e-01 -2.952424e-01
    outer loop
      vertex  -2.500000e+00  7.694210e+00 -5.877850e+00
      vertex  -3.090170e+00  9.510570e+00  6.123230e-16
      vertex   3.090170e+00  9.510570e+00  6.123230e-16
    endloop
  endfacet
  facet normal -5.615841e-01  7.729524e-01 -2.952422e-01
    outer loop
      vertex  -2.500000e+00  7.694210e+00 -5.877850e+00
      vertex  -6.545080e+00  4.755280e+00 -5.877850e+00
      vertex  -3.090170e+00  9.510570e+00  6.123230e-16
    endloop
  endfacet
  facet normal -5.615838e-01  7.729524e-01 -2.952424e-01
    outer loop
      vertex  -6.545080e+00  4.755280e+00 -5.877850e+00
      vertex  -8.090170e+00  5.877850e+00  6.123230e-16
      vertex  -3.090170e+00  9.510570e+00  6.123230e-16
    endloop
  endfacet
  facet normal -9.086603e-01  2.952427e-01 -2.952427e-01
    outer loop
      vertex  -6.545080e+00  4.755280e+00 -5.877850e+00
      vertex  -8.090170e+00  9.907600e-16 -5.877850e+00
      vertex  -8.090170e+00  5.877850e+00  6.123230e-16
    endloop
  endfacet
  facet normal -9.086608e-01  2.952419e-01 -2.952419e-01
    outer loop
      vertex  -8.090170e+00  9.907600e-16 -5.877850e+00
      vertex  -1.000000e+01  1.224650e-15  6.123230e-16
      vertex  -8.090170e+00  5.877850e+00  6.123230e-16
    endloop
  endfacet
  facet normal -9.086606e-01 -2.952428e-01 -2.952418e-01
    outer loop
      vertex  -8.090170e+00  9.907600e-16 -5.877850e+00
      vertex  -6.545080e+00 -4.755280e+00 -5.877850e+00
      vertex  -1.000000e+01  1.224650e-15  6.123230e-16
    endloop
  endfacet
  facet normal -9.086605e-01 -2.952418e-01 -2.952426e-01
    outer loop
      vertex  -6.545080e+00 -4.755280e+00 -5.877850e+00
      vertex  -8.090170e+00 -5.877850e+00  6.123230e-16
      vertex  -1.000000e+01  1.224650e-15  6.123230e-16
    endloop
  endfacet
  facet normal -5.615841e-01 -7.729523e-01 -2.952425e-01
    outer loop
      vertex  -6.545080e+00 -4.755280e+00 -5.877850e+00
      vertex  -2.500000e+00 -7.694210e+00 -5.877850e+00
      vertex  -8.090170e+00 -5.877850e+00  6.123230e-16
    endloop
  endfacet
  facet normal -5.615839e-01 -7.729526e-01 -2.952422e-01
    outer loop
      vertex  -2.500000e+00 -7.694210e+00 -5.877850e+00
      vertex  -3.090170e+00 -9.510570e+00  6.123230e-16
      vertex  -8.090170e+00 -5.877850e+00  6.123230e-16
    endloop
  endfacet
  facet normal  0.000000e+00 -9.554224e-01 -2.952424e-01
    outer loop
      vertex  -2.500000e+00 -7.694210e+00 -5.877850e+00
      vertex   2.500000e+00 -7.694210e+00 -5.877850e+00
      vertex  -3.090170e+00 -9.510570e+00  6.123230e-16
    endloop
  endfacet
  facet normal  0.000000e+00 -9.554224e-01 -2.952424e-01
    outer loop
      vertex   2.500000e+00 -7.694210e+00 -5.877850e+00
      vertex   3.090170e+00 -9.510570e+00  6.123230e-16
      vertex  -3.090170e+00 -9.510570e+00  6.123230e-16
    endloop
  endfacet
  facet normal  5.615841e-01 -7.729524e-01 -2.952422e-01
    outer loop
      vertex   2.500000e+00 -7.694210e+00 -5.877850e+00
      vertex   6.545080e+00 -4.755280e+00 -5.877850e+00
      vertex   3.090170e+00 -9.510570e+00  6.123230e-16
    endloop
  endfacet
  facet normal  5.615838e-01 -7.729524e-01 -2.952424e-01
    outer loop
      vertex   6.545080e+00 -4.755280e+00 -5.877850e+00
      vertex   8.090170e+00 -5.877850e+00  6.123230e-16
      vertex   3.090170e+00 -9.510570e+00  6.123230e-16
    endloop
  endfacet
  facet normal  9.086603e-01 -2.952427e-01 -2.952427e-01
    outer loop
      vertex   6.545080e+00 -4.755280e+00 -5.877850e+00
      vertex   8.090170e+00  0.000000e+00 -5.877850e+00
      vertex   8.090170e+00 -5.877850e+00  6.123230e-16
    endloop
  endfacet
  facet normal  9.086608e-01 -2.952419e-01 -2.952419e-01
    outer loop
      vertex   8.090170e+00  0.000000e+00 -5.877850e+00
      vertex   1.000000e+01  0.000000e+00  6.123230e-16
      vertex   8.090170e+00 -5.877850e+00  6.123230e-16
    endloop
  endfacet
  facet normal  5.773509e-01  1.875923e-01 -7.946540e-01
    outer loop
      vertex   3.090170e+00  0.000000e+00 -9.510570e+00
      vertex   2.500000e+00  1.816360e+00 -9.510570e+00
      vertex   8.090170e+00  0.000000e+00 -5.877850e+00
    endloop
  endfacet
  facet normal  5.773512e-01  1.875934e-01 -7.946536e-01
    outer loop
      vertex   2.500000e+00  1.816360e+00 -9.510570e+00
      vertex   6.545080e+00  4.755280e+00 -5.877850e+00
      vertex   8.090170e+00  0.000000e+00 -5.877850e+00
    endloop
  endfacet
  facet normal  3.568229e-01  4.911246e-01 -7.946535e-01
    outer loop
      vertex   2.500000e+00  1.816360e+00 -9.510570e+00
      vertex   9.549150e-01  2.938930e+00 -9.510570e+00
      vertex   6.545080e+00  4.755280e+00 -5.877850e+00
    endloop
  endfacet
  facet normal  3.568233e-01  4.911239e-01 -7.946536e-01
    outer loop
      vertex   9.549150e-01  2.938930e+00 -9.510570e+00
      vertex   2.500000e+00  7.694210e+00 -5.877850e+00
      vertex   6.545080e+00  4.755280e+00 -5.877850e+00
    endloop
  endfacet
  facet normal  0.000000e+00  6.070629e-01 -7.946538e-01
    outer loop
      vertex   9.549150e-01  2.938930e+00 -9.510570e+00
      vertex  -9.549150e-01  2.938930e+00 -9.510570e+00
      vertex   2.500000e+00  7.694210e+00 -5.877850e+00
    endloop
  endfacet
  facet normal  0.000000e+00  6.070629e-01 -7.946538e-01
    outer loop
      vertex  -9.549150e-01  2.938930e+00 -9.510570e+00
      vertex  -2.500000e+00  7.694210e+00 -5.877850e+00
      vertex   2.500000e+00  7.694210e+00 -5.877850e+00
    endloop
  endfacet
  facet normal -3.568226e-01  4.911242e-01 -7.946538e-01
    outer loop
      vertex  -9.549150e-01  2.938930e+00 -9.510570e+00
      vertex  -2.500000e+00  1.816360e+00 -9.510570e+00
      vertex  -2.500000e+00  7.694210e+00 -5.877850e+00
    endloop
  endfacet
  facet normal -3.568234e-01  4.911240e-01 -7.946535e-01
    outer loop
      vertex  -2.500000e+00  1.816360e+00 -9.510570e+00
      vertex  -6.545080e+00  4.755280e+00 -5.877850e+00
      vertex  -2.500000e+00  7.694210e+00 -5.877850e+00
    endloop
  endfacet
  facet normal -5.773516e-01  1.875925e-01 -7.946535e-01
    outer loop
      vertex  -2.500000e+00  1.816360e+00 -9.510570e+00
      vertex  -3.090170e+00  3.784370e-16 -9.510570e+00
      vertex  -6.545080e+00  4.755280e+00 -5.877850e+00
    endloop
  endfacet
  facet normal -5.773509e-01  1.875933e-01 -7.946538e-01
    outer loop
      vertex  -3.090170e+00  3.784370e-16 -9.510570e+00
      vertex  -8.090170e+00  9.907600e-16 -5.877850e+00
      vertex  -6.545080e+00  4.755280e+00 -5.877850e+00
    endloop
  endfacet
  facet normal -5.773509e-01 -1.875923e-01 -7.946540e-01
    outer loop
      vertex  -3.090170e+00  3.784370e-16 -9.510570e+00
      vertex  -2.500000e+00 -1.816360e+00 -9.510570e+00
      vertex  -8.090170e+00  9.907600e-16 -5.877850e+00
    endloop
  endfacet
  facet normal -5.773512e-01 -1.875934e-01 -7.946536e-01
    outer loop
      vertex  -2.500000e+00 -1.816360e+00 -9.510570e+00
      vertex  -6.545080e+00 -4.755280e+00 -5.877850e+00
      vertex  -8.090170e+00  9.907600e-16 -5.877850e+00
    endloop
  endfacet
  facet normal -3.568229e-01 -4.911246e-01 -7.946535e-01
    outer loop
      vertex  -2.500000e+00 -1.816360e+00 -9.510570e+00
      vertex  -9.549150e-01 -2.938930e+00 -9.510570e+00
      vertex  -6.545080e+00 -4.755280e+00 -5.877850e+00
    endloop
  endfacet
  facet normal -3.568233e-01 -4.911239e-01 -7.946536e-01
    outer loop
      vertex  -9.549150e-01 -2.938930e+00 -9.510570e+00
      vertex  -2.500000e+00 -7.694210e+00 -5.877850e+00
      vertex  -6.545080e+00 -4.755280e+00 -5.877850e+00
    endloop
  endfacet
  facet normal  0.000000e+00 -6.070629e-01 -7.946538e-01
    outer loop
      vertex  -9.549150e-01 -2.938930e+00 -9.510570e+00
      vertex   9.549150e-01 -2.938930e+00 -9.510570e+00
      vertex  -2.500000e+00 -7.694210e+00 -5.877850e+00
    endloop
  endfacet
  facet normal  0.000000e+00 -6.070629e-01 -7.946538e-01
    outer loop
      vertex   9.549150e-01 -2.938930e+00 -9.510570e+00
      vertex   2.500000e+00 -7.694210e+00 -5.877850e+00
      vertex  -2.500000e+00 -7.694210e+00 -5.877850e+00
    endloop
  endfacet
  facet normal  3.568226e-01 -4.911242e-01 -7.946538e-01
    outer loop
      vertex   9.549150e-01 -2.938930e+00 -9.510570e+00
      vertex   2.500000e+00 -1.816360e+00 -9.510570e+00
      vertex   2.500000e+00 -7.694210e+00 -5.877850e+00
    endloop
  endfacet
  facet normal  3.568234e-01 -4.911240e-01 -7.946535e-01
    outer loop
      vertex   2.500000e+00 -1.816360e+00 -9.510570e+00
      vertex   6.545080e+00 -4.755280e+00 -5.877850e+00
      vertex   2.500000e+00 -7.694210e+00 -5.877850e+00
    endloop
  endfacet
  facet normal  5.773516e-01 -1.875925e-01 -7.946535e-01
    outer loop
      vertex   2.500000e+00 -1.816360e+00 -9.510570e+00
      vertex   3.090170e+00  0.000000e+00 -9.510570e+00
      vertex   6.545080e+00 -4.755280e+00 -5.877850e+00
    endloop
  endfacet
  facet normal  5.773509e-01 -1.875933e-01 -7.946538e-01
    outer loop
      vertex   3.090170e+00  0.000000e+00 -9.510570e+00
      vertex   8.090170e+00  0.000000e+00 -5.877850e+00
      vertex   6.545080e+00 -4.755280e+00 -5.877850e+00
    endloop
  endfacet
  facet normal  0.000000e+00  0.000000e+00  1.000000e+00
    outer loop
      vertex   2.500000e+00  1.816360e+00  9.510560e+00
      vertex   2.500000e+00 -1.816360e+00  9.510560e+00
      vertex   3.090170e+00  0.000000e+00  9.510560e+00
    endloop
  endfacet
  facet normal  0.000000e+00  0.000000e+00  1.000000e+00
    outer loop
      vertex   9.549150e-01  2.938930e+00  9.510560e+00
      vertex   2.500000e+00 -1.816360e+00  9.510560e+00
      vertex   2.500000e+00  1.816360e+00  9.510560e+00
    endloop
  endfacet
  facet normal  0.000000e+00  0.000000e+00  1.000000e+00
    outer loop
      vertex   9.549150e-01  2.938930e+00  9.510560e+00
      vertex   9.549150e-01 -2.938930e+00  9.510560e+00
      vertex   2.500000e+00 -1.816360e+00  9.510560e+00
    endloop
  endfacet
  facet normal -0.000000e+00  0.000000e+00  1.000000e+00
    outer loop
      vertex  -9.549150e-01  2.938930e+00  9.510560e+00
      vertex   9.549150e-01 -2.938930e+00  9.510560e+00
      vertex   9.549150e-01  2.938930e+00  9.510560e+00
    endloop
  endfacet
  facet normal  0.000000e+00  0.000000e+00  1.000000e+00
    outer loop
      vertex  -9.549150e-01  2.938930e+00  9.510560e+00
      vertex  -9.549150e-01 -2.938930e+00  9.510560e+00
      vertex   9.549150e-01 -2.938930e+00  9.510560e+00
    endloop
  endfacet
  facet normal -0.000000e+00  0.000000e+00  1.000000e+00
    outer loop
      vertex  -2.500000e+00  1.816360e+00  9.510560e+00
      vertex  -9.549150e-01 -2.938930e+00  9.510560e+00
      vertex  -9.549150e-01  2.938930e+00  9.510560e+00
    endloop
  endfacet
  facet normal  0.000000e+00  0.000000e+00  1.000000e+00
    outer loop
      vertex  -2.500000e+00  1.816360e+00  9.510560e+00
      vertex  -2.500000e+00 -1.816360e+00  9.510560e+00
      vertex  -9.549150e-01 -2.938930e+00  9.510560e+00
    endloop
  endfacet
  facet normal  0.000000e+00 -0.000000e+00  1.000000e+00
    outer loop
      vertex  -2.500000e+00 -1.816360e+00  9.510560e+00
      vertex  -2.500000e+00  1.816360e+00  9.510560e+00
      vertex  -3.090170e+00  3.784370e-16  9.510560e+00
    endloop
  endfacet
  facet normal  0.000000e+00  0.000000e+00 -1.000000e+00
    outer loop
      vertex   2.500000e+00 -1.816360e+00 -9.510560e+00
      vertex   2.500000e+00  1.816360e+00 -9.510560e+00
      vertex   3.090170e+00  0.000000e+00 -9.510560e+00
    endloop
  endfacet
  facet normal  0.000000e+00  0.000000e+00 -1.000000e+00
    outer loop
      vertex   9.549150e-01 -2.938930e+00 -9.510560e+00
      vertex   2.500000e+00  1.816360e+00 -9.510560e+00
      vertex   2.500000e+00 -1.816360e+00 -9.510560e+00
    endloop
  endfacet
  facet normal  0.000000e+00  0.000000e+00 -1.000000e+00
    outer loop
      vertex   9.549150e-01 -2.938930e+00 -9.510560e+00
      vertex   9.549150e-01  2.938930e+00 -9.510560e+00
      vertex   2.500000e+00  1.816360e+00 -9.510560e+00
    endloop
  endfacet
  facet normal  0.000000e+00  0.000000e+00 -1.000000e+00
    outer loop
      vertex  -9.549150e-01 -2.938930e+00 -9.510560e+00
      vertex   9.549150e-01  2.938930e+00 -9.510560e+00
      vertex   9.549150e-01 -2.938930e+00 -9.510560e+00
    endloop
  endfacet
  facet normal  0.000000e+00  0.000000e+00 -1.000000e+00
    outer loop
      vertex  -9.549150e-01 -2.938930e+00 -9.510560e+00
      vertex  -9.549150e-01  2.938930e+00 -9.510560e+00
      vertex   9.549150e-01  2.938930e+00 -9.510560e+00
    endloop
  endfacet
  facet normal  0.000000e+00  0.000000e+00 -1.000000e+00
    outer loop
      vertex  -2.500000e+00 -1.816360e+00 -9.510560e+00
      vertex  -9.549150e-01  2.938930e+00 -9.510560e+00
      vertex  -9.549150e-01 -2.938930e+00 -9.510560e+00
    endloop
  endfacet
  facet normal  0.000000e+00  0.000000e+00 -1.000000e+00
    outer loop
      vertex  -2.500000e+00 -1.816360e+00 -9.510560e+00
      vertex  -2.500000e+00  1.816360e+00 -9.510560e+00
      vertex  -9.549150e-01  2.938930e+00 -9.510560e+00
    endloop
  endfacet
  facet normal  0.000000e+00 -0.000000e+00 -1.000000e+00
    outer loop
      vertex  -2.500000e+00  1.816360e+00 -9.510560e+00
      vertex  -2.500000e+00 -1.816360e+00 -9.510560e+00
      vertex  -3.090170e+00  3.784370e-16 -9.510560e+00
    endloop
  endfacet
endsolid vcg
