solid vcg
  facet normal -9.781067e-01  1.487987e-01 -1.454863e-01
    outer loop
      vertex  -7.833515e-01  6.362194e-01 -2.267941e-01
      vertex  -8.754143e-01 -3.132036e-01 -5.788933e-01
      vertex  -1.000116e+00 -1.460523e-01  4.304322e-01
    endloop
  endfacet
  facet normal -6.141801e-01 -7.371761e-01 -2.816991e-01
    outer loop
      vertex  -8.754143e-01 -3.132036e-01 -5.788933e-01
      vertex  -2.201955e-01 -8.829870e-01 -5.163854e-01
      vertex  -3.949579e-01 -9.630579e-01  7.418073e-02
    endloop
  endfacet
  facet normal -8.036675e-01  2.738592e-01 -5.283178e-01
    outer loop
      vertex  -3.959371e-01  3.896806e-01 -9.439179e-01
      vertex  -8.754143e-01 -3.132036e-01 -5.788933e-01
      vertex  -7.833515e-01  6.362194e-01 -2.267941e-01
    endloop
  endfacet
  facet normal -1.710929e-01 -9.683146e-01 -1.819177e-01
    outer loop
      vertex  -2.201955e-01 -8.829870e-01 -5.163854e-01
      vertex   2.413083e-02 -1.000507e+00 -1.206342e-01
      vertex  -3.949579e-01 -9.630579e-01  7.418073e-02
    endloop
  endfacet
  facet normal -4.396149e-01  7.493919e-01 -4.951269e-01
    outer loop
      vertex  -2.246452e-01  9.966097e-01 -1.773966e-01
      vertex  -3.959371e-01  3.896806e-01 -9.439179e-01
      vertex  -7.833515e-01  6.362194e-01 -2.267941e-01
    endloop
  endfacet
  facet normal -3.057122e-01 -2.661987e-01 -9.141544e-01
    outer loop
      vertex  -3.959371e-01  3.896806e-01 -9.439179e-01
      vertex   2.506033e-01 -4.136987e-01 -9.261931e-01
      vertex  -8.754143e-01 -3.132036e-01 -5.788933e-01
    endloop
  endfacet
  facet normal -3.003987e-01 -4.383732e-01 -8.471066e-01
    outer loop
      vertex   2.506033e-01 -4.136987e-01 -9.261931e-01
      vertex  -2.201955e-01 -8.829870e-01 -5.163854e-01
      vertex  -8.754143e-01 -3.132036e-01 -5.788933e-01
    endloop
  endfacet
  facet normal -7.813932e-02  7.900235e-01 -6.080766e-01
    outer loop
      vertex   5.188680e-01  7.156533e-01 -6.379633e-01
      vertex  -3.959371e-01  3.896806e-01 -9.439179e-01
      vertex  -2.246452e-01  9.966097e-01 -1.773966e-01
    endloop
  endfacet
  facet normal  2.527666e-01  1.824570e-01 -9.501676e-01
    outer loop
      vertex   5.188680e-01  7.156533e-01 -6.379633e-01
      vertex   2.506033e-01 -4.136987e-01 -9.261931e-01
      vertex  -3.959371e-01  3.896806e-01 -9.439179e-01
    endloop
  endfacet
  facet normal  2.108341e-01 -8.938916e-01 -3.956091e-01
    outer loop
      vertex   6.863839e-01 -7.403145e-01 -3.556103e-01
      vertex   2.413083e-02 -1.000507e+00 -1.206342e-01
      vertex  -2.201955e-01 -8.829870e-01 -5.163854e-01
    endloop
  endfacet
  facet normal  4.884200e-01  1.050657e-01 -8.662605e-01
    outer loop
      vertex   5.188680e-01  7.156533e-01 -6.379633e-01
      vertex   1.002867e+00 -9.145506e-02 -4.629638e-01
      vertex   2.506033e-01 -4.136987e-01 -9.261931e-01
    endloop
  endfacet
  facet normal  2.275695e-01 -7.599620e-01 -6.088267e-01
    outer loop
      vertex   2.506033e-01 -4.136987e-01 -9.261931e-01
      vertex   6.863839e-01 -7.403145e-01 -3.556103e-01
      vertex  -2.201955e-01 -8.829870e-01 -5.163854e-01
    endloop
  endfacet
  facet normal  1.565712e-01  9.351696e-01 -3.177155e-01
    outer loop
      vertex   1.665541e-01  1.004634e+00  3.900718e-02
      vertex   5.188680e-01  7.156533e-01 -6.379633e-01
      vertex  -2.246452e-01  9.966097e-01 -1.773966e-01
    endloop
  endfacet
  facet normal  5.989629e-01 -4.063121e-01 -6.900391e-01
    outer loop
      vertex   6.863839e-01 -7.403145e-01 -3.556103e-01
      vertex   2.506033e-01 -4.136987e-01 -9.261931e-01
      vertex   1.002867e+00 -9.145506e-02 -4.629638e-01
    endloop
  endfacet
  facet normal  2.966700e-01 -9.531277e-01 -5.945164e-02
    outer loop
      vertex   5.338510e-01 -8.599413e-01  1.693705e-01
      vertex   7.190285e-02 -1.000632e+00  1.197484e-01
      vertex   2.413083e-02 -1.000507e+00 -1.206342e-01
    endloop
  endfacet
  facet normal  3.262566e-01 -9.377741e-01 -1.188958e-01
    outer loop
      vertex   5.338510e-01 -8.599413e-01  1.693705e-01
      vertex   2.413083e-02 -1.000507e+00 -1.206342e-01
      vertex   6.863839e-01 -7.403145e-01 -3.556103e-01
    endloop
  endfacet
  facet normal  8.586254e-01  4.710616e-01 -2.021468e-01
    outer loop
      vertex   7.809232e-01  6.299943e-01  2.755142e-01
      vertex   1.002867e+00 -9.145506e-02 -4.629638e-01
      vertex   5.188680e-01  7.156533e-01 -6.379633e-01
    endloop
  endfacet
  facet normal  5.403973e-01  8.379294e-01 -7.645258e-02
    outer loop
      vertex   1.665541e-01  1.004634e+00  3.900718e-02
      vertex   7.809232e-01  6.299943e-01  2.755142e-01
      vertex   5.188680e-01  7.156533e-01 -6.379633e-01
    endloop
  endfacet
  facet normal  9.775261e-01  1.348699e-01  1.620272e-01
    outer loop
      vertex   7.809232e-01  6.299943e-01  2.755142e-01
      vertex   7.662416e-01  1.531367e-01  7.610219e-01
      vertex   1.002867e+00 -9.145506e-02 -4.629638e-01
    endloop
  endfacet
  facet normal  8.986320e-01 -4.145657e-01  1.435126e-01
    outer loop
      vertex   6.563874e-01 -4.424839e-01  6.925635e-01
      vertex   6.863839e-01 -7.403145e-01 -3.556103e-01
      vertex   1.002867e+00 -9.145506e-02 -4.629638e-01
    endloop
  endfacet
  facet normal  8.797772e-01 -4.500714e-01  1.530617e-01
    outer loop
      vertex   6.563874e-01 -4.424839e-01  6.925635e-01
      vertex   5.338510e-01 -8.599413e-01  1.693705e-01
      vertex   6.863839e-01 -7.403145e-01 -3.556103e-01
    endloop
  endfacet
  facet normal  9.533581e-01 -2.016488e-01  2.246023e-01
    outer loop
      vertex   6.563874e-01 -4.424839e-01  6.925635e-01
      vertex   1.002867e+00 -9.145506e-02 -4.629638e-01
      vertex   7.662416e-01  1.531367e-01  7.610219e-01
    endloop
  endfacet
  facet normal  3.939053e-01  8.565079e-01  3.335158e-01
    outer loop
      vertex   1.665541e-01  1.004634e+00  3.900718e-02
      vertex   2.848722e-02  8.234441e-01  6.673915e-01
      vertex   7.809232e-01  6.299943e-01  2.755142e-01
    endloop
  endfacet
  facet normal  2.465143e-01 -9.184806e-01  3.092316e-01
    outer loop
      vertex   4.813884e-02 -8.589707e-01  5.594549e-01
      vertex   7.190285e-02 -1.000632e+00  1.197484e-01
      vertex   5.338510e-01 -8.599413e-01  1.693705e-01
    endloop
  endfacet
  facet normal  4.823234e-01  6.176275e-01  6.212088e-01
    outer loop
      vertex   2.848722e-02  8.234441e-01  6.673915e-01
      vertex   7.662416e-01  1.531367e-01  7.610219e-01
      vertex   7.809232e-01  6.299943e-01  2.755142e-01
    endloop
  endfacet
  facet normal  4.075361e-01 -7.579573e-01  5.093280e-01
    outer loop
      vertex   6.563874e-01 -4.424839e-01  6.925635e-01
      vertex   4.813884e-02 -8.589707e-01  5.594549e-01
      vertex   5.338510e-01 -8.599413e-01  1.693705e-01
    endloop
  endfacet
  facet normal  3.030479e-01 -1.637945e-01  9.387935e-01
    outer loop
      vertex   7.662416e-01  1.531367e-01  7.610219e-01
      vertex  -1.330481e-01  4.032036e-04  1.024670e+00
      vertex   6.563874e-01 -4.424839e-01  6.925635e-01
    endloop
  endfacet
  facet normal  2.020598e-01 -5.533511e-01  8.080683e-01
    outer loop
      vertex  -2.510936e-01 -5.241438e-01  8.635625e-01
      vertex   4.813884e-02 -8.589707e-01  5.594549e-01
      vertex   6.563874e-01 -4.424839e-01  6.925635e-01
    endloop
  endfacet
  facet normal  2.033722e-01 -3.289993e-01  9.221709e-01
    outer loop
      vertex  -1.330481e-01  4.032036e-04  1.024670e+00
      vertex  -2.510936e-01 -5.241438e-01  8.635625e-01
      vertex   6.563874e-01 -4.424839e-01  6.925635e-01
    endloop
  endfacet
  facet normal  2.069528e-01  3.551152e-01  9.116269e-01
    outer loop
      vertex   2.848722e-02  8.234441e-01  6.673915e-01
      vertex  -1.330481e-01  4.032036e-04  1.024670e+00
      vertex   7.662416e-01  1.531367e-01  7.610219e-01
    endloop
  endfacet
  facet normal -1.096977e-02  9.614352e-01  2.748128e-01
    outer loop
      vertex  -8.486402e-02  9.982523e-01  5.129850e-02
      vertex   2.848722e-02  8.234441e-01  6.673915e-01
      vertex   1.665541e-01  1.004634e+00  3.900718e-02
    endloop
  endfacet
  facet normal -3.160415e-01  5.872056e-01  7.451894e-01
    outer loop
      vertex  -5.062869e-01  7.747214e-01  4.789822e-01
      vertex  -5.488777e-01  3.473821e-01  7.976604e-01
      vertex   2.848722e-02  8.234441e-01  6.673915e-01
    endloop
  endfacet
  facet normal -1.416826e-01  4.174464e-01  8.975881e-01
    outer loop
      vertex  -5.488777e-01  3.473821e-01  7.976604e-01
      vertex  -1.330481e-01  4.032036e-04  1.024670e+00
      vertex   2.848722e-02  8.234441e-01  6.673915e-01
    endloop
  endfacet
  facet normal -1.055676e-01 -9.481547e-01  2.997635e-01
    outer loop
      vertex  -3.949579e-01 -9.630579e-01  7.418073e-02
      vertex   7.190285e-02 -1.000632e+00  1.197484e-01
      vertex   4.813884e-02 -8.589707e-01  5.594549e-01
    endloop
  endfacet
  facet normal -5.451832e-01 -1.315957e-01  8.279238e-01
    outer loop
      vertex  -1.330481e-01  4.032036e-04  1.024670e+00
      vertex  -1.000116e+00 -1.460523e-01  4.304322e-01
      vertex  -2.510936e-01 -5.241438e-01  8.635625e-01
    endloop
  endfacet
  facet normal -5.482596e-01 -1.151067e-01  8.283488e-01
    outer loop
      vertex  -5.488777e-01  3.473821e-01  7.976604e-01
      vertex  -1.000116e+00 -1.460523e-01  4.304322e-01
      vertex  -1.330481e-01  4.032036e-04  1.024670e+00
    endloop
  endfacet
  facet normal -5.989865e-01 -6.485011e-01  4.697462e-01
    outer loop
      vertex  -1.000116e+00 -1.460523e-01  4.304322e-01
      vertex  -3.949579e-01 -9.630579e-01  7.418073e-02
      vertex  -2.510936e-01 -5.241438e-01  8.635625e-01
    endloop
  endfacet
  facet normal -3.660850e-01 -7.833783e-01  5.022949e-01
    outer loop
      vertex  -3.949579e-01 -9.630579e-01  7.418073e-02
      vertex   4.813884e-02 -8.589707e-01  5.594549e-01
      vertex  -2.510936e-01 -5.241438e-01  8.635625e-01
    endloop
  endfacet
  facet normal -1.740440e-01  9.531218e-01  2.475227e-01
    outer loop
      vertex   2.848722e-02  8.234441e-01  6.673915e-01
      vertex  -2.246452e-01  9.966097e-01 -1.773966e-01
      vertex  -5.062869e-01  7.747214e-01  4.789822e-01
    endloop
  endfacet
  facet normal -5.331970e-01  7.830240e-01  3.202724e-01
    outer loop
      vertex  -8.486402e-02  9.982523e-01  5.129850e-02
      vertex  -2.246452e-01  9.966097e-01 -1.773966e-01
      vertex   2.848722e-02  8.234441e-01  6.673915e-01
    endloop
  endfacet
  facet normal -8.015116e-01  4.067543e-01  4.383264e-01
    outer loop
      vertex  -5.062869e-01  7.747214e-01  4.789822e-01
      vertex  -1.000116e+00 -1.460523e-01  4.304322e-01
      vertex  -5.488777e-01  3.473821e-01  7.976604e-01
    endloop
  endfacet
  facet normal -8.588390e-01  4.474647e-01  2.493412e-01
    outer loop
      vertex  -7.833515e-01  6.362194e-01 -2.267941e-01
      vertex  -1.000116e+00 -1.460523e-01  4.304322e-01
      vertex  -5.062869e-01  7.747214e-01  4.789822e-01
    endloop
  endfacet
  facet normal -3.476362e-02  9.990625e-01  2.579675e-02
    outer loop
      vertex   0.000000e+00  9.998460e-01  1.000000e-06
      vertex   1.665541e-01  1.004634e+00  3.900718e-02
      vertex  -2.246452e-01  9.966097e-01 -1.773966e-01
    endloop
  endfacet
  facet normal -1.688040e-02  9.998527e-01  3.136140e-03
    outer loop
      vertex   0.000000e+00  9.998460e-01  1.000000e-06
      vertex  -2.246452e-01  9.966097e-01 -1.773966e-01
      vertex  -8.486402e-02  9.982523e-01  5.129850e-02
    endloop
  endfacet
  facet normal -2.595434e-02  9.995925e-01 -1.188342e-02
    outer loop
      vertex   0.000000e+00  9.998460e-01  1.000000e-06
      vertex  -8.486402e-02  9.982523e-01  5.129850e-02
      vertex   1.665541e-01  1.004634e+00  3.900718e-02
    endloop
  endfacet
  facet normal -8.037316e-01 -5.949917e-01 -7.655212e-04
    outer loop
      vertex  -8.754143e-01 -3.132036e-01 -5.788933e-01
      vertex  -3.949579e-01 -9.630579e-01  7.418073e-02
      vertex  -1.000116e+00 -1.460523e-01  4.304322e-01
    endloop
  endfacet
  facet normal -5.444774e-01  8.373179e-01  4.942812e-02
    outer loop
      vertex  -7.833515e-01  6.362194e-01 -2.267941e-01
      vertex  -5.062869e-01  7.747214e-01  4.789822e-01
      vertex  -2.246452e-01  9.966097e-01 -1.773966e-01
    endloop
  endfacet
  facet normal -9.527422e-02 -9.953579e-01 -1.361691e-02
    outer loop
      vertex   2.413083e-02 -1.000507e+00 -1.206342e-01
      vertex   1.000000e-06 -9.998480e-01  0.000000e+00
      vertex  -3.949579e-01 -9.630579e-01  7.418073e-02
    endloop
  endfacet
  facet normal -1.500336e-02 -9.998844e-01  2.463992e-03
    outer loop
      vertex   7.190285e-02 -1.000632e+00  1.197484e-01
      vertex   1.000000e-06 -9.998480e-01  0.000000e+00
      vertex   2.413083e-02 -1.000507e+00 -1.206342e-01
    endloop
  endfacet
  facet normal -8.442775e-02 -9.954498e-01  4.417825e-02
    outer loop
      vertex  -3.949579e-01 -9.630579e-01  7.418073e-02
      vertex   1.000000e-06 -9.998480e-01  0.000000e+00
      vertex   7.190285e-02 -1.000632e+00  1.197484e-01
    endloop
  endfacet
endsolid vcg
